<?xml version="1.0" encoding="UTF-8" standalone="no"?>
<!DOCTYPE svg PUBLIC "-//W3C//DTD SVG 1.1//EN" "http://www.w3.org/Graphics/SVG/1.1/DTD/svg11.dtd">
<svg xmlns="http://www.w3.org/2000/svg" version="1.1" viewBox="0.00 0.00 1080.00 1080.00">
<g stroke-width="2.00" fill="none" stroke-linecap="butt">
<path stroke="#2d3239" vector-effect="non-scaling-stroke" d="
  M 838.47 696.14
  L 820.53 730.33
  A 0.52 0.52 0.0 0 1 819.55 730.15
  Q 819.49 729.63 820.05 728.82
  A 0.64 0.63 22.7 0 0 819.64 727.83
  Q 815.52 727.08 812.83 726.41
  Q 812.16 726.24 810.68 726.20
  C 808.73 726.14 807.31 725.14 805.26 725.12
  Q 801.02 725.08 799.62 724.86
  A 0.39 0.39 0.0 0 0 799.32 725.56
  L 801.28 727.12
  A 0.52 0.52 0.0 0 1 801.10 728.02
  L 791.02 730.88
  A 0.26 0.25 -15.9 0 0 790.84 731.19
  L 790.95 731.55
  A 0.35 0.35 0.0 0 0 791.37 731.80
  Q 792.25 731.61 793.36 731.94
  A 0.56 0.56 0.0 0 1 793.62 732.85
  L 789.43 737.48
  A 0.19 0.18 13.1 0 0 789.62 737.78
  L 794.39 736.42
  A 0.39 0.39 0.0 0 1 794.87 736.92
  L 794.46 738.13
  A 0.36 0.35 -61.7 0 1 793.90 738.30
  Q 793.39 737.89 792.38 738.14
  Q 791.13 738.46 788.23 739.31
  A 0.53 0.51 9.2 0 0 787.97 739.49
  L 784.98 743.24
  A 0.59 0.57 52.4 0 0 784.91 743.83
  Q 785.36 744.81 784.41 745.09"
/>
<path stroke="#8f9094" vector-effect="non-scaling-stroke" d="
  M 784.41 745.09
  Q 782.18 748.25 784.41 750.00
  Q 786.17 751.37 786.19 751.40
  Q 787.81 753.12 787.96 754.32
  Q 788.42 758.00 788.64 762.08"
/>
<path stroke="#2d3239" vector-effect="non-scaling-stroke" d="
  M 788.64 762.08
  Q 786.85 762.47 786.11 762.01
  A 0.59 0.57 -88.9 0 1 785.87 761.75
  L 785.04 760.03"
/>
<path stroke="#6d5659" vector-effect="non-scaling-stroke" d="
  M 785.04 760.03
  Q 784.27 756.26 785.55 753.24
  A 0.79 0.78 30.5 0 0 785.31 752.32
  L 785.01 752.08
  A 0.53 0.53 0.0 0 0 784.17 752.36
  Q 783.18 756.07 784.03 759.47"
/>
<path stroke="#2d3239" vector-effect="non-scaling-stroke" d="
  M 784.03 759.47
  Q 784.07 759.79 783.82 759.87
  Q 783.46 759.98 783.43 759.66
  Q 783.37 758.98 783.17 758.90
  Q 782.71 758.71 782.41 759.05
  Q 781.66 759.91 780.87 760.40
  A 0.67 0.67 0.0 0 0 780.56 761.00
  Q 780.58 761.31 780.59 761.33
  A 0.56 0.54 52.4 0 1 780.53 761.85
  L 777.45 766.02
  A 0.56 0.56 0.0 0 0 778.03 766.90
  Q 778.68 766.76 779.93 767.18
  A 0.33 0.33 0.0 0 1 779.98 767.78
  Q 778.85 768.41 778.54 770.18
  A 1.42 1.40 36.1 0 0 778.69 771.11
  Q 781.80 776.59 786.82 778.96"
/>
<path stroke="#8f9094" vector-effect="non-scaling-stroke" d="
  M 786.82 778.96
  Q 790.14 780.94 794.01 783.23
  Q 797.03 785.02 798.77 784.93
  Q 802.51 784.74 810.90 782.48
  A 1.70 1.69 11.1 0 0 811.77 781.90
  L 814.86 778.04"
/>
<path stroke="#2d3239" vector-effect="non-scaling-stroke" d="
  M 814.86 778.04
  L 824.11 775.36
  A 7.15 7.08 -71.3 0 0 826.37 774.23
  Q 831.62 770.30 834.91 765.89
  C 835.69 764.85 836.55 764.27 837.53 763.93
  A 0.85 0.85 0.0 0 0 837.62 762.37
  Q 836.38 761.75 836.63 761.07
  C 836.78 760.66 837.05 760.40 837.34 760.13
  A 0.69 0.69 0.0 0 0 837.30 759.08
  L 833.41 755.99
  A 0.86 0.86 0.0 0 1 833.09 755.34
  Q 833.05 753.40 832.60 751.91
  Q 831.07 746.77 829.59 741.47
  C 828.14 736.24 828.16 731.54 830.06 726.49
  C 833.52 717.29 836.19 709.38 840.54 701.92
  A 13.76 13.38 -7.5 0 1 842.89 698.94
  Q 846.84 695.17 848.81 692.89
  C 852.42 688.71 856.28 685.97 861.10 681.91
  A 0.48 0.47 -46.0 0 0 861.09 681.17
  Q 860.38 680.61 859.14 680.45"
/>
<path stroke="#1b486e" vector-effect="non-scaling-stroke" d="
  M 851.56 780.17
  L 843.33 780.34
  A 0.35 0.35 0.0 0 0 843.00 780.61
  L 842.94 780.87
  A 0.70 0.70 0.0 0 0 843.47 781.70
  C 852.88 783.69 857.49 784.47 864.11 786.58
  A 0.32 0.31 18.1 0 1 864.31 786.97
  L 864.28 787.01
  A 0.30 0.29 22.2 0 1 863.96 787.14
  L 844.47 782.82
  A 0.85 0.84 -1.5 0 0 843.47 783.87
  L 843.66 784.52
  A 1.74 1.72 -88.8 0 0 844.77 785.69
  L 868.95 793.81
  A 2.97 2.93 -45.4 0 0 870.91 793.78
  L 890.59 786.48"
/>
<path stroke="#1a608c" vector-effect="non-scaling-stroke" d="
  M 890.59 786.48
  Q 894.97 784.89 896.52 784.61
  Q 899.98 783.99 903.88 786.39"
/>
<path stroke="#1b486e" vector-effect="non-scaling-stroke" d="
  M 903.88 786.39
  L 916.45 791.89
  A 0.45 0.45 0.0 0 0 917.05 791.33
  L 915.50 786.96"
/>
<path stroke="#1a608c" vector-effect="non-scaling-stroke" d="
  M 915.50 786.96
  L 914.63 783.72"
/>
<path stroke="#1b486e" vector-effect="non-scaling-stroke" d="
  M 914.63 783.72
  Q 914.61 782.85 915.57 782.07
  Q 919.03 779.27 920.28 777.95"
/>
<path stroke="#1a608c" vector-effect="non-scaling-stroke" d="
  M 920.28 777.95
  L 923.76 775.81
  A 0.43 0.42 -57.5 0 0 923.59 775.02
  C 916.19 774.24 911.90 774.07 900.00 773.42
  Q 897.28 773.27 895.51 774.02
  Q 888.84 776.85 871.45 785.15
  Q 870.74 785.49 869.19 785.16"
/>
<path stroke="#1b486e" vector-effect="non-scaling-stroke" d="
  M 869.19 785.16
  Q 861.13 784.13 853.68 781.71
  Q 853.19 781.55 853.50 780.77"
/>
<path stroke="#2d3239" vector-effect="non-scaling-stroke" d="
  M 790.97 734.04
  Q 791.60 733.99 791.77 733.59
  A 0.33 0.33 0.0 0 0 791.51 733.13
  L 791.12 733.09"
/>
<path stroke="#2d3239" vector-effect="non-scaling-stroke" d="
  M 806.21 686.27
  L 805.80 688.01"
/>
<path stroke="#6d5659" vector-effect="non-scaling-stroke" d="
  M 805.80 688.01
  Q 801.00 693.30 796.19 698.71
  Q 793.77 701.44 793.36 705.52
  C 793.00 709.04 793.11 711.78 792.51 715.94
  Q 792.16 718.41 792.33 720.93"
/>
<path stroke="#2d3239" vector-effect="non-scaling-stroke" d="
  M 792.33 720.93
  Q 791.99 721.82 792.37 722.67
  A 0.65 0.64 74.9 0 0 793.04 723.06
  Q 799.64 722.25 802.38 717.65
  Q 809.26 706.12 812.79 691.89
  Q 814.38 685.51 811.18 680.69"
/>
<path stroke="#786265" vector-effect="non-scaling-stroke" d="
  M 785.04 760.03
  Q 784.44 760.36 784.03 759.47"
/>
<path stroke="#1383cd" vector-effect="non-scaling-stroke" d="
  M 920.28 777.95
  Q 911.00 777.76 902.06 779.01
  A 0.26 0.26 0.0 0 0 902.01 779.52
  L 914.63 783.72"
/>
<path stroke="#1383cd" vector-effect="non-scaling-stroke" d="
  M 915.50 786.96
  Q 915.21 788.91 914.00 788.41
  Q 908.84 786.28 903.88 786.39"
/>
<path stroke="#1383cd" vector-effect="non-scaling-stroke" d="
  M 890.59 786.48
  Q 881.57 787.08 873.30 787.68
  Q 871.51 787.81 868.04 786.57
  A 0.38 0.38 0.0 0 1 867.89 785.96
  Q 868.31 785.51 869.19 785.16"
/>
<path stroke="#dac1c0" vector-effect="non-scaling-stroke" d="
  M 823.22 742.63
  Q 822.36 743.63 820.84 744.01
  Q 818.54 744.57 818.20 744.70
  Q 812.45 746.97 807.28 750.50
  A 3.03 2.90 -3.7 0 0 806.35 751.51
  Q 803.73 756.15 803.33 762.02
  A 0.55 0.54 10.2 0 0 803.73 762.59
  Q 804.08 762.68 804.22 762.51"
/>
<path stroke="#9a9d9f" vector-effect="non-scaling-stroke" d="
  M 786.82 778.96
  Q 782.53 773.08 784.16 768.77
  Q 784.87 766.88 788.64 762.08"
/>
<path stroke="#9a9d9f" vector-effect="non-scaling-stroke" d="
  M 814.86 778.04
  Q 815.44 770.83 810.70 766.21
  A 3.51 3.44 -7.7 0 0 809.99 765.68
  L 804.22 762.51"
/>
<path stroke="#786265" vector-effect="non-scaling-stroke" d="
  M 804.22 762.51
  Q 803.96 761.37 804.40 760.93"
/>
<path stroke="#2d3239" vector-effect="non-scaling-stroke" d="
  M 804.40 760.93
  Q 804.46 762.33 804.97 762.17
  Q 807.24 761.45 806.45 760.79"
/>
<path stroke="#9a9d9f" vector-effect="non-scaling-stroke" d="
  M 806.45 760.79
  Q 809.50 761.36 812.15 760.68"
/>
<path stroke="#2d3239" vector-effect="non-scaling-stroke" d="
  M 812.15 760.68
  Q 812.54 760.86 812.82 761.60
  A 0.72 0.71 -12.4 0 0 813.53 762.05
  Q 820.10 761.68 823.82 756.81
  A 2.75 2.74 47.8 0 0 823.96 753.70
  L 819.77 746.94"
/>
<path stroke="#786265" vector-effect="non-scaling-stroke" d="
  M 819.77 746.94
  Q 821.28 747.01 821.75 746.49
  Q 824.56 743.43 823.22 742.63"
/>
<path stroke="#9a9d9f" vector-effect="non-scaling-stroke" d="
  M 823.22 742.63
  L 818.06 741.10
  A 2.07 2.03 -47.9 0 0 816.70 741.18
  Q 812.96 742.75 806.03 748.27
  Q 803.97 749.91 803.51 751.81
  Q 801.88 758.46 801.39 760.80
  A 0.64 0.64 0.0 0 1 800.57 761.28
  C 797.00 760.14 793.66 760.61 789.86 761.36
  A 0.55 0.55 0.0 0 1 789.20 760.89
  Q 788.77 757.59 788.85 754.24
  Q 788.96 749.60 784.41 745.09"
/>
<path stroke="#786265" vector-effect="non-scaling-stroke" d="
  M 792.33 720.93
  L 795.05 703.93
  A 0.92 0.89 70.5 0 1 795.25 703.49
  L 809.93 685.03
  A 0.54 0.54 0.0 0 0 809.91 684.33
  L 809.89 684.31
  A 0.48 0.47 -45.4 0 0 809.19 684.32
  L 805.80 688.01"
/>
<path stroke="#6d5659" vector-effect="non-scaling-stroke" d="
  M 819.77 746.94
  C 815.52 746.62 811.36 749.37 808.11 751.73
  A 4.47 4.46 80.3 0 0 806.46 754.07
  L 804.40 760.93"
/>
<path stroke="#8f9094" vector-effect="non-scaling-stroke" d="
  M 812.15 760.68
  L 810.82 758.10"
/>
<path stroke="#6d5659" vector-effect="non-scaling-stroke" d="
  M 810.82 758.10
  L 810.64 752.35
  A 0.31 0.30 -14.2 0 0 810.19 752.09
  Q 806.14 754.18 806.50 759.90"
/>
<path stroke="#8f9094" vector-effect="non-scaling-stroke" d="
  M 806.50 759.90
  Q 806.26 760.06 806.45 760.79"
/>
<path stroke="#dac1c0" vector-effect="non-scaling-stroke" d="
  M 810.82 758.10
  Q 809.70 756.70 809.15 757.38
  Q 807.99 758.84 806.50 759.90"
/>
<path stroke="#8f9094" vector-effect="non-scaling-stroke" d="
  M 837.59 726.82
  Q 838.15 726.05 838.81 725.91"
/>
<path stroke="#6d5659" vector-effect="non-scaling-stroke" d="
  M 838.81 725.91
  Q 844.65 722.19 849.73 717.52
  C 851.65 715.76 854.28 713.82 855.37 711.38
  Q 861.77 697.08 865.33 681.74
  A 0.49 0.49 0.0 0 0 864.54 681.26
  Q 856.25 688.22 846.08 698.11
  Q 841.22 702.84 837.99 710.49
  Q 832.80 722.77 831.09 727.57
  Q 830.28 729.83 829.96 731.91
  A 0.34 0.34 0.0 0 0 830.50 732.23
  L 837.59 726.82"
/>
<path stroke="#dac1c0" vector-effect="non-scaling-stroke" d="
  M 838.81 725.91
  Q 838.69 724.71 839.45 723.93
  Q 844.90 718.30 851.07 712.91
  A 0.56 0.56 0.0 0 0 850.49 711.97
  L 848.13 712.92
  A 0.57 0.56 79.4 0 1 847.36 712.39
  Q 847.36 711.39 848.04 710.51
  Q 849.87 708.18 855.28 701.68
  A 0.57 0.57 0.0 0 0 854.71 700.76
  L 852.22 701.36
  A 0.76 0.75 -79.1 0 1 851.43 700.19
  L 856.13 693.56
  A 0.24 0.23 -43.9 0 0 856.14 693.30
  L 855.95 693.10
  A 0.23 0.23 0.0 0 0 855.62 693.10
  L 843.47 705.25
  A 0.53 0.53 0.0 0 0 844.13 706.06
  Q 845.62 705.08 847.01 704.87
  A 0.59 0.59 0.0 0 1 847.55 705.82
  L 839.29 716.19
  A 0.45 0.45 0.0 0 0 839.81 716.89
  L 842.84 715.68
  A 0.54 0.54 0.0 0 1 843.45 716.54
  Q 839.66 720.80 837.08 725.75
  Q 836.82 726.25 837.59 726.82"
/>
<path stroke="#1b486e" vector-effect="non-scaling-stroke" d="
  M 868.36 760.48
  Q 864.74 764.44 861.25 768.49
  Q 859.48 770.53 856.95 771.59
  A 0.73 0.72 -18.2 0 0 856.52 772.42
  Q 856.56 772.60 856.55 772.69
  A 1.19 1.18 -11.4 0 1 855.98 773.54
  Q 851.00 776.43 845.37 776.85
  A 0.30 0.30 0.0 0 1 845.25 776.26
  Q 846.57 775.83 852.50 774.03
  Q 853.55 773.72 853.91 773.31
  A 0.47 0.47 0.0 0 0 853.42 772.55
  Q 850.18 773.59 848.09 773.35
  A 0.71 0.70 38.0 0 0 847.76 773.39
  L 843.51 775.24
  A 1.22 1.21 -5.9 0 0 842.80 776.10
  L 842.23 778.66
  A 0.57 0.56 -83.3 0 0 842.77 779.35
  Q 847.15 779.46 852.18 777.88
  C 856.90 776.40 860.92 775.67 864.67 774.99
  A 5.35 5.30 -72.6 0 0 867.49 773.50
  L 882.73 758.16"
/>
<path stroke="#1a608c" vector-effect="non-scaling-stroke" d="
  M 882.73 758.16
  L 907.21 754.91
  A 0.41 0.41 0.0 0 0 907.40 754.17
  L 904.81 752.32"
/>
<path stroke="#1b486e" vector-effect="non-scaling-stroke" d="
  M 904.81 752.32
  Q 904.15 751.21 902.31 750.48
  A 1.73 1.72 29.4 0 1 901.57 747.85
  Q 902.70 746.34 902.83 744.15"
/>
<path stroke="#1a608c" vector-effect="non-scaling-stroke" d="
  M 902.83 744.15
  L 904.62 741.35
  A 0.48 0.48 0.0 0 0 904.08 740.63
  L 880.63 747.28
  A 1.47 1.40 -75.5 0 0 879.99 747.68
  L 868.36 760.48"
/>
<path stroke="#1383cd" vector-effect="non-scaling-stroke" d="
  M 902.83 744.15
  C 899.93 745.24 896.74 746.18 894.13 747.42
  Q 884.31 752.10 878.33 754.36
  A 0.39 0.39 0.0 0 0 878.50 755.12
  Q 881.00 754.91 884.05 753.96
  A 3.98 3.91 34.2 0 1 884.93 753.80
  L 904.81 752.32"
/>
<path stroke="#1383cd" vector-effect="non-scaling-stroke" d="
  M 882.73 758.16
  Q 877.50 759.12 869.66 761.44
  Q 868.45 761.79 868.36 760.48"
/>
<path stroke="#8f9094" vector-effect="non-scaling-stroke" d="
  M 786.29 754.32
  Q 785.74 755.35 785.93 756.03
  A 0.56 0.56 0.0 0 0 786.93 756.19
  Q 787.45 755.44 786.89 754.33
  A 0.34 0.34 0.0 0 0 786.29 754.32"
/>
<path stroke="#2d3239" vector-effect="non-scaling-stroke" d="
  M 787.40 788.32
  Q 777.64 802.27 773.09 812.15
  Q 771.75 815.06 774.06 818.95
  A 1.01 0.99 77.2 0 0 774.82 819.44
  Q 784.08 820.35 792.23 818.93
  A 1.16 1.15 -17.4 0 0 793.08 817.31
  C 792.16 815.35 791.05 812.53 789.11 811.28
  Q 786.09 809.34 782.00 809.58
  A 0.42 0.42 0.0 0 1 781.67 808.87
  L 787.30 802.92
  A 1.14 1.11 74.0 0 0 787.58 802.40
  Q 787.96 800.72 789.15 802.01"
/>
<path stroke="#1a608c" vector-effect="non-scaling-stroke" d="
  M 789.15 802.01
  L 791.27 801.67"
/>
<path stroke="#2d3239" vector-effect="non-scaling-stroke" d="
  M 791.27 801.67
  L 796.36 802.19
  A 1.37 1.21 56.6 0 1 796.77 802.30
  Q 800.05 803.73 802.71 803.85"
/>
<path stroke="#1b486e" vector-effect="non-scaling-stroke" d="
  M 802.71 803.85
  Q 804.96 805.49 807.10 805.85
  A 0.86 0.84 -64.9 0 0 807.91 805.55
  L 811.19 801.68"
/>
<path stroke="#2d3239" vector-effect="non-scaling-stroke" d="
  M 811.19 801.68
  L 814.23 798.74"
/>
<path stroke="#1b486e" vector-effect="non-scaling-stroke" d="
  M 814.23 798.74
  L 819.38 796.54
  A 15.66 15.58 -74.7 0 0 822.53 794.73
  Q 826.15 792.05 830.10 789.08
  Q 835.24 785.22 842.29 785.94
  A 0.35 0.35 0.0 0 0 842.65 785.47
  L 840.52 780.16
  A 0.69 0.69 0.0 0 0 839.88 779.72
  L 839.24 779.72
  A 0.49 0.49 0.0 0 1 838.86 778.92
  L 840.70 776.60
  A 1.50 1.50 0.0 0 0 840.71 774.75
  L 839.56 773.25
  A 1.07 1.07 0.0 0 0 837.98 773.12
  Q 832.53 778.15 824.18 780.45
  Q 809.06 784.61 801.00 785.95
  Q 798.02 786.44 796.50 785.75
  Q 791.51 783.48 787.75 781.76
  A 0.71 0.70 -61.6 0 0 786.86 782.03
  Q 786.27 782.98 786.36 784.29
  A 0.79 0.77 -67.0 0 0 786.52 784.70
  L 787.60 786.11
  A 0.74 0.74 0.0 0 1 787.61 787.02
  Q 787.18 787.61 787.40 788.32"
/>
<path stroke="#26557a" vector-effect="non-scaling-stroke" d="
  M 814.23 798.74
  L 803.53 801.84
  A 4.51 4.50 -38.3 0 1 800.08 801.44
  Q 797.93 800.23 795.43 798.54
  Q 790.52 795.23 787.14 790.90"
/>
<path stroke="#1383cd" vector-effect="non-scaling-stroke" d="
  M 787.14 790.90
  Q 788.74 791.47 790.08 792.74
  Q 792.50 795.04 792.59 795.11
  Q 796.28 797.88 800.49 799.63
  A 3.71 3.65 48.2 0 0 802.89 799.78
  Q 805.00 799.19 807.70 798.87
  Q 809.99 798.60 815.51 795.35
  A 5.99 5.98 -67.9 0 1 816.95 794.74
  Q 820.99 793.62 823.21 790.96
  A 0.91 0.91 0.0 0 0 822.25 789.50
  Q 820.01 790.15 818.63 791.08
  A 3.97 3.95 20.0 0 1 817.53 791.59
  Q 814.91 792.33 809.14 793.80
  C 804.01 795.11 802.13 797.25 796.50 793.93
  Q 794.98 793.03 791.05 791.20
  Q 790.08 790.75 787.55 787.69"
/>
<path stroke="#26557a" vector-effect="non-scaling-stroke" d="
  M 787.55 787.69
  Q 787.47 788.00 787.40 788.32"
/>
<path stroke="#26557a" vector-effect="non-scaling-stroke" d="
  M 811.19 801.68
  Q 806.82 802.03 802.71 803.85"
/>
<path stroke="#256c97" vector-effect="non-scaling-stroke" d="
  M 791.27 801.67
  Q 792.55 801.69 793.44 801.08
  A 0.57 0.56 -26.3 0 0 793.66 800.45
  Q 793.56 800.13 793.03 799.95
  C 791.67 799.50 791.27 798.39 790.82 796.89
  A 0.31 0.30 48.7 0 0 790.25 796.85
  Q 789.15 799.23 789.15 802.01"
/>
<path stroke="#256c97" vector-effect="non-scaling-stroke" d="
  M 787.14 790.90
  Q 787.63 789.92 787.55 787.69"
/>
<path stroke="#8f9094" vector-effect="non-scaling-stroke" d="
  M 796.77 803.68
  Q 789.38 801.46 785.03 807.46
  A 0.33 0.33 0.0 0 0 785.19 807.97
  L 791.73 810.28"
/>
<path stroke="#2d3239" vector-effect="non-scaling-stroke" d="
  M 791.73 810.28
  Q 796.29 811.70 800.57 814.22
  Q 808.55 818.93 808.63 818.96
  Q 815.28 821.47 822.93 820.76
  A 1.57 1.55 -71.3 0 0 823.91 820.27
  C 826.50 817.41 830.20 814.19 832.26 811.17
  C 836.78 804.54 839.37 798.91 839.11 790.68
  A 1.01 1.00 -86.9 0 0 838.25 789.72
  C 835.06 789.23 833.39 789.45 830.60 791.39
  Q 827.48 793.56 824.18 796.64
  A 0.98 0.98 0.0 0 0 824.24 798.13
  L 826.65 800.05
  A 1.90 1.90 0.0 0 1 827.32 801.95
  L 826.00 807.88
  A 2.55 2.53 81.2 0 1 824.80 809.53
  L 820.01 812.29
  A 3.55 3.52 -43.9 0 1 816.38 812.24
  Q 813.13 810.23 810.63 808.79
  C 806.78 806.57 801.32 805.25 796.77 803.68"
/>
<path stroke="#9a9d9f" vector-effect="non-scaling-stroke" d="
  M 791.73 810.28
  C 792.84 806.26 794.28 805.88 796.77 803.68"
/>
<path stroke="#8f9094" vector-effect="non-scaling-stroke" d="
  M 825.72 801.98
  A 2.23 2.21 14.9 0 0 824.59 800.05
  C 818.05 796.40 813.82 800.70 809.41 805.81
  A 0.56 0.56 0.0 0 0 809.55 806.66
  Q 811.06 807.55 816.06 810.28
  Q 818.44 811.58 820.18 810.09
  A 0.87 0.86 -30.9 0 0 820.43 809.12
  Q 819.49 806.67 816.36 805.73
  A 0.06 0.05 18.9 0 1 816.32 805.67
  L 816.45 805.17
  A 0.24 0.23 -75.1 0 1 816.73 805.00
  Q 820.14 805.81 821.70 808.31
  A 0.78 0.78 0.0 0 0 822.64 808.63
  Q 824.16 808.04 824.59 806.68
  A 2.44 2.26 27.6 0 0 823.67 804.11
  Q 821.41 802.44 819.36 801.78
  A 0.33 0.30 0.8 0 1 819.16 801.59
  Q 819.05 801.28 819.32 801.03
  A 0.43 0.43 0.0 0 1 819.70 800.91
  Q 822.40 801.36 824.83 803.12
  A 0.56 0.56 0.0 0 0 825.72 802.66
  L 825.72 801.98"
/>
<path stroke="#1a608c" vector-effect="non-scaling-stroke" d="
  M 786.91 829.61
  L 786.14 837.24
  A 1.29 1.27 -60.7 0 0 786.37 838.09
  C 788.41 840.96 792.93 842.93 796.17 844.04"
/>
<path stroke="#1b486e" vector-effect="non-scaling-stroke" d="
  M 796.17 844.04
  Q 800.73 845.80 805.81 845.49"
/>
<path stroke="#1a608c" vector-effect="non-scaling-stroke" d="
  M 805.81 845.49
  Q 816.28 846.37 826.50 842.70"
/>
<path stroke="#1b486e" vector-effect="non-scaling-stroke" d="
  M 826.50 842.70
  Q 831.50 840.89 836.43 837.31
  A 2.69 2.68 -22.7 0 0 837.50 834.72
  Q 836.97 831.42 835.74 828.00
  Q 834.93 825.75 835.96 822.64
  Q 837.22 818.84 838.05 814.58
  A 0.28 0.27 71.8 0 0 837.58 814.34
  L 828.33 824.59
  A 1.92 1.84 1.2 0 1 828.09 824.81
  L 824.27 827.65
  A 5.04 5.04 0.0 0 1 820.46 828.58
  Q 818.33 828.23 813.35 827.46
  Q 811.21 827.13 805.50 824.30
  A 3.58 3.30 -10.5 0 1 804.80 823.86
  Q 801.15 820.91 797.83 822.17
  Q 793.43 823.83 788.55 825.44
  A 1.63 1.59 8.7 0 0 787.77 826.00
  Q 786.57 827.61 786.91 829.61"
/>
<path stroke="#1383cd" vector-effect="non-scaling-stroke" d="
  M 826.50 842.70
  Q 825.06 839.62 823.42 836.63
  C 822.66 835.24 823.08 834.33 822.09 832.84
  A 0.52 0.52 0.0 0 0 821.30 832.75
  Q 820.78 833.24 820.08 832.73
  A 1.80 1.75 -23.1 0 0 819.20 832.39
  Q 809.58 831.33 802.44 826.09
  A 0.58 0.58 0.0 0 0 801.51 826.56
  L 801.51 830.12
  A 0.56 0.55 -87.8 0 0 802.02 830.68
  C 803.17 830.77 807.44 830.71 809.35 831.81
  A 0.46 0.46 0.0 0 1 809.21 832.66
  Q 807.11 833.05 803.50 832.82
  Q 803.01 832.79 802.61 832.56
  Q 802.06 832.25 801.79 832.25
  A 0.66 0.66 0.0 0 0 801.12 832.87
  Q 800.77 839.03 801.89 844.08
  A 1.21 1.20 -1.4 0 0 802.88 845.02
  L 805.81 845.49"
/>
<path stroke="#1383cd" vector-effect="non-scaling-stroke" d="
  M 796.17 844.04
  L 799.46 844.50
  A 0.38 0.38 0.0 0 0 799.89 844.11
  L 799.38 832.77
  A 1.00 0.99 8.2 0 0 798.70 831.87
  L 795.18 830.69
  A 0.40 0.40 0.0 0 1 795.24 829.91
  Q 796.70 829.65 798.71 830.34
  A 0.84 0.84 0.0 0 0 799.83 829.51
  L 799.75 827.63
  A 1.56 1.56 0.0 0 0 798.36 826.16
  Q 796.15 825.92 795.31 826.25
  Q 791.06 827.96 786.91 829.61"
/>
<path stroke="#8f9094" vector-effect="non-scaling-stroke" d="
  M 848.64 826.00
  A 0.30 0.30 0.0 0 0 848.05 826.10
  L 848.05 834.57
  A 0.48 0.48 0.0 0 0 848.53 835.05
  L 849.22 835.05
  A 0.54 0.54 0.0 0 1 849.74 835.73
  Q 849.01 838.29 847.40 840.42
  A 1.13 0.86 -23.4 0 0 847.26 840.67
  Q 846.96 841.46 847.94 841.98
  A 0.71 0.71 0.0 0 1 848.04 843.17
  L 844.49 845.91
  A 1.07 1.07 0.0 0 0 844.08 846.75
  L 844.08 847.72
  A 0.96 0.95 -13.5 0 0 845.47 848.57
  Q 849.77 846.39 851.69 841.76
  A 0.87 0.85 -53.5 0 0 851.57 840.90
  L 851.23 840.45
  A 1.38 1.34 30.0 0 1 850.95 839.47
  C 851.18 837.50 852.62 833.73 851.39 832.00
  C 849.92 829.94 849.52 828.39 848.64 826.00"
/>
<path stroke="#2d3239" vector-effect="non-scaling-stroke" d="
  M 796.33 855.12
  A 0.48 0.48 0.0 0 1 797.00 854.83
  Q 800.24 856.38 806.79 858.80
  C 812.86 861.03 816.58 864.27 820.81 869.22
  C 825.55 874.77 831.53 877.04 838.98 876.54
  A 1.52 1.50 11.7 0 0 840.21 875.74
  C 845.57 865.75 841.96 859.65 836.79 850.96
  C 834.40 846.94 830.53 844.51 826.24 845.31
  Q 816.76 847.06 815.08 847.29
  Q 799.63 849.44 786.72 841.81
  A 0.88 0.88 0.0 0 0 785.43 842.34
  L 779.95 862.51
  A 5.13 5.12 37.6 0 0 780.46 866.42
  L 784.77 873.89
  A 1.06 1.05 -16.1 0 0 785.74 874.42
  L 795.00 874.00
  A 2.01 2.00 6.2 0 0 796.84 872.52
  L 799.80 861.63
  A 1.53 1.51 -54.4 0 0 799.60 860.37
  L 796.36 855.47
  A 0.05 0.03 -76.7 0 1 796.35 855.44
  Q 796.30 855.19 796.33 855.12"
/>
<path stroke="#8f9094" vector-effect="non-scaling-stroke" d="
  M 784.82 895.32
  Q 779.28 896.39 776.81 897.57
  Q 770.74 900.46 772.36 906.66"
/>
<path stroke="#2d3239" vector-effect="non-scaling-stroke" d="
  M 772.36 906.66
  Q 773.23 906.58 773.85 906.80"
/>
<path stroke="#6d5659" vector-effect="non-scaling-stroke" d="
  M 773.85 906.80
  Q 775.93 908.63 778.71 908.54
  A 0.75 0.74 -82.1 0 0 779.39 908.02
  Q 779.66 907.19 779.57 906.04"
/>
<path stroke="#8f9094" vector-effect="non-scaling-stroke" d="
  M 779.57 906.04
  Q 780.52 901.40 784.99 900.20
  A 0.29 0.29 0.0 0 1 785.22 900.73
  Q 782.64 902.38 781.28 905.68"
/>
<path stroke="#6d5659" vector-effect="non-scaling-stroke" d="
  M 781.28 905.68
  Q 780.53 906.86 780.71 908.17
  A 0.68 0.68 0.0 0 0 781.36 908.75
  Q 789.58 909.02 796.91 905.40
  A 0.65 0.65 0.0 0 0 797.23 904.60
  Q 796.30 901.94 794.78 900.40"
/>
<path stroke="#8f9094" vector-effect="non-scaling-stroke" d="
  M 794.78 900.40
  Q 794.66 900.16 794.53 899.93"
/>
<path stroke="#2d3239" vector-effect="non-scaling-stroke" d="
  M 794.53 899.93
  L 799.31 888.69
  A 1.78 1.78 0.0 0 0 798.25 886.31
  Q 796.97 885.87 794.31 886.03
  Q 794.25 886.03 792.75 885.75
  Q 791.95 885.60 791.29 886.51
  Q 788.13 890.90 784.82 895.32"
/>
<path stroke="#9a9d9f" vector-effect="non-scaling-stroke" d="
  M 794.53 899.93
  Q 790.79 896.57 784.82 895.32"
/>
<path stroke="#dac1c0" vector-effect="non-scaling-stroke" d="
  M 794.78 900.40
  Q 790.27 906.63 781.28 905.68"
/>
<path stroke="#dac1c0" vector-effect="non-scaling-stroke" d="
  M 779.57 906.04
  L 778.19 906.41
  A 1.15 1.07 43.0 0 1 777.64 906.41
  L 774.04 905.50"
/>
<path stroke="#9a9d9f" vector-effect="non-scaling-stroke" d="
  M 774.04 905.50
  Q 774.92 901.74 778.02 899.23
  A 0.17 0.17 0.0 0 0 777.90 898.93
  Q 776.43 899.01 775.31 900.10
  Q 773.03 902.31 772.36 906.66"
/>
<path stroke="#786265" vector-effect="non-scaling-stroke" d="
  M 774.04 905.50
  L 773.85 906.80"
/>
<path stroke="#8f9094" vector-effect="non-scaling-stroke" d="
  M 839.46 904.55
  L 839.66 908.80"
/>
<path stroke="#6d5659" vector-effect="non-scaling-stroke" d="
  M 839.66 908.80
  Q 841.50 912.91 847.30 913.11
  A 0.57 0.56 -86.1 0 0 847.87 912.61
  Q 848.09 910.74 847.64 908.96"
/>
<path stroke="#8f9094" vector-effect="non-scaling-stroke" d="
  M 847.64 908.96
  L 846.24 904.50
  A 0.29 0.29 0.0 0 1 846.73 904.22
  Q 848.78 906.54 848.99 909.99"
/>
<path stroke="#6d5659" vector-effect="non-scaling-stroke" d="
  M 848.99 909.99
  Q 848.55 916.38 857.44 912.56
  A 0.90 0.89 82.3 0 0 857.97 911.86
  Q 858.22 910.11 857.57 908.14"
/>
<path stroke="#8f9094" vector-effect="non-scaling-stroke" d="
  M 857.57 908.14
  L 855.53 902.94
  A 0.15 0.14 -82.2 0 1 855.75 902.77
  Q 857.27 903.92 858.12 906.07"
/>
<path stroke="#6d5659" vector-effect="non-scaling-stroke" d="
  M 858.12 906.07
  Q 859.32 908.66 859.29 911.42
  A 0.36 0.36 0.0 0 0 859.87 911.72
  Q 863.42 909.07 861.47 905.02"
/>
<path stroke="#8f9094" vector-effect="non-scaling-stroke" d="
  M 861.47 905.02
  Q 859.34 901.40 856.53 898.99"
/>
<path stroke="#2d3239" vector-effect="non-scaling-stroke" d="
  M 856.53 898.99
  Q 853.95 891.27 845.99 890.25
  A 2.89 2.88 -48.3 0 0 844.98 890.31
  Q 841.33 891.21 838.88 894.16
  A 1.17 1.17 0.0 0 0 838.61 895.01
  L 839.46 904.55"
/>
<path stroke="#9a9d9f" vector-effect="non-scaling-stroke" d="
  M 856.53 898.99
  Q 845.03 895.71 839.46 904.55"
/>
<path stroke="#dac1c0" vector-effect="non-scaling-stroke" d="
  M 861.47 905.02
  Q 859.96 905.87 858.12 906.07"
/>
<path stroke="#dac1c0" vector-effect="non-scaling-stroke" d="
  M 857.57 908.14
  Q 853.03 910.53 848.99 909.99"
/>
<path stroke="#dac1c0" vector-effect="non-scaling-stroke" d="
  M 847.64 908.96
  Q 846.55 909.92 844.82 909.41
  Q 842.78 908.82 839.66 908.80"
/>
<path stroke="#2d3239" vector-effect="non-scaling-stroke" d="
  M 794.04 742.45
  Q 794.13 741.91 793.80 741.07
  A 0.26 0.26 0.0 0 0 793.31 741.10
  Q 793.03 742.13 793.20 742.58
  A 0.45 0.43 -52.2 0 0 794.04 742.45"
/>
<path stroke="#9a9d9f" vector-effect="non-scaling-stroke" d="
  M 792.91 771.09
  Q 794.35 770.35 797.19 768.20
  Q 798.11 767.49 798.30 767.05
  A 1.33 1.33 0.0 0 0 797.37 765.26
  Q 794.39 764.56 791.34 764.95
  C 790.22 765.10 788.52 764.83 787.54 765.85
  A 2.04 1.72 44.1 0 0 787.81 768.49
  Q 788.88 769.52 790.87 771.05
  A 0.80 0.78 13.0 0 1 791.17 771.52
  L 791.92 774.65
  A 0.81 0.80 64.5 0 1 791.63 775.49
  Q 788.94 777.62 790.84 777.57
  A 0.62 0.56 -64.9 0 0 791.20 777.42
  L 792.15 776.58
  A 0.92 0.92 0.0 0 1 793.02 776.38
  L 801.47 778.67
  A 0.17 0.16 14.5 0 0 801.67 778.56
  L 801.76 778.21
  A 0.72 0.71 15.3 0 0 801.25 777.33
  L 793.76 775.29
  A 1.08 1.07 1.0 0 1 793.00 774.51
  L 792.43 772.11
  A 0.90 0.90 0.0 0 1 792.91 771.09"
/>
<path stroke="#8f9094" vector-effect="non-scaling-stroke" d="
  M 818.42 755.13
  L 818.06 759.39
  A 0.44 0.43 -16.3 0 0 818.76 759.77
  L 822.51 756.87
  A 0.85 0.85 0.0 0 0 822.78 755.88
  L 821.75 753.26"
/>
<path stroke="#6d5659" vector-effect="non-scaling-stroke" d="
  M 821.75 753.26
  L 819.80 749.59
  A 1.58 1.57 -15.4 0 0 818.33 748.76
  L 816.34 748.85
  A 0.51 0.50 61.0 0 0 816.08 749.77
  Q 816.94 750.38 817.45 751.33
  A 2.26 2.26 0.0 0 1 817.70 752.18
  Q 817.82 753.72 818.42 755.13"
/>
<path stroke="#dac1c0" vector-effect="non-scaling-stroke" d="
  M 821.75 753.26
  L 819.37 753.03
  A 0.46 0.42 -58.6 0 0 819.09 753.11
  Q 818.45 753.54 818.42 755.13"
/>
<path stroke="#8f9094" vector-effect="non-scaling-stroke" d="
  M 813.4747 751.0793
  A 1.65 1.30 -96.1 0 0 812.3574 752.8581
  A 1.65 1.30 -96.1 0 0 813.8253 754.3607
  A 1.65 1.30 -96.1 0 0 814.9426 752.5819
  A 1.65 1.30 -96.1 0 0 813.4747 751.0793"
/>
<path stroke="#786265" vector-effect="non-scaling-stroke" d="
  M 789.17 768.25
  Q 790.29 769.80 791.98 770.10
  A 1.53 1.52 -53.7 0 0 792.95 769.95
  Q 794.82 768.99 796.64 767.59
  A 1.03 0.99 -50.7 0 0 796.50 765.87
  Q 795.84 765.57 794.94 765.77"
/>
<path stroke="#9a9d9f" vector-effect="non-scaling-stroke" d="
  M 794.94 765.77
  Q 792.26 765.63 789.06 765.96
  A 1.00 1.00 0.0 0 0 788.29 767.44
  Q 788.56 767.91 789.17 768.25"
/>
<path stroke="#dac1c0" vector-effect="non-scaling-stroke" d="
  M 794.94 765.77
  Q 795.60 766.58 795.02 766.78
  Q 792.19 767.76 789.17 768.25"
/>
<path stroke="#1383cd" vector-effect="non-scaling-stroke" d="
  M 788.68 785.87
  L 788.97 786.28
  A 2.22 2.13 87.1 0 0 789.64 786.91
  Q 792.62 788.73 794.70 790.98
  Q 795.42 791.75 801.15 793.79
  A 3.34 3.31 51.5 0 0 802.67 793.97
  Q 807.15 793.49 808.92 792.57
  Q 812.63 790.63 827.03 782.49
  A 0.19 0.19 0.0 0 0 827.00 782.14
  C 825.90 781.77 825.17 782.56 824.52 782.74
  Q 807.23 787.45 802.95 788.09
  Q 798.73 788.73 796.40 787.93
  Q 791.74 786.33 789.24 785.19
  A 0.46 0.46 0.0 0 0 788.68 785.87"
/>
<path stroke="#dac1c0" vector-effect="non-scaling-stroke" d="
  M 823.33 806.88
  Q 824.14 805.87 824.11 805.76
  A 0.41 0.41 0.0 0 0 823.46 805.54
  Q 822.82 806.04 822.84 806.72
  A 0.28 0.27 -26.7 0 0 823.33 806.88"
/>
</g>
<path fill="#22252d" d="
  M 838.47 696.14
  L 820.53 730.33
  A 0.52 0.52 0.0 0 1 819.55 730.15
  Q 819.49 729.63 820.05 728.82
  A 0.64 0.63 22.7 0 0 819.64 727.83
  Q 815.52 727.08 812.83 726.41
  Q 812.16 726.24 810.68 726.20
  C 808.73 726.14 807.31 725.14 805.26 725.12
  Q 801.02 725.08 799.62 724.86
  A 0.39 0.39 0.0 0 0 799.32 725.56
  L 801.28 727.12
  A 0.52 0.52 0.0 0 1 801.10 728.02
  L 791.02 730.88
  A 0.26 0.25 -15.9 0 0 790.84 731.19
  L 790.95 731.55
  A 0.35 0.35 0.0 0 0 791.37 731.80
  Q 792.25 731.61 793.36 731.94
  A 0.56 0.56 0.0 0 1 793.62 732.85
  L 789.43 737.48
  A 0.19 0.18 13.1 0 0 789.62 737.78
  L 794.39 736.42
  A 0.39 0.39 0.0 0 1 794.87 736.92
  L 794.46 738.13
  A 0.36 0.35 -61.7 0 1 793.90 738.30
  Q 793.39 737.89 792.38 738.14
  Q 791.13 738.46 788.23 739.31
  A 0.53 0.51 9.2 0 0 787.97 739.49
  L 784.98 743.24
  A 0.59 0.57 52.4 0 0 784.91 743.83
  Q 785.36 744.81 784.41 745.09
  Q 782.18 748.25 784.41 750.00
  Q 786.17 751.37 786.19 751.40
  Q 787.81 753.12 787.96 754.32
  Q 788.42 758.00 788.64 762.08
  Q 786.85 762.47 786.11 762.01
  A 0.59 0.57 -88.9 0 1 785.87 761.75
  L 785.04 760.03
  Q 784.27 756.26 785.55 753.24
  A 0.79 0.78 30.5 0 0 785.31 752.32
  L 785.01 752.08
  A 0.53 0.53 0.0 0 0 784.17 752.36
  Q 783.18 756.07 784.03 759.47
  Q 784.07 759.79 783.82 759.87
  Q 783.46 759.98 783.43 759.66
  Q 783.37 758.98 783.17 758.90
  Q 782.71 758.71 782.41 759.05
  Q 781.66 759.91 780.87 760.40
  A 0.67 0.67 0.0 0 0 780.56 761.00
  Q 780.58 761.31 780.59 761.33
  A 0.56 0.54 52.4 0 1 780.53 761.85
  L 777.45 766.02
  A 0.56 0.56 0.0 0 0 778.03 766.90
  Q 778.68 766.76 779.93 767.18
  A 0.33 0.33 0.0 0 1 779.98 767.78
  Q 778.85 768.41 778.54 770.18
  A 1.42 1.40 36.1 0 0 778.69 771.11
  Q 781.80 776.59 786.82 778.96
  Q 790.14 780.94 794.01 783.23
  Q 797.03 785.02 798.77 784.93
  Q 802.51 784.74 810.90 782.48
  A 1.70 1.69 11.1 0 0 811.77 781.90
  L 814.86 778.04
  L 824.11 775.36
  A 7.15 7.08 -71.3 0 0 826.37 774.23
  Q 831.62 770.30 834.91 765.89
  C 835.69 764.85 836.55 764.27 837.53 763.93
  A 0.85 0.85 0.0 0 0 837.62 762.37
  Q 836.38 761.75 836.63 761.07
  C 836.78 760.66 837.05 760.40 837.34 760.13
  A 0.69 0.69 0.0 0 0 837.30 759.08
  L 833.41 755.99
  A 0.86 0.86 0.0 0 1 833.09 755.34
  Q 833.05 753.40 832.60 751.91
  Q 831.07 746.77 829.59 741.47
  C 828.14 736.24 828.16 731.54 830.06 726.49
  C 833.52 717.29 836.19 709.38 840.54 701.92
  A 13.76 13.38 -7.5 0 1 842.89 698.94
  Q 846.84 695.17 848.81 692.89
  C 852.42 688.71 856.28 685.97 861.10 681.91
  A 0.48 0.47 -46.0 0 0 861.09 681.17
  Q 860.38 680.61 859.14 680.45
  L 869.50 672.34
  A 0.70 0.70 0.0 0 1 870.62 673.05
  Q 865.95 694.16 858.05 714.04
  Q 857.29 715.94 855.46 717.47
  Q 845.89 725.42 835.89 734.18
  A 1.71 1.71 0.0 0 0 835.43 736.10
  L 841.05 750.19
  A 1.74 1.71 -71.1 0 0 841.17 750.44
  Q 843.13 753.62 846.20 757.04
  Q 847.18 758.13 846.35 759.01
  A 0.58 0.58 0.0 0 0 846.36 759.82
  L 846.65 760.12
  A 0.53 0.53 0.0 0 1 846.54 760.96
  L 844.36 762.22
  A 0.75 0.75 0.0 0 0 844.38 763.53
  Q 845.13 763.94 845.77 764.09
  A 0.43 0.43 0.0 0 1 845.98 764.81
  L 840.31 770.49
  A 1.25 1.25 0.0 0 0 840.27 772.22
  Q 841.39 773.45 842.08 773.82
  A 1.63 1.62 51.7 0 0 843.23 773.96
  Q 854.87 770.87 856.94 770.18
  Q 858.66 769.61 860.41 767.65
  Q 869.36 757.60 878.16 747.60
  A 5.05 5.05 0.0 0 1 880.57 746.07
  L 906.04 738.85
  A 0.66 0.66 0.0 0 1 906.82 739.75
  L 903.11 748.03
  A 1.26 1.26 0.0 0 0 903.47 749.53
  L 910.07 754.78
  A 0.71 0.71 0.0 0 1 909.69 756.05
  Q 897.07 757.17 884.96 759.13
  C 883.15 759.42 881.75 761.26 880.36 762.54
  Q 880.10 762.77 868.52 774.14
  A 6.97 6.93 -73.9 0 1 865.26 775.95
  L 851.67 779.20
  A 0.47 0.47 0.0 0 0 851.37 779.89
  Q 851.45 780.01 851.56 780.17
  L 843.33 780.34
  A 0.35 0.35 0.0 0 0 843.00 780.61
  L 842.94 780.87
  A 0.70 0.70 0.0 0 0 843.47 781.70
  C 852.88 783.69 857.49 784.47 864.11 786.58
  A 0.32 0.31 18.1 0 1 864.31 786.97
  L 864.28 787.01
  A 0.30 0.29 22.2 0 1 863.96 787.14
  L 844.47 782.82
  A 0.85 0.84 -1.5 0 0 843.47 783.87
  L 843.66 784.52
  A 1.74 1.72 -88.8 0 0 844.77 785.69
  L 868.95 793.81
  A 2.97 2.93 -45.4 0 0 870.91 793.78
  L 890.59 786.48
  Q 894.97 784.89 896.52 784.61
  Q 899.98 783.99 903.88 786.39
  L 916.45 791.89
  A 0.45 0.45 0.0 0 0 917.05 791.33
  L 915.50 786.96
  L 914.63 783.72
  Q 914.61 782.85 915.57 782.07
  Q 919.03 779.27 920.28 777.95
  L 923.76 775.81
  A 0.43 0.42 -57.5 0 0 923.59 775.02
  C 916.19 774.24 911.90 774.07 900.00 773.42
  Q 897.28 773.27 895.51 774.02
  Q 888.84 776.85 871.45 785.15
  Q 870.74 785.49 869.19 785.16
  Q 861.13 784.13 853.68 781.71
  Q 853.19 781.55 853.50 780.77
  Q 859.12 782.25 867.58 783.84
  Q 870.23 784.34 871.82 783.60
  Q 888.56 775.79 894.71 773.24
  Q 897.83 771.95 902.26 772.23
  Q 910.80 772.77 918.25 773.17
  Q 922.18 773.38 926.57 774.10
  A 0.46 0.46 0.0 0 1 926.77 774.92
  L 916.22 783.08
  A 1.03 1.03 0.0 0 0 915.89 784.29
  L 919.74 793.94
  A 0.45 0.45 0.0 0 1 919.14 794.52
  Q 913.50 792.07 910.83 790.68
  C 907.94 789.17 905.65 788.68 902.49 787.25
  C 898.86 785.61 896.89 785.63 892.88 787.13
  Q 881.91 791.24 872.39 794.64
  A 6.71 6.69 44.4 0 1 868.03 794.68
  L 843.51 786.45
  A 0.50 0.50 0.0 0 0 842.94 787.20
  C 846.01 791.92 845.92 798.44 843.97 803.77
  Q 838.38 818.96 837.51 822.49
  Q 836.71 825.71 837.89 828.60
  A 0.39 0.39 0.0 0 0 838.63 828.55
  Q 839.31 826.05 841.47 826.36
  A 1.01 0.99 26.7 0 0 842.31 826.09
  L 846.68 821.72
  A 0.73 0.73 0.0 0 1 847.83 821.87
  L 849.58 824.91
  A 0.55 0.34 31.7 0 1 849.64 825.03
  L 852.65 831.82
  A 2.03 1.95 -62.3 0 1 852.79 832.30
  Q 853.08 833.88 852.73 836.12
  Q 852.56 837.21 852.74 839.39
  Q 853.17 844.58 848.73 847.78
  Q 845.49 850.12 845.46 850.14
  A 0.70 0.69 -29.1 0 0 845.23 850.91
  Q 849.79 864.32 849.89 865.03
  Q 849.97 865.62 849.99 869.02
  Q 849.99 869.92 849.19 872.89
  Q 848.40 875.85 848.13 879.17
  A 1.93 1.86 33.3 0 0 848.37 880.23
  Q 849.12 881.54 849.62 882.64
  Q 850.58 884.73 850.77 885.06
  Q 854.77 891.84 857.16 896.34
  C 859.79 901.28 864.60 903.46 863.07 910.10
  A 2.39 2.38 74.7 0 1 862.40 911.28
  Q 857.36 916.12 849.75 914.99
  C 843.07 914.01 838.12 913.48 837.83 905.69
  Q 837.60 899.40 835.95 891.78
  Q 834.94 887.11 833.16 883.73
  A 2.09 2.06 -0.3 0 0 832.25 882.84
  C 827.46 880.46 824.49 879.13 821.28 874.72
  Q 818.37 870.72 813.71 864.10
  A 0.89 0.88 46.8 0 0 812.30 864.05
  Q 808.88 868.27 807.18 873.35
  A 2.83 2.71 53.2 0 0 807.04 874.49
  C 807.38 878.43 810.38 880.80 808.00 885.98
  Q 802.99 896.89 799.38 904.63
  A 4.74 4.70 -89.0 0 1 796.98 906.97
  C 789.25 910.29 780.03 911.59 772.32 908.24
  Q 770.06 907.26 770.32 904.68
  Q 770.85 899.28 775.79 896.55
  Q 777.36 895.68 781.80 894.58
  C 785.26 893.73 789.93 885.96 791.67 882.88
  A 0.67 0.67 0.0 0 0 791.36 881.94
  L 788.61 880.70
  A 2.35 2.33 -8.8 0 1 787.77 880.09
  Q 782.45 874.06 779.19 867.60
  Q 777.65 864.55 778.59 861.10
  Q 781.70 849.71 783.89 843.63
  Q 783.90 843.60 784.84 840.02
  A 4.51 4.38 51.3 0 0 784.98 838.57
  Q 784.54 831.60 785.58 826.51
  A 0.53 0.53 0.0 0 0 785.17 825.88
  C 781.32 825.03 774.97 826.00 772.79 820.21
  C 770.19 813.31 772.34 809.62 775.56 804.08
  Q 777.38 800.95 785.75 787.43
  A 1.36 1.36 0.0 0 0 785.92 786.42
  Q 785.90 786.33 785.32 785.68
  C 784.71 785.00 785.07 782.85 785.27 780.91
  A 1.57 1.54 -63.9 0 0 784.88 779.73
  L 778.15 772.13
  A 1.59 1.58 -65.6 0 1 777.75 771.05
  Q 777.75 770.45 777.90 769.64
  Q 778.09 768.64 777.93 768.35
  Q 777.53 767.64 777.02 767.46
  A 1.14 1.09 -62.5 0 1 776.53 765.76
  Q 780.53 759.95 781.86 757.82
  A 2.57 2.56 -30.6 0 0 782.23 756.39
  L 781.87 748.43
  A 4.25 4.24 -32.7 0 1 782.35 746.24
  Q 785.00 741.13 789.20 735.68
  Q 789.94 734.71 790.97 734.04
  Q 791.60 733.99 791.77 733.59
  A 0.33 0.33 0.0 0 0 791.51 733.13
  L 791.12 733.09
  L 787.55 732.21
  A 0.36 0.35 36.6 0 1 787.45 731.56
  L 790.27 729.93
  A 1.22 1.20 75.9 0 0 790.88 728.89
  Q 791.00 719.24 792.36 704.58
  C 792.56 702.44 793.13 701.02 794.58 699.25
  Q 800.12 692.53 806.21 686.27
  L 805.80 688.01
  Q 801.00 693.30 796.19 698.71
  Q 793.77 701.44 793.36 705.52
  C 793.00 709.04 793.11 711.78 792.51 715.94
  Q 792.16 718.41 792.33 720.93
  Q 791.99 721.82 792.37 722.67
  A 0.65 0.64 74.9 0 0 793.04 723.06
  Q 799.64 722.25 802.38 717.65
  Q 809.26 706.12 812.79 691.89
  Q 814.38 685.51 811.18 680.69
  Q 814.85 676.63 818.99 672.74
  Q 819.42 672.34 819.82 672.29
  A 0.89 0.86 0.8 0 1 820.83 673.29
  Q 818.06 689.01 815.26 703.52
  C 813.87 710.71 811.05 715.82 807.05 723.30
  A 0.61 0.61 0.0 0 0 807.49 724.18
  L 810.14 724.64
  L 810.15 724.64
  L 820.40 726.65
  A 1.08 1.07 19.2 0 0 821.57 726.09
  Q 824.19 721.09 834.41 701.93
  Q 836.31 698.36 838.47 696.14
  Z
  M 837.59 726.82
  Q 838.15 726.05 838.81 725.91
  Q 844.65 722.19 849.73 717.52
  C 851.65 715.76 854.28 713.82 855.37 711.38
  Q 861.77 697.08 865.33 681.74
  A 0.49 0.49 0.0 0 0 864.54 681.26
  Q 856.25 688.22 846.08 698.11
  Q 841.22 702.84 837.99 710.49
  Q 832.80 722.77 831.09 727.57
  Q 830.28 729.83 829.96 731.91
  A 0.34 0.34 0.0 0 0 830.50 732.23
  L 837.59 726.82
  Z
  M 868.36 760.48
  Q 864.74 764.44 861.25 768.49
  Q 859.48 770.53 856.95 771.59
  A 0.73 0.72 -18.2 0 0 856.52 772.42
  Q 856.56 772.60 856.55 772.69
  A 1.19 1.18 -11.4 0 1 855.98 773.54
  Q 851.00 776.43 845.37 776.85
  A 0.30 0.30 0.0 0 1 845.25 776.26
  Q 846.57 775.83 852.50 774.03
  Q 853.55 773.72 853.91 773.31
  A 0.47 0.47 0.0 0 0 853.42 772.55
  Q 850.18 773.59 848.09 773.35
  A 0.71 0.70 38.0 0 0 847.76 773.39
  L 843.51 775.24
  A 1.22 1.21 -5.9 0 0 842.80 776.10
  L 842.23 778.66
  A 0.57 0.56 -83.3 0 0 842.77 779.35
  Q 847.15 779.46 852.18 777.88
  C 856.90 776.40 860.92 775.67 864.67 774.99
  A 5.35 5.30 -72.6 0 0 867.49 773.50
  L 882.73 758.16
  L 907.21 754.91
  A 0.41 0.41 0.0 0 0 907.40 754.17
  L 904.81 752.32
  Q 904.15 751.21 902.31 750.48
  A 1.73 1.72 29.4 0 1 901.57 747.85
  Q 902.70 746.34 902.83 744.15
  L 904.62 741.35
  A 0.48 0.48 0.0 0 0 904.08 740.63
  L 880.63 747.28
  A 1.47 1.40 -75.5 0 0 879.99 747.68
  L 868.36 760.48
  Z
  M 786.29 754.32
  Q 785.74 755.35 785.93 756.03
  A 0.56 0.56 0.0 0 0 786.93 756.19
  Q 787.45 755.44 786.89 754.33
  A 0.34 0.34 0.0 0 0 786.29 754.32
  Z
  M 787.40 788.32
  Q 777.64 802.27 773.09 812.15
  Q 771.75 815.06 774.06 818.95
  A 1.01 0.99 77.2 0 0 774.82 819.44
  Q 784.08 820.35 792.23 818.93
  A 1.16 1.15 -17.4 0 0 793.08 817.31
  C 792.16 815.35 791.05 812.53 789.11 811.28
  Q 786.09 809.34 782.00 809.58
  A 0.42 0.42 0.0 0 1 781.67 808.87
  L 787.30 802.92
  A 1.14 1.11 74.0 0 0 787.58 802.40
  Q 787.96 800.72 789.15 802.01
  L 791.27 801.67
  L 796.36 802.19
  A 1.37 1.21 56.6 0 1 796.77 802.30
  Q 800.05 803.73 802.71 803.85
  Q 804.96 805.49 807.10 805.85
  A 0.86 0.84 -64.9 0 0 807.91 805.55
  L 811.19 801.68
  L 814.23 798.74
  L 819.38 796.54
  A 15.66 15.58 -74.7 0 0 822.53 794.73
  Q 826.15 792.05 830.10 789.08
  Q 835.24 785.22 842.29 785.94
  A 0.35 0.35 0.0 0 0 842.65 785.47
  L 840.52 780.16
  A 0.69 0.69 0.0 0 0 839.88 779.72
  L 839.24 779.72
  A 0.49 0.49 0.0 0 1 838.86 778.92
  L 840.70 776.60
  A 1.50 1.50 0.0 0 0 840.71 774.75
  L 839.56 773.25
  A 1.07 1.07 0.0 0 0 837.98 773.12
  Q 832.53 778.15 824.18 780.45
  Q 809.06 784.61 801.00 785.95
  Q 798.02 786.44 796.50 785.75
  Q 791.51 783.48 787.75 781.76
  A 0.71 0.70 -61.6 0 0 786.86 782.03
  Q 786.27 782.98 786.36 784.29
  A 0.79 0.77 -67.0 0 0 786.52 784.70
  L 787.60 786.11
  A 0.74 0.74 0.0 0 1 787.61 787.02
  Q 787.18 787.61 787.40 788.32
  Z
  M 796.77 803.68
  Q 789.38 801.46 785.03 807.46
  A 0.33 0.33 0.0 0 0 785.19 807.97
  L 791.73 810.28
  Q 796.29 811.70 800.57 814.22
  Q 808.55 818.93 808.63 818.96
  Q 815.28 821.47 822.93 820.76
  A 1.57 1.55 -71.3 0 0 823.91 820.27
  C 826.50 817.41 830.20 814.19 832.26 811.17
  C 836.78 804.54 839.37 798.91 839.11 790.68
  A 1.01 1.00 -86.9 0 0 838.25 789.72
  C 835.06 789.23 833.39 789.45 830.60 791.39
  Q 827.48 793.56 824.18 796.64
  A 0.98 0.98 0.0 0 0 824.24 798.13
  L 826.65 800.05
  A 1.90 1.90 0.0 0 1 827.32 801.95
  L 826.00 807.88
  A 2.55 2.53 81.2 0 1 824.80 809.53
  L 820.01 812.29
  A 3.55 3.52 -43.9 0 1 816.38 812.24
  Q 813.13 810.23 810.63 808.79
  C 806.78 806.57 801.32 805.25 796.77 803.68
  Z
  M 825.72 801.98
  A 2.23 2.21 14.9 0 0 824.59 800.05
  C 818.05 796.40 813.82 800.70 809.41 805.81
  A 0.56 0.56 0.0 0 0 809.55 806.66
  Q 811.06 807.55 816.06 810.28
  Q 818.44 811.58 820.18 810.09
  A 0.87 0.86 -30.9 0 0 820.43 809.12
  Q 819.49 806.67 816.36 805.73
  A 0.06 0.05 18.9 0 1 816.32 805.67
  L 816.45 805.17
  A 0.24 0.23 -75.1 0 1 816.73 805.00
  Q 820.14 805.81 821.70 808.31
  A 0.78 0.78 0.0 0 0 822.64 808.63
  Q 824.16 808.04 824.59 806.68
  A 2.44 2.26 27.6 0 0 823.67 804.11
  Q 821.41 802.44 819.36 801.78
  A 0.33 0.30 0.8 0 1 819.16 801.59
  Q 819.05 801.28 819.32 801.03
  A 0.43 0.43 0.0 0 1 819.70 800.91
  Q 822.40 801.36 824.83 803.12
  A 0.56 0.56 0.0 0 0 825.72 802.66
  L 825.72 801.98
  Z
  M 786.91 829.61
  L 786.14 837.24
  A 1.29 1.27 -60.7 0 0 786.37 838.09
  C 788.41 840.96 792.93 842.93 796.17 844.04
  Q 800.73 845.80 805.81 845.49
  Q 816.28 846.37 826.50 842.70
  Q 831.50 840.89 836.43 837.31
  A 2.69 2.68 -22.7 0 0 837.50 834.72
  Q 836.97 831.42 835.74 828.00
  Q 834.93 825.75 835.96 822.64
  Q 837.22 818.84 838.05 814.58
  A 0.28 0.27 71.8 0 0 837.58 814.34
  L 828.33 824.59
  A 1.92 1.84 1.2 0 1 828.09 824.81
  L 824.27 827.65
  A 5.04 5.04 0.0 0 1 820.46 828.58
  Q 818.33 828.23 813.35 827.46
  Q 811.21 827.13 805.50 824.30
  A 3.58 3.30 -10.5 0 1 804.80 823.86
  Q 801.15 820.91 797.83 822.17
  Q 793.43 823.83 788.55 825.44
  A 1.63 1.59 8.7 0 0 787.77 826.00
  Q 786.57 827.61 786.91 829.61
  Z
  M 848.64 826.00
  A 0.30 0.30 0.0 0 0 848.05 826.10
  L 848.05 834.57
  A 0.48 0.48 0.0 0 0 848.53 835.05
  L 849.22 835.05
  A 0.54 0.54 0.0 0 1 849.74 835.73
  Q 849.01 838.29 847.40 840.42
  A 1.13 0.86 -23.4 0 0 847.26 840.67
  Q 846.96 841.46 847.94 841.98
  A 0.71 0.71 0.0 0 1 848.04 843.17
  L 844.49 845.91
  A 1.07 1.07 0.0 0 0 844.08 846.75
  L 844.08 847.72
  A 0.96 0.95 -13.5 0 0 845.47 848.57
  Q 849.77 846.39 851.69 841.76
  A 0.87 0.85 -53.5 0 0 851.57 840.90
  L 851.23 840.45
  A 1.38 1.34 30.0 0 1 850.95 839.47
  C 851.18 837.50 852.62 833.73 851.39 832.00
  C 849.92 829.94 849.52 828.39 848.64 826.00
  Z
  M 796.33 855.12
  A 0.48 0.48 0.0 0 1 797.00 854.83
  Q 800.24 856.38 806.79 858.80
  C 812.86 861.03 816.58 864.27 820.81 869.22
  C 825.55 874.77 831.53 877.04 838.98 876.54
  A 1.52 1.50 11.7 0 0 840.21 875.74
  C 845.57 865.75 841.96 859.65 836.79 850.96
  C 834.40 846.94 830.53 844.51 826.24 845.31
  Q 816.76 847.06 815.08 847.29
  Q 799.63 849.44 786.72 841.81
  A 0.88 0.88 0.0 0 0 785.43 842.34
  L 779.95 862.51
  A 5.13 5.12 37.6 0 0 780.46 866.42
  L 784.77 873.89
  A 1.06 1.05 -16.1 0 0 785.74 874.42
  L 795.00 874.00
  A 2.01 2.00 6.2 0 0 796.84 872.52
  L 799.80 861.63
  A 1.53 1.51 -54.4 0 0 799.60 860.37
  L 796.36 855.47
  A 0.05 0.03 -76.7 0 1 796.35 855.44
  Q 796.30 855.19 796.33 855.12
  Z
  M 784.82 895.32
  Q 779.28 896.39 776.81 897.57
  Q 770.74 900.46 772.36 906.66
  Q 773.23 906.58 773.85 906.80
  Q 775.93 908.63 778.71 908.54
  A 0.75 0.74 -82.1 0 0 779.39 908.02
  Q 779.66 907.19 779.57 906.04
  Q 780.52 901.40 784.99 900.20
  A 0.29 0.29 0.0 0 1 785.22 900.73
  Q 782.64 902.38 781.28 905.68
  Q 780.53 906.86 780.71 908.17
  A 0.68 0.68 0.0 0 0 781.36 908.75
  Q 789.58 909.02 796.91 905.40
  A 0.65 0.65 0.0 0 0 797.23 904.60
  Q 796.30 901.94 794.78 900.40
  Q 794.66 900.16 794.53 899.93
  L 799.31 888.69
  A 1.78 1.78 0.0 0 0 798.25 886.31
  Q 796.97 885.87 794.31 886.03
  Q 794.25 886.03 792.75 885.75
  Q 791.95 885.60 791.29 886.51
  Q 788.13 890.90 784.82 895.32
  Z
  M 839.46 904.55
  L 839.66 908.80
  Q 841.50 912.91 847.30 913.11
  A 0.57 0.56 -86.1 0 0 847.87 912.61
  Q 848.09 910.74 847.64 908.96
  L 846.24 904.50
  A 0.29 0.29 0.0 0 1 846.73 904.22
  Q 848.78 906.54 848.99 909.99
  Q 848.55 916.38 857.44 912.56
  A 0.90 0.89 82.3 0 0 857.97 911.86
  Q 858.22 910.11 857.57 908.14
  L 855.53 902.94
  A 0.15 0.14 -82.2 0 1 855.75 902.77
  Q 857.27 903.92 858.12 906.07
  Q 859.32 908.66 859.29 911.42
  A 0.36 0.36 0.0 0 0 859.87 911.72
  Q 863.42 909.07 861.47 905.02
  Q 859.34 901.40 856.53 898.99
  Q 853.95 891.27 845.99 890.25
  A 2.89 2.88 -48.3 0 0 844.98 890.31
  Q 841.33 891.21 838.88 894.16
  A 1.17 1.17 0.0 0 0 838.61 895.01
  L 839.46 904.55
  Z"
/>
<path fill="#383e44" d="
  M 859.14 680.45
  Q 860.38 680.61 861.09 681.17
  A 0.48 0.47 -46.0 0 1 861.10 681.91
  C 856.28 685.97 852.42 688.71 848.81 692.89
  Q 846.84 695.17 842.89 698.94
  A 13.76 13.38 -7.5 0 0 840.54 701.92
  C 836.19 709.38 833.52 717.29 830.06 726.49
  C 828.16 731.54 828.14 736.24 829.59 741.47
  Q 831.07 746.77 832.60 751.91
  Q 833.05 753.40 833.09 755.34
  A 0.86 0.86 0.0 0 0 833.41 755.99
  L 837.30 759.08
  A 0.69 0.69 0.0 0 1 837.34 760.13
  C 837.05 760.40 836.78 760.66 836.63 761.07
  Q 836.38 761.75 837.62 762.37
  A 0.85 0.85 0.0 0 1 837.53 763.93
  C 836.55 764.27 835.69 764.85 834.91 765.89
  Q 831.62 770.30 826.37 774.23
  A 7.15 7.08 -71.3 0 1 824.11 775.36
  L 814.86 778.04
  Q 815.44 770.83 810.70 766.21
  A 3.51 3.44 -7.7 0 0 809.99 765.68
  L 804.22 762.51
  Q 803.96 761.37 804.40 760.93
  Q 804.46 762.33 804.97 762.17
  Q 807.24 761.45 806.45 760.79
  Q 809.50 761.36 812.15 760.68
  Q 812.54 760.86 812.82 761.60
  A 0.72 0.71 -12.4 0 0 813.53 762.05
  Q 820.10 761.68 823.82 756.81
  A 2.75 2.74 47.8 0 0 823.96 753.70
  L 819.77 746.94
  Q 821.28 747.01 821.75 746.49
  Q 824.56 743.43 823.22 742.63
  L 818.06 741.10
  A 2.07 2.03 -47.9 0 0 816.70 741.18
  Q 812.96 742.75 806.03 748.27
  Q 803.97 749.91 803.51 751.81
  Q 801.88 758.46 801.39 760.80
  A 0.64 0.64 0.0 0 1 800.57 761.28
  C 797.00 760.14 793.66 760.61 789.86 761.36
  A 0.55 0.55 0.0 0 1 789.20 760.89
  Q 788.77 757.59 788.85 754.24
  Q 788.96 749.60 784.41 745.09
  Q 785.36 744.81 784.91 743.83
  A 0.59 0.57 52.4 0 1 784.98 743.24
  L 787.97 739.49
  A 0.53 0.51 9.2 0 1 788.23 739.31
  Q 791.13 738.46 792.38 738.14
  Q 793.39 737.89 793.90 738.30
  A 0.36 0.35 -61.7 0 0 794.46 738.13
  L 794.87 736.92
  A 0.39 0.39 0.0 0 0 794.39 736.42
  L 789.62 737.78
  A 0.19 0.18 13.1 0 1 789.43 737.48
  L 793.62 732.85
  A 0.56 0.56 0.0 0 0 793.36 731.94
  Q 792.25 731.61 791.37 731.80
  A 0.35 0.35 0.0 0 1 790.95 731.55
  L 790.84 731.19
  A 0.26 0.25 -15.9 0 1 791.02 730.88
  L 801.10 728.02
  A 0.52 0.52 0.0 0 0 801.28 727.12
  L 799.32 725.56
  A 0.39 0.39 0.0 0 1 799.62 724.86
  Q 801.02 725.08 805.26 725.12
  C 807.31 725.14 808.73 726.14 810.68 726.20
  Q 812.16 726.24 812.83 726.41
  Q 815.52 727.08 819.64 727.83
  A 0.64 0.63 22.7 0 1 820.05 728.82
  Q 819.49 729.63 819.55 730.15
  A 0.52 0.52 0.0 0 0 820.53 730.33
  L 838.47 696.14
  Q 841.05 693.61 844.30 691.31
  Q 849.44 687.68 850.46 686.89
  Q 854.78 683.57 859.14 680.45
  Z
  M 794.04 742.45
  Q 794.13 741.91 793.80 741.07
  A 0.26 0.26 0.0 0 0 793.31 741.10
  Q 793.03 742.13 793.20 742.58
  A 0.45 0.43 -52.2 0 0 794.04 742.45
  Z"
/>
<path fill="#383e44" d="
  M 811.18 680.69
  Q 814.38 685.51 812.79 691.89
  Q 809.26 706.12 802.38 717.65
  Q 799.64 722.25 793.04 723.06
  A 0.65 0.64 74.9 0 1 792.37 722.67
  Q 791.99 721.82 792.33 720.93
  L 795.05 703.93
  A 0.92 0.89 70.5 0 1 795.25 703.49
  L 809.93 685.03
  A 0.54 0.54 0.0 0 0 809.91 684.33
  L 809.89 684.31
  A 0.48 0.47 -45.4 0 0 809.19 684.32
  L 805.80 688.01
  L 806.21 686.27
  L 811.18 680.69
  Z"
/>
<path fill="#b88685" d="
  M 838.81 725.91
  Q 838.69 724.71 839.45 723.93
  Q 844.90 718.30 851.07 712.91
  A 0.56 0.56 0.0 0 0 850.49 711.97
  L 848.13 712.92
  A 0.57 0.56 79.4 0 1 847.36 712.39
  Q 847.36 711.39 848.04 710.51
  Q 849.87 708.18 855.28 701.68
  A 0.57 0.57 0.0 0 0 854.71 700.76
  L 852.22 701.36
  A 0.76 0.75 -79.1 0 1 851.43 700.19
  L 856.13 693.56
  A 0.24 0.23 -43.9 0 0 856.14 693.30
  L 855.95 693.10
  A 0.23 0.23 0.0 0 0 855.62 693.10
  L 843.47 705.25
  A 0.53 0.53 0.0 0 0 844.13 706.06
  Q 845.62 705.08 847.01 704.87
  A 0.59 0.59 0.0 0 1 847.55 705.82
  L 839.29 716.19
  A 0.45 0.45 0.0 0 0 839.81 716.89
  L 842.84 715.68
  A 0.54 0.54 0.0 0 1 843.45 716.54
  Q 839.66 720.80 837.08 725.75
  Q 836.82 726.25 837.59 726.82
  L 830.50 732.23
  A 0.34 0.34 0.0 0 1 829.96 731.91
  Q 830.28 729.83 831.09 727.57
  Q 832.80 722.77 837.99 710.49
  Q 841.22 702.84 846.08 698.11
  Q 856.25 688.22 864.54 681.26
  A 0.49 0.49 0.0 0 1 865.33 681.74
  Q 861.77 697.08 855.37 711.38
  C 854.28 713.82 851.65 715.76 849.73 717.52
  Q 844.65 722.19 838.81 725.91
  Z"
/>
<path fill="#b88685" d="
  M 792.33 720.93
  Q 792.16 718.41 792.51 715.94
  C 793.11 711.78 793.00 709.04 793.36 705.52
  Q 793.77 701.44 796.19 698.71
  Q 801.00 693.30 805.80 688.01
  L 809.19 684.32
  A 0.48 0.47 -45.4 0 1 809.89 684.31
  L 809.91 684.33
  A 0.54 0.54 0.0 0 1 809.93 685.03
  L 795.25 703.49
  A 0.92 0.89 70.5 0 0 795.05 703.93
  L 792.33 720.93
  Z"
/>
<path fill="#fbfbfa" d="
  M 838.81 725.91
  Q 838.15 726.05 837.59 726.82
  Q 836.82 726.25 837.08 725.75
  Q 839.66 720.80 843.45 716.54
  A 0.54 0.54 0.0 0 0 842.84 715.68
  L 839.81 716.89
  A 0.45 0.45 0.0 0 1 839.29 716.19
  L 847.55 705.82
  A 0.59 0.59 0.0 0 0 847.01 704.87
  Q 845.62 705.08 844.13 706.06
  A 0.53 0.53 0.0 0 1 843.47 705.25
  L 855.62 693.10
  A 0.23 0.23 0.0 0 1 855.95 693.10
  L 856.14 693.30
  A 0.24 0.23 -43.9 0 1 856.13 693.56
  L 851.43 700.19
  A 0.76 0.75 -79.1 0 0 852.22 701.36
  L 854.71 700.76
  A 0.57 0.57 0.0 0 1 855.28 701.68
  Q 849.87 708.18 848.04 710.51
  Q 847.36 711.39 847.36 712.39
  A 0.57 0.56 79.4 0 0 848.13 712.92
  L 850.49 711.97
  A 0.56 0.56 0.0 0 1 851.07 712.91
  Q 844.90 718.30 839.45 723.93
  Q 838.69 724.71 838.81 725.91
  Z"
/>
<path fill="#383e44" d="
  M 790.97 734.04
  L 791.12 733.09
  L 791.51 733.13
  A 0.33 0.33 0.0 0 1 791.77 733.59
  Q 791.60 733.99 790.97 734.04
  Z"
/>
<path fill="#129aea" d="
  M 902.83 744.15
  C 899.93 745.24 896.74 746.18 894.13 747.42
  Q 884.31 752.10 878.33 754.36
  A 0.39 0.39 0.0 0 0 878.50 755.12
  Q 881.00 754.91 884.05 753.96
  A 3.98 3.91 34.2 0 1 884.93 753.80
  L 904.81 752.32
  L 907.40 754.17
  A 0.41 0.41 0.0 0 1 907.21 754.91
  L 882.73 758.16
  Q 877.50 759.12 869.66 761.44
  Q 868.45 761.79 868.36 760.48
  L 879.99 747.68
  A 1.47 1.40 -75.5 0 1 880.63 747.28
  L 904.08 740.63
  A 0.48 0.48 0.0 0 1 904.62 741.35
  L 902.83 744.15
  Z"
/>
<path fill="#22252d" d="
  M 794.04 742.45
  A 0.45 0.43 -52.2 0 1 793.20 742.58
  Q 793.03 742.13 793.31 741.10
  A 0.26 0.26 0.0 0 1 793.80 741.07
  Q 794.13 741.91 794.04 742.45
  Z"
/>
<path fill="#fbfbfa" d="
  M 823.22 742.63
  Q 822.36 743.63 820.84 744.01
  Q 818.54 744.57 818.20 744.70
  Q 812.45 746.97 807.28 750.50
  A 3.03 2.90 -3.7 0 0 806.35 751.51
  Q 803.73 756.15 803.33 762.02
  A 0.55 0.54 10.2 0 0 803.73 762.59
  Q 804.08 762.68 804.22 762.51
  L 809.99 765.68
  A 3.51 3.44 -7.7 0 1 810.70 766.21
  Q 815.44 770.83 814.86 778.04
  L 811.77 781.90
  A 1.70 1.69 11.1 0 1 810.90 782.48
  Q 802.51 784.74 798.77 784.93
  Q 797.03 785.02 794.01 783.23
  Q 790.14 780.94 786.82 778.96
  Q 782.53 773.08 784.16 768.77
  Q 784.87 766.88 788.64 762.08
  Q 788.42 758.00 787.96 754.32
  Q 787.81 753.12 786.19 751.40
  Q 786.17 751.37 784.41 750.00
  Q 782.18 748.25 784.41 745.09
  Q 788.96 749.60 788.85 754.24
  Q 788.77 757.59 789.20 760.89
  A 0.55 0.55 0.0 0 0 789.86 761.36
  C 793.66 760.61 797.00 760.14 800.57 761.28
  A 0.64 0.64 0.0 0 0 801.39 760.80
  Q 801.88 758.46 803.51 751.81
  Q 803.97 749.91 806.03 748.27
  Q 812.96 742.75 816.70 741.18
  A 2.07 2.03 -47.9 0 1 818.06 741.10
  L 823.22 742.63
  Z
  M 792.91 771.09
  Q 794.35 770.35 797.19 768.20
  Q 798.11 767.49 798.30 767.05
  A 1.33 1.33 0.0 0 0 797.37 765.26
  Q 794.39 764.56 791.34 764.95
  C 790.22 765.10 788.52 764.83 787.54 765.85
  A 2.04 1.72 44.1 0 0 787.81 768.49
  Q 788.88 769.52 790.87 771.05
  A 0.80 0.78 13.0 0 1 791.17 771.52
  L 791.92 774.65
  A 0.81 0.80 64.5 0 1 791.63 775.49
  Q 788.94 777.62 790.84 777.57
  A 0.62 0.56 -64.9 0 0 791.20 777.42
  L 792.15 776.58
  A 0.92 0.92 0.0 0 1 793.02 776.38
  L 801.47 778.67
  A 0.17 0.16 14.5 0 0 801.67 778.56
  L 801.76 778.21
  A 0.72 0.71 15.3 0 0 801.25 777.33
  L 793.76 775.29
  A 1.08 1.07 1.0 0 1 793.00 774.51
  L 792.43 772.11
  A 0.90 0.90 0.0 0 1 792.91 771.09
  Z"
/>
<path fill="#b88685" d="
  M 819.77 746.94
  C 815.52 746.62 811.36 749.37 808.11 751.73
  A 4.47 4.46 80.3 0 0 806.46 754.07
  L 804.40 760.93
  Q 803.96 761.37 804.22 762.51
  Q 804.08 762.68 803.73 762.59
  A 0.55 0.54 10.2 0 1 803.33 762.02
  Q 803.73 756.15 806.35 751.51
  A 3.03 2.90 -3.7 0 1 807.28 750.50
  Q 812.45 746.97 818.20 744.70
  Q 818.54 744.57 820.84 744.01
  Q 822.36 743.63 823.22 742.63
  Q 824.56 743.43 821.75 746.49
  Q 821.28 747.01 819.77 746.94
  Z"
/>
<path fill="#136baf" d="
  M 902.83 744.15
  Q 902.70 746.34 901.57 747.85
  A 1.73 1.72 29.4 0 0 902.31 750.48
  Q 904.15 751.21 904.81 752.32
  L 884.93 753.80
  A 3.98 3.91 34.2 0 0 884.05 753.96
  Q 881.00 754.91 878.50 755.12
  A 0.39 0.39 0.0 0 1 878.33 754.36
  Q 884.31 752.10 894.13 747.42
  C 896.74 746.18 899.93 745.24 902.83 744.15
  Z"
/>
<path fill="#22252d" d="
  M 819.77 746.94
  L 823.96 753.70
  A 2.75 2.74 47.8 0 1 823.82 756.81
  Q 820.10 761.68 813.53 762.05
  A 0.72 0.71 -12.4 0 1 812.82 761.60
  Q 812.54 760.86 812.15 760.68
  L 810.82 758.10
  L 810.64 752.35
  A 0.31 0.30 -14.2 0 0 810.19 752.09
  Q 806.14 754.18 806.50 759.90
  Q 806.26 760.06 806.45 760.79
  Q 807.24 761.45 804.97 762.17
  Q 804.46 762.33 804.40 760.93
  L 806.46 754.07
  A 4.47 4.46 80.3 0 1 808.11 751.73
  C 811.36 749.37 815.52 746.62 819.77 746.94
  Z
  M 818.42 755.13
  L 818.06 759.39
  A 0.44 0.43 -16.3 0 0 818.76 759.77
  L 822.51 756.87
  A 0.85 0.85 0.0 0 0 822.78 755.88
  L 821.75 753.26
  L 819.80 749.59
  A 1.58 1.57 -15.4 0 0 818.33 748.76
  L 816.34 748.85
  A 0.51 0.50 61.0 0 0 816.08 749.77
  Q 816.94 750.38 817.45 751.33
  A 2.26 2.26 0.0 0 1 817.70 752.18
  Q 817.82 753.72 818.42 755.13
  Z
  M 813.4747 751.0793
  A 1.65 1.30 -96.1 0 0 812.3574 752.8581
  A 1.65 1.30 -96.1 0 0 813.8253 754.3607
  A 1.65 1.30 -96.1 0 0 814.9426 752.5819
  A 1.65 1.30 -96.1 0 0 813.4747 751.0793
  Z"
/>
<path fill="#b88685" d="
  M 821.75 753.26
  L 819.37 753.03
  A 0.46 0.42 -58.6 0 0 819.09 753.11
  Q 818.45 753.54 818.42 755.13
  Q 817.82 753.72 817.70 752.18
  A 2.26 2.26 0.0 0 0 817.45 751.33
  Q 816.94 750.38 816.08 749.77
  A 0.51 0.50 61.0 0 1 816.34 748.85
  L 818.33 748.76
  A 1.58 1.57 -15.4 0 1 819.80 749.59
  L 821.75 753.26
  Z"
/>
<ellipse fill="#fbfbfa" cx="0.00" cy="0.00" transform="translate(813.65,752.72) rotate(-96.1)" rx="1.65" ry="1.30"/>
<path fill="#b88685" d="
  M 810.82 758.10
  Q 809.70 756.70 809.15 757.38
  Q 807.99 758.84 806.50 759.90
  Q 806.14 754.18 810.19 752.09
  A 0.31 0.30 -14.2 0 1 810.64 752.35
  L 810.82 758.10
  Z"
/>
<path fill="#b88685" d="
  M 785.04 760.03
  Q 784.44 760.36 784.03 759.47
  Q 783.18 756.07 784.17 752.36
  A 0.53 0.53 0.0 0 1 785.01 752.08
  L 785.31 752.32
  A 0.79 0.78 30.5 0 1 785.55 753.24
  Q 784.27 756.26 785.04 760.03
  Z"
/>
<path fill="#fbfbfa" d="
  M 821.75 753.26
  L 822.78 755.88
  A 0.85 0.85 0.0 0 1 822.51 756.87
  L 818.76 759.77
  A 0.44 0.43 -16.3 0 1 818.06 759.39
  L 818.42 755.13
  Q 818.45 753.54 819.09 753.11
  A 0.46 0.42 -58.6 0 1 819.37 753.03
  L 821.75 753.26
  Z"
/>
<path fill="#fbfbfa" d="
  M 786.29 754.32
  A 0.34 0.34 0.0 0 1 786.89 754.33
  Q 787.45 755.44 786.93 756.19
  A 0.56 0.56 0.0 0 1 785.93 756.03
  Q 785.74 755.35 786.29 754.32
  Z"
/>
<path fill="#fbfbfa" d="
  M 810.82 758.10
  L 812.15 760.68
  Q 809.50 761.36 806.45 760.79
  Q 806.26 760.06 806.50 759.90
  Q 807.99 758.84 809.15 757.38
  Q 809.70 756.70 810.82 758.10
  Z"
/>
<path fill="#136baf" d="
  M 882.73 758.16
  L 867.49 773.50
  A 5.35 5.30 -72.6 0 1 864.67 774.99
  C 860.92 775.67 856.90 776.40 852.18 777.88
  Q 847.15 779.46 842.77 779.35
  A 0.57 0.56 -83.3 0 1 842.23 778.66
  L 842.80 776.10
  A 1.22 1.21 -5.9 0 1 843.51 775.24
  L 847.76 773.39
  A 0.71 0.70 38.0 0 1 848.09 773.35
  Q 850.18 773.59 853.42 772.55
  A 0.47 0.47 0.0 0 1 853.91 773.31
  Q 853.55 773.72 852.50 774.03
  Q 846.57 775.83 845.25 776.26
  A 0.30 0.30 0.0 0 0 845.37 776.85
  Q 851.00 776.43 855.98 773.54
  A 1.19 1.18 -11.4 0 0 856.55 772.69
  Q 856.56 772.60 856.52 772.42
  A 0.73 0.72 -18.2 0 1 856.95 771.59
  Q 859.48 770.53 861.25 768.49
  Q 864.74 764.44 868.36 760.48
  Q 868.45 761.79 869.66 761.44
  Q 877.50 759.12 882.73 758.16
  Z"
/>
<path fill="#383e44" d="
  M 784.03 759.47
  Q 784.44 760.36 785.04 760.03
  L 785.87 761.75
  A 0.59 0.57 -88.9 0 0 786.11 762.01
  Q 786.85 762.47 788.64 762.08
  Q 784.87 766.88 784.16 768.77
  Q 782.53 773.08 786.82 778.96
  Q 781.80 776.59 778.69 771.11
  A 1.42 1.40 36.1 0 1 778.54 770.18
  Q 778.85 768.41 779.98 767.78
  A 0.33 0.33 0.0 0 0 779.93 767.18
  Q 778.68 766.76 778.03 766.90
  A 0.56 0.56 0.0 0 1 777.45 766.02
  L 780.53 761.85
  A 0.56 0.54 52.4 0 0 780.59 761.33
  Q 780.58 761.31 780.56 761.00
  A 0.67 0.67 0.0 0 1 780.87 760.40
  Q 781.66 759.91 782.41 759.05
  Q 782.71 758.71 783.17 758.90
  Q 783.37 758.98 783.43 759.66
  Q 783.46 759.98 783.82 759.87
  Q 784.07 759.79 784.03 759.47
  Z"
/>
<path fill="#383e44" d="
  M 792.43 772.11
  L 793.00 774.51
  A 1.08 1.07 1.0 0 0 793.76 775.29
  L 801.25 777.33
  A 0.72 0.71 15.3 0 1 801.76 778.21
  L 801.67 778.56
  A 0.17 0.16 14.5 0 1 801.47 778.67
  L 793.02 776.38
  A 0.92 0.92 0.0 0 0 792.15 776.58
  L 791.20 777.42
  A 0.62 0.56 -64.9 0 1 790.84 777.57
  Q 788.94 777.62 791.63 775.49
  A 0.81 0.80 64.5 0 0 791.92 774.65
  L 791.17 771.52
  A 0.80 0.78 13.0 0 0 790.87 771.05
  Q 788.88 769.52 787.81 768.49
  A 2.04 1.72 44.1 0 1 787.54 765.85
  C 788.52 764.83 790.22 765.10 791.34 764.95
  Q 794.39 764.56 797.37 765.26
  A 1.33 1.33 0.0 0 1 798.30 767.05
  Q 798.11 767.49 797.19 768.20
  Q 794.35 770.35 792.91 771.09
  A 0.90 0.90 0.0 0 0 792.43 772.11
  Z
  M 789.17 768.25
  Q 790.29 769.80 791.98 770.10
  A 1.53 1.52 -53.7 0 0 792.95 769.95
  Q 794.82 768.99 796.64 767.59
  A 1.03 0.99 -50.7 0 0 796.50 765.87
  Q 795.84 765.57 794.94 765.77
  Q 792.26 765.63 789.06 765.96
  A 1.00 1.00 0.0 0 0 788.29 767.44
  Q 788.56 767.91 789.17 768.25
  Z"
/>
<path fill="#fbfbfa" d="
  M 794.94 765.77
  Q 795.60 766.58 795.02 766.78
  Q 792.19 767.76 789.17 768.25
  Q 788.56 767.91 788.29 767.44
  A 1.00 1.00 0.0 0 1 789.06 765.96
  Q 792.26 765.63 794.94 765.77
  Z"
/>
<path fill="#b88685" d="
  M 789.17 768.25
  Q 792.19 767.76 795.02 766.78
  Q 795.60 766.58 794.94 765.77
  Q 795.84 765.57 796.50 765.87
  A 1.03 0.99 -50.7 0 1 796.64 767.59
  Q 794.82 768.99 792.95 769.95
  A 1.53 1.52 -53.7 0 1 791.98 770.10
  Q 790.29 769.80 789.17 768.25
  Z"
/>
<path fill="#136baf" d="
  M 814.23 798.74
  L 803.53 801.84
  A 4.51 4.50 -38.3 0 1 800.08 801.44
  Q 797.93 800.23 795.43 798.54
  Q 790.52 795.23 787.14 790.90
  Q 788.74 791.47 790.08 792.74
  Q 792.50 795.04 792.59 795.11
  Q 796.28 797.88 800.49 799.63
  A 3.71 3.65 48.2 0 0 802.89 799.78
  Q 805.00 799.19 807.70 798.87
  Q 809.99 798.60 815.51 795.35
  A 5.99 5.98 -67.9 0 1 816.95 794.74
  Q 820.99 793.62 823.21 790.96
  A 0.91 0.91 0.0 0 0 822.25 789.50
  Q 820.01 790.15 818.63 791.08
  A 3.97 3.95 20.0 0 1 817.53 791.59
  Q 814.91 792.33 809.14 793.80
  C 804.01 795.11 802.13 797.25 796.50 793.93
  Q 794.98 793.03 791.05 791.20
  Q 790.08 790.75 787.55 787.69
  Q 787.47 788.00 787.40 788.32
  Q 787.18 787.61 787.61 787.02
  A 0.74 0.74 0.0 0 0 787.60 786.11
  L 786.52 784.70
  A 0.79 0.77 -67.0 0 1 786.36 784.29
  Q 786.27 782.98 786.86 782.03
  A 0.71 0.70 -61.6 0 1 787.75 781.76
  Q 791.51 783.48 796.50 785.75
  Q 798.02 786.44 801.00 785.95
  Q 809.06 784.61 824.18 780.45
  Q 832.53 778.15 837.98 773.12
  A 1.07 1.07 0.0 0 1 839.56 773.25
  L 840.71 774.75
  A 1.50 1.50 0.0 0 1 840.70 776.60
  L 838.86 778.92
  A 0.49 0.49 0.0 0 0 839.24 779.72
  L 839.88 779.72
  A 0.69 0.69 0.0 0 1 840.52 780.16
  L 842.65 785.47
  A 0.35 0.35 0.0 0 1 842.29 785.94
  Q 835.24 785.22 830.10 789.08
  Q 826.15 792.05 822.53 794.73
  A 15.66 15.58 -74.7 0 1 819.38 796.54
  L 814.23 798.74
  Z
  M 788.68 785.87
  L 788.97 786.28
  A 2.22 2.13 87.1 0 0 789.64 786.91
  Q 792.62 788.73 794.70 790.98
  Q 795.42 791.75 801.15 793.79
  A 3.34 3.31 51.5 0 0 802.67 793.97
  Q 807.15 793.49 808.92 792.57
  Q 812.63 790.63 827.03 782.49
  A 0.19 0.19 0.0 0 0 827.00 782.14
  C 825.90 781.77 825.17 782.56 824.52 782.74
  Q 807.23 787.45 802.95 788.09
  Q 798.73 788.73 796.40 787.93
  Q 791.74 786.33 789.24 785.19
  A 0.46 0.46 0.0 0 0 788.68 785.87
  Z"
/>
<path fill="#129aea" d="
  M 920.28 777.95
  Q 911.00 777.76 902.06 779.01
  A 0.26 0.26 0.0 0 0 902.01 779.52
  L 914.63 783.72
  L 915.50 786.96
  Q 915.21 788.91 914.00 788.41
  Q 908.84 786.28 903.88 786.39
  Q 899.98 783.99 896.52 784.61
  Q 894.97 784.89 890.59 786.48
  Q 881.57 787.08 873.30 787.68
  Q 871.51 787.81 868.04 786.57
  A 0.38 0.38 0.0 0 1 867.89 785.96
  Q 868.31 785.51 869.19 785.16
  Q 870.74 785.49 871.45 785.15
  Q 888.84 776.85 895.51 774.02
  Q 897.28 773.27 900.00 773.42
  C 911.90 774.07 916.19 774.24 923.59 775.02
  A 0.43 0.42 -57.5 0 1 923.76 775.81
  L 920.28 777.95
  Z"
/>
<path fill="#136baf" d="
  M 920.28 777.95
  Q 919.03 779.27 915.57 782.07
  Q 914.61 782.85 914.63 783.72
  L 902.01 779.52
  A 0.26 0.26 0.0 0 1 902.06 779.01
  Q 911.00 777.76 920.28 777.95
  Z"
/>
<path fill="#136baf" d="
  M 851.56 780.17
  Q 852.51 780.77 853.50 780.77
  Q 853.19 781.55 853.68 781.71
  Q 861.13 784.13 869.19 785.16
  Q 868.31 785.51 867.89 785.96
  A 0.38 0.38 0.0 0 0 868.04 786.57
  Q 871.51 787.81 873.30 787.68
  Q 881.57 787.08 890.59 786.48
  L 870.91 793.78
  A 2.97 2.93 -45.4 0 1 868.95 793.81
  L 844.77 785.69
  A 1.74 1.72 -88.8 0 1 843.66 784.52
  L 843.47 783.87
  A 0.85 0.84 -1.5 0 1 844.47 782.82
  L 863.96 787.14
  A 0.30 0.29 22.2 0 0 864.28 787.01
  L 864.31 786.97
  A 0.32 0.31 18.1 0 0 864.11 786.58
  C 857.49 784.47 852.88 783.69 843.47 781.70
  A 0.70 0.70 0.0 0 1 842.94 780.87
  L 843.00 780.61
  A 0.35 0.35 0.0 0 1 843.33 780.34
  L 851.56 780.17
  Z"
/>
<path fill="#129aea" d="
  M 788.68 785.87
  A 0.46 0.46 0.0 0 1 789.24 785.19
  Q 791.74 786.33 796.40 787.93
  Q 798.73 788.73 802.95 788.09
  Q 807.23 787.45 824.52 782.74
  C 825.17 782.56 825.90 781.77 827.00 782.14
  A 0.19 0.19 0.0 0 1 827.03 782.49
  Q 812.63 790.63 808.92 792.57
  Q 807.15 793.49 802.67 793.97
  A 3.34 3.31 51.5 0 1 801.15 793.79
  Q 795.42 791.75 794.70 790.98
  Q 792.62 788.73 789.64 786.91
  A 2.22 2.13 87.1 0 1 788.97 786.28
  L 788.68 785.87
  Z"
/>
<path fill="#136baf" d="
  M 915.50 786.96
  L 917.05 791.33
  A 0.45 0.45 0.0 0 1 916.45 791.89
  L 903.88 786.39
  Q 908.84 786.28 914.00 788.41
  Q 915.21 788.91 915.50 786.96
  Z"
/>
<path fill="#129aea" d="
  M 787.14 790.90
  Q 787.63 789.92 787.55 787.69
  Q 790.08 790.75 791.05 791.20
  Q 794.98 793.03 796.50 793.93
  C 802.13 797.25 804.01 795.11 809.14 793.80
  Q 814.91 792.33 817.53 791.59
  A 3.97 3.95 20.0 0 0 818.63 791.08
  Q 820.01 790.15 822.25 789.50
  A 0.91 0.91 0.0 0 1 823.21 790.96
  Q 820.99 793.62 816.95 794.74
  A 5.99 5.98 -67.9 0 0 815.51 795.35
  Q 809.99 798.60 807.70 798.87
  Q 805.00 799.19 802.89 799.78
  A 3.71 3.65 48.2 0 1 800.49 799.63
  Q 796.28 797.88 792.59 795.11
  Q 792.50 795.04 790.08 792.74
  Q 788.74 791.47 787.14 790.90
  Z"
/>
<path fill="#383e44" d="
  M 787.40 788.32
  Q 787.47 788.00 787.55 787.69
  Q 787.63 789.92 787.14 790.90
  Q 790.52 795.23 795.43 798.54
  Q 797.93 800.23 800.08 801.44
  A 4.51 4.50 -38.3 0 0 803.53 801.84
  L 814.23 798.74
  L 811.19 801.68
  Q 806.82 802.03 802.71 803.85
  Q 800.05 803.73 796.77 802.30
  A 1.37 1.21 56.6 0 0 796.36 802.19
  L 791.27 801.67
  Q 792.55 801.69 793.44 801.08
  A 0.57 0.56 -26.3 0 0 793.66 800.45
  Q 793.56 800.13 793.03 799.95
  C 791.67 799.50 791.27 798.39 790.82 796.89
  A 0.31 0.30 48.7 0 0 790.25 796.85
  Q 789.15 799.23 789.15 802.01
  Q 787.96 800.72 787.58 802.40
  A 1.14 1.11 74.0 0 1 787.30 802.92
  L 781.67 808.87
  A 0.42 0.42 0.0 0 0 782.00 809.58
  Q 786.09 809.34 789.11 811.28
  C 791.05 812.53 792.16 815.35 793.08 817.31
  A 1.16 1.15 -17.4 0 1 792.23 818.93
  Q 784.08 820.35 774.82 819.44
  A 1.01 0.99 77.2 0 1 774.06 818.95
  Q 771.75 815.06 773.09 812.15
  Q 777.64 802.27 787.40 788.32
  Z"
/>
<path fill="#383e44" d="
  M 791.73 810.28
  C 792.84 806.26 794.28 805.88 796.77 803.68
  C 801.32 805.25 806.78 806.57 810.63 808.79
  Q 813.13 810.23 816.38 812.24
  A 3.55 3.52 -43.9 0 0 820.01 812.29
  L 824.80 809.53
  A 2.55 2.53 81.2 0 0 826.00 807.88
  L 827.32 801.95
  A 1.90 1.90 0.0 0 0 826.65 800.05
  L 824.24 798.13
  A 0.98 0.98 0.0 0 1 824.18 796.64
  Q 827.48 793.56 830.60 791.39
  C 833.39 789.45 835.06 789.23 838.25 789.72
  A 1.01 1.00 -86.9 0 1 839.11 790.68
  C 839.37 798.91 836.78 804.54 832.26 811.17
  C 830.20 814.19 826.50 817.41 823.91 820.27
  A 1.57 1.55 -71.3 0 1 822.93 820.76
  Q 815.28 821.47 808.63 818.96
  Q 808.55 818.93 800.57 814.22
  Q 796.29 811.70 791.73 810.28
  Z"
/>
<path fill="#129aea" d="
  M 791.27 801.67
  L 789.15 802.01
  Q 789.15 799.23 790.25 796.85
  A 0.31 0.30 48.7 0 1 790.82 796.89
  C 791.27 798.39 791.67 799.50 793.03 799.95
  Q 793.56 800.13 793.66 800.45
  A 0.57 0.56 -26.3 0 1 793.44 801.08
  Q 792.55 801.69 791.27 801.67
  Z"
/>
<path fill="#fbfbfa" d="
  M 825.72 801.98
  L 825.72 802.66
  A 0.56 0.56 0.0 0 1 824.83 803.12
  Q 822.40 801.36 819.70 800.91
  A 0.43 0.43 0.0 0 0 819.32 801.03
  Q 819.05 801.28 819.16 801.59
  A 0.33 0.30 0.8 0 0 819.36 801.78
  Q 821.41 802.44 823.67 804.11
  A 2.44 2.26 27.6 0 1 824.59 806.68
  Q 824.16 808.04 822.64 808.63
  A 0.78 0.78 0.0 0 1 821.70 808.31
  Q 820.14 805.81 816.73 805.00
  A 0.24 0.23 -75.1 0 0 816.45 805.17
  L 816.32 805.67
  A 0.06 0.05 18.9 0 0 816.36 805.73
  Q 819.49 806.67 820.43 809.12
  A 0.87 0.86 -30.9 0 1 820.18 810.09
  Q 818.44 811.58 816.06 810.28
  Q 811.06 807.55 809.55 806.66
  A 0.56 0.56 0.0 0 1 809.41 805.81
  C 813.82 800.70 818.05 796.40 824.59 800.05
  A 2.23 2.21 14.9 0 1 825.72 801.98
  Z
  M 823.33 806.88
  Q 824.14 805.87 824.11 805.76
  A 0.41 0.41 0.0 0 0 823.46 805.54
  Q 822.82 806.04 822.84 806.72
  A 0.28 0.27 -26.7 0 0 823.33 806.88
  Z"
/>
<path fill="#136baf" d="
  M 811.19 801.68
  L 807.91 805.55
  A 0.86 0.84 -64.9 0 1 807.10 805.85
  Q 804.96 805.49 802.71 803.85
  Q 806.82 802.03 811.19 801.68
  Z"
/>
<path fill="#fbfbfa" d="
  M 796.77 803.68
  C 794.28 805.88 792.84 806.26 791.73 810.28
  L 785.19 807.97
  A 0.33 0.33 0.0 0 1 785.03 807.46
  Q 789.38 801.46 796.77 803.68
  Z"
/>
<path fill="#b88685" d="
  M 822.84 806.72
  Q 822.82 806.04 823.46 805.54
  A 0.41 0.41 0.0 0 1 824.11 805.76
  Q 824.14 805.87 823.33 806.88
  A 0.28 0.27 -26.7 0 1 822.84 806.72
  Z"
/>
<path fill="#136baf" d="
  M 826.50 842.70
  Q 825.06 839.62 823.42 836.63
  C 822.66 835.24 823.08 834.33 822.09 832.84
  A 0.52 0.52 0.0 0 0 821.30 832.75
  Q 820.78 833.24 820.08 832.73
  A 1.80 1.75 -23.1 0 0 819.20 832.39
  Q 809.58 831.33 802.44 826.09
  A 0.58 0.58 0.0 0 0 801.51 826.56
  L 801.51 830.12
  A 0.56 0.55 -87.8 0 0 802.02 830.68
  C 803.17 830.77 807.44 830.71 809.35 831.81
  A 0.46 0.46 0.0 0 1 809.21 832.66
  Q 807.11 833.05 803.50 832.82
  Q 803.01 832.79 802.61 832.56
  Q 802.06 832.25 801.79 832.25
  A 0.66 0.66 0.0 0 0 801.12 832.87
  Q 800.77 839.03 801.89 844.08
  A 1.21 1.20 -1.4 0 0 802.88 845.02
  L 805.81 845.49
  Q 800.73 845.80 796.17 844.04
  L 799.46 844.50
  A 0.38 0.38 0.0 0 0 799.89 844.11
  L 799.38 832.77
  A 1.00 0.99 8.2 0 0 798.70 831.87
  L 795.18 830.69
  A 0.40 0.40 0.0 0 1 795.24 829.91
  Q 796.70 829.65 798.71 830.34
  A 0.84 0.84 0.0 0 0 799.83 829.51
  L 799.75 827.63
  A 1.56 1.56 0.0 0 0 798.36 826.16
  Q 796.15 825.92 795.31 826.25
  Q 791.06 827.96 786.91 829.61
  Q 786.57 827.61 787.77 826.00
  A 1.63 1.59 8.7 0 1 788.55 825.44
  Q 793.43 823.83 797.83 822.17
  Q 801.15 820.91 804.80 823.86
  A 3.58 3.30 -10.5 0 0 805.50 824.30
  Q 811.21 827.13 813.35 827.46
  Q 818.33 828.23 820.46 828.58
  A 5.04 5.04 0.0 0 0 824.27 827.65
  L 828.09 824.81
  A 1.92 1.84 1.2 0 0 828.33 824.59
  L 837.58 814.34
  A 0.28 0.27 71.8 0 1 838.05 814.58
  Q 837.22 818.84 835.96 822.64
  Q 834.93 825.75 835.74 828.00
  Q 836.97 831.42 837.50 834.72
  A 2.69 2.68 -22.7 0 1 836.43 837.31
  Q 831.50 840.89 826.50 842.70
  Z"
/>
<path fill="#fbfbfa" d="
  M 848.64 826.00
  C 849.52 828.39 849.92 829.94 851.39 832.00
  C 852.62 833.73 851.18 837.50 850.95 839.47
  A 1.38 1.34 30.0 0 0 851.23 840.45
  L 851.57 840.90
  A 0.87 0.85 -53.5 0 1 851.69 841.76
  Q 849.77 846.39 845.47 848.57
  A 0.96 0.95 -13.5 0 1 844.08 847.72
  L 844.08 846.75
  A 1.07 1.07 0.0 0 1 844.49 845.91
  L 848.04 843.17
  A 0.71 0.71 0.0 0 0 847.94 841.98
  Q 846.96 841.46 847.26 840.67
  A 1.13 0.86 -23.4 0 1 847.40 840.42
  Q 849.01 838.29 849.74 835.73
  A 0.54 0.54 0.0 0 0 849.22 835.05
  L 848.53 835.05
  A 0.48 0.48 0.0 0 1 848.05 834.57
  L 848.05 826.10
  A 0.30 0.30 0.0 0 1 848.64 826.00
  Z"
/>
<path fill="#129aea" d="
  M 826.50 842.70
  Q 816.28 846.37 805.81 845.49
  L 802.88 845.02
  A 1.21 1.20 -1.4 0 1 801.89 844.08
  Q 800.77 839.03 801.12 832.87
  A 0.66 0.66 0.0 0 1 801.79 832.25
  Q 802.06 832.25 802.61 832.56
  Q 803.01 832.79 803.50 832.82
  Q 807.11 833.05 809.21 832.66
  A 0.46 0.46 0.0 0 0 809.35 831.81
  C 807.44 830.71 803.17 830.77 802.02 830.68
  A 0.56 0.55 -87.8 0 1 801.51 830.12
  L 801.51 826.56
  A 0.58 0.58 0.0 0 1 802.44 826.09
  Q 809.58 831.33 819.20 832.39
  A 1.80 1.75 -23.1 0 1 820.08 832.73
  Q 820.78 833.24 821.30 832.75
  A 0.52 0.52 0.0 0 1 822.09 832.84
  C 823.08 834.33 822.66 835.24 823.42 836.63
  Q 825.06 839.62 826.50 842.70
  Z"
/>
<path fill="#129aea" d="
  M 796.17 844.04
  C 792.93 842.93 788.41 840.96 786.37 838.09
  A 1.29 1.27 -60.7 0 1 786.14 837.24
  L 786.91 829.61
  Q 791.06 827.96 795.31 826.25
  Q 796.15 825.92 798.36 826.16
  A 1.56 1.56 0.0 0 1 799.75 827.63
  L 799.83 829.51
  A 0.84 0.84 0.0 0 1 798.71 830.34
  Q 796.70 829.65 795.24 829.91
  A 0.40 0.40 0.0 0 0 795.18 830.69
  L 798.70 831.87
  A 1.00 0.99 8.2 0 1 799.38 832.77
  L 799.89 844.11
  A 0.38 0.38 0.0 0 1 799.46 844.50
  L 796.17 844.04
  Z"
/>
<path fill="#383e44" d="
  M 796.33 855.12
  Q 796.30 855.19 796.35 855.44
  A 0.05 0.03 -76.7 0 0 796.36 855.47
  L 799.60 860.37
  A 1.53 1.51 -54.4 0 1 799.80 861.63
  L 796.84 872.52
  A 2.01 2.00 6.2 0 1 795.00 874.00
  L 785.74 874.42
  A 1.06 1.05 -16.1 0 1 784.77 873.89
  L 780.46 866.42
  A 5.13 5.12 37.6 0 1 779.95 862.51
  L 785.43 842.34
  A 0.88 0.88 0.0 0 1 786.72 841.81
  Q 799.63 849.44 815.08 847.29
  Q 816.76 847.06 826.24 845.31
  C 830.53 844.51 834.40 846.94 836.79 850.96
  C 841.96 859.65 845.57 865.75 840.21 875.74
  A 1.52 1.50 11.7 0 1 838.98 876.54
  C 831.53 877.04 825.55 874.77 820.81 869.22
  C 816.58 864.27 812.86 861.03 806.79 858.80
  Q 800.24 856.38 797.00 854.83
  A 0.48 0.48 0.0 0 0 796.33 855.12
  Z"
/>
<path fill="#383e44" d="
  M 794.53 899.93
  Q 790.79 896.57 784.82 895.32
  Q 788.13 890.90 791.29 886.51
  Q 791.95 885.60 792.75 885.75
  Q 794.25 886.03 794.31 886.03
  Q 796.97 885.87 798.25 886.31
  A 1.78 1.78 0.0 0 1 799.31 888.69
  L 794.53 899.93
  Z"
/>
<path fill="#383e44" d="
  M 856.53 898.99
  Q 845.03 895.71 839.46 904.55
  L 838.61 895.01
  A 1.17 1.17 0.0 0 1 838.88 894.16
  Q 841.33 891.21 844.98 890.31
  A 2.89 2.88 -48.3 0 1 845.99 890.25
  Q 853.95 891.27 856.53 898.99
  Z"
/>
<path fill="#fbfbfa" d="
  M 784.82 895.32
  Q 790.79 896.57 794.53 899.93
  Q 794.66 900.16 794.78 900.40
  Q 790.27 906.63 781.28 905.68
  Q 782.64 902.38 785.22 900.73
  A 0.29 0.29 0.0 0 0 784.99 900.20
  Q 780.52 901.40 779.57 906.04
  L 778.19 906.41
  A 1.15 1.07 43.0 0 1 777.64 906.41
  L 774.04 905.50
  Q 774.92 901.74 778.02 899.23
  A 0.17 0.17 0.0 0 0 777.90 898.93
  Q 776.43 899.01 775.31 900.10
  Q 773.03 902.31 772.36 906.66
  Q 770.74 900.46 776.81 897.57
  Q 779.28 896.39 784.82 895.32
  Z"
/>
<path fill="#fbfbfa" d="
  M 856.53 898.99
  Q 859.34 901.40 861.47 905.02
  Q 859.96 905.87 858.12 906.07
  Q 857.27 903.92 855.75 902.77
  A 0.15 0.14 -82.2 0 0 855.53 902.94
  L 857.57 908.14
  Q 853.03 910.53 848.99 909.99
  Q 848.78 906.54 846.73 904.22
  A 0.29 0.29 0.0 0 0 846.24 904.50
  L 847.64 908.96
  Q 846.55 909.92 844.82 909.41
  Q 842.78 908.82 839.66 908.80
  L 839.46 904.55
  Q 845.03 895.71 856.53 898.99
  Z"
/>
<path fill="#383e44" d="
  M 774.04 905.50
  L 773.85 906.80
  Q 773.23 906.58 772.36 906.66
  Q 773.03 902.31 775.31 900.10
  Q 776.43 899.01 777.90 898.93
  A 0.17 0.17 0.0 0 1 778.02 899.23
  Q 774.92 901.74 774.04 905.50
  Z"
/>
<path fill="#b88685" d="
  M 781.28 905.68
  Q 790.27 906.63 794.78 900.40
  Q 796.30 901.94 797.23 904.60
  A 0.65 0.65 0.0 0 1 796.91 905.40
  Q 789.58 909.02 781.36 908.75
  A 0.68 0.68 0.0 0 1 780.71 908.17
  Q 780.53 906.86 781.28 905.68
  Z"
/>
<path fill="#b88685" d="
  M 858.12 906.07
  Q 859.96 905.87 861.47 905.02
  Q 863.42 909.07 859.87 911.72
  A 0.36 0.36 0.0 0 1 859.29 911.42
  Q 859.32 908.66 858.12 906.07
  Z"
/>
<path fill="#b88685" d="
  M 779.57 906.04
  Q 779.66 907.19 779.39 908.02
  A 0.75 0.74 -82.1 0 1 778.71 908.54
  Q 775.93 908.63 773.85 906.80
  L 774.04 905.50
  L 777.64 906.41
  A 1.15 1.07 43.0 0 0 778.19 906.41
  L 779.57 906.04
  Z"
/>
<path fill="#b88685" d="
  M 848.99 909.99
  Q 853.03 910.53 857.57 908.14
  Q 858.22 910.11 857.97 911.86
  A 0.90 0.89 82.3 0 1 857.44 912.56
  Q 848.55 916.38 848.99 909.99
  Z"
/>
<path fill="#b88685" d="
  M 847.64 908.96
  Q 848.09 910.74 847.87 912.61
  A 0.57 0.56 -86.1 0 1 847.30 913.11
  Q 841.50 912.91 839.66 908.80
  Q 842.78 908.82 844.82 909.41
  Q 846.55 909.92 847.64 908.96
  Z"
/>
</svg>
