<?xml version="1.0" encoding="UTF-8" standalone="no"?>
<!DOCTYPE svg PUBLIC "-//W3C//DTD SVG 1.1//EN" "http://www.w3.org/Graphics/SVG/1.1/DTD/svg11.dtd">
<svg xmlns="http://www.w3.org/2000/svg" version="1.1" viewBox="0.00 0.00 1080.00 1080.00">
<g stroke-width="2.00" fill="none" stroke-linecap="butt">
<path stroke="#9b9ea0" vector-effect="non-scaling-stroke" d="
  M 553.08 499.05
  Q 552.18 499.01 551.68 499.35
  A 0.48 0.48 0.0 0 0 551.70 500.16
  Q 552.42 500.61 552.79 501.07
  A 0.39 0.39 0.0 0 1 552.55 501.70
  Q 551.35 501.89 549.71 503.09
  A 0.42 0.42 0.0 0 0 549.82 503.83
  Q 550.98 504.25 551.27 504.89
  A 0.37 0.37 0.0 0 0 551.84 505.03
  L 553.14 503.99
  A 1.23 1.21 73.4 0 0 553.60 503.12
  L 553.84 499.71"
/>
<path stroke="#755e63" vector-effect="non-scaling-stroke" d="
  M 570.01 420.74
  Q 558.26 430.86 551.71 436.67
  C 549.81 438.36 547.97 440.92 546.89 442.88
  Q 539.66 456.03 535.91 470.16
  A 0.41 0.41 0.0 0 0 536.56 470.59
  L 558.42 453.13
  A 6.81 6.69 84.1 0 0 560.28 450.80
  Q 567.48 435.78 571.03 421.37
  A 0.63 0.63 0.0 0 0 570.01 420.74"
/>
<path stroke="#25567c" vector-effect="non-scaling-stroke" d="
  M 575.56 488.81
  L 569.97 495.86
  A 0.44 0.43 -49.2 0 0 570.01 496.44
  L 574.51 500.95
  A 0.63 0.62 46.8 0 0 575.35 500.98
  Q 580.23 496.82 584.02 492.02
  Q 586.35 489.08 592.35 484.93"
/>
<path stroke="#226d99" vector-effect="non-scaling-stroke" d="
  M 592.35 484.93
  L 612.75 480.14
  A 0.60 0.59 51.8 0 0 612.88 479.03
  L 609.96 477.53"
/>
<path stroke="#25567c" vector-effect="non-scaling-stroke" d="
  M 609.96 477.53
  Q 608.22 476.45 607.44 475.26
  A 1.14 1.12 35.4 0 1 607.28 474.38
  L 608.67 468.44"
/>
<path stroke="#226d99" vector-effect="non-scaling-stroke" d="
  M 608.67 468.44
  L 609.70 465.97
  A 0.68 0.68 0.0 0 0 608.82 465.07
  L 587.70 473.48
  A 5.12 5.12 0.0 0 0 585.42 475.25
  L 575.56 488.81"
/>
<path stroke="#0f85d1" vector-effect="non-scaling-stroke" d="
  M 608.67 468.44
  C 604.67 469.14 602.40 471.23 599.04 473.62
  A 5.19 4.96 14.3 0 1 598.19 474.10
  Q 591.66 476.87 590.60 477.55
  Q 589.46 478.27 585.50 481.34
  A 0.23 0.23 0.0 0 0 585.65 481.75
  Q 593.19 481.45 600.06 479.08
  Q 602.86 478.11 609.96 477.53"
/>
<path stroke="#0f85d1" vector-effect="non-scaling-stroke" d="
  M 592.35 484.93
  L 575.56 488.81"
/>
<path stroke="#755e63" vector-effect="non-scaling-stroke" d="
  M 488.22 484.35
  Q 488.21 485.00 488.38 485.12
  Q 490.24 486.45 492.56 487.64"
/>
<path stroke="#9b9ea0" vector-effect="non-scaling-stroke" d="
  M 492.56 487.64
  C 494.78 490.23 495.08 495.76 494.74 498.98
  A 2.62 2.58 69.0 0 1 494.12 500.40
  L 489.59 505.64
  A 2.36 2.35 68.5 0 0 489.04 506.91
  Q 488.04 515.54 495.01 519.91
  A 7.18 6.71 80.6 0 1 496.13 520.77
  Q 499.79 524.19 506.43 526.29
  A 1.99 1.95 45.5 0 0 507.53 526.31
  Q 515.26 524.23 516.58 523.26
  Q 523.98 517.81 520.84 508.91
  C 520.25 507.26 519.91 505.52 518.70 504.58
  Q 515.33 501.94 511.00 500.51
  Q 510.47 500.34 510.66 499.53"
/>
<path stroke="#755e63" vector-effect="non-scaling-stroke" d="
  M 510.66 499.53
  Q 511.86 495.38 513.04 491.46
  Q 513.63 489.49 515.85 487.94
  Q 521.48 484.03 527.14 484.40
  A 1.12 1.11 -70.5 0 0 528.12 483.93
  L 530.68 480.21"
/>
<path stroke="#9b9ea0" vector-effect="non-scaling-stroke" d="
  M 530.68 480.21
  Q 527.38 478.08 523.31 478.10
  A 1.97 1.90 27.6 0 0 522.32 478.39
  Q 516.10 482.29 512.06 486.34
  C 509.69 488.71 509.08 493.93 508.02 498.66
  A 0.45 0.45 0.0 0 1 507.42 498.99
  Q 501.22 496.78 496.45 499.06
  A 0.49 0.49 0.0 0 1 495.75 498.67
  L 494.70 488.65
  A 2.24 1.93 -62.6 0 0 494.59 488.19
  C 493.19 484.47 493.08 482.98 490.36 481.03
  A 0.72 0.71 -43.2 0 0 489.56 481.01
  Q 487.75 482.19 488.22 484.35"
/>
<path stroke="#d8bebf" vector-effect="non-scaling-stroke" d="
  M 530.68 480.21
  Q 521.84 481.64 515.31 486.05
  C 512.47 487.97 511.69 490.05 511.09 493.27
  Q 510.42 496.88 510.66 499.53"
/>
<path stroke="#d8bebf" vector-effect="non-scaling-stroke" d="
  M 492.56 487.64
  Q 491.62 483.88 488.22 484.35"
/>
<path stroke="#9b9ea0" vector-effect="non-scaling-stroke" d="
  M 521.57 486.81
  Q 526.77 488.70 525.68 496.73
  A 0.40 0.40 0.0 0 0 526.34 497.08
  L 529.03 494.77
  A 1.07 1.06 -30.9 0 0 529.33 493.58
  L 526.69 486.95
  A 1.14 1.13 78.8 0 0 525.64 486.24
  L 521.67 486.24
  A 0.29 0.29 0.0 0 0 521.57 486.81"
/>
<path stroke="#9b9ea0" vector-effect="non-scaling-stroke" d="
  M 513.08 498.70
  Q 516.15 499.97 518.72 499.11
  A 0.69 0.69 0.0 0 0 519.07 498.07
  Q 518.20 496.76 517.96 495.26"
/>
<path stroke="#755e63" vector-effect="non-scaling-stroke" d="
  M 517.96 495.26
  Q 517.50 491.44 518.81 488.74
  A 0.57 0.57 0.0 0 0 518.01 488.00
  L 516.26 489.00
  A 4.05 4.00 83.9 0 0 514.45 491.27
  Q 513.04 495.84 512.83 496.98
  Q 512.74 497.50 513.08 498.70"
/>
<path stroke="#d8bebf" vector-effect="non-scaling-stroke" d="
  M 517.96 495.26
  Q 516.85 494.64 516.08 495.30
  Q 514.36 496.77 513.08 498.70"
/>
<path stroke="#9b9ea0" vector-effect="non-scaling-stroke" d="
  M 491.19 497.91
  Q 489.38 494.63 490.37 490.86
  A 1.14 1.12 -13.1 0 1 490.73 490.29
  L 491.23 489.88
  A 0.77 0.76 -40.1 0 0 491.33 488.79
  Q 490.86 488.26 490.29 488.13
  A 0.59 0.58 -78.6 0 0 489.59 488.60
  C 488.96 491.88 487.95 496.22 490.88 498.19
  A 0.22 0.21 2.7 0 0 491.19 497.91"
/>
<path stroke="#9b9ea0" vector-effect="non-scaling-stroke" d="
  M 520.6389 489.0556
  A 1.70 1.37 -103.3 0 0 519.6967 491.0252
  A 1.70 1.37 -103.3 0 0 521.4211 492.3644
  A 1.70 1.37 -103.3 0 0 522.3633 490.3948
  A 1.70 1.37 -103.3 0 0 520.6389 489.0556"
/>
<path stroke="#25567c" vector-effect="non-scaling-stroke" d="
  M 578.22 514.98
  L 578.44 521.21
  A 0.70 0.69 6.3 0 0 578.96 521.85
  Q 581.05 522.37 582.88 521.54
  Q 590.74 517.97 597.83 513.32"
/>
<path stroke="#226d99" vector-effect="non-scaling-stroke" d="
  M 597.83 513.32
  L 613.45 504.71"
/>
<path stroke="#25567c" vector-effect="non-scaling-stroke" d="
  M 613.45 504.71
  Q 623.32 507.55 632.82 509.05
  C 633.93 509.23 634.50 509.85 635.34 510.07
  A 0.35 0.35 0.0 0 0 635.74 509.57
  L 633.20 504.79"
/>
<path stroke="#226d99" vector-effect="non-scaling-stroke" d="
  M 633.20 504.79
  L 630.78 500.97"
/>
<path stroke="#25567c" vector-effect="non-scaling-stroke" d="
  M 630.78 500.97
  L 635.78 493.23"
/>
<path stroke="#226d99" vector-effect="non-scaling-stroke" d="
  M 635.78 493.23
  Q 637.18 492.48 638.81 490.10
  A 0.44 0.44 0.0 0 0 638.38 489.41
  L 610.66 493.49
  A 0.86 0.70 -58.8 0 0 610.35 493.60
  Q 604.06 497.27 596.49 502.76
  C 592.37 505.76 588.38 508.22 583.62 511.59
  Q 581.71 512.93 578.89 512.68
  A 0.65 0.64 9.8 0 0 578.22 513.15
  Q 577.92 514.20 578.22 514.98"
/>
<path stroke="#0f85d1" vector-effect="non-scaling-stroke" d="
  M 635.78 493.23
  L 614.95 498.76
  A 0.56 0.55 39.5 0 0 615.06 499.85
  L 630.78 500.97"
/>
<path stroke="#0f85d1" vector-effect="non-scaling-stroke" d="
  M 633.20 504.79
  L 613.45 504.71"
/>
<path stroke="#0f85d1" vector-effect="non-scaling-stroke" d="
  M 597.83 513.32
  Q 598.09 512.46 597.66 512.03
  A 0.42 0.42 0.0 0 0 597.22 511.93
  Q 588.10 515.16 578.22 514.98"
/>
<path stroke="#9b9ea0" vector-effect="non-scaling-stroke" d="
  M 492.5973 491.5708
  A 0.89 0.47 -87.6 0 0 492.0904 492.4403
  A 0.89 0.47 -87.6 0 0 492.5227 493.3492
  A 0.89 0.47 -87.6 0 0 493.0296 492.4797
  A 0.89 0.47 -87.6 0 0 492.5973 491.5708"
/>
<path stroke="#755e63" vector-effect="non-scaling-stroke" d="
  M 559.13 505.95
  Q 559.45 508.34 561.19 511.22
  A 0.58 0.58 0.0 0 0 562.25 511.02
  L 562.84 507.73"
/>
<path stroke="#9b9ea0" vector-effect="non-scaling-stroke" d="
  M 562.84 507.73
  Q 564.05 504.51 567.19 502.97
  A 0.10 0.10 0.0 0 1 567.31 503.00
  L 567.47 503.19
  A 0.38 0.37 52.1 0 1 567.41 503.73
  Q 562.99 506.93 563.97 512.27
  C 564.69 516.16 571.39 514.92 569.78 510.65
  A 0.43 0.43 0.0 0 1 570.12 510.07
  L 570.45 510.02
  A 0.60 0.60 0.0 0 1 571.13 510.57
  Q 571.29 512.74 569.79 514.70
  A 1.42 1.39 -79.2 0 1 569.07 515.20
  C 564.69 516.52 563.72 513.24 560.90 512.75
  A 5.67 5.40 46.4 0 0 559.66 512.69
  L 556.39 512.93
  A 0.27 0.27 0.0 0 0 556.26 513.42
  L 562.38 517.62
  A 0.13 0.13 0.0 0 1 562.44 517.68
  L 563.02 518.36
  A 1.84 1.68 -2.6 0 0 563.63 518.87
  Q 570.07 522.08 575.57 518.15
  A 1.26 1.24 -17.9 0 0 576.09 517.16
  C 576.22 510.93 576.03 504.47 571.18 500.31
  C 567.00 496.71 562.54 494.80 557.59 498.33
  Q 554.79 500.34 555.77 503.68
  A 1.44 1.44 0.0 0 0 558.55 503.64
  Q 559.27 500.83 562.26 499.53
  A 0.30 0.30 0.0 0 1 562.56 500.05
  Q 559.55 502.28 559.13 505.95"
/>
<path stroke="#d8bebf" vector-effect="non-scaling-stroke" d="
  M 562.84 507.73
  Q 561.16 506.47 559.13 505.95"
/>
<path stroke="#755e63" vector-effect="non-scaling-stroke" d="
  M 486.60 498.30
  A 0.09 0.09 0.0 0 0 486.44 498.22
  L 482.16 503.89
  A 0.46 0.41 -29.2 0 0 482.07 504.15
  Q 482.10 505.10 484.01 505.04
  A 0.65 0.64 -79.1 0 1 484.61 505.94
  L 483.15 509.32
  A 0.55 0.54 30.5 0 0 483.32 509.97
  L 483.65 510.22
  A 0.44 0.44 0.0 0 0 484.33 510.02
  Q 485.69 506.41 485.87 505.92
  Q 486.40 504.39 484.65 503.36
  A 0.27 0.27 0.0 0 1 484.54 503.00
  Q 486.34 499.27 486.60 498.30"
/>
<path stroke="#9b9ea0" vector-effect="non-scaling-stroke" d="
  M 468.22 519.14
  L 465.73 520.84
  A 2.98 2.98 0.0 0 1 461.88 520.43
  Q 460.42 518.89 459.87 518.73
  A 0.34 0.34 0.0 0 1 459.74 518.15
  Q 460.10 517.82 460.32 517.68
  A 0.75 0.75 0.0 0 1 461.29 517.85
  L 462.59 519.48
  A 1.16 1.15 -18.1 0 0 463.45 519.91
  Q 465.80 520.01 467.30 517.98
  A 1.36 1.34 -30.6 0 0 467.56 517.00
  Q 466.93 511.84 461.70 510.92
  A 0.49 0.48 8.7 0 1 461.30 510.38
  L 461.30 510.34
  A 0.52 0.51 7.5 0 1 461.89 509.89
  C 464.66 510.32 467.70 512.04 468.55 514.85
  Q 468.79 515.62 469.10 515.96
  A 0.42 0.42 0.0 0 0 469.81 515.52
  Q 468.46 512.05 470.06 509.81
  A 0.75 0.75 0.0 0 0 469.90 508.77
  L 465.66 505.57
  A 0.30 0.29 66.9 0 1 465.87 505.04
  Q 469.27 505.52 471.14 508.10
  A 0.33 0.33 0.0 0 0 471.65 508.13
  Q 472.46 507.22 473.53 506.73
  A 0.38 0.37 -29.6 0 0 473.69 506.17
  C 471.19 502.62 467.17 502.11 463.65 504.60
  C 459.88 507.28 455.10 512.21 456.47 516.97
  Q 458.21 523.06 462.89 527.48
  A 2.96 2.95 64.1 0 0 465.19 528.28
  Q 471.39 527.72 474.79 523.27
  A 0.82 0.80 -43.7 0 0 474.82 522.32
  L 474.66 522.09
  A 0.85 0.83 46.2 0 1 474.67 521.13
  C 477.24 517.56 478.45 514.45 477.77 509.86
  A 1.26 1.23 -76.5 0 0 477.29 509.06
  C 472.53 505.56 467.87 515.04 473.07 515.65
  A 1.13 1.08 -57.9 0 0 473.83 515.46
  L 476.40 513.71
  A 0.31 0.31 0.0 0 1 476.82 514.15
  Q 474.59 517.11 471.19 517.02
  A 1.15 1.15 0.0 0 0 470.01 518.15
  Q 469.97 520.80 468.59 523.01
  A 0.50 0.50 0.0 0 1 467.71 522.55
  L 468.93 519.73
  A 0.48 0.48 0.0 0 0 468.22 519.14"
/>
<path stroke="#9b9ea0" vector-effect="non-scaling-stroke" d="
  M 558.50 511.63
  A 0.52 0.52 0.0 0 0 558.93 510.96
  L 557.72 506.82
  A 1.15 1.14 -3.3 0 0 556.81 506.01
  L 554.41 505.59
  A 0.87 0.87 0.0 0 0 553.62 505.86
  Q 552.55 507.03 552.77 508.62
  A 2.19 2.08 24.5 0 0 553.17 509.61
  Q 554.98 512.08 558.50 511.63"
/>
<path stroke="#9b9ea0" vector-effect="non-scaling-stroke" d="
  M 551.20 505.85
  L 547.54 509.52
  A 0.61 0.61 0.0 0 0 547.94 510.56
  Q 549.45 510.63 550.51 509.89
  A 0.92 0.90 -19.7 0 0 550.91 509.07
  Q 550.81 507.71 551.37 505.95
  A 0.10 0.10 0.0 0 0 551.20 505.85"
/>
<path stroke="#226d99" vector-effect="non-scaling-stroke" d="
  M 496.93 524.16
  L 494.94 523.08
  A 1.16 1.15 88.8 0 0 493.40 524.69
  Q 494.78 527.00 497.53 528.53"
/>
<path stroke="#25567c" vector-effect="non-scaling-stroke" d="
  M 497.53 528.53
  Q 497.22 529.35 496.68 529.79"
/>
<path stroke="#226d99" vector-effect="non-scaling-stroke" d="
  M 496.68 529.79
  Q 496.60 529.66 496.47 529.57
  A 0.34 0.33 -68.1 0 0 495.95 529.80
  Q 495.66 531.55 496.15 533.09
  A 1.71 1.70 -81.0 0 0 496.75 533.92
  L 503.60 539.00"
/>
<path stroke="#25567c" vector-effect="non-scaling-stroke" d="
  M 503.60 539.00
  Q 507.69 543.38 510.69 544.83
  Q 514.39 546.61 517.07 544.98
  Q 523.26 541.22 529.80 537.26
  A 4.40 4.39 7.2 0 0 530.59 536.65
  Q 532.99 534.29 533.36 533.86
  Q 538.10 528.27 543.35 520.84
  Q 544.77 518.84 549.37 517.90
  A 0.42 0.42 0.0 0 0 549.65 517.28
  L 546.68 512.14
  A 0.95 0.94 -35.4 0 0 545.24 511.90
  L 537.85 518.24
  A 2.09 2.03 -73.9 0 1 537.13 518.65
  Q 531.44 520.58 526.41 522.45
  C 520.11 524.79 514.25 526.01 508.31 527.56
  Q 506.19 528.11 504.26 527.27
  Q 500.67 525.72 496.93 524.16"
/>
<path stroke="#0f85d1" vector-effect="non-scaling-stroke" d="
  M 503.60 539.00
  Q 509.70 543.04 513.95 542.33
  Q 515.81 542.01 523.49 538.74
  A 3.76 3.49 -73.7 0 0 524.26 538.28
  L 528.57 534.91
  A 2.26 1.99 -85.5 0 0 528.90 534.59
  L 533.89 528.80
  A 0.65 0.65 0.0 0 0 533.78 527.84
  L 533.75 527.82
  A 0.99 0.98 -50.1 0 0 532.55 527.93
  Q 527.97 532.19 521.47 533.88
  A 0.38 0.38 0.0 0 1 521.13 533.23
  L 530.76 524.96
  A 0.89 0.89 0.0 0 0 530.40 523.42
  Q 529.76 523.26 528.89 523.62
  Q 521.06 526.87 516.55 527.66
  Q 514.68 527.99 511.48 529.17
  Q 509.57 529.88 506.24 530.13
  A 1.82 1.75 -33.1 0 1 505.30 529.95
  Q 503.36 528.98 498.35 526.69
  Q 496.80 525.98 496.93 524.16"
/>
<path stroke="#0f85d1" vector-effect="non-scaling-stroke" d="
  M 496.68 529.79
  Q 500.91 532.89 505.37 535.64
  Q 508.17 537.36 510.87 536.82
  Q 514.32 536.12 517.39 535.72
  A 0.23 0.23 0.0 0 0 517.40 535.27
  L 506.22 533.33
  A 2.76 2.71 64.0 0 1 505.35 533.02
  L 497.53 528.53"
/>
<path stroke="#25567c" vector-effect="non-scaling-stroke" d="
  M 559.85 518.42
  A 0.44 0.43 -80.8 0 0 560.33 518.07
  Q 560.41 517.66 560.09 517.44
  Q 557.71 515.82 555.56 514.63
  A 1.66 1.63 0.9 0 1 554.89 513.95
  Q 553.11 510.49 548.65 512.27
  A 0.44 0.44 0.0 0 0 548.50 512.99
  L 549.13 513.61
  A 1.02 1.00 -66.1 0 1 549.42 514.39
  Q 549.33 515.61 550.27 515.97
  Q 555.29 517.91 559.85 518.42"
/>
<path stroke="#9b9ea0" vector-effect="non-scaling-stroke" d="
  M 551.62 518.65
  A 0.28 0.28 0.0 0 0 551.78 518.92
  L 559.86 522.73
  A 0.61 0.60 -67.2 0 0 560.68 522.39
  Q 560.86 521.86 560.87 520.63
  A 0.56 0.55 -84.6 0 0 560.41 520.07
  L 551.92 518.49
  A 0.27 0.26 19.7 0 0 551.65 518.61
  L 551.62 518.65"
/>
<path stroke="#755e63" vector-effect="non-scaling-stroke" d="
  M 562.6582 521.1618
  A 2.22 0.38 -84.1 0 0 562.0520 523.3309
  A 2.22 0.38 -84.1 0 0 562.2018 525.5782
  A 2.22 0.38 -84.1 0 0 562.8080 523.4091
  A 2.22 0.38 -84.1 0 0 562.6582 521.1618"
/>
<path stroke="#755e63" vector-effect="non-scaling-stroke" d="
  M 476.2301 523.9710
  A 0.56 0.56 0.0 0 0 475.4399 523.9171
  L 475.4098 523.9434
  A 0.56 0.56 0.0 0 0 475.3559 524.7336
  L 480.9699 531.1690
  A 0.56 0.56 0.0 0 0 481.7601 531.2229
  L 481.7902 531.1966
  A 0.56 0.56 0.0 0 0 481.8441 530.4064
  L 476.2301 523.9710"
/>
<path stroke="#226d99" vector-effect="non-scaling-stroke" d="
  M 501.16 542.34
  L 507.53 559.84
  A 9.37 9.08 -58.1 0 1 508.05 562.24
  L 508.65 569.75
  A 1.35 1.32 25.0 0 0 508.91 570.44
  C 511.22 573.63 514.94 575.16 518.89 576.32"
/>
<path stroke="#25567c" vector-effect="non-scaling-stroke" d="
  M 518.89 576.32
  Q 525.49 578.84 532.56 577.63"
/>
<path stroke="#226d99" vector-effect="non-scaling-stroke" d="
  M 532.56 577.63
  Q 540.73 576.39 547.80 572.42"
/>
<path stroke="#25567c" vector-effect="non-scaling-stroke" d="
  M 547.80 572.42
  L 553.27 568.00
  A 0.36 0.35 44.5 0 0 553.26 567.44
  L 546.00 561.97
  A 0.54 0.54 0.0 0 1 546.25 561.01
  L 547.30 560.85
  A 0.79 0.78 -26.2 0 1 547.98 561.08
  L 553.36 566.46
  A 0.97 0.97 0.0 0 0 554.65 566.53
  C 557.23 564.49 559.61 561.27 559.69 557.96
  A 1.54 1.50 26.9 0 0 559.36 556.99
  Q 554.44 550.77 552.09 543.87
  A 0.53 0.53 0.0 0 0 551.20 543.68
  C 549.05 546.02 545.22 543.73 543.84 541.74
  Q 539.81 535.94 539.91 529.01
  A 0.23 0.23 0.0 0 0 539.50 528.87
  L 533.83 536.38
  A 1.18 1.04 -2.6 0 1 533.56 536.64
  Q 524.79 542.92 516.17 547.16
  A 1.65 1.60 35.7 0 1 515.24 547.30
  Q 511.00 546.65 508.83 545.18
  Q 505.83 543.15 501.14 540.16
  A 0.39 0.39 0.0 0 0 500.54 540.41
  Q 500.32 541.52 501.16 542.34"
/>
<path stroke="#0f85d1" vector-effect="non-scaling-stroke" d="
  M 547.80 572.42
  Q 547.82 567.31 545.93 562.81
  A 1.67 1.67 0.0 0 0 545.52 562.22
  L 541.06 558.11
  A 1.26 1.24 -68.9 0 1 540.66 557.19
  L 540.66 556.76
  A 0.43 0.43 0.0 0 1 541.35 556.42
  L 544.69 558.95
  A 0.44 0.44 0.0 0 0 545.39 558.52
  C 544.73 554.59 543.43 550.04 540.52 545.78
  Q 538.77 543.22 536.81 539.34
  A 1.43 1.43 0.0 0 0 534.61 538.88
  Q 526.32 545.83 517.61 548.65
  A 0.85 0.84 70.0 0 0 517.09 549.77
  L 520.54 558.45
  A 1.19 1.19 0.0 0 0 521.64 559.19
  L 530.98 559.19
  A 0.27 0.27 0.0 0 1 531.04 559.72
  Q 529.19 560.13 522.85 560.94
  A 1.14 1.14 0.0 0 0 521.90 562.39
  L 525.92 576.10
  A 1.35 1.32 89.4 0 0 526.83 577.01
  Q 529.58 577.79 532.56 577.63"
/>
<path stroke="#0f85d1" vector-effect="non-scaling-stroke" d="
  M 518.89 576.32
  L 524.15 577.09
  A 0.45 0.45 0.0 0 0 524.66 576.58
  C 524.52 575.74 523.69 574.90 523.42 573.65
  Q 522.15 567.82 520.06 561.69
  A 1.27 1.27 0.0 0 0 518.95 560.83
  Q 516.00 560.62 514.54 559.62
  A 0.41 0.41 0.0 0 1 514.77 558.88
  L 518.48 558.88
  A 0.36 0.36 0.0 0 0 518.81 558.39
  L 515.37 549.74
  A 1.06 1.06 0.0 0 0 514.62 549.11
  L 510.47 548.20
  A 1.61 1.60 67.0 0 1 509.93 547.98
  L 501.16 542.34"
/>
<path stroke="#9b9ea0" vector-effect="non-scaling-stroke" d="
  M 571.67 571.86
  Q 575.17 568.21 576.75 563.95
  A 1.11 1.08 51.5 0 0 576.81 563.37
  Q 576.69 562.58 575.84 562.25
  A 0.56 0.56 0.0 0 1 575.51 561.55
  C 576.31 559.18 575.90 555.05 574.15 552.49
  Q 571.09 547.98 570.54 547.27
  A 0.38 0.38 0.0 0 0 569.89 547.67
  Q 571.92 552.07 571.83 556.61
  A 0.56 0.55 74.0 0 0 572.69 557.09
  L 572.81 557.02
  A 0.85 0.84 -5.0 0 1 574.03 558.04
  L 571.73 564.26
  A 0.43 0.43 0.0 0 0 572.35 564.78
  L 572.85 564.49
  A 0.30 0.30 0.0 0 1 573.24 564.93
  L 570.07 569.13
  A 0.33 0.33 0.0 0 0 570.05 569.48
  L 571.40 571.82
  A 0.17 0.17 0.0 0 0 571.67 571.86"
/>
<path stroke="#755e63" vector-effect="non-scaling-stroke" d="
  M 509.19 601.14
  A 0.28 0.28 0.0 0 0 509.67 600.85
  L 507.83 596.70
  A 3.10 3.03 -59.8 0 1 507.57 595.67
  Q 507.02 588.41 509.61 581.82
  C 510.36 579.94 510.93 577.67 511.19 576.09
  A 1.00 0.99 16.5 0 0 510.60 575.01
  L 510.55 574.99
  A 0.71 0.71 0.0 0 0 509.58 575.45
  Q 509.18 576.92 508.45 579.26
  Q 508.20 580.07 506.40 590.30
  Q 505.35 596.28 509.19 601.14"
/>
<path stroke="#9b9ea0" vector-effect="non-scaling-stroke" d="
  M 587.70 626.17
  Q 589.09 628.99 591.95 631.66
  A 1.37 1.35 68.1 0 0 592.80 632.03
  C 594.30 632.15 596.02 632.49 597.01 631.02
  Q 598.03 629.51 598.36 627.84
  A 0.77 0.77 0.0 0 0 597.97 627.01
  Q 595.15 625.47 592.79 621.91
  A 0.07 0.06 -41.4 0 1 592.80 621.83
  L 593.17 621.46
  A 0.10 0.10 0.0 0 1 593.31 621.46
  L 597.80 625.95
  A 0.69 0.69 0.0 0 0 598.94 625.68
  C 600.51 620.96 597.35 616.75 594.61 612.72
  C 593.14 610.57 592.62 609.23 589.99 609.71
  Q 582.77 611.02 578.87 616.95
  A 1.13 1.12 -36.6 0 0 578.73 617.87
  Q 579.59 621.03 582.66 626.62
  Q 585.06 631.00 589.20 631.50
  A 0.29 0.29 0.0 0 0 589.44 631.00
  Q 587.56 629.18 586.90 626.48
  A 0.44 0.43 68.3 0 1 587.10 626.00
  L 587.12 625.99
  A 0.42 0.41 61.7 0 1 587.70 626.17"
/>
<path stroke="#755e63" vector-effect="non-scaling-stroke" d="
  M 535.20 631.20
  Q 536.16 633.15 537.47 632.26
  Q 540.45 630.23 539.98 625.24
  Q 539.70 622.20 539.46 619.04
  A 1.07 1.07 0.0 0 0 539.01 618.25
  Q 537.31 617.05 534.92 617.08"
/>
<path stroke="#9b9ea0" vector-effect="non-scaling-stroke" d="
  M 534.92 617.08
  Q 530.49 616.38 526.00 617.39
  A 0.90 0.89 -87.0 0 0 525.35 617.98
  C 523.88 622.27 522.53 628.88 526.94 632.13
  A 0.26 0.26 0.0 0 0 527.34 631.85
  Q 526.58 629.37 526.79 628.36
  A 0.22 0.22 0.0 0 1 527.21 628.33
  Q 529.04 633.95 531.98 634.98
  C 533.99 635.68 534.36 635.16 535.72 633.81
  A 0.54 0.54 0.0 0 0 535.66 633.00
  Q 533.04 631.09 531.55 626.91
  A 0.16 0.16 0.0 0 1 531.60 626.73
  L 531.92 626.45
  A 0.27 0.27 0.0 0 1 532.33 626.52
  L 535.20 631.20"
/>
<path stroke="#d8bebf" vector-effect="non-scaling-stroke" d="
  M 534.92 617.08
  Q 534.92 622.86 535.98 628.52
  Q 536.41 630.79 535.20 631.20"
/>
<path stroke="#d8bebf" vector-effect="non-scaling-stroke" d="
  M 545.63 457.53
  Q 546.25 456.36 546.13 455.74
  A 0.49 0.49 0.0 0 1 546.36 455.22
  L 548.03 454.26
  A 0.56 0.56 0.0 0 1 548.75 455.08
  L 543.22 462.41
  A 0.44 0.43 41.8 0 0 543.26 462.97
  L 543.48 463.18
  A 0.29 0.29 0.0 0 0 543.92 463.14
  C 545.77 460.49 548.38 458.74 550.87 456.42
  Q 552.99 454.44 556.81 451.17
  A 0.35 0.35 0.0 0 0 556.53 450.56
  L 553.93 450.94
  A 0.64 0.63 -75.8 0 1 553.33 449.93
  L 560.54 440.38
  A 0.38 0.37 13.9 0 0 560.18 439.79
  L 557.27 440.22
  A 0.55 0.54 -75.5 0 1 556.76 439.35
  L 563.04 431.02
  A 0.29 0.29 0.0 0 0 562.99 430.61
  L 562.69 430.39
  A 0.03 0.03 0.0 0 0 562.65 430.39
  L 549.62 443.34
  A 0.47 0.46 11.8 0 0 550.12 444.10
  Q 552.49 443.17 553.00 443.77
  Q 553.33 444.16 552.83 444.80
  Q 549.93 448.49 545.99 453.44
  A 2.34 2.31 62.2 0 0 545.50 455.06
  Q 545.58 456.05 544.99 457.07
  A 0.28 0.28 0.0 0 0 545.06 457.43
  L 545.30 457.60
  A 0.22 0.22 0.0 0 0 545.63 457.53"
/>
<path stroke="#9b9ea0" vector-effect="non-scaling-stroke" d="
  M 514.40 508.06
  Q 513.71 508.40 513.03 509.22
  C 510.27 512.52 504.18 514.39 500.22 512.01
  A 2.36 2.18 48.6 0 1 500.32 507.93
  Q 502.09 507.26 503.93 504.85
  A 0.93 0.92 32.9 0 0 503.63 503.47
  Q 499.34 501.14 493.89 502.98
  A 1.18 1.18 0.0 0 0 493.36 504.85
  Q 495.20 507.08 496.88 507.99
  A 3.11 2.87 -62.4 0 1 497.96 512.02
  Q 497.07 513.80 493.84 512.56
  A 0.28 0.28 0.0 0 0 493.54 513.01
  Q 494.66 514.19 496.49 514.15
  A 1.08 1.08 0.0 0 1 497.39 514.58
  Q 499.45 517.32 500.48 518.90
  C 502.85 522.54 504.60 523.72 508.57 522.12
  A 2.51 2.47 9.4 0 0 509.51 521.46
  C 513.38 517.07 512.80 512.88 514.67 508.32
  A 0.20 0.20 0.0 0 0 514.40 508.06"
/>
<path stroke="#755e63" vector-effect="non-scaling-stroke" d="
  M 498.48 507.81
  Q 498.72 507.81 498.77 507.79
  Q 501.03 506.60 502.88 504.76
  A 0.59 0.58 -56.6 0 0 502.69 503.80
  Q 501.08 503.16 498.56 503.12
  Q 496.04 503.08 494.41 503.67
  A 0.59 0.58 58.5 0 0 494.19 504.61
  Q 495.98 506.52 498.20 507.78
  Q 498.25 507.80 498.48 507.81"
/>
<path stroke="#755e63" vector-effect="non-scaling-stroke" d="
  M 502.74 514.35
  Q 500.74 512.93 498.70 512.93
  A 0.55 0.55 0.0 0 0 498.28 513.84
  L 499.94 515.78
  A 0.48 0.47 53.5 0 0 500.55 515.88
  L 502.73 514.63
  A 0.17 0.16 47.3 0 0 502.74 514.35"
/>
<path stroke="#755e63" vector-effect="non-scaling-stroke" d="
  M 511.54 515.90
  A 0.56 0.56 0.0 0 0 510.92 515.19
  C 506.92 515.81 504.69 515.80 503.64 520.39
  A 0.72 0.72 0.0 0 0 504.00 521.19
  C 507.51 523.06 510.69 518.69 511.54 515.90"
/>
</g>
<path fill="#383e44" d="
  M 553.08 499.05
  Q 552.18 499.01 551.68 499.35
  A 0.48 0.48 0.0 0 0 551.70 500.16
  Q 552.42 500.61 552.79 501.07
  A 0.39 0.39 0.0 0 1 552.55 501.70
  Q 551.35 501.89 549.71 503.09
  A 0.42 0.42 0.0 0 0 549.82 503.83
  Q 550.98 504.25 551.27 504.89
  A 0.37 0.37 0.0 0 0 551.84 505.03
  L 553.14 503.99
  A 1.23 1.21 73.4 0 0 553.60 503.12
  L 553.84 499.71
  C 556.84 495.86 562.18 493.55 567.02 495.63
  Q 568.14 496.11 569.20 494.71
  Q 580.59 479.67 584.36 474.61
  Q 585.67 472.85 587.21 472.22
  Q 596.44 468.45 607.86 464.20
  C 608.78 463.86 609.54 464.05 610.42 463.14
  A 0.54 0.53 -21.5 0 1 611.34 463.54
  Q 611.17 466.46 610.23 468.43
  A 0.45 0.38 66.8 0 0 610.19 468.56
  L 609.07 473.54
  A 1.53 1.52 -65.3 0 0 609.64 475.10
  L 616.21 480.06
  A 0.38 0.38 0.0 0 1 616.07 480.74
  Q 606.71 482.94 594.76 486.04
  Q 591.38 486.91 590.02 488.24
  Q 583.92 494.24 576.21 502.27
  A 1.30 1.28 -31.8 0 0 575.90 503.54
  L 578.05 510.91
  A 0.35 0.35 0.0 0 0 578.35 511.15
  Q 581.03 511.44 583.12 510.14
  Q 587.22 507.59 588.61 506.60
  Q 598.15 499.76 607.98 493.45
  Q 610.44 491.88 613.52 491.96
  A 2.32 2.27 -55.9 0 0 614.50 491.76
  C 616.86 490.69 620.37 491.05 622.99 490.35
  Q 624.42 489.97 627.11 489.94
  A 1.43 1.42 -62.3 0 0 627.93 489.68
  L 628.28 489.45
  A 0.58 0.53 20.8 0 1 628.53 489.35
  L 640.89 487.88
  A 0.60 0.60 0.0 0 1 641.44 488.84
  Q 637.78 493.65 634.34 497.81
  Q 632.87 499.59 632.79 500.48
  A 1.63 1.62 34.5 0 0 632.99 501.55
  L 638.75 511.57
  A 0.22 0.22 0.0 0 1 638.52 511.90
  C 634.76 511.08 632.59 510.28 629.16 509.82
  Q 628.50 509.73 625.55 508.94
  C 622.15 508.02 619.61 507.77 616.02 506.94
  C 613.59 506.38 612.24 506.66 609.87 508.05
  Q 596.62 515.83 585.38 521.94
  C 582.92 523.28 581.27 523.24 579.07 523.18
  A 0.64 0.64 0.0 0 0 578.42 523.83
  C 578.48 529.23 578.71 534.89 576.82 539.61
  Q 576.15 541.28 573.71 542.75
  A 2.04 1.96 -59.6 0 1 572.75 543.02
  Q 563.12 543.19 561.59 542.92
  Q 554.93 541.75 554.03 541.89
  A 0.57 0.56 -10.8 0 0 553.57 542.56
  Q 554.74 548.35 558.48 552.93
  A 0.30 0.30 0.0 0 0 558.95 552.92
  L 561.25 549.88
  A 0.64 0.63 -53.1 0 1 562.13 549.75
  L 562.58 550.10
  A 0.85 0.85 0.0 0 0 563.69 550.02
  L 568.20 545.51
  A 1.90 1.90 0.0 0 1 571.11 545.78
  L 576.80 554.09
  A 1.38 1.33 -63.0 0 1 577.03 554.85
  L 577.03 560.43
  A 0.70 0.68 20.5 0 0 577.28 560.96
  C 580.22 563.57 574.30 571.29 572.49 572.99
  A 0.84 0.83 -36.5 0 0 572.33 574.00
  Q 576.16 581.21 577.92 588.46
  A 1.14 1.12 3.6 0 0 578.64 589.26
  Q 581.30 590.22 582.67 592.17
  Q 588.54 600.52 599.51 617.90
  A 3.61 3.53 -70.9 0 1 599.85 618.62
  L 600.62 620.92
  A 4.43 4.25 38.8 0 1 600.84 622.61
  Q 600.46 627.79 598.38 631.50
  A 4.03 4.01 -74.9 0 1 594.85 633.54
  Q 590.87 633.51 587.37 632.61
  C 584.23 631.80 581.82 628.63 580.48 625.75
  Q 576.34 616.84 572.57 606.90
  A 1.02 1.01 -14.8 0 0 571.46 606.26
  Q 564.17 607.50 557.78 603.99
  Q 554.64 602.27 542.81 593.45
  Q 542.15 592.96 540.48 592.54
  A 1.71 1.71 0.0 0 0 538.87 592.98
  L 536.30 595.56
  A 0.41 0.41 0.0 0 0 536.49 596.25
  L 539.61 597.04
  A 3.41 3.40 6.1 0 1 542.17 600.20
  Q 542.31 603.76 541.67 610.05
  C 540.95 617.12 541.07 620.01 541.12 627.92
  A 5.45 5.43 64.0 0 1 539.96 631.31
  Q 537.75 634.11 535.29 636.02
  C 532.86 637.90 527.46 634.32 525.69 632.89
  Q 524.60 632.00 523.19 629.53
  A 2.30 2.26 29.5 0 1 522.89 628.48
  Q 522.64 622.58 523.07 620.71
  Q 524.47 614.60 525.36 609.47
  A 0.52 0.52 0.0 0 0 524.79 608.86
  Q 518.71 609.57 512.95 607.21
  A 3.19 3.15 76.3 0 1 512.06 606.66
  Q 506.88 602.11 504.45 595.18
  A 2.00 1.92 -53.2 0 1 504.35 594.35
  L 505.23 585.60
  A 0.12 0.06 73.2 0 1 505.24 585.55
  Q 505.96 584.23 506.18 581.62
  A 4.40 4.37 -32.7 0 1 506.42 580.53
  C 507.49 577.58 509.12 573.65 507.25 570.76
  A 1.07 1.00 26.4 0 1 507.09 570.33
  L 505.93 560.24
  A 0.84 0.73 -62.9 0 0 505.86 559.96
  L 500.72 546.91
  A 0.93 0.93 0.0 0 0 499.55 546.38
  C 496.29 547.53 493.15 547.67 489.29 548.41
  C 485.95 549.04 482.37 549.43 479.76 549.34
  Q 477.26 549.25 475.26 547.51
  C 471.88 544.57 468.51 540.04 466.14 536.14
  Q 461.01 527.72 457.28 522.26
  Q 456.28 520.79 455.43 518.16
  Q 454.47 515.19 455.09 511.70
  A 2.39 2.34 69.1 0 1 455.53 510.69
  C 459.82 504.82 468.29 496.54 474.35 504.92
  Q 474.67 505.36 475.42 506.38
  A 1.42 1.42 0.0 0 0 476.22 506.93
  C 480.18 507.94 480.65 512.59 479.06 515.81
  Q 478.53 516.87 477.07 520.28
  A 2.30 2.30 0.0 0 0 477.44 522.69
  L 483.16 529.35
  A 0.61 0.60 -27.8 0 0 483.79 529.54
  L 491.67 527.23
  A 0.88 0.87 71.0 0 0 492.23 526.07
  Q 491.49 524.19 492.09 522.34
  A 1.33 1.33 0.0 0 0 491.55 520.81
  Q 485.49 516.89 482.12 510.40
  Q 481.49 509.19 481.89 508.03
  Q 482.59 505.98 480.89 505.79
  A 0.74 0.74 0.0 0 1 480.33 504.68
  Q 482.61 500.73 485.22 496.96
  C 487.63 493.46 486.80 489.51 486.33 485.21
  A 5.92 5.90 -29.8 0 1 487.49 480.97
  L 494.90 471.14
  A 1.43 1.43 0.0 0 0 493.76 468.84
  L 492.99 468.84
  A 0.34 0.34 0.0 0 1 492.82 468.21
  L 494.59 467.19
  A 0.90 0.90 0.0 0 0 495.04 466.41
  L 495.04 450.23
  A 2.97 2.96 54.9 0 1 495.21 449.24
  C 496.10 446.68 495.99 444.30 496.11 441.41
  Q 496.18 439.57 498.25 436.99
  Q 510.14 422.17 520.44 412.06
  A 0.82 0.82 0.0 0 1 521.83 412.52
  C 522.17 414.69 521.42 416.66 521.25 418.47
  Q 519.89 432.82 516.74 448.11
  A 3.93 3.72 63.9 0 1 516.50 448.88
  L 511.96 459.38
  A 0.81 0.81 0.0 0 0 512.58 460.50
  Q 516.19 461.06 516.82 461.01
  A 3.81 3.38 48.4 0 1 517.66 461.11
  L 526.84 463.44
  A 0.86 0.86 0.0 0 0 527.81 463.02
  Q 530.63 457.83 541.87 437.64
  C 543.09 435.46 545.47 433.23 547.76 431.52
  Q 560.93 421.70 574.92 412.12
  A 0.55 0.55 0.0 0 1 575.77 412.66
  Q 572.17 433.54 563.97 452.43
  A 8.55 8.52 -8.7 0 1 561.70 455.51
  L 541.62 472.76
  A 0.71 0.70 -32.0 0 0 541.43 473.58
  Q 544.22 480.24 545.08 484.22
  Q 546.30 489.92 549.52 494.00
  Q 551.90 497.01 553.08 499.05
  Z
  M 570.01 420.74
  Q 558.26 430.86 551.71 436.67
  C 549.81 438.36 547.97 440.92 546.89 442.88
  Q 539.66 456.03 535.91 470.16
  A 0.41 0.41 0.0 0 0 536.56 470.59
  L 558.42 453.13
  A 6.81 6.69 84.1 0 0 560.28 450.80
  Q 567.48 435.78 571.03 421.37
  A 0.63 0.63 0.0 0 0 570.01 420.74
  Z
  M 575.56 488.81
  L 569.97 495.86
  A 0.44 0.43 -49.2 0 0 570.01 496.44
  L 574.51 500.95
  A 0.63 0.62 46.8 0 0 575.35 500.98
  Q 580.23 496.82 584.02 492.02
  Q 586.35 489.08 592.35 484.93
  L 612.75 480.14
  A 0.60 0.59 51.8 0 0 612.88 479.03
  L 609.96 477.53
  Q 608.22 476.45 607.44 475.26
  A 1.14 1.12 35.4 0 1 607.28 474.38
  L 608.67 468.44
  L 609.70 465.97
  A 0.68 0.68 0.0 0 0 608.82 465.07
  L 587.70 473.48
  A 5.12 5.12 0.0 0 0 585.42 475.25
  L 575.56 488.81
  Z
  M 488.22 484.35
  Q 488.21 485.00 488.38 485.12
  Q 490.24 486.45 492.56 487.64
  C 494.78 490.23 495.08 495.76 494.74 498.98
  A 2.62 2.58 69.0 0 1 494.12 500.40
  L 489.59 505.64
  A 2.36 2.35 68.5 0 0 489.04 506.91
  Q 488.04 515.54 495.01 519.91
  A 7.18 6.71 80.6 0 1 496.13 520.77
  Q 499.79 524.19 506.43 526.29
  A 1.99 1.95 45.5 0 0 507.53 526.31
  Q 515.26 524.23 516.58 523.26
  Q 523.98 517.81 520.84 508.91
  C 520.25 507.26 519.91 505.52 518.70 504.58
  Q 515.33 501.94 511.00 500.51
  Q 510.47 500.34 510.66 499.53
  Q 511.86 495.38 513.04 491.46
  Q 513.63 489.49 515.85 487.94
  Q 521.48 484.03 527.14 484.40
  A 1.12 1.11 -70.5 0 0 528.12 483.93
  L 530.68 480.21
  Q 527.38 478.08 523.31 478.10
  A 1.97 1.90 27.6 0 0 522.32 478.39
  Q 516.10 482.29 512.06 486.34
  C 509.69 488.71 509.08 493.93 508.02 498.66
  A 0.45 0.45 0.0 0 1 507.42 498.99
  Q 501.22 496.78 496.45 499.06
  A 0.49 0.49 0.0 0 1 495.75 498.67
  L 494.70 488.65
  A 2.24 1.93 -62.6 0 0 494.59 488.19
  C 493.19 484.47 493.08 482.98 490.36 481.03
  A 0.72 0.71 -43.2 0 0 489.56 481.01
  Q 487.75 482.19 488.22 484.35
  Z
  M 521.57 486.81
  Q 526.77 488.70 525.68 496.73
  A 0.40 0.40 0.0 0 0 526.34 497.08
  L 529.03 494.77
  A 1.07 1.06 -30.9 0 0 529.33 493.58
  L 526.69 486.95
  A 1.14 1.13 78.8 0 0 525.64 486.24
  L 521.67 486.24
  A 0.29 0.29 0.0 0 0 521.57 486.81
  Z
  M 513.08 498.70
  Q 516.15 499.97 518.72 499.11
  A 0.69 0.69 0.0 0 0 519.07 498.07
  Q 518.20 496.76 517.96 495.26
  Q 517.50 491.44 518.81 488.74
  A 0.57 0.57 0.0 0 0 518.01 488.00
  L 516.26 489.00
  A 4.05 4.00 83.9 0 0 514.45 491.27
  Q 513.04 495.84 512.83 496.98
  Q 512.74 497.50 513.08 498.70
  Z
  M 491.19 497.91
  Q 489.38 494.63 490.37 490.86
  A 1.14 1.12 -13.1 0 1 490.73 490.29
  L 491.23 489.88
  A 0.77 0.76 -40.1 0 0 491.33 488.79
  Q 490.86 488.26 490.29 488.13
  A 0.59 0.58 -78.6 0 0 489.59 488.60
  C 488.96 491.88 487.95 496.22 490.88 498.19
  A 0.22 0.21 2.7 0 0 491.19 497.91
  Z
  M 520.6389 489.0556
  A 1.70 1.37 -103.3 0 0 519.6967 491.0252
  A 1.70 1.37 -103.3 0 0 521.4211 492.3644
  A 1.70 1.37 -103.3 0 0 522.3633 490.3948
  A 1.70 1.37 -103.3 0 0 520.6389 489.0556
  Z
  M 578.22 514.98
  L 578.44 521.21
  A 0.70 0.69 6.3 0 0 578.96 521.85
  Q 581.05 522.37 582.88 521.54
  Q 590.74 517.97 597.83 513.32
  L 613.45 504.71
  Q 623.32 507.55 632.82 509.05
  C 633.93 509.23 634.50 509.85 635.34 510.07
  A 0.35 0.35 0.0 0 0 635.74 509.57
  L 633.20 504.79
  L 630.78 500.97
  L 635.78 493.23
  Q 637.18 492.48 638.81 490.10
  A 0.44 0.44 0.0 0 0 638.38 489.41
  L 610.66 493.49
  A 0.86 0.70 -58.8 0 0 610.35 493.60
  Q 604.06 497.27 596.49 502.76
  C 592.37 505.76 588.38 508.22 583.62 511.59
  Q 581.71 512.93 578.89 512.68
  A 0.65 0.64 9.8 0 0 578.22 513.15
  Q 577.92 514.20 578.22 514.98
  Z
  M 492.5973 491.5708
  A 0.89 0.47 -87.6 0 0 492.0904 492.4403
  A 0.89 0.47 -87.6 0 0 492.5227 493.3492
  A 0.89 0.47 -87.6 0 0 493.0296 492.4797
  A 0.89 0.47 -87.6 0 0 492.5973 491.5708
  Z
  M 559.13 505.95
  Q 559.45 508.34 561.19 511.22
  A 0.58 0.58 0.0 0 0 562.25 511.02
  L 562.84 507.73
  Q 564.05 504.51 567.19 502.97
  A 0.10 0.10 0.0 0 1 567.31 503.00
  L 567.47 503.19
  A 0.38 0.37 52.1 0 1 567.41 503.73
  Q 562.99 506.93 563.97 512.27
  C 564.69 516.16 571.39 514.92 569.78 510.65
  A 0.43 0.43 0.0 0 1 570.12 510.07
  L 570.45 510.02
  A 0.60 0.60 0.0 0 1 571.13 510.57
  Q 571.29 512.74 569.79 514.70
  A 1.42 1.39 -79.2 0 1 569.07 515.20
  C 564.69 516.52 563.72 513.24 560.90 512.75
  A 5.67 5.40 46.4 0 0 559.66 512.69
  L 556.39 512.93
  A 0.27 0.27 0.0 0 0 556.26 513.42
  L 562.38 517.62
  A 0.13 0.13 0.0 0 1 562.44 517.68
  L 563.02 518.36
  A 1.84 1.68 -2.6 0 0 563.63 518.87
  Q 570.07 522.08 575.57 518.15
  A 1.26 1.24 -17.9 0 0 576.09 517.16
  C 576.22 510.93 576.03 504.47 571.18 500.31
  C 567.00 496.71 562.54 494.80 557.59 498.33
  Q 554.79 500.34 555.77 503.68
  A 1.44 1.44 0.0 0 0 558.55 503.64
  Q 559.27 500.83 562.26 499.53
  A 0.30 0.30 0.0 0 1 562.56 500.05
  Q 559.55 502.28 559.13 505.95
  Z
  M 486.60 498.30
  A 0.09 0.09 0.0 0 0 486.44 498.22
  L 482.16 503.89
  A 0.46 0.41 -29.2 0 0 482.07 504.15
  Q 482.10 505.10 484.01 505.04
  A 0.65 0.64 -79.1 0 1 484.61 505.94
  L 483.15 509.32
  A 0.55 0.54 30.5 0 0 483.32 509.97
  L 483.65 510.22
  A 0.44 0.44 0.0 0 0 484.33 510.02
  Q 485.69 506.41 485.87 505.92
  Q 486.40 504.39 484.65 503.36
  A 0.27 0.27 0.0 0 1 484.54 503.00
  Q 486.34 499.27 486.60 498.30
  Z
  M 468.22 519.14
  L 465.73 520.84
  A 2.98 2.98 0.0 0 1 461.88 520.43
  Q 460.42 518.89 459.87 518.73
  A 0.34 0.34 0.0 0 1 459.74 518.15
  Q 460.10 517.82 460.32 517.68
  A 0.75 0.75 0.0 0 1 461.29 517.85
  L 462.59 519.48
  A 1.16 1.15 -18.1 0 0 463.45 519.91
  Q 465.80 520.01 467.30 517.98
  A 1.36 1.34 -30.6 0 0 467.56 517.00
  Q 466.93 511.84 461.70 510.92
  A 0.49 0.48 8.7 0 1 461.30 510.38
  L 461.30 510.34
  A 0.52 0.51 7.5 0 1 461.89 509.89
  C 464.66 510.32 467.70 512.04 468.55 514.85
  Q 468.79 515.62 469.10 515.96
  A 0.42 0.42 0.0 0 0 469.81 515.52
  Q 468.46 512.05 470.06 509.81
  A 0.75 0.75 0.0 0 0 469.90 508.77
  L 465.66 505.57
  A 0.30 0.29 66.9 0 1 465.87 505.04
  Q 469.27 505.52 471.14 508.10
  A 0.33 0.33 0.0 0 0 471.65 508.13
  Q 472.46 507.22 473.53 506.73
  A 0.38 0.37 -29.6 0 0 473.69 506.17
  C 471.19 502.62 467.17 502.11 463.65 504.60
  C 459.88 507.28 455.10 512.21 456.47 516.97
  Q 458.21 523.06 462.89 527.48
  A 2.96 2.95 64.1 0 0 465.19 528.28
  Q 471.39 527.72 474.79 523.27
  A 0.82 0.80 -43.7 0 0 474.82 522.32
  L 474.66 522.09
  A 0.85 0.83 46.2 0 1 474.67 521.13
  C 477.24 517.56 478.45 514.45 477.77 509.86
  A 1.26 1.23 -76.5 0 0 477.29 509.06
  C 472.53 505.56 467.87 515.04 473.07 515.65
  A 1.13 1.08 -57.9 0 0 473.83 515.46
  L 476.40 513.71
  A 0.31 0.31 0.0 0 1 476.82 514.15
  Q 474.59 517.11 471.19 517.02
  A 1.15 1.15 0.0 0 0 470.01 518.15
  Q 469.97 520.80 468.59 523.01
  A 0.50 0.50 0.0 0 1 467.71 522.55
  L 468.93 519.73
  A 0.48 0.48 0.0 0 0 468.22 519.14
  Z
  M 558.50 511.63
  A 0.52 0.52 0.0 0 0 558.93 510.96
  L 557.72 506.82
  A 1.15 1.14 -3.3 0 0 556.81 506.01
  L 554.41 505.59
  A 0.87 0.87 0.0 0 0 553.62 505.86
  Q 552.55 507.03 552.77 508.62
  A 2.19 2.08 24.5 0 0 553.17 509.61
  Q 554.98 512.08 558.50 511.63
  Z
  M 551.20 505.85
  L 547.54 509.52
  A 0.61 0.61 0.0 0 0 547.94 510.56
  Q 549.45 510.63 550.51 509.89
  A 0.92 0.90 -19.7 0 0 550.91 509.07
  Q 550.81 507.71 551.37 505.95
  A 0.10 0.10 0.0 0 0 551.20 505.85
  Z
  M 496.93 524.16
  L 494.94 523.08
  A 1.16 1.15 88.8 0 0 493.40 524.69
  Q 494.78 527.00 497.53 528.53
  Q 497.22 529.35 496.68 529.79
  Q 496.60 529.66 496.47 529.57
  A 0.34 0.33 -68.1 0 0 495.95 529.80
  Q 495.66 531.55 496.15 533.09
  A 1.71 1.70 -81.0 0 0 496.75 533.92
  L 503.60 539.00
  Q 507.69 543.38 510.69 544.83
  Q 514.39 546.61 517.07 544.98
  Q 523.26 541.22 529.80 537.26
  A 4.40 4.39 7.2 0 0 530.59 536.65
  Q 532.99 534.29 533.36 533.86
  Q 538.10 528.27 543.35 520.84
  Q 544.77 518.84 549.37 517.90
  A 0.42 0.42 0.0 0 0 549.65 517.28
  L 546.68 512.14
  A 0.95 0.94 -35.4 0 0 545.24 511.90
  L 537.85 518.24
  A 2.09 2.03 -73.9 0 1 537.13 518.65
  Q 531.44 520.58 526.41 522.45
  C 520.11 524.79 514.25 526.01 508.31 527.56
  Q 506.19 528.11 504.26 527.27
  Q 500.67 525.72 496.93 524.16
  Z
  M 559.85 518.42
  A 0.44 0.43 -80.8 0 0 560.33 518.07
  Q 560.41 517.66 560.09 517.44
  Q 557.71 515.82 555.56 514.63
  A 1.66 1.63 0.9 0 1 554.89 513.95
  Q 553.11 510.49 548.65 512.27
  A 0.44 0.44 0.0 0 0 548.50 512.99
  L 549.13 513.61
  A 1.02 1.00 -66.1 0 1 549.42 514.39
  Q 549.33 515.61 550.27 515.97
  Q 555.29 517.91 559.85 518.42
  Z
  M 551.62 518.65
  A 0.28 0.28 0.0 0 0 551.78 518.92
  L 559.86 522.73
  A 0.61 0.60 -67.2 0 0 560.68 522.39
  Q 560.86 521.86 560.87 520.63
  A 0.56 0.55 -84.6 0 0 560.41 520.07
  L 551.92 518.49
  A 0.27 0.26 19.7 0 0 551.65 518.61
  L 551.62 518.65
  Z
  M 562.6582 521.1618
  A 2.22 0.38 -84.1 0 0 562.0520 523.3309
  A 2.22 0.38 -84.1 0 0 562.2018 525.5782
  A 2.22 0.38 -84.1 0 0 562.8080 523.4091
  A 2.22 0.38 -84.1 0 0 562.6582 521.1618
  Z
  M 476.2301 523.9710
  A 0.56 0.56 0.0 0 0 475.4399 523.9171
  L 475.4098 523.9434
  A 0.56 0.56 0.0 0 0 475.3559 524.7336
  L 480.9699 531.1690
  A 0.56 0.56 0.0 0 0 481.7601 531.2229
  L 481.7902 531.1966
  A 0.56 0.56 0.0 0 0 481.8441 530.4064
  L 476.2301 523.9710
  Z
  M 501.16 542.34
  L 507.53 559.84
  A 9.37 9.08 -58.1 0 1 508.05 562.24
  L 508.65 569.75
  A 1.35 1.32 25.0 0 0 508.91 570.44
  C 511.22 573.63 514.94 575.16 518.89 576.32
  Q 525.49 578.84 532.56 577.63
  Q 540.73 576.39 547.80 572.42
  L 553.27 568.00
  A 0.36 0.35 44.5 0 0 553.26 567.44
  L 546.00 561.97
  A 0.54 0.54 0.0 0 1 546.25 561.01
  L 547.30 560.85
  A 0.79 0.78 -26.2 0 1 547.98 561.08
  L 553.36 566.46
  A 0.97 0.97 0.0 0 0 554.65 566.53
  C 557.23 564.49 559.61 561.27 559.69 557.96
  A 1.54 1.50 26.9 0 0 559.36 556.99
  Q 554.44 550.77 552.09 543.87
  A 0.53 0.53 0.0 0 0 551.20 543.68
  C 549.05 546.02 545.22 543.73 543.84 541.74
  Q 539.81 535.94 539.91 529.01
  A 0.23 0.23 0.0 0 0 539.50 528.87
  L 533.83 536.38
  A 1.18 1.04 -2.6 0 1 533.56 536.64
  Q 524.79 542.92 516.17 547.16
  A 1.65 1.60 35.7 0 1 515.24 547.30
  Q 511.00 546.65 508.83 545.18
  Q 505.83 543.15 501.14 540.16
  A 0.39 0.39 0.0 0 0 500.54 540.41
  Q 500.32 541.52 501.16 542.34
  Z
  M 571.67 571.86
  Q 575.17 568.21 576.75 563.95
  A 1.11 1.08 51.5 0 0 576.81 563.37
  Q 576.69 562.58 575.84 562.25
  A 0.56 0.56 0.0 0 1 575.51 561.55
  C 576.31 559.18 575.90 555.05 574.15 552.49
  Q 571.09 547.98 570.54 547.27
  A 0.38 0.38 0.0 0 0 569.89 547.67
  Q 571.92 552.07 571.83 556.61
  A 0.56 0.55 74.0 0 0 572.69 557.09
  L 572.81 557.02
  A 0.85 0.84 -5.0 0 1 574.03 558.04
  L 571.73 564.26
  A 0.43 0.43 0.0 0 0 572.35 564.78
  L 572.85 564.49
  A 0.30 0.30 0.0 0 1 573.24 564.93
  L 570.07 569.13
  A 0.33 0.33 0.0 0 0 570.05 569.48
  L 571.40 571.82
  A 0.17 0.17 0.0 0 0 571.67 571.86
  Z
  M 509.19 601.14
  A 0.28 0.28 0.0 0 0 509.67 600.85
  L 507.83 596.70
  A 3.10 3.03 -59.8 0 1 507.57 595.67
  Q 507.02 588.41 509.61 581.82
  C 510.36 579.94 510.93 577.67 511.19 576.09
  A 1.00 0.99 16.5 0 0 510.60 575.01
  L 510.55 574.99
  A 0.71 0.71 0.0 0 0 509.58 575.45
  Q 509.18 576.92 508.45 579.26
  Q 508.20 580.07 506.40 590.30
  Q 505.35 596.28 509.19 601.14
  Z
  M 587.70 626.17
  Q 589.09 628.99 591.95 631.66
  A 1.37 1.35 68.1 0 0 592.80 632.03
  C 594.30 632.15 596.02 632.49 597.01 631.02
  Q 598.03 629.51 598.36 627.84
  A 0.77 0.77 0.0 0 0 597.97 627.01
  Q 595.15 625.47 592.79 621.91
  A 0.07 0.06 -41.4 0 1 592.80 621.83
  L 593.17 621.46
  A 0.10 0.10 0.0 0 1 593.31 621.46
  L 597.80 625.95
  A 0.69 0.69 0.0 0 0 598.94 625.68
  C 600.51 620.96 597.35 616.75 594.61 612.72
  C 593.14 610.57 592.62 609.23 589.99 609.71
  Q 582.77 611.02 578.87 616.95
  A 1.13 1.12 -36.6 0 0 578.73 617.87
  Q 579.59 621.03 582.66 626.62
  Q 585.06 631.00 589.20 631.50
  A 0.29 0.29 0.0 0 0 589.44 631.00
  Q 587.56 629.18 586.90 626.48
  A 0.44 0.43 68.3 0 1 587.10 626.00
  L 587.12 625.99
  A 0.42 0.41 61.7 0 1 587.70 626.17
  Z
  M 535.20 631.20
  Q 536.16 633.15 537.47 632.26
  Q 540.45 630.23 539.98 625.24
  Q 539.70 622.20 539.46 619.04
  A 1.07 1.07 0.0 0 0 539.01 618.25
  Q 537.31 617.05 534.92 617.08
  Q 530.49 616.38 526.00 617.39
  A 0.90 0.89 -87.0 0 0 525.35 617.98
  C 523.88 622.27 522.53 628.88 526.94 632.13
  A 0.26 0.26 0.0 0 0 527.34 631.85
  Q 526.58 629.37 526.79 628.36
  A 0.22 0.22 0.0 0 1 527.21 628.33
  Q 529.04 633.95 531.98 634.98
  C 533.99 635.68 534.36 635.16 535.72 633.81
  A 0.54 0.54 0.0 0 0 535.66 633.00
  Q 533.04 631.09 531.55 626.91
  A 0.16 0.16 0.0 0 1 531.60 626.73
  L 531.92 626.45
  A 0.27 0.27 0.0 0 1 532.33 626.52
  L 535.20 631.20
  Z"
/>
<path fill="#b27e81" d="
  M 570.01 420.74
  A 0.63 0.63 0.0 0 1 571.03 421.37
  Q 567.48 435.78 560.28 450.80
  A 6.81 6.69 84.1 0 1 558.42 453.13
  L 536.56 470.59
  A 0.41 0.41 0.0 0 1 535.91 470.16
  Q 539.66 456.03 546.89 442.88
  C 547.97 440.92 549.81 438.36 551.71 436.67
  Q 558.26 430.86 570.01 420.74
  Z
  M 545.63 457.53
  Q 546.25 456.36 546.13 455.74
  A 0.49 0.49 0.0 0 1 546.36 455.22
  L 548.03 454.26
  A 0.56 0.56 0.0 0 1 548.75 455.08
  L 543.22 462.41
  A 0.44 0.43 41.8 0 0 543.26 462.97
  L 543.48 463.18
  A 0.29 0.29 0.0 0 0 543.92 463.14
  C 545.77 460.49 548.38 458.74 550.87 456.42
  Q 552.99 454.44 556.81 451.17
  A 0.35 0.35 0.0 0 0 556.53 450.56
  L 553.93 450.94
  A 0.64 0.63 -75.8 0 1 553.33 449.93
  L 560.54 440.38
  A 0.38 0.37 13.9 0 0 560.18 439.79
  L 557.27 440.22
  A 0.55 0.54 -75.5 0 1 556.76 439.35
  L 563.04 431.02
  A 0.29 0.29 0.0 0 0 562.99 430.61
  L 562.69 430.39
  A 0.03 0.03 0.0 0 0 562.65 430.39
  L 549.62 443.34
  A 0.47 0.46 11.8 0 0 550.12 444.10
  Q 552.49 443.17 553.00 443.77
  Q 553.33 444.16 552.83 444.80
  Q 549.93 448.49 545.99 453.44
  A 2.34 2.31 62.2 0 0 545.50 455.06
  Q 545.58 456.05 544.99 457.07
  A 0.28 0.28 0.0 0 0 545.06 457.43
  L 545.30 457.60
  A 0.22 0.22 0.0 0 0 545.63 457.53
  Z"
/>
<path fill="#fdfdfc" d="
  M 545.63 457.53
  A 0.22 0.22 0.0 0 1 545.30 457.60
  L 545.06 457.43
  A 0.28 0.28 0.0 0 1 544.99 457.07
  Q 545.58 456.05 545.50 455.06
  A 2.34 2.31 62.2 0 1 545.99 453.44
  Q 549.93 448.49 552.83 444.80
  Q 553.33 444.16 553.00 443.77
  Q 552.49 443.17 550.12 444.10
  A 0.47 0.46 11.8 0 1 549.62 443.34
  L 562.65 430.39
  A 0.03 0.03 0.0 0 1 562.69 430.39
  L 562.99 430.61
  A 0.29 0.29 0.0 0 1 563.04 431.02
  L 556.76 439.35
  A 0.55 0.54 -75.5 0 0 557.27 440.22
  L 560.18 439.79
  A 0.38 0.37 13.9 0 1 560.54 440.38
  L 553.33 449.93
  A 0.64 0.63 -75.8 0 0 553.93 450.94
  L 556.53 450.56
  A 0.35 0.35 0.0 0 1 556.81 451.17
  Q 552.99 454.44 550.87 456.42
  C 548.38 458.74 545.77 460.49 543.92 463.14
  A 0.29 0.29 0.0 0 1 543.48 463.18
  L 543.26 462.97
  A 0.44 0.43 41.8 0 1 543.22 462.41
  L 548.75 455.08
  A 0.56 0.56 0.0 0 0 548.03 454.26
  L 546.36 455.22
  A 0.49 0.49 0.0 0 0 546.13 455.74
  Q 546.25 456.36 545.63 457.53
  Z"
/>
<path fill="#0c9bee" d="
  M 608.67 468.44
  C 604.67 469.14 602.40 471.23 599.04 473.62
  A 5.19 4.96 14.3 0 1 598.19 474.10
  Q 591.66 476.87 590.60 477.55
  Q 589.46 478.27 585.50 481.34
  A 0.23 0.23 0.0 0 0 585.65 481.75
  Q 593.19 481.45 600.06 479.08
  Q 602.86 478.11 609.96 477.53
  L 612.88 479.03
  A 0.60 0.59 51.8 0 1 612.75 480.14
  L 592.35 484.93
  L 575.56 488.81
  L 585.42 475.25
  A 5.12 5.12 0.0 0 1 587.70 473.48
  L 608.82 465.07
  A 0.68 0.68 0.0 0 1 609.70 465.97
  L 608.67 468.44
  Z"
/>
<path fill="#116eb4" d="
  M 608.67 468.44
  L 607.28 474.38
  A 1.14 1.12 35.4 0 0 607.44 475.26
  Q 608.22 476.45 609.96 477.53
  Q 602.86 478.11 600.06 479.08
  Q 593.19 481.45 585.65 481.75
  A 0.23 0.23 0.0 0 1 585.50 481.34
  Q 589.46 478.27 590.60 477.55
  Q 591.66 476.87 598.19 474.10
  A 5.19 4.96 14.3 0 0 599.04 473.62
  C 602.40 471.23 604.67 469.14 608.67 468.44
  Z"
/>
<path fill="#fdfdfc" d="
  M 530.68 480.21
  Q 521.84 481.64 515.31 486.05
  C 512.47 487.97 511.69 490.05 511.09 493.27
  Q 510.42 496.88 510.66 499.53
  Q 510.47 500.34 511.00 500.51
  Q 515.33 501.94 518.70 504.58
  C 519.91 505.52 520.25 507.26 520.84 508.91
  Q 523.98 517.81 516.58 523.26
  Q 515.26 524.23 507.53 526.31
  A 1.99 1.95 45.5 0 1 506.43 526.29
  Q 499.79 524.19 496.13 520.77
  A 7.18 6.71 80.6 0 0 495.01 519.91
  Q 488.04 515.54 489.04 506.91
  A 2.36 2.35 68.5 0 1 489.59 505.64
  L 494.12 500.40
  A 2.62 2.58 69.0 0 0 494.74 498.98
  C 495.08 495.76 494.78 490.23 492.56 487.64
  Q 491.62 483.88 488.22 484.35
  Q 487.75 482.19 489.56 481.01
  A 0.72 0.71 -43.2 0 1 490.36 481.03
  C 493.08 482.98 493.19 484.47 494.59 488.19
  A 2.24 1.93 -62.6 0 1 494.70 488.65
  L 495.75 498.67
  A 0.49 0.49 0.0 0 0 496.45 499.06
  Q 501.22 496.78 507.42 498.99
  A 0.45 0.45 0.0 0 0 508.02 498.66
  C 509.08 493.93 509.69 488.71 512.06 486.34
  Q 516.10 482.29 522.32 478.39
  A 1.97 1.90 27.6 0 1 523.31 478.10
  Q 527.38 478.08 530.68 480.21
  Z
  M 514.40 508.06
  Q 513.71 508.40 513.03 509.22
  C 510.27 512.52 504.18 514.39 500.22 512.01
  A 2.36 2.18 48.6 0 1 500.32 507.93
  Q 502.09 507.26 503.93 504.85
  A 0.93 0.92 32.9 0 0 503.63 503.47
  Q 499.34 501.14 493.89 502.98
  A 1.18 1.18 0.0 0 0 493.36 504.85
  Q 495.20 507.08 496.88 507.99
  A 3.11 2.87 -62.4 0 1 497.96 512.02
  Q 497.07 513.80 493.84 512.56
  A 0.28 0.28 0.0 0 0 493.54 513.01
  Q 494.66 514.19 496.49 514.15
  A 1.08 1.08 0.0 0 1 497.39 514.58
  Q 499.45 517.32 500.48 518.90
  C 502.85 522.54 504.60 523.72 508.57 522.12
  A 2.51 2.47 9.4 0 0 509.51 521.46
  C 513.38 517.07 512.80 512.88 514.67 508.32
  A 0.20 0.20 0.0 0 0 514.40 508.06
  Z"
/>
<path fill="#b27e81" d="
  M 530.68 480.21
  L 528.12 483.93
  A 1.12 1.11 -70.5 0 1 527.14 484.40
  Q 521.48 484.03 515.85 487.94
  Q 513.63 489.49 513.04 491.46
  Q 511.86 495.38 510.66 499.53
  Q 510.42 496.88 511.09 493.27
  C 511.69 490.05 512.47 487.97 515.31 486.05
  Q 521.84 481.64 530.68 480.21
  Z"
/>
<path fill="#b27e81" d="
  M 492.56 487.64
  Q 490.24 486.45 488.38 485.12
  Q 488.21 485.00 488.22 484.35
  Q 491.62 483.88 492.56 487.64
  Z"
/>
<path fill="#116eb4" d="
  M 592.35 484.93
  Q 586.35 489.08 584.02 492.02
  Q 580.23 496.82 575.35 500.98
  A 0.63 0.62 46.8 0 1 574.51 500.95
  L 570.01 496.44
  A 0.44 0.43 -49.2 0 1 569.97 495.86
  L 575.56 488.81
  L 592.35 484.93
  Z"
/>
<path fill="#fdfdfc" d="
  M 521.67 486.24
  L 525.64 486.24
  A 1.14 1.13 78.8 0 1 526.69 486.95
  L 529.33 493.58
  A 1.07 1.06 -30.9 0 1 529.03 494.77
  L 526.34 497.08
  A 0.40 0.40 0.0 0 1 525.68 496.73
  Q 526.77 488.70 521.57 486.81
  A 0.29 0.29 0.0 0 1 521.67 486.24
  Z"
/>
<path fill="#b27e81" d="
  M 517.96 495.26
  Q 516.85 494.64 516.08 495.30
  Q 514.36 496.77 513.08 498.70
  Q 512.74 497.50 512.83 496.98
  Q 513.04 495.84 514.45 491.27
  A 4.05 4.00 83.9 0 1 516.26 489.00
  L 518.01 488.00
  A 0.57 0.57 0.0 0 1 518.81 488.74
  Q 517.50 491.44 517.96 495.26
  Z"
/>
<path fill="#fdfdfc" d="
  M 490.88 498.19
  C 487.95 496.22 488.96 491.88 489.59 488.60
  A 0.59 0.58 -78.6 0 1 490.29 488.13
  Q 490.86 488.26 491.33 488.79
  A 0.77 0.76 -40.1 0 1 491.23 489.88
  L 490.73 490.29
  A 1.14 1.12 -13.1 0 0 490.37 490.86
  Q 489.38 494.63 491.19 497.91
  A 0.22 0.21 2.7 0 1 490.88 498.19
  Z"
/>
<ellipse fill="#fdfdfc" cx="0.00" cy="0.00" transform="translate(521.03,490.71) rotate(-103.3)" rx="1.70" ry="1.37"/>
<path fill="#0c9bee" d="
  M 635.78 493.23
  L 614.95 498.76
  A 0.56 0.55 39.5 0 0 615.06 499.85
  L 630.78 500.97
  L 633.20 504.79
  L 613.45 504.71
  L 597.83 513.32
  Q 598.09 512.46 597.66 512.03
  A 0.42 0.42 0.0 0 0 597.22 511.93
  Q 588.10 515.16 578.22 514.98
  Q 577.92 514.20 578.22 513.15
  A 0.65 0.64 9.8 0 1 578.89 512.68
  Q 581.71 512.93 583.62 511.59
  C 588.38 508.22 592.37 505.76 596.49 502.76
  Q 604.06 497.27 610.35 493.60
  A 0.86 0.70 -58.8 0 1 610.66 493.49
  L 638.38 489.41
  A 0.44 0.44 0.0 0 1 638.81 490.10
  Q 637.18 492.48 635.78 493.23
  Z"
/>
<ellipse fill="#fdfdfc" cx="0.00" cy="0.00" transform="translate(492.56,492.46) rotate(-87.6)" rx="0.89" ry="0.47"/>
<path fill="#116eb4" d="
  M 635.78 493.23
  L 630.78 500.97
  L 615.06 499.85
  A 0.56 0.55 39.5 0 1 614.95 498.76
  L 635.78 493.23
  Z"
/>
<path fill="#fdfdfc" d="
  M 517.96 495.26
  Q 518.20 496.76 519.07 498.07
  A 0.69 0.69 0.0 0 1 518.72 499.11
  Q 516.15 499.97 513.08 498.70
  Q 514.36 496.77 516.08 495.30
  Q 516.85 494.64 517.96 495.26
  Z"
/>
<path fill="#fdfdfc" d="
  M 562.84 507.73
  Q 561.16 506.47 559.13 505.95
  Q 559.55 502.28 562.56 500.05
  A 0.30 0.30 0.0 0 0 562.26 499.53
  Q 559.27 500.83 558.55 503.64
  A 1.44 1.44 0.0 0 1 555.77 503.68
  Q 554.79 500.34 557.59 498.33
  C 562.54 494.80 567.00 496.71 571.18 500.31
  C 576.03 504.47 576.22 510.93 576.09 517.16
  A 1.26 1.24 -17.9 0 1 575.57 518.15
  Q 570.07 522.08 563.63 518.87
  A 1.84 1.68 -2.6 0 1 563.02 518.36
  L 562.44 517.68
  A 0.13 0.13 0.0 0 0 562.38 517.62
  L 556.26 513.42
  A 0.27 0.27 0.0 0 1 556.39 512.93
  L 559.66 512.69
  A 5.67 5.40 46.4 0 1 560.90 512.75
  C 563.72 513.24 564.69 516.52 569.07 515.20
  A 1.42 1.39 -79.2 0 0 569.79 514.70
  Q 571.29 512.74 571.13 510.57
  A 0.60 0.60 0.0 0 0 570.45 510.02
  L 570.12 510.07
  A 0.43 0.43 0.0 0 0 569.78 510.65
  C 571.39 514.92 564.69 516.16 563.97 512.27
  Q 562.99 506.93 567.41 503.73
  A 0.38 0.37 52.1 0 0 567.47 503.19
  L 567.31 503.00
  A 0.10 0.10 0.0 0 0 567.19 502.97
  Q 564.05 504.51 562.84 507.73
  Z"
/>
<path fill="#b27e81" d="
  M 486.60 498.30
  Q 486.34 499.27 484.54 503.00
  A 0.27 0.27 0.0 0 0 484.65 503.36
  Q 486.40 504.39 485.87 505.92
  Q 485.69 506.41 484.33 510.02
  A 0.44 0.44 0.0 0 1 483.65 510.22
  L 483.32 509.97
  A 0.55 0.54 30.5 0 1 483.15 509.32
  L 484.61 505.94
  A 0.65 0.64 -79.1 0 0 484.01 505.04
  Q 482.10 505.10 482.07 504.15
  A 0.46 0.41 -29.2 0 1 482.16 503.89
  L 486.44 498.22
  A 0.09 0.09 0.0 0 1 486.60 498.30
  Z"
/>
<path fill="#fdfdfc" d="
  M 553.08 499.05
  L 553.84 499.71
  L 553.60 503.12
  A 1.23 1.21 73.4 0 1 553.14 503.99
  L 551.84 505.03
  A 0.37 0.37 0.0 0 1 551.27 504.89
  Q 550.98 504.25 549.82 503.83
  A 0.42 0.42 0.0 0 1 549.71 503.09
  Q 551.35 501.89 552.55 501.70
  A 0.39 0.39 0.0 0 0 552.79 501.07
  Q 552.42 500.61 551.70 500.16
  A 0.48 0.48 0.0 0 1 551.68 499.35
  Q 552.18 499.01 553.08 499.05
  Z"
/>
<path fill="#383e44" d="
  M 514.40 508.06
  A 0.20 0.20 0.0 0 1 514.67 508.32
  C 512.80 512.88 513.38 517.07 509.51 521.46
  A 2.51 2.47 9.4 0 1 508.57 522.12
  C 504.60 523.72 502.85 522.54 500.48 518.90
  Q 499.45 517.32 497.39 514.58
  A 1.08 1.08 0.0 0 0 496.49 514.15
  Q 494.66 514.19 493.54 513.01
  A 0.28 0.28 0.0 0 1 493.84 512.56
  Q 497.07 513.80 497.96 512.02
  A 3.11 2.87 -62.4 0 0 496.88 507.99
  Q 495.20 507.08 493.36 504.85
  A 1.18 1.18 0.0 0 1 493.89 502.98
  Q 499.34 501.14 503.63 503.47
  A 0.93 0.92 32.9 0 1 503.93 504.85
  Q 502.09 507.26 500.32 507.93
  A 2.36 2.18 48.6 0 0 500.22 512.01
  C 504.18 514.39 510.27 512.52 513.03 509.22
  Q 513.71 508.40 514.40 508.06
  Z
  M 498.48 507.81
  Q 498.72 507.81 498.77 507.79
  Q 501.03 506.60 502.88 504.76
  A 0.59 0.58 -56.6 0 0 502.69 503.80
  Q 501.08 503.16 498.56 503.12
  Q 496.04 503.08 494.41 503.67
  A 0.59 0.58 58.5 0 0 494.19 504.61
  Q 495.98 506.52 498.20 507.78
  Q 498.25 507.80 498.48 507.81
  Z
  M 502.74 514.35
  Q 500.74 512.93 498.70 512.93
  A 0.55 0.55 0.0 0 0 498.28 513.84
  L 499.94 515.78
  A 0.48 0.47 53.5 0 0 500.55 515.88
  L 502.73 514.63
  A 0.17 0.16 47.3 0 0 502.74 514.35
  Z
  M 511.54 515.90
  A 0.56 0.56 0.0 0 0 510.92 515.19
  C 506.92 515.81 504.69 515.80 503.64 520.39
  A 0.72 0.72 0.0 0 0 504.00 521.19
  C 507.51 523.06 510.69 518.69 511.54 515.90
  Z"
/>
<path fill="#fdfdfc" d="
  M 468.22 519.14
  A 0.48 0.48 0.0 0 1 468.93 519.73
  L 467.71 522.55
  A 0.50 0.50 0.0 0 0 468.59 523.01
  Q 469.97 520.80 470.01 518.15
  A 1.15 1.15 0.0 0 1 471.19 517.02
  Q 474.59 517.11 476.82 514.15
  A 0.31 0.31 0.0 0 0 476.40 513.71
  L 473.83 515.46
  A 1.13 1.08 -57.9 0 1 473.07 515.65
  C 467.87 515.04 472.53 505.56 477.29 509.06
  A 1.26 1.23 -76.5 0 1 477.77 509.86
  C 478.45 514.45 477.24 517.56 474.67 521.13
  A 0.85 0.83 46.2 0 0 474.66 522.09
  L 474.82 522.32
  A 0.82 0.80 -43.7 0 1 474.79 523.27
  Q 471.39 527.72 465.19 528.28
  A 2.96 2.95 64.1 0 1 462.89 527.48
  Q 458.21 523.06 456.47 516.97
  C 455.10 512.21 459.88 507.28 463.65 504.60
  C 467.17 502.11 471.19 502.62 473.69 506.17
  A 0.38 0.37 -29.6 0 1 473.53 506.73
  Q 472.46 507.22 471.65 508.13
  A 0.33 0.33 0.0 0 1 471.14 508.10
  Q 469.27 505.52 465.87 505.04
  A 0.30 0.29 66.9 0 0 465.66 505.57
  L 469.90 508.77
  A 0.75 0.75 0.0 0 1 470.06 509.81
  Q 468.46 512.05 469.81 515.52
  A 0.42 0.42 0.0 0 1 469.10 515.96
  Q 468.79 515.62 468.55 514.85
  C 467.70 512.04 464.66 510.32 461.89 509.89
  A 0.52 0.51 7.5 0 0 461.30 510.34
  L 461.30 510.38
  A 0.49 0.48 8.7 0 0 461.70 510.92
  Q 466.93 511.84 467.56 517.00
  A 1.36 1.34 -30.6 0 1 467.30 517.98
  Q 465.80 520.01 463.45 519.91
  A 1.16 1.15 -18.1 0 1 462.59 519.48
  L 461.29 517.85
  A 0.75 0.75 0.0 0 0 460.32 517.68
  Q 460.10 517.82 459.74 518.15
  A 0.34 0.34 0.0 0 0 459.87 518.73
  Q 460.42 518.89 461.88 520.43
  A 2.98 2.98 0.0 0 0 465.73 520.84
  L 468.22 519.14
  Z"
/>
<path fill="#b27e81" d="
  M 498.56 503.12
  Q 501.08 503.16 502.69 503.80
  A 0.59 0.58 -56.6 0 1 502.88 504.76
  Q 501.03 506.60 498.77 507.79
  Q 498.72 507.81 498.48 507.81
  Q 498.25 507.80 498.20 507.78
  Q 495.98 506.52 494.19 504.61
  A 0.59 0.58 58.5 0 1 494.41 503.67
  Q 496.04 503.08 498.56 503.12
  Z"
/>
<path fill="#116eb4" d="
  M 633.20 504.79
  L 635.74 509.57
  A 0.35 0.35 0.0 0 1 635.34 510.07
  C 634.50 509.85 633.93 509.23 632.82 509.05
  Q 623.32 507.55 613.45 504.71
  L 633.20 504.79
  Z"
/>
<path fill="#fdfdfc" d="
  M 558.50 511.63
  Q 554.98 512.08 553.17 509.61
  A 2.19 2.08 24.5 0 1 552.77 508.62
  Q 552.55 507.03 553.62 505.86
  A 0.87 0.87 0.0 0 1 554.41 505.59
  L 556.81 506.01
  A 1.15 1.14 -3.3 0 1 557.72 506.82
  L 558.93 510.96
  A 0.52 0.52 0.0 0 1 558.50 511.63
  Z"
/>
<path fill="#fdfdfc" d="
  M 551.20 505.85
  A 0.10 0.10 0.0 0 1 551.37 505.95
  Q 550.81 507.71 550.91 509.07
  A 0.92 0.90 -19.7 0 1 550.51 509.89
  Q 549.45 510.63 547.94 510.56
  A 0.61 0.61 0.0 0 1 547.54 509.52
  L 551.20 505.85
  Z"
/>
<path fill="#b27e81" d="
  M 562.84 507.73
  L 562.25 511.02
  A 0.58 0.58 0.0 0 1 561.19 511.22
  Q 559.45 508.34 559.13 505.95
  Q 561.16 506.47 562.84 507.73
  Z"
/>
<path fill="#116eb4" d="
  M 503.60 539.00
  Q 509.70 543.04 513.95 542.33
  Q 515.81 542.01 523.49 538.74
  A 3.76 3.49 -73.7 0 0 524.26 538.28
  L 528.57 534.91
  A 2.26 1.99 -85.5 0 0 528.90 534.59
  L 533.89 528.80
  A 0.65 0.65 0.0 0 0 533.78 527.84
  L 533.75 527.82
  A 0.99 0.98 -50.1 0 0 532.55 527.93
  Q 527.97 532.19 521.47 533.88
  A 0.38 0.38 0.0 0 1 521.13 533.23
  L 530.76 524.96
  A 0.89 0.89 0.0 0 0 530.40 523.42
  Q 529.76 523.26 528.89 523.62
  Q 521.06 526.87 516.55 527.66
  Q 514.68 527.99 511.48 529.17
  Q 509.57 529.88 506.24 530.13
  A 1.82 1.75 -33.1 0 1 505.30 529.95
  Q 503.36 528.98 498.35 526.69
  Q 496.80 525.98 496.93 524.16
  Q 500.67 525.72 504.26 527.27
  Q 506.19 528.11 508.31 527.56
  C 514.25 526.01 520.11 524.79 526.41 522.45
  Q 531.44 520.58 537.13 518.65
  A 2.09 2.03 -73.9 0 0 537.85 518.24
  L 545.24 511.90
  A 0.95 0.94 -35.4 0 1 546.68 512.14
  L 549.65 517.28
  A 0.42 0.42 0.0 0 1 549.37 517.90
  Q 544.77 518.84 543.35 520.84
  Q 538.10 528.27 533.36 533.86
  Q 532.99 534.29 530.59 536.65
  A 4.40 4.39 7.2 0 1 529.80 537.26
  Q 523.26 541.22 517.07 544.98
  Q 514.39 546.61 510.69 544.83
  Q 507.69 543.38 503.60 539.00
  Z"
/>
<path fill="#116eb4" d="
  M 559.85 518.42
  Q 555.29 517.91 550.27 515.97
  Q 549.33 515.61 549.42 514.39
  A 1.02 1.00 -66.1 0 0 549.13 513.61
  L 548.50 512.99
  A 0.44 0.44 0.0 0 1 548.65 512.27
  Q 553.11 510.49 554.89 513.95
  A 1.66 1.63 0.9 0 0 555.56 514.63
  Q 557.71 515.82 560.09 517.44
  Q 560.41 517.66 560.33 518.07
  A 0.44 0.43 -80.8 0 1 559.85 518.42
  Z"
/>
<path fill="#116eb4" d="
  M 597.83 513.32
  Q 590.74 517.97 582.88 521.54
  Q 581.05 522.37 578.96 521.85
  A 0.70 0.69 6.3 0 1 578.44 521.21
  L 578.22 514.98
  Q 588.10 515.16 597.22 511.93
  A 0.42 0.42 0.0 0 1 597.66 512.03
  Q 598.09 512.46 597.83 513.32
  Z"
/>
<path fill="#b27e81" d="
  M 502.74 514.35
  A 0.17 0.16 47.3 0 1 502.73 514.63
  L 500.55 515.88
  A 0.48 0.47 53.5 0 1 499.94 515.78
  L 498.28 513.84
  A 0.55 0.55 0.0 0 1 498.70 512.93
  Q 500.74 512.93 502.74 514.35
  Z"
/>
<path fill="#b27e81" d="
  M 511.54 515.90
  C 510.69 518.69 507.51 523.06 504.00 521.19
  A 0.72 0.72 0.0 0 1 503.64 520.39
  C 504.69 515.80 506.92 515.81 510.92 515.19
  A 0.56 0.56 0.0 0 1 511.54 515.90
  Z"
/>
<path fill="#fdfdfc" d="
  M 551.92 518.49
  L 560.41 520.07
  A 0.56 0.55 -84.6 0 1 560.87 520.63
  Q 560.86 521.86 560.68 522.39
  A 0.61 0.60 -67.2 0 1 559.86 522.73
  L 551.78 518.92
  A 0.28 0.28 0.0 0 1 551.62 518.65
  L 551.65 518.61
  A 0.27 0.26 19.7 0 1 551.92 518.49
  Z"
/>
<ellipse fill="#b27e81" cx="0.00" cy="0.00" transform="translate(562.43,523.37) rotate(-84.1)" rx="2.22" ry="0.38"/>
<path fill="#0c9bee" d="
  M 496.93 524.16
  Q 496.80 525.98 498.35 526.69
  Q 503.36 528.98 505.30 529.95
  A 1.82 1.75 -33.1 0 0 506.24 530.13
  Q 509.57 529.88 511.48 529.17
  Q 514.68 527.99 516.55 527.66
  Q 521.06 526.87 528.89 523.62
  Q 529.76 523.26 530.40 523.42
  A 0.89 0.89 0.0 0 1 530.76 524.96
  L 521.13 533.23
  A 0.38 0.38 0.0 0 0 521.47 533.88
  Q 527.97 532.19 532.55 527.93
  A 0.99 0.98 -50.1 0 1 533.75 527.82
  L 533.78 527.84
  A 0.65 0.65 0.0 0 1 533.89 528.80
  L 528.90 534.59
  A 2.26 1.99 -85.5 0 1 528.57 534.91
  L 524.26 538.28
  A 3.76 3.49 -73.7 0 1 523.49 538.74
  Q 515.81 542.01 513.95 542.33
  Q 509.70 543.04 503.60 539.00
  L 496.75 533.92
  A 1.71 1.70 -81.0 0 1 496.15 533.09
  Q 495.66 531.55 495.95 529.80
  A 0.34 0.33 -68.1 0 1 496.47 529.57
  Q 496.60 529.66 496.68 529.79
  Q 500.91 532.89 505.37 535.64
  Q 508.17 537.36 510.87 536.82
  Q 514.32 536.12 517.39 535.72
  A 0.23 0.23 0.0 0 0 517.40 535.27
  L 506.22 533.33
  A 2.76 2.71 64.0 0 1 505.35 533.02
  L 497.53 528.53
  Q 494.78 527.00 493.40 524.69
  A 1.16 1.15 88.8 0 1 494.94 523.08
  L 496.93 524.16
  Z"
/>
<rect fill="#b27e81" x="-0.58" y="-4.83" transform="translate(478.60,527.57) rotate(-41.1)" width="1.16" height="9.66" rx="0.56"/>
<path fill="#116eb4" d="
  M 496.68 529.79
  Q 497.22 529.35 497.53 528.53
  L 505.35 533.02
  A 2.76 2.71 64.0 0 0 506.22 533.33
  L 517.40 535.27
  A 0.23 0.23 0.0 0 1 517.39 535.72
  Q 514.32 536.12 510.87 536.82
  Q 508.17 537.36 505.37 535.64
  Q 500.91 532.89 496.68 529.79
  Z"
/>
<path fill="#116eb4" d="
  M 547.80 572.42
  Q 547.82 567.31 545.93 562.81
  A 1.67 1.67 0.0 0 0 545.52 562.22
  L 541.06 558.11
  A 1.26 1.24 -68.9 0 1 540.66 557.19
  L 540.66 556.76
  A 0.43 0.43 0.0 0 1 541.35 556.42
  L 544.69 558.95
  A 0.44 0.44 0.0 0 0 545.39 558.52
  C 544.73 554.59 543.43 550.04 540.52 545.78
  Q 538.77 543.22 536.81 539.34
  A 1.43 1.43 0.0 0 0 534.61 538.88
  Q 526.32 545.83 517.61 548.65
  A 0.85 0.84 70.0 0 0 517.09 549.77
  L 520.54 558.45
  A 1.19 1.19 0.0 0 0 521.64 559.19
  L 530.98 559.19
  A 0.27 0.27 0.0 0 1 531.04 559.72
  Q 529.19 560.13 522.85 560.94
  A 1.14 1.14 0.0 0 0 521.90 562.39
  L 525.92 576.10
  A 1.35 1.32 89.4 0 0 526.83 577.01
  Q 529.58 577.79 532.56 577.63
  Q 525.49 578.84 518.89 576.32
  L 524.15 577.09
  A 0.45 0.45 0.0 0 0 524.66 576.58
  C 524.52 575.74 523.69 574.90 523.42 573.65
  Q 522.15 567.82 520.06 561.69
  A 1.27 1.27 0.0 0 0 518.95 560.83
  Q 516.00 560.62 514.54 559.62
  A 0.41 0.41 0.0 0 1 514.77 558.88
  L 518.48 558.88
  A 0.36 0.36 0.0 0 0 518.81 558.39
  L 515.37 549.74
  A 1.06 1.06 0.0 0 0 514.62 549.11
  L 510.47 548.20
  A 1.61 1.60 67.0 0 1 509.93 547.98
  L 501.16 542.34
  Q 500.32 541.52 500.54 540.41
  A 0.39 0.39 0.0 0 1 501.14 540.16
  Q 505.83 543.15 508.83 545.18
  Q 511.00 546.65 515.24 547.30
  A 1.65 1.60 35.7 0 0 516.17 547.16
  Q 524.79 542.92 533.56 536.64
  A 1.18 1.04 -2.6 0 0 533.83 536.38
  L 539.50 528.87
  A 0.23 0.23 0.0 0 1 539.91 529.01
  Q 539.81 535.94 543.84 541.74
  C 545.22 543.73 549.05 546.02 551.20 543.68
  A 0.53 0.53 0.0 0 1 552.09 543.87
  Q 554.44 550.77 559.36 556.99
  A 1.54 1.50 26.9 0 1 559.69 557.96
  C 559.61 561.27 557.23 564.49 554.65 566.53
  A 0.97 0.97 0.0 0 1 553.36 566.46
  L 547.98 561.08
  A 0.79 0.78 -26.2 0 0 547.30 560.85
  L 546.25 561.01
  A 0.54 0.54 0.0 0 0 546.00 561.97
  L 553.26 567.44
  A 0.36 0.35 44.5 0 1 553.27 568.00
  L 547.80 572.42
  Z"
/>
<path fill="#0c9bee" d="
  M 547.80 572.42
  Q 540.73 576.39 532.56 577.63
  Q 529.58 577.79 526.83 577.01
  A 1.35 1.32 89.4 0 1 525.92 576.10
  L 521.90 562.39
  A 1.14 1.14 0.0 0 1 522.85 560.94
  Q 529.19 560.13 531.04 559.72
  A 0.27 0.27 0.0 0 0 530.98 559.19
  L 521.64 559.19
  A 1.19 1.19 0.0 0 1 520.54 558.45
  L 517.09 549.77
  A 0.85 0.84 70.0 0 1 517.61 548.65
  Q 526.32 545.83 534.61 538.88
  A 1.43 1.43 0.0 0 1 536.81 539.34
  Q 538.77 543.22 540.52 545.78
  C 543.43 550.04 544.73 554.59 545.39 558.52
  A 0.44 0.44 0.0 0 1 544.69 558.95
  L 541.35 556.42
  A 0.43 0.43 0.0 0 0 540.66 556.76
  L 540.66 557.19
  A 1.26 1.24 -68.9 0 0 541.06 558.11
  L 545.52 562.22
  A 1.67 1.67 0.0 0 1 545.93 562.81
  Q 547.82 567.31 547.80 572.42
  Z"
/>
<path fill="#0c9bee" d="
  M 518.89 576.32
  C 514.94 575.16 511.22 573.63 508.91 570.44
  A 1.35 1.32 25.0 0 1 508.65 569.75
  L 508.05 562.24
  A 9.37 9.08 -58.1 0 0 507.53 559.84
  L 501.16 542.34
  L 509.93 547.98
  A 1.61 1.60 67.0 0 0 510.47 548.20
  L 514.62 549.11
  A 1.06 1.06 0.0 0 1 515.37 549.74
  L 518.81 558.39
  A 0.36 0.36 0.0 0 1 518.48 558.88
  L 514.77 558.88
  A 0.41 0.41 0.0 0 0 514.54 559.62
  Q 516.00 560.62 518.95 560.83
  A 1.27 1.27 0.0 0 1 520.06 561.69
  Q 522.15 567.82 523.42 573.65
  C 523.69 574.90 524.52 575.74 524.66 576.58
  A 0.45 0.45 0.0 0 1 524.15 577.09
  L 518.89 576.32
  Z"
/>
<path fill="#fdfdfc" d="
  M 571.67 571.86
  A 0.17 0.17 0.0 0 1 571.40 571.82
  L 570.05 569.48
  A 0.33 0.33 0.0 0 1 570.07 569.13
  L 573.24 564.93
  A 0.30 0.30 0.0 0 0 572.85 564.49
  L 572.35 564.78
  A 0.43 0.43 0.0 0 1 571.73 564.26
  L 574.03 558.04
  A 0.85 0.84 -5.0 0 0 572.81 557.02
  L 572.69 557.09
  A 0.56 0.55 74.0 0 1 571.83 556.61
  Q 571.92 552.07 569.89 547.67
  A 0.38 0.38 0.0 0 1 570.54 547.27
  Q 571.09 547.98 574.15 552.49
  C 575.90 555.05 576.31 559.18 575.51 561.55
  A 0.56 0.56 0.0 0 0 575.84 562.25
  Q 576.69 562.58 576.81 563.37
  A 1.11 1.08 51.5 0 1 576.75 563.95
  Q 575.17 568.21 571.67 571.86
  Z"
/>
<path fill="#b27e81" d="
  M 509.19 601.14
  Q 505.35 596.28 506.40 590.30
  Q 508.20 580.07 508.45 579.26
  Q 509.18 576.92 509.58 575.45
  A 0.71 0.71 0.0 0 1 510.55 574.99
  L 510.60 575.01
  A 1.00 0.99 16.5 0 1 511.19 576.09
  C 510.93 577.67 510.36 579.94 509.61 581.82
  Q 507.02 588.41 507.57 595.67
  A 3.10 3.03 -59.8 0 0 507.83 596.70
  L 509.67 600.85
  A 0.28 0.28 0.0 0 1 509.19 601.14
  Z"
/>
<path fill="#fdfdfc" d="
  M 587.70 626.17
  A 0.42 0.41 61.7 0 0 587.12 625.99
  L 587.10 626.00
  A 0.44 0.43 68.3 0 0 586.90 626.48
  Q 587.56 629.18 589.44 631.00
  A 0.29 0.29 0.0 0 1 589.20 631.50
  Q 585.06 631.00 582.66 626.62
  Q 579.59 621.03 578.73 617.87
  A 1.13 1.12 -36.6 0 1 578.87 616.95
  Q 582.77 611.02 589.99 609.71
  C 592.62 609.23 593.14 610.57 594.61 612.72
  C 597.35 616.75 600.51 620.96 598.94 625.68
  A 0.69 0.69 0.0 0 1 597.80 625.95
  L 593.31 621.46
  A 0.10 0.10 0.0 0 0 593.17 621.46
  L 592.80 621.83
  A 0.07 0.06 -41.4 0 0 592.79 621.91
  Q 595.15 625.47 597.97 627.01
  A 0.77 0.77 0.0 0 1 598.36 627.84
  Q 598.03 629.51 597.01 631.02
  C 596.02 632.49 594.30 632.15 592.80 632.03
  A 1.37 1.35 68.1 0 1 591.95 631.66
  Q 589.09 628.99 587.70 626.17
  Z"
/>
<path fill="#fdfdfc" d="
  M 534.92 617.08
  Q 534.92 622.86 535.98 628.52
  Q 536.41 630.79 535.20 631.20
  L 532.33 626.52
  A 0.27 0.27 0.0 0 0 531.92 626.45
  L 531.60 626.73
  A 0.16 0.16 0.0 0 0 531.55 626.91
  Q 533.04 631.09 535.66 633.00
  A 0.54 0.54 0.0 0 1 535.72 633.81
  C 534.36 635.16 533.99 635.68 531.98 634.98
  Q 529.04 633.95 527.21 628.33
  A 0.22 0.22 0.0 0 0 526.79 628.36
  Q 526.58 629.37 527.34 631.85
  A 0.26 0.26 0.0 0 1 526.94 632.13
  C 522.53 628.88 523.88 622.27 525.35 617.98
  A 0.90 0.89 -87.0 0 1 526.00 617.39
  Q 530.49 616.38 534.92 617.08
  Z"
/>
<path fill="#b27e81" d="
  M 535.20 631.20
  Q 536.41 630.79 535.98 628.52
  Q 534.92 622.86 534.92 617.08
  Q 537.31 617.05 539.01 618.25
  A 1.07 1.07 0.0 0 1 539.46 619.04
  Q 539.70 622.20 539.98 625.24
  Q 540.45 630.23 537.47 632.26
  Q 536.16 633.15 535.20 631.20
  Z"
/>
</svg>
