<?xml version="1.0" encoding="UTF-8" standalone="no"?>
<!DOCTYPE svg PUBLIC "-//W3C//DTD SVG 1.1//EN" "http://www.w3.org/Graphics/SVG/1.1/DTD/svg11.dtd">
<svg xmlns="http://www.w3.org/2000/svg" version="1.1" viewBox="0.00 0.00 1080.00 1080.00">
<g stroke-width="2.00" fill="none" stroke-linecap="butt">
<path stroke="#755f63" vector-effect="non-scaling-stroke" d="
  M 360.75 471.77
  A 0.37 0.37 0.0 0 0 360.20 471.34
  Q 349.26 478.39 335.13 489.63
  Q 332.66 491.59 331.01 494.00
  Q 322.41 506.53 316.96 518.95
  Q 315.32 522.67 314.86 524.66
  A 0.46 0.46 0.0 0 0 315.55 525.15
  L 344.15 506.64
  A 3.34 3.31 -1.7 0 0 345.27 505.46
  Q 353.37 491.40 359.67 475.82
  A 3.89 3.66 -30.7 0 0 359.90 475.02
  Q 360.17 473.39 360.75 471.77"
/>
<path stroke="#755f63" vector-effect="non-scaling-stroke" d="
  M 339.41 480.01
  L 330.63 485.39
  A 7.60 7.25 4.4 0 0 329.09 486.65
  Q 326.92 488.97 324.87 491.86
  Q 313.48 507.91 311.45 510.94
  Q 306.28 518.65 305.12 520.74
  A 0.27 0.27 0.0 0 0 305.56 521.06
  Q 308.42 518.04 308.71 517.48
  Q 309.55 515.90 311.00 513.82
  Q 312.45 511.74 313.75 509.91
  Q 321.34 499.25 330.88 487.37
  A 0.70 0.70 0.0 0 1 331.02 487.23
  L 339.79 480.57
  A 0.34 0.34 0.0 0 0 339.41 480.01"
/>
<path stroke="#755f63" vector-effect="non-scaling-stroke" d="
  M 256.15 529.56
  Q 255.30 530.37 255.70 531.34
  A 0.85 0.84 1.0 0 0 256.17 531.82
  Q 260.23 533.46 262.73 536.25"
/>
<path stroke="#9a9d9f" vector-effect="non-scaling-stroke" d="
  M 262.73 536.25
  Q 264.08 544.02 261.62 550.77
  A 2.57 2.55 -5.7 0 1 260.52 552.10
  C 257.31 554.02 255.66 555.37 253.43 558.93
  A 3.44 3.35 65.6 0 0 252.95 560.26
  C 251.92 567.16 254.63 571.25 258.36 576.56
  A 1.01 1.00 -29.9 0 0 259.61 576.89
  C 263.17 575.18 276.13 570.45 275.13 579.41"
/>
<path stroke="#755f63" vector-effect="non-scaling-stroke" d="
  M 275.13 579.41
  Q 274.80 581.37 272.42 582.63
  Q 271.38 583.18 270.30 583.65
  A 0.25 0.25 0.0 0 0 270.39 584.13
  Q 275.07 584.23 279.21 584.12
  C 283.86 584.00 286.94 580.78 289.67 577.20"
/>
<path stroke="#9a9d9f" vector-effect="non-scaling-stroke" d="
  M 289.67 577.20
  Q 293.93 567.61 287.55 559.48
  Q 286.40 558.01 284.20 556.29
  Q 282.52 554.97 280.55 553.42"
/>
<path stroke="#755f63" vector-effect="non-scaling-stroke" d="
  M 280.55 553.42
  Q 282.77 547.78 284.83 542.15
  Q 288.22 532.91 298.04 535.07
  Q 300.89 535.70 303.80 536.43
  A 0.70 0.70 0.0 0 0 304.58 536.09
  L 305.96 533.72"
/>
<path stroke="#9a9d9f" vector-effect="non-scaling-stroke" d="
  M 305.96 533.72
  Q 303.74 529.15 298.72 528.13
  Q 291.98 526.75 286.49 530.02
  A 1.72 1.63 -89.8 0 0 285.89 530.65
  Q 280.69 540.48 278.40 551.27
  A 0.78 0.78 0.0 0 1 277.25 551.79
  C 274.29 550.09 270.66 549.04 267.15 549.23
  Q 264.73 549.36 264.05 549.29
  A 0.65 0.65 0.0 0 1 263.46 548.62
  L 264.03 532.25
  A 2.96 2.96 0.0 0 0 263.72 530.81
  Q 262.50 528.40 260.40 526.98
  A 1.30 1.30 0.0 0 0 258.78 527.10
  L 256.15 529.56"
/>
<path stroke="#d7bfbe" vector-effect="non-scaling-stroke" d="
  M 305.96 533.72
  Q 301.96 531.73 299.26 531.66
  Q 293.39 531.49 288.23 532.96
  A 2.57 2.55 -87.3 0 0 286.55 534.50
  Q 285.45 537.30 284.29 539.56
  Q 282.49 543.05 280.55 553.42"
/>
<path stroke="#d7bfbe" vector-effect="non-scaling-stroke" d="
  M 289.67 577.20
  Q 282.11 579.55 275.13 579.41"
/>
<path stroke="#d7bfbe" vector-effect="non-scaling-stroke" d="
  M 262.73 536.25
  Q 263.94 533.34 260.20 530.94
  Q 258.89 530.10 257.32 530.05
  Q 256.95 530.04 256.15 529.56"
/>
<path stroke="#9a9d9f" vector-effect="non-scaling-stroke" d="
  M 296.74 543.33
  C 295.70 546.52 292.49 548.74 289.27 547.30
  Q 287.51 546.51 286.86 544.66
  A 0.69 0.69 0.0 0 0 285.56 544.64
  Q 284.57 547.21 284.52 549.42
  A 1.43 1.40 66.9 0 1 284.16 550.34
  Q 283.50 551.07 283.64 551.81
  A 0.93 0.93 0.0 0 0 284.34 552.55
  Q 288.09 553.49 288.98 553.75
  C 294.09 555.27 298.83 553.54 302.74 550.09
  A 1.30 1.30 0.0 0 0 303.18 549.21
  Q 303.38 546.79 302.55 544.29"
/>
<path stroke="#755f63" vector-effect="non-scaling-stroke" d="
  M 302.55 544.29
  C 302.16 541.07 300.17 536.86 296.58 536.44
  A 0.28 0.28 0.0 0 0 296.29 536.84
  Q 297.64 539.82 296.74 543.33"
/>
<path stroke="#d7bfbe" vector-effect="non-scaling-stroke" d="
  M 302.55 544.29
  Q 301.52 544.49 299.13 542.38
  A 1.06 1.05 -46.0 0 0 297.71 542.41
  L 296.74 543.33"
/>
<path stroke="#9a9d9f" vector-effect="non-scaling-stroke" d="
  M 260.6242 537.1594
  A 1.39 1.03 -78.2 0 0 259.3318 538.3094
  A 1.39 1.03 -78.2 0 0 260.0558 539.8806
  A 1.39 1.03 -78.2 0 0 261.3482 538.7306
  A 1.39 1.03 -78.2 0 0 260.6242 537.1594"
/>
<path stroke="#9a9d9f" vector-effect="non-scaling-stroke" d="
  M 294.9883 539.8211
  A 1.41 1.41 0.0 0 0 293.6540 538.3393
  L 293.3944 538.3257
  A 1.41 1.41 0.0 0 0 291.9125 539.6599
  L 291.8717 540.4389
  A 1.41 1.41 0.0 0 0 293.2060 541.9207
  L 293.4656 541.9343
  A 1.41 1.41 0.0 0 0 294.9475 540.6001
  L 294.9883 539.8211"
/>
<path stroke="#9a9d9f" vector-effect="non-scaling-stroke" d="
  M 255.33 539.90
  Q 254.70 542.69 254.29 543.92
  Q 253.93 545.01 254.78 546.95
  Q 256.57 551.02 260.51 549.82
  A 0.47 0.46 -5.7 0 0 260.84 549.42
  L 261.46 543.86
  A 0.14 0.14 0.0 0 0 261.27 543.72
  Q 257.47 545.30 256.03 542.45
  A 0.25 0.12 52.0 0 1 256.01 542.36
  L 255.78 539.93
  A 0.23 0.23 0.0 0 0 255.33 539.90"
/>
<path stroke="#755f63" vector-effect="non-scaling-stroke" d="
  M 250.31 548.11
  L 244.49 555.17
  A 0.74 0.73 -61.8 0 0 244.84 556.34
  L 247.59 557.20
  A 0.48 0.48 0.0 0 1 247.82 557.97
  L 245.38 560.93
  A 0.65 0.64 -40.5 0 0 245.32 561.67
  L 248.08 566.30
  A 0.10 0.09 -24.9 0 0 248.20 566.34
  L 248.50 566.22
  A 0.32 0.32 0.0 0 0 248.65 565.75
  L 246.46 562.37
  A 1.01 1.01 0.0 0 1 246.48 561.24
  L 249.75 556.49
  A 0.85 0.85 0.0 0 0 249.15 555.17
  L 247.56 555.00
  A 0.41 0.41 0.0 0 1 247.31 554.31
  Q 249.27 552.27 251.01 548.55
  A 0.42 0.42 0.0 0 0 250.31 548.11"
/>
<path stroke="#755f63" vector-effect="non-scaling-stroke" d="
  M 250.39 600.54
  C 252.90 603.78 256.65 604.95 260.41 602.98
  Q 264.26 600.96 267.38 597.39
  A 0.30 0.29 -51.6 0 1 267.78 597.34
  L 268.04 597.51
  A 0.44 0.43 38.2 0 1 268.12 598.15
  Q 266.45 600.10 266.44 600.12
  A 0.29 0.29 0.0 0 0 266.82 600.47
  C 271.08 598.85 273.00 593.05 267.78 590.97"
/>
<path stroke="#9a9d9f" vector-effect="non-scaling-stroke" d="
  M 267.78 590.97
  Q 265.00 589.63 265.96 589.23"
/>
<path stroke="#755f63" vector-effect="non-scaling-stroke" d="
  M 265.96 589.23
  L 270.28 590.63
  A 0.40 0.40 0.0 0 0 270.80 590.27
  Q 270.93 587.53 269.14 585.63"
/>
<path stroke="#9a9d9f" vector-effect="non-scaling-stroke" d="
  M 269.14 585.63
  Q 266.29 584.33 263.52 584.26
  A 0.41 0.41 0.0 0 1 263.45 583.45
  C 266.59 582.77 270.58 582.61 273.00 580.65
  A 1.43 1.41 78.3 0 0 273.48 579.91
  C 274.82 574.63 268.85 575.57 266.02 576.48
  Q 259.54 578.55 254.66 581.91
  A 0.42 0.42 0.0 0 1 254.08 581.33
  L 255.83 578.80
  A 0.81 0.81 0.0 0 0 255.88 577.99
  Q 254.87 575.98 253.50 574.89
  A 1.72 1.72 0.0 0 0 250.72 576.34
  L 251.12 582.67
  A 0.98 0.95 58.0 0 1 251.02 583.14
  C 248.09 589.13 244.92 595.16 250.39 600.54"
/>
<path stroke="#d7bfbe" vector-effect="non-scaling-stroke" d="
  M 269.14 585.63
  Q 268.45 587.91 265.96 589.23"
/>
<path stroke="#d7bfbe" vector-effect="non-scaling-stroke" d="
  M 267.78 590.97
  L 267.35 593.43
  A 0.91 0.89 -8.1 0 1 266.85 594.08
  Q 266.40 594.31 266.26 594.49
  Q 262.61 599.20 257.14 600.83
  A 2.30 2.11 36.2 0 1 256.33 600.92
  L 250.39 600.54"
/>
<path stroke="#226d9a" vector-effect="non-scaling-stroke" d="
  M 302.72 590.88
  L 294.88 594.79
  A 0.31 0.31 0.0 0 1 294.47 594.37
  Q 295.14 593.11 296.51 592.57"
/>
<path stroke="#285578" vector-effect="non-scaling-stroke" d="
  M 296.51 592.57
  C 304.05 587.88 311.21 582.87 319.77 580.17
  A 1.14 1.13 1.0 0 0 320.50 579.47
  Q 321.01 578.02 320.89 575.67
  A 1.02 1.01 78.9 0 0 319.54 574.76
  Q 318.56 575.11 317.65 575.89
  C 311.47 581.19 302.53 582.62 295.70 583.96
  Q 289.88 585.10 286.26 585.39
  Q 278.56 586.02 272.79 586.31
  A 0.51 0.50 -2.4 0 0 272.31 586.82
  L 272.42 596.43
  A 0.96 0.87 56.2 0 1 272.38 596.70
  Q 270.99 601.35 265.85 602.90
  A 0.68 0.68 0.0 0 0 265.64 604.09
  L 273.17 609.70
  A 1.29 1.17 -21.2 0 0 273.74 609.92
  C 279.74 610.70 285.95 607.17 293.18 604.16
  Q 298.29 602.04 301.69 599.40
  Q 305.44 596.49 308.94 592.79
  C 310.96 590.65 313.72 588.54 315.47 587.22
  A 4.27 4.26 -54.9 0 1 319.29 586.55
  L 321.04 587.10
  A 1.23 1.23 0.0 0 0 322.47 585.31
  L 320.32 581.59
  A 0.73 0.73 0.0 0 0 319.35 581.31
  Q 316.37 582.88 313.00 584.41
  C 309.60 585.95 306.00 588.59 302.72 590.88"
/>
<path stroke="#1284ce" vector-effect="non-scaling-stroke" d="
  M 296.51 592.57
  L 302.33 586.67
  A 0.64 0.64 0.0 0 0 301.75 585.60
  L 276.11 590.78
  A 0.98 0.96 -84.1 0 0 275.40 591.37
  Q 275.00 592.34 274.89 593.91
  A 1.14 1.14 0.0 0 0 275.69 595.09
  L 281.50 596.89
  A 0.65 0.65 0.0 0 1 281.28 598.16
  L 275.87 597.97
  A 2.10 2.09 9.2 0 0 273.78 599.47
  Q 273.00 602.18 271.20 604.10
  A 0.80 0.80 0.0 0 0 271.42 605.36
  C 274.24 606.79 276.51 607.05 279.71 605.96
  Q 281.88 605.23 287.50 603.56
  Q 289.66 602.91 298.08 598.04
  A 3.25 3.12 -83.7 0 0 298.86 597.39
  Q 300.52 595.48 302.72 593.25
  Q 303.52 592.45 302.72 590.88"
/>
<path stroke="#755f63" vector-effect="non-scaling-stroke" d="
  M 244.91 595.42
  Q 241.41 600.26 238.22 604.31
  Q 233.73 610.00 234.81 617.56
  A 0.33 0.33 0.0 0 0 235.47 617.55
  L 236.22 610.70
  A 2.74 2.72 66.0 0 1 236.69 609.46
  L 243.50 599.55
  A 0.39 0.18 -25.1 0 1 243.55 599.49
  L 245.73 595.80
  A 0.20 0.19 38.4 0 0 245.70 595.56
  L 245.51 595.37
  A 0.40 0.39 -49.0 0 0 244.91 595.42"
/>
<path stroke="#226d9a" vector-effect="non-scaling-stroke" d="
  M 259.80 626.23
  L 256.98 643.22
  A 3.09 3.08 -61.4 0 0 257.74 645.81
  C 261.30 649.74 270.10 652.32 275.07 653.19
  A 0.29 0.28 -0.6 0 0 275.40 652.86
  Q 273.56 643.64 275.25 633.98"
/>
<path stroke="#285578" vector-effect="non-scaling-stroke" d="
  M 275.25 633.98
  L 276.18 645.81"
/>
<path stroke="#226d9a" vector-effect="non-scaling-stroke" d="
  M 276.18 645.81
  L 277.34 653.09
  A 0.70 0.70 0.0 0 0 277.92 653.67
  Q 290.34 655.78 302.21 652.04"
/>
<path stroke="#285578" vector-effect="non-scaling-stroke" d="
  M 302.21 652.04
  L 309.50 648.79
  A 0.55 0.55 0.0 0 0 309.75 648.01
  Q 307.39 644.07 307.23 642.00
  C 306.68 635.21 310.17 630.14 314.67 623.67
  A 2.11 2.08 63.5 0 0 315.03 622.56
  L 315.20 617.81
  A 0.73 0.72 76.3 0 0 314.12 617.15
  Q 312.22 618.23 310.12 617.22
  A 1.69 1.68 84.8 0 1 309.45 616.66
  Q 306.28 612.26 305.64 609.97
  Q 304.57 606.15 304.94 600.00
  A 0.35 0.35 0.0 0 0 304.41 599.68
  L 296.74 604.65
  A 0.45 0.12 -14.9 0 1 296.67 604.69
  C 292.67 606.25 291.07 606.54 287.68 608.44
  Q 283.47 610.80 276.15 612.63
  Q 274.85 612.95 274.83 614.70
  A 0.17 0.17 0.0 0 1 274.66 614.87
  L 274.37 614.86
  A 0.28 0.28 0.0 0 1 274.10 614.54
  Q 274.36 612.92 273.26 612.10
  Q 266.97 607.44 262.57 604.23
  A 1.65 1.65 0.0 0 0 259.95 605.56
  L 259.80 626.23"
/>
<path stroke="#1284ce" vector-effect="non-scaling-stroke" d="
  M 302.21 652.04
  C 303.40 647.87 304.93 643.81 302.91 639.62
  Q 300.58 634.76 298.80 630.57
  A 1.02 0.99 49.1 0 1 298.85 629.67
  L 299.01 629.40
  A 0.22 0.22 0.0 0 1 299.39 629.40
  L 304.72 638.63
  A 0.15 0.15 0.0 0 0 305.00 638.55
  Q 304.63 629.13 304.66 624.94
  C 304.69 617.97 303.48 612.33 303.10 605.26
  A 0.46 0.46 0.0 0 0 302.37 604.91
  C 294.73 610.29 285.39 613.42 276.30 615.23
  A 0.93 0.93 0.0 0 0 275.55 616.23
  L 276.66 628.21
  A 1.01 1.01 0.0 0 0 277.29 629.05
  C 280.48 630.36 285.85 630.11 288.94 630.22
  A 0.33 0.33 0.0 0 1 289.26 630.57
  L 289.26 630.84
  A 0.13 0.13 0.0 0 1 289.12 630.96
  L 277.72 630.89
  A 1.06 1.06 0.0 0 0 276.65 631.92
  L 276.18 645.81"
/>
<path stroke="#1284ce" vector-effect="non-scaling-stroke" d="
  M 275.25 633.98
  L 274.84 630.88
  A 0.67 0.66 5.6 0 0 274.38 630.33
  L 266.51 627.88
  A 0.43 0.42 55.5 0 1 266.66 627.05
  Q 270.11 627.31 274.12 628.72
  A 0.53 0.53 0.0 0 0 274.82 628.18
  L 273.68 615.94
  A 2.52 2.49 12.5 0 0 272.44 614.01
  L 265.76 610.15
  A 1.49 1.49 0.0 0 0 263.86 610.51
  Q 261.68 613.26 260.57 617.27
  Q 260.01 619.32 259.80 626.23"
/>
<path stroke="#9a9d9f" vector-effect="non-scaling-stroke" d="
  M 325.11 646.39
  Q 326.93 642.13 326.99 639.09
  A 4.68 4.66 -74.4 0 0 324.66 634.94
  L 314.27 628.94
  A 0.91 0.90 28.4 0 0 313.01 629.31
  L 309.23 636.67
  A 3.66 3.61 -30.9 0 0 308.82 638.26
  Q 308.65 645.18 314.14 648.36
  Q 318.49 650.89 319.09 651.16
  A 3.62 3.47 -30.2 0 0 320.29 651.45
  Q 327.80 651.95 329.85 645.65
  A 2.20 2.19 -58.7 0 0 329.31 643.41
  L 328.60 642.70
  A 0.72 0.72 0.0 0 0 327.40 642.99
  L 326.21 646.81
  A 0.34 0.34 0.0 0 1 325.78 647.04
  L 325.35 646.90
  A 0.38 0.37 19.9 0 1 325.11 646.39"
/>
<path stroke="#9a9d9f" vector-effect="non-scaling-stroke" d="
  M 336.41 644.70
  L 337.78 643.91
  A 0.51 0.51 0.0 0 1 338.53 644.49
  Q 337.42 648.61 334.90 651.61
  A 0.30 0.29 20.8 0 0 335.12 652.09
  L 336.64 652.15
  A 0.51 0.51 0.0 0 1 337.03 652.96
  Q 334.44 656.48 330.90 657.94
  A 1.26 1.25 64.0 0 0 330.29 659.73
  L 330.62 660.30
  A 1.28 1.28 0.0 0 0 332.21 660.85
  Q 338.59 658.30 341.37 651.06
  A 0.62 0.59 -80.1 0 0 340.81 650.22
  Q 340.37 650.23 340.08 649.99
  A 0.80 0.79 27.4 0 1 339.81 649.16
  Q 341.28 643.92 340.52 641.47
  Q 339.08 636.83 336.74 632.49
  A 0.24 0.24 0.0 0 0 336.28 632.59
  L 335.87 644.38
  A 0.36 0.36 0.0 0 0 336.41 644.70"
/>
<path stroke="#9a9d9f" vector-effect="non-scaling-stroke" d="
  M 238.36 710.22
  Q 239.27 703.79 244.90 701.82
  A 0.41 0.41 0.0 0 1 245.25 702.55
  Q 240.74 705.40 239.91 710.57
  A 1.47 1.46 13.3 0 0 240.93 712.21
  L 244.30 713.26
  A 1.22 1.21 9.6 0 0 245.88 712.14
  Q 246.07 706.38 252.17 703.31
  A 0.28 0.28 0.0 0 1 252.52 703.39
  L 252.71 703.62
  A 0.43 0.43 0.0 0 1 252.61 704.24
  Q 247.80 707.53 247.28 712.97
  A 0.60 0.59 -87.4 0 0 247.87 713.62
  Q 256.76 713.64 265.43 710.59
  A 0.74 0.74 0.0 0 0 265.91 709.81
  Q 265.57 707.30 263.29 704.70
  Q 257.73 698.34 249.66 698.94
  C 242.52 699.48 238.31 702.98 237.39 710.01
  A 0.32 0.32 0.0 0 0 237.61 710.36
  L 237.97 710.47
  A 0.30 0.30 0.0 0 0 238.36 710.22"
/>
<path stroke="#755f63" vector-effect="non-scaling-stroke" d="
  M 323.55 715.31
  L 323.75 716.48"
/>
<path stroke="#755f63" vector-effect="non-scaling-stroke" d="
  M 324.75 717.47
  Q 328.68 720.19 333.29 720.05
  A 0.85 0.82 10.8 0 0 334.02 719.57
  Q 334.58 718.37 334.00 716.79"
/>
<path stroke="#9a9d9f" vector-effect="non-scaling-stroke" d="
  M 334.00 716.79
  Q 333.71 713.31 331.94 710.46
  A 0.40 0.40 0.0 0 1 332.20 709.86
  L 332.25 709.84
  A 0.80 0.80 0.0 0 1 333.10 710.20
  Q 335.07 713.35 335.89 716.87"
/>
<path stroke="#755f63" vector-effect="non-scaling-stroke" d="
  M 335.89 716.87
  Q 334.85 722.49 343.83 719.68
  A 1.33 1.33 0.0 0 0 344.75 718.57
  Q 345.11 715.30 344.12 713.25"
/>
<path stroke="#9a9d9f" vector-effect="non-scaling-stroke" d="
  M 344.12 713.25
  L 341.41 708.46
  A 0.40 0.40 0.0 0 1 341.95 707.91
  C 345.02 709.53 346.37 714.10 346.61 717.38
  A 0.59 0.59 0.0 0 0 347.52 717.84
  C 349.90 716.32 348.99 712.03 347.82 710.27
  Q 346.17 707.77 342.08 704.57
  A 3.26 3.22 -21.2 0 0 340.56 703.91
  Q 330.21 702.29 323.47 709.65
  A 2.60 2.52 -20.0 0 0 322.83 710.97
  Q 322.40 713.49 323.55 715.31"
/>
<path stroke="#d7bfbe" vector-effect="non-scaling-stroke" d="
  M 344.12 713.25
  Q 343.20 714.74 341.25 715.24
  Q 338.44 715.96 335.89 716.87"
/>
<path stroke="#d7bfbe" vector-effect="non-scaling-stroke" d="
  M 334.00 716.79
  L 323.55 715.31"
/>
<path stroke="#755f63" vector-effect="non-scaling-stroke" d="
  M 324.75 717.47
  L 323.75 716.48"
/>
<path stroke="#d7bfbe" vector-effect="non-scaling-stroke" d="
  M 331.44 508.17
  Q 330.45 510.30 329.12 511.48
  Q 325.69 514.55 323.33 517.39
  A 0.23 0.23 0.0 0 0 323.64 517.73
  L 342.03 504.56
  A 0.50 0.49 24.3 0 0 341.69 503.67
  L 337.47 504.06
  A 0.52 0.52 0.0 0 1 337.06 503.18
  L 347.84 492.39
  A 0.32 0.32 0.0 0 0 347.58 491.84
  L 343.14 492.25
  A 0.62 0.62 0.0 0 1 342.63 491.22
  L 349.91 483.41
  A 0.04 0.04 0.0 0 0 349.91 483.37
  L 349.71 483.11
  A 0.31 0.31 0.0 0 0 349.28 483.06
  L 332.84 496.09
  A 0.39 0.38 29.7 0 0 333.03 496.77
  Q 335.15 497.06 336.44 496.34
  A 0.52 0.51 83.8 0 1 337.18 496.94
  C 336.63 498.86 334.31 499.72 333.28 501.05
  Q 332.91 501.52 327.62 507.01
  A 0.62 0.62 0.0 0 0 328.19 508.04
  L 330.91 507.49
  A 0.48 0.48 0.0 0 1 331.44 508.17"
/>
<path stroke="#9a9d9f" vector-effect="non-scaling-stroke" d="
  M 261.49 569.75
  A 0.13 0.13 0.0 0 0 261.65 569.75
  L 264.66 567.35
  A 0.83 0.82 42.9 0 1 265.63 567.32
  L 272.93 572.34
  A 0.44 0.44 0.0 0 0 273.55 572.23
  L 273.87 571.76
  A 0.20 0.19 -55.9 0 0 273.82 571.48
  L 265.96 566.07
  A 1.23 1.23 0.0 0 1 265.43 565.02
  L 265.55 561.62
  A 0.79 0.79 0.0 0 1 266.02 560.93
  Q 269.40 559.41 271.27 558.28
  Q 272.43 557.57 272.64 557.14
  A 1.72 1.55 22.2 0 0 271.57 554.92
  C 268.38 553.84 261.71 552.07 259.21 554.69
  A 0.77 0.76 50.0 0 0 259.13 555.64
  Q 261.87 559.65 264.04 560.96
  A 0.82 0.81 -74.4 0 1 264.44 561.68
  L 264.31 565.24
  A 1.04 1.02 67.1 0 1 264.05 565.90
  L 261.23 569.00
  A 0.40 0.39 -50.2 0 0 261.28 569.58
  L 261.49 569.75"
/>
<path stroke="#755f63" vector-effect="non-scaling-stroke" d="
  M 271.29 557.12
  A 0.76 0.75 -54.3 0 0 271.08 555.82
  Q 266.17 554.04 261.40 554.45
  A 1.04 1.04 0.0 0 0 260.67 556.13
  L 262.92 558.97
  A 2.81 2.80 -27.8 0 0 265.95 559.90
  Q 269.02 558.93 271.29 557.12"
/>
</g>
<path fill="#383d44" d="
  M 329.03 560.62
  Q 329.96 562.01 330.31 562.23
  A 0.41 0.40 -28.0 0 1 330.08 562.97
  L 327.44 562.94
  A 0.70 0.69 68.0 0 0 326.94 564.13
  L 328.80 565.99
  A 0.50 0.50 0.0 0 1 328.76 566.74
  L 321.25 572.70
  A 0.56 0.56 0.0 0 0 321.24 573.57
  Q 324.29 576.08 322.30 579.40
  A 1.38 1.34 -45.7 0 0 322.30 580.80
  Q 324.67 584.68 324.09 588.10
  A 1.69 1.66 -63.1 0 0 324.56 589.58
  Q 333.52 598.33 340.37 607.11
  Q 343.32 610.88 344.70 615.64
  C 346.50 621.81 341.26 626.03 337.09 629.79
  A 0.74 0.74 0.0 0 0 336.98 630.77
  Q 340.16 635.27 341.89 640.28
  Q 342.49 642.02 341.96 647.06
  A 1.74 1.74 0.0 0 0 342.36 648.37
  Q 342.58 648.63 342.71 648.70
  A 1.01 1.00 -69.8 0 1 343.23 649.84
  Q 340.81 659.27 332.08 662.93
  A 0.67 0.67 0.0 0 0 331.71 663.77
  C 333.39 668.71 335.44 673.62 334.90 679.00
  Q 334.37 684.35 333.34 688.77
  A 3.08 3.05 -55.6 0 0 333.78 691.17
  Q 334.72 692.58 338.08 697.23
  C 340.94 701.16 346.12 704.94 348.76 708.40
  A 6.04 3.60 54.3 0 1 349.25 709.10
  C 350.29 710.77 351.63 715.25 350.35 717.30
  A 2.27 2.00 -9.4 0 1 349.95 717.79
  Q 345.26 722.06 338.76 722.03
  Q 332.08 722.01 327.05 720.61
  Q 324.32 719.85 322.29 717.51
  A 3.24 3.22 -74.3 0 1 321.66 716.38
  Q 320.73 713.51 319.92 708.86
  Q 318.95 703.35 316.36 695.67
  A 2.83 2.81 2.6 0 0 314.81 693.99
  Q 309.79 691.82 307.63 690.64
  Q 307.03 690.32 303.96 687.82
  C 300.73 685.19 297.43 680.57 295.08 678.25
  Q 293.28 676.49 290.29 676.25
  A 1.29 1.27 23.4 0 0 289.28 676.64
  C 284.23 681.97 282.33 685.96 284.07 692.99
  Q 284.71 695.58 286.09 701.22
  Q 286.52 703.00 285.65 704.95
  A 1.34 1.31 -88.6 0 1 284.93 705.65
  Q 272.27 710.86 259.80 713.83
  Q 250.56 716.03 242.14 714.35
  C 238.83 713.69 235.12 712.29 235.82 708.25
  C 237.08 700.93 242.17 698.14 249.32 697.12
  C 255.20 696.28 258.73 695.78 263.75 693.89
  A 0.46 0.46 0.0 0 0 263.82 693.06
  Q 254.47 687.56 249.62 678.17
  C 247.97 674.98 247.90 672.73 248.73 669.25
  Q 250.17 663.27 250.20 663.17
  Q 252.67 654.86 255.04 647.90
  A 4.25 4.19 -38.5 0 0 255.25 646.16
  C 254.73 639.88 256.25 633.51 257.87 626.11
  A 4.39 4.29 -39.2 0 0 257.98 625.14
  L 258.01 620.25
  A 0.47 0.47 0.0 0 0 257.25 619.88
  C 251.35 624.67 245.57 627.15 237.95 624.52
  C 235.23 623.58 233.24 620.76 232.79 617.82
  Q 232.15 613.59 233.13 609.53
  A 4.47 4.02 68.5 0 1 233.47 608.62
  C 236.46 602.81 240.89 597.01 245.01 592.49
  A 2.07 2.01 77.8 0 0 245.36 591.93
  L 249.07 582.78
  A 1.39 1.34 58.2 0 0 249.17 582.32
  Q 249.23 580.68 248.67 577.47
  C 248.36 575.73 248.57 574.84 249.87 573.56
  A 0.84 0.84 0.0 0 0 249.98 572.51
  L 243.21 562.05
  A 1.27 1.27 0.0 0 1 243.23 560.64
  L 244.21 559.22
  A 0.89 0.88 -55.7 0 0 243.98 557.98
  L 242.10 556.68
  A 0.66 0.66 0.0 0 1 241.96 555.72
  L 250.61 545.22
  A 1.78 1.70 74.0 0 0 250.93 544.61
  Q 252.19 540.12 252.07 537.40
  A 1.06 0.96 -42.1 0 1 252.09 537.20
  L 254.24 529.28
  A 1.42 1.34 77.0 0 1 254.59 528.68
  L 262.47 520.80
  A 1.82 1.81 -20.9 0 0 263.00 519.62
  Q 263.99 504.10 266.01 489.78
  Q 266.44 486.76 267.74 484.99
  Q 274.43 475.93 287.84 462.10
  Q 291.02 458.83 295.59 455.08
  A 0.72 0.72 0.0 0 1 296.76 455.61
  Q 296.85 457.77 296.47 460.53
  Q 294.93 471.63 291.27 490.92
  Q 290.27 496.19 289.11 498.84
  Q 287.57 502.38 285.47 506.25
  A 0.98 0.98 0.0 0 0 286.04 507.65
  Q 295.97 510.64 305.10 515.17
  A 1.40 1.40 0.0 0 0 306.90 514.68
  Q 315.34 501.70 325.66 488.15
  Q 327.85 485.28 330.88 483.38
  Q 349.08 471.96 366.08 462.82
  A 0.53 0.53 0.0 0 1 366.87 463.25
  Q 366.88 463.36 366.57 465.82
  Q 366.45 466.81 364.34 472.91
  Q 358.77 489.05 350.58 504.60
  Q 348.26 508.98 345.12 511.34
  Q 333.93 519.75 321.47 528.05
  A 1.40 1.40 0.0 0 0 320.88 529.51
  Q 321.41 531.81 322.84 535.07
  A 0.78 0.69 -68.0 0 1 322.90 535.24
  L 325.21 548.59
  A 3.03 2.98 -64.1 0 0 325.51 549.48
  L 330.86 559.72
  A 0.38 0.37 85.0 0 1 330.42 560.25
  L 329.52 559.97
  A 0.43 0.43 0.0 0 0 329.03 560.62
  Z
  M 360.75 471.77
  A 0.37 0.37 0.0 0 0 360.20 471.34
  Q 349.26 478.39 335.13 489.63
  Q 332.66 491.59 331.01 494.00
  Q 322.41 506.53 316.96 518.95
  Q 315.32 522.67 314.86 524.66
  A 0.46 0.46 0.0 0 0 315.55 525.15
  L 344.15 506.64
  A 3.34 3.31 -1.7 0 0 345.27 505.46
  Q 353.37 491.40 359.67 475.82
  A 3.89 3.66 -30.7 0 0 359.90 475.02
  Q 360.17 473.39 360.75 471.77
  Z
  M 339.41 480.01
  L 330.63 485.39
  A 7.60 7.25 4.4 0 0 329.09 486.65
  Q 326.92 488.97 324.87 491.86
  Q 313.48 507.91 311.45 510.94
  Q 306.28 518.65 305.12 520.74
  A 0.27 0.27 0.0 0 0 305.56 521.06
  Q 308.42 518.04 308.71 517.48
  Q 309.55 515.90 311.00 513.82
  Q 312.45 511.74 313.75 509.91
  Q 321.34 499.25 330.88 487.37
  A 0.70 0.70 0.0 0 1 331.02 487.23
  L 339.79 480.57
  A 0.34 0.34 0.0 0 0 339.41 480.01
  Z
  M 256.15 529.56
  Q 255.30 530.37 255.70 531.34
  A 0.85 0.84 1.0 0 0 256.17 531.82
  Q 260.23 533.46 262.73 536.25
  Q 264.08 544.02 261.62 550.77
  A 2.57 2.55 -5.7 0 1 260.52 552.10
  C 257.31 554.02 255.66 555.37 253.43 558.93
  A 3.44 3.35 65.6 0 0 252.95 560.26
  C 251.92 567.16 254.63 571.25 258.36 576.56
  A 1.01 1.00 -29.9 0 0 259.61 576.89
  C 263.17 575.18 276.13 570.45 275.13 579.41
  Q 274.80 581.37 272.42 582.63
  Q 271.38 583.18 270.30 583.65
  A 0.25 0.25 0.0 0 0 270.39 584.13
  Q 275.07 584.23 279.21 584.12
  C 283.86 584.00 286.94 580.78 289.67 577.20
  Q 293.93 567.61 287.55 559.48
  Q 286.40 558.01 284.20 556.29
  Q 282.52 554.97 280.55 553.42
  Q 282.77 547.78 284.83 542.15
  Q 288.22 532.91 298.04 535.07
  Q 300.89 535.70 303.80 536.43
  A 0.70 0.70 0.0 0 0 304.58 536.09
  L 305.96 533.72
  Q 303.74 529.15 298.72 528.13
  Q 291.98 526.75 286.49 530.02
  A 1.72 1.63 -89.8 0 0 285.89 530.65
  Q 280.69 540.48 278.40 551.27
  A 0.78 0.78 0.0 0 1 277.25 551.79
  C 274.29 550.09 270.66 549.04 267.15 549.23
  Q 264.73 549.36 264.05 549.29
  A 0.65 0.65 0.0 0 1 263.46 548.62
  L 264.03 532.25
  A 2.96 2.96 0.0 0 0 263.72 530.81
  Q 262.50 528.40 260.40 526.98
  A 1.30 1.30 0.0 0 0 258.78 527.10
  L 256.15 529.56
  Z
  M 296.74 543.33
  C 295.70 546.52 292.49 548.74 289.27 547.30
  Q 287.51 546.51 286.86 544.66
  A 0.69 0.69 0.0 0 0 285.56 544.64
  Q 284.57 547.21 284.52 549.42
  A 1.43 1.40 66.9 0 1 284.16 550.34
  Q 283.50 551.07 283.64 551.81
  A 0.93 0.93 0.0 0 0 284.34 552.55
  Q 288.09 553.49 288.98 553.75
  C 294.09 555.27 298.83 553.54 302.74 550.09
  A 1.30 1.30 0.0 0 0 303.18 549.21
  Q 303.38 546.79 302.55 544.29
  C 302.16 541.07 300.17 536.86 296.58 536.44
  A 0.28 0.28 0.0 0 0 296.29 536.84
  Q 297.64 539.82 296.74 543.33
  Z
  M 260.6242 537.1594
  A 1.39 1.03 -78.2 0 0 259.3318 538.3094
  A 1.39 1.03 -78.2 0 0 260.0558 539.8806
  A 1.39 1.03 -78.2 0 0 261.3482 538.7306
  A 1.39 1.03 -78.2 0 0 260.6242 537.1594
  Z
  M 294.9883 539.8211
  A 1.41 1.41 0.0 0 0 293.6540 538.3393
  L 293.3944 538.3257
  A 1.41 1.41 0.0 0 0 291.9125 539.6599
  L 291.8717 540.4389
  A 1.41 1.41 0.0 0 0 293.2060 541.9207
  L 293.4656 541.9343
  A 1.41 1.41 0.0 0 0 294.9475 540.6001
  L 294.9883 539.8211
  Z
  M 255.33 539.90
  Q 254.70 542.69 254.29 543.92
  Q 253.93 545.01 254.78 546.95
  Q 256.57 551.02 260.51 549.82
  A 0.47 0.46 -5.7 0 0 260.84 549.42
  L 261.46 543.86
  A 0.14 0.14 0.0 0 0 261.27 543.72
  Q 257.47 545.30 256.03 542.45
  A 0.25 0.12 52.0 0 1 256.01 542.36
  L 255.78 539.93
  A 0.23 0.23 0.0 0 0 255.33 539.90
  Z
  M 250.31 548.11
  L 244.49 555.17
  A 0.74 0.73 -61.8 0 0 244.84 556.34
  L 247.59 557.20
  A 0.48 0.48 0.0 0 1 247.82 557.97
  L 245.38 560.93
  A 0.65 0.64 -40.5 0 0 245.32 561.67
  L 248.08 566.30
  A 0.10 0.09 -24.9 0 0 248.20 566.34
  L 248.50 566.22
  A 0.32 0.32 0.0 0 0 248.65 565.75
  L 246.46 562.37
  A 1.01 1.01 0.0 0 1 246.48 561.24
  L 249.75 556.49
  A 0.85 0.85 0.0 0 0 249.15 555.17
  L 247.56 555.00
  A 0.41 0.41 0.0 0 1 247.31 554.31
  Q 249.27 552.27 251.01 548.55
  A 0.42 0.42 0.0 0 0 250.31 548.11
  Z
  M 250.39 600.54
  C 252.90 603.78 256.65 604.95 260.41 602.98
  Q 264.26 600.96 267.38 597.39
  A 0.30 0.29 -51.6 0 1 267.78 597.34
  L 268.04 597.51
  A 0.44 0.43 38.2 0 1 268.12 598.15
  Q 266.45 600.10 266.44 600.12
  A 0.29 0.29 0.0 0 0 266.82 600.47
  C 271.08 598.85 273.00 593.05 267.78 590.97
  Q 265.00 589.63 265.96 589.23
  L 270.28 590.63
  A 0.40 0.40 0.0 0 0 270.80 590.27
  Q 270.93 587.53 269.14 585.63
  Q 266.29 584.33 263.52 584.26
  A 0.41 0.41 0.0 0 1 263.45 583.45
  C 266.59 582.77 270.58 582.61 273.00 580.65
  A 1.43 1.41 78.3 0 0 273.48 579.91
  C 274.82 574.63 268.85 575.57 266.02 576.48
  Q 259.54 578.55 254.66 581.91
  A 0.42 0.42 0.0 0 1 254.08 581.33
  L 255.83 578.80
  A 0.81 0.81 0.0 0 0 255.88 577.99
  Q 254.87 575.98 253.50 574.89
  A 1.72 1.72 0.0 0 0 250.72 576.34
  L 251.12 582.67
  A 0.98 0.95 58.0 0 1 251.02 583.14
  C 248.09 589.13 244.92 595.16 250.39 600.54
  Z
  M 302.72 590.88
  L 294.88 594.79
  A 0.31 0.31 0.0 0 1 294.47 594.37
  Q 295.14 593.11 296.51 592.57
  C 304.05 587.88 311.21 582.87 319.77 580.17
  A 1.14 1.13 1.0 0 0 320.50 579.47
  Q 321.01 578.02 320.89 575.67
  A 1.02 1.01 78.9 0 0 319.54 574.76
  Q 318.56 575.11 317.65 575.89
  C 311.47 581.19 302.53 582.62 295.70 583.96
  Q 289.88 585.10 286.26 585.39
  Q 278.56 586.02 272.79 586.31
  A 0.51 0.50 -2.4 0 0 272.31 586.82
  L 272.42 596.43
  A 0.96 0.87 56.2 0 1 272.38 596.70
  Q 270.99 601.35 265.85 602.90
  A 0.68 0.68 0.0 0 0 265.64 604.09
  L 273.17 609.70
  A 1.29 1.17 -21.2 0 0 273.74 609.92
  C 279.74 610.70 285.95 607.17 293.18 604.16
  Q 298.29 602.04 301.69 599.40
  Q 305.44 596.49 308.94 592.79
  C 310.96 590.65 313.72 588.54 315.47 587.22
  A 4.27 4.26 -54.9 0 1 319.29 586.55
  L 321.04 587.10
  A 1.23 1.23 0.0 0 0 322.47 585.31
  L 320.32 581.59
  A 0.73 0.73 0.0 0 0 319.35 581.31
  Q 316.37 582.88 313.00 584.41
  C 309.60 585.95 306.00 588.59 302.72 590.88
  Z
  M 244.91 595.42
  Q 241.41 600.26 238.22 604.31
  Q 233.73 610.00 234.81 617.56
  A 0.33 0.33 0.0 0 0 235.47 617.55
  L 236.22 610.70
  A 2.74 2.72 66.0 0 1 236.69 609.46
  L 243.50 599.55
  A 0.39 0.18 -25.1 0 1 243.55 599.49
  L 245.73 595.80
  A 0.20 0.19 38.4 0 0 245.70 595.56
  L 245.51 595.37
  A 0.40 0.39 -49.0 0 0 244.91 595.42
  Z
  M 259.80 626.23
  L 256.98 643.22
  A 3.09 3.08 -61.4 0 0 257.74 645.81
  C 261.30 649.74 270.10 652.32 275.07 653.19
  A 0.29 0.28 -0.6 0 0 275.40 652.86
  Q 273.56 643.64 275.25 633.98
  L 276.18 645.81
  L 277.34 653.09
  A 0.70 0.70 0.0 0 0 277.92 653.67
  Q 290.34 655.78 302.21 652.04
  L 309.50 648.79
  A 0.55 0.55 0.0 0 0 309.75 648.01
  Q 307.39 644.07 307.23 642.00
  C 306.68 635.21 310.17 630.14 314.67 623.67
  A 2.11 2.08 63.5 0 0 315.03 622.56
  L 315.20 617.81
  A 0.73 0.72 76.3 0 0 314.12 617.15
  Q 312.22 618.23 310.12 617.22
  A 1.69 1.68 84.8 0 1 309.45 616.66
  Q 306.28 612.26 305.64 609.97
  Q 304.57 606.15 304.94 600.00
  A 0.35 0.35 0.0 0 0 304.41 599.68
  L 296.74 604.65
  A 0.45 0.12 -14.9 0 1 296.67 604.69
  C 292.67 606.25 291.07 606.54 287.68 608.44
  Q 283.47 610.80 276.15 612.63
  Q 274.85 612.95 274.83 614.70
  A 0.17 0.17 0.0 0 1 274.66 614.87
  L 274.37 614.86
  A 0.28 0.28 0.0 0 1 274.10 614.54
  Q 274.36 612.92 273.26 612.10
  Q 266.97 607.44 262.57 604.23
  A 1.65 1.65 0.0 0 0 259.95 605.56
  L 259.80 626.23
  Z
  M 317.27 617.77
  Q 317.34 618.95 317.35 618.98
  A 0.50 0.50 0.0 0 0 318.10 619.16
  Q 319.44 618.13 319.41 617.65
  Q 319.38 617.16 317.94 616.30
  A 0.50 0.50 0.0 0 0 317.22 616.55
  Q 317.20 616.59 317.27 617.77
  Z
  M 325.11 646.39
  Q 326.93 642.13 326.99 639.09
  A 4.68 4.66 -74.4 0 0 324.66 634.94
  L 314.27 628.94
  A 0.91 0.90 28.4 0 0 313.01 629.31
  L 309.23 636.67
  A 3.66 3.61 -30.9 0 0 308.82 638.26
  Q 308.65 645.18 314.14 648.36
  Q 318.49 650.89 319.09 651.16
  A 3.62 3.47 -30.2 0 0 320.29 651.45
  Q 327.80 651.95 329.85 645.65
  A 2.20 2.19 -58.7 0 0 329.31 643.41
  L 328.60 642.70
  A 0.72 0.72 0.0 0 0 327.40 642.99
  L 326.21 646.81
  A 0.34 0.34 0.0 0 1 325.78 647.04
  L 325.35 646.90
  A 0.38 0.37 19.9 0 1 325.11 646.39
  Z
  M 336.41 644.70
  L 337.78 643.91
  A 0.51 0.51 0.0 0 1 338.53 644.49
  Q 337.42 648.61 334.90 651.61
  A 0.30 0.29 20.8 0 0 335.12 652.09
  L 336.64 652.15
  A 0.51 0.51 0.0 0 1 337.03 652.96
  Q 334.44 656.48 330.90 657.94
  A 1.26 1.25 64.0 0 0 330.29 659.73
  L 330.62 660.30
  A 1.28 1.28 0.0 0 0 332.21 660.85
  Q 338.59 658.30 341.37 651.06
  A 0.62 0.59 -80.1 0 0 340.81 650.22
  Q 340.37 650.23 340.08 649.99
  A 0.80 0.79 27.4 0 1 339.81 649.16
  Q 341.28 643.92 340.52 641.47
  Q 339.08 636.83 336.74 632.49
  A 0.24 0.24 0.0 0 0 336.28 632.59
  L 335.87 644.38
  A 0.36 0.36 0.0 0 0 336.41 644.70
  Z
  M 238.36 710.22
  Q 239.27 703.79 244.90 701.82
  A 0.41 0.41 0.0 0 1 245.25 702.55
  Q 240.74 705.40 239.91 710.57
  A 1.47 1.46 13.3 0 0 240.93 712.21
  L 244.30 713.26
  A 1.22 1.21 9.6 0 0 245.88 712.14
  Q 246.07 706.38 252.17 703.31
  A 0.28 0.28 0.0 0 1 252.52 703.39
  L 252.71 703.62
  A 0.43 0.43 0.0 0 1 252.61 704.24
  Q 247.80 707.53 247.28 712.97
  A 0.60 0.59 -87.4 0 0 247.87 713.62
  Q 256.76 713.64 265.43 710.59
  A 0.74 0.74 0.0 0 0 265.91 709.81
  Q 265.57 707.30 263.29 704.70
  Q 257.73 698.34 249.66 698.94
  C 242.52 699.48 238.31 702.98 237.39 710.01
  A 0.32 0.32 0.0 0 0 237.61 710.36
  L 237.97 710.47
  A 0.30 0.30 0.0 0 0 238.36 710.22
  Z
  M 323.55 715.31
  L 323.75 716.48
  Q 323.30 716.39 323.44 716.99
  Q 323.56 717.53 324.02 717.49
  Q 324.25 718.01 324.72 717.76
  A 0.04 0.04 0.0 0 0 324.75 717.72
  Q 324.75 717.60 324.75 717.47
  Q 328.68 720.19 333.29 720.05
  A 0.85 0.82 10.8 0 0 334.02 719.57
  Q 334.58 718.37 334.00 716.79
  Q 333.71 713.31 331.94 710.46
  A 0.40 0.40 0.0 0 1 332.20 709.86
  L 332.25 709.84
  A 0.80 0.80 0.0 0 1 333.10 710.20
  Q 335.07 713.35 335.89 716.87
  Q 334.85 722.49 343.83 719.68
  A 1.33 1.33 0.0 0 0 344.75 718.57
  Q 345.11 715.30 344.12 713.25
  L 341.41 708.46
  A 0.40 0.40 0.0 0 1 341.95 707.91
  C 345.02 709.53 346.37 714.10 346.61 717.38
  A 0.59 0.59 0.0 0 0 347.52 717.84
  C 349.90 716.32 348.99 712.03 347.82 710.27
  Q 346.17 707.77 342.08 704.57
  A 3.26 3.22 -21.2 0 0 340.56 703.91
  Q 330.21 702.29 323.47 709.65
  A 2.60 2.52 -20.0 0 0 322.83 710.97
  Q 322.40 713.49 323.55 715.31
  Z"
/>
<path fill="#b28182" d="
  M 360.75 471.77
  Q 360.17 473.39 359.90 475.02
  A 3.89 3.66 -30.7 0 1 359.67 475.82
  Q 353.37 491.40 345.27 505.46
  A 3.34 3.31 -1.7 0 1 344.15 506.64
  L 315.55 525.15
  A 0.46 0.46 0.0 0 1 314.86 524.66
  Q 315.32 522.67 316.96 518.95
  Q 322.41 506.53 331.01 494.00
  Q 332.66 491.59 335.13 489.63
  Q 349.26 478.39 360.20 471.34
  A 0.37 0.37 0.0 0 1 360.75 471.77
  Z
  M 331.44 508.17
  Q 330.45 510.30 329.12 511.48
  Q 325.69 514.55 323.33 517.39
  A 0.23 0.23 0.0 0 0 323.64 517.73
  L 342.03 504.56
  A 0.50 0.49 24.3 0 0 341.69 503.67
  L 337.47 504.06
  A 0.52 0.52 0.0 0 1 337.06 503.18
  L 347.84 492.39
  A 0.32 0.32 0.0 0 0 347.58 491.84
  L 343.14 492.25
  A 0.62 0.62 0.0 0 1 342.63 491.22
  L 349.91 483.41
  A 0.04 0.04 0.0 0 0 349.91 483.37
  L 349.71 483.11
  A 0.31 0.31 0.0 0 0 349.28 483.06
  L 332.84 496.09
  A 0.39 0.38 29.7 0 0 333.03 496.77
  Q 335.15 497.06 336.44 496.34
  A 0.52 0.51 83.8 0 1 337.18 496.94
  C 336.63 498.86 334.31 499.72 333.28 501.05
  Q 332.91 501.52 327.62 507.01
  A 0.62 0.62 0.0 0 0 328.19 508.04
  L 330.91 507.49
  A 0.48 0.48 0.0 0 1 331.44 508.17
  Z"
/>
<path fill="#b28182" d="
  M 339.41 480.01
  A 0.34 0.34 0.0 0 1 339.79 480.57
  L 331.02 487.23
  A 0.70 0.70 0.0 0 0 330.88 487.37
  Q 321.34 499.25 313.75 509.91
  Q 312.45 511.74 311.00 513.82
  Q 309.55 515.90 308.71 517.48
  Q 308.42 518.04 305.56 521.06
  A 0.27 0.27 0.0 0 1 305.12 520.74
  Q 306.28 518.65 311.45 510.94
  Q 313.48 507.91 324.87 491.86
  Q 326.92 488.97 329.09 486.65
  A 7.60 7.25 4.4 0 1 330.63 485.39
  L 339.41 480.01
  Z"
/>
<path fill="#fbfcfa" d="
  M 330.91 507.49
  L 328.19 508.04
  A 0.62 0.62 0.0 0 1 327.62 507.01
  Q 332.91 501.52 333.28 501.05
  C 334.31 499.72 336.63 498.86 337.18 496.94
  A 0.52 0.51 83.8 0 0 336.44 496.34
  Q 335.15 497.06 333.03 496.77
  A 0.39 0.38 29.7 0 1 332.84 496.09
  L 349.28 483.06
  A 0.31 0.31 0.0 0 1 349.71 483.11
  L 349.91 483.37
  A 0.04 0.04 0.0 0 1 349.91 483.41
  L 342.63 491.22
  A 0.62 0.62 0.0 0 0 343.14 492.25
  L 347.58 491.84
  A 0.32 0.32 0.0 0 1 347.84 492.39
  L 337.06 503.18
  A 0.52 0.52 0.0 0 0 337.47 504.06
  L 341.69 503.67
  A 0.50 0.49 24.3 0 1 342.03 504.56
  L 323.64 517.73
  A 0.23 0.23 0.0 0 1 323.33 517.39
  Q 325.69 514.55 329.12 511.48
  Q 330.45 510.30 331.44 508.17
  A 0.48 0.48 0.0 0 0 330.91 507.49
  Z"
/>
<path fill="#fbfcfa" d="
  M 305.96 533.72
  Q 301.96 531.73 299.26 531.66
  Q 293.39 531.49 288.23 532.96
  A 2.57 2.55 -87.3 0 0 286.55 534.50
  Q 285.45 537.30 284.29 539.56
  Q 282.49 543.05 280.55 553.42
  Q 282.52 554.97 284.20 556.29
  Q 286.40 558.01 287.55 559.48
  Q 293.93 567.61 289.67 577.20
  Q 282.11 579.55 275.13 579.41
  C 276.13 570.45 263.17 575.18 259.61 576.89
  A 1.01 1.00 -29.9 0 1 258.36 576.56
  C 254.63 571.25 251.92 567.16 252.95 560.26
  A 3.44 3.35 65.6 0 1 253.43 558.93
  C 255.66 555.37 257.31 554.02 260.52 552.10
  A 2.57 2.55 -5.7 0 0 261.62 550.77
  Q 264.08 544.02 262.73 536.25
  Q 263.94 533.34 260.20 530.94
  Q 258.89 530.10 257.32 530.05
  Q 256.95 530.04 256.15 529.56
  L 258.78 527.10
  A 1.30 1.30 0.0 0 1 260.40 526.98
  Q 262.50 528.40 263.72 530.81
  A 2.96 2.96 0.0 0 1 264.03 532.25
  L 263.46 548.62
  A 0.65 0.65 0.0 0 0 264.05 549.29
  Q 264.73 549.36 267.15 549.23
  C 270.66 549.04 274.29 550.09 277.25 551.79
  A 0.78 0.78 0.0 0 0 278.40 551.27
  Q 280.69 540.48 285.89 530.65
  A 1.72 1.63 -89.8 0 1 286.49 530.02
  Q 291.98 526.75 298.72 528.13
  Q 303.74 529.15 305.96 533.72
  Z
  M 261.49 569.75
  A 0.13 0.13 0.0 0 0 261.65 569.75
  L 264.66 567.35
  A 0.83 0.82 42.9 0 1 265.63 567.32
  L 272.93 572.34
  A 0.44 0.44 0.0 0 0 273.55 572.23
  L 273.87 571.76
  A 0.20 0.19 -55.9 0 0 273.82 571.48
  L 265.96 566.07
  A 1.23 1.23 0.0 0 1 265.43 565.02
  L 265.55 561.62
  A 0.79 0.79 0.0 0 1 266.02 560.93
  Q 269.40 559.41 271.27 558.28
  Q 272.43 557.57 272.64 557.14
  A 1.72 1.55 22.2 0 0 271.57 554.92
  C 268.38 553.84 261.71 552.07 259.21 554.69
  A 0.77 0.76 50.0 0 0 259.13 555.64
  Q 261.87 559.65 264.04 560.96
  A 0.82 0.81 -74.4 0 1 264.44 561.68
  L 264.31 565.24
  A 1.04 1.02 67.1 0 1 264.05 565.90
  L 261.23 569.00
  A 0.40 0.39 -50.2 0 0 261.28 569.58
  L 261.49 569.75
  Z"
/>
<path fill="#b28182" d="
  M 256.15 529.56
  Q 256.95 530.04 257.32 530.05
  Q 258.89 530.10 260.20 530.94
  Q 263.94 533.34 262.73 536.25
  Q 260.23 533.46 256.17 531.82
  A 0.85 0.84 1.0 0 1 255.70 531.34
  Q 255.30 530.37 256.15 529.56
  Z"
/>
<path fill="#b28182" d="
  M 305.96 533.72
  L 304.58 536.09
  A 0.70 0.70 0.0 0 1 303.80 536.43
  Q 300.89 535.70 298.04 535.07
  Q 288.22 532.91 284.83 542.15
  Q 282.77 547.78 280.55 553.42
  Q 282.49 543.05 284.29 539.56
  Q 285.45 537.30 286.55 534.50
  A 2.57 2.55 -87.3 0 1 288.23 532.96
  Q 293.39 531.49 299.26 531.66
  Q 301.96 531.73 305.96 533.72
  Z"
/>
<path fill="#b28182" d="
  M 302.55 544.29
  Q 301.52 544.49 299.13 542.38
  A 1.06 1.05 -46.0 0 0 297.71 542.41
  L 296.74 543.33
  Q 297.64 539.82 296.29 536.84
  A 0.28 0.28 0.0 0 1 296.58 536.44
  C 300.17 536.86 302.16 541.07 302.55 544.29
  Z"
/>
<ellipse fill="#fbfcfa" cx="0.00" cy="0.00" transform="translate(260.34,538.52) rotate(-78.2)" rx="1.39" ry="1.03"/>
<rect fill="#fbfcfa" x="-1.54" y="-1.80" transform="translate(293.43,540.13) rotate(3.0)" width="3.08" height="3.60" rx="1.41"/>
<path fill="#fbfcfa" d="
  M 255.78 539.93
  L 256.01 542.36
  A 0.25 0.12 52.0 0 0 256.03 542.45
  Q 257.47 545.30 261.27 543.72
  A 0.14 0.14 0.0 0 1 261.46 543.86
  L 260.84 549.42
  A 0.47 0.46 -5.7 0 1 260.51 549.82
  Q 256.57 551.02 254.78 546.95
  Q 253.93 545.01 254.29 543.92
  Q 254.70 542.69 255.33 539.90
  A 0.23 0.23 0.0 0 1 255.78 539.93
  Z"
/>
<path fill="#fbfcfa" d="
  M 302.55 544.29
  Q 303.38 546.79 303.18 549.21
  A 1.30 1.30 0.0 0 1 302.74 550.09
  C 298.83 553.54 294.09 555.27 288.98 553.75
  Q 288.09 553.49 284.34 552.55
  A 0.93 0.93 0.0 0 1 283.64 551.81
  Q 283.50 551.07 284.16 550.34
  A 1.43 1.40 66.9 0 0 284.52 549.42
  Q 284.57 547.21 285.56 544.64
  A 0.69 0.69 0.0 0 1 286.86 544.66
  Q 287.51 546.51 289.27 547.30
  C 292.49 548.74 295.70 546.52 296.74 543.33
  L 297.71 542.41
  A 1.06 1.05 -46.0 0 1 299.13 542.38
  Q 301.52 544.49 302.55 544.29
  Z"
/>
<path fill="#b28182" d="
  M 250.31 548.11
  A 0.42 0.42 0.0 0 1 251.01 548.55
  Q 249.27 552.27 247.31 554.31
  A 0.41 0.41 0.0 0 0 247.56 555.00
  L 249.15 555.17
  A 0.85 0.85 0.0 0 1 249.75 556.49
  L 246.48 561.24
  A 1.01 1.01 0.0 0 0 246.46 562.37
  L 248.65 565.75
  A 0.32 0.32 0.0 0 1 248.50 566.22
  L 248.20 566.34
  A 0.10 0.09 -24.9 0 1 248.08 566.30
  L 245.32 561.67
  A 0.65 0.64 -40.5 0 1 245.38 560.93
  L 247.82 557.97
  A 0.48 0.48 0.0 0 0 247.59 557.20
  L 244.84 556.34
  A 0.74 0.73 -61.8 0 1 244.49 555.17
  L 250.31 548.11
  Z"
/>
<path fill="#383d44" d="
  M 261.23 569.00
  L 264.05 565.90
  A 1.04 1.02 67.1 0 0 264.31 565.24
  L 264.44 561.68
  A 0.82 0.81 -74.4 0 0 264.04 560.96
  Q 261.87 559.65 259.13 555.64
  A 0.77 0.76 50.0 0 1 259.21 554.69
  C 261.71 552.07 268.38 553.84 271.57 554.92
  A 1.72 1.55 22.2 0 1 272.64 557.14
  Q 272.43 557.57 271.27 558.28
  Q 269.40 559.41 266.02 560.93
  A 0.79 0.79 0.0 0 0 265.55 561.62
  L 265.43 565.02
  A 1.23 1.23 0.0 0 0 265.96 566.07
  L 273.82 571.48
  A 0.20 0.19 -55.9 0 1 273.87 571.76
  L 273.55 572.23
  A 0.44 0.44 0.0 0 1 272.93 572.34
  L 265.63 567.32
  A 0.83 0.82 42.9 0 0 264.66 567.35
  L 261.65 569.75
  A 0.13 0.13 0.0 0 1 261.49 569.75
  L 261.28 569.58
  A 0.40 0.39 -50.2 0 1 261.23 569.00
  Z
  M 271.29 557.12
  A 0.76 0.75 -54.3 0 0 271.08 555.82
  Q 266.17 554.04 261.40 554.45
  A 1.04 1.04 0.0 0 0 260.67 556.13
  L 262.92 558.97
  A 2.81 2.80 -27.8 0 0 265.95 559.90
  Q 269.02 558.93 271.29 557.12
  Z"
/>
<path fill="#b28182" d="
  M 271.29 557.12
  Q 269.02 558.93 265.95 559.90
  A 2.81 2.80 -27.8 0 1 262.92 558.97
  L 260.67 556.13
  A 1.04 1.04 0.0 0 1 261.40 554.45
  Q 266.17 554.04 271.08 555.82
  A 0.76 0.75 -54.3 0 1 271.29 557.12
  Z"
/>
<path fill="#fbfcfa" d="
  M 269.14 585.63
  Q 268.45 587.91 265.96 589.23
  Q 265.00 589.63 267.78 590.97
  L 267.35 593.43
  A 0.91 0.89 -8.1 0 1 266.85 594.08
  Q 266.40 594.31 266.26 594.49
  Q 262.61 599.20 257.14 600.83
  A 2.30 2.11 36.2 0 1 256.33 600.92
  L 250.39 600.54
  C 244.92 595.16 248.09 589.13 251.02 583.14
  A 0.98 0.95 58.0 0 0 251.12 582.67
  L 250.72 576.34
  A 1.72 1.72 0.0 0 1 253.50 574.89
  Q 254.87 575.98 255.88 577.99
  A 0.81 0.81 0.0 0 1 255.83 578.80
  L 254.08 581.33
  A 0.42 0.42 0.0 0 0 254.66 581.91
  Q 259.54 578.55 266.02 576.48
  C 268.85 575.57 274.82 574.63 273.48 579.91
  A 1.43 1.41 78.3 0 1 273.00 580.65
  C 270.58 582.61 266.59 582.77 263.45 583.45
  A 0.41 0.41 0.0 0 0 263.52 584.26
  Q 266.29 584.33 269.14 585.63
  Z"
/>
<path fill="#176cac" d="
  M 296.51 592.57
  L 302.33 586.67
  A 0.64 0.64 0.0 0 0 301.75 585.60
  L 276.11 590.78
  A 0.98 0.96 -84.1 0 0 275.40 591.37
  Q 275.00 592.34 274.89 593.91
  A 1.14 1.14 0.0 0 0 275.69 595.09
  L 281.50 596.89
  A 0.65 0.65 0.0 0 1 281.28 598.16
  L 275.87 597.97
  A 2.10 2.09 9.2 0 0 273.78 599.47
  Q 273.00 602.18 271.20 604.10
  A 0.80 0.80 0.0 0 0 271.42 605.36
  C 274.24 606.79 276.51 607.05 279.71 605.96
  Q 281.88 605.23 287.50 603.56
  Q 289.66 602.91 298.08 598.04
  A 3.25 3.12 -83.7 0 0 298.86 597.39
  Q 300.52 595.48 302.72 593.25
  Q 303.52 592.45 302.72 590.88
  C 306.00 588.59 309.60 585.95 313.00 584.41
  Q 316.37 582.88 319.35 581.31
  A 0.73 0.73 0.0 0 1 320.32 581.59
  L 322.47 585.31
  A 1.23 1.23 0.0 0 1 321.04 587.10
  L 319.29 586.55
  A 4.27 4.26 -54.9 0 0 315.47 587.22
  C 313.72 588.54 310.96 590.65 308.94 592.79
  Q 305.44 596.49 301.69 599.40
  Q 298.29 602.04 293.18 604.16
  C 285.95 607.17 279.74 610.70 273.74 609.92
  A 1.29 1.17 -21.2 0 1 273.17 609.70
  L 265.64 604.09
  A 0.68 0.68 0.0 0 1 265.85 602.90
  Q 270.99 601.35 272.38 596.70
  A 0.96 0.87 56.2 0 0 272.42 596.43
  L 272.31 586.82
  A 0.51 0.50 -2.4 0 1 272.79 586.31
  Q 278.56 586.02 286.26 585.39
  Q 289.88 585.10 295.70 583.96
  C 302.53 582.62 311.47 581.19 317.65 575.89
  Q 318.56 575.11 319.54 574.76
  A 1.02 1.01 78.9 0 1 320.89 575.67
  Q 321.01 578.02 320.50 579.47
  A 1.14 1.13 1.0 0 1 319.77 580.17
  C 311.21 582.87 304.05 587.88 296.51 592.57
  Z"
/>
<path fill="#b28182" d="
  M 289.67 577.20
  C 286.94 580.78 283.86 584.00 279.21 584.12
  Q 275.07 584.23 270.39 584.13
  A 0.25 0.25 0.0 0 1 270.30 583.65
  Q 271.38 583.18 272.42 582.63
  Q 274.80 581.37 275.13 579.41
  Q 282.11 579.55 289.67 577.20
  Z"
/>
<path fill="#0c9cf0" d="
  M 296.51 592.57
  Q 295.14 593.11 294.47 594.37
  A 0.31 0.31 0.0 0 0 294.88 594.79
  L 302.72 590.88
  Q 303.52 592.45 302.72 593.25
  Q 300.52 595.48 298.86 597.39
  A 3.25 3.12 -83.7 0 1 298.08 598.04
  Q 289.66 602.91 287.50 603.56
  Q 281.88 605.23 279.71 605.96
  C 276.51 607.05 274.24 606.79 271.42 605.36
  A 0.80 0.80 0.0 0 1 271.20 604.10
  Q 273.00 602.18 273.78 599.47
  A 2.10 2.09 9.2 0 1 275.87 597.97
  L 281.28 598.16
  A 0.65 0.65 0.0 0 0 281.50 596.89
  L 275.69 595.09
  A 1.14 1.14 0.0 0 1 274.89 593.91
  Q 275.00 592.34 275.40 591.37
  A 0.98 0.96 -84.1 0 1 276.11 590.78
  L 301.75 585.60
  A 0.64 0.64 0.0 0 1 302.33 586.67
  L 296.51 592.57
  Z"
/>
<path fill="#b28182" d="
  M 269.14 585.63
  Q 270.93 587.53 270.80 590.27
  A 0.40 0.40 0.0 0 1 270.28 590.63
  L 265.96 589.23
  Q 268.45 587.91 269.14 585.63
  Z"
/>
<path fill="#b28182" d="
  M 250.39 600.54
  L 256.33 600.92
  A 2.30 2.11 36.2 0 0 257.14 600.83
  Q 262.61 599.20 266.26 594.49
  Q 266.40 594.31 266.85 594.08
  A 0.91 0.89 -8.1 0 0 267.35 593.43
  L 267.78 590.97
  C 273.00 593.05 271.08 598.85 266.82 600.47
  A 0.29 0.29 0.0 0 1 266.44 600.12
  Q 266.45 600.10 268.12 598.15
  A 0.44 0.43 38.2 0 0 268.04 597.51
  L 267.78 597.34
  A 0.30 0.29 -51.6 0 0 267.38 597.39
  Q 264.26 600.96 260.41 602.98
  C 256.65 604.95 252.90 603.78 250.39 600.54
  Z"
/>
<path fill="#b28182" d="
  M 244.91 595.42
  A 0.40 0.39 -49.0 0 1 245.51 595.37
  L 245.70 595.56
  A 0.20 0.19 38.4 0 1 245.73 595.80
  L 243.55 599.49
  A 0.39 0.18 -25.1 0 0 243.50 599.55
  L 236.69 609.46
  A 2.74 2.72 66.0 0 0 236.22 610.70
  L 235.47 617.55
  A 0.33 0.33 0.0 0 1 234.81 617.56
  Q 233.73 610.00 238.22 604.31
  Q 241.41 600.26 244.91 595.42
  Z"
/>
<path fill="#176cac" d="
  M 302.21 652.04
  C 303.40 647.87 304.93 643.81 302.91 639.62
  Q 300.58 634.76 298.80 630.57
  A 1.02 0.99 49.1 0 1 298.85 629.67
  L 299.01 629.40
  A 0.22 0.22 0.0 0 1 299.39 629.40
  L 304.72 638.63
  A 0.15 0.15 0.0 0 0 305.00 638.55
  Q 304.63 629.13 304.66 624.94
  C 304.69 617.97 303.48 612.33 303.10 605.26
  A 0.46 0.46 0.0 0 0 302.37 604.91
  C 294.73 610.29 285.39 613.42 276.30 615.23
  A 0.93 0.93 0.0 0 0 275.55 616.23
  L 276.66 628.21
  A 1.01 1.01 0.0 0 0 277.29 629.05
  C 280.48 630.36 285.85 630.11 288.94 630.22
  A 0.33 0.33 0.0 0 1 289.26 630.57
  L 289.26 630.84
  A 0.13 0.13 0.0 0 1 289.12 630.96
  L 277.72 630.89
  A 1.06 1.06 0.0 0 0 276.65 631.92
  L 276.18 645.81
  L 275.25 633.98
  L 274.84 630.88
  A 0.67 0.66 5.6 0 0 274.38 630.33
  L 266.51 627.88
  A 0.43 0.42 55.5 0 1 266.66 627.05
  Q 270.11 627.31 274.12 628.72
  A 0.53 0.53 0.0 0 0 274.82 628.18
  L 273.68 615.94
  A 2.52 2.49 12.5 0 0 272.44 614.01
  L 265.76 610.15
  A 1.49 1.49 0.0 0 0 263.86 610.51
  Q 261.68 613.26 260.57 617.27
  Q 260.01 619.32 259.80 626.23
  L 259.95 605.56
  A 1.65 1.65 0.0 0 1 262.57 604.23
  Q 266.97 607.44 273.26 612.10
  Q 274.36 612.92 274.10 614.54
  A 0.28 0.28 0.0 0 0 274.37 614.86
  L 274.66 614.87
  A 0.17 0.17 0.0 0 0 274.83 614.70
  Q 274.85 612.95 276.15 612.63
  Q 283.47 610.80 287.68 608.44
  C 291.07 606.54 292.67 606.25 296.67 604.69
  A 0.45 0.12 -14.9 0 0 296.74 604.65
  L 304.41 599.68
  A 0.35 0.35 0.0 0 1 304.94 600.00
  Q 304.57 606.15 305.64 609.97
  Q 306.28 612.26 309.45 616.66
  A 1.69 1.68 84.8 0 0 310.12 617.22
  Q 312.22 618.23 314.12 617.15
  A 0.73 0.72 76.3 0 1 315.20 617.81
  L 315.03 622.56
  A 2.11 2.08 63.5 0 1 314.67 623.67
  C 310.17 630.14 306.68 635.21 307.23 642.00
  Q 307.39 644.07 309.75 648.01
  A 0.55 0.55 0.0 0 1 309.50 648.79
  L 302.21 652.04
  Z"
/>
<path fill="#0c9cf0" d="
  M 302.21 652.04
  Q 290.34 655.78 277.92 653.67
  A 0.70 0.70 0.0 0 1 277.34 653.09
  L 276.18 645.81
  L 276.65 631.92
  A 1.06 1.06 0.0 0 1 277.72 630.89
  L 289.12 630.96
  A 0.13 0.13 0.0 0 0 289.26 630.84
  L 289.26 630.57
  A 0.33 0.33 0.0 0 0 288.94 630.22
  C 285.85 630.11 280.48 630.36 277.29 629.05
  A 1.01 1.01 0.0 0 1 276.66 628.21
  L 275.55 616.23
  A 0.93 0.93 0.0 0 1 276.30 615.23
  C 285.39 613.42 294.73 610.29 302.37 604.91
  A 0.46 0.46 0.0 0 1 303.10 605.26
  C 303.48 612.33 304.69 617.97 304.66 624.94
  Q 304.63 629.13 305.00 638.55
  A 0.15 0.15 0.0 0 1 304.72 638.63
  L 299.39 629.40
  A 0.22 0.22 0.0 0 0 299.01 629.40
  L 298.85 629.67
  A 1.02 0.99 49.1 0 0 298.80 630.57
  Q 300.58 634.76 302.91 639.62
  C 304.93 643.81 303.40 647.87 302.21 652.04
  Z"
/>
<path fill="#0c9cf0" d="
  M 275.25 633.98
  Q 273.56 643.64 275.40 652.86
  A 0.29 0.28 -0.6 0 1 275.07 653.19
  C 270.10 652.32 261.30 649.74 257.74 645.81
  A 3.09 3.08 -61.4 0 1 256.98 643.22
  L 259.80 626.23
  Q 260.01 619.32 260.57 617.27
  Q 261.68 613.26 263.86 610.51
  A 1.49 1.49 0.0 0 1 265.76 610.15
  L 272.44 614.01
  A 2.52 2.49 12.5 0 1 273.68 615.94
  L 274.82 628.18
  A 0.53 0.53 0.0 0 1 274.12 628.72
  Q 270.11 627.31 266.66 627.05
  A 0.43 0.42 55.5 0 0 266.51 627.88
  L 274.38 630.33
  A 0.67 0.66 5.6 0 1 274.84 630.88
  L 275.25 633.98
  Z"
/>
<path fill="#fbfcfa" d="
  M 325.11 646.39
  A 0.38 0.37 19.9 0 0 325.35 646.90
  L 325.78 647.04
  A 0.34 0.34 0.0 0 0 326.21 646.81
  L 327.40 642.99
  A 0.72 0.72 0.0 0 1 328.60 642.70
  L 329.31 643.41
  A 2.20 2.19 -58.7 0 1 329.85 645.65
  Q 327.80 651.95 320.29 651.45
  A 3.62 3.47 -30.2 0 1 319.09 651.16
  Q 318.49 650.89 314.14 648.36
  Q 308.65 645.18 308.82 638.26
  A 3.66 3.61 -30.9 0 1 309.23 636.67
  L 313.01 629.31
  A 0.91 0.90 28.4 0 1 314.27 628.94
  L 324.66 634.94
  A 4.68 4.66 -74.4 0 1 326.99 639.09
  Q 326.93 642.13 325.11 646.39
  Z"
/>
<path fill="#fbfcfa" d="
  M 335.87 644.38
  L 336.28 632.59
  A 0.24 0.24 0.0 0 1 336.74 632.49
  Q 339.08 636.83 340.52 641.47
  Q 341.28 643.92 339.81 649.16
  A 0.80 0.79 27.4 0 0 340.08 649.99
  Q 340.37 650.23 340.81 650.22
  A 0.62 0.59 -80.1 0 1 341.37 651.06
  Q 338.59 658.30 332.21 660.85
  A 1.28 1.28 0.0 0 1 330.62 660.30
  L 330.29 659.73
  A 1.26 1.25 64.0 0 1 330.90 657.94
  Q 334.44 656.48 337.03 652.96
  A 0.51 0.51 0.0 0 0 336.64 652.15
  L 335.12 652.09
  A 0.30 0.29 20.8 0 1 334.90 651.61
  Q 337.42 648.61 338.53 644.49
  A 0.51 0.51 0.0 0 0 337.78 643.91
  L 336.41 644.70
  A 0.36 0.36 0.0 0 1 335.87 644.38
  Z"
/>
<path fill="#fbfcfa" d="
  M 238.36 710.22
  A 0.30 0.30 0.0 0 1 237.97 710.47
  L 237.61 710.36
  A 0.32 0.32 0.0 0 1 237.39 710.01
  C 238.31 702.98 242.52 699.48 249.66 698.94
  Q 257.73 698.34 263.29 704.70
  Q 265.57 707.30 265.91 709.81
  A 0.74 0.74 0.0 0 1 265.43 710.59
  Q 256.76 713.64 247.87 713.62
  A 0.60 0.59 -87.4 0 1 247.28 712.97
  Q 247.80 707.53 252.61 704.24
  A 0.43 0.43 0.0 0 0 252.71 703.62
  L 252.52 703.39
  A 0.28 0.28 0.0 0 0 252.17 703.31
  Q 246.07 706.38 245.88 712.14
  A 1.22 1.21 9.6 0 1 244.30 713.26
  L 240.93 712.21
  A 1.47 1.46 13.3 0 1 239.91 710.57
  Q 240.74 705.40 245.25 702.55
  A 0.41 0.41 0.0 0 0 244.90 701.82
  Q 239.27 703.79 238.36 710.22
  Z"
/>
<path fill="#fbfcfa" d="
  M 344.12 713.25
  Q 343.20 714.74 341.25 715.24
  Q 338.44 715.96 335.89 716.87
  Q 335.07 713.35 333.10 710.20
  A 0.80 0.80 0.0 0 0 332.25 709.84
  L 332.20 709.86
  A 0.40 0.40 0.0 0 0 331.94 710.46
  Q 333.71 713.31 334.00 716.79
  L 323.55 715.31
  Q 322.40 713.49 322.83 710.97
  A 2.60 2.52 -20.0 0 1 323.47 709.65
  Q 330.21 702.29 340.56 703.91
  A 3.26 3.22 -21.2 0 1 342.08 704.57
  Q 346.17 707.77 347.82 710.27
  C 348.99 712.03 349.90 716.32 347.52 717.84
  A 0.59 0.59 0.0 0 1 346.61 717.38
  C 346.37 714.10 345.02 709.53 341.95 707.91
  A 0.40 0.40 0.0 0 0 341.41 708.46
  L 344.12 713.25
  Z"
/>
<path fill="#b28182" d="
  M 335.89 716.87
  Q 338.44 715.96 341.25 715.24
  Q 343.20 714.74 344.12 713.25
  Q 345.11 715.30 344.75 718.57
  A 1.33 1.33 0.0 0 1 343.83 719.68
  Q 334.85 722.49 335.89 716.87
  Z"
/>
<path fill="#b28182" d="
  M 334.00 716.79
  Q 334.58 718.37 334.02 719.57
  A 0.85 0.82 10.8 0 1 333.29 720.05
  Q 328.68 720.19 324.75 717.47
  L 323.75 716.48
  L 323.55 715.31
  L 334.00 716.79
  Z"
/>
<path fill="#383d44" d="
  M 324.75 717.47
  L 324.02 717.49
  L 323.75 716.48
  L 324.75 717.47
  Z"
/>
</svg>
