<?xml version="1.0" encoding="UTF-8" standalone="no"?>
<!DOCTYPE svg PUBLIC "-//W3C//DTD SVG 1.1//EN" "http://www.w3.org/Graphics/SVG/1.1/DTD/svg11.dtd">
<svg xmlns="http://www.w3.org/2000/svg" version="1.1" viewBox="0.00 0.00 1080.00 1080.00">
<g stroke-width="2.00" fill="none" stroke-linecap="butt">
<path stroke="#2e333a" vector-effect="non-scaling-stroke" d="
  M 774.46 503.00
  Q 774.81 503.11 774.85 502.75
  Q 774.92 502.11 774.51 501.99"
/>
<path stroke="#909195" vector-effect="non-scaling-stroke" d="
  M 782.61 477.62
  Q 780.39 478.15 781.70 481.19"
/>
<path stroke="#6b4f55" vector-effect="non-scaling-stroke" d="
  M 781.70 481.19
  Q 782.69 482.41 784.91 481.40
  Q 787.89 480.04 790.45 477.07"
/>
<path stroke="#2e333a" vector-effect="non-scaling-stroke" d="
  M 790.45 477.07
  Q 791.93 477.54 790.31 479.36"
/>
<path stroke="#6b4f55" vector-effect="non-scaling-stroke" d="
  M 790.31 479.36
  Q 789.21 479.34 788.87 480.18
  A 0.77 0.77 0.0 0 0 789.07 481.04
  C 791.58 483.33 791.30 491.82 790.83 494.96"
/>
<path stroke="#2e333a" vector-effect="non-scaling-stroke" d="
  M 790.83 494.96
  Q 790.81 495.38 790.47 495.68
  Q 790.21 495.91 789.66 495.94
  Q 783.49 496.27 781.06 490.23
  A 0.49 0.49 0.0 0 0 780.17 490.21
  L 779.30 492.01"
/>
<path stroke="#6b4f55" vector-effect="non-scaling-stroke" d="
  M 779.30 492.01
  L 774.17 499.24
  A 0.59 0.59 0.0 0 0 774.61 500.17
  L 776.27 500.29
  A 0.76 0.76 0.0 0 1 776.91 501.35
  L 775.63 504.34
  A 0.81 0.80 43.0 0 0 775.66 505.07
  Q 777.22 507.88 779.91 510.05"
/>
<path stroke="#2e333a" vector-effect="non-scaling-stroke" d="
  M 779.91 510.05
  Q 782.62 514.44 788.36 515.85"
/>
<path stroke="#909195" vector-effect="non-scaling-stroke" d="
  M 788.36 515.85
  L 789.20 516.59"
/>
<path stroke="#6b4f55" vector-effect="non-scaling-stroke" d="
  M 789.20 516.59
  C 791.37 518.98 794.25 520.18 798.07 521.93
  C 801.56 523.53 807.75 521.67 811.21 520.71
  Q 814.07 519.91 816.87 515.14"
/>
<path stroke="#909195" vector-effect="non-scaling-stroke" d="
  M 816.87 515.14
  L 817.12 514.98"
/>
<path stroke="#2e333a" vector-effect="non-scaling-stroke" d="
  M 817.12 514.98
  C 821.41 513.40 827.25 512.24 830.57 509.93
  Q 837.38 505.20 840.29 496.69
  A 1.16 1.15 -56.3 0 0 840.06 495.53
  C 839.11 494.46 836.91 494.02 836.91 492.30
  C 836.91 488.16 836.69 484.22 835.43 479.80
  Q 833.07 471.47 833.09 470.93
  A 0.75 0.74 -74.8 0 0 832.70 470.24
  L 830.78 469.20
  A 0.71 0.70 -67.8 0 1 830.44 468.38
  Q 834.02 455.98 841.18 445.71
  Q 842.89 443.27 844.08 440.49
  A 0.50 0.50 0.0 0 1 844.91 440.34
  Q 852.98 449.04 862.85 457.57
  Q 867.63 461.70 873.39 462.46
  A 1.82 1.82 0.0 0 0 875.36 460.09
  C 873.34 453.90 870.67 449.66 866.27 441.76
  Q 863.92 437.53 860.93 437.03
  A 1.22 0.09 4.4 0 0 860.80 437.01
  L 856.69 436.79
  A 0.54 0.54 0.0 0 0 856.13 437.45
  Q 856.21 437.74 856.66 438.20
  A 0.36 0.36 0.0 0 1 856.74 438.59
  L 856.59 438.93
  A 0.50 0.49 -56.9 0 1 855.80 439.10
  Q 851.57 435.18 846.67 433.43
  Q 845.16 432.89 842.82 433.37
  A 1.59 1.59 0.0 0 0 841.88 433.96
  C 840.08 436.34 838.52 438.01 836.90 440.55
  C 832.51 447.46 828.66 453.33 825.62 459.42
  Q 824.73 461.21 823.14 463.04
  A 0.02 0.02 0.0 0 1 823.11 463.05
  L 822.32 462.83
  A 0.11 0.11 0.0 0 1 822.24 462.67
  L 822.99 460.92
  A 1.12 1.11 -66.3 0 0 822.43 459.46
  Q 814.23 455.70 805.72 454.21
  A 0.45 0.44 64.3 0 0 805.43 455.04
  Q 806.41 455.57 807.33 457.14
  A 0.35 0.35 0.0 0 1 807.06 457.66
  L 794.64 458.93
  A 0.46 0.46 0.0 0 0 794.65 459.84
  L 798.87 460.14
  A 0.31 0.31 0.0 0 1 799.02 460.71
  L 791.68 465.54
  A 0.36 0.36 0.0 0 0 791.91 466.20
  L 797.43 465.63
  A 0.82 0.82 0.0 0 1 798.30 466.67
  L 797.24 470.48
  A 0.54 0.54 0.0 0 0 798.06 471.08
  L 803.16 467.72
  A 0.51 0.51 0.0 0 1 803.95 468.18
  L 803.88 469.22
  A 0.48 0.48 0.0 0 1 803.37 469.67
  C 801.25 469.57 798.25 472.17 796.43 473.64
  A 0.69 0.69 0.0 0 1 795.33 472.92
  L 796.75 467.82
  A 0.58 0.57 -87.7 0 0 796.09 467.10
  L 789.38 468.30
  A 0.25 0.23 -66.4 0 0 789.27 468.35
  Q 786.97 470.02 786.10 471.57
  Q 785.68 472.30 784.03 474.13
  Q 782.73 475.56 782.61 477.62"
/>
<path stroke="#9b9ea1" vector-effect="non-scaling-stroke" d="
  M 817.12 514.98
  Q 819.95 505.94 812.76 499.74
  Q 810.53 497.82 807.95 496.42"
/>
<path stroke="#765c61" vector-effect="non-scaling-stroke" d="
  M 807.95 496.42
  L 811.08 485.15"
/>
<path stroke="#2e333a" vector-effect="non-scaling-stroke" d="
  M 811.08 485.15
  Q 811.13 487.10 811.75 486.50"
/>
<path stroke="#765c61" vector-effect="non-scaling-stroke" d="
  M 811.75 486.50
  L 810.34 494.33"
/>
<path stroke="#9b9ea1" vector-effect="non-scaling-stroke" d="
  M 810.34 494.33
  Q 810.86 496.00 816.14 495.88"
/>
<path stroke="#2e333a" vector-effect="non-scaling-stroke" d="
  M 816.14 495.88
  Q 820.80 497.38 825.01 494.11
  Q 827.43 492.23 828.08 489.09
  Q 828.97 484.85 827.55 481.32"
/>
<path stroke="#765c61" vector-effect="non-scaling-stroke" d="
  M 827.55 481.32
  L 828.47 478.85"
/>
<path stroke="#9b9ea1" vector-effect="non-scaling-stroke" d="
  M 828.47 478.85
  L 814.24 472.28"
/>
<path stroke="#2e333a" vector-effect="non-scaling-stroke" d="
  M 814.24 472.28
  Q 813.63 470.95 811.27 472.38
  A 0.91 0.91 0.0 0 0 810.83 473.14
  Q 810.81 475.28 812.08 477.10"
/>
<path stroke="#9b9ea1" vector-effect="non-scaling-stroke" d="
  M 812.08 477.10
  C 807.92 482.41 806.54 488.35 805.90 494.65
  A 0.51 0.51 0.0 0 1 805.17 495.06
  Q 799.40 492.27 792.62 494.42"
/>
<path stroke="#765c61" vector-effect="non-scaling-stroke" d="
  M 792.62 494.42
  Q 791.95 489.91 791.87 485.25
  Q 791.83 483.10 790.31 479.36"
/>
<path stroke="#765c61" vector-effect="non-scaling-stroke" d="
  M 790.45 477.07
  Q 791.22 475.80 790.79 474.36"
/>
<path stroke="#9b9ea1" vector-effect="non-scaling-stroke" d="
  M 790.79 474.36
  Q 790.12 472.65 788.43 473.09
  A 1.64 1.63 -71.7 0 0 787.80 473.41
  L 782.61 477.62"
/>
<path stroke="#d8babc" vector-effect="non-scaling-stroke" d="
  M 828.47 478.85
  Q 821.53 481.33 814.50 475.40
  Q 813.72 474.74 812.89 475.26"
/>
<path stroke="#765c61" vector-effect="non-scaling-stroke" d="
  M 791.04 495.53
  Q 790.97 495.20 790.83 494.96"
/>
<path stroke="#d8babc" vector-effect="non-scaling-stroke" d="
  M 813.22 478.22
  Q 808.90 483.05 808.17 490.01
  Q 807.85 493.09 807.95 496.42"
/>
<path stroke="#d8babc" vector-effect="non-scaling-stroke" d="
  M 816.87 515.14
  Q 815.57 515.09 814.40 515.66
  C 811.66 517.00 808.95 517.83 805.21 519.19
  C 800.37 520.93 794.55 518.46 790.01 516.39
  Q 789.56 516.19 789.20 516.59"
/>
<path stroke="#9b9ea1" vector-effect="non-scaling-stroke" d="
  M 788.36 515.85
  Q 784.62 512.83 784.15 509.00
  Q 783.11 500.54 790.41 496.42
  Q 790.71 496.26 791.04 495.53"
/>
<path stroke="#d8babc" vector-effect="non-scaling-stroke" d="
  M 791.04 495.53
  Q 791.27 494.61 792.62 494.42"
/>
<path stroke="#909195" vector-effect="non-scaling-stroke" d="
  M 814.24 472.28
  L 812.51 473.61
  A 0.71 0.70 -30.7 0 0 812.29 474.46
  Q 812.47 474.86 812.89 475.26"
/>
<path stroke="#6b4f55" vector-effect="non-scaling-stroke" d="
  M 812.89 475.26
  Q 813.46 477.09 815.17 478.31
  Q 821.46 482.84 827.55 481.32"
/>
<path stroke="#909195" vector-effect="non-scaling-stroke" d="
  M 816.14 495.88
  L 814.39 492.41"
/>
<path stroke="#6b4f55" vector-effect="non-scaling-stroke" d="
  M 814.39 492.41
  Q 813.45 487.05 815.93 484.48
  C 818.42 481.89 821.26 484.43 822.17 487.08"
/>
<path stroke="#909195" vector-effect="non-scaling-stroke" d="
  M 822.17 487.08
  Q 823.33 490.80 821.66 494.24
  A 0.35 0.35 0.0 0 0 822.17 494.68
  L 825.65 492.40
  A 1.21 1.20 -20.9 0 0 826.17 491.24
  Q 825.78 488.60 824.46 486.28"
/>
<path stroke="#6b4f55" vector-effect="non-scaling-stroke" d="
  M 824.46 486.28
  L 823.24 484.02
  A 1.18 1.16 84.0 0 0 822.55 483.45
  Q 820.01 482.68 818.22 481.75
  A 3.44 3.43 35.6 0 0 814.18 482.41
  Q 812.68 483.98 811.75 486.50"
/>
<path stroke="#6b4f55" vector-effect="non-scaling-stroke" d="
  M 811.08 485.15
  Q 812.01 482.09 814.86 480.46
  A 0.52 0.51 -29.7 0 0 815.06 479.75
  Q 814.53 478.81 813.22 478.22"
/>
<path stroke="#909195" vector-effect="non-scaling-stroke" d="
  M 813.22 478.22
  Q 812.94 477.34 812.08 477.10"
/>
<path stroke="#d8babc" vector-effect="non-scaling-stroke" d="
  M 790.79 474.36
  L 781.70 481.19"
/>
<path stroke="#d8babc" vector-effect="non-scaling-stroke" d="
  M 824.46 486.28
  Q 823.93 485.98 823.45 485.91
  A 0.81 0.79 -69.7 0 0 822.65 486.29
  L 822.17 487.08"
/>
<path stroke="#d8babc" vector-effect="non-scaling-stroke" d="
  M 814.39 492.41
  Q 813.37 491.00 812.51 491.41
  A 0.43 0.41 -2.6 0 0 812.31 491.62
  Q 811.74 492.88 810.34 494.33"
/>
<path stroke="#765c61" vector-effect="non-scaling-stroke" d="
  M 779.91 510.05
  L 777.43 505.58
  A 1.78 1.76 41.9 0 1 777.34 504.00
  L 779.08 499.97
  A 0.71 0.71 0.0 0 0 778.27 499.00
  Q 777.33 499.22 776.85 498.81
  A 0.70 0.69 38.1 0 1 776.73 497.87
  Q 778.01 496.07 779.83 492.36
  Q 779.98 492.06 779.30 492.01"
/>
<path stroke="#6b4f55" vector-effect="non-scaling-stroke" d="
  M 771.00 438.38
  Q 771.62 438.03 771.88 437.66
  A 0.44 0.44 0.0 0 0 771.50 436.97
  L 767.21 437.15
  A 1.27 1.24 31.6 0 0 766.77 437.25
  Q 764.79 438.12 763.61 439.61
  Q 756.61 448.44 751.53 459.12"
/>
<path stroke="#2e333a" vector-effect="non-scaling-stroke" d="
  M 751.53 459.12
  Q 751.29 459.91 752.37 460.68
  A 1.28 1.27 -32.7 0 0 753.34 460.89
  Q 759.70 459.71 765.03 455.02
  Q 776.88 444.62 780.10 441.30
  Q 782.36 438.98 783.51 437.36
  A 0.88 0.87 -42.9 0 1 784.98 437.41
  Q 786.50 439.95 787.94 443.96
  C 789.54 448.42 791.90 452.15 793.99 456.45
  A 1.09 1.08 76.7 0 0 794.96 457.05
  L 795.86 457.05
  A 0.51 0.51 0.0 0 0 796.34 456.38
  Q 792.59 445.65 785.76 436.32
  A 2.40 2.36 85.3 0 0 784.97 435.64
  C 781.16 433.70 774.44 436.80 771.46 439.25
  A 0.32 0.31 45.7 0 1 771.04 439.24
  Q 770.75 438.97 771.00 438.38"
/>
<path stroke="#765c61" vector-effect="non-scaling-stroke" d="
  M 751.53 459.12
  Q 757.15 452.87 760.95 445.57
  A 4.01 3.99 79.8 0 1 761.51 444.76
  Q 763.46 442.48 765.55 440.31
  Q 766.89 438.92 771.00 438.38"
/>
<path stroke="#6b4f55" vector-effect="non-scaling-stroke" d="
  M 832.75 466.59
  L 850.73 452.48
  A 0.26 0.25 54.7 0 0 850.78 452.14
  L 845.20 443.65
  A 0.41 0.40 -42.9 0 0 844.54 443.63
  Q 836.39 454.19 832.31 466.27
  A 0.29 0.28 80.6 0 0 832.75 466.59"
/>
<path stroke="#6b4f55" vector-effect="non-scaling-stroke" d="
  M 789.31 459.08
  Q 789.60 458.47 789.34 457.94
  Q 786.99 452.99 782.73 444.87
  A 0.78 0.78 0.0 0 0 781.42 444.75
  L 776.85 450.46
  A 1.46 1.45 -49.4 0 0 777.00 452.45
  L 789.79 464.14
  A 0.97 0.97 0.0 0 0 791.37 463.16
  Q 790.83 461.23 789.44 459.86
  A 0.69 0.68 -54.9 0 1 789.31 459.08"
/>
<path stroke="#909195" vector-effect="non-scaling-stroke" d="
  M 786.51 494.04
  C 785.04 491.46 784.12 483.66 788.56 483.15
  A 0.60 0.60 0.0 0 0 788.90 482.11
  L 788.43 481.69
  A 1.23 1.23 0.0 0 0 786.93 481.57
  Q 783.71 483.69 782.97 488.51
  Q 782.21 493.50 786.21 494.43
  A 0.27 0.27 0.0 0 0 786.51 494.04"
/>
<path stroke="#909195" vector-effect="non-scaling-stroke" d="
  M 789.1020 486.0227
  A 0.94 0.94 0.0 0 0 788.2194 485.0286
  L 788.0197 485.0167
  A 0.94 0.94 0.0 0 0 787.0256 485.8993
  L 786.9580 487.0373
  A 0.94 0.94 0.0 0 0 787.8406 488.0314
  L 788.0403 488.0433
  A 0.94 0.94 0.0 0 0 789.0344 487.1607
  L 789.1020 486.0227"
/>
<path stroke="#17618e" vector-effect="non-scaling-stroke" d="
  M 784.75 521.72
  L 785.70 522.68"
/>
<path stroke="#2e333a" vector-effect="non-scaling-stroke" d="
  M 785.70 522.68
  Q 787.23 525.02 787.09 526.07"
/>
<path stroke="#17618e" vector-effect="non-scaling-stroke" d="
  M 787.09 526.07
  Q 786.64 528.72 787.34 530.46
  A 1.83 1.78 -83.2 0 0 787.93 531.23
  C 791.15 533.70 792.36 534.90 795.52 537.14
  Q 797.29 538.39 799.42 540.61
  Q 803.85 545.21 810.13 542.19
  C 817.81 538.50 823.88 536.07 829.22 530.59
  Q 832.37 527.35 834.21 525.87
  Q 834.80 525.39 839.24 520.86
  A 1.57 1.57 0.0 0 1 840.98 520.51
  L 843.00 521.38
  A 0.72 0.72 0.0 0 0 843.95 520.45
  L 841.95 515.55"
/>
<path stroke="#2e333a" vector-effect="non-scaling-stroke" d="
  M 841.95 515.55
  Q 842.36 514.21 842.27 512.22
  A 1.11 1.11 0.0 0 0 840.53 511.36
  Q 838.74 512.60 836.72 514.19
  C 832.79 517.28 825.27 519.26 820.51 520.30
  Q 813.05 521.93 805.82 523.59
  C 801.84 524.51 798.98 524.36 795.57 522.67
  Q 791.49 520.66 786.01 517.59
  A 0.88 0.88 0.0 0 0 784.74 518.07
  Q 783.81 520.79 784.75 521.72"
/>
<path stroke="#226d9a" vector-effect="non-scaling-stroke" d="
  M 841.95 515.55
  L 837.73 518.52
  A 0.55 0.31 -61.0 0 0 837.65 518.57
  Q 833.41 520.87 829.77 523.70
  Q 827.10 525.78 819.52 529.88
  Q 817.14 531.17 815.40 530.94
  A 0.35 0.34 -57.9 0 1 815.26 530.31
  Q 818.19 528.35 819.14 528.40
  A 0.41 0.39 -65.4 0 0 819.48 528.26
  L 823.64 523.71
  A 1.15 0.99 4.2 0 1 823.95 523.48
  Q 826.02 522.50 827.33 521.20
  A 0.38 0.38 0.0 0 0 827.06 520.55
  Q 826.12 520.58 825.22 521.06
  Q 822.16 522.69 819.59 522.93
  A 3.19 3.13 26.0 0 0 818.24 523.38
  Q 817.05 524.12 815.41 524.14
  A 2.97 2.96 35.1 0 0 814.42 524.31
  Q 811.58 525.32 807.98 526.31
  Q 803.20 527.62 798.08 526.06
  Q 792.43 524.35 785.81 520.03
  A 0.63 0.62 44.4 0 0 785.12 520.03
  Q 784.44 520.49 784.75 521.72"
/>
<path stroke="#226d9a" vector-effect="non-scaling-stroke" d="
  M 787.09 526.07
  L 798.30 533.52
  A 1.89 1.81 60.7 0 0 799.32 533.83
  L 807.69 533.83
  A 0.66 0.66 0.0 0 0 807.84 532.53
  Q 806.43 532.20 805.49 531.23
  A 1.13 1.12 68.0 0 0 804.72 530.90
  Q 804.13 530.89 795.98 529.13
  Q 794.00 528.70 791.97 527.27
  Q 788.88 525.10 785.70 522.68"
/>
<path stroke="#2e333a" vector-effect="non-scaling-stroke" d="
  M 859.24 528.50
  Q 853.94 532.64 848.41 540.98
  A 0.39 0.39 0.0 0 1 847.72 540.90
  Q 847.33 539.87 847.36 539.36
  A 2.60 2.56 -24.6 0 1 847.90 537.94
  L 850.26 534.85
  A 0.82 0.82 0.0 0 0 850.30 533.90
  L 843.87 524.13
  A 1.98 1.95 -6.8 0 0 842.85 523.34
  Q 841.64 522.94 841.02 522.41
  A 0.71 0.71 0.0 0 0 839.98 522.55
  C 837.32 526.41 834.63 530.32 834.26 535.11
  A 1.61 1.59 26.3 0 0 834.67 536.30
  Q 836.93 538.80 840.87 542.12
  C 845.57 546.08 849.05 549.76 854.32 546.89
  Q 855.95 546.00 859.05 541.98
  Q 861.53 538.75 864.01 535.80"
/>
<path stroke="#909195" vector-effect="non-scaling-stroke" d="
  M 864.01 535.80
  Q 869.71 534.92 875.23 534.98
  Q 881.16 535.04 883.61 529.75
  C 884.69 527.43 882.16 525.65 880.00 526.93
  A 2.06 1.99 1.0 0 0 879.40 527.49
  Q 877.77 529.81 877.15 530.44
  A 0.47 0.47 0.0 0 1 876.40 529.89
  C 877.65 527.57 878.64 525.16 881.15 524.77
  Q 884.51 524.25 885.26 528.18
  A 0.65 0.65 0.0 0 0 886.41 528.46
  L 888.56 525.77
  A 0.96 0.92 -19.7 0 0 888.75 525.39
  Q 889.49 522.35 885.69 522.35
  A 2.71 2.62 35.7 0 0 884.93 522.46
  L 879.16 524.24
  A 0.29 0.28 64.5 0 1 878.83 524.12
  L 878.68 523.90
  A 0.51 0.50 60.5 0 1 878.88 523.17
  C 881.17 522.04 884.94 520.03 888.13 520.93
  A 0.55 0.55 0.0 0 0 888.81 520.23
  Q 888.10 518.02 885.83 518.84
  C 880.72 520.70 876.17 522.73 871.11 520.71
  A 0.35 0.35 0.0 0 1 871.24 520.03
  Q 875.06 519.96 875.64 515.16
  C 875.85 513.47 874.44 511.78 872.46 512.75
  Q 871.79 513.08 871.15 514.36
  Q 869.75 517.15 867.12 518.58
  C 862.67 521.02 860.35 523.47 859.24 528.50"
/>
<path stroke="#9b9ea1" vector-effect="non-scaling-stroke" d="
  M 864.01 535.80
  Q 859.12 533.11 859.24 528.50"
/>
<path stroke="#6b4f55" vector-effect="non-scaling-stroke" d="
  M 742.34 530.78
  Q 743.97 536.25 750.25 537.01
  Q 753.66 537.43 757.14 537.33
  Q 757.23 537.33 759.18 537.73
  Q 760.46 537.99 761.94 536.74"
/>
<path stroke="#2e333a" vector-effect="non-scaling-stroke" d="
  M 761.94 536.74
  Q 765.88 542.36 771.20 546.56
  C 773.07 548.03 775.04 549.81 777.07 548.64
  Q 782.82 545.33 786.97 540.69
  A 1.89 1.82 69.1 0 0 787.43 539.60
  L 787.79 534.59
  A 1.27 1.22 31.2 0 0 787.58 533.81
  L 785.43 530.53
  A 0.69 0.67 29.1 0 1 785.32 530.16
  L 785.43 526.66
  A 0.31 0.31 0.0 0 0 784.88 526.46
  L 777.36 535.87
  A 1.91 1.90 -38.3 0 0 777.12 537.85
  Q 777.97 539.72 778.11 540.90
  A 0.40 0.40 0.0 0 1 777.36 541.13
  Q 776.83 540.13 775.44 538.55
  Q 771.45 534.02 766.66 529.63"
/>
<path stroke="#909195" vector-effect="non-scaling-stroke" d="
  M 766.66 529.63
  Q 765.65 528.28 765.00 526.27
  C 764.19 523.79 763.24 522.41 761.17 521.45
  Q 755.81 518.96 754.23 515.04
  A 1.05 1.03 82.4 0 0 753.41 514.40
  C 751.61 514.14 750.04 515.46 750.79 517.62
  Q 751.87 520.77 754.72 522.20
  A 0.31 0.30 49.5 0 1 754.68 522.76
  C 749.79 524.26 745.75 523.10 741.30 520.72
  Q 739.73 519.87 737.99 521.14
  A 0.87 0.87 0.0 0 0 738.61 522.71
  Q 742.24 522.29 747.13 525.13
  A 0.01 0.01 0.0 0 1 747.14 525.14
  L 747.12 525.74
  A 0.36 0.36 0.0 0 1 746.64 526.07
  C 744.07 525.21 739.97 523.15 737.73 525.02
  A 1.59 1.59 0.0 0 0 737.50 527.22
  L 740.17 530.61
  A 0.32 0.32 0.0 0 0 740.74 530.41
  C 740.69 528.80 742.30 526.27 744.35 526.59
  C 748.13 527.17 747.73 529.18 749.78 531.41
  A 0.26 0.26 0.0 0 1 749.63 531.85
  L 749.20 531.92
  A 0.05 0.03 -13.3 0 1 749.17 531.91
  Q 747.46 530.09 745.44 528.51
  Q 744.56 527.83 743.62 528.27
  Q 742.26 528.91 742.34 530.78"
/>
<path stroke="#9b9ea1" vector-effect="non-scaling-stroke" d="
  M 766.66 529.63
  Q 765.75 534.33 762.85 536.01"
/>
<path stroke="#d8babc" vector-effect="non-scaling-stroke" d="
  M 762.85 536.01
  C 759.47 533.42 753.92 534.90 751.27 534.53
  C 749.43 534.27 747.60 533.72 745.48 532.36
  Q 744.01 531.42 742.34 530.78"
/>
<path stroke="#765c61" vector-effect="non-scaling-stroke" d="
  M 761.94 536.74
  Q 761.95 536.60 762.85 536.01"
/>
<path stroke="#2e333a" vector-effect="non-scaling-stroke" d="
  M 805.58 545.58
  Q 805.20 545.40 804.87 546.12
  A 0.39 0.39 0.0 0 1 804.15 546.12
  L 803.96 545.63
  A 0.37 0.34 -87.6 0 0 803.85 545.50
  L 790.38 536.00
  A 0.37 0.37 0.0 0 0 789.81 536.21
  Q 789.46 537.66 789.71 539.23"
/>
<path stroke="#17618e" vector-effect="non-scaling-stroke" d="
  M 789.71 539.23
  Q 789.57 546.92 790.14 554.49
  C 790.30 556.56 790.05 559.56 789.57 561.57
  Q 788.25 567.07 787.10 572.71
  A 1.51 1.50 -65.7 0 0 787.66 574.21
  Q 794.74 579.55 805.08 581.26"
/>
<path stroke="#2e333a" vector-effect="non-scaling-stroke" d="
  M 805.08 581.26
  L 807.17 581.96"
/>
<path stroke="#17618e" vector-effect="non-scaling-stroke" d="
  M 807.17 581.96
  Q 817.14 582.86 826.53 580.14
  C 831.06 578.82 834.66 576.19 838.95 574.22
  Q 839.59 573.93 842.30 571.09
  A 0.87 0.86 -32.3 0 0 842.50 570.21
  Q 839.05 559.79 838.02 549.28
  A 1.24 1.21 11.2 0 0 837.35 548.30
  C 836.46 547.85 835.60 548.32 834.65 547.36
  C 830.80 543.52 829.60 538.26 829.89 533.02
  A 0.38 0.38 0.0 0 0 829.25 532.73
  C 823.04 538.72 813.69 542.99 805.58 545.58"
/>
<path stroke="#226d9a" vector-effect="non-scaling-stroke" d="
  M 807.17 581.96
  Q 805.28 571.58 806.39 561.54
  A 0.68 0.67 -87.2 0 1 807.06 560.93
  L 816.76 560.93
  A 0.32 0.32 0.0 0 0 817.08 560.61
  L 817.08 560.33
  A 0.24 0.23 2.7 0 0 816.86 560.10
  L 807.06 559.40
  A 0.94 0.94 0.0 0 1 806.19 558.51
  L 805.58 545.58"
/>
<path stroke="#226d9a" vector-effect="non-scaling-stroke" d="
  M 805.08 581.26
  Q 803.36 571.34 805.01 561.87
  A 1.13 1.12 7.8 0 0 804.01 560.56
  Q 801.02 560.26 797.80 558.59
  A 0.32 0.32 0.0 0 1 798.00 557.99
  L 804.02 558.98
  A 0.47 0.47 0.0 0 0 804.55 558.43
  Q 803.71 553.95 803.91 548.99
  C 804.01 546.45 801.31 545.61 799.53 544.89
  A 3.35 3.16 73.2 0 1 798.66 544.39
  Q 794.65 541.18 789.71 539.23"
/>
<path stroke="#909195" vector-effect="non-scaling-stroke" d="
  M 854.97 572.70
  L 855.39 572.42
  A 0.44 0.44 0.0 0 1 856.06 572.85
  Q 855.51 576.77 852.88 579.50
  A 0.62 0.61 52.5 0 0 852.79 580.21
  Q 853.02 580.63 853.93 580.31
  A 0.40 0.40 0.0 0 1 854.36 580.95
  Q 852.73 582.80 850.40 584.07
  A 0.77 0.76 -30.9 0 0 850.12 585.16
  L 851.26 586.89
  A 0.59 0.58 55.9 0 0 852.08 587.05
  Q 855.95 584.37 858.00 580.03
  A 1.09 1.07 -49.2 0 0 857.93 578.96
  L 857.55 578.38
  A 1.29 1.26 -59.2 0 1 857.35 577.54
  L 858.06 571.75
  A 1.40 1.31 -53.8 0 0 857.98 571.10
  L 854.71 562.62
  A 0.43 0.43 0.0 0 0 853.89 562.87
  Q 854.96 567.45 854.31 572.29
  A 0.43 0.43 0.0 0 0 854.97 572.70"
/>
<path stroke="#2e333a" vector-effect="non-scaling-stroke" d="
  M 786.05 606.73
  C 790.57 606.66 794.60 606.60 796.61 602.88
  Q 799.22 598.07 800.36 593.05
  A 0.73 0.73 0.0 0 1 801.00 592.49
  Q 803.16 592.31 809.98 593.25
  C 815.73 594.05 819.53 595.45 824.60 599.52
  Q 829.76 603.66 831.08 604.70
  C 835.58 608.24 838.65 609.59 844.01 609.58
  A 2.02 2.01 -74.3 0 0 845.73 608.61
  C 849.54 602.38 847.58 595.66 844.44 589.76
  Q 840.57 582.49 831.79 581.76
  C 828.65 581.49 825.33 582.45 820.89 583.27
  C 808.87 585.51 798.80 582.66 788.15 576.98
  A 0.79 0.78 26.6 0 0 787.06 577.34
  Q 783.39 585.24 780.70 594.33
  C 779.11 599.72 782.47 604.59 785.79 608.83
  A 0.27 0.27 0.0 0 0 786.18 608.87
  L 786.23 608.82
  A 0.40 0.39 -45.4 0 0 786.23 608.21
  Q 785.73 607.81 785.59 607.35
  A 0.49 0.48 -8.6 0 1 786.05 606.73"
/>
<path stroke="#909195" vector-effect="non-scaling-stroke" d="
  M 780.57 619.47
  L 775.38 620.32
  A 2.88 2.66 -59.8 0 0 774.70 620.53
  Q 769.22 623.13 768.61 629.51
  A 0.08 0.07 7.6 0 0 768.68 629.59
  L 769.01 629.61
  A 0.27 0.26 -81.3 0 0 769.29 629.40
  Q 770.51 623.93 775.17 621.87
  A 0.34 0.34 0.0 0 1 775.50 622.46
  Q 771.80 625.11 770.64 630.04
  A 0.88 0.88 0.0 0 0 770.96 630.95
  Q 772.73 632.32 775.68 632.01
  A 0.71 0.71 0.0 0 0 776.30 631.47
  Q 776.78 629.56 776.81 629.10
  A 1.81 1.75 -32.6 0 1 776.98 628.39
  Q 778.31 625.49 781.40 624.13
  A 0.41 0.41 0.0 0 1 781.81 624.83
  Q 778.05 627.62 777.60 631.82
  A 0.77 0.77 0.0 0 0 778.41 632.67
  Q 785.98 632.23 793.89 629.44
  A 0.41 0.40 68.9 0 0 794.13 628.89
  L 792.93 626.19"
/>
<path stroke="#2e333a" vector-effect="non-scaling-stroke" d="
  M 792.93 626.19
  L 800.22 622.52
  A 0.65 0.65 0.0 0 0 800.35 621.45
  C 793.92 615.97 787.90 618.65 780.57 619.47"
/>
<path stroke="#9b9ea1" vector-effect="non-scaling-stroke" d="
  M 792.93 626.19
  Q 788.40 619.80 780.57 619.47"
/>
<path stroke="#909195" vector-effect="non-scaling-stroke" d="
  M 843.77 630.51
  L 844.83 634.50
  A 1.24 1.16 13.0 0 0 845.27 635.16
  Q 848.94 637.99 853.76 637.93
  A 0.62 0.62 0.0 0 0 854.38 637.30
  Q 854.36 633.64 852.05 629.61
  A 0.38 0.38 0.0 0 1 852.27 629.06
  Q 852.38 629.03 852.52 629.06
  Q 852.93 629.17 853.10 629.37
  Q 856.01 632.97 855.78 636.55
  A 1.38 1.37 -88.2 0 0 857.15 638.01
  L 861.56 638.01
  A 2.01 2.01 0.0 0 0 863.56 635.85
  Q 863.22 631.35 860.15 627.62
  A 0.37 0.37 0.0 0 1 860.65 627.08
  Q 864.75 630.05 864.82 635.59
  A 0.45 0.45 0.0 0 0 865.62 635.86
  L 866.40 634.88
  A 2.99 2.99 0.0 0 0 867.06 632.87
  C 866.81 627.40 862.74 625.35 858.48 623.04"
/>
<path stroke="#2e333a" vector-effect="non-scaling-stroke" d="
  M 858.48 623.04
  L 854.21 618.84
  A 0.95 0.92 60.8 0 0 853.37 618.59
  Q 847.93 619.72 845.37 621.87
  Q 841.87 624.81 843.77 630.51"
/>
<path stroke="#9b9ea1" vector-effect="non-scaling-stroke" d="
  M 858.48 623.04
  Q 848.38 622.82 843.77 630.51"
/>
<path stroke="#909195" vector-effect="non-scaling-stroke" d="
  M 817.7465 485.2505
  A 1.78 1.49 -91.4 0 0 816.3004 487.0664
  A 1.78 1.49 -91.4 0 0 817.8335 488.8095
  A 1.78 1.49 -91.4 0 0 819.2796 486.9936
  A 1.78 1.49 -91.4 0 0 817.7465 485.2505"
/>
<path stroke="#909195" vector-effect="non-scaling-stroke" d="
  M 795.82 505.19
  L 795.82 508.60
  A 0.94 0.93 -17.0 0 1 795.40 509.38
  Q 793.32 510.76 792.05 512.10
  A 0.46 0.46 0.0 0 0 792.63 512.80
  L 796.06 510.55
  A 1.93 1.92 -49.8 0 1 797.88 510.39
  L 806.34 514.03
  A 0.35 0.35 0.0 0 0 806.83 513.71
  L 806.83 513.36
  A 0.91 0.89 -78.8 0 0 806.30 512.55
  L 797.33 508.70
  A 1.02 0.99 -78.6 0 1 796.73 507.77
  L 796.73 504.91
  A 0.32 0.30 71.6 0 1 796.84 504.67
  L 801.85 500.74
  A 1.37 1.37 0.0 0 0 801.37 498.35
  Q 796.24 496.91 791.04 498.16
  A 1.20 1.20 0.0 0 0 790.38 500.08
  Q 792.55 502.76 795.46 504.55
  A 0.75 0.75 0.0 0 1 795.82 505.19"
/>
<path stroke="#6b4f55" vector-effect="non-scaling-stroke" d="
  M 795.42 503.52
  A 1.37 1.37 0.0 0 0 797.26 503.53
  L 800.97 500.20
  A 0.63 0.63 0.0 0 0 800.67 499.12
  Q 796.10 498.22 792.09 499.07
  A 0.66 0.66 0.0 0 0 791.78 500.20
  L 795.42 503.52"
/>
<path stroke="#9b9ea1" vector-effect="non-scaling-stroke" d="
  M 863.36 526.53
  Q 868.03 524.81 872.75 527.23
  A 0.41 0.41 0.0 0 0 873.22 526.57
  C 870.81 524.23 865.67 523.20 863.11 526.17
  A 0.23 0.23 0.0 0 0 863.36 526.53"
/>
<path stroke="#9b9ea1" vector-effect="non-scaling-stroke" d="
  M 752.52 529.67
  C 755.82 528.85 758.82 526.21 762.11 529.35
  A 0.49 0.49 0.0 0 0 762.80 529.34
  L 762.82 529.32
  A 0.47 0.47 0.0 0 0 762.82 528.67
  C 759.80 525.44 755.28 526.38 752.20 529.04
  A 0.37 0.36 -72.2 0 0 752.52 529.67"
/>
</g>
<path fill="#23262e" d="
  M 774.46 503.00
  Q 774.81 503.11 774.85 502.75
  Q 774.92 502.11 774.51 501.99
  Q 773.65 501.08 772.71 500.65
  A 0.73 0.73 0.0 0 1 772.42 499.56
  L 778.68 490.68
  A 4.29 4.25 -25.7 0 0 779.45 488.51
  L 780.19 478.34
  A 2.66 2.58 -26.2 0 1 780.66 477.02
  L 786.58 468.63
  A 0.65 0.64 -49.0 0 0 786.53 467.82
  L 774.71 454.66
  A 1.13 1.13 0.0 0 0 773.08 454.60
  Q 770.69 456.89 765.63 460.39
  Q 756.56 466.67 745.97 469.81
  A 0.57 0.57 0.0 0 1 745.27 469.08
  C 748.83 458.64 754.31 450.53 761.67 439.92
  Q 763.64 437.09 765.97 436.29
  A 4.05 4.04 -57.6 0 1 766.81 436.10
  C 770.22 435.74 773.25 436.07 777.22 434.50
  Q 781.02 432.99 784.81 433.90
  A 1.61 1.60 75.0 0 1 785.64 434.38
  Q 787.55 436.38 789.08 438.90
  Q 793.96 447.00 797.45 455.79
  A 1.77 1.76 81.2 0 0 798.96 456.90
  Q 800.83 457.02 803.54 456.14
  A 0.52 0.51 -15.8 0 0 803.89 455.53
  Q 803.70 454.70 802.99 454.15
  A 1.01 1.01 0.0 0 1 803.62 452.35
  Q 805.29 452.37 807.98 453.10
  Q 817.02 455.57 823.45 458.41
  A 1.20 1.20 0.0 0 0 825.00 457.89
  Q 831.35 446.16 838.61 436.11
  Q 839.73 434.57 841.43 432.96
  C 844.37 430.20 849.63 432.78 852.27 434.48
  A 4.30 4.21 64.5 0 0 854.05 435.13
  C 858.91 435.76 864.25 435.09 866.90 439.83
  Q 875.90 455.92 882.28 471.71
  A 0.40 0.40 0.0 0 1 881.81 472.25
  Q 868.42 468.95 858.18 459.57
  Q 855.16 456.80 853.93 455.74
  A 0.37 0.36 44.3 0 0 853.44 455.74
  L 838.59 469.07
  A 0.57 0.56 -34.5 0 0 838.46 469.74
  Q 841.02 475.05 842.56 481.53
  Q 843.47 485.33 844.32 487.28
  C 845.81 490.66 848.06 493.69 849.99 495.99
  A 0.43 0.43 0.0 0 1 849.80 496.68
  L 849.02 496.95
  A 0.41 0.41 0.0 0 0 848.91 497.67
  L 849.78 498.28
  A 0.49 0.49 0.0 0 1 849.74 499.10
  Q 848.46 499.81 847.21 500.02
  A 0.31 0.31 0.0 0 0 847.05 500.56
  Q 848.45 501.79 848.64 502.98
  A 0.93 0.91 64.4 0 1 848.35 503.83
  L 842.79 508.81
  A 0.82 0.81 -33.7 0 0 842.60 509.74
  Q 842.93 510.45 843.50 511.07
  A 1.89 1.84 -70.1 0 1 843.97 512.11
  C 844.15 513.57 843.63 515.57 844.35 517.30
  Q 845.28 519.54 845.14 522.56
  A 1.51 1.49 30.2 0 0 845.39 523.48
  L 851.36 532.56
  A 0.70 0.70 0.0 0 0 852.43 532.68
  Q 857.18 528.24 859.22 524.31
  C 861.28 520.35 863.04 519.03 866.67 517.07
  A 2.55 2.54 7.5 0 0 867.39 516.52
  C 868.98 514.76 869.93 512.02 872.55 511.14
  C 874.97 510.32 877.24 512.29 877.24 514.70
  Q 877.24 517.51 876.02 519.49
  A 0.52 0.52 0.0 0 0 876.56 520.28
  Q 880.48 519.57 884.18 517.55
  C 887.56 515.70 890.83 517.97 890.25 521.95
  A 1.02 0.94 -52.1 0 0 890.29 522.43
  L 890.74 523.77
  A 1.13 1.08 -46.2 0 1 890.74 524.48
  Q 889.32 528.59 885.75 530.63
  A 3.16 3.07 -87.2 0 0 884.71 531.60
  Q 881.00 537.01 871.57 536.83
  A 2.60 2.60 0.0 0 0 869.22 538.19
  Q 865.45 545.10 860.63 551.11
  Q 858.23 554.10 855.48 555.89
  A 1.90 1.88 26.9 0 1 854.51 556.20
  C 848.95 556.38 844.94 553.02 840.81 549.83
  A 0.53 0.52 17.7 0 0 839.96 550.26
  Q 840.26 557.51 842.78 565.54
  A 0.73 0.73 0.0 0 0 844.08 565.72
  Q 845.29 563.87 846.73 564.71
  A 0.86 0.84 41.0 0 0 847.68 564.65
  L 852.57 560.81
  A 1.66 1.65 54.3 0 1 854.97 561.21
  C 857.77 565.49 859.80 570.21 859.10 575.78
  A 1.04 0.94 -54.7 0 0 859.15 576.20
  L 859.76 578.03
  A 0.70 0.69 -48.4 0 1 859.78 578.46
  Q 858.21 584.83 852.62 588.10
  A 1.43 1.42 -25.5 0 0 852.00 589.83
  L 853.98 595.11
  A 0.39 0.24 -76.7 0 1 854.01 595.20
  Q 855.39 602.95 852.61 610.98
  A 2.34 2.34 0.0 0 0 852.82 612.94
  Q 857.23 620.19 864.00 624.70
  C 867.29 626.89 871.28 632.68 867.45 636.22
  C 865.75 637.78 862.34 639.26 859.81 639.56
  Q 852.00 640.51 845.33 636.81
  A 5.60 5.57 5.3 0 1 842.75 633.72
  L 836.94 616.56
  A 2.96 2.95 -87.1 0 0 835.37 614.82
  C 829.07 611.93 824.50 606.69 819.98 601.45
  A 2.67 2.52 -6.6 0 0 819.08 600.78
  Q 817.32 600.00 815.42 599.91
  A 1.48 1.46 20.6 0 0 814.19 600.46
  L 809.10 606.83
  A 1.07 1.03 -22.9 0 0 808.89 607.32
  Q 808.39 611.68 808.77 614.77
  Q 809.00 616.72 810.23 621.47
  C 811.03 624.56 810.71 625.28 807.76 626.47
  Q 799.41 629.84 786.37 633.05
  Q 781.65 634.21 778.24 633.97
  C 774.36 633.69 770.27 633.05 767.28 630.39
  A 1.11 1.11 0.0 0 1 766.93 629.40
  C 768.29 621.03 774.15 618.41 782.27 617.87
  Q 787.07 617.56 791.42 615.70
  A 0.55 0.55 0.0 0 0 791.41 614.68
  C 785.74 612.34 781.76 606.54 779.36 601.18
  Q 778.28 598.77 778.91 595.44
  C 780.25 588.47 783.83 581.45 785.90 575.80
  A 1.85 1.84 46.2 0 0 785.92 574.59
  L 785.38 573.01
  A 1.34 1.32 -47.1 0 1 785.36 572.26
  C 787.16 565.24 788.96 558.35 788.23 551.50
  A 0.79 0.79 0.0 0 0 786.98 550.95
  Q 781.16 555.18 776.94 556.84
  A 3.47 3.36 -57.2 0 1 775.95 557.07
  Q 772.63 557.38 769.77 554.93
  Q 764.14 550.09 760.48 544.78
  Q 757.47 540.43 756.81 539.68
  A 2.05 2.03 68.6 0 0 755.23 538.98
  Q 751.36 539.06 746.92 537.59
  Q 743.77 536.55 742.46 534.38
  Q 741.61 532.97 740.27 532.28
  Q 736.95 530.60 735.46 526.51
  A 1.43 1.38 -42.8 0 1 735.52 525.42
  Q 736.01 524.44 736.08 523.03
  C 736.30 518.51 739.97 518.21 743.35 519.87
  Q 745.86 521.10 750.00 522.25
  A 0.70 0.70 0.0 0 0 750.82 521.28
  Q 750.40 520.38 749.80 519.37
  C 748.42 517.03 748.93 514.36 751.38 513.12
  C 753.57 512.02 755.32 513.73 756.53 515.85
  C 758.47 519.23 762.41 519.65 764.32 521.89
  Q 766.57 524.54 767.14 527.24
  A 0.99 0.91 20.8 0 0 767.34 527.64
  L 774.53 535.64
  A 0.61 0.60 -46.5 0 0 775.45 535.61
  L 783.92 525.02
  A 1.54 1.52 45.0 0 0 783.91 523.11
  Q 781.58 520.22 783.89 516.60
  A 0.61 0.61 0.0 0 0 783.80 515.83
  C 780.28 512.38 776.88 509.42 774.23 505.18
  A 1.54 1.52 32.3 0 1 774.01 504.23
  Q 774.07 503.56 774.46 503.00
  Z
  M 782.61 477.62
  Q 780.39 478.15 781.70 481.19
  Q 782.69 482.41 784.91 481.40
  Q 787.89 480.04 790.45 477.07
  Q 791.93 477.54 790.31 479.36
  Q 789.21 479.34 788.87 480.18
  A 0.77 0.77 0.0 0 0 789.07 481.04
  C 791.58 483.33 791.30 491.82 790.83 494.96
  Q 790.81 495.38 790.47 495.68
  Q 790.21 495.91 789.66 495.94
  Q 783.49 496.27 781.06 490.23
  A 0.49 0.49 0.0 0 0 780.17 490.21
  L 779.30 492.01
  L 774.17 499.24
  A 0.59 0.59 0.0 0 0 774.61 500.17
  L 776.27 500.29
  A 0.76 0.76 0.0 0 1 776.91 501.35
  L 775.63 504.34
  A 0.81 0.80 43.0 0 0 775.66 505.07
  Q 777.22 507.88 779.91 510.05
  Q 782.62 514.44 788.36 515.85
  L 789.20 516.59
  C 791.37 518.98 794.25 520.18 798.07 521.93
  C 801.56 523.53 807.75 521.67 811.21 520.71
  Q 814.07 519.91 816.87 515.14
  L 817.12 514.98
  C 821.41 513.40 827.25 512.24 830.57 509.93
  Q 837.38 505.20 840.29 496.69
  A 1.16 1.15 -56.3 0 0 840.06 495.53
  C 839.11 494.46 836.91 494.02 836.91 492.30
  C 836.91 488.16 836.69 484.22 835.43 479.80
  Q 833.07 471.47 833.09 470.93
  A 0.75 0.74 -74.8 0 0 832.70 470.24
  L 830.78 469.20
  A 0.71 0.70 -67.8 0 1 830.44 468.38
  Q 834.02 455.98 841.18 445.71
  Q 842.89 443.27 844.08 440.49
  A 0.50 0.50 0.0 0 1 844.91 440.34
  Q 852.98 449.04 862.85 457.57
  Q 867.63 461.70 873.39 462.46
  A 1.82 1.82 0.0 0 0 875.36 460.09
  C 873.34 453.90 870.67 449.66 866.27 441.76
  Q 863.92 437.53 860.93 437.03
  A 1.22 0.09 4.4 0 0 860.80 437.01
  L 856.69 436.79
  A 0.54 0.54 0.0 0 0 856.13 437.45
  Q 856.21 437.74 856.66 438.20
  A 0.36 0.36 0.0 0 1 856.74 438.59
  L 856.59 438.93
  A 0.50 0.49 -56.9 0 1 855.80 439.10
  Q 851.57 435.18 846.67 433.43
  Q 845.16 432.89 842.82 433.37
  A 1.59 1.59 0.0 0 0 841.88 433.96
  C 840.08 436.34 838.52 438.01 836.90 440.55
  C 832.51 447.46 828.66 453.33 825.62 459.42
  Q 824.73 461.21 823.14 463.04
  A 0.02 0.02 0.0 0 1 823.11 463.05
  L 822.32 462.83
  A 0.11 0.11 0.0 0 1 822.24 462.67
  L 822.99 460.92
  A 1.12 1.11 -66.3 0 0 822.43 459.46
  Q 814.23 455.70 805.72 454.21
  A 0.45 0.44 64.3 0 0 805.43 455.04
  Q 806.41 455.57 807.33 457.14
  A 0.35 0.35 0.0 0 1 807.06 457.66
  L 794.64 458.93
  A 0.46 0.46 0.0 0 0 794.65 459.84
  L 798.87 460.14
  A 0.31 0.31 0.0 0 1 799.02 460.71
  L 791.68 465.54
  A 0.36 0.36 0.0 0 0 791.91 466.20
  L 797.43 465.63
  A 0.82 0.82 0.0 0 1 798.30 466.67
  L 797.24 470.48
  A 0.54 0.54 0.0 0 0 798.06 471.08
  L 803.16 467.72
  A 0.51 0.51 0.0 0 1 803.95 468.18
  L 803.88 469.22
  A 0.48 0.48 0.0 0 1 803.37 469.67
  C 801.25 469.57 798.25 472.17 796.43 473.64
  A 0.69 0.69 0.0 0 1 795.33 472.92
  L 796.75 467.82
  A 0.58 0.57 -87.7 0 0 796.09 467.10
  L 789.38 468.30
  A 0.25 0.23 -66.4 0 0 789.27 468.35
  Q 786.97 470.02 786.10 471.57
  Q 785.68 472.30 784.03 474.13
  Q 782.73 475.56 782.61 477.62
  Z
  M 771.00 438.38
  Q 771.62 438.03 771.88 437.66
  A 0.44 0.44 0.0 0 0 771.50 436.97
  L 767.21 437.15
  A 1.27 1.24 31.6 0 0 766.77 437.25
  Q 764.79 438.12 763.61 439.61
  Q 756.61 448.44 751.53 459.12
  Q 751.29 459.91 752.37 460.68
  A 1.28 1.27 -32.7 0 0 753.34 460.89
  Q 759.70 459.71 765.03 455.02
  Q 776.88 444.62 780.10 441.30
  Q 782.36 438.98 783.51 437.36
  A 0.88 0.87 -42.9 0 1 784.98 437.41
  Q 786.50 439.95 787.94 443.96
  C 789.54 448.42 791.90 452.15 793.99 456.45
  A 1.09 1.08 76.7 0 0 794.96 457.05
  L 795.86 457.05
  A 0.51 0.51 0.0 0 0 796.34 456.38
  Q 792.59 445.65 785.76 436.32
  A 2.40 2.36 85.3 0 0 784.97 435.64
  C 781.16 433.70 774.44 436.80 771.46 439.25
  A 0.32 0.31 45.7 0 1 771.04 439.24
  Q 770.75 438.97 771.00 438.38
  Z
  M 832.75 466.59
  L 850.73 452.48
  A 0.26 0.25 54.7 0 0 850.78 452.14
  L 845.20 443.65
  A 0.41 0.40 -42.9 0 0 844.54 443.63
  Q 836.39 454.19 832.31 466.27
  A 0.29 0.28 80.6 0 0 832.75 466.59
  Z
  M 789.31 459.08
  Q 789.60 458.47 789.34 457.94
  Q 786.99 452.99 782.73 444.87
  A 0.78 0.78 0.0 0 0 781.42 444.75
  L 776.85 450.46
  A 1.46 1.45 -49.4 0 0 777.00 452.45
  L 789.79 464.14
  A 0.97 0.97 0.0 0 0 791.37 463.16
  Q 790.83 461.23 789.44 459.86
  A 0.69 0.68 -54.9 0 1 789.31 459.08
  Z
  M 786.51 494.04
  C 785.04 491.46 784.12 483.66 788.56 483.15
  A 0.60 0.60 0.0 0 0 788.90 482.11
  L 788.43 481.69
  A 1.23 1.23 0.0 0 0 786.93 481.57
  Q 783.71 483.69 782.97 488.51
  Q 782.21 493.50 786.21 494.43
  A 0.27 0.27 0.0 0 0 786.51 494.04
  Z
  M 789.1020 486.0227
  A 0.94 0.94 0.0 0 0 788.2194 485.0286
  L 788.0197 485.0167
  A 0.94 0.94 0.0 0 0 787.0256 485.8993
  L 786.9580 487.0373
  A 0.94 0.94 0.0 0 0 787.8406 488.0314
  L 788.0403 488.0433
  A 0.94 0.94 0.0 0 0 789.0344 487.1607
  L 789.1020 486.0227
  Z
  M 784.75 521.72
  L 785.70 522.68
  Q 787.23 525.02 787.09 526.07
  Q 786.64 528.72 787.34 530.46
  A 1.83 1.78 -83.2 0 0 787.93 531.23
  C 791.15 533.70 792.36 534.90 795.52 537.14
  Q 797.29 538.39 799.42 540.61
  Q 803.85 545.21 810.13 542.19
  C 817.81 538.50 823.88 536.07 829.22 530.59
  Q 832.37 527.35 834.21 525.87
  Q 834.80 525.39 839.24 520.86
  A 1.57 1.57 0.0 0 1 840.98 520.51
  L 843.00 521.38
  A 0.72 0.72 0.0 0 0 843.95 520.45
  L 841.95 515.55
  Q 842.36 514.21 842.27 512.22
  A 1.11 1.11 0.0 0 0 840.53 511.36
  Q 838.74 512.60 836.72 514.19
  C 832.79 517.28 825.27 519.26 820.51 520.30
  Q 813.05 521.93 805.82 523.59
  C 801.84 524.51 798.98 524.36 795.57 522.67
  Q 791.49 520.66 786.01 517.59
  A 0.88 0.88 0.0 0 0 784.74 518.07
  Q 783.81 520.79 784.75 521.72
  Z
  M 859.24 528.50
  Q 853.94 532.64 848.41 540.98
  A 0.39 0.39 0.0 0 1 847.72 540.90
  Q 847.33 539.87 847.36 539.36
  A 2.60 2.56 -24.6 0 1 847.90 537.94
  L 850.26 534.85
  A 0.82 0.82 0.0 0 0 850.30 533.90
  L 843.87 524.13
  A 1.98 1.95 -6.8 0 0 842.85 523.34
  Q 841.64 522.94 841.02 522.41
  A 0.71 0.71 0.0 0 0 839.98 522.55
  C 837.32 526.41 834.63 530.32 834.26 535.11
  A 1.61 1.59 26.3 0 0 834.67 536.30
  Q 836.93 538.80 840.87 542.12
  C 845.57 546.08 849.05 549.76 854.32 546.89
  Q 855.95 546.00 859.05 541.98
  Q 861.53 538.75 864.01 535.80
  Q 869.71 534.92 875.23 534.98
  Q 881.16 535.04 883.61 529.75
  C 884.69 527.43 882.16 525.65 880.00 526.93
  A 2.06 1.99 1.0 0 0 879.40 527.49
  Q 877.77 529.81 877.15 530.44
  A 0.47 0.47 0.0 0 1 876.40 529.89
  C 877.65 527.57 878.64 525.16 881.15 524.77
  Q 884.51 524.25 885.26 528.18
  A 0.65 0.65 0.0 0 0 886.41 528.46
  L 888.56 525.77
  A 0.96 0.92 -19.7 0 0 888.75 525.39
  Q 889.49 522.35 885.69 522.35
  A 2.71 2.62 35.7 0 0 884.93 522.46
  L 879.16 524.24
  A 0.29 0.28 64.5 0 1 878.83 524.12
  L 878.68 523.90
  A 0.51 0.50 60.5 0 1 878.88 523.17
  C 881.17 522.04 884.94 520.03 888.13 520.93
  A 0.55 0.55 0.0 0 0 888.81 520.23
  Q 888.10 518.02 885.83 518.84
  C 880.72 520.70 876.17 522.73 871.11 520.71
  A 0.35 0.35 0.0 0 1 871.24 520.03
  Q 875.06 519.96 875.64 515.16
  C 875.85 513.47 874.44 511.78 872.46 512.75
  Q 871.79 513.08 871.15 514.36
  Q 869.75 517.15 867.12 518.58
  C 862.67 521.02 860.35 523.47 859.24 528.50
  Z
  M 742.34 530.78
  Q 743.97 536.25 750.25 537.01
  Q 753.66 537.43 757.14 537.33
  Q 757.23 537.33 759.18 537.73
  Q 760.46 537.99 761.94 536.74
  Q 765.88 542.36 771.20 546.56
  C 773.07 548.03 775.04 549.81 777.07 548.64
  Q 782.82 545.33 786.97 540.69
  A 1.89 1.82 69.1 0 0 787.43 539.60
  L 787.79 534.59
  A 1.27 1.22 31.2 0 0 787.58 533.81
  L 785.43 530.53
  A 0.69 0.67 29.1 0 1 785.32 530.16
  L 785.43 526.66
  A 0.31 0.31 0.0 0 0 784.88 526.46
  L 777.36 535.87
  A 1.91 1.90 -38.3 0 0 777.12 537.85
  Q 777.97 539.72 778.11 540.90
  A 0.40 0.40 0.0 0 1 777.36 541.13
  Q 776.83 540.13 775.44 538.55
  Q 771.45 534.02 766.66 529.63
  Q 765.65 528.28 765.00 526.27
  C 764.19 523.79 763.24 522.41 761.17 521.45
  Q 755.81 518.96 754.23 515.04
  A 1.05 1.03 82.4 0 0 753.41 514.40
  C 751.61 514.14 750.04 515.46 750.79 517.62
  Q 751.87 520.77 754.72 522.20
  A 0.31 0.30 49.5 0 1 754.68 522.76
  C 749.79 524.26 745.75 523.10 741.30 520.72
  Q 739.73 519.87 737.99 521.14
  A 0.87 0.87 0.0 0 0 738.61 522.71
  Q 742.24 522.29 747.13 525.13
  A 0.01 0.01 0.0 0 1 747.14 525.14
  L 747.12 525.74
  A 0.36 0.36 0.0 0 1 746.64 526.07
  C 744.07 525.21 739.97 523.15 737.73 525.02
  A 1.59 1.59 0.0 0 0 737.50 527.22
  L 740.17 530.61
  A 0.32 0.32 0.0 0 0 740.74 530.41
  C 740.69 528.80 742.30 526.27 744.35 526.59
  C 748.13 527.17 747.73 529.18 749.78 531.41
  A 0.26 0.26 0.0 0 1 749.63 531.85
  L 749.20 531.92
  A 0.05 0.03 -13.3 0 1 749.17 531.91
  Q 747.46 530.09 745.44 528.51
  Q 744.56 527.83 743.62 528.27
  Q 742.26 528.91 742.34 530.78
  Z
  M 805.58 545.58
  Q 805.20 545.40 804.87 546.12
  A 0.39 0.39 0.0 0 1 804.15 546.12
  L 803.96 545.63
  A 0.37 0.34 -87.6 0 0 803.85 545.50
  L 790.38 536.00
  A 0.37 0.37 0.0 0 0 789.81 536.21
  Q 789.46 537.66 789.71 539.23
  Q 789.57 546.92 790.14 554.49
  C 790.30 556.56 790.05 559.56 789.57 561.57
  Q 788.25 567.07 787.10 572.71
  A 1.51 1.50 -65.7 0 0 787.66 574.21
  Q 794.74 579.55 805.08 581.26
  L 807.17 581.96
  Q 817.14 582.86 826.53 580.14
  C 831.06 578.82 834.66 576.19 838.95 574.22
  Q 839.59 573.93 842.30 571.09
  A 0.87 0.86 -32.3 0 0 842.50 570.21
  Q 839.05 559.79 838.02 549.28
  A 1.24 1.21 11.2 0 0 837.35 548.30
  C 836.46 547.85 835.60 548.32 834.65 547.36
  C 830.80 543.52 829.60 538.26 829.89 533.02
  A 0.38 0.38 0.0 0 0 829.25 532.73
  C 823.04 538.72 813.69 542.99 805.58 545.58
  Z
  M 854.97 572.70
  L 855.39 572.42
  A 0.44 0.44 0.0 0 1 856.06 572.85
  Q 855.51 576.77 852.88 579.50
  A 0.62 0.61 52.5 0 0 852.79 580.21
  Q 853.02 580.63 853.93 580.31
  A 0.40 0.40 0.0 0 1 854.36 580.95
  Q 852.73 582.80 850.40 584.07
  A 0.77 0.76 -30.9 0 0 850.12 585.16
  L 851.26 586.89
  A 0.59 0.58 55.9 0 0 852.08 587.05
  Q 855.95 584.37 858.00 580.03
  A 1.09 1.07 -49.2 0 0 857.93 578.96
  L 857.55 578.38
  A 1.29 1.26 -59.2 0 1 857.35 577.54
  L 858.06 571.75
  A 1.40 1.31 -53.8 0 0 857.98 571.10
  L 854.71 562.62
  A 0.43 0.43 0.0 0 0 853.89 562.87
  Q 854.96 567.45 854.31 572.29
  A 0.43 0.43 0.0 0 0 854.97 572.70
  Z
  M 786.05 606.73
  C 790.57 606.66 794.60 606.60 796.61 602.88
  Q 799.22 598.07 800.36 593.05
  A 0.73 0.73 0.0 0 1 801.00 592.49
  Q 803.16 592.31 809.98 593.25
  C 815.73 594.05 819.53 595.45 824.60 599.52
  Q 829.76 603.66 831.08 604.70
  C 835.58 608.24 838.65 609.59 844.01 609.58
  A 2.02 2.01 -74.3 0 0 845.73 608.61
  C 849.54 602.38 847.58 595.66 844.44 589.76
  Q 840.57 582.49 831.79 581.76
  C 828.65 581.49 825.33 582.45 820.89 583.27
  C 808.87 585.51 798.80 582.66 788.15 576.98
  A 0.79 0.78 26.6 0 0 787.06 577.34
  Q 783.39 585.24 780.70 594.33
  C 779.11 599.72 782.47 604.59 785.79 608.83
  A 0.27 0.27 0.0 0 0 786.18 608.87
  L 786.23 608.82
  A 0.40 0.39 -45.4 0 0 786.23 608.21
  Q 785.73 607.81 785.59 607.35
  A 0.49 0.48 -8.6 0 1 786.05 606.73
  Z
  M 780.57 619.47
  L 775.38 620.32
  A 2.88 2.66 -59.8 0 0 774.70 620.53
  Q 769.22 623.13 768.61 629.51
  A 0.08 0.07 7.6 0 0 768.68 629.59
  L 769.01 629.61
  A 0.27 0.26 -81.3 0 0 769.29 629.40
  Q 770.51 623.93 775.17 621.87
  A 0.34 0.34 0.0 0 1 775.50 622.46
  Q 771.80 625.11 770.64 630.04
  A 0.88 0.88 0.0 0 0 770.96 630.95
  Q 772.73 632.32 775.68 632.01
  A 0.71 0.71 0.0 0 0 776.30 631.47
  Q 776.78 629.56 776.81 629.10
  A 1.81 1.75 -32.6 0 1 776.98 628.39
  Q 778.31 625.49 781.40 624.13
  A 0.41 0.41 0.0 0 1 781.81 624.83
  Q 778.05 627.62 777.60 631.82
  A 0.77 0.77 0.0 0 0 778.41 632.67
  Q 785.98 632.23 793.89 629.44
  A 0.41 0.40 68.9 0 0 794.13 628.89
  L 792.93 626.19
  L 800.22 622.52
  A 0.65 0.65 0.0 0 0 800.35 621.45
  C 793.92 615.97 787.90 618.65 780.57 619.47
  Z
  M 843.77 630.51
  L 844.83 634.50
  A 1.24 1.16 13.0 0 0 845.27 635.16
  Q 848.94 637.99 853.76 637.93
  A 0.62 0.62 0.0 0 0 854.38 637.30
  Q 854.36 633.64 852.05 629.61
  A 0.38 0.38 0.0 0 1 852.27 629.06
  Q 852.38 629.03 852.52 629.06
  Q 852.93 629.17 853.10 629.37
  Q 856.01 632.97 855.78 636.55
  A 1.38 1.37 -88.2 0 0 857.15 638.01
  L 861.56 638.01
  A 2.01 2.01 0.0 0 0 863.56 635.85
  Q 863.22 631.35 860.15 627.62
  A 0.37 0.37 0.0 0 1 860.65 627.08
  Q 864.75 630.05 864.82 635.59
  A 0.45 0.45 0.0 0 0 865.62 635.86
  L 866.40 634.88
  A 2.99 2.99 0.0 0 0 867.06 632.87
  C 866.81 627.40 862.74 625.35 858.48 623.04
  L 854.21 618.84
  A 0.95 0.92 60.8 0 0 853.37 618.59
  Q 847.93 619.72 845.37 621.87
  Q 841.87 624.81 843.77 630.51
  Z"
/>
<path fill="#393f46" d="
  M 817.12 514.98
  Q 819.95 505.94 812.76 499.74
  Q 810.53 497.82 807.95 496.42
  L 811.08 485.15
  Q 811.13 487.10 811.75 486.50
  L 810.34 494.33
  Q 810.86 496.00 816.14 495.88
  Q 820.80 497.38 825.01 494.11
  Q 827.43 492.23 828.08 489.09
  Q 828.97 484.85 827.55 481.32
  L 828.47 478.85
  L 814.24 472.28
  Q 813.63 470.95 811.27 472.38
  A 0.91 0.91 0.0 0 0 810.83 473.14
  Q 810.81 475.28 812.08 477.10
  C 807.92 482.41 806.54 488.35 805.90 494.65
  A 0.51 0.51 0.0 0 1 805.17 495.06
  Q 799.40 492.27 792.62 494.42
  Q 791.95 489.91 791.87 485.25
  Q 791.83 483.10 790.31 479.36
  Q 791.93 477.54 790.45 477.07
  Q 791.22 475.80 790.79 474.36
  Q 790.12 472.65 788.43 473.09
  A 1.64 1.63 -71.7 0 0 787.80 473.41
  L 782.61 477.62
  Q 782.73 475.56 784.03 474.13
  Q 785.68 472.30 786.10 471.57
  Q 786.97 470.02 789.27 468.35
  A 0.25 0.23 -66.4 0 1 789.38 468.30
  L 796.09 467.10
  A 0.58 0.57 -87.7 0 1 796.75 467.82
  L 795.33 472.92
  A 0.69 0.69 0.0 0 0 796.43 473.64
  C 798.25 472.17 801.25 469.57 803.37 469.67
  A 0.48 0.48 0.0 0 0 803.88 469.22
  L 803.95 468.18
  A 0.51 0.51 0.0 0 0 803.16 467.72
  L 798.06 471.08
  A 0.54 0.54 0.0 0 1 797.24 470.48
  L 798.30 466.67
  A 0.82 0.82 0.0 0 0 797.43 465.63
  L 791.91 466.20
  A 0.36 0.36 0.0 0 1 791.68 465.54
  L 799.02 460.71
  A 0.31 0.31 0.0 0 0 798.87 460.14
  L 794.65 459.84
  A 0.46 0.46 0.0 0 1 794.64 458.93
  L 807.06 457.66
  A 0.35 0.35 0.0 0 0 807.33 457.14
  Q 806.41 455.57 805.43 455.04
  A 0.45 0.44 64.3 0 1 805.72 454.21
  Q 814.23 455.70 822.43 459.46
  A 1.12 1.11 -66.3 0 1 822.99 460.92
  L 822.24 462.67
  A 0.11 0.11 0.0 0 0 822.32 462.83
  L 823.11 463.05
  A 0.02 0.02 0.0 0 0 823.14 463.04
  Q 824.73 461.21 825.62 459.42
  C 828.66 453.33 832.51 447.46 836.90 440.55
  C 838.52 438.01 840.08 436.34 841.88 433.96
  A 1.59 1.59 0.0 0 1 842.82 433.37
  Q 845.16 432.89 846.67 433.43
  Q 851.57 435.18 855.80 439.10
  A 0.50 0.49 -56.9 0 0 856.59 438.93
  L 856.74 438.59
  A 0.36 0.36 0.0 0 0 856.66 438.20
  Q 856.21 437.74 856.13 437.45
  A 0.54 0.54 0.0 0 1 856.69 436.79
  L 860.80 437.01
  A 1.22 0.09 4.4 0 1 860.93 437.03
  Q 863.92 437.53 866.27 441.76
  C 870.67 449.66 873.34 453.90 875.36 460.09
  A 1.82 1.82 0.0 0 1 873.39 462.46
  Q 867.63 461.70 862.85 457.57
  Q 852.98 449.04 844.91 440.34
  A 0.50 0.50 0.0 0 0 844.08 440.49
  Q 842.89 443.27 841.18 445.71
  Q 834.02 455.98 830.44 468.38
  A 0.71 0.70 -67.8 0 0 830.78 469.20
  L 832.70 470.24
  A 0.75 0.74 -74.8 0 1 833.09 470.93
  Q 833.07 471.47 835.43 479.80
  C 836.69 484.22 836.91 488.16 836.91 492.30
  C 836.91 494.02 839.11 494.46 840.06 495.53
  A 1.16 1.15 -56.3 0 1 840.29 496.69
  Q 837.38 505.20 830.57 509.93
  C 827.25 512.24 821.41 513.40 817.12 514.98
  Z"
/>
<path fill="#393f46" d="
  M 751.53 459.12
  Q 757.15 452.87 760.95 445.57
  A 4.01 3.99 79.8 0 1 761.51 444.76
  Q 763.46 442.48 765.55 440.31
  Q 766.89 438.92 771.00 438.38
  Q 770.75 438.97 771.04 439.24
  A 0.32 0.31 45.7 0 0 771.46 439.25
  C 774.44 436.80 781.16 433.70 784.97 435.64
  A 2.40 2.36 85.3 0 1 785.76 436.32
  Q 792.59 445.65 796.34 456.38
  A 0.51 0.51 0.0 0 1 795.86 457.05
  L 794.96 457.05
  A 1.09 1.08 76.7 0 1 793.99 456.45
  C 791.90 452.15 789.54 448.42 787.94 443.96
  Q 786.50 439.95 784.98 437.41
  A 0.88 0.87 -42.9 0 0 783.51 437.36
  Q 782.36 438.98 780.10 441.30
  Q 776.88 444.62 765.03 455.02
  Q 759.70 459.71 753.34 460.89
  A 1.28 1.27 -32.7 0 1 752.37 460.68
  Q 751.29 459.91 751.53 459.12
  Z"
/>
<path fill="#b2787c" d="
  M 771.00 438.38
  Q 766.89 438.92 765.55 440.31
  Q 763.46 442.48 761.51 444.76
  A 4.01 3.99 79.8 0 0 760.95 445.57
  Q 757.15 452.87 751.53 459.12
  Q 756.61 448.44 763.61 439.61
  Q 764.79 438.12 766.77 437.25
  A 1.27 1.24 31.6 0 1 767.21 437.15
  L 771.50 436.97
  A 0.44 0.44 0.0 0 1 771.88 437.66
  Q 771.62 438.03 771.00 438.38
  Z"
/>
<path fill="#b2787c" d="
  M 832.75 466.59
  A 0.29 0.28 80.6 0 1 832.31 466.27
  Q 836.39 454.19 844.54 443.63
  A 0.41 0.40 -42.9 0 1 845.20 443.65
  L 850.78 452.14
  A 0.26 0.25 54.7 0 1 850.73 452.48
  L 832.75 466.59
  Z"
/>
<path fill="#b2787c" d="
  M 789.44 459.86
  Q 790.83 461.23 791.37 463.16
  A 0.97 0.97 0.0 0 1 789.79 464.14
  L 777.00 452.45
  A 1.46 1.45 -49.4 0 1 776.85 450.46
  L 781.42 444.75
  A 0.78 0.78 0.0 0 1 782.73 444.87
  Q 786.99 452.99 789.34 457.94
  Q 789.60 458.47 789.31 459.08
  A 0.69 0.68 -54.9 0 0 789.44 459.86
  Z"
/>
<path fill="#23262e" d="
  M 814.24 472.28
  L 812.51 473.61
  A 0.71 0.70 -30.7 0 0 812.29 474.46
  Q 812.47 474.86 812.89 475.26
  Q 813.46 477.09 815.17 478.31
  Q 821.46 482.84 827.55 481.32
  Q 828.97 484.85 828.08 489.09
  Q 827.43 492.23 825.01 494.11
  Q 820.80 497.38 816.14 495.88
  L 814.39 492.41
  Q 813.45 487.05 815.93 484.48
  C 818.42 481.89 821.26 484.43 822.17 487.08
  Q 823.33 490.80 821.66 494.24
  A 0.35 0.35 0.0 0 0 822.17 494.68
  L 825.65 492.40
  A 1.21 1.20 -20.9 0 0 826.17 491.24
  Q 825.78 488.60 824.46 486.28
  L 823.24 484.02
  A 1.18 1.16 84.0 0 0 822.55 483.45
  Q 820.01 482.68 818.22 481.75
  A 3.44 3.43 35.6 0 0 814.18 482.41
  Q 812.68 483.98 811.75 486.50
  Q 811.13 487.10 811.08 485.15
  Q 812.01 482.09 814.86 480.46
  A 0.52 0.51 -29.7 0 0 815.06 479.75
  Q 814.53 478.81 813.22 478.22
  Q 812.94 477.34 812.08 477.10
  Q 810.81 475.28 810.83 473.14
  A 0.91 0.91 0.0 0 1 811.27 472.38
  Q 813.63 470.95 814.24 472.28
  Z
  M 817.7465 485.2505
  A 1.78 1.49 -91.4 0 0 816.3004 487.0664
  A 1.78 1.49 -91.4 0 0 817.8335 488.8095
  A 1.78 1.49 -91.4 0 0 819.2796 486.9936
  A 1.78 1.49 -91.4 0 0 817.7465 485.2505
  Z"
/>
<path fill="#fdfcfc" d="
  M 828.47 478.85
  Q 821.53 481.33 814.50 475.40
  Q 813.72 474.74 812.89 475.26
  Q 812.47 474.86 812.29 474.46
  A 0.71 0.70 -30.7 0 1 812.51 473.61
  L 814.24 472.28
  L 828.47 478.85
  Z"
/>
<path fill="#fdfcfc" d="
  M 790.79 474.36
  L 781.70 481.19
  Q 780.39 478.15 782.61 477.62
  L 787.80 473.41
  A 1.64 1.63 -71.7 0 1 788.43 473.09
  Q 790.12 472.65 790.79 474.36
  Z"
/>
<path fill="#b2787c" d="
  M 790.79 474.36
  Q 791.22 475.80 790.45 477.07
  Q 787.89 480.04 784.91 481.40
  Q 782.69 482.41 781.70 481.19
  L 790.79 474.36
  Z"
/>
<path fill="#b2787c" d="
  M 828.47 478.85
  L 827.55 481.32
  Q 821.46 482.84 815.17 478.31
  Q 813.46 477.09 812.89 475.26
  Q 813.72 474.74 814.50 475.40
  Q 821.53 481.33 828.47 478.85
  Z"
/>
<path fill="#fdfcfc" d="
  M 813.22 478.22
  Q 808.90 483.05 808.17 490.01
  Q 807.85 493.09 807.95 496.42
  Q 810.53 497.82 812.76 499.74
  Q 819.95 505.94 817.12 514.98
  L 816.87 515.14
  Q 815.57 515.09 814.40 515.66
  C 811.66 517.00 808.95 517.83 805.21 519.19
  C 800.37 520.93 794.55 518.46 790.01 516.39
  Q 789.56 516.19 789.20 516.59
  L 788.36 515.85
  Q 784.62 512.83 784.15 509.00
  Q 783.11 500.54 790.41 496.42
  Q 790.71 496.26 791.04 495.53
  Q 791.27 494.61 792.62 494.42
  Q 799.40 492.27 805.17 495.06
  A 0.51 0.51 0.0 0 0 805.90 494.65
  C 806.54 488.35 807.92 482.41 812.08 477.10
  Q 812.94 477.34 813.22 478.22
  Z
  M 795.82 505.19
  L 795.82 508.60
  A 0.94 0.93 -17.0 0 1 795.40 509.38
  Q 793.32 510.76 792.05 512.10
  A 0.46 0.46 0.0 0 0 792.63 512.80
  L 796.06 510.55
  A 1.93 1.92 -49.8 0 1 797.88 510.39
  L 806.34 514.03
  A 0.35 0.35 0.0 0 0 806.83 513.71
  L 806.83 513.36
  A 0.91 0.89 -78.8 0 0 806.30 512.55
  L 797.33 508.70
  A 1.02 0.99 -78.6 0 1 796.73 507.77
  L 796.73 504.91
  A 0.32 0.30 71.6 0 1 796.84 504.67
  L 801.85 500.74
  A 1.37 1.37 0.0 0 0 801.37 498.35
  Q 796.24 496.91 791.04 498.16
  A 1.20 1.20 0.0 0 0 790.38 500.08
  Q 792.55 502.76 795.46 504.55
  A 0.75 0.75 0.0 0 1 795.82 505.19
  Z"
/>
<path fill="#b2787c" d="
  M 811.08 485.15
  L 807.95 496.42
  Q 807.85 493.09 808.17 490.01
  Q 808.90 483.05 813.22 478.22
  Q 814.53 478.81 815.06 479.75
  A 0.52 0.51 -29.7 0 1 814.86 480.46
  Q 812.01 482.09 811.08 485.15
  Z"
/>
<path fill="#b2787c" d="
  M 790.31 479.36
  Q 791.83 483.10 791.87 485.25
  Q 791.95 489.91 792.62 494.42
  Q 791.27 494.61 791.04 495.53
  Q 790.97 495.20 790.83 494.96
  C 791.30 491.82 791.58 483.33 789.07 481.04
  A 0.77 0.77 0.0 0 1 788.87 480.18
  Q 789.21 479.34 790.31 479.36
  Z"
/>
<path fill="#fdfcfc" d="
  M 786.21 494.43
  Q 782.21 493.50 782.97 488.51
  Q 783.71 483.69 786.93 481.57
  A 1.23 1.23 0.0 0 1 788.43 481.69
  L 788.90 482.11
  A 0.60 0.60 0.0 0 1 788.56 483.15
  C 784.12 483.66 785.04 491.46 786.51 494.04
  A 0.27 0.27 0.0 0 1 786.21 494.43
  Z"
/>
<path fill="#b2787c" d="
  M 824.46 486.28
  Q 823.93 485.98 823.45 485.91
  A 0.81 0.79 -69.7 0 0 822.65 486.29
  L 822.17 487.08
  C 821.26 484.43 818.42 481.89 815.93 484.48
  Q 813.45 487.05 814.39 492.41
  Q 813.37 491.00 812.51 491.41
  A 0.43 0.41 -2.6 0 0 812.31 491.62
  Q 811.74 492.88 810.34 494.33
  L 811.75 486.50
  Q 812.68 483.98 814.18 482.41
  A 3.44 3.43 35.6 0 1 818.22 481.75
  Q 820.01 482.68 822.55 483.45
  A 1.18 1.16 84.0 0 1 823.24 484.02
  L 824.46 486.28
  Z"
/>
<rect fill="#fdfcfc" x="-1.04" y="-1.51" transform="translate(788.03,486.53) rotate(3.4)" width="2.08" height="3.02" rx="0.94"/>
<ellipse fill="#fdfcfc" cx="0.00" cy="0.00" transform="translate(817.79,487.03) rotate(-91.4)" rx="1.78" ry="1.49"/>
<path fill="#fdfcfc" d="
  M 824.46 486.28
  Q 825.78 488.60 826.17 491.24
  A 1.21 1.20 -20.9 0 1 825.65 492.40
  L 822.17 494.68
  A 0.35 0.35 0.0 0 1 821.66 494.24
  Q 823.33 490.80 822.17 487.08
  L 822.65 486.29
  A 0.81 0.79 -69.7 0 1 823.45 485.91
  Q 823.93 485.98 824.46 486.28
  Z"
/>
<path fill="#393f46" d="
  M 790.83 494.96
  Q 790.97 495.20 791.04 495.53
  Q 790.71 496.26 790.41 496.42
  Q 783.11 500.54 784.15 509.00
  Q 784.62 512.83 788.36 515.85
  Q 782.62 514.44 779.91 510.05
  L 777.43 505.58
  A 1.78 1.76 41.9 0 1 777.34 504.00
  L 779.08 499.97
  A 0.71 0.71 0.0 0 0 778.27 499.00
  Q 777.33 499.22 776.85 498.81
  A 0.70 0.69 38.1 0 1 776.73 497.87
  Q 778.01 496.07 779.83 492.36
  Q 779.98 492.06 779.30 492.01
  L 780.17 490.21
  A 0.49 0.49 0.0 0 1 781.06 490.23
  Q 783.49 496.27 789.66 495.94
  Q 790.21 495.91 790.47 495.68
  Q 790.81 495.38 790.83 494.96
  Z"
/>
<path fill="#fdfcfc" d="
  M 814.39 492.41
  L 816.14 495.88
  Q 810.86 496.00 810.34 494.33
  Q 811.74 492.88 812.31 491.62
  A 0.43 0.41 -2.6 0 1 812.51 491.41
  Q 813.37 491.00 814.39 492.41
  Z"
/>
<path fill="#b2787c" d="
  M 779.91 510.05
  Q 777.22 507.88 775.66 505.07
  A 0.81 0.80 43.0 0 1 775.63 504.34
  L 776.91 501.35
  A 0.76 0.76 0.0 0 0 776.27 500.29
  L 774.61 500.17
  A 0.59 0.59 0.0 0 1 774.17 499.24
  L 779.30 492.01
  Q 779.98 492.06 779.83 492.36
  Q 778.01 496.07 776.73 497.87
  A 0.70 0.69 38.1 0 0 776.85 498.81
  Q 777.33 499.22 778.27 499.00
  A 0.71 0.71 0.0 0 1 779.08 499.97
  L 777.34 504.00
  A 1.78 1.76 41.9 0 0 777.43 505.58
  L 779.91 510.05
  Z"
/>
<path fill="#23262e" d="
  M 795.46 504.55
  Q 792.55 502.76 790.38 500.08
  A 1.20 1.20 0.0 0 1 791.04 498.16
  Q 796.24 496.91 801.37 498.35
  A 1.37 1.37 0.0 0 1 801.85 500.74
  L 796.84 504.67
  A 0.32 0.30 71.6 0 0 796.73 504.91
  L 796.73 507.77
  A 1.02 0.99 -78.6 0 0 797.33 508.70
  L 806.30 512.55
  A 0.91 0.89 -78.8 0 1 806.83 513.36
  L 806.83 513.71
  A 0.35 0.35 0.0 0 1 806.34 514.03
  L 797.88 510.39
  A 1.93 1.92 -49.8 0 0 796.06 510.55
  L 792.63 512.80
  A 0.46 0.46 0.0 0 1 792.05 512.10
  Q 793.32 510.76 795.40 509.38
  A 0.94 0.93 -17.0 0 0 795.82 508.60
  L 795.82 505.19
  A 0.75 0.75 0.0 0 0 795.46 504.55
  Z
  M 795.42 503.52
  A 1.37 1.37 0.0 0 0 797.26 503.53
  L 800.97 500.20
  A 0.63 0.63 0.0 0 0 800.67 499.12
  Q 796.10 498.22 792.09 499.07
  A 0.66 0.66 0.0 0 0 791.78 500.20
  L 795.42 503.52
  Z"
/>
<path fill="#b2787c" d="
  M 792.09 499.07
  Q 796.10 498.22 800.67 499.12
  A 0.63 0.63 0.0 0 1 800.97 500.20
  L 797.26 503.53
  A 1.37 1.37 0.0 0 1 795.42 503.52
  L 791.78 500.20
  A 0.66 0.66 0.0 0 1 792.09 499.07
  Z"
/>
<path fill="#393f46" d="
  M 774.46 503.00
  L 774.51 501.99
  Q 774.92 502.11 774.85 502.75
  Q 774.81 503.11 774.46 503.00
  Z"
/>
<path fill="#393f46" d="
  M 841.95 515.55
  L 837.73 518.52
  A 0.55 0.31 -61.0 0 0 837.65 518.57
  Q 833.41 520.87 829.77 523.70
  Q 827.10 525.78 819.52 529.88
  Q 817.14 531.17 815.40 530.94
  A 0.35 0.34 -57.9 0 1 815.26 530.31
  Q 818.19 528.35 819.14 528.40
  A 0.41 0.39 -65.4 0 0 819.48 528.26
  L 823.64 523.71
  A 1.15 0.99 4.2 0 1 823.95 523.48
  Q 826.02 522.50 827.33 521.20
  A 0.38 0.38 0.0 0 0 827.06 520.55
  Q 826.12 520.58 825.22 521.06
  Q 822.16 522.69 819.59 522.93
  A 3.19 3.13 26.0 0 0 818.24 523.38
  Q 817.05 524.12 815.41 524.14
  A 2.97 2.96 35.1 0 0 814.42 524.31
  Q 811.58 525.32 807.98 526.31
  Q 803.20 527.62 798.08 526.06
  Q 792.43 524.35 785.81 520.03
  A 0.63 0.62 44.4 0 0 785.12 520.03
  Q 784.44 520.49 784.75 521.72
  Q 783.81 520.79 784.74 518.07
  A 0.88 0.88 0.0 0 1 786.01 517.59
  Q 791.49 520.66 795.57 522.67
  C 798.98 524.36 801.84 524.51 805.82 523.59
  Q 813.05 521.93 820.51 520.30
  C 825.27 519.26 832.79 517.28 836.72 514.19
  Q 838.74 512.60 840.53 511.36
  A 1.11 1.11 0.0 0 1 842.27 512.22
  Q 842.36 514.21 841.95 515.55
  Z"
/>
<path fill="#fdfcfc" d="
  M 864.01 535.80
  Q 859.12 533.11 859.24 528.50
  C 860.35 523.47 862.67 521.02 867.12 518.58
  Q 869.75 517.15 871.15 514.36
  Q 871.79 513.08 872.46 512.75
  C 874.44 511.78 875.85 513.47 875.64 515.16
  Q 875.06 519.96 871.24 520.03
  A 0.35 0.35 0.0 0 0 871.11 520.71
  C 876.17 522.73 880.72 520.70 885.83 518.84
  Q 888.10 518.02 888.81 520.23
  A 0.55 0.55 0.0 0 1 888.13 520.93
  C 884.94 520.03 881.17 522.04 878.88 523.17
  A 0.51 0.50 60.5 0 0 878.68 523.90
  L 878.83 524.12
  A 0.29 0.28 64.5 0 0 879.16 524.24
  L 884.93 522.46
  A 2.71 2.62 35.7 0 1 885.69 522.35
  Q 889.49 522.35 888.75 525.39
  A 0.96 0.92 -19.7 0 1 888.56 525.77
  L 886.41 528.46
  A 0.65 0.65 0.0 0 1 885.26 528.18
  Q 884.51 524.25 881.15 524.77
  C 878.64 525.16 877.65 527.57 876.40 529.89
  A 0.47 0.47 0.0 0 0 877.15 530.44
  Q 877.77 529.81 879.40 527.49
  A 2.06 1.99 1.0 0 1 880.00 526.93
  C 882.16 525.65 884.69 527.43 883.61 529.75
  Q 881.16 535.04 875.23 534.98
  Q 869.71 534.92 864.01 535.80
  Z
  M 863.36 526.53
  Q 868.03 524.81 872.75 527.23
  A 0.41 0.41 0.0 0 0 873.22 526.57
  C 870.81 524.23 865.67 523.20 863.11 526.17
  A 0.23 0.23 0.0 0 0 863.36 526.53
  Z"
/>
<path fill="#fdfcfc" d="
  M 766.66 529.63
  Q 765.75 534.33 762.85 536.01
  C 759.47 533.42 753.92 534.90 751.27 534.53
  C 749.43 534.27 747.60 533.72 745.48 532.36
  Q 744.01 531.42 742.34 530.78
  Q 742.26 528.91 743.62 528.27
  Q 744.56 527.83 745.44 528.51
  Q 747.46 530.09 749.17 531.91
  A 0.05 0.03 -13.3 0 0 749.20 531.92
  L 749.63 531.85
  A 0.26 0.26 0.0 0 0 749.78 531.41
  C 747.73 529.18 748.13 527.17 744.35 526.59
  C 742.30 526.27 740.69 528.80 740.74 530.41
  A 0.32 0.32 0.0 0 1 740.17 530.61
  L 737.50 527.22
  A 1.59 1.59 0.0 0 1 737.73 525.02
  C 739.97 523.15 744.07 525.21 746.64 526.07
  A 0.36 0.36 0.0 0 0 747.12 525.74
  L 747.14 525.14
  A 0.01 0.01 0.0 0 0 747.13 525.13
  Q 742.24 522.29 738.61 522.71
  A 0.87 0.87 0.0 0 1 737.99 521.14
  Q 739.73 519.87 741.30 520.72
  C 745.75 523.10 749.79 524.26 754.68 522.76
  A 0.31 0.30 49.5 0 0 754.72 522.20
  Q 751.87 520.77 750.79 517.62
  C 750.04 515.46 751.61 514.14 753.41 514.40
  A 1.05 1.03 82.4 0 1 754.23 515.04
  Q 755.81 518.96 761.17 521.45
  C 763.24 522.41 764.19 523.79 765.00 526.27
  Q 765.65 528.28 766.66 529.63
  Z
  M 752.52 529.67
  C 755.82 528.85 758.82 526.21 762.11 529.35
  A 0.49 0.49 0.0 0 0 762.80 529.34
  L 762.82 529.32
  A 0.47 0.47 0.0 0 0 762.82 528.67
  C 759.80 525.44 755.28 526.38 752.20 529.04
  A 0.37 0.36 -72.2 0 0 752.52 529.67
  Z"
/>
<path fill="#b2787c" d="
  M 816.87 515.14
  Q 814.07 519.91 811.21 520.71
  C 807.75 521.67 801.56 523.53 798.07 521.93
  C 794.25 520.18 791.37 518.98 789.20 516.59
  Q 789.56 516.19 790.01 516.39
  C 794.55 518.46 800.37 520.93 805.21 519.19
  C 808.95 517.83 811.66 517.00 814.40 515.66
  Q 815.57 515.09 816.87 515.14
  Z"
/>
<path fill="#0a9bee" d="
  M 841.95 515.55
  L 843.95 520.45
  A 0.72 0.72 0.0 0 1 843.00 521.38
  L 840.98 520.51
  A 1.57 1.57 0.0 0 0 839.24 520.86
  Q 834.80 525.39 834.21 525.87
  Q 832.37 527.35 829.22 530.59
  C 823.88 536.07 817.81 538.50 810.13 542.19
  Q 803.85 545.21 799.42 540.61
  Q 797.29 538.39 795.52 537.14
  C 792.36 534.90 791.15 533.70 787.93 531.23
  A 1.83 1.78 -83.2 0 1 787.34 530.46
  Q 786.64 528.72 787.09 526.07
  L 798.30 533.52
  A 1.89 1.81 60.7 0 0 799.32 533.83
  L 807.69 533.83
  A 0.66 0.66 0.0 0 0 807.84 532.53
  Q 806.43 532.20 805.49 531.23
  A 1.13 1.12 68.0 0 0 804.72 530.90
  Q 804.13 530.89 795.98 529.13
  Q 794.00 528.70 791.97 527.27
  Q 788.88 525.10 785.70 522.68
  L 784.75 521.72
  Q 784.44 520.49 785.12 520.03
  A 0.63 0.62 44.4 0 1 785.81 520.03
  Q 792.43 524.35 798.08 526.06
  Q 803.20 527.62 807.98 526.31
  Q 811.58 525.32 814.42 524.31
  A 2.97 2.96 35.1 0 1 815.41 524.14
  Q 817.05 524.12 818.24 523.38
  A 3.19 3.13 26.0 0 1 819.59 522.93
  Q 822.16 522.69 825.22 521.06
  Q 826.12 520.58 827.06 520.55
  A 0.38 0.38 0.0 0 1 827.33 521.20
  Q 826.02 522.50 823.95 523.48
  A 1.15 0.99 4.2 0 0 823.64 523.71
  L 819.48 528.26
  A 0.41 0.39 -65.4 0 1 819.14 528.40
  Q 818.19 528.35 815.26 530.31
  A 0.35 0.34 -57.9 0 0 815.40 530.94
  Q 817.14 531.17 819.52 529.88
  Q 827.10 525.78 829.77 523.70
  Q 833.41 520.87 837.65 518.57
  A 0.55 0.31 -61.0 0 1 837.73 518.52
  L 841.95 515.55
  Z"
/>
<path fill="#393f46" d="
  M 859.24 528.50
  Q 859.12 533.11 864.01 535.80
  Q 861.53 538.75 859.05 541.98
  Q 855.95 546.00 854.32 546.89
  C 849.05 549.76 845.57 546.08 840.87 542.12
  Q 836.93 538.80 834.67 536.30
  A 1.61 1.59 26.3 0 1 834.26 535.11
  C 834.63 530.32 837.32 526.41 839.98 522.55
  A 0.71 0.71 0.0 0 1 841.02 522.41
  Q 841.64 522.94 842.85 523.34
  A 1.98 1.95 -6.8 0 1 843.87 524.13
  L 850.30 533.90
  A 0.82 0.82 0.0 0 1 850.26 534.85
  L 847.90 537.94
  A 2.60 2.56 -24.6 0 0 847.36 539.36
  Q 847.33 539.87 847.72 540.90
  A 0.39 0.39 0.0 0 0 848.41 540.98
  Q 853.94 532.64 859.24 528.50
  Z"
/>
<path fill="#393f46" d="
  M 787.09 526.07
  Q 787.23 525.02 785.70 522.68
  Q 788.88 525.10 791.97 527.27
  Q 794.00 528.70 795.98 529.13
  Q 804.13 530.89 804.72 530.90
  A 1.13 1.12 68.0 0 1 805.49 531.23
  Q 806.43 532.20 807.84 532.53
  A 0.66 0.66 0.0 0 1 807.69 533.83
  L 799.32 533.83
  A 1.89 1.81 60.7 0 1 798.30 533.52
  L 787.09 526.07
  Z"
/>
<path fill="#393f46" d="
  M 863.36 526.53
  A 0.23 0.23 0.0 0 1 863.11 526.17
  C 865.67 523.20 870.81 524.23 873.22 526.57
  A 0.41 0.41 0.0 0 1 872.75 527.23
  Q 868.03 524.81 863.36 526.53
  Z"
/>
<path fill="#393f46" d="
  M 761.94 536.74
  Q 761.95 536.60 762.85 536.01
  Q 765.75 534.33 766.66 529.63
  Q 771.45 534.02 775.44 538.55
  Q 776.83 540.13 777.36 541.13
  A 0.40 0.40 0.0 0 0 778.11 540.90
  Q 777.97 539.72 777.12 537.85
  A 1.91 1.90 -38.3 0 1 777.36 535.87
  L 784.88 526.46
  A 0.31 0.31 0.0 0 1 785.43 526.66
  L 785.32 530.16
  A 0.69 0.67 29.1 0 0 785.43 530.53
  L 787.58 533.81
  A 1.27 1.22 31.2 0 1 787.79 534.59
  L 787.43 539.60
  A 1.89 1.82 69.1 0 1 786.97 540.69
  Q 782.82 545.33 777.07 548.64
  C 775.04 549.81 773.07 548.03 771.20 546.56
  Q 765.88 542.36 761.94 536.74
  Z"
/>
<path fill="#393f46" d="
  M 752.52 529.67
  A 0.37 0.36 -72.2 0 1 752.20 529.04
  C 755.28 526.38 759.80 525.44 762.82 528.67
  A 0.47 0.47 0.0 0 1 762.82 529.32
  L 762.80 529.34
  A 0.49 0.49 0.0 0 1 762.11 529.35
  C 758.82 526.21 755.82 528.85 752.52 529.67
  Z"
/>
<path fill="#b2787c" d="
  M 762.85 536.01
  Q 761.95 536.60 761.94 536.74
  Q 760.46 537.99 759.18 537.73
  Q 757.23 537.33 757.14 537.33
  Q 753.66 537.43 750.25 537.01
  Q 743.97 536.25 742.34 530.78
  Q 744.01 531.42 745.48 532.36
  C 747.60 533.72 749.43 534.27 751.27 534.53
  C 753.92 534.90 759.47 533.42 762.85 536.01
  Z"
/>
<path fill="#0a9bee" d="
  M 807.17 581.96
  Q 805.28 571.58 806.39 561.54
  A 0.68 0.67 -87.2 0 1 807.06 560.93
  L 816.76 560.93
  A 0.32 0.32 0.0 0 0 817.08 560.61
  L 817.08 560.33
  A 0.24 0.23 2.7 0 0 816.86 560.10
  L 807.06 559.40
  A 0.94 0.94 0.0 0 1 806.19 558.51
  L 805.58 545.58
  C 813.69 542.99 823.04 538.72 829.25 532.73
  A 0.38 0.38 0.0 0 1 829.89 533.02
  C 829.60 538.26 830.80 543.52 834.65 547.36
  C 835.60 548.32 836.46 547.85 837.35 548.30
  A 1.24 1.21 11.2 0 1 838.02 549.28
  Q 839.05 559.79 842.50 570.21
  A 0.87 0.86 -32.3 0 1 842.30 571.09
  Q 839.59 573.93 838.95 574.22
  C 834.66 576.19 831.06 578.82 826.53 580.14
  Q 817.14 582.86 807.17 581.96
  Z"
/>
<path fill="#393f46" d="
  M 805.58 545.58
  L 806.19 558.51
  A 0.94 0.94 0.0 0 0 807.06 559.40
  L 816.86 560.10
  A 0.24 0.23 2.7 0 1 817.08 560.33
  L 817.08 560.61
  A 0.32 0.32 0.0 0 1 816.76 560.93
  L 807.06 560.93
  A 0.68 0.67 -87.2 0 0 806.39 561.54
  Q 805.28 571.58 807.17 581.96
  L 805.08 581.26
  Q 803.36 571.34 805.01 561.87
  A 1.13 1.12 7.8 0 0 804.01 560.56
  Q 801.02 560.26 797.80 558.59
  A 0.32 0.32 0.0 0 1 798.00 557.99
  L 804.02 558.98
  A 0.47 0.47 0.0 0 0 804.55 558.43
  Q 803.71 553.95 803.91 548.99
  C 804.01 546.45 801.31 545.61 799.53 544.89
  A 3.35 3.16 73.2 0 1 798.66 544.39
  Q 794.65 541.18 789.71 539.23
  Q 789.46 537.66 789.81 536.21
  A 0.37 0.37 0.0 0 1 790.38 536.00
  L 803.85 545.50
  A 0.37 0.34 -87.6 0 1 803.96 545.63
  L 804.15 546.12
  A 0.39 0.39 0.0 0 0 804.87 546.12
  Q 805.20 545.40 805.58 545.58
  Z"
/>
<path fill="#0a9bee" d="
  M 805.08 581.26
  Q 794.74 579.55 787.66 574.21
  A 1.51 1.50 -65.7 0 1 787.10 572.71
  Q 788.25 567.07 789.57 561.57
  C 790.05 559.56 790.30 556.56 790.14 554.49
  Q 789.57 546.92 789.71 539.23
  Q 794.65 541.18 798.66 544.39
  A 3.35 3.16 73.2 0 0 799.53 544.89
  C 801.31 545.61 804.01 546.45 803.91 548.99
  Q 803.71 553.95 804.55 558.43
  A 0.47 0.47 0.0 0 1 804.02 558.98
  L 798.00 557.99
  A 0.32 0.32 0.0 0 0 797.80 558.59
  Q 801.02 560.26 804.01 560.56
  A 1.13 1.12 7.8 0 1 805.01 561.87
  Q 803.36 571.34 805.08 581.26
  Z"
/>
<path fill="#fdfcfc" d="
  M 854.97 572.70
  A 0.43 0.43 0.0 0 1 854.31 572.29
  Q 854.96 567.45 853.89 562.87
  A 0.43 0.43 0.0 0 1 854.71 562.62
  L 857.98 571.10
  A 1.40 1.31 -53.8 0 1 858.06 571.75
  L 857.35 577.54
  A 1.29 1.26 -59.2 0 0 857.55 578.38
  L 857.93 578.96
  A 1.09 1.07 -49.2 0 1 858.00 580.03
  Q 855.95 584.37 852.08 587.05
  A 0.59 0.58 55.9 0 1 851.26 586.89
  L 850.12 585.16
  A 0.77 0.76 -30.9 0 1 850.40 584.07
  Q 852.73 582.80 854.36 580.95
  A 0.40 0.40 0.0 0 0 853.93 580.31
  Q 853.02 580.63 852.79 580.21
  A 0.62 0.61 52.5 0 1 852.88 579.50
  Q 855.51 576.77 856.06 572.85
  A 0.44 0.44 0.0 0 0 855.39 572.42
  L 854.97 572.70
  Z"
/>
<path fill="#393f46" d="
  M 785.59 607.35
  Q 785.73 607.81 786.23 608.21
  A 0.40 0.39 -45.4 0 1 786.23 608.82
  L 786.18 608.87
  A 0.27 0.27 0.0 0 1 785.79 608.83
  C 782.47 604.59 779.11 599.72 780.70 594.33
  Q 783.39 585.24 787.06 577.34
  A 0.79 0.78 26.6 0 1 788.15 576.98
  C 798.80 582.66 808.87 585.51 820.89 583.27
  C 825.33 582.45 828.65 581.49 831.79 581.76
  Q 840.57 582.49 844.44 589.76
  C 847.58 595.66 849.54 602.38 845.73 608.61
  A 2.02 2.01 -74.3 0 1 844.01 609.58
  C 838.65 609.59 835.58 608.24 831.08 604.70
  Q 829.76 603.66 824.60 599.52
  C 819.53 595.45 815.73 594.05 809.98 593.25
  Q 803.16 592.31 801.00 592.49
  A 0.73 0.73 0.0 0 0 800.36 593.05
  Q 799.22 598.07 796.61 602.88
  C 794.60 606.60 790.57 606.66 786.05 606.73
  A 0.49 0.48 -8.6 0 0 785.59 607.35
  Z"
/>
<path fill="#393f46" d="
  M 792.93 626.19
  Q 788.40 619.80 780.57 619.47
  C 787.90 618.65 793.92 615.97 800.35 621.45
  A 0.65 0.65 0.0 0 1 800.22 622.52
  L 792.93 626.19
  Z"
/>
<path fill="#393f46" d="
  M 858.48 623.04
  Q 848.38 622.82 843.77 630.51
  Q 841.87 624.81 845.37 621.87
  Q 847.93 619.72 853.37 618.59
  A 0.95 0.92 60.8 0 1 854.21 618.84
  L 858.48 623.04
  Z"
/>
<path fill="#fdfcfc" d="
  M 792.93 626.19
  L 794.13 628.89
  A 0.41 0.40 68.9 0 1 793.89 629.44
  Q 785.98 632.23 778.41 632.67
  A 0.77 0.77 0.0 0 1 777.60 631.82
  Q 778.05 627.62 781.81 624.83
  A 0.41 0.41 0.0 0 0 781.40 624.13
  Q 778.31 625.49 776.98 628.39
  A 1.81 1.75 -32.6 0 0 776.81 629.10
  Q 776.78 629.56 776.30 631.47
  A 0.71 0.71 0.0 0 1 775.68 632.01
  Q 772.73 632.32 770.96 630.95
  A 0.88 0.88 0.0 0 1 770.64 630.04
  Q 771.80 625.11 775.50 622.46
  A 0.34 0.34 0.0 0 0 775.17 621.87
  Q 770.51 623.93 769.29 629.40
  A 0.27 0.26 -81.3 0 1 769.01 629.61
  L 768.68 629.59
  A 0.08 0.07 7.6 0 1 768.61 629.51
  Q 769.22 623.13 774.70 620.53
  A 2.88 2.66 -59.8 0 1 775.38 620.32
  L 780.57 619.47
  Q 788.40 619.80 792.93 626.19
  Z"
/>
<path fill="#fdfcfc" d="
  M 858.48 623.04
  C 862.74 625.35 866.81 627.40 867.06 632.87
  A 2.99 2.99 0.0 0 1 866.40 634.88
  L 865.62 635.86
  A 0.45 0.45 0.0 0 1 864.82 635.59
  Q 864.75 630.05 860.65 627.08
  A 0.37 0.37 0.0 0 0 860.15 627.62
  Q 863.22 631.35 863.56 635.85
  A 2.01 2.01 0.0 0 1 861.56 638.01
  L 857.15 638.01
  A 1.38 1.37 -88.2 0 1 855.78 636.55
  Q 856.01 632.97 853.10 629.37
  Q 852.93 629.17 852.52 629.06
  Q 852.38 629.03 852.27 629.06
  A 0.38 0.38 0.0 0 0 852.05 629.61
  Q 854.36 633.64 854.38 637.30
  A 0.62 0.62 0.0 0 1 853.76 637.93
  Q 848.94 637.99 845.27 635.16
  A 1.24 1.16 13.0 0 1 844.83 634.50
  L 843.77 630.51
  Q 848.38 622.82 858.48 623.04
  Z"
/>
</svg>
