<?xml version="1.0" encoding="UTF-8" standalone="no"?>
<!DOCTYPE svg PUBLIC "-//W3C//DTD SVG 1.1//EN" "http://www.w3.org/Graphics/SVG/1.1/DTD/svg11.dtd">
<svg xmlns="http://www.w3.org/2000/svg" version="1.1" viewBox="0.00 0.00 1080.00 1080.00">
<g stroke-width="2.00" fill="none" stroke-linecap="butt">
<path stroke="#2c3138" vector-effect="non-scaling-stroke" d="
  M 477.40 267.55
  Q 478.88 266.35 478.90 264.74"
/>
<path stroke="#8f9195" vector-effect="non-scaling-stroke" d="
  M 490.30 282.01
  L 491.18 281.05"
/>
<path stroke="#6e5259" vector-effect="non-scaling-stroke" d="
  M 491.18 281.05
  Q 492.77 280.40 494.12 279.36
  Q 507.29 269.17 516.11 261.80
  A 3.71 3.34 -90.0 0 0 516.76 261.08
  Q 519.37 257.24 522.18 249.68
  Q 529.84 229.09 532.81 217.18
  Q 533.12 215.91 533.34 214.63
  A 0.29 0.29 0.0 0 0 532.86 214.37
  Q 519.44 226.44 510.27 235.36
  Q 508.92 236.66 506.47 238.89
  Q 499.89 244.87 496.15 252.63
  Q 490.45 264.44 485.37 277.84
  Q 483.39 283.04 482.10 288.37
  A 0.27 0.27 0.0 0 0 482.54 288.64
  L 490.30 282.01"
/>
<path stroke="#dbbec0" vector-effect="non-scaling-stroke" d="
  M 491.18 281.05
  L 513.60 259.21
  A 0.24 0.24 0.0 0 0 513.39 258.80
  L 507.45 259.92
  A 0.63 0.63 0.0 0 1 506.84 258.90
  L 519.68 243.15
  A 0.22 0.22 0.0 0 0 519.44 242.80
  L 513.23 244.73
  A 0.48 0.48 0.0 0 1 512.68 244.01
  L 521.98 229.82
  A 0.16 0.16 0.0 0 0 521.74 229.62
  L 500.25 251.12
  A 0.38 0.38 0.0 0 0 500.72 251.71
  Q 503.49 249.97 506.30 249.71
  A 0.73 0.73 0.0 0 1 506.93 250.90
  L 495.06 265.46
  A 0.32 0.32 0.0 0 0 495.41 265.97
  L 501.31 264.14
  A 0.45 0.44 -80.5 0 1 501.80 264.83
  L 489.70 281.38
  A 0.35 0.35 0.0 0 0 489.89 281.93
  Q 490.07 281.97 490.30 282.01"
/>
<path stroke="#6e5259" vector-effect="non-scaling-stroke" d="
  M 469.54 282.08
  Q 469.96 281.63 469.85 281.32
  Q 469.73 280.98 469.39 280.90
  Q 455.05 277.46 441.32 275.84
  A 0.20 0.20 0.0 0 0 441.22 276.22
  Q 443.88 277.40 445.71 280.48
  A 0.27 0.26 -23.4 0 1 445.55 280.87
  C 440.95 282.33 435.49 282.83 430.65 285.22
  A 0.50 0.50 0.0 0 0 430.92 286.16
  Q 432.70 285.99 434.23 286.38
  A 0.52 0.52 0.0 0 1 434.42 287.29
  L 426.20 293.55
  A 0.47 0.47 0.0 0 0 426.57 294.38
  L 435.02 292.78
  A 0.61 0.61 0.0 0 1 435.73 293.50
  L 434.32 300.54
  A 0.24 0.24 0.0 0 0 434.70 300.77
  L 441.89 295.29
  A 0.59 0.58 -5.2 0 1 442.77 296.02
  Q 442.41 296.71 443.00 297.42"
/>
<path stroke="#2c3138" vector-effect="non-scaling-stroke" d="
  M 443.00 297.42
  Q 443.44 297.76 443.40 298.15
  A 1.21 0.96 32.4 0 1 441.42 298.36
  Q 441.40 298.34 441.46 298.26
  A 0.46 0.46 0.0 0 0 440.82 297.63
  L 433.84 302.59
  A 0.64 0.64 0.0 0 1 432.85 301.94
  L 434.13 295.54
  A 0.63 0.62 9.0 0 0 433.59 294.80
  Q 432.22 294.63 430.06 295.56
  C 428.44 296.25 426.45 296.15 424.70 296.13
  A 1.07 1.06 15.2 0 0 423.76 296.66
  L 420.31 302.53"
/>
<path stroke="#8f9195" vector-effect="non-scaling-stroke" d="
  M 420.31 302.53
  Q 418.77 303.11 417.56 305.92"
/>
<path stroke="#6e5259" vector-effect="non-scaling-stroke" d="
  M 417.56 305.92
  L 417.76 307.83
  A 0.85 0.84 -76.3 0 0 418.13 308.45
  L 421.99 311.09
  A 1.31 1.04 4.7 0 1 422.29 311.37
  Q 424.03 313.64 426.16 315.11"
/>
<path stroke="#8f9195" vector-effect="non-scaling-stroke" d="
  M 426.16 315.11
  Q 427.41 321.23 427.03 327.24"
/>
<path stroke="#2c3138" vector-effect="non-scaling-stroke" d="
  M 427.03 327.24
  Q 426.42 327.87 424.87 327.76
  Q 420.36 327.42 418.06 324.51
  A 2.34 2.32 -3.3 0 0 417.47 323.99
  L 417.09 323.75"
/>
<path stroke="#6e5259" vector-effect="non-scaling-stroke" d="
  M 417.09 323.75
  L 416.94 323.08
  A 0.27 0.27 0.0 0 0 416.46 322.98
  L 409.64 332.30
  A 0.57 0.57 0.0 0 0 410.15 333.20
  Q 411.09 333.10 412.46 333.68
  A 0.64 0.64 0.0 0 1 412.81 334.48
  L 411.19 339.09
  A 1.77 1.75 -50.8 0 0 411.33 340.54
  Q 414.15 345.36 418.60 348.94"
/>
<path stroke="#2c3138" vector-effect="non-scaling-stroke" d="
  M 418.60 348.94
  Q 420.03 350.66 423.14 351.10"
/>
<path stroke="#8f9195" vector-effect="non-scaling-stroke" d="
  M 423.14 351.10
  Q 430.54 357.32 439.84 360.89
  A 1.39 1.34 48.4 0 0 440.63 360.95
  L 454.35 357.80
  A 2.90 2.82 24.1 0 0 454.87 357.61
  Q 460.54 354.72 462.45 349.15"
/>
<path stroke="#2c3138" vector-effect="non-scaling-stroke" d="
  M 462.45 349.15
  Q 467.25 349.69 472.93 347.46
  C 478.99 345.07 484.95 337.83 488.44 332.60
  A 1.40 1.37 11.6 0 1 489.37 332.00
  Q 490.51 331.81 492.82 332.17
  A 0.65 0.65 0.0 0 0 493.43 331.14
  L 490.25 326.96
  A 0.42 0.41 39.3 0 1 490.20 326.54
  Q 490.43 326.00 491.39 325.90
  A 0.62 0.62 0.0 0 0 491.60 324.73
  L 485.07 321.55
  A 0.80 0.79 18.6 0 1 484.63 320.68
  Q 485.73 314.91 483.94 308.05
  Q 481.40 298.28 480.36 290.08
  A 2.82 2.80 -41.9 0 1 480.42 289.03
  Q 482.84 279.48 485.18 273.71
  Q 491.85 257.29 497.23 246.50
  Q 498.29 244.40 500.55 242.30
  Q 511.18 232.41 516.11 227.24
  C 520.22 222.93 523.66 220.20 528.31 215.96
  A 0.61 0.60 25.1 0 0 527.93 214.91
  L 525.93 214.81
  A 2.95 2.92 22.6 0 0 523.62 215.75
  Q 521.27 218.29 516.79 221.40
  C 509.86 226.21 503.81 231.41 497.14 236.27
  C 495.53 237.43 494.66 238.69 493.80 240.30
  Q 479.77 266.37 469.95 284.17
  Q 469.55 284.90 468.55 285.60
  A 0.19 0.19 0.0 0 1 468.26 285.37
  L 469.54 282.08"
/>
<path stroke="#999c9f" vector-effect="non-scaling-stroke" d="
  M 462.45 349.15
  Q 462.81 341.54 459.50 336.70
  C 456.51 332.32 451.94 331.05 448.21 328.08"
/>
<path stroke="#785e63" vector-effect="non-scaling-stroke" d="
  M 448.21 328.08
  Q 448.31 327.10 448.67 326.48"
/>
<path stroke="#2c3138" vector-effect="non-scaling-stroke" d="
  M 448.67 326.48
  L 448.78 326.91
  A 0.59 0.58 -6.4 0 0 449.34 327.35
  Q 450.58 327.36 454.25 327.88
  Q 456.42 328.19 460.60 328.02
  C 466.68 327.77 473.40 324.62 475.96 318.88
  A 1.38 1.33 55.4 0 0 476.08 318.16
  L 474.39 303.53"
/>
<path stroke="#785e63" vector-effect="non-scaling-stroke" d="
  M 474.39 303.53
  Q 474.57 303.22 474.61 302.53"
/>
<path stroke="#999c9f" vector-effect="non-scaling-stroke" d="
  M 474.61 302.53
  Q 474.94 301.61 473.85 301.20
  Q 469.01 299.36 467.42 299.20
  A 4.13 4.09 -51.3 0 0 465.68 299.40
  C 460.25 301.25 456.78 303.96 452.41 307.65
  Q 448.44 310.98 447.43 314.73
  Q 446.82 317.03 444.83 325.70
  A 0.67 0.66 -78.3 0 1 444.06 326.21
  Q 440.94 325.60 437.26 325.06
  Q 435.80 324.84 429.22 326.85
  A 0.48 0.47 79.2 0 1 428.61 326.43
  L 427.68 313.03
  A 3.16 2.70 -58.9 0 0 427.58 312.43
  C 426.54 308.65 423.15 305.11 420.31 302.53"
/>
<path stroke="#785e63" vector-effect="non-scaling-stroke" d="
  M 443.00 297.42
  Q 446.31 295.72 449.17 293.57
  A 0.22 0.21 15.8 0 0 448.96 293.20
  L 445.79 294.38
  A 0.50 0.50 0.0 0 1 445.11 293.88
  Q 445.13 293.44 445.60 292.61
  A 0.42 0.42 0.0 0 0 445.00 292.05
  L 437.76 296.76
  A 0.48 0.48 0.0 0 1 437.05 296.19
  Q 438.05 293.61 437.87 291.76
  A 0.45 0.45 0.0 0 0 437.34 291.35
  L 431.70 292.42
  A 0.42 0.41 -68.6 0 1 431.38 291.68
  L 438.23 286.46
  A 0.27 0.27 0.0 0 0 438.07 285.98
  Q 436.87 285.96 436.14 285.69
  A 0.70 0.70 0.0 0 1 436.25 284.35
  L 448.89 281.96
  A 0.35 0.35 0.0 0 0 449.07 281.37
  L 446.21 278.52
  A 0.51 0.51 0.0 0 1 446.67 277.66
  L 469.54 282.08"
/>
<path stroke="#6e5259" vector-effect="non-scaling-stroke" d="
  M 474.39 303.53
  Q 473.62 305.51 472.09 306.88
  A 0.41 0.39 20.4 0 1 471.85 306.98
  L 463.91 307.53
  A 2.44 2.43 26.7 0 0 462.75 307.91
  Q 458.92 310.30 453.94 313.69
  Q 451.06 315.66 450.78 317.05
  Q 449.85 321.80 448.67 326.48"
/>
<path stroke="#dbbec0" vector-effect="non-scaling-stroke" d="
  M 474.61 302.53
  Q 467.64 303.10 464.15 304.69
  Q 460.34 306.42 452.54 312.57
  Q 449.76 314.76 449.07 318.32
  Q 447.49 326.56 447.42 327.00
  Q 447.24 328.10 448.21 328.08"
/>
<path stroke="#999c9f" vector-effect="non-scaling-stroke" d="
  M 423.14 351.10
  L 419.48 341.21
  A 1.23 1.19 39.4 0 1 419.42 340.68
  C 420.20 335.10 423.59 331.78 427.31 327.92
  A 0.45 0.45 0.0 0 0 427.30 327.29
  Q 427.14 327.14 427.03 327.24"
/>
<path stroke="#dbbec0" vector-effect="non-scaling-stroke" d="
  M 426.16 315.11
  Q 424.68 309.45 417.56 305.92"
/>
<path stroke="#785e63" vector-effect="non-scaling-stroke" d="
  M 417.09 323.75
  L 411.88 331.13
  A 0.66 0.65 -73.2 0 0 412.43 332.16
  Q 413.63 332.13 414.46 332.95
  A 0.83 0.81 -58.2 0 1 414.65 333.80
  L 413.03 338.44
  A 1.97 1.96 39.1 0 0 413.21 340.12
  L 418.60 348.94"
/>
<path stroke="#2c3138" vector-effect="non-scaling-stroke" d="
  M 429.63 277.25
  L 429.83 276.24
  A 1.30 1.28 -2.7 0 1 430.74 275.25
  C 434.23 274.21 441.71 269.98 443.50 265.72
  Q 446.99 257.38 448.38 254.68
  Q 451.15 249.28 452.85 243.50
  Q 457.30 228.37 457.83 226.03
  Q 458.90 221.31 458.62 217.57
  A 1.56 1.56 0.0 0 0 455.79 216.78
  C 453.44 220.07 450.48 222.52 448.06 225.79
  Q 446.73 227.59 443.23 230.99
  C 439.24 234.86 436.62 238.31 433.26 242.04
  Q 431.58 243.90 431.44 247.25
  Q 431.07 255.43 429.14 274.31
  Q 428.76 278.05 429.55 277.38
  A 0.26 0.23 79.2 0 0 429.63 277.25"
/>
<path stroke="#184971" vector-effect="non-scaling-stroke" d="
  M 519.58 331.55
  L 512.79 339.15
  A 0.96 0.95 -77.9 0 1 512.38 339.42
  L 494.02 345.75
  A 0.71 0.71 0.0 0 0 493.58 346.63
  L 493.73 347.13
  A 0.64 0.64 0.0 0 0 494.55 347.54
  L 513.61 340.97
  A 0.14 0.14 0.0 0 1 513.79 341.06
  L 513.95 341.56
  A 0.35 0.34 71.6 0 1 513.74 341.99
  L 494.36 349.27
  A 0.55 0.54 51.1 0 0 494.26 350.24
  L 494.78 350.59
  A 1.70 1.68 53.9 0 0 496.13 350.81
  L 521.44 344.43
  A 2.84 2.79 -73.5 0 0 522.67 343.75
  L 539.57 327.50"
/>
<path stroke="#165f8e" vector-effect="non-scaling-stroke" d="
  M 539.57 327.50
  Q 542.21 326.58 546.04 325.89
  Q 556.66 323.95 567.37 322.08
  A 0.57 0.57 0.0 0 0 567.58 321.04
  L 564.18 318.93"
/>
<path stroke="#184971" vector-effect="non-scaling-stroke" d="
  M 564.18 318.93
  L 561.19 315.83
  A 2.28 2.28 0.0 0 1 560.65 313.57
  L 562.75 306.86"
/>
<path stroke="#165f8e" vector-effect="non-scaling-stroke" d="
  M 562.75 306.86
  Q 563.84 305.45 563.89 304.16
  A 0.48 0.47 82.2 0 0 563.28 303.69
  L 535.65 312.27
  A 3.51 3.49 10.5 0 0 533.95 313.43
  L 519.58 331.55"
/>
<path stroke="#0d83d0" vector-effect="non-scaling-stroke" d="
  M 562.75 306.86
  Q 558.27 309.14 553.83 311.63
  C 548.67 314.52 542.80 315.84 537.93 319.30
  Q 534.69 321.60 532.98 322.55
  A 0.32 0.32 0.0 0 0 533.22 323.13
  L 537.74 321.83
  A 1.12 0.58 17.3 0 1 537.96 321.79
  L 564.18 318.93"
/>
<path stroke="#0d83d0" vector-effect="non-scaling-stroke" d="
  M 539.57 327.50
  Q 529.73 328.65 519.58 331.55"
/>
<path stroke="#8f9195" vector-effect="non-scaling-stroke" d="
  M 421.55 325.19
  Q 418.85 319.06 422.01 314.14
  A 0.88 0.87 -47.1 0 0 421.98 313.13
  Q 421.32 312.24 420.28 311.82
  A 0.72 0.72 0.0 0 0 419.29 312.37
  Q 418.63 316.55 418.79 321.87
  C 418.85 323.87 419.83 324.53 421.15 325.51
  A 0.27 0.26 -83.5 0 0 421.55 325.19"
/>
<path stroke="#8f9195" vector-effect="non-scaling-stroke" d="
  M 373.25 317.81
  L 376.01 326.96
  A 0.66 0.65 -19.8 0 0 376.89 327.37
  Q 377.69 327.04 377.90 327.11
  A 0.45 0.45 0.0 0 1 377.87 327.96
  Q 372.12 329.62 369.89 335.20
  A 0.50 0.50 0.0 0 1 368.98 335.25
  Q 367.32 332.13 362.57 331.47
  A 2.06 1.82 12.3 0 0 360.38 332.69
  Q 359.82 334.47 361.57 335.68"
/>
<path stroke="#6e5259" vector-effect="non-scaling-stroke" d="
  M 361.57 335.68
  Q 364.47 339.06 368.83 340.60"
/>
<path stroke="#8f9195" vector-effect="non-scaling-stroke" d="
  M 368.83 340.60
  L 369.90 341.41
  A 1.32 1.31 8.5 0 1 370.31 341.96
  Q 372.95 348.80 379.84 351.17
  A 1.90 1.90 0.0 0 0 380.74 351.25
  L 384.22 350.72"
/>
<path stroke="#2c3138" vector-effect="non-scaling-stroke" d="
  M 384.22 350.72
  Q 389.05 357.26 394.65 362.86
  Q 400.01 368.22 408.10 370.20
  Q 417.17 372.42 422.94 373.56
  A 0.41 0.41 0.0 0 0 423.42 373.05
  L 420.58 361.79
  A 1.35 1.32 10.8 0 0 420.04 361.01
  Q 418.86 360.20 419.15 358.79
  A 0.54 0.53 -81.2 0 0 418.69 358.15
  Q 412.69 357.46 407.98 355.49
  A 2.85 2.79 -14.6 0 1 407.28 355.09
  L 392.77 343.81"
/>
<path stroke="#8f9195" vector-effect="non-scaling-stroke" d="
  M 392.77 343.81
  Q 392.79 339.42 392.90 334.50
  Q 392.96 331.75 393.38 330.78
  Q 395.05 326.99 394.76 324.65
  A 1.10 1.07 -71.8 0 0 394.47 324.05
  Q 392.99 322.49 391.20 323.36
  Q 387.54 325.14 387.20 329.64
  A 1.35 1.34 71.3 0 1 386.76 330.54
  Q 386.34 330.90 385.82 330.97"
/>
<path stroke="#2c3138" vector-effect="non-scaling-stroke" d="
  M 385.82 330.97
  Q 385.32 330.85 385.23 330.43"
/>
<path stroke="#8f9195" vector-effect="non-scaling-stroke" d="
  M 385.23 330.43
  Q 386.00 329.50 385.15 328.54
  Q 384.03 327.28 383.86 326.96
  Q 380.99 321.80 378.67 316.99
  A 3.79 3.76 77.1 0 0 375.29 314.85
  Q 374.24 314.85 373.42 316.46"
/>
<path stroke="#999c9f" vector-effect="non-scaling-stroke" d="
  M 385.23 330.43
  L 381.32 335.61
  A 1.30 1.28 63.6 0 0 381.05 336.43
  L 381.09 340.63
  A 0.45 0.44 -39.1 0 0 381.97 340.72
  Q 382.16 339.87 382.12 338.27
  A 2.63 2.63 0.0 0 1 382.45 336.92
  L 385.82 330.97"
/>
<path stroke="#999c9f" vector-effect="non-scaling-stroke" d="
  M 392.77 343.81
  Q 389.41 348.95 384.22 350.72"
/>
<path stroke="#dbbec0" vector-effect="non-scaling-stroke" d="
  M 368.83 340.60
  Q 369.14 339.28 368.76 338.01
  A 0.34 0.33 61.6 0 0 368.23 337.85
  Q 368.20 337.88 368.07 338.07
  Q 367.97 338.21 367.27 337.92
  Q 364.59 336.77 361.57 335.68"
/>
<path stroke="#8f9195" vector-effect="non-scaling-stroke" d="
  M 423.4147 316.4000
  A 1.53 1.10 -90.2 0 0 422.3200 317.9338
  A 1.53 1.10 -90.2 0 0 423.4253 319.4600
  A 1.53 1.10 -90.2 0 0 424.5200 317.9262
  A 1.53 1.10 -90.2 0 0 423.4147 316.4000"
/>
<path stroke="#8f9195" vector-effect="non-scaling-stroke" d="
  M 374.16 328.05
  C 372.54 326.36 370.62 322.02 367.30 320.29
  A 2.31 2.26 -64.0 0 0 364.17 321.40
  C 362.58 324.90 367.22 329.90 369.91 333.13
  A 0.45 0.45 0.0 0 0 370.66 333.03
  Q 371.85 330.42 374.10 328.75
  A 0.47 0.47 0.0 0 0 374.16 328.05"
/>
<path stroke="#184971" vector-effect="non-scaling-stroke" d="
  M 521.82 356.82
  Q 512.89 355.35 504.12 353.14
  Q 499.66 352.01 495.77 352.41
  A 0.97 0.96 -44.8 0 0 495.76 354.33
  L 500.78 354.88"
/>
<path stroke="#2c3138" vector-effect="non-scaling-stroke" d="
  M 500.78 354.88
  Q 500.21 356.01 499.18 356.62"
/>
<path stroke="#184971" vector-effect="non-scaling-stroke" d="
  M 499.18 356.62
  Q 497.27 356.19 495.50 356.53
  A 0.52 0.52 0.0 0 0 495.48 357.54
  C 499.18 358.43 502.58 360.33 506.17 361.48
  Q 514.77 364.23 525.80 368.21
  Q 528.40 369.15 530.19 368.45
  Q 540.91 364.25 551.85 360.32"
/>
<path stroke="#165f8e" vector-effect="non-scaling-stroke" d="
  M 551.85 360.32
  L 560.11 357.45"
/>
<path stroke="#184971" vector-effect="non-scaling-stroke" d="
  M 560.11 357.45
  L 584.06 367.59
  A 0.58 0.58 0.0 0 0 584.84 366.88
  L 582.82 360.89"
/>
<path stroke="#165f8e" vector-effect="non-scaling-stroke" d="
  M 582.82 360.89
  Q 582.44 358.27 580.68 355.95"
/>
<path stroke="#184971" vector-effect="non-scaling-stroke" d="
  M 580.68 355.95
  L 590.67 346.87"
/>
<path stroke="#165f8e" vector-effect="non-scaling-stroke" d="
  M 590.67 346.87
  Q 592.44 346.01 593.23 344.74
  A 0.38 0.38 0.0 0 0 592.93 344.16
  L 562.32 342.60
  A 3.75 3.74 -56.2 0 0 560.51 342.96
  L 530.29 357.29
  A 4.34 4.30 -53.5 0 1 527.80 357.67
  L 521.82 356.82"
/>
<path stroke="#0d83d0" vector-effect="non-scaling-stroke" d="
  M 590.67 346.87
  Q 581.62 348.73 578.57 348.87
  Q 572.24 349.16 566.17 350.91
  A 0.35 0.35 0.0 0 0 566.16 351.58
  L 580.68 355.95"
/>
<path stroke="#0d83d0" vector-effect="non-scaling-stroke" d="
  M 582.82 360.89
  Q 582.08 362.08 580.10 361.22
  Q 578.16 360.38 577.28 360.21
  Q 568.88 358.60 560.11 357.45"
/>
<path stroke="#0d83d0" vector-effect="non-scaling-stroke" d="
  M 551.85 360.32
  C 543.59 360.65 532.87 362.17 522.98 359.77"
/>
<path stroke="#206b98" vector-effect="non-scaling-stroke" d="
  M 522.98 359.77
  L 521.54 359.23"
/>
<path stroke="#0d83d0" vector-effect="non-scaling-stroke" d="
  M 521.54 359.23
  Q 521.37 358.14 521.82 356.82"
/>
<path stroke="#23547b" vector-effect="non-scaling-stroke" d="
  M 522.98 359.77
  Q 524.57 361.03 522.32 361.02
  Q 521.37 361.02 519.79 360.67
  Q 509.55 358.40 499.18 356.62"
/>
<path stroke="#23547b" vector-effect="non-scaling-stroke" d="
  M 521.54 359.23
  L 500.78 354.88"
/>
<path stroke="#165f8e" vector-effect="non-scaling-stroke" d="
  M 423.74 354.97
  Q 422.13 354.10 421.70 358.00"
/>
<path stroke="#2c3138" vector-effect="non-scaling-stroke" d="
  M 421.70 358.00
  Q 421.43 359.55 421.78 360.26
  Q 423.34 363.39 424.13 366.81"
/>
<path stroke="#184971" vector-effect="non-scaling-stroke" d="
  M 424.13 366.81
  C 423.09 369.47 426.31 372.23 428.24 373.97"
/>
<path stroke="#2c3138" vector-effect="non-scaling-stroke" d="
  M 428.24 373.97
  Q 428.05 375.35 427.57 376.11"
/>
<path stroke="#184971" vector-effect="non-scaling-stroke" d="
  M 427.57 376.11
  Q 426.95 377.95 427.50 379.72"
/>
<path stroke="#165f8e" vector-effect="non-scaling-stroke" d="
  M 427.50 379.72
  Q 428.13 388.48 430.07 397.06
  Q 430.84 400.45 430.60 401.57
  Q 429.12 408.49 427.11 416.61
  A 1.76 1.76 0.0 0 0 427.75 418.42
  Q 433.69 422.98 441.00 426.23
  Q 443.77 427.47 448.33 428.01"
/>
<path stroke="#2c3138" vector-effect="non-scaling-stroke" d="
  M 448.33 428.01
  Q 449.46 428.10 450.28 428.57"
/>
<path stroke="#165f8e" vector-effect="non-scaling-stroke" d="
  M 450.28 428.57
  Q 466.80 431.15 481.97 424.25"
/>
<path stroke="#184971" vector-effect="non-scaling-stroke" d="
  M 481.97 424.25
  Q 490.99 420.02 497.57 413.01
  A 1.43 1.42 55.0 0 0 497.84 411.47
  Q 494.97 404.90 492.67 398.73
  Q 491.26 394.94 491.26 391.19
  A 0.77 0.77 0.0 0 0 489.94 390.66
  C 487.85 392.83 484.69 391.18 483.21 389.33
  C 478.32 383.20 478.51 377.69 478.88 370.25"
/>
<path stroke="#2c3138" vector-effect="non-scaling-stroke" d="
  M 478.88 370.25
  Q 478.37 369.72 477.93 368.45"
/>
<path stroke="#184971" vector-effect="non-scaling-stroke" d="
  M 477.93 368.45
  Q 485.54 360.93 489.85 357.11
  Q 490.45 356.58 492.06 355.96
  A 0.89 0.89 0.0 0 0 492.63 355.16
  Q 492.86 350.19 491.25 345.49
  A 0.68 0.67 -29.7 0 0 490.18 345.20
  L 483.49 350.91
  A 2.56 2.53 15.7 0 1 482.53 351.44
  Q 472.47 354.52 466.83 356.08
  Q 463.03 357.13 460.63 358.01
  C 457.23 359.26 453.46 359.69 449.46 360.75
  C 444.59 362.04 441.25 363.68 436.67 361.87
  Q 429.82 359.15 423.74 354.97"
/>
<path stroke="#23547b" vector-effect="non-scaling-stroke" d="
  M 477.93 368.45
  L 471.74 374.27
  A 1.19 0.88 0.4 0 1 471.48 374.46
  C 467.25 376.77 465.13 378.06 461.61 379.42
  Q 448.37 384.55 445.96 385.23
  C 440.47 386.78 432.03 377.49 428.24 373.97"
/>
<path stroke="#23547b" vector-effect="non-scaling-stroke" d="
  M 424.13 366.81
  Q 424.43 364.98 425.47 365.58
  Q 432.58 369.70 440.62 373.46
  A 1.75 1.57 -28.0 0 0 441.22 373.61
  L 443.03 373.70
  A 0.56 0.56 0.0 0 0 443.59 372.98
  Q 443.45 372.53 442.93 372.11"
/>
<path stroke="#0d83d0" vector-effect="non-scaling-stroke" d="
  M 442.93 372.11
  L 453.84 372.38
  A 0.30 0.30 0.0 0 1 453.97 372.95
  C 447.93 376.21 441.81 377.48 435.50 373.72
  Q 431.47 371.32 427.46 368.40
  A 0.26 0.26 0.0 0 0 427.08 368.74
  C 430.64 375.05 437.74 381.80 445.61 380.93
  C 453.58 380.05 461.80 377.27 467.90 371.91
  Q 471.57 368.69 476.12 364.16
  A 0.85 0.85 0.0 0 0 475.46 362.71
  L 473.42 362.86"
/>
<path stroke="#23547b" vector-effect="non-scaling-stroke" d="
  M 473.42 362.86
  L 488.27 353.22
  A 0.57 0.57 0.0 0 0 488.44 352.43
  L 488.28 352.19
  A 0.55 0.54 56.8 0 0 487.53 352.03
  L 472.08 362.09
  A 0.62 0.61 -30.7 0 0 471.87 362.89
  Q 472.29 363.72 473.42 362.86"
/>
<path stroke="#0d83d0" vector-effect="non-scaling-stroke" d="
  M 473.42 362.86
  Q 470.80 365.06 468.16 365.88
  Q 466.27 366.47 454.82 368.97
  A 0.35 0.34 -13.0 0 1 454.41 368.72
  L 454.39 368.64
  A 0.31 0.30 75.3 0 1 454.60 368.27
  Q 465.81 364.83 474.82 357.68
  A 0.31 0.30 30.8 0 0 474.68 357.14
  Q 473.64 356.96 472.48 357.51
  Q 469.09 359.12 464.66 360.32
  C 462.18 360.99 459.74 360.72 457.46 362.01
  A 2.56 2.53 -65.0 0 1 456.65 362.31
  C 452.64 363.05 447.71 363.73 443.33 364.85
  C 436.05 366.72 430.08 362.04 423.89 358.94
  A 1.25 1.22 -87.2 0 1 423.27 358.24
  Q 422.77 356.82 423.74 354.97"
/>
<path stroke="#206b98" vector-effect="non-scaling-stroke" d="
  M 442.93 372.11
  Q 431.26 368.08 422.14 359.87
  A 1.48 1.47 15.3 0 1 421.71 359.12
  Q 421.59 358.58 421.70 358.00"
/>
<path stroke="#23547b" vector-effect="non-scaling-stroke" d="
  M 478.88 370.25
  Q 476.29 372.23 474.22 374.72
  Q 472.97 376.22 466.96 379.22
  Q 457.45 383.95 447.74 386.84
  A 2.47 2.45 83.5 0 0 445.99 389.06
  Q 445.71 394.15 447.67 398.12"
/>
<path stroke="#206b98" vector-effect="non-scaling-stroke" d="
  M 447.67 398.12
  L 449.32 403.45
  A 1.31 1.31 0.0 0 0 450.47 404.37
  L 461.86 405.25
  A 0.22 0.21 -55.0 0 1 461.93 405.66
  C 459.38 406.84 453.91 406.54 449.88 406.15
  A 0.62 0.62 0.0 0 0 449.21 406.71
  Q 448.15 417.65 450.28 428.57"
/>
<path stroke="#206b98" vector-effect="non-scaling-stroke" d="
  M 448.33 428.01
  Q 446.56 417.39 447.21 406.60
  A 1.06 1.06 0.0 0 0 446.44 405.52
  L 441.16 404.05
  A 0.50 0.47 72.8 0 1 440.98 403.95
  L 440.60 403.55
  A 0.39 0.38 -19.9 0 1 440.91 402.90
  L 446.42 403.33
  A 0.50 0.50 0.0 0 0 446.95 402.74
  L 445.01 392.15"
/>
<path stroke="#23547b" vector-effect="non-scaling-stroke" d="
  M 445.01 392.15
  Q 445.30 390.38 444.87 388.57
  A 1.05 1.04 87.4 0 0 444.03 387.80
  L 442.96 387.61
  A 2.85 2.78 -25.1 0 1 442.04 387.29
  Q 433.97 382.89 427.57 376.11"
/>
<path stroke="#0d83d0" vector-effect="non-scaling-stroke" d="
  M 481.97 424.25
  L 483.27 417.14"
/>
<path stroke="#23547b" vector-effect="non-scaling-stroke" d="
  M 483.27 417.14
  L 486.30 420.44
  A 0.26 0.25 58.0 0 0 486.58 420.51
  L 486.90 420.40
  A 0.48 0.48 0.0 0 0 487.12 419.64
  L 480.11 410.75"
/>
<path stroke="#0d83d0" vector-effect="non-scaling-stroke" d="
  M 480.11 410.75
  C 481.14 409.42 480.27 405.97 479.95 404.68
  C 479.03 400.98 479.01 399.38 478.90 395.38
  C 478.78 390.57 476.95 386.15 473.84 382.45
  A 0.73 0.73 0.0 0 0 473.05 382.23
  L 447.46 391.06
  A 0.86 0.85 77.4 0 0 446.89 391.97
  L 447.67 398.12"
/>
<path stroke="#0d83d0" vector-effect="non-scaling-stroke" d="
  M 445.01 392.15
  C 438.99 388.25 433.64 386.20 429.15 379.49
  A 0.84 0.81 66.3 0 0 428.29 379.14
  Q 427.78 379.26 427.50 379.72"
/>
<path stroke="#206b98" vector-effect="non-scaling-stroke" d="
  M 480.11 410.75
  Q 478.47 407.78 476.42 405.46
  A 0.24 0.24 0.0 0 0 476.02 405.72
  Q 479.07 411.88 483.27 417.14"
/>
<path stroke="#8f9195" vector-effect="non-scaling-stroke" d="
  M 509.21 411.53
  Q 505.18 415.32 502.13 420.31
  A 1.40 1.36 59.6 0 0 501.92 421.17
  C 502.17 424.16 502.32 426.00 505.29 427.26
  A 0.57 0.57 0.0 0 0 506.08 426.78
  L 506.28 424.17
  A 0.39 0.39 0.0 0 1 507.02 424.04
  Q 508.25 426.82 506.59 428.72
  A 1.18 1.16 60.5 0 0 506.32 429.72
  Q 506.87 432.37 508.48 433.76
  A 1.90 1.89 66.1 0 0 509.66 434.22
  Q 515.71 434.33 516.08 427.93
  A 0.41 0.41 0.0 0 1 516.89 427.87
  Q 517.64 431.61 515.26 434.33
  A 0.28 0.28 0.0 0 0 515.48 434.79
  Q 522.19 434.55 523.34 427.52
  A 0.31 0.30 45.6 0 1 523.94 427.53
  Q 524.24 429.46 523.61 431.25
  A 0.27 0.27 0.0 0 0 523.97 431.59
  C 526.25 430.63 527.50 427.66 527.99 425.22
  A 3.25 3.18 48.8 0 0 528.04 424.31
  Q 527.60 419.66 525.70 412.26
  Q 525.05 409.71 522.31 409.54"
/>
<path stroke="#2c3138" vector-effect="non-scaling-stroke" d="
  M 522.31 409.54
  Q 521.26 404.30 520.78 402.96
  Q 517.73 394.45 517.25 385.54
  A 0.77 0.73 -68.4 0 0 517.08 385.12
  L 497.06 361.66
  A 1.15 1.14 -32.4 0 0 495.71 361.36
  C 488.21 364.71 482.87 374.58 488.77 381.57
  C 490.41 383.52 493.51 385.23 496.51 387.24
  C 503.43 391.87 507.01 403.85 509.21 411.53"
/>
<path stroke="#999c9f" vector-effect="non-scaling-stroke" d="
  M 522.31 409.54
  C 517.50 408.21 513.22 408.16 509.21 411.53"
/>
<path stroke="#2c3138" vector-effect="non-scaling-stroke" d="
  M 499.66 409.80
  L 501.55 411.69
  A 0.81 0.81 0.0 0 1 501.73 412.54
  Q 500.98 414.52 500.87 416.56
  A 0.60 0.60 0.0 0 0 501.97 416.92
  L 504.59 412.92
  A 1.26 1.26 0.0 0 0 504.68 411.69
  L 502.08 406.22
  A 0.80 0.80 0.0 0 0 500.79 406.00
  L 499.66 407.13
  A 1.89 1.88 -45.1 0 0 499.66 409.80"
/>
<path stroke="#2c3138" vector-effect="non-scaling-stroke" d="
  M 427.57 422.38
  A 0.44 0.44 0.0 0 0 426.97 422.59
  Q 421.20 434.83 418.19 445.70
  A 3.69 3.67 36.5 0 0 418.65 448.70
  L 424.35 457.45
  A 0.76 0.75 74.7 0 0 424.94 457.79
  L 434.82 458.30
  A 3.27 3.26 -78.9 0 0 438.06 456.12
  L 443.66 440.14
  A 2.09 2.08 -70.7 0 1 446.32 438.85
  Q 450.89 440.45 452.77 440.75
  Q 462.60 442.31 469.25 442.66
  A 2.16 2.14 -21.4 0 1 470.64 443.26
  Q 472.58 445.14 479.59 452.35
  Q 487.97 460.98 499.63 459.87
  A 2.81 2.80 -72.8 0 0 501.52 458.87
  C 505.54 454.09 506.39 448.02 503.84 442.39
  C 501.21 436.60 497.51 431.73 494.97 426.20
  A 2.51 2.49 -18.6 0 0 492.14 424.80
  Q 489.25 425.44 486.38 425.60
  A 7.79 7.29 -51.7 0 0 485.05 425.80
  Q 484.48 425.94 478.56 428.76
  Q 476.02 429.97 468.37 431.70
  Q 466.21 432.19 459.63 431.94
  Q 458.83 431.91 450.75 431.92
  A 1.74 1.56 48.2 0 1 450.39 431.88
  L 447.80 431.31
  A 5.48 4.97 42.0 0 1 447.07 431.10
  L 438.83 427.98
  A 4.82 4.39 1.5 0 1 438.21 427.72
  L 427.57 422.38"
/>
<path stroke="#8f9195" vector-effect="non-scaling-stroke" d="
  M 423.79 473.07
  Q 419.99 472.76 416.26 473.16
  Q 405.85 474.29 404.37 485.29
  A 0.53 0.52 9.5 0 0 404.79 485.87
  L 405.28 485.97
  A 0.20 0.19 6.5 0 0 405.51 485.79
  Q 405.98 479.29 412.17 475.78
  A 0.47 0.47 0.0 0 1 412.73 476.52
  C 410.17 479.00 407.12 482.07 407.15 486.07
  A 2.16 2.15 5.4 0 0 408.89 488.17
  L 412.31 488.86
  A 1.31 1.30 6.4 0 0 413.87 487.62
  C 413.99 483.40 417.03 479.18 421.00 478.18
  A 0.29 0.29 0.0 0 1 421.26 478.67
  C 417.68 481.85 415.42 483.81 415.60 488.56
  A 0.65 0.64 -89.5 0 0 416.21 489.19
  C 422.73 489.53 429.19 487.80 435.74 485.68
  A 0.48 0.46 -11.9 0 0 436.07 485.20
  Q 435.74 480.54 432.61 478.07"
/>
<path stroke="#2c3138" vector-effect="non-scaling-stroke" d="
  M 432.61 478.07
  C 436.46 478.92 443.61 477.73 444.35 472.83
  A 0.93 0.93 0.0 0 0 443.61 471.78
  L 434.06 469.87
  A 1.03 0.94 38.9 0 0 433.56 469.90
  L 423.79 473.07"
/>
<path stroke="#999c9f" vector-effect="non-scaling-stroke" d="
  M 432.61 478.07
  Q 428.52 474.60 423.79 473.07"
/>
<path stroke="#8f9195" vector-effect="non-scaling-stroke" d="
  M 500.97 490.23
  Q 504.16 496.53 513.29 496.70
  A 0.58 0.58 0.0 0 0 513.88 496.14
  Q 514.12 490.09 510.95 484.86
  A 0.22 0.22 0.0 0 1 511.29 484.59
  Q 513.94 487.28 514.73 490.51
  Q 515.89 495.24 515.77 495.84
  A 1.01 1.01 0.0 0 0 516.82 497.04
  L 523.44 496.64
  A 2.00 1.99 -0.3 0 0 525.31 494.75
  Q 525.67 488.25 521.51 483.28
  A 0.37 0.37 0.0 0 1 522.00 482.73
  C 525.34 484.89 526.81 489.86 527.06 493.55
  A 0.53 0.53 0.0 0 0 527.89 493.95
  Q 530.18 492.42 530.36 489.72
  C 530.66 485.37 524.94 480.35 521.46 478.44"
/>
<path stroke="#2c3138" vector-effect="non-scaling-stroke" d="
  M 521.46 478.44
  C 517.32 470.75 507.76 471.39 501.58 475.49
  A 1.50 1.47 78.1 0 0 500.93 476.51
  Q 500.02 482.78 500.97 490.23"
/>
<path stroke="#999c9f" vector-effect="non-scaling-stroke" d="
  M 521.46 478.44
  Q 514.18 476.76 506.59 480.58
  Q 500.72 483.54 500.97 490.23"
/>
<path stroke="#dbbec0" vector-effect="non-scaling-stroke" d="
  M 500.60 257.06
  L 504.31 251.79
  A 0.10 0.10 0.0 0 0 504.28 251.65
  L 504.24 251.62
  A 3.18 1.21 -54.9 0 0 501.42 253.52
  L 501.26 253.75
  A 3.18 1.21 -54.9 0 0 500.42 257.05
  L 500.47 257.08
  A 0.10 0.10 0.0 0 0 500.60 257.06"
/>
<path stroke="#dbbec0" vector-effect="non-scaling-stroke" d="
  M 496.05 270.67
  L 498.18 266.45
  A 0.12 0.12 0.0 0 0 498.12 266.29
  L 498.09 266.27
  A 2.33 1.26 -63.2 0 0 495.91 267.79
  L 495.78 268.05
  A 2.33 1.26 -63.2 0 0 495.85 270.70
  L 495.89 270.72
  A 0.12 0.12 0.0 0 0 496.05 270.67"
/>
<path stroke="#999c9f" vector-effect="non-scaling-stroke" d="
  M 433.30 352.33
  C 432.58 354.76 434.92 355.66 436.81 355.91"
/>
<path stroke="#8f9195" vector-effect="non-scaling-stroke" d="
  M 436.81 355.91
  Q 442.42 358.69 446.12 353.37
  Q 449.29 348.81 450.39 344.70
  Q 450.71 343.51 454.01 341.48
  A 0.25 0.25 0.0 0 0 453.96 341.03
  L 453.02 340.70
  A 0.27 0.26 -54.2 0 0 452.76 340.75
  L 447.49 345.20
  A 1.19 1.04 -70.7 0 1 447.19 345.37
  Q 443.07 346.86 441.72 346.82
  Q 440.16 346.76 434.82 344.63
  A 1.09 1.07 4.5 0 1 434.18 343.89
  L 433.41 340.85
  A 0.98 0.98 0.0 0 1 433.77 339.83
  L 440.03 335.05
  A 1.30 1.29 41.1 0 0 439.88 332.89
  C 436.70 331.10 429.91 331.94 426.88 332.61
  A 1.36 1.36 0.0 0 0 425.82 334.15
  C 426.16 336.27 429.57 338.31 431.53 339.81
  A 2.04 2.03 -78.2 0 1 432.28 340.96
  L 433.14 344.35
  A 0.67 0.66 72.5 0 1 432.73 345.14
  L 428.74 346.64
  A 1.46 1.46 0.0 0 1 427.33 346.41
  Q 425.98 345.34 425.58 345.09
  A 0.25 0.25 0.0 0 0 425.25 345.45
  L 427.07 347.85
  A 0.88 0.86 -25.3 0 0 427.96 348.16
  L 429.19 347.85
  A 0.99 0.97 60.0 0 1 430.13 348.11
  Q 432.34 350.35 433.30 352.33"
/>
<path stroke="#2c3138" vector-effect="non-scaling-stroke" d="
  M 436.81 355.91
  L 438.06 354.56"
/>
<path stroke="#6e5259" vector-effect="non-scaling-stroke" d="
  M 438.06 354.56
  C 442.07 357.26 444.85 352.75 446.56 349.83
  A 0.69 0.69 0.0 0 0 445.76 348.82
  Q 441.22 350.22 440.04 350.48
  Q 438.95 350.72 437.51 352.19"
/>
<path stroke="#2c3138" vector-effect="non-scaling-stroke" d="
  M 437.51 352.19
  Q 437.18 350.36 439.84 349.34
  A 0.94 0.94 0.0 0 0 439.66 347.53
  L 435.41 346.84"
/>
<path stroke="#8f9195" vector-effect="non-scaling-stroke" d="
  M 435.41 346.84
  Q 433.50 344.76 431.89 347.42"
/>
<path stroke="#2c3138" vector-effect="non-scaling-stroke" d="
  M 431.89 347.42
  Q 433.48 349.91 433.30 352.33"
/>
<path stroke="#785e63" vector-effect="non-scaling-stroke" d="
  M 437.51 352.19
  Q 436.79 354.54 438.06 354.56"
/>
<path stroke="#999c9f" vector-effect="non-scaling-stroke" d="
  M 435.41 346.84
  Q 433.40 348.24 431.89 347.42"
/>
<path stroke="#8f9195" vector-effect="non-scaling-stroke" d="
  M 467.51 316.93
  Q 468.48 320.48 467.20 324.12
  A 0.39 0.39 0.0 0 0 467.75 324.60
  Q 470.39 323.29 472.75 321.04
  C 473.93 319.91 473.55 318.56 472.80 317.35"
/>
<path stroke="#6e5259" vector-effect="non-scaling-stroke" d="
  M 472.80 317.35
  L 469.54 310.17
  A 0.99 0.99 0.0 0 0 468.78 309.59
  Q 466.15 309.16 463.64 309.97
  A 0.54 0.54 0.0 0 0 463.51 310.94
  Q 466.65 312.94 467.51 316.93"
/>
<path stroke="#dbbec0" vector-effect="non-scaling-stroke" d="
  M 472.80 317.35
  Q 468.57 315.41 467.51 316.93"
/>
<path stroke="#8f9195" vector-effect="non-scaling-stroke" d="
  M 452.53 325.99
  Q 455.79 326.85 459.07 326.56
  A 0.34 0.34 0.0 0 0 459.36 326.11
  L 457.12 319.81"
/>
<path stroke="#6e5259" vector-effect="non-scaling-stroke" d="
  M 457.12 319.81
  L 457.36 314.55
  A 0.65 0.64 65.4 0 0 456.21 314.12
  Q 452.75 318.55 451.52 323.77
  Q 451.20 325.12 451.91 325.88
  Q 452.01 325.98 452.53 325.99"
/>
<path stroke="#dbbec0" vector-effect="non-scaling-stroke" d="
  M 457.12 319.81
  L 452.94 324.31
  A 1.25 1.19 -22.2 0 0 452.63 325.00
  L 452.53 325.99"
/>
<path stroke="#8f9195" vector-effect="non-scaling-stroke" d="
  M 463.15 315.90
  A 1.80 1.80 0.0 0 0 461.35 314.10
  A 1.80 1.80 0.0 0 0 459.55 315.90
  A 1.80 1.80 0.0 0 0 461.35 317.70
  A 1.80 1.80 0.0 0 0 463.15 315.90"
/>
<path stroke="#6e5259" vector-effect="non-scaling-stroke" d="
  M 427.03 334.49
  Q 428.52 336.55 432.15 338.73
  A 0.87 0.87 0.0 0 0 433.13 338.68
  L 438.59 334.53
  A 0.51 0.50 -55.9 0 0 438.42 333.64
  Q 432.38 332.02 427.27 333.75
  A 0.49 0.48 -27.1 0 0 427.03 334.49"
/>
</g>
<path fill="#21252e" d="
  M 477.40 267.55
  Q 478.88 266.35 478.90 264.74
  Q 487.77 248.67 492.39 239.64
  Q 493.86 236.78 495.09 235.84
  Q 511.90 222.96 520.39 216.91
  C 521.76 215.94 522.90 214.26 524.64 213.44
  A 0.27 0.17 -58.3 0 0 524.70 213.41
  L 539.64 202.03
  A 0.69 0.69 0.0 0 1 540.73 202.73
  Q 533.98 233.11 521.34 263.98
  A 0.96 0.88 83.9 0 1 521.08 264.33
  L 489.67 291.13
  A 1.81 1.80 -32.3 0 0 489.19 293.24
  Q 493.01 301.95 495.40 311.64
  Q 496.26 315.17 498.84 317.93
  Q 501.13 320.38 503.51 324.31
  A 0.49 0.49 0.0 0 1 503.07 325.05
  L 501.45 324.96
  A 0.39 0.38 64.2 0 0 501.21 325.66
  L 503.22 327.13
  A 0.40 0.39 -37.1 0 1 503.12 327.82
  L 499.54 329.17
  A 0.70 0.70 0.0 0 0 499.25 330.28
  L 501.32 332.71
  A 0.66 0.66 0.0 0 1 501.28 333.61
  L 492.88 342.02
  A 1.20 1.20 0.0 0 0 494.30 343.92
  Q 495.94 343.03 500.16 341.72
  Q 506.57 339.74 510.90 337.86
  Q 513.23 336.85 515.23 334.22
  Q 523.61 323.23 532.51 312.47
  A 6.62 6.61 -78.7 0 1 535.59 310.41
  L 565.09 301.25
  A 0.87 0.87 0.0 0 1 566.17 302.37
  L 562.07 314.08
  A 1.16 1.13 31.1 0 0 562.39 315.32
  Q 565.40 318.02 567.66 319.18
  A 0.67 0.53 -6.3 0 1 567.77 319.25
  L 571.46 322.21
  A 0.35 0.34 54.0 0 1 571.37 322.81
  Q 569.43 323.51 568.82 323.61
  Q 559.40 325.15 542.59 328.33
  Q 541.24 328.59 539.48 330.23
  Q 533.31 335.98 524.13 345.08
  A 3.78 3.75 -74.2 0 1 522.41 346.05
  L 503.68 350.78
  A 0.42 0.42 0.0 0 0 503.70 351.59
  L 525.49 355.94
  A 7.55 7.52 37.2 0 0 530.32 355.29
  Q 534.96 353.28 558.80 341.53
  C 560.19 340.84 562.35 340.60 564.10 340.69
  Q 570.27 341.00 576.58 341.37
  Q 578.52 341.48 584.66 342.02
  Q 589.00 342.40 593.44 342.36
  A 0.77 0.57 -27.0 0 1 593.68 342.40
  L 596.07 343.23
  A 0.97 0.97 0.0 0 1 596.33 344.92
  L 583.11 355.00
  A 0.66 0.65 63.5 0 0 582.88 355.71
  L 587.24 369.74
  A 0.48 0.48 0.0 0 1 586.59 370.33
  L 561.05 359.53
  A 2.73 2.72 -43.8 0 0 558.99 359.49
  L 529.11 370.70
  A 1.58 1.50 41.1 0 1 528.14 370.74
  Q 522.10 369.04 514.70 366.26
  C 513.79 365.92 512.73 366.09 512.29 365.68
  Q 511.91 365.34 511.42 365.16
  Q 506.22 363.29 500.69 361.58
  Q 500.18 361.42 500.00 361.56
  A 0.34 0.33 -38.0 0 0 499.94 362.04
  Q 505.95 369.38 519.29 383.91
  Q 520.39 385.12 521.73 389.38
  Q 526.04 403.12 529.72 421.01
  C 530.49 424.76 529.29 430.39 525.77 432.55
  Q 521.06 435.42 520.91 435.51
  A 6.21 5.97 -59.4 0 1 519.51 435.90
  L 515.24 436.54
  A 2.15 2.12 45.4 0 1 514.50 436.53
  L 511.21 435.87
  A 0.49 0.49 0.0 0 0 510.67 436.56
  C 514.52 444.86 513.64 452.52 511.76 461.30
  Q 511.38 463.10 513.29 465.32
  Q 520.22 473.37 527.95 480.69
  C 530.97 483.56 534.58 490.33 530.46 493.88
  Q 526.81 497.02 523.00 498.82
  A 4.03 3.98 -55.9 0 1 521.09 499.20
  L 508.33 498.55
  A 2.06 2.01 -26.5 0 1 507.34 498.23
  L 501.07 494.12
  A 2.63 2.62 8.0 0 1 499.99 492.69
  Q 498.62 488.19 496.99 480.34
  Q 495.71 474.15 493.33 468.46
  A 1.27 1.25 -2.8 0 0 492.51 467.73
  Q 484.13 465.25 477.91 459.60
  Q 476.67 458.47 470.31 451.12
  A 4.13 4.09 85.6 0 0 469.42 450.35
  Q 467.23 448.98 463.79 448.68
  A 1.72 1.72 0.0 0 0 462.67 448.96
  Q 456.93 452.76 454.24 458.99
  A 2.59 2.57 56.6 0 0 454.02 460.08
  L 454.09 463.33
  A 1.75 1.75 0.0 0 0 454.16 463.82
  L 457.43 475.50
  A 0.80 0.79 -70.9 0 0 457.51 475.67
  Q 459.14 478.43 456.38 480.15
  Q 453.98 481.63 451.27 482.30
  Q 450.23 482.55 448.62 483.16
  Q 436.39 487.78 426.96 490.10
  C 420.68 491.65 410.16 491.75 404.01 487.51
  A 2.95 2.95 0.0 0 1 402.75 485.34
  C 402.20 478.70 407.54 472.90 413.36 471.40
  Q 414.91 471.00 420.15 470.81
  Q 423.08 470.70 426.85 469.54
  Q 429.78 468.64 433.84 467.56
  A 0.41 0.41 0.0 0 0 433.94 466.81
  C 429.49 464.22 424.05 461.14 421.12 456.61
  Q 417.68 451.28 416.42 446.21
  A 2.48 2.40 45.9 0 1 416.42 444.98
  C 416.82 443.39 416.94 442.08 417.44 440.63
  Q 421.19 429.75 425.93 420.47
  A 0.93 0.91 -46.8 0 0 425.91 419.59
  Q 424.91 417.85 425.47 415.49
  Q 426.21 412.42 428.41 402.26
  A 8.28 8.25 45.8 0 0 428.45 398.99
  L 426.07 386.41
  A 0.94 0.94 0.0 0 0 425.46 385.70
  L 400.42 376.93
  A 2.64 2.57 72.3 0 1 399.82 376.61
  C 391.57 370.67 384.78 361.89 377.84 352.90
  A 5.70 5.65 87.5 0 0 376.50 351.66
  C 373.83 349.90 371.62 348.33 369.89 345.22
  Q 367.98 341.79 363.55 339.92
  Q 363.05 339.70 359.32 336.41
  A 1.56 1.56 0.0 0 1 358.86 335.70
  Q 358.28 333.84 358.40 331.88
  A 1.32 1.30 69.6 0 1 358.78 331.03
  Q 360.84 328.96 363.83 329.60
  A 0.39 0.39 0.0 0 0 364.24 329.02
  C 362.82 326.77 360.90 323.28 362.40 320.78
  Q 365.21 316.09 369.60 319.44
  Q 370.87 320.40 371.41 320.70
  A 0.36 0.35 15.2 0 0 371.94 320.40
  C 371.98 317.43 371.07 315.04 373.97 313.16
  A 1.57 1.52 28.7 0 1 374.88 312.91
  Q 378.53 313.11 379.85 315.32
  Q 382.99 320.60 385.21 325.71
  A 0.72 0.71 44.4 0 0 386.53 325.70
  Q 388.08 321.94 392.51 321.36
  Q 393.70 321.20 396.11 323.11
  A 1.18 1.17 17.6 0 1 396.56 323.97
  Q 396.81 328.28 394.92 331.46
  A 1.78 1.77 60.5 0 0 394.67 332.37
  L 394.61 340.64
  A 3.48 3.46 20.2 0 0 395.88 343.36
  L 409.04 354.08
  A 0.87 0.82 68.6 0 0 409.42 354.26
  L 418.77 356.13
  A 0.92 0.92 0.0 0 0 419.79 355.59
  L 420.65 353.56
  A 0.71 0.71 0.0 0 0 420.42 352.71
  Q 415.33 349.09 412.71 345.28
  Q 409.93 341.25 409.46 340.89
  A 0.59 0.58 -53.8 0 1 409.34 340.08
  Q 410.04 339.13 410.09 337.06
  Q 410.11 336.36 410.51 336.09
  Q 411.10 335.70 410.74 335.25
  A 0.15 0.12 -8.0 0 0 410.65 335.20
  L 407.68 335.05
  A 0.96 0.96 0.0 0 1 406.95 333.53
  L 415.78 321.08
  A 1.19 1.18 -27.2 0 0 415.99 320.44
  Q 416.13 309.50 416.03 307.99
  Q 415.83 304.89 417.06 303.59
  C 419.06 301.47 420.57 298.40 422.29 296.11
  Q 425.12 292.32 428.80 288.55
  A 0.25 0.25 0.0 0 0 428.67 288.13
  L 423.88 287.17
  A 0.47 0.47 0.0 0 1 423.85 286.25
  Q 425.52 285.82 426.48 285.22
  A 0.88 0.87 76.6 0 0 426.88 284.56
  L 429.94 244.69
  A 2.80 2.72 -28.6 0 1 430.29 243.56
  Q 430.88 242.41 432.42 240.67
  Q 437.59 234.84 461.94 208.20
  Q 464.41 205.50 466.75 203.60
  A 0.64 0.64 0.0 0 1 467.79 204.18
  Q 465.84 220.10 462.55 234.31
  C 462.10 236.26 462.32 238.17 461.48 239.45
  C 460.99 240.20 461.12 242.19 460.81 243.50
  Q 458.79 252.15 458.77 252.24
  A 29.36 29.16 63.8 0 1 456.36 259.40
  L 449.02 274.53
  A 0.45 0.44 -71.5 0 0 449.33 275.16
  L 470.28 279.34
  A 0.69 0.68 19.8 0 0 471.02 279.00
  L 477.40 267.55
  Z
  M 490.30 282.01
  L 491.18 281.05
  Q 492.77 280.40 494.12 279.36
  Q 507.29 269.17 516.11 261.80
  A 3.71 3.34 -90.0 0 0 516.76 261.08
  Q 519.37 257.24 522.18 249.68
  Q 529.84 229.09 532.81 217.18
  Q 533.12 215.91 533.34 214.63
  A 0.29 0.29 0.0 0 0 532.86 214.37
  Q 519.44 226.44 510.27 235.36
  Q 508.92 236.66 506.47 238.89
  Q 499.89 244.87 496.15 252.63
  Q 490.45 264.44 485.37 277.84
  Q 483.39 283.04 482.10 288.37
  A 0.27 0.27 0.0 0 0 482.54 288.64
  L 490.30 282.01
  Z
  M 469.54 282.08
  Q 469.96 281.63 469.85 281.32
  Q 469.73 280.98 469.39 280.90
  Q 455.05 277.46 441.32 275.84
  A 0.20 0.20 0.0 0 0 441.22 276.22
  Q 443.88 277.40 445.71 280.48
  A 0.27 0.26 -23.4 0 1 445.55 280.87
  C 440.95 282.33 435.49 282.83 430.65 285.22
  A 0.50 0.50 0.0 0 0 430.92 286.16
  Q 432.70 285.99 434.23 286.38
  A 0.52 0.52 0.0 0 1 434.42 287.29
  L 426.20 293.55
  A 0.47 0.47 0.0 0 0 426.57 294.38
  L 435.02 292.78
  A 0.61 0.61 0.0 0 1 435.73 293.50
  L 434.32 300.54
  A 0.24 0.24 0.0 0 0 434.70 300.77
  L 441.89 295.29
  A 0.59 0.58 -5.2 0 1 442.77 296.02
  Q 442.41 296.71 443.00 297.42
  Q 443.44 297.76 443.40 298.15
  A 1.21 0.96 32.4 0 1 441.42 298.36
  Q 441.40 298.34 441.46 298.26
  A 0.46 0.46 0.0 0 0 440.82 297.63
  L 433.84 302.59
  A 0.64 0.64 0.0 0 1 432.85 301.94
  L 434.13 295.54
  A 0.63 0.62 9.0 0 0 433.59 294.80
  Q 432.22 294.63 430.06 295.56
  C 428.44 296.25 426.45 296.15 424.70 296.13
  A 1.07 1.06 15.2 0 0 423.76 296.66
  L 420.31 302.53
  Q 418.77 303.11 417.56 305.92
  L 417.76 307.83
  A 0.85 0.84 -76.3 0 0 418.13 308.45
  L 421.99 311.09
  A 1.31 1.04 4.7 0 1 422.29 311.37
  Q 424.03 313.64 426.16 315.11
  Q 427.41 321.23 427.03 327.24
  Q 426.42 327.87 424.87 327.76
  Q 420.36 327.42 418.06 324.51
  A 2.34 2.32 -3.3 0 0 417.47 323.99
  L 417.09 323.75
  L 416.94 323.08
  A 0.27 0.27 0.0 0 0 416.46 322.98
  L 409.64 332.30
  A 0.57 0.57 0.0 0 0 410.15 333.20
  Q 411.09 333.10 412.46 333.68
  A 0.64 0.64 0.0 0 1 412.81 334.48
  L 411.19 339.09
  A 1.77 1.75 -50.8 0 0 411.33 340.54
  Q 414.15 345.36 418.60 348.94
  Q 420.03 350.66 423.14 351.10
  Q 430.54 357.32 439.84 360.89
  A 1.39 1.34 48.4 0 0 440.63 360.95
  L 454.35 357.80
  A 2.90 2.82 24.1 0 0 454.87 357.61
  Q 460.54 354.72 462.45 349.15
  Q 467.25 349.69 472.93 347.46
  C 478.99 345.07 484.95 337.83 488.44 332.60
  A 1.40 1.37 11.6 0 1 489.37 332.00
  Q 490.51 331.81 492.82 332.17
  A 0.65 0.65 0.0 0 0 493.43 331.14
  L 490.25 326.96
  A 0.42 0.41 39.3 0 1 490.20 326.54
  Q 490.43 326.00 491.39 325.90
  A 0.62 0.62 0.0 0 0 491.60 324.73
  L 485.07 321.55
  A 0.80 0.79 18.6 0 1 484.63 320.68
  Q 485.73 314.91 483.94 308.05
  Q 481.40 298.28 480.36 290.08
  A 2.82 2.80 -41.9 0 1 480.42 289.03
  Q 482.84 279.48 485.18 273.71
  Q 491.85 257.29 497.23 246.50
  Q 498.29 244.40 500.55 242.30
  Q 511.18 232.41 516.11 227.24
  C 520.22 222.93 523.66 220.20 528.31 215.96
  A 0.61 0.60 25.1 0 0 527.93 214.91
  L 525.93 214.81
  A 2.95 2.92 22.6 0 0 523.62 215.75
  Q 521.27 218.29 516.79 221.40
  C 509.86 226.21 503.81 231.41 497.14 236.27
  C 495.53 237.43 494.66 238.69 493.80 240.30
  Q 479.77 266.37 469.95 284.17
  Q 469.55 284.90 468.55 285.60
  A 0.19 0.19 0.0 0 1 468.26 285.37
  L 469.54 282.08
  Z
  M 429.63 277.25
  L 429.83 276.24
  A 1.30 1.28 -2.7 0 1 430.74 275.25
  C 434.23 274.21 441.71 269.98 443.50 265.72
  Q 446.99 257.38 448.38 254.68
  Q 451.15 249.28 452.85 243.50
  Q 457.30 228.37 457.83 226.03
  Q 458.90 221.31 458.62 217.57
  A 1.56 1.56 0.0 0 0 455.79 216.78
  C 453.44 220.07 450.48 222.52 448.06 225.79
  Q 446.73 227.59 443.23 230.99
  C 439.24 234.86 436.62 238.31 433.26 242.04
  Q 431.58 243.90 431.44 247.25
  Q 431.07 255.43 429.14 274.31
  Q 428.76 278.05 429.55 277.38
  A 0.26 0.23 79.2 0 0 429.63 277.25
  Z
  M 519.58 331.55
  L 512.79 339.15
  A 0.96 0.95 -77.9 0 1 512.38 339.42
  L 494.02 345.75
  A 0.71 0.71 0.0 0 0 493.58 346.63
  L 493.73 347.13
  A 0.64 0.64 0.0 0 0 494.55 347.54
  L 513.61 340.97
  A 0.14 0.14 0.0 0 1 513.79 341.06
  L 513.95 341.56
  A 0.35 0.34 71.6 0 1 513.74 341.99
  L 494.36 349.27
  A 0.55 0.54 51.1 0 0 494.26 350.24
  L 494.78 350.59
  A 1.70 1.68 53.9 0 0 496.13 350.81
  L 521.44 344.43
  A 2.84 2.79 -73.5 0 0 522.67 343.75
  L 539.57 327.50
  Q 542.21 326.58 546.04 325.89
  Q 556.66 323.95 567.37 322.08
  A 0.57 0.57 0.0 0 0 567.58 321.04
  L 564.18 318.93
  L 561.19 315.83
  A 2.28 2.28 0.0 0 1 560.65 313.57
  L 562.75 306.86
  Q 563.84 305.45 563.89 304.16
  A 0.48 0.47 82.2 0 0 563.28 303.69
  L 535.65 312.27
  A 3.51 3.49 10.5 0 0 533.95 313.43
  L 519.58 331.55
  Z
  M 421.55 325.19
  Q 418.85 319.06 422.01 314.14
  A 0.88 0.87 -47.1 0 0 421.98 313.13
  Q 421.32 312.24 420.28 311.82
  A 0.72 0.72 0.0 0 0 419.29 312.37
  Q 418.63 316.55 418.79 321.87
  C 418.85 323.87 419.83 324.53 421.15 325.51
  A 0.27 0.26 -83.5 0 0 421.55 325.19
  Z
  M 373.42 316.46
  Q 373.07 317.12 373.25 317.81
  L 376.01 326.96
  A 0.66 0.65 -19.8 0 0 376.89 327.37
  Q 377.69 327.04 377.90 327.11
  A 0.45 0.45 0.0 0 1 377.87 327.96
  Q 372.12 329.62 369.89 335.20
  A 0.50 0.50 0.0 0 1 368.98 335.25
  Q 367.32 332.13 362.57 331.47
  A 2.06 1.82 12.3 0 0 360.38 332.69
  Q 359.82 334.47 361.57 335.68
  Q 364.47 339.06 368.83 340.60
  L 369.90 341.41
  A 1.32 1.31 8.5 0 1 370.31 341.96
  Q 372.95 348.80 379.84 351.17
  A 1.90 1.90 0.0 0 0 380.74 351.25
  L 384.22 350.72
  Q 389.05 357.26 394.65 362.86
  Q 400.01 368.22 408.10 370.20
  Q 417.17 372.42 422.94 373.56
  A 0.41 0.41 0.0 0 0 423.42 373.05
  L 420.58 361.79
  A 1.35 1.32 10.8 0 0 420.04 361.01
  Q 418.86 360.20 419.15 358.79
  A 0.54 0.53 -81.2 0 0 418.69 358.15
  Q 412.69 357.46 407.98 355.49
  A 2.85 2.79 -14.6 0 1 407.28 355.09
  L 392.77 343.81
  Q 392.79 339.42 392.90 334.50
  Q 392.96 331.75 393.38 330.78
  Q 395.05 326.99 394.76 324.65
  A 1.10 1.07 -71.8 0 0 394.47 324.05
  Q 392.99 322.49 391.20 323.36
  Q 387.54 325.14 387.20 329.64
  A 1.35 1.34 71.3 0 1 386.76 330.54
  Q 386.34 330.90 385.82 330.97
  Q 385.32 330.85 385.23 330.43
  Q 386.00 329.50 385.15 328.54
  Q 384.03 327.28 383.86 326.96
  Q 380.99 321.80 378.67 316.99
  A 3.79 3.76 77.1 0 0 375.29 314.85
  Q 374.24 314.85 373.42 316.46
  Z
  M 423.4147 316.4000
  A 1.53 1.10 -90.2 0 0 422.3200 317.9338
  A 1.53 1.10 -90.2 0 0 423.4253 319.4600
  A 1.53 1.10 -90.2 0 0 424.5200 317.9262
  A 1.53 1.10 -90.2 0 0 423.4147 316.4000
  Z
  M 374.16 328.05
  C 372.54 326.36 370.62 322.02 367.30 320.29
  A 2.31 2.26 -64.0 0 0 364.17 321.40
  C 362.58 324.90 367.22 329.90 369.91 333.13
  A 0.45 0.45 0.0 0 0 370.66 333.03
  Q 371.85 330.42 374.10 328.75
  A 0.47 0.47 0.0 0 0 374.16 328.05
  Z
  M 521.82 356.82
  Q 512.89 355.35 504.12 353.14
  Q 499.66 352.01 495.77 352.41
  A 0.97 0.96 -44.8 0 0 495.76 354.33
  L 500.78 354.88
  Q 500.21 356.01 499.18 356.62
  Q 497.27 356.19 495.50 356.53
  A 0.52 0.52 0.0 0 0 495.48 357.54
  C 499.18 358.43 502.58 360.33 506.17 361.48
  Q 514.77 364.23 525.80 368.21
  Q 528.40 369.15 530.19 368.45
  Q 540.91 364.25 551.85 360.32
  L 560.11 357.45
  L 584.06 367.59
  A 0.58 0.58 0.0 0 0 584.84 366.88
  L 582.82 360.89
  Q 582.44 358.27 580.68 355.95
  L 590.67 346.87
  Q 592.44 346.01 593.23 344.74
  A 0.38 0.38 0.0 0 0 592.93 344.16
  L 562.32 342.60
  A 3.75 3.74 -56.2 0 0 560.51 342.96
  L 530.29 357.29
  A 4.34 4.30 -53.5 0 1 527.80 357.67
  L 521.82 356.82
  Z
  M 423.74 354.97
  Q 422.13 354.10 421.70 358.00
  Q 421.43 359.55 421.78 360.26
  Q 423.34 363.39 424.13 366.81
  C 423.09 369.47 426.31 372.23 428.24 373.97
  Q 428.05 375.35 427.57 376.11
  Q 426.95 377.95 427.50 379.72
  Q 428.13 388.48 430.07 397.06
  Q 430.84 400.45 430.60 401.57
  Q 429.12 408.49 427.11 416.61
  A 1.76 1.76 0.0 0 0 427.75 418.42
  Q 433.69 422.98 441.00 426.23
  Q 443.77 427.47 448.33 428.01
  Q 449.46 428.10 450.28 428.57
  Q 466.80 431.15 481.97 424.25
  Q 490.99 420.02 497.57 413.01
  A 1.43 1.42 55.0 0 0 497.84 411.47
  Q 494.97 404.90 492.67 398.73
  Q 491.26 394.94 491.26 391.19
  A 0.77 0.77 0.0 0 0 489.94 390.66
  C 487.85 392.83 484.69 391.18 483.21 389.33
  C 478.32 383.20 478.51 377.69 478.88 370.25
  Q 478.37 369.72 477.93 368.45
  Q 485.54 360.93 489.85 357.11
  Q 490.45 356.58 492.06 355.96
  A 0.89 0.89 0.0 0 0 492.63 355.16
  Q 492.86 350.19 491.25 345.49
  A 0.68 0.67 -29.7 0 0 490.18 345.20
  L 483.49 350.91
  A 2.56 2.53 15.7 0 1 482.53 351.44
  Q 472.47 354.52 466.83 356.08
  Q 463.03 357.13 460.63 358.01
  C 457.23 359.26 453.46 359.69 449.46 360.75
  C 444.59 362.04 441.25 363.68 436.67 361.87
  Q 429.82 359.15 423.74 354.97
  Z
  M 509.21 411.53
  Q 505.18 415.32 502.13 420.31
  A 1.40 1.36 59.6 0 0 501.92 421.17
  C 502.17 424.16 502.32 426.00 505.29 427.26
  A 0.57 0.57 0.0 0 0 506.08 426.78
  L 506.28 424.17
  A 0.39 0.39 0.0 0 1 507.02 424.04
  Q 508.25 426.82 506.59 428.72
  A 1.18 1.16 60.5 0 0 506.32 429.72
  Q 506.87 432.37 508.48 433.76
  A 1.90 1.89 66.1 0 0 509.66 434.22
  Q 515.71 434.33 516.08 427.93
  A 0.41 0.41 0.0 0 1 516.89 427.87
  Q 517.64 431.61 515.26 434.33
  A 0.28 0.28 0.0 0 0 515.48 434.79
  Q 522.19 434.55 523.34 427.52
  A 0.31 0.30 45.6 0 1 523.94 427.53
  Q 524.24 429.46 523.61 431.25
  A 0.27 0.27 0.0 0 0 523.97 431.59
  C 526.25 430.63 527.50 427.66 527.99 425.22
  A 3.25 3.18 48.8 0 0 528.04 424.31
  Q 527.60 419.66 525.70 412.26
  Q 525.05 409.71 522.31 409.54
  Q 521.26 404.30 520.78 402.96
  Q 517.73 394.45 517.25 385.54
  A 0.77 0.73 -68.4 0 0 517.08 385.12
  L 497.06 361.66
  A 1.15 1.14 -32.4 0 0 495.71 361.36
  C 488.21 364.71 482.87 374.58 488.77 381.57
  C 490.41 383.52 493.51 385.23 496.51 387.24
  C 503.43 391.87 507.01 403.85 509.21 411.53
  Z
  M 494.56 393.02
  A 0.43 0.43 0.0 0 0 493.90 393.42
  Q 494.49 399.08 497.28 404.66
  A 0.98 0.98 0.0 0 0 498.85 404.92
  L 500.55 403.22
  A 1.65 1.64 54.8 0 0 500.87 401.35
  L 498.28 395.89
  A 2.56 2.49 4.6 0 0 497.39 394.87
  L 494.56 393.02
  Z
  M 499.66 409.80
  L 501.55 411.69
  A 0.81 0.81 0.0 0 1 501.73 412.54
  Q 500.98 414.52 500.87 416.56
  A 0.60 0.60 0.0 0 0 501.97 416.92
  L 504.59 412.92
  A 1.26 1.26 0.0 0 0 504.68 411.69
  L 502.08 406.22
  A 0.80 0.80 0.0 0 0 500.79 406.00
  L 499.66 407.13
  A 1.89 1.88 -45.1 0 0 499.66 409.80
  Z
  M 427.57 422.38
  A 0.44 0.44 0.0 0 0 426.97 422.59
  Q 421.20 434.83 418.19 445.70
  A 3.69 3.67 36.5 0 0 418.65 448.70
  L 424.35 457.45
  A 0.76 0.75 74.7 0 0 424.94 457.79
  L 434.82 458.30
  A 3.27 3.26 -78.9 0 0 438.06 456.12
  L 443.66 440.14
  A 2.09 2.08 -70.7 0 1 446.32 438.85
  Q 450.89 440.45 452.77 440.75
  Q 462.60 442.31 469.25 442.66
  A 2.16 2.14 -21.4 0 1 470.64 443.26
  Q 472.58 445.14 479.59 452.35
  Q 487.97 460.98 499.63 459.87
  A 2.81 2.80 -72.8 0 0 501.52 458.87
  C 505.54 454.09 506.39 448.02 503.84 442.39
  C 501.21 436.60 497.51 431.73 494.97 426.20
  A 2.51 2.49 -18.6 0 0 492.14 424.80
  Q 489.25 425.44 486.38 425.60
  A 7.79 7.29 -51.7 0 0 485.05 425.80
  Q 484.48 425.94 478.56 428.76
  Q 476.02 429.97 468.37 431.70
  Q 466.21 432.19 459.63 431.94
  Q 458.83 431.91 450.75 431.92
  A 1.74 1.56 48.2 0 1 450.39 431.88
  L 447.80 431.31
  A 5.48 4.97 42.0 0 1 447.07 431.10
  L 438.83 427.98
  A 4.82 4.39 1.5 0 1 438.21 427.72
  L 427.57 422.38
  Z
  M 423.79 473.07
  Q 419.99 472.76 416.26 473.16
  Q 405.85 474.29 404.37 485.29
  A 0.53 0.52 9.5 0 0 404.79 485.87
  L 405.28 485.97
  A 0.20 0.19 6.5 0 0 405.51 485.79
  Q 405.98 479.29 412.17 475.78
  A 0.47 0.47 0.0 0 1 412.73 476.52
  C 410.17 479.00 407.12 482.07 407.15 486.07
  A 2.16 2.15 5.4 0 0 408.89 488.17
  L 412.31 488.86
  A 1.31 1.30 6.4 0 0 413.87 487.62
  C 413.99 483.40 417.03 479.18 421.00 478.18
  A 0.29 0.29 0.0 0 1 421.26 478.67
  C 417.68 481.85 415.42 483.81 415.60 488.56
  A 0.65 0.64 -89.5 0 0 416.21 489.19
  C 422.73 489.53 429.19 487.80 435.74 485.68
  A 0.48 0.46 -11.9 0 0 436.07 485.20
  Q 435.74 480.54 432.61 478.07
  C 436.46 478.92 443.61 477.73 444.35 472.83
  A 0.93 0.93 0.0 0 0 443.61 471.78
  L 434.06 469.87
  A 1.03 0.94 38.9 0 0 433.56 469.90
  L 423.79 473.07
  Z
  M 500.97 490.23
  Q 504.16 496.53 513.29 496.70
  A 0.58 0.58 0.0 0 0 513.88 496.14
  Q 514.12 490.09 510.95 484.86
  A 0.22 0.22 0.0 0 1 511.29 484.59
  Q 513.94 487.28 514.73 490.51
  Q 515.89 495.24 515.77 495.84
  A 1.01 1.01 0.0 0 0 516.82 497.04
  L 523.44 496.64
  A 2.00 1.99 -0.3 0 0 525.31 494.75
  Q 525.67 488.25 521.51 483.28
  A 0.37 0.37 0.0 0 1 522.00 482.73
  C 525.34 484.89 526.81 489.86 527.06 493.55
  A 0.53 0.53 0.0 0 0 527.89 493.95
  Q 530.18 492.42 530.36 489.72
  C 530.66 485.37 524.94 480.35 521.46 478.44
  C 517.32 470.75 507.76 471.39 501.58 475.49
  A 1.50 1.47 78.1 0 0 500.93 476.51
  Q 500.02 482.78 500.97 490.23
  Z"
/>
<path fill="#ba7f84" d="
  M 491.18 281.05
  L 513.60 259.21
  A 0.24 0.24 0.0 0 0 513.39 258.80
  L 507.45 259.92
  A 0.63 0.63 0.0 0 1 506.84 258.90
  L 519.68 243.15
  A 0.22 0.22 0.0 0 0 519.44 242.80
  L 513.23 244.73
  A 0.48 0.48 0.0 0 1 512.68 244.01
  L 521.98 229.82
  A 0.16 0.16 0.0 0 0 521.74 229.62
  L 500.25 251.12
  A 0.38 0.38 0.0 0 0 500.72 251.71
  Q 503.49 249.97 506.30 249.71
  A 0.73 0.73 0.0 0 1 506.93 250.90
  L 495.06 265.46
  A 0.32 0.32 0.0 0 0 495.41 265.97
  L 501.31 264.14
  A 0.45 0.44 -80.5 0 1 501.80 264.83
  L 489.70 281.38
  A 0.35 0.35 0.0 0 0 489.89 281.93
  Q 490.07 281.97 490.30 282.01
  L 482.54 288.64
  A 0.27 0.27 0.0 0 1 482.10 288.37
  Q 483.39 283.04 485.37 277.84
  Q 490.45 264.44 496.15 252.63
  Q 499.89 244.87 506.47 238.89
  Q 508.92 236.66 510.27 235.36
  Q 519.44 226.44 532.86 214.37
  A 0.29 0.29 0.0 0 1 533.34 214.63
  Q 533.12 215.91 532.81 217.18
  Q 529.84 229.09 522.18 249.68
  Q 519.37 257.24 516.76 261.08
  A 3.71 3.34 -90.0 0 1 516.11 261.80
  Q 507.29 269.17 494.12 279.36
  Q 492.77 280.40 491.18 281.05
  Z
  M 500.60 257.06
  L 504.31 251.79
  A 0.10 0.10 0.0 0 0 504.28 251.65
  L 504.24 251.62
  A 3.18 1.21 -54.9 0 0 501.42 253.52
  L 501.26 253.75
  A 3.18 1.21 -54.9 0 0 500.42 257.05
  L 500.47 257.08
  A 0.10 0.10 0.0 0 0 500.60 257.06
  Z
  M 496.05 270.67
  L 498.18 266.45
  A 0.12 0.12 0.0 0 0 498.12 266.29
  L 498.09 266.27
  A 2.33 1.26 -63.2 0 0 495.91 267.79
  L 495.78 268.05
  A 2.33 1.26 -63.2 0 0 495.85 270.70
  L 495.89 270.72
  A 0.12 0.12 0.0 0 0 496.05 270.67
  Z"
/>
<path fill="#363c42" d="
  M 462.45 349.15
  Q 462.81 341.54 459.50 336.70
  C 456.51 332.32 451.94 331.05 448.21 328.08
  Q 448.31 327.10 448.67 326.48
  L 448.78 326.91
  A 0.59 0.58 -6.4 0 0 449.34 327.35
  Q 450.58 327.36 454.25 327.88
  Q 456.42 328.19 460.60 328.02
  C 466.68 327.77 473.40 324.62 475.96 318.88
  A 1.38 1.33 55.4 0 0 476.08 318.16
  L 474.39 303.53
  Q 474.57 303.22 474.61 302.53
  Q 474.94 301.61 473.85 301.20
  Q 469.01 299.36 467.42 299.20
  A 4.13 4.09 -51.3 0 0 465.68 299.40
  C 460.25 301.25 456.78 303.96 452.41 307.65
  Q 448.44 310.98 447.43 314.73
  Q 446.82 317.03 444.83 325.70
  A 0.67 0.66 -78.3 0 1 444.06 326.21
  Q 440.94 325.60 437.26 325.06
  Q 435.80 324.84 429.22 326.85
  A 0.48 0.47 79.2 0 1 428.61 326.43
  L 427.68 313.03
  A 3.16 2.70 -58.9 0 0 427.58 312.43
  C 426.54 308.65 423.15 305.11 420.31 302.53
  L 423.76 296.66
  A 1.07 1.06 15.2 0 1 424.70 296.13
  C 426.45 296.15 428.44 296.25 430.06 295.56
  Q 432.22 294.63 433.59 294.80
  A 0.63 0.62 9.0 0 1 434.13 295.54
  L 432.85 301.94
  A 0.64 0.64 0.0 0 0 433.84 302.59
  L 440.82 297.63
  A 0.46 0.46 0.0 0 1 441.46 298.26
  Q 441.40 298.34 441.42 298.36
  A 1.21 0.96 32.4 0 0 443.40 298.15
  Q 443.44 297.76 443.00 297.42
  Q 446.31 295.72 449.17 293.57
  A 0.22 0.21 15.8 0 0 448.96 293.20
  L 445.79 294.38
  A 0.50 0.50 0.0 0 1 445.11 293.88
  Q 445.13 293.44 445.60 292.61
  A 0.42 0.42 0.0 0 0 445.00 292.05
  L 437.76 296.76
  A 0.48 0.48 0.0 0 1 437.05 296.19
  Q 438.05 293.61 437.87 291.76
  A 0.45 0.45 0.0 0 0 437.34 291.35
  L 431.70 292.42
  A 0.42 0.41 -68.6 0 1 431.38 291.68
  L 438.23 286.46
  A 0.27 0.27 0.0 0 0 438.07 285.98
  Q 436.87 285.96 436.14 285.69
  A 0.70 0.70 0.0 0 1 436.25 284.35
  L 448.89 281.96
  A 0.35 0.35 0.0 0 0 449.07 281.37
  L 446.21 278.52
  A 0.51 0.51 0.0 0 1 446.67 277.66
  L 469.54 282.08
  L 468.26 285.37
  A 0.19 0.19 0.0 0 0 468.55 285.60
  Q 469.55 284.90 469.95 284.17
  Q 479.77 266.37 493.80 240.30
  C 494.66 238.69 495.53 237.43 497.14 236.27
  C 503.81 231.41 509.86 226.21 516.79 221.40
  Q 521.27 218.29 523.62 215.75
  A 2.95 2.92 22.6 0 1 525.93 214.81
  L 527.93 214.91
  A 0.61 0.60 25.1 0 1 528.31 215.96
  C 523.66 220.20 520.22 222.93 516.11 227.24
  Q 511.18 232.41 500.55 242.30
  Q 498.29 244.40 497.23 246.50
  Q 491.85 257.29 485.18 273.71
  Q 482.84 279.48 480.42 289.03
  A 2.82 2.80 -41.9 0 0 480.36 290.08
  Q 481.40 298.28 483.94 308.05
  Q 485.73 314.91 484.63 320.68
  A 0.80 0.79 18.6 0 0 485.07 321.55
  L 491.60 324.73
  A 0.62 0.62 0.0 0 1 491.39 325.90
  Q 490.43 326.00 490.20 326.54
  A 0.42 0.41 39.3 0 0 490.25 326.96
  L 493.43 331.14
  A 0.65 0.65 0.0 0 1 492.82 332.17
  Q 490.51 331.81 489.37 332.00
  A 1.40 1.37 11.6 0 0 488.44 332.60
  C 484.95 337.83 478.99 345.07 472.93 347.46
  Q 467.25 349.69 462.45 349.15
  Z"
/>
<path fill="#363c42" d="
  M 429.55 277.38
  Q 428.76 278.05 429.14 274.31
  Q 431.07 255.43 431.44 247.25
  Q 431.58 243.90 433.26 242.04
  C 436.62 238.31 439.24 234.86 443.23 230.99
  Q 446.73 227.59 448.06 225.79
  C 450.48 222.52 453.44 220.07 455.79 216.78
  A 1.56 1.56 0.0 0 1 458.62 217.57
  Q 458.90 221.31 457.83 226.03
  Q 457.30 228.37 452.85 243.50
  Q 451.15 249.28 448.38 254.68
  Q 446.99 257.38 443.50 265.72
  C 441.71 269.98 434.23 274.21 430.74 275.25
  A 1.30 1.28 -2.7 0 0 429.83 276.24
  L 429.63 277.25
  A 0.26 0.23 79.2 0 1 429.55 277.38
  Z"
/>
<path fill="#fcfcfc" d="
  M 491.18 281.05
  L 490.30 282.01
  Q 490.07 281.97 489.89 281.93
  A 0.35 0.35 0.0 0 1 489.70 281.38
  L 501.80 264.83
  A 0.45 0.44 -80.5 0 0 501.31 264.14
  L 495.41 265.97
  A 0.32 0.32 0.0 0 1 495.06 265.46
  L 506.93 250.90
  A 0.73 0.73 0.0 0 0 506.30 249.71
  Q 503.49 249.97 500.72 251.71
  A 0.38 0.38 0.0 0 1 500.25 251.12
  L 521.74 229.62
  A 0.16 0.16 0.0 0 1 521.98 229.82
  L 512.68 244.01
  A 0.48 0.48 0.0 0 0 513.23 244.73
  L 519.44 242.80
  A 0.22 0.22 0.0 0 1 519.68 243.15
  L 506.84 258.90
  A 0.63 0.63 0.0 0 0 507.45 259.92
  L 513.39 258.80
  A 0.24 0.24 0.0 0 1 513.60 259.21
  L 491.18 281.05
  Z"
/>
<path fill="#fcfcfc" d="
  M 500.60 257.06
  A 0.10 0.10 0.0 0 1 500.47 257.08
  L 500.42 257.05
  A 3.18 1.21 -54.9 0 1 501.26 253.75
  L 501.42 253.52
  A 3.18 1.21 -54.9 0 1 504.24 251.62
  L 504.28 251.65
  A 0.10 0.10 0.0 0 1 504.31 251.79
  L 500.60 257.06
  Z"
/>
<path fill="#363c42" d="
  M 478.90 264.74
  Q 478.88 266.35 477.40 267.55
  L 478.90 264.74
  Z"
/>
<path fill="#fcfcfc" d="
  M 496.05 270.67
  A 0.12 0.12 0.0 0 1 495.89 270.72
  L 495.85 270.70
  A 2.33 1.26 -63.2 0 1 495.78 268.05
  L 495.91 267.79
  A 2.33 1.26 -63.2 0 1 498.09 266.27
  L 498.12 266.29
  A 0.12 0.12 0.0 0 1 498.18 266.45
  L 496.05 270.67
  Z"
/>
<path fill="#ba7f84" d="
  M 469.54 282.08
  L 446.67 277.66
  A 0.51 0.51 0.0 0 0 446.21 278.52
  L 449.07 281.37
  A 0.35 0.35 0.0 0 1 448.89 281.96
  L 436.25 284.35
  A 0.70 0.70 0.0 0 0 436.14 285.69
  Q 436.87 285.96 438.07 285.98
  A 0.27 0.27 0.0 0 1 438.23 286.46
  L 431.38 291.68
  A 0.42 0.41 -68.6 0 0 431.70 292.42
  L 437.34 291.35
  A 0.45 0.45 0.0 0 1 437.87 291.76
  Q 438.05 293.61 437.05 296.19
  A 0.48 0.48 0.0 0 0 437.76 296.76
  L 445.00 292.05
  A 0.42 0.42 0.0 0 1 445.60 292.61
  Q 445.13 293.44 445.11 293.88
  A 0.50 0.50 0.0 0 0 445.79 294.38
  L 448.96 293.20
  A 0.22 0.21 15.8 0 1 449.17 293.57
  Q 446.31 295.72 443.00 297.42
  Q 442.41 296.71 442.77 296.02
  A 0.59 0.58 -5.2 0 0 441.89 295.29
  L 434.70 300.77
  A 0.24 0.24 0.0 0 1 434.32 300.54
  L 435.73 293.50
  A 0.61 0.61 0.0 0 0 435.02 292.78
  L 426.57 294.38
  A 0.47 0.47 0.0 0 1 426.20 293.55
  L 434.42 287.29
  A 0.52 0.52 0.0 0 0 434.23 286.38
  Q 432.70 285.99 430.92 286.16
  A 0.50 0.50 0.0 0 1 430.65 285.22
  C 435.49 282.83 440.95 282.33 445.55 280.87
  A 0.27 0.26 -23.4 0 0 445.71 280.48
  Q 443.88 277.40 441.22 276.22
  A 0.20 0.20 0.0 0 1 441.32 275.84
  Q 455.05 277.46 469.39 280.90
  Q 469.73 280.98 469.85 281.32
  Q 469.96 281.63 469.54 282.08
  Z"
/>
<path fill="#fcfcfc" d="
  M 474.61 302.53
  Q 467.64 303.10 464.15 304.69
  Q 460.34 306.42 452.54 312.57
  Q 449.76 314.76 449.07 318.32
  Q 447.49 326.56 447.42 327.00
  Q 447.24 328.10 448.21 328.08
  C 451.94 331.05 456.51 332.32 459.50 336.70
  Q 462.81 341.54 462.45 349.15
  Q 460.54 354.72 454.87 357.61
  A 2.90 2.82 24.1 0 1 454.35 357.80
  L 440.63 360.95
  A 1.39 1.34 48.4 0 1 439.84 360.89
  Q 430.54 357.32 423.14 351.10
  L 419.48 341.21
  A 1.23 1.19 39.4 0 1 419.42 340.68
  C 420.20 335.10 423.59 331.78 427.31 327.92
  A 0.45 0.45 0.0 0 0 427.30 327.29
  Q 427.14 327.14 427.03 327.24
  Q 427.41 321.23 426.16 315.11
  Q 424.68 309.45 417.56 305.92
  Q 418.77 303.11 420.31 302.53
  C 423.15 305.11 426.54 308.65 427.58 312.43
  A 3.16 2.70 -58.9 0 1 427.68 313.03
  L 428.61 326.43
  A 0.48 0.47 79.2 0 0 429.22 326.85
  Q 435.80 324.84 437.26 325.06
  Q 440.94 325.60 444.06 326.21
  A 0.67 0.66 -78.3 0 0 444.83 325.70
  Q 446.82 317.03 447.43 314.73
  Q 448.44 310.98 452.41 307.65
  C 456.78 303.96 460.25 301.25 465.68 299.40
  A 4.13 4.09 -51.3 0 1 467.42 299.20
  Q 469.01 299.36 473.85 301.20
  Q 474.94 301.61 474.61 302.53
  Z
  M 433.30 352.33
  C 432.58 354.76 434.92 355.66 436.81 355.91
  Q 442.42 358.69 446.12 353.37
  Q 449.29 348.81 450.39 344.70
  Q 450.71 343.51 454.01 341.48
  A 0.25 0.25 0.0 0 0 453.96 341.03
  L 453.02 340.70
  A 0.27 0.26 -54.2 0 0 452.76 340.75
  L 447.49 345.20
  A 1.19 1.04 -70.7 0 1 447.19 345.37
  Q 443.07 346.86 441.72 346.82
  Q 440.16 346.76 434.82 344.63
  A 1.09 1.07 4.5 0 1 434.18 343.89
  L 433.41 340.85
  A 0.98 0.98 0.0 0 1 433.77 339.83
  L 440.03 335.05
  A 1.30 1.29 41.1 0 0 439.88 332.89
  C 436.70 331.10 429.91 331.94 426.88 332.61
  A 1.36 1.36 0.0 0 0 425.82 334.15
  C 426.16 336.27 429.57 338.31 431.53 339.81
  A 2.04 2.03 -78.2 0 1 432.28 340.96
  L 433.14 344.35
  A 0.67 0.66 72.5 0 1 432.73 345.14
  L 428.74 346.64
  A 1.46 1.46 0.0 0 1 427.33 346.41
  Q 425.98 345.34 425.58 345.09
  A 0.25 0.25 0.0 0 0 425.25 345.45
  L 427.07 347.85
  A 0.88 0.86 -25.3 0 0 427.96 348.16
  L 429.19 347.85
  A 0.99 0.97 60.0 0 1 430.13 348.11
  Q 432.34 350.35 433.30 352.33
  Z"
/>
<path fill="#ba7f84" d="
  M 474.61 302.53
  Q 474.57 303.22 474.39 303.53
  Q 473.62 305.51 472.09 306.88
  A 0.41 0.39 20.4 0 1 471.85 306.98
  L 463.91 307.53
  A 2.44 2.43 26.7 0 0 462.75 307.91
  Q 458.92 310.30 453.94 313.69
  Q 451.06 315.66 450.78 317.05
  Q 449.85 321.80 448.67 326.48
  Q 448.31 327.10 448.21 328.08
  Q 447.24 328.10 447.42 327.00
  Q 447.49 326.56 449.07 318.32
  Q 449.76 314.76 452.54 312.57
  Q 460.34 306.42 464.15 304.69
  Q 467.64 303.10 474.61 302.53
  Z"
/>
<path fill="#21252e" d="
  M 474.39 303.53
  L 476.08 318.16
  A 1.38 1.33 55.4 0 1 475.96 318.88
  C 473.40 324.62 466.68 327.77 460.60 328.02
  Q 456.42 328.19 454.25 327.88
  Q 450.58 327.36 449.34 327.35
  A 0.59 0.58 -6.4 0 1 448.78 326.91
  L 448.67 326.48
  Q 449.85 321.80 450.78 317.05
  Q 451.06 315.66 453.94 313.69
  Q 458.92 310.30 462.75 307.91
  A 2.44 2.43 26.7 0 1 463.91 307.53
  L 471.85 306.98
  A 0.41 0.39 20.4 0 0 472.09 306.88
  Q 473.62 305.51 474.39 303.53
  Z
  M 467.51 316.93
  Q 468.48 320.48 467.20 324.12
  A 0.39 0.39 0.0 0 0 467.75 324.60
  Q 470.39 323.29 472.75 321.04
  C 473.93 319.91 473.55 318.56 472.80 317.35
  L 469.54 310.17
  A 0.99 0.99 0.0 0 0 468.78 309.59
  Q 466.15 309.16 463.64 309.97
  A 0.54 0.54 0.0 0 0 463.51 310.94
  Q 466.65 312.94 467.51 316.93
  Z
  M 452.53 325.99
  Q 455.79 326.85 459.07 326.56
  A 0.34 0.34 0.0 0 0 459.36 326.11
  L 457.12 319.81
  L 457.36 314.55
  A 0.65 0.64 65.4 0 0 456.21 314.12
  Q 452.75 318.55 451.52 323.77
  Q 451.20 325.12 451.91 325.88
  Q 452.01 325.98 452.53 325.99
  Z
  M 463.15 315.90
  A 1.80 1.80 0.0 0 0 461.35 314.10
  A 1.80 1.80 0.0 0 0 459.55 315.90
  A 1.80 1.80 0.0 0 0 461.35 317.70
  A 1.80 1.80 0.0 0 0 463.15 315.90
  Z"
/>
<path fill="#0a99ed" d="
  M 562.75 306.86
  Q 558.27 309.14 553.83 311.63
  C 548.67 314.52 542.80 315.84 537.93 319.30
  Q 534.69 321.60 532.98 322.55
  A 0.32 0.32 0.0 0 0 533.22 323.13
  L 537.74 321.83
  A 1.12 0.58 17.3 0 1 537.96 321.79
  L 564.18 318.93
  L 567.58 321.04
  A 0.57 0.57 0.0 0 1 567.37 322.08
  Q 556.66 323.95 546.04 325.89
  Q 542.21 326.58 539.57 327.50
  Q 529.73 328.65 519.58 331.55
  L 533.95 313.43
  A 3.51 3.49 10.5 0 1 535.65 312.27
  L 563.28 303.69
  A 0.48 0.47 82.2 0 1 563.89 304.16
  Q 563.84 305.45 562.75 306.86
  Z"
/>
<path fill="#ba7f84" d="
  M 417.56 305.92
  Q 424.68 309.45 426.16 315.11
  Q 424.03 313.64 422.29 311.37
  A 1.31 1.04 4.7 0 0 421.99 311.09
  L 418.13 308.45
  A 0.85 0.84 -76.3 0 1 417.76 307.83
  L 417.56 305.92
  Z"
/>
<path fill="#0f6cb3" d="
  M 562.75 306.86
  L 560.65 313.57
  A 2.28 2.28 0.0 0 0 561.19 315.83
  L 564.18 318.93
  L 537.96 321.79
  A 1.12 0.58 17.3 0 0 537.74 321.83
  L 533.22 323.13
  A 0.32 0.32 0.0 0 1 532.98 322.55
  Q 534.69 321.60 537.93 319.30
  C 542.80 315.84 548.67 314.52 553.83 311.63
  Q 558.27 309.14 562.75 306.86
  Z"
/>
<path fill="#ba7f84" d="
  M 472.80 317.35
  Q 468.57 315.41 467.51 316.93
  Q 466.65 312.94 463.51 310.94
  A 0.54 0.54 0.0 0 1 463.64 309.97
  Q 466.15 309.16 468.78 309.59
  A 0.99 0.99 0.0 0 1 469.54 310.17
  L 472.80 317.35
  Z"
/>
<path fill="#fcfcfc" d="
  M 421.15 325.51
  C 419.83 324.53 418.85 323.87 418.79 321.87
  Q 418.63 316.55 419.29 312.37
  A 0.72 0.72 0.0 0 1 420.28 311.82
  Q 421.32 312.24 421.98 313.13
  A 0.88 0.87 -47.1 0 1 422.01 314.14
  Q 418.85 319.06 421.55 325.19
  A 0.27 0.26 -83.5 0 1 421.15 325.51
  Z"
/>
<path fill="#ba7f84" d="
  M 457.12 319.81
  L 452.94 324.31
  A 1.25 1.19 -22.2 0 0 452.63 325.00
  L 452.53 325.99
  Q 452.01 325.98 451.91 325.88
  Q 451.20 325.12 451.52 323.77
  Q 452.75 318.55 456.21 314.12
  A 0.65 0.64 65.4 0 1 457.36 314.55
  L 457.12 319.81
  Z"
/>
<circle fill="#fcfcfc" cx="461.35" cy="315.90" r="1.80"/>
<path fill="#fcfcfc" d="
  M 385.23 330.43
  L 381.32 335.61
  A 1.30 1.28 63.6 0 0 381.05 336.43
  L 381.09 340.63
  A 0.45 0.44 -39.1 0 0 381.97 340.72
  Q 382.16 339.87 382.12 338.27
  A 2.63 2.63 0.0 0 1 382.45 336.92
  L 385.82 330.97
  Q 386.34 330.90 386.76 330.54
  A 1.35 1.34 71.3 0 0 387.20 329.64
  Q 387.54 325.14 391.20 323.36
  Q 392.99 322.49 394.47 324.05
  A 1.10 1.07 -71.8 0 1 394.76 324.65
  Q 395.05 326.99 393.38 330.78
  Q 392.96 331.75 392.90 334.50
  Q 392.79 339.42 392.77 343.81
  Q 389.41 348.95 384.22 350.72
  L 380.74 351.25
  A 1.90 1.90 0.0 0 1 379.84 351.17
  Q 372.95 348.80 370.31 341.96
  A 1.32 1.31 8.5 0 0 369.90 341.41
  L 368.83 340.60
  Q 369.14 339.28 368.76 338.01
  A 0.34 0.33 61.6 0 0 368.23 337.85
  Q 368.20 337.88 368.07 338.07
  Q 367.97 338.21 367.27 337.92
  Q 364.59 336.77 361.57 335.68
  Q 359.82 334.47 360.38 332.69
  A 2.06 1.82 12.3 0 1 362.57 331.47
  Q 367.32 332.13 368.98 335.25
  A 0.50 0.50 0.0 0 0 369.89 335.20
  Q 372.12 329.62 377.87 327.96
  A 0.45 0.45 0.0 0 0 377.90 327.11
  Q 377.69 327.04 376.89 327.37
  A 0.66 0.65 -19.8 0 1 376.01 326.96
  L 373.25 317.81
  L 377.53 317.79
  A 0.45 0.44 -31.8 0 0 377.73 316.95
  Q 375.77 315.98 373.42 316.46
  Q 374.24 314.85 375.29 314.85
  A 3.79 3.76 77.1 0 1 378.67 316.99
  Q 380.99 321.80 383.86 326.96
  Q 384.03 327.28 385.15 328.54
  Q 386.00 329.50 385.23 330.43
  Z"
/>
<path fill="#fcfcfc" d="
  M 472.80 317.35
  C 473.55 318.56 473.93 319.91 472.75 321.04
  Q 470.39 323.29 467.75 324.60
  A 0.39 0.39 0.0 0 1 467.20 324.12
  Q 468.48 320.48 467.51 316.93
  Q 468.57 315.41 472.80 317.35
  Z"
/>
<ellipse fill="#fcfcfc" cx="0.00" cy="0.00" transform="translate(423.42,317.93) rotate(-90.2)" rx="1.53" ry="1.10"/>
<path fill="#fcfcfc" d="
  M 374.16 328.05
  A 0.47 0.47 0.0 0 1 374.10 328.75
  Q 371.85 330.42 370.66 333.03
  A 0.45 0.45 0.0 0 1 369.91 333.13
  C 367.22 329.90 362.58 324.90 364.17 321.40
  A 2.31 2.26 -64.0 0 1 367.30 320.29
  C 370.62 322.02 372.54 326.36 374.16 328.05
  Z"
/>
<path fill="#fcfcfc" d="
  M 457.12 319.81
  L 459.36 326.11
  A 0.34 0.34 0.0 0 1 459.07 326.56
  Q 455.79 326.85 452.53 325.99
  L 452.63 325.00
  A 1.25 1.19 -22.2 0 1 452.94 324.31
  L 457.12 319.81
  Z"
/>
<path fill="#ba7f84" d="
  M 417.09 323.75
  L 411.88 331.13
  A 0.66 0.65 -73.2 0 0 412.43 332.16
  Q 413.63 332.13 414.46 332.95
  A 0.83 0.81 -58.2 0 1 414.65 333.80
  L 413.03 338.44
  A 1.97 1.96 39.1 0 0 413.21 340.12
  L 418.60 348.94
  Q 414.15 345.36 411.33 340.54
  A 1.77 1.75 -50.8 0 1 411.19 339.09
  L 412.81 334.48
  A 0.64 0.64 0.0 0 0 412.46 333.68
  Q 411.09 333.10 410.15 333.20
  A 0.57 0.57 0.0 0 1 409.64 332.30
  L 416.46 322.98
  A 0.27 0.27 0.0 0 1 416.94 323.08
  L 417.09 323.75
  Z"
/>
<path fill="#363c42" d="
  M 427.03 327.24
  Q 427.14 327.14 427.30 327.29
  A 0.45 0.45 0.0 0 1 427.31 327.92
  C 423.59 331.78 420.20 335.10 419.42 340.68
  A 1.23 1.19 39.4 0 0 419.48 341.21
  L 423.14 351.10
  Q 420.03 350.66 418.60 348.94
  L 413.21 340.12
  A 1.97 1.96 39.1 0 1 413.03 338.44
  L 414.65 333.80
  A 0.83 0.81 -58.2 0 0 414.46 332.95
  Q 413.63 332.13 412.43 332.16
  A 0.66 0.65 -73.2 0 1 411.88 331.13
  L 417.09 323.75
  L 417.47 323.99
  A 2.34 2.32 -3.3 0 1 418.06 324.51
  Q 420.36 327.42 424.87 327.76
  Q 426.42 327.87 427.03 327.24
  Z"
/>
<path fill="#0f6cb3" d="
  M 539.57 327.50
  L 522.67 343.75
  A 2.84 2.79 -73.5 0 1 521.44 344.43
  L 496.13 350.81
  A 1.70 1.68 53.9 0 1 494.78 350.59
  L 494.26 350.24
  A 0.55 0.54 51.1 0 1 494.36 349.27
  L 513.74 341.99
  A 0.35 0.34 71.6 0 0 513.95 341.56
  L 513.79 341.06
  A 0.14 0.14 0.0 0 0 513.61 340.97
  L 494.55 347.54
  A 0.64 0.64 0.0 0 1 493.73 347.13
  L 493.58 346.63
  A 0.71 0.71 0.0 0 1 494.02 345.75
  L 512.38 339.42
  A 0.96 0.95 -77.9 0 0 512.79 339.15
  L 519.58 331.55
  Q 529.73 328.65 539.57 327.50
  Z"
/>
<path fill="#363c42" d="
  M 385.23 330.43
  Q 385.32 330.85 385.82 330.97
  L 382.45 336.92
  A 2.63 2.63 0.0 0 0 382.12 338.27
  Q 382.16 339.87 381.97 340.72
  A 0.45 0.44 -39.1 0 1 381.09 340.63
  L 381.05 336.43
  A 1.30 1.28 63.6 0 1 381.32 335.61
  L 385.23 330.43
  Z"
/>
<path fill="#21252e" d="
  M 436.81 355.91
  L 438.06 354.56
  C 442.07 357.26 444.85 352.75 446.56 349.83
  A 0.69 0.69 0.0 0 0 445.76 348.82
  Q 441.22 350.22 440.04 350.48
  Q 438.95 350.72 437.51 352.19
  Q 437.18 350.36 439.84 349.34
  A 0.94 0.94 0.0 0 0 439.66 347.53
  L 435.41 346.84
  Q 433.50 344.76 431.89 347.42
  Q 433.48 349.91 433.30 352.33
  Q 432.34 350.35 430.13 348.11
  A 0.99 0.97 60.0 0 0 429.19 347.85
  L 427.96 348.16
  A 0.88 0.86 -25.3 0 1 427.07 347.85
  L 425.25 345.45
  A 0.25 0.25 0.0 0 1 425.58 345.09
  Q 425.98 345.34 427.33 346.41
  A 1.46 1.46 0.0 0 0 428.74 346.64
  L 432.73 345.14
  A 0.67 0.66 72.5 0 0 433.14 344.35
  L 432.28 340.96
  A 2.04 2.03 -78.2 0 0 431.53 339.81
  C 429.57 338.31 426.16 336.27 425.82 334.15
  A 1.36 1.36 0.0 0 1 426.88 332.61
  C 429.91 331.94 436.70 331.10 439.88 332.89
  A 1.30 1.29 41.1 0 1 440.03 335.05
  L 433.77 339.83
  A 0.98 0.98 0.0 0 0 433.41 340.85
  L 434.18 343.89
  A 1.09 1.07 4.5 0 0 434.82 344.63
  Q 440.16 346.76 441.72 346.82
  Q 443.07 346.86 447.19 345.37
  A 1.19 1.04 -70.7 0 0 447.49 345.20
  L 452.76 340.75
  A 0.27 0.26 -54.2 0 1 453.02 340.70
  L 453.96 341.03
  A 0.25 0.25 0.0 0 1 454.01 341.48
  Q 450.71 343.51 450.39 344.70
  Q 449.29 348.81 446.12 353.37
  Q 442.42 358.69 436.81 355.91
  Z
  M 427.03 334.49
  Q 428.52 336.55 432.15 338.73
  A 0.87 0.87 0.0 0 0 433.13 338.68
  L 438.59 334.53
  A 0.51 0.50 -55.9 0 0 438.42 333.64
  Q 432.38 332.02 427.27 333.75
  A 0.49 0.48 -27.1 0 0 427.03 334.49
  Z"
/>
<path fill="#ba7f84" d="
  M 427.03 334.49
  A 0.49 0.48 -27.1 0 1 427.27 333.75
  Q 432.38 332.02 438.42 333.64
  A 0.51 0.50 -55.9 0 1 438.59 334.53
  L 433.13 338.68
  A 0.87 0.87 0.0 0 1 432.15 338.73
  Q 428.52 336.55 427.03 334.49
  Z"
/>
<path fill="#ba7f84" d="
  M 368.83 340.60
  Q 364.47 339.06 361.57 335.68
  Q 364.59 336.77 367.27 337.92
  Q 367.97 338.21 368.07 338.07
  Q 368.20 337.88 368.23 337.85
  A 0.34 0.33 61.6 0 1 368.76 338.01
  Q 369.14 339.28 368.83 340.60
  Z"
/>
<path fill="#0a99ed" d="
  M 590.67 346.87
  Q 581.62 348.73 578.57 348.87
  Q 572.24 349.16 566.17 350.91
  A 0.35 0.35 0.0 0 0 566.16 351.58
  L 580.68 355.95
  Q 582.44 358.27 582.82 360.89
  Q 582.08 362.08 580.10 361.22
  Q 578.16 360.38 577.28 360.21
  Q 568.88 358.60 560.11 357.45
  L 551.85 360.32
  C 543.59 360.65 532.87 362.17 522.98 359.77
  L 521.54 359.23
  Q 521.37 358.14 521.82 356.82
  L 527.80 357.67
  A 4.34 4.30 -53.5 0 0 530.29 357.29
  L 560.51 342.96
  A 3.75 3.74 -56.2 0 1 562.32 342.60
  L 592.93 344.16
  A 0.38 0.38 0.0 0 1 593.23 344.74
  Q 592.44 346.01 590.67 346.87
  Z"
/>
<path fill="#363c42" d="
  M 392.77 343.81
  L 407.28 355.09
  A 2.85 2.79 -14.6 0 0 407.98 355.49
  Q 412.69 357.46 418.69 358.15
  A 0.54 0.53 -81.2 0 1 419.15 358.79
  Q 418.86 360.20 420.04 361.01
  A 1.35 1.32 10.8 0 1 420.58 361.79
  L 423.42 373.05
  A 0.41 0.41 0.0 0 1 422.94 373.56
  Q 417.17 372.42 408.10 370.20
  Q 400.01 368.22 394.65 362.86
  Q 389.05 357.26 384.22 350.72
  Q 389.41 348.95 392.77 343.81
  Z"
/>
<path fill="#0f6cb3" d="
  M 477.93 368.45
  L 471.74 374.27
  A 1.19 0.88 0.4 0 1 471.48 374.46
  C 467.25 376.77 465.13 378.06 461.61 379.42
  Q 448.37 384.55 445.96 385.23
  C 440.47 386.78 432.03 377.49 428.24 373.97
  C 426.31 372.23 423.09 369.47 424.13 366.81
  Q 424.43 364.98 425.47 365.58
  Q 432.58 369.70 440.62 373.46
  A 1.75 1.57 -28.0 0 0 441.22 373.61
  L 443.03 373.70
  A 0.56 0.56 0.0 0 0 443.59 372.98
  Q 443.45 372.53 442.93 372.11
  L 453.84 372.38
  A 0.30 0.30 0.0 0 1 453.97 372.95
  C 447.93 376.21 441.81 377.48 435.50 373.72
  Q 431.47 371.32 427.46 368.40
  A 0.26 0.26 0.0 0 0 427.08 368.74
  C 430.64 375.05 437.74 381.80 445.61 380.93
  C 453.58 380.05 461.80 377.27 467.90 371.91
  Q 471.57 368.69 476.12 364.16
  A 0.85 0.85 0.0 0 0 475.46 362.71
  L 473.42 362.86
  L 488.27 353.22
  A 0.57 0.57 0.0 0 0 488.44 352.43
  L 488.28 352.19
  A 0.55 0.54 56.8 0 0 487.53 352.03
  L 472.08 362.09
  A 0.62 0.61 -30.7 0 0 471.87 362.89
  Q 472.29 363.72 473.42 362.86
  Q 470.80 365.06 468.16 365.88
  Q 466.27 366.47 454.82 368.97
  A 0.35 0.34 -13.0 0 1 454.41 368.72
  L 454.39 368.64
  A 0.31 0.30 75.3 0 1 454.60 368.27
  Q 465.81 364.83 474.82 357.68
  A 0.31 0.30 30.8 0 0 474.68 357.14
  Q 473.64 356.96 472.48 357.51
  Q 469.09 359.12 464.66 360.32
  C 462.18 360.99 459.74 360.72 457.46 362.01
  A 2.56 2.53 -65.0 0 1 456.65 362.31
  C 452.64 363.05 447.71 363.73 443.33 364.85
  C 436.05 366.72 430.08 362.04 423.89 358.94
  A 1.25 1.22 -87.2 0 1 423.27 358.24
  Q 422.77 356.82 423.74 354.97
  Q 429.82 359.15 436.67 361.87
  C 441.25 363.68 444.59 362.04 449.46 360.75
  C 453.46 359.69 457.23 359.26 460.63 358.01
  Q 463.03 357.13 466.83 356.08
  Q 472.47 354.52 482.53 351.44
  A 2.56 2.53 15.7 0 0 483.49 350.91
  L 490.18 345.20
  A 0.68 0.67 -29.7 0 1 491.25 345.49
  Q 492.86 350.19 492.63 355.16
  A 0.89 0.89 0.0 0 1 492.06 355.96
  Q 490.45 356.58 489.85 357.11
  Q 485.54 360.93 477.93 368.45
  Z"
/>
<path fill="#fcfcfc" d="
  M 435.41 346.84
  Q 433.40 348.24 431.89 347.42
  Q 433.50 344.76 435.41 346.84
  Z"
/>
<path fill="#0f6cb3" d="
  M 590.67 346.87
  L 580.68 355.95
  L 566.16 351.58
  A 0.35 0.35 0.0 0 1 566.17 350.91
  Q 572.24 349.16 578.57 348.87
  Q 581.62 348.73 590.67 346.87
  Z"
/>
<path fill="#363c42" d="
  M 435.41 346.84
  L 439.66 347.53
  A 0.94 0.94 0.0 0 1 439.84 349.34
  Q 437.18 350.36 437.51 352.19
  Q 436.79 354.54 438.06 354.56
  L 436.81 355.91
  C 434.92 355.66 432.58 354.76 433.30 352.33
  Q 433.48 349.91 431.89 347.42
  Q 433.40 348.24 435.41 346.84
  Z"
/>
<path fill="#ba7f84" d="
  M 438.06 354.56
  Q 436.79 354.54 437.51 352.19
  Q 438.95 350.72 440.04 350.48
  Q 441.22 350.22 445.76 348.82
  A 0.69 0.69 0.0 0 1 446.56 349.83
  C 444.85 352.75 442.07 357.26 438.06 354.56
  Z"
/>
<path fill="#363c42" d="
  M 473.42 362.86
  Q 472.29 363.72 471.87 362.89
  A 0.62 0.61 -30.7 0 1 472.08 362.09
  L 487.53 352.03
  A 0.55 0.54 56.8 0 1 488.28 352.19
  L 488.44 352.43
  A 0.57 0.57 0.0 0 1 488.27 353.22
  L 473.42 362.86
  Z"
/>
<path fill="#0f6cb3" d="
  M 521.82 356.82
  Q 521.37 358.14 521.54 359.23
  L 500.78 354.88
  L 495.76 354.33
  A 0.97 0.96 -44.8 0 1 495.77 352.41
  Q 499.66 352.01 504.12 353.14
  Q 512.89 355.35 521.82 356.82
  Z"
/>
<path fill="#0a99ed" d="
  M 423.74 354.97
  Q 422.77 356.82 423.27 358.24
  A 1.25 1.22 -87.2 0 0 423.89 358.94
  C 430.08 362.04 436.05 366.72 443.33 364.85
  C 447.71 363.73 452.64 363.05 456.65 362.31
  A 2.56 2.53 -65.0 0 0 457.46 362.01
  C 459.74 360.72 462.18 360.99 464.66 360.32
  Q 469.09 359.12 472.48 357.51
  Q 473.64 356.96 474.68 357.14
  A 0.31 0.30 30.8 0 1 474.82 357.68
  Q 465.81 364.83 454.60 368.27
  A 0.31 0.30 75.3 0 0 454.39 368.64
  L 454.41 368.72
  A 0.35 0.34 -13.0 0 0 454.82 368.97
  Q 466.27 366.47 468.16 365.88
  Q 470.80 365.06 473.42 362.86
  L 475.46 362.71
  A 0.85 0.85 0.0 0 1 476.12 364.16
  Q 471.57 368.69 467.90 371.91
  C 461.80 377.27 453.58 380.05 445.61 380.93
  C 437.74 381.80 430.64 375.05 427.08 368.74
  A 0.26 0.26 0.0 0 1 427.46 368.40
  Q 431.47 371.32 435.50 373.72
  C 441.81 377.48 447.93 376.21 453.97 372.95
  A 0.30 0.30 0.0 0 0 453.84 372.38
  L 442.93 372.11
  Q 431.26 368.08 422.14 359.87
  A 1.48 1.47 15.3 0 1 421.71 359.12
  Q 421.59 358.58 421.70 358.00
  Q 422.13 354.10 423.74 354.97
  Z"
/>
<path fill="#363c42" d="
  M 521.54 359.23
  L 522.98 359.77
  Q 524.57 361.03 522.32 361.02
  Q 521.37 361.02 519.79 360.67
  Q 509.55 358.40 499.18 356.62
  Q 500.21 356.01 500.78 354.88
  L 521.54 359.23
  Z"
/>
<path fill="#0f6cb3" d="
  M 499.18 356.62
  Q 509.55 358.40 519.79 360.67
  Q 521.37 361.02 522.32 361.02
  Q 524.57 361.03 522.98 359.77
  C 532.87 362.17 543.59 360.65 551.85 360.32
  Q 540.91 364.25 530.19 368.45
  Q 528.40 369.15 525.80 368.21
  Q 514.77 364.23 506.17 361.48
  C 502.58 360.33 499.18 358.43 495.48 357.54
  A 0.52 0.52 0.0 0 1 495.50 356.53
  Q 497.27 356.19 499.18 356.62
  Z"
/>
<path fill="#0f6cb3" d="
  M 582.82 360.89
  L 584.84 366.88
  A 0.58 0.58 0.0 0 1 584.06 367.59
  L 560.11 357.45
  Q 568.88 358.60 577.28 360.21
  Q 578.16 360.38 580.10 361.22
  Q 582.08 362.08 582.82 360.89
  Z"
/>
<path fill="#363c42" d="
  M 421.70 358.00
  Q 421.59 358.58 421.71 359.12
  A 1.48 1.47 15.3 0 0 422.14 359.87
  Q 431.26 368.08 442.93 372.11
  Q 443.45 372.53 443.59 372.98
  A 0.56 0.56 0.0 0 1 443.03 373.70
  L 441.22 373.61
  A 1.75 1.57 -28.0 0 1 440.62 373.46
  Q 432.58 369.70 425.47 365.58
  Q 424.43 364.98 424.13 366.81
  Q 423.34 363.39 421.78 360.26
  Q 421.43 359.55 421.70 358.00
  Z"
/>
<path fill="#363c42" d="
  M 522.31 409.54
  C 517.50 408.21 513.22 408.16 509.21 411.53
  C 507.01 403.85 503.43 391.87 496.51 387.24
  C 493.51 385.23 490.41 383.52 488.77 381.57
  C 482.87 374.58 488.21 364.71 495.71 361.36
  A 1.15 1.14 -32.4 0 1 497.06 361.66
  L 517.08 385.12
  A 0.77 0.73 -68.4 0 1 517.25 385.54
  Q 517.73 394.45 520.78 402.96
  Q 521.26 404.30 522.31 409.54
  Z"
/>
<path fill="#363c42" d="
  M 477.93 368.45
  Q 478.37 369.72 478.88 370.25
  Q 476.29 372.23 474.22 374.72
  Q 472.97 376.22 466.96 379.22
  Q 457.45 383.95 447.74 386.84
  A 2.47 2.45 83.5 0 0 445.99 389.06
  Q 445.71 394.15 447.67 398.12
  L 449.32 403.45
  A 1.31 1.31 0.0 0 0 450.47 404.37
  L 461.86 405.25
  A 0.22 0.21 -55.0 0 1 461.93 405.66
  C 459.38 406.84 453.91 406.54 449.88 406.15
  A 0.62 0.62 0.0 0 0 449.21 406.71
  Q 448.15 417.65 450.28 428.57
  Q 449.46 428.10 448.33 428.01
  Q 446.56 417.39 447.21 406.60
  A 1.06 1.06 0.0 0 0 446.44 405.52
  L 441.16 404.05
  A 0.50 0.47 72.8 0 1 440.98 403.95
  L 440.60 403.55
  A 0.39 0.38 -19.9 0 1 440.91 402.90
  L 446.42 403.33
  A 0.50 0.50 0.0 0 0 446.95 402.74
  L 445.01 392.15
  Q 445.30 390.38 444.87 388.57
  A 1.05 1.04 87.4 0 0 444.03 387.80
  L 442.96 387.61
  A 2.85 2.78 -25.1 0 1 442.04 387.29
  Q 433.97 382.89 427.57 376.11
  Q 428.05 375.35 428.24 373.97
  C 432.03 377.49 440.47 386.78 445.96 385.23
  Q 448.37 384.55 461.61 379.42
  C 465.13 378.06 467.25 376.77 471.48 374.46
  A 1.19 0.88 0.4 0 0 471.74 374.27
  L 477.93 368.45
  Z"
/>
<path fill="#0f6cb3" d="
  M 478.88 370.25
  C 478.51 377.69 478.32 383.20 483.21 389.33
  C 484.69 391.18 487.85 392.83 489.94 390.66
  A 0.77 0.77 0.0 0 1 491.26 391.19
  Q 491.26 394.94 492.67 398.73
  Q 494.97 404.90 497.84 411.47
  A 1.43 1.42 55.0 0 1 497.57 413.01
  Q 490.99 420.02 481.97 424.25
  L 483.27 417.14
  L 486.30 420.44
  A 0.26 0.25 58.0 0 0 486.58 420.51
  L 486.90 420.40
  A 0.48 0.48 0.0 0 0 487.12 419.64
  L 480.11 410.75
  C 481.14 409.42 480.27 405.97 479.95 404.68
  C 479.03 400.98 479.01 399.38 478.90 395.38
  C 478.78 390.57 476.95 386.15 473.84 382.45
  A 0.73 0.73 0.0 0 0 473.05 382.23
  L 447.46 391.06
  A 0.86 0.85 77.4 0 0 446.89 391.97
  L 447.67 398.12
  Q 445.71 394.15 445.99 389.06
  A 2.47 2.45 83.5 0 1 447.74 386.84
  Q 457.45 383.95 466.96 379.22
  Q 472.97 376.22 474.22 374.72
  Q 476.29 372.23 478.88 370.25
  Z"
/>
<path fill="#0f6cb3" d="
  M 427.57 376.11
  Q 433.97 382.89 442.04 387.29
  A 2.85 2.78 -25.1 0 0 442.96 387.61
  L 444.03 387.80
  A 1.05 1.04 87.4 0 1 444.87 388.57
  Q 445.30 390.38 445.01 392.15
  C 438.99 388.25 433.64 386.20 429.15 379.49
  A 0.84 0.81 66.3 0 0 428.29 379.14
  Q 427.78 379.26 427.50 379.72
  Q 426.95 377.95 427.57 376.11
  Z"
/>
<path fill="#0a99ed" d="
  M 445.01 392.15
  L 446.95 402.74
  A 0.50 0.50 0.0 0 1 446.42 403.33
  L 440.91 402.90
  A 0.39 0.38 -19.9 0 0 440.60 403.55
  L 440.98 403.95
  A 0.50 0.47 72.8 0 0 441.16 404.05
  L 446.44 405.52
  A 1.06 1.06 0.0 0 1 447.21 406.60
  Q 446.56 417.39 448.33 428.01
  Q 443.77 427.47 441.00 426.23
  Q 433.69 422.98 427.75 418.42
  A 1.76 1.76 0.0 0 1 427.11 416.61
  Q 429.12 408.49 430.60 401.57
  Q 430.84 400.45 430.07 397.06
  Q 428.13 388.48 427.50 379.72
  Q 427.78 379.26 428.29 379.14
  A 0.84 0.81 66.3 0 1 429.15 379.49
  C 433.64 386.20 438.99 388.25 445.01 392.15
  Z"
/>
<path fill="#0a99ed" d="
  M 480.11 410.75
  Q 478.47 407.78 476.42 405.46
  A 0.24 0.24 0.0 0 0 476.02 405.72
  Q 479.07 411.88 483.27 417.14
  L 481.97 424.25
  Q 466.80 431.15 450.28 428.57
  Q 448.15 417.65 449.21 406.71
  A 0.62 0.62 0.0 0 1 449.88 406.15
  C 453.91 406.54 459.38 406.84 461.93 405.66
  A 0.22 0.21 -55.0 0 0 461.86 405.25
  L 450.47 404.37
  A 1.31 1.31 0.0 0 1 449.32 403.45
  L 447.67 398.12
  L 446.89 391.97
  A 0.86 0.85 77.4 0 1 447.46 391.06
  L 473.05 382.23
  A 0.73 0.73 0.0 0 1 473.84 382.45
  C 476.95 386.15 478.78 390.57 478.90 395.38
  C 479.01 399.38 479.03 400.98 479.95 404.68
  C 480.27 405.97 481.14 409.42 480.11 410.75
  Z"
/>
<path fill="#363c42" d="
  M 480.11 410.75
  L 487.12 419.64
  A 0.48 0.48 0.0 0 1 486.90 420.40
  L 486.58 420.51
  A 0.26 0.25 58.0 0 1 486.30 420.44
  L 483.27 417.14
  Q 479.07 411.88 476.02 405.72
  A 0.24 0.24 0.0 0 1 476.42 405.46
  Q 478.47 407.78 480.11 410.75
  Z"
/>
<path fill="#363c42" d="
  M 499.66 409.80
  A 1.89 1.88 -45.1 0 1 499.66 407.13
  L 500.79 406.00
  A 0.80 0.80 0.0 0 1 502.08 406.22
  L 504.68 411.69
  A 1.26 1.26 0.0 0 1 504.59 412.92
  L 501.97 416.92
  A 0.60 0.60 0.0 0 1 500.87 416.56
  Q 500.98 414.52 501.73 412.54
  A 0.81 0.81 0.0 0 0 501.55 411.69
  L 499.66 409.80
  Z"
/>
<path fill="#fcfcfc" d="
  M 522.31 409.54
  Q 525.05 409.71 525.70 412.26
  Q 527.60 419.66 528.04 424.31
  A 3.25 3.18 48.8 0 1 527.99 425.22
  C 527.50 427.66 526.25 430.63 523.97 431.59
  A 0.27 0.27 0.0 0 1 523.61 431.25
  Q 524.24 429.46 523.94 427.53
  A 0.31 0.30 45.6 0 0 523.34 427.52
  Q 522.19 434.55 515.48 434.79
  A 0.28 0.28 0.0 0 1 515.26 434.33
  Q 517.64 431.61 516.89 427.87
  A 0.41 0.41 0.0 0 0 516.08 427.93
  Q 515.71 434.33 509.66 434.22
  A 1.90 1.89 66.1 0 1 508.48 433.76
  Q 506.87 432.37 506.32 429.72
  A 1.18 1.16 60.5 0 1 506.59 428.72
  Q 508.25 426.82 507.02 424.04
  A 0.39 0.39 0.0 0 0 506.28 424.17
  L 506.08 426.78
  A 0.57 0.57 0.0 0 1 505.29 427.26
  C 502.32 426.00 502.17 424.16 501.92 421.17
  A 1.40 1.36 59.6 0 1 502.13 420.31
  Q 505.18 415.32 509.21 411.53
  C 513.22 408.16 517.50 408.21 522.31 409.54
  Z"
/>
<path fill="#363c42" d="
  M 427.57 422.38
  L 438.21 427.72
  A 4.82 4.39 1.5 0 0 438.83 427.98
  L 447.07 431.10
  A 5.48 4.97 42.0 0 0 447.80 431.31
  L 450.39 431.88
  A 1.74 1.56 48.2 0 0 450.75 431.92
  Q 458.83 431.91 459.63 431.94
  Q 466.21 432.19 468.37 431.70
  Q 476.02 429.97 478.56 428.76
  Q 484.48 425.94 485.05 425.80
  A 7.79 7.29 -51.7 0 1 486.38 425.60
  Q 489.25 425.44 492.14 424.80
  A 2.51 2.49 -18.6 0 1 494.97 426.20
  C 497.51 431.73 501.21 436.60 503.84 442.39
  C 506.39 448.02 505.54 454.09 501.52 458.87
  A 2.81 2.80 -72.8 0 1 499.63 459.87
  Q 487.97 460.98 479.59 452.35
  Q 472.58 445.14 470.64 443.26
  A 2.16 2.14 -21.4 0 0 469.25 442.66
  Q 462.60 442.31 452.77 440.75
  Q 450.89 440.45 446.32 438.85
  A 2.09 2.08 -70.7 0 0 443.66 440.14
  L 438.06 456.12
  A 3.27 3.26 -78.9 0 1 434.82 458.30
  L 424.94 457.79
  A 0.76 0.75 74.7 0 1 424.35 457.45
  L 418.65 448.70
  A 3.69 3.67 36.5 0 1 418.19 445.70
  Q 421.20 434.83 426.97 422.59
  A 0.44 0.44 0.0 0 1 427.57 422.38
  Z"
/>
<path fill="#363c42" d="
  M 432.61 478.07
  Q 428.52 474.60 423.79 473.07
  L 433.56 469.90
  A 1.03 0.94 38.9 0 1 434.06 469.87
  L 443.61 471.78
  A 0.93 0.93 0.0 0 1 444.35 472.83
  C 443.61 477.73 436.46 478.92 432.61 478.07
  Z"
/>
<path fill="#363c42" d="
  M 521.46 478.44
  Q 514.18 476.76 506.59 480.58
  Q 500.72 483.54 500.97 490.23
  Q 500.02 482.78 500.93 476.51
  A 1.50 1.47 78.1 0 1 501.58 475.49
  C 507.76 471.39 517.32 470.75 521.46 478.44
  Z"
/>
<path fill="#fcfcfc" d="
  M 423.79 473.07
  Q 428.52 474.60 432.61 478.07
  Q 435.74 480.54 436.07 485.20
  A 0.48 0.46 -11.9 0 1 435.74 485.68
  C 429.19 487.80 422.73 489.53 416.21 489.19
  A 0.65 0.64 -89.5 0 1 415.60 488.56
  C 415.42 483.81 417.68 481.85 421.26 478.67
  A 0.29 0.29 0.0 0 0 421.00 478.18
  C 417.03 479.18 413.99 483.40 413.87 487.62
  A 1.31 1.30 6.4 0 1 412.31 488.86
  L 408.89 488.17
  A 2.16 2.15 5.4 0 1 407.15 486.07
  C 407.12 482.07 410.17 479.00 412.73 476.52
  A 0.47 0.47 0.0 0 0 412.17 475.78
  Q 405.98 479.29 405.51 485.79
  A 0.20 0.19 6.5 0 1 405.28 485.97
  L 404.79 485.87
  A 0.53 0.52 9.5 0 1 404.37 485.29
  Q 405.85 474.29 416.26 473.16
  Q 419.99 472.76 423.79 473.07
  Z"
/>
<path fill="#fcfcfc" d="
  M 521.46 478.44
  C 524.94 480.35 530.66 485.37 530.36 489.72
  Q 530.18 492.42 527.89 493.95
  A 0.53 0.53 0.0 0 1 527.06 493.55
  C 526.81 489.86 525.34 484.89 522.00 482.73
  A 0.37 0.37 0.0 0 0 521.51 483.28
  Q 525.67 488.25 525.31 494.75
  A 2.00 1.99 -0.3 0 1 523.44 496.64
  L 516.82 497.04
  A 1.01 1.01 0.0 0 1 515.77 495.84
  Q 515.89 495.24 514.73 490.51
  Q 513.94 487.28 511.29 484.59
  A 0.22 0.22 0.0 0 0 510.95 484.86
  Q 514.12 490.09 513.88 496.14
  A 0.58 0.58 0.0 0 1 513.29 496.70
  Q 504.16 496.53 500.97 490.23
  Q 500.72 483.54 506.59 480.58
  Q 514.18 476.76 521.46 478.44
  Z"
/>
</svg>
