<?xml version="1.0" encoding="UTF-8" standalone="no"?>
<!DOCTYPE svg PUBLIC "-//W3C//DTD SVG 1.1//EN" "http://www.w3.org/Graphics/SVG/1.1/DTD/svg11.dtd">
<svg xmlns="http://www.w3.org/2000/svg" version="1.1" viewBox="0.00 0.00 1080.00 1080.00">
<g stroke-width="2.00" fill="none" stroke-linecap="butt">
<path stroke="#2c3139" vector-effect="non-scaling-stroke" d="
  M 201.21 166.18
  Q 199.73 166.49 199.53 166.74"
/>
<path stroke="#19486f" vector-effect="non-scaling-stroke" d="
  M 199.53 166.74
  Q 194.34 172.14 188.51 175.17
  A 2.25 2.14 -59.5 0 1 187.78 175.38
  Q 186.79 175.47 186.76 175.48
  Q 178.69 178.12 170.87 180.18
  A 3.79 3.39 21.6 0 0 170.22 180.42
  Q 168.49 181.25 166.75 181.61
  Q 159.86 183.03 150.03 185.58
  Q 146.33 186.54 144.23 185.77
  Q 136.87 183.06 128.21 177.93
  A 0.54 0.53 -59.9 0 0 127.47 178.13
  Q 126.83 179.28 126.99 180.73"
/>
<path stroke="#195e8b" vector-effect="non-scaling-stroke" d="
  M 126.99 180.73
  Q 126.64 183.09 128.79 184.04"
/>
<path stroke="#2c3139" vector-effect="non-scaling-stroke" d="
  M 128.79 184.04
  Q 129.02 185.39 130.29 186.37
  A 0.57 0.57 0.0 0 1 129.94 187.40
  Q 129.03 187.41 129.34 188.21"
/>
<path stroke="#19486f" vector-effect="non-scaling-stroke" d="
  M 129.34 188.21
  C 127.80 192.03 129.75 194.26 132.78 196.56"
/>
<path stroke="#2c3139" vector-effect="non-scaling-stroke" d="
  M 132.78 196.56
  L 133.37 200.46"
/>
<path stroke="#19486f" vector-effect="non-scaling-stroke" d="
  M 133.37 200.46
  L 133.72 204.72"
/>
<path stroke="#195e8b" vector-effect="non-scaling-stroke" d="
  M 133.72 204.72
  L 133.95 210.04
  A 1.02 0.56 55.3 0 0 133.97 210.23
  Q 135.63 218.46 135.98 220.20
  C 137.52 227.69 135.22 233.89 132.99 242.31
  A 1.54 1.52 -53.0 0 0 133.14 243.46
  Q 134.27 245.45 138.18 248.04
  Q 146.36 253.47 154.82 255.05"
/>
<path stroke="#19486f" vector-effect="non-scaling-stroke" d="
  M 154.82 255.05
  L 156.84 255.20"
/>
<path stroke="#195e8b" vector-effect="non-scaling-stroke" d="
  M 156.84 255.20
  Q 157.27 255.58 158.01 255.67
  Q 175.35 257.87 190.98 250.32"
/>
<path stroke="#19486f" vector-effect="non-scaling-stroke" d="
  M 190.98 250.32
  Q 194.38 248.25 197.78 246.27
  Q 199.84 245.07 205.78 240.01
  Q 207.45 238.59 206.30 236.44
  C 203.00 230.21 199.96 222.29 199.92 215.06
  A 0.46 0.46 0.0 0 0 199.10 214.77
  Q 196.57 217.90 193.17 215.30
  C 189.38 212.40 188.11 208.62 187.46 204.30"
/>
<path stroke="#2c3139" vector-effect="non-scaling-stroke" d="
  M 187.46 204.30
  C 187.24 197.83 188.83 192.68 193.23 187.87
  C 196.60 184.19 199.59 181.02 204.84 180.70"
/>
<path stroke="#19486f" vector-effect="non-scaling-stroke" d="
  M 204.84 180.70
  L 209.80 182.27
  A 1.00 0.97 72.4 0 1 210.06 182.41
  Q 211.58 183.48 214.17 184.37
  Q 221.76 186.99 237.63 192.71
  A 1.60 1.58 -45.3 0 0 238.71 192.70
  L 264.93 182.69"
/>
<path stroke="#2c3139" vector-effect="non-scaling-stroke" d="
  M 264.93 182.69
  Q 265.49 183.20 265.54 184.22"
/>
<path stroke="#2c3139" vector-effect="non-scaling-stroke" d="
  M 114.46 160.18
  Q 115.47 159.63 114.92 158.21"
/>
<path stroke="#2c3139" vector-effect="non-scaling-stroke" d="
  M 187.49 82.01
  Q 187.99 81.98 188.05 81.50
  Q 188.08 81.22 187.83 81.21"
/>
<path stroke="#2c3139" vector-effect="non-scaling-stroke" d="
  M 188.48 80.03
  Q 189.21 79.85 188.95 79.01"
/>
<path stroke="#24547b" vector-effect="non-scaling-stroke" d="
  M 264.93 182.69
  L 267.84 181.25"
/>
<path stroke="#246b96" vector-effect="non-scaling-stroke" d="
  M 267.84 181.25
  Q 270.16 180.36 272.03 180.74"
/>
<path stroke="#24547b" vector-effect="non-scaling-stroke" d="
  M 272.03 180.74
  L 296.34 191.04
  A 0.40 0.40 0.0 0 0 296.87 190.55
  L 295.29 185.77"
/>
<path stroke="#246b96" vector-effect="non-scaling-stroke" d="
  M 295.29 185.77
  L 293.56 180.25"
/>
<path stroke="#24547b" vector-effect="non-scaling-stroke" d="
  M 293.56 180.25
  Q 293.18 179.28 293.32 178.31
  A 1.30 1.25 74.9 0 1 293.76 177.51
  L 303.21 169.41"
/>
<path stroke="#246b96" vector-effect="non-scaling-stroke" d="
  M 303.21 169.41
  Q 304.49 168.82 305.66 167.56
  A 0.29 0.28 -66.9 0 0 305.47 167.08
  L 273.60 165.28
  A 5.25 5.17 -55.1 0 0 271.18 165.73
  Q 266.75 167.75 264.90 168.48
  Q 262.92 169.27 258.22 171.87
  Q 246.83 178.20 235.27 181.20"
/>
<path stroke="#24547b" vector-effect="non-scaling-stroke" d="
  M 235.27 181.20
  Q 227.55 179.09 220.53 177.72
  C 215.07 176.66 209.90 174.91 204.41 175.29
  A 0.91 0.86 -22.6 0 0 203.76 176.74
  Q 204.05 177.06 204.62 177.14
  Q 217.16 178.93 230.95 182.99
  A 0.47 0.47 0.0 0 1 231.28 183.53
  L 231.22 183.89
  A 0.27 0.27 0.0 0 1 230.91 184.11
  L 204.32 179.27
  A 0.60 0.60 0.0 0 0 203.65 180.05
  Q 203.73 180.31 204.84 180.70"
/>
<path stroke="#24547b" vector-effect="non-scaling-stroke" d="
  M 187.46 204.30
  L 187.14 195.14
  A 0.61 0.60 -23.1 0 0 186.11 194.73
  L 181.11 199.58
  A 0.97 0.95 8.7 0 1 180.86 199.76
  Q 177.31 201.61 173.92 203.55
  Q 172.66 204.27 167.38 206.86
  Q 164.96 208.04 153.01 212.19
  A 1.22 1.19 -41.1 0 1 152.10 212.14
  Q 151.09 211.68 149.82 211.96
  A 1.23 1.18 -36.2 0 1 149.01 211.85
  Q 143.06 208.78 139.98 206.03
  Q 135.42 201.97 133.37 200.46"
/>
<path stroke="#24547b" vector-effect="non-scaling-stroke" d="
  M 132.78 196.56
  Q 138.62 202.52 145.24 207.54
  C 149.65 210.89 152.44 210.48 157.65 208.39
  Q 161.19 206.97 172.50 202.22
  Q 178.32 199.77 183.46 194.70
  Q 191.76 186.50 200.63 178.82
  A 2.15 2.15 0.0 0 0 201.34 176.79
  L 199.53 166.74"
/>
<path stroke="#246b96" vector-effect="non-scaling-stroke" d="
  M 189.21 238.35
  Q 189.88 240.66 191.03 241.56"
/>
<path stroke="#246b96" vector-effect="non-scaling-stroke" d="
  M 148.16 195.63
  Q 137.54 191.71 128.79 184.04"
/>
<path stroke="#1182cd" vector-effect="non-scaling-stroke" d="
  M 190.98 250.32
  L 191.03 241.56"
/>
<path stroke="#24547b" vector-effect="non-scaling-stroke" d="
  M 191.03 241.56
  L 194.88 246.66
  A 0.82 0.81 13.2 0 0 196.26 245.81
  Q 193.92 241.16 189.21 238.35"
/>
<path stroke="#1182cd" vector-effect="non-scaling-stroke" d="
  M 189.21 238.35
  Q 186.46 235.91 183.86 230.88
  A 0.34 0.33 7.2 0 1 184.38 230.48
  Q 186.82 232.62 188.80 235.83
  A 0.29 0.29 0.0 0 0 189.34 235.64
  Q 189.19 234.40 187.82 222.26
  C 187.47 219.20 184.73 214.49 183.68 210.79
  Q 182.94 208.17 182.37 206.20
  A 1.08 1.07 -17.4 0 0 180.98 205.48
  Q 174.51 207.70 165.82 211.82
  C 161.78 213.74 157.17 214.55 153.70 216.14
  A 0.99 0.98 -17.6 0 0 153.14 217.21
  L 155.19 228.50
  A 1.23 1.23 0.0 0 0 156.31 229.51
  L 169.58 230.51
  A 0.45 0.44 -2.5 0 1 169.98 230.87
  L 170.06 231.32
  A 0.39 0.39 0.0 0 1 169.68 231.78
  L 156.84 231.78
  A 0.95 0.95 0.0 0 0 155.89 232.69
  Q 155.29 244.12 156.84 255.20"
/>
<path stroke="#1182cd" vector-effect="non-scaling-stroke" d="
  M 154.82 255.05
  Q 154.54 252.33 154.24 249.67
  C 153.59 243.99 153.92 238.84 154.10 231.98
  A 0.92 0.91 4.5 0 0 153.30 231.05
  Q 148.06 230.36 144.35 228.50
  A 0.21 0.21 0.0 0 1 144.46 228.11
  L 153.23 228.78
  A 0.32 0.32 0.0 0 0 153.57 228.41
  L 151.54 217.23
  A 2.30 2.29 6.7 0 0 150.21 215.55
  Q 140.93 211.52 134.42 203.83
  A 0.35 0.35 0.0 0 0 133.83 203.93
  Q 133.69 204.32 133.72 204.72"
/>
<path stroke="#24547b" vector-effect="non-scaling-stroke" d="
  M 129.34 188.21
  Q 129.48 187.97 129.71 187.90
  Q 129.91 187.84 130.17 188.02
  Q 137.24 192.69 145.91 196.88
  A 1.89 1.36 54.2 0 0 146.33 197.02
  L 148.05 197.37
  A 0.69 0.69 0.0 0 0 148.69 196.23
  L 148.16 195.63"
/>
<path stroke="#1182cd" vector-effect="non-scaling-stroke" d="
  M 148.16 195.63
  L 160.50 196.57
  A 0.43 0.42 28.5 0 1 160.73 197.33
  Q 152.09 203.91 142.72 198.45
  Q 136.95 195.10 130.93 191.19
  A 0.33 0.33 0.0 0 0 130.51 191.70
  Q 134.48 195.95 140.09 201.09
  C 143.63 204.33 146.91 206.62 151.52 205.90
  Q 160.46 204.49 168.61 200.65
  C 175.23 197.51 179.67 193.26 184.28 187.40
  A 0.64 0.64 0.0 0 0 183.45 186.46
  L 179.05 189.11
  A 1.88 1.74 -63.9 0 1 178.48 189.33
  L 163.64 192.15
  A 0.06 0.06 0.0 0 1 163.57 192.10
  L 163.50 191.73
  A 0.40 0.39 74.0 0 1 163.73 191.30
  Q 173.63 187.15 182.06 180.94
  A 0.31 0.31 0.0 0 0 181.76 180.41
  Q 177.72 182.12 173.34 182.94
  C 167.85 183.96 160.98 185.81 156.80 186.82
  C 148.91 188.72 144.35 190.10 137.41 186.32
  Q 132.22 183.51 126.99 180.73"
/>
<path stroke="#1182cd" vector-effect="non-scaling-stroke" d="
  M 303.21 169.41
  L 276.28 173.88
  A 0.40 0.40 0.0 0 0 276.28 174.67
  Q 285.29 176.20 293.56 180.25"
/>
<path stroke="#1182cd" vector-effect="non-scaling-stroke" d="
  M 295.29 185.77
  Q 283.87 181.89 272.03 180.74"
/>
<path stroke="#1182cd" vector-effect="non-scaling-stroke" d="
  M 267.84 181.25
  C 258.28 183.03 249.42 186.17 239.30 184.53
  Q 237.41 184.22 236.23 183.60
  Q 233.95 182.39 235.27 181.20"
/>
<path stroke="#6f5158" vector-effect="non-scaling-stroke" d="
  M 190.34 108.61
  Q 192.21 106.62 193.00 105.99
  Q 219.04 85.37 225.20 80.63
  A 3.79 3.61 -4.2 0 0 226.05 79.69
  Q 228.39 75.84 229.68 72.43
  Q 235.99 55.62 241.40 37.73
  C 242.08 35.50 242.19 33.40 242.79 31.19
  A 0.39 0.39 0.0 0 0 242.14 30.80
  L 210.12 61.22
  A 5.57 5.46 82.0 0 0 209.00 62.74
  C 207.12 66.54 204.89 69.44 203.23 73.18
  Q 198.05 84.88 194.06 95.27
  Q 191.37 102.26 189.98 108.42
  A 0.21 0.21 0.0 0 0 190.34 108.61"
/>
<path stroke="#6f5158" vector-effect="non-scaling-stroke" d="
  M 176.53 101.87
  Q 177.43 101.51 176.67 100.74
  A 1.21 1.19 -12.9 0 0 176.20 100.45
  Q 170.81 98.62 165.21 97.82
  Q 155.79 96.48 148.26 95.25
  A 0.26 0.26 0.0 0 0 148.03 95.69
  L 151.75 99.60
  A 0.67 0.67 0.0 0 1 151.42 100.71
  L 136.41 104.45
  A 0.49 0.49 0.0 0 0 136.56 105.41
  Q 137.79 105.34 139.84 106.28
  A 0.53 0.53 0.0 0 1 140.05 107.07
  C 139.54 107.76 137.55 108.64 136.56 109.75
  Q 134.07 112.55 131.55 114.54
  A 0.41 0.41 0.0 0 0 131.87 115.27
  L 140.22 113.75
  A 0.38 0.37 -2.4 0 1 140.66 114.15
  L 140.17 120.55
  A 0.27 0.26 -14.4 0 0 140.58 120.79
  L 147.68 116.07
  A 0.50 0.50 0.0 0 1 148.45 116.44
  L 148.58 117.80"
/>
<path stroke="#2c3139" vector-effect="non-scaling-stroke" d="
  M 148.58 117.80
  Q 148.65 118.05 149.42 118.13
  A 0.27 0.27 0.0 0 1 149.54 118.63
  L 149.01 118.99
  A 0.70 0.69 54.3 0 1 148.07 118.83
  Q 147.32 117.86 145.39 118.93
  Q 144.95 119.18 139.22 123.76
  A 0.54 0.54 0.0 0 1 138.35 123.29
  L 138.95 115.30
  A 0.14 0.14 0.0 0 0 138.79 115.15
  L 131.72 116.43
  A 4.98 4.97 12.7 0 0 128.58 118.41
  L 125.10 123.21"
/>
<path stroke="#8e9094" vector-effect="non-scaling-stroke" d="
  M 125.10 123.21
  L 122.38 126.60"
/>
<path stroke="#6f5158" vector-effect="non-scaling-stroke" d="
  M 122.38 126.60
  Q 122.18 127.59 122.50 128.86
  A 1.08 1.07 -84.0 0 0 123.07 129.57
  Q 129.04 132.59 131.71 139.01"
/>
<path stroke="#8e9094" vector-effect="non-scaling-stroke" d="
  M 131.71 139.01
  L 131.95 142.93"
/>
<path stroke="#2c3139" vector-effect="non-scaling-stroke" d="
  M 131.95 142.93
  L 131.72 148.73
  A 0.99 0.98 -5.0 0 1 130.94 149.65
  Q 127.23 150.43 124.48 147.75
  C 123.02 146.32 122.19 145.63 122.01 143.77
  A 0.28 0.27 55.5 0 0 121.49 143.67
  Q 120.24 146.16 117.19 149.48
  A 1.21 0.96 -12.0 0 0 117.05 149.65
  L 113.45 155.20
  A 0.44 0.43 -78.5 0 0 113.89 155.87
  L 116.20 155.45
  A 0.91 0.91 0.0 0 1 117.23 156.64
  L 115.37 162.16
  A 0.85 0.84 -55.9 0 0 115.52 162.97
  Q 117.27 165.10 119.24 168.26
  Q 121.71 172.25 127.87 174.40"
/>
<path stroke="#8e9094" vector-effect="non-scaling-stroke" d="
  M 127.87 174.40
  Q 136.18 180.44 145.18 183.80
  A 5.75 5.75 0.0 0 0 148.65 183.96
  Q 154.99 182.23 159.85 181.27
  C 164.24 180.41 166.66 176.88 168.58 173.27"
/>
<path stroke="#2c3139" vector-effect="non-scaling-stroke" d="
  M 168.58 173.27
  C 177.51 170.95 184.74 169.64 190.16 163.13
  Q 194.18 158.31 196.04 155.25
  A 0.90 0.86 -78.5 0 1 196.63 154.84
  L 202.02 153.87
  A 0.23 0.23 0.0 0 0 202.14 153.49
  L 198.32 149.47
  A 0.74 0.74 0.0 0 1 198.76 148.23
  Q 199.63 148.12 200.23 147.76
  A 0.48 0.48 0.0 0 0 200.20 146.91
  L 193.01 143.36
  A 0.73 0.72 14.4 0 1 192.60 142.68
  Q 192.90 132.31 191.30 125.75
  Q 189.99 120.41 188.41 113.12
  C 187.48 108.83 189.46 104.44 190.22 101.56
  Q 191.44 96.92 192.51 94.93
  Q 193.30 93.46 198.11 80.33
  Q 200.68 73.30 206.57 63.57
  Q 208.75 59.99 212.32 56.72
  Q 221.38 48.43 230.62 38.62
  Q 231.81 37.36 237.86 32.96
  A 0.80 0.80 0.0 0 0 237.64 31.56
  L 236.54 31.19
  A 3.02 3.02 0.0 0 0 233.68 31.70
  Q 227.67 36.57 222.43 40.92
  C 217.54 44.96 211.01 49.31 205.36 53.64
  Q 203.49 55.08 202.71 56.82
  Q 202.43 57.45 202.28 57.72
  Q 188.44 83.34 178.73 101.97
  Q 177.76 103.81 176.02 105.14
  A 0.25 0.25 0.0 0 1 175.62 104.93
  Q 175.76 102.72 176.53 101.87"
/>
<path stroke="#999c9f" vector-effect="non-scaling-stroke" d="
  M 168.58 173.27
  C 169.89 168.35 167.97 163.32 165.82 159.10
  A 6.66 6.66 0.0 0 0 163.59 156.60
  L 154.28 150.45"
/>
<path stroke="#795e64" vector-effect="non-scaling-stroke" d="
  M 154.28 150.45
  Q 154.09 148.66 154.62 148.64"
/>
<path stroke="#2c3139" vector-effect="non-scaling-stroke" d="
  M 154.62 148.64
  Q 158.87 149.71 163.50 149.85
  Q 169.71 150.04 174.31 148.47
  C 177.02 147.54 181.79 144.51 182.29 141.37
  Q 183.29 135.17 181.39 128.90
  Q 181.10 127.93 181.84 125.42
  A 0.47 0.47 0.0 0 0 181.44 124.82
  L 181.06 124.78"
/>
<path stroke="#795e64" vector-effect="non-scaling-stroke" d="
  M 181.06 124.78
  L 181.95 122.98"
/>
<path stroke="#999c9f" vector-effect="non-scaling-stroke" d="
  M 181.95 122.98
  L 182.23 122.82
  A 0.56 0.55 -52.5 0 0 182.10 121.80
  L 173.58 119.59
  A 1.38 1.36 -51.5 0 0 172.60 119.71
  L 165.30 123.50
  A 2.66 2.47 -81.7 0 0 164.53 124.12
  Q 163.78 124.94 160.05 127.56
  C 157.23 129.54 153.64 133.11 152.87 137.18
  Q 151.90 142.33 150.83 147.00
  A 1.35 1.35 0.0 0 1 149.18 148.01
  Q 141.26 145.95 134.48 148.57
  A 0.47 0.47 0.0 0 1 133.84 148.13
  Q 133.86 145.05 132.98 142.14
  A 3.53 3.36 -54.9 0 1 132.83 141.13
  L 132.83 134.54
  A 6.39 6.34 -65.6 0 0 131.28 130.37
  L 125.10 123.21"
/>
<path stroke="#795e64" vector-effect="non-scaling-stroke" d="
  M 148.58 117.80
  L 155.14 114.37
  A 0.46 0.46 0.0 0 0 154.76 113.53
  L 151.96 114.60
  A 0.58 0.58 0.0 0 1 151.26 114.36
  Q 150.89 113.77 151.39 113.15
  A 0.47 0.47 0.0 0 0 150.76 112.47
  L 143.17 117.50
  A 0.23 0.23 0.0 0 1 142.82 117.29
  L 143.24 111.69
  A 0.23 0.23 0.0 0 0 142.96 111.45
  L 139.10 112.42
  A 0.73 0.73 0.0 0 1 138.26 111.41
  C 139.13 109.47 142.48 107.93 143.97 106.80
  A 0.51 0.51 0.0 0 0 143.78 105.90
  L 141.46 105.30
  A 0.58 0.58 0.0 0 1 141.54 104.17
  L 146.28 103.62
  A 1.78 1.72 31.9 0 0 146.65 103.54
  Q 151.71 102.01 155.48 101.77
  A 0.29 0.29 0.0 0 0 155.64 101.25
  Q 154.68 100.49 152.67 98.01
  Q 152.52 97.82 152.11 97.75
  Q 151.71 97.67 151.54 97.51
  A 0.33 0.33 0.0 0 1 151.82 96.94
  Q 164.39 99.25 171.00 100.34
  Q 173.50 100.75 176.53 101.87"
/>
<path stroke="#6f5158" vector-effect="non-scaling-stroke" d="
  M 181.06 124.78
  L 179.08 127.75
  A 0.97 0.95 -71.7 0 1 178.25 128.18
  C 175.17 128.08 171.59 127.66 168.92 129.21
  Q 168.11 129.68 160.28 134.65
  C 158.53 135.76 157.58 136.91 157.08 138.82
  Q 155.94 143.18 154.62 148.64"
/>
<path stroke="#dcbdbf" vector-effect="non-scaling-stroke" d="
  M 181.95 122.98
  Q 180.73 122.39 178.77 123.01
  Q 174.87 124.25 171.04 125.42
  A 4.01 3.99 -69.6 0 0 170.15 125.83
  Q 165.30 128.83 158.86 133.08
  Q 156.23 134.82 155.52 137.46
  Q 154.05 142.95 153.28 148.55
  A 1.64 1.63 -58.2 0 0 153.54 149.67
  Q 153.89 150.17 154.28 150.45"
/>
<path stroke="#999c9f" vector-effect="non-scaling-stroke" d="
  M 127.87 174.40
  L 125.26 168.27
  A 1.98 1.50 37.2 0 1 125.16 167.91
  L 124.44 163.49
  A 4.36 4.34 50.3 0 1 124.63 161.38
  C 126.32 156.57 129.20 153.59 132.50 149.71
  A 1.27 1.26 61.2 0 0 132.79 148.69
  L 131.95 142.93"
/>
<path stroke="#dcbdbf" vector-effect="non-scaling-stroke" d="
  M 131.71 139.01
  Q 132.21 135.27 129.94 132.77
  Q 127.94 130.59 122.38 126.60"
/>
<path stroke="#2c3139" vector-effect="non-scaling-stroke" d="
  M 134.55 97.35
  L 134.97 96.12
  A 0.87 0.87 0.0 0 1 135.36 95.63
  L 146.88 88.99
  A 2.91 2.89 4.3 0 0 147.69 88.30
  C 149.94 85.54 151.04 80.50 152.05 78.32
  Q 159.50 62.28 161.90 50.35
  Q 162.37 48.04 165.10 36.07
  A 2.25 2.20 44.5 0 0 165.08 35.01
  Q 164.75 33.83 164.18 33.01
  A 1.17 1.16 45.2 0 0 162.28 33.00
  Q 158.67 38.01 154.64 42.12
  C 151.19 45.64 148.86 49.22 145.13 52.66
  A 4.73 4.71 -3.7 0 0 144.47 53.41
  Q 142.93 55.65 139.00 59.80
  Q 137.13 61.78 136.71 65.98
  Q 135.82 74.97 135.20 83.98
  Q 134.58 92.92 134.11 95.23
  Q 133.97 95.92 134.31 97.34
  A 0.13 0.12 46.9 0 0 134.55 97.35"
/>
<path stroke="#8e9094" vector-effect="non-scaling-stroke" d="
  M 123.55 142.54
  Q 123.32 145.57 126.17 147.35
  A 0.16 0.16 0.0 0 0 126.40 147.15
  Q 124.92 143.65 125.05 140.01"
/>
<path stroke="#6f5158" vector-effect="non-scaling-stroke" d="
  M 125.05 140.01
  Q 125.66 137.46 127.18 135.51
  A 0.83 0.83 0.0 0 0 127.00 134.31
  L 125.01 132.94
  A 0.58 0.57 24.2 0 0 124.13 133.27
  Q 123.02 137.70 123.55 142.54"
/>
<path stroke="#dcbdbf" vector-effect="non-scaling-stroke" d="
  M 125.05 140.01
  Q 124.46 139.73 124.05 139.95
  A 0.45 0.44 79.8 0 0 123.80 140.32
  L 123.55 142.54"
/>
<path stroke="#8e9094" vector-effect="non-scaling-stroke" d="
  M 128.5423 137.7603
  A 1.54 1.11 -88.8 0 0 127.4002 139.2768
  A 1.54 1.11 -88.8 0 0 128.4777 140.8397
  A 1.54 1.11 -88.8 0 0 129.6198 139.3232
  A 1.54 1.11 -88.8 0 0 128.5423 137.7603"
/>
<path stroke="#8e9094" vector-effect="non-scaling-stroke" d="
  M 218.55 236.47
  C 214.14 239.80 207.54 248.51 214.22 252.76
  A 0.61 0.61 0.0 0 0 215.04 252.61
  Q 216.62 250.49 216.30 247.39
  A 0.28 0.28 0.0 0 1 216.83 247.23
  Q 219.22 251.84 216.08 255.04
  A 0.98 0.98 0.0 0 0 215.84 256.00
  Q 216.52 258.39 218.14 259.69
  A 2.31 2.28 -21.3 0 0 219.23 260.16
  Q 225.62 261.08 227.05 254.41
  A 0.45 0.44 -39.8 0 1 227.93 254.49
  Q 228.01 257.96 225.53 260.17
  A 0.53 0.53 0.0 0 0 226.04 261.08
  L 229.84 259.90
  A 4.36 4.34 4.5 0 0 232.47 257.67
  L 234.78 252.99
  A 0.22 0.22 0.0 0 1 235.20 253.11
  L 234.94 256.66
  A 0.33 0.33 0.0 0 0 235.47 256.95
  Q 238.53 254.60 238.43 250.50
  Q 238.23 241.62 234.96 234.29"
/>
<path stroke="#2c3139" vector-effect="non-scaling-stroke" d="
  M 234.96 234.29
  Q 226.89 222.57 226.83 208.18
  A 1.43 1.43 0.0 0 0 226.52 207.29
  Q 217.62 196.01 207.38 185.56
  A 3.27 3.26 -33.1 0 0 203.81 184.82
  C 198.01 187.21 193.64 196.75 196.76 202.53
  Q 197.76 204.37 201.48 207.21
  Q 203.44 208.70 209.38 213.25
  C 211.06 214.54 212.95 216.60 213.65 218.34
  Q 216.69 225.84 218.55 236.47"
/>
<path stroke="#999c9f" vector-effect="non-scaling-stroke" d="
  M 234.96 234.29
  Q 225.04 229.81 218.55 236.47"
/>
<path stroke="#8e9094" vector-effect="non-scaling-stroke" d="
  M 108.23 231.96
  C 106.02 235.98 100.81 247.72 103.31 251.97
  C 105.84 256.27 113.15 261.74 117.36 256.10
  A 0.85 0.84 49.8 0 0 117.43 255.21
  Q 115.94 252.30 114.28 250.22
  Q 113.20 248.87 111.56 250.19
  A 0.42 0.42 0.0 0 1 110.89 249.75
  Q 111.18 248.67 112.89 247.48
  A 0.89 0.88 -44.6 0 1 113.92 247.48
  C 115.98 248.96 116.56 250.23 118.39 253.16
  A 1.95 1.94 52.7 0 0 121.34 253.57
  C 124.64 250.56 123.43 246.07 122.56 242.48
  Q 122.56 242.46 122.20 239.47
  Q 121.82 236.33 118.53 234.11"
/>
<path stroke="#2c3139" vector-effect="non-scaling-stroke" d="
  M 118.53 234.11
  Q 122.35 223.31 128.22 213.16
  C 129.58 210.81 130.21 209.01 130.35 206.50
  Q 130.67 200.40 129.02 194.87"
/>
<path stroke="#6f5158" vector-effect="non-scaling-stroke" d="
  M 129.02 194.87
  Q 127.47 194.93 127.20 195.48
  Q 119.80 210.55 111.46 225.12
  C 110.22 227.28 109.27 229.69 108.23 231.96"
/>
<path stroke="#795e64" vector-effect="non-scaling-stroke" d="
  M 129.02 194.87
  L 124.29 205.52
  A 3.69 3.43 76.6 0 1 124.04 205.96
  Q 121.20 210.04 121.15 210.12
  Q 119.01 213.10 113.46 225.36
  Q 113.33 225.64 111.60 228.26
  Q 110.39 230.09 110.79 231.52"
/>
<path stroke="#dcbdbf" vector-effect="non-scaling-stroke" d="
  M 110.79 231.52
  Q 110.14 231.92 108.23 231.96"
/>
<path stroke="#999c9f" vector-effect="non-scaling-stroke" d="
  M 118.53 234.11
  Q 115.67 232.23 110.79 231.52"
/>
<path stroke="#2c3139" vector-effect="non-scaling-stroke" d="
  M 211.13 240.94
  Q 213.42 236.82 211.74 232.11
  A 0.88 0.88 0.0 0 0 210.43 231.68
  L 208.98 232.64
  A 1.11 1.10 68.3 0 0 208.50 233.76
  L 209.76 240.71
  A 0.74 0.74 0.0 0 0 211.13 240.94"
/>
<path stroke="#2c3139" vector-effect="non-scaling-stroke" d="
  M 129.52 284.46
  L 140.79 286.14
  A 1.97 1.96 -72.8 0 0 142.84 285.05
  Q 145.61 279.40 149.54 270.49
  Q 150.24 268.90 150.64 266.76
  A 0.46 0.45 -81.2 0 1 151.14 266.39
  Q 157.68 267.13 173.47 269.58
  Q 175.65 269.92 178.99 272.04
  Q 179.28 272.22 187.01 279.79
  Q 195.96 288.56 208.86 288.18
  A 1.89 1.88 -71.3 0 0 210.25 287.49
  Q 216.70 279.46 212.30 269.38
  Q 208.78 261.31 203.17 252.93
  A 1.01 1.00 70.7 0 0 202.25 252.48
  Q 193.20 253.29 186.61 255.54
  Q 178.38 258.35 175.53 258.76
  Q 164.25 260.38 153.16 257.81
  Q 151.55 257.44 142.76 254.25
  A 1.25 1.22 -19.2 0 1 142.46 254.11
  L 133.67 248.27
  A 0.66 0.66 0.0 0 0 132.71 248.54
  Q 129.75 255.12 125.28 266.79
  Q 123.41 271.68 124.04 275.00
  Q 124.56 277.72 128.73 283.96
  A 1.20 1.18 77.0 0 0 129.52 284.46"
/>
<path stroke="#8e9094" vector-effect="non-scaling-stroke" d="
  M 128.83 301.90
  Q 125.17 301.56 121.66 301.94
  C 117.99 302.34 115.99 302.43 113.49 304.52
  Q 109.12 308.18 108.29 314.38
  A 0.14 0.11 24.7 0 0 108.35 314.50
  L 108.68 314.73
  A 0.33 0.33 0.0 0 0 109.19 314.53
  C 109.94 311.35 113.39 304.88 117.09 304.76
  A 0.37 0.37 0.0 0 1 117.35 305.41
  C 114.13 308.26 110.84 311.88 111.22 316.33
  A 0.94 0.93 -81.9 0 0 111.81 317.12
  Q 114.84 318.31 117.47 318.43
  A 0.66 0.65 -84.2 0 0 118.15 317.87
  C 118.92 312.85 120.48 309.22 125.38 307.38
  A 0.33 0.33 0.0 0 1 125.72 307.94
  C 122.31 310.98 119.81 313.10 120.19 318.10
  A 0.60 0.60 0.0 0 0 120.75 318.65
  C 127.86 319.06 134.88 316.99 141.29 314.92
  A 0.89 0.88 -18.3 0 0 141.86 313.80
  L 140.39 309.49"
/>
<path stroke="#2c3139" vector-effect="non-scaling-stroke" d="
  M 140.39 309.49
  L 150.52 303.80
  A 0.89 0.88 -44.8 0 0 150.53 302.26
  Q 140.09 296.34 128.83 301.90"
/>
<path stroke="#999c9f" vector-effect="non-scaling-stroke" d="
  M 140.39 309.49
  Q 135.57 303.63 128.83 301.90"
/>
<path stroke="#8e9094" vector-effect="non-scaling-stroke" d="
  M 209.67 315.17
  C 207.38 323.48 215.65 326.56 222.29 326.72
  A 0.54 0.54 0.0 0 0 222.84 326.19
  Q 222.95 320.35 219.90 314.61
  A 0.16 0.15 49.3 0 1 219.91 314.44
  L 220.09 314.21
  A 0.25 0.25 0.0 0 1 220.49 314.21
  Q 223.66 318.42 224.16 322.80
  Q 224.57 326.41 224.59 326.48
  A 0.78 0.77 -4.4 0 0 225.25 327.04
  C 227.64 327.31 234.39 327.61 234.78 324.26
  C 235.16 320.95 232.81 315.45 230.66 312.82
  A 0.27 0.27 0.0 0 1 230.94 312.39
  C 234.34 313.34 236.29 320.58 236.20 323.35
  A 0.84 0.84 0.0 0 0 237.71 323.89
  L 239.05 322.13
  A 3.95 3.89 63.6 0 0 239.86 319.65
  C 239.75 314.33 234.88 309.98 230.49 307.59"
/>
<path stroke="#2c3139" vector-effect="non-scaling-stroke" d="
  M 230.49 307.59
  Q 228.13 302.72 224.50 301.62
  Q 222.30 300.95 215.71 301.75
  Q 212.27 302.17 209.67 304.01
  A 2.08 2.04 -14.7 0 0 208.82 305.43
  Q 208.21 310.32 209.67 315.17"
/>
<path stroke="#999c9f" vector-effect="non-scaling-stroke" d="
  M 230.49 307.59
  C 223.15 305.96 213.67 308.28 209.67 315.17"
/>
<path stroke="#dcbdbf" vector-effect="non-scaling-stroke" d="
  M 203.47 84.87
  L 209.53 83.36
  A 0.61 0.60 -78.1 0 1 210.15 84.32
  L 199.05 98.79
  A 0.48 0.47 -3.2 0 0 199.76 99.42
  L 222.97 77.37
  A 0.22 0.22 0.0 0 0 222.76 76.99
  L 216.08 78.65
  A 0.56 0.56 0.0 0 1 215.50 77.77
  L 228.87 60.35
  A 0.08 0.08 0.0 0 0 228.78 60.23
  L 222.68 62.12
  A 0.69 0.69 0.0 0 1 221.91 61.07
  L 232.07 46.26
  A 0.05 0.05 0.0 0 0 232.06 46.19
  L 231.87 46.02
  A 0.25 0.25 0.0 0 0 231.53 46.04
  Q 222.89 54.78 212.45 65.20
  Q 211.47 66.19 209.47 69.10
  A 0.30 0.30 0.0 0 0 209.84 69.54
  Q 212.91 68.09 215.12 67.92
  A 0.47 0.47 0.0 0 1 215.53 68.68
  L 203.30 84.62
  A 0.16 0.16 0.0 0 0 203.47 84.87"
/>
<path stroke="#dcbdbf" vector-effect="non-scaling-stroke" d="
  M 208.46 75.47
  A 0.20 0.20 0.0 0 0 208.82 75.63
  L 213.20 69.93
  A 0.35 0.35 0.0 0 0 212.84 69.38
  Q 210.83 69.85 209.43 71.23
  A 1.09 1.07 -17.8 0 0 209.13 71.80
  L 208.46 75.47"
/>
<path stroke="#999c9f" vector-effect="non-scaling-stroke" d="
  M 151.21 173.52
  A 0.48 0.48 0.0 0 0 150.95 172.90
  L 140.61 168.69
  A 1.23 1.23 0.0 0 1 139.99 168.10
  Q 139.10 166.23 139.00 163.20
  A 1.35 1.35 0.0 0 1 139.45 162.15
  Q 141.83 159.98 143.98 158.50
  Q 145.37 157.55 145.77 156.37
  A 1.50 1.50 0.0 0 0 144.66 154.43
  Q 138.16 153.06 131.86 154.88
  A 1.47 1.46 -16.1 0 0 130.86 156.68
  C 131.50 158.90 134.99 160.97 136.90 162.17
  A 1.66 1.66 0.0 0 1 137.64 163.27
  L 138.44 167.70
  A 1.01 1.00 70.2 0 1 137.95 168.76
  L 133.72 171.21
  A 0.26 0.25 -30.0 0 0 133.62 171.56
  L 133.78 171.83
  A 0.64 0.64 0.0 0 0 134.65 172.06
  L 138.31 169.94
  A 1.61 1.60 41.1 0 1 139.72 169.85
  L 150.65 174.30
  A 0.24 0.23 22.5 0 0 150.95 174.18
  L 151.21 173.52"
/>
<path stroke="#24547b" vector-effect="non-scaling-stroke" d="
  M 229.87 152.75
  Q 228.03 154.72 226.00 157.50
  C 224.25 159.89 222.38 161.61 219.30 162.56
  Q 211.24 165.02 202.80 168.37
  A 0.84 0.83 -17.6 0 0 202.29 169.33
  L 202.36 169.60
  A 0.22 0.22 0.0 0 0 202.64 169.77
  L 221.14 164.04
  A 0.24 0.24 0.0 0 1 221.44 164.20
  L 221.51 164.45
  A 0.41 0.41 0.0 0 1 221.27 164.96
  L 203.63 171.70
  A 0.93 0.92 -59.5 0 0 204.09 173.48
  Q 208.47 172.85 212.94 171.69
  Q 220.71 169.67 230.29 167.39
  A 5.67 5.63 -72.8 0 0 232.79 166.06
  L 251.30 148.89"
/>
<path stroke="#246b96" vector-effect="non-scaling-stroke" d="
  M 251.30 148.89
  L 279.62 143.51
  A 0.59 0.59 0.0 0 0 279.90 142.49
  Q 278.24 141.00 276.33 140.47"
/>
<path stroke="#24547b" vector-effect="non-scaling-stroke" d="
  M 276.33 140.47
  Q 274.90 138.22 272.93 137.29
  A 1.30 1.29 21.2 0 1 272.24 135.75
  L 274.63 127.91"
/>
<path stroke="#246b96" vector-effect="non-scaling-stroke" d="
  M 274.63 127.91
  L 275.98 124.55
  A 0.33 0.32 2.2 0 0 275.58 124.12
  Q 263.80 127.77 249.62 132.30
  C 248.07 132.79 245.22 133.00 243.88 134.62
  Q 240.09 139.19 229.87 152.75"
/>
<path stroke="#1182cd" vector-effect="non-scaling-stroke" d="
  M 274.63 127.91
  Q 266.89 132.03 258.90 135.45
  C 252.28 138.29 247.32 141.38 241.80 145.10
  A 0.34 0.33 -32.9 0 0 241.70 145.54
  L 241.71 145.55
  A 0.33 0.32 -27.8 0 0 242.14 145.68
  Q 246.74 143.43 248.75 143.13
  Q 262.43 141.07 276.33 140.47"
/>
<path stroke="#1182cd" vector-effect="non-scaling-stroke" d="
  M 251.30 148.89
  Q 248.79 149.17 246.63 149.64
  Q 241.13 150.84 235.59 151.83
  Q 234.80 151.97 232.77 152.66
  Q 230.98 153.27 229.87 152.75"
/>
<path stroke="#8e9094" vector-effect="non-scaling-stroke" d="
  M 174.67 139.03
  Q 175.38 142.40 174.07 145.97
  A 0.45 0.44 81.5 0 0 174.75 146.48
  L 180.43 142.13
  A 0.83 0.82 61.2 0 0 180.70 141.18
  L 179.41 137.75"
/>
<path stroke="#6f5158" vector-effect="non-scaling-stroke" d="
  M 179.41 137.75
  L 176.26 130.85
  A 1.01 1.01 0.0 0 0 175.15 130.28
  L 170.16 131.18
  A 0.13 0.13 0.0 0 0 170.11 131.42
  Q 173.97 133.84 174.67 139.03"
/>
<path stroke="#dcbdbf" vector-effect="non-scaling-stroke" d="
  M 179.41 137.75
  Q 178.14 138.29 176.00 137.93
  Q 174.67 137.70 174.67 139.03"
/>
<path stroke="#8e9094" vector-effect="non-scaling-stroke" d="
  M 157.78 147.58
  Q 162.13 148.86 166.14 148.23
  A 0.27 0.27 0.0 0 0 166.30 147.78
  Q 164.07 145.17 163.89 141.67"
/>
<path stroke="#6f5158" vector-effect="non-scaling-stroke" d="
  M 163.89 141.67
  Q 163.36 138.27 164.42 135.06
  A 0.29 0.29 0.0 0 0 163.98 134.73
  Q 157.59 139.14 157.78 147.58"
/>
<path stroke="#dcbdbf" vector-effect="non-scaling-stroke" d="
  M 163.89 141.67
  Q 162.55 141.67 161.87 142.38
  Q 159.46 144.88 157.78 147.58"
/>
<path stroke="#8e9094" vector-effect="non-scaling-stroke" d="
  M 167.8226 134.9934
  A 2.04 1.78 -93.3 0 0 166.1630 137.1325
  A 2.04 1.78 -93.3 0 0 168.0574 139.0666
  A 2.04 1.78 -93.3 0 0 169.7170 136.9275
  A 2.04 1.78 -93.3 0 0 167.8226 134.9934"
/>
<path stroke="#795e64" vector-effect="non-scaling-stroke" d="
  M 138.10 161.09
  C 138.36 161.09 138.19 161.12 138.31 161.04
  Q 141.61 158.98 143.58 156.67
  A 0.69 0.68 28.7 0 0 143.25 155.57
  Q 141.28 154.97 137.94 155.06
  Q 134.59 155.15 132.65 155.87
  A 0.69 0.68 -31.9 0 0 132.39 156.98
  Q 134.49 159.18 137.90 161.06
  C 138.02 161.12 137.85 161.10 138.10 161.09"
/>
<path stroke="#24547b" vector-effect="non-scaling-stroke" d="
  M 197.48 173.91
  A 1.07 1.04 34.7 0 0 196.65 174.05
  L 176.98 187.11
  A 0.42 0.42 0.0 0 0 177.02 187.83
  L 177.27 187.94
  A 0.67 0.67 0.0 0 0 177.87 187.90
  L 193.52 178.67
  A 2.32 1.70 -72.2 0 0 193.81 178.46
  L 198.24 174.55
  A 0.27 0.27 0.0 0 0 198.13 174.08
  L 197.48 173.91"
/>
</g>
<path fill="#21242d" d="
  M 201.21 166.18
  Q 199.73 166.49 199.53 166.74
  Q 194.34 172.14 188.51 175.17
  A 2.25 2.14 -59.5 0 1 187.78 175.38
  Q 186.79 175.47 186.76 175.48
  Q 178.69 178.12 170.87 180.18
  A 3.79 3.39 21.6 0 0 170.22 180.42
  Q 168.49 181.25 166.75 181.61
  Q 159.86 183.03 150.03 185.58
  Q 146.33 186.54 144.23 185.77
  Q 136.87 183.06 128.21 177.93
  A 0.54 0.53 -59.9 0 0 127.47 178.13
  Q 126.83 179.28 126.99 180.73
  Q 126.64 183.09 128.79 184.04
  Q 129.02 185.39 130.29 186.37
  A 0.57 0.57 0.0 0 1 129.94 187.40
  Q 129.03 187.41 129.34 188.21
  C 127.80 192.03 129.75 194.26 132.78 196.56
  L 133.37 200.46
  L 133.72 204.72
  L 133.95 210.04
  A 1.02 0.56 55.3 0 0 133.97 210.23
  Q 135.63 218.46 135.98 220.20
  C 137.52 227.69 135.22 233.89 132.99 242.31
  A 1.54 1.52 -53.0 0 0 133.14 243.46
  Q 134.27 245.45 138.18 248.04
  Q 146.36 253.47 154.82 255.05
  L 156.84 255.20
  Q 157.27 255.58 158.01 255.67
  Q 175.35 257.87 190.98 250.32
  Q 194.38 248.25 197.78 246.27
  Q 199.84 245.07 205.78 240.01
  Q 207.45 238.59 206.30 236.44
  C 203.00 230.21 199.96 222.29 199.92 215.06
  A 0.46 0.46 0.0 0 0 199.10 214.77
  Q 196.57 217.90 193.17 215.30
  C 189.38 212.40 188.11 208.62 187.46 204.30
  C 187.24 197.83 188.83 192.68 193.23 187.87
  C 196.60 184.19 199.59 181.02 204.84 180.70
  L 209.80 182.27
  A 1.00 0.97 72.4 0 1 210.06 182.41
  Q 211.58 183.48 214.17 184.37
  Q 221.76 186.99 237.63 192.71
  A 1.60 1.58 -45.3 0 0 238.71 192.70
  L 264.93 182.69
  Q 265.49 183.20 265.54 184.22
  Q 252.54 189.25 239.48 194.29
  Q 238.93 194.50 236.99 194.25
  Q 235.85 194.10 234.57 193.62
  Q 227.58 191.00 214.21 186.54
  Q 212.76 186.06 211.24 185.20
  A 0.40 0.40 0.0 0 0 210.75 185.82
  Q 211.68 186.84 228.35 205.65
  Q 230.17 207.69 230.90 209.86
  Q 233.68 218.02 234.83 222.55
  Q 237.27 232.09 237.73 233.79
  Q 240.12 242.49 240.42 250.31
  Q 240.59 254.67 237.53 257.44
  Q 233.46 261.14 228.88 262.17
  A 2.92 2.80 -68.4 0 0 227.83 262.65
  Q 227.79 262.68 227.62 262.83
  A 0.39 0.36 -64.3 0 1 227.37 262.93
  L 220.32 262.93
  A 0.48 0.48 0.0 0 0 219.86 263.54
  Q 220.67 266.25 221.45 268.86
  C 222.88 273.67 222.66 280.63 221.79 285.15
  Q 220.96 289.47 221.02 291.35
  A 2.36 2.35 -64.2 0 0 221.49 292.70
  Q 228.66 302.10 236.17 308.76
  C 240.02 312.18 242.12 315.64 242.01 320.46
  C 241.94 323.33 237.54 325.90 235.01 327.53
  C 231.29 329.92 227.12 329.15 221.83 328.88
  C 216.63 328.62 212.27 326.80 209.04 323.46
  Q 207.90 322.27 207.37 318.93
  Q 206.10 310.86 201.82 297.67
  A 2.39 2.38 89.7 0 0 200.28 296.14
  Q 190.41 293.04 183.25 284.74
  Q 182.32 283.67 176.50 277.72
  A 2.31 2.29 74.8 0 0 175.43 277.10
  L 171.06 275.97
  A 1.65 1.65 0.0 0 0 169.62 276.29
  Q 164.01 280.87 161.25 286.97
  A 2.33 2.19 59.1 0 0 161.04 287.93
  L 161.04 291.64
  A 5.04 4.94 -54.3 0 0 161.27 293.14
  Q 163.16 299.30 164.26 304.78
  C 165.18 309.36 162.73 309.64 158.73 311.07
  Q 139.91 317.79 131.76 319.78
  Q 125.26 321.36 115.31 320.13
  C 112.45 319.78 109.34 318.16 107.17 316.34
  A 2.90 2.89 24.5 0 1 106.17 313.68
  Q 107.55 304.72 115.41 300.76
  A 4.66 4.51 -61.9 0 1 116.75 300.33
  Q 122.76 299.32 129.52 299.11
  A 1.21 1.03 -49.7 0 0 129.88 299.05
  L 139.44 296.19
  A 0.59 0.59 0.0 0 0 139.50 295.08
  Q 126.99 289.81 122.42 276.57
  Q 121.15 272.91 122.20 269.37
  Q 125.72 257.60 131.73 246.30
  A 0.96 0.96 0.0 0 0 131.68 245.33
  Q 130.59 243.70 131.22 241.24
  Q 133.29 233.14 134.31 227.71
  A 0.75 0.75 0.0 0 0 132.96 227.15
  L 124.11 240.05
  A 0.70 0.69 -38.4 0 0 124.03 240.71
  L 125.78 245.07
  A 2.21 1.92 34.7 0 1 125.93 245.66
  Q 126.80 253.08 120.87 256.01
  Q 119.22 256.83 118.18 258.06
  C 116.50 260.06 113.27 261.43 110.57 260.26
  C 105.27 257.97 100.57 254.51 100.53 248.51
  Q 100.53 248.47 100.53 248.43
  L 101.18 244.22
  Q 101.19 244.17 101.20 244.12
  Q 104.14 234.75 106.32 230.54
  C 109.33 224.73 112.32 218.49 115.01 213.86
  Q 120.10 205.11 126.06 193.42
  A 4.95 4.85 61.4 0 0 126.58 191.59
  Q 126.79 188.95 127.47 187.46
  A 1.19 1.17 -51.6 0 0 127.34 186.25
  L 125.13 183.37
  A 0.55 0.34 31.7 0 1 125.07 183.25
  Q 124.15 179.73 125.82 176.73
  A 0.53 0.53 0.0 0 0 125.70 176.07
  Q 123.42 174.11 121.91 172.81
  Q 117.59 169.08 113.88 163.16
  A 1.37 1.34 34.5 0 1 113.70 162.24
  Q 113.90 161.13 114.46 160.18
  Q 115.47 159.63 114.92 158.21
  Q 114.97 157.57 114.70 157.26
  Q 114.48 157.00 113.78 157.04
  Q 112.66 157.10 111.89 156.84
  A 0.61 0.60 -70.0 0 1 111.52 156.04
  Q 112.80 152.91 113.07 152.56
  Q 117.84 146.23 120.71 141.87
  A 0.96 0.95 62.1 0 0 120.87 141.34
  L 120.87 126.42
  A 1.23 1.20 -28.4 0 1 121.08 125.74
  Q 125.86 118.79 129.55 114.05
  Q 131.73 111.26 133.94 109.19
  A 0.64 0.64 0.0 0 0 133.48 108.09
  Q 131.18 108.19 128.60 106.78
  A 0.42 0.41 -31.4 0 1 128.79 106.00
  Q 130.78 105.94 131.71 105.04
  A 1.24 1.19 -21.1 0 0 132.08 104.25
  L 135.21 62.92
  A 1.80 1.74 62.5 0 1 135.42 62.21
  C 136.92 59.42 139.08 57.69 141.22 55.21
  Q 151.45 43.36 168.03 25.03
  Q 170.04 22.80 173.20 19.91
  A 0.86 0.86 0.0 0 1 174.62 20.36
  Q 174.71 20.77 174.56 21.29
  Q 173.48 24.90 173.65 28.02
  Q 173.68 28.60 173.38 29.46
  Q 173.25 29.86 173.09 30.90
  Q 172.66 33.86 170.87 42.87
  Q 168.64 54.06 166.40 65.13
  Q 164.67 73.68 162.11 79.49
  Q 159.58 85.23 155.47 93.52
  A 0.96 0.96 0.0 0 0 156.25 94.90
  Q 159.72 95.20 167.19 96.34
  Q 172.28 97.11 176.41 98.95
  A 1.88 1.88 0.0 0 0 178.83 98.12
  L 187.49 82.01
  Q 187.99 81.98 188.05 81.50
  Q 188.08 81.22 187.83 81.21
  L 188.48 80.03
  Q 189.21 79.85 188.95 79.01
  L 201.61 55.46
  A 7.59 7.57 -4.7 0 1 203.67 53.04
  L 249.05 18.30
  A 1.15 1.14 34.8 0 1 250.09 18.12
  Q 251.15 18.47 250.24 19.66
  Q 250.10 19.84 249.98 20.50
  Q 249.01 25.90 246.82 33.87
  Q 245.77 37.71 241.60 51.92
  Q 236.75 68.46 230.50 82.51
  A 0.95 0.94 -7.9 0 1 230.24 82.85
  L 197.71 111.08
  A 1.66 1.66 0.0 0 0 197.25 112.92
  Q 200.10 120.44 201.00 123.14
  Q 202.35 127.21 202.98 129.53
  Q 204.16 133.83 204.37 134.64
  A 8.11 8.08 -73.3 0 0 205.79 137.29
  L 212.94 146.16
  A 0.49 0.49 0.0 0 1 212.56 146.96
  L 210.40 146.96
  A 0.37 0.36 62.0 0 0 210.20 147.63
  L 211.96 148.84
  A 0.40 0.40 0.0 0 1 211.93 149.52
  L 208.18 151.57
  A 0.61 0.38 -5.2 0 0 208.06 151.66
  Q 207.08 152.51 210.14 154.51
  A 0.77 0.76 40.4 0 1 210.24 155.71
  Q 205.54 160.01 201.39 164.81
  Q 200.69 165.61 201.21 166.18
  Z
  M 190.34 108.61
  Q 192.21 106.62 193.00 105.99
  Q 219.04 85.37 225.20 80.63
  A 3.79 3.61 -4.2 0 0 226.05 79.69
  Q 228.39 75.84 229.68 72.43
  Q 235.99 55.62 241.40 37.73
  C 242.08 35.50 242.19 33.40 242.79 31.19
  A 0.39 0.39 0.0 0 0 242.14 30.80
  L 210.12 61.22
  A 5.57 5.46 82.0 0 0 209.00 62.74
  C 207.12 66.54 204.89 69.44 203.23 73.18
  Q 198.05 84.88 194.06 95.27
  Q 191.37 102.26 189.98 108.42
  A 0.21 0.21 0.0 0 0 190.34 108.61
  Z
  M 176.53 101.87
  Q 177.43 101.51 176.67 100.74
  A 1.21 1.19 -12.9 0 0 176.20 100.45
  Q 170.81 98.62 165.21 97.82
  Q 155.79 96.48 148.26 95.25
  A 0.26 0.26 0.0 0 0 148.03 95.69
  L 151.75 99.60
  A 0.67 0.67 0.0 0 1 151.42 100.71
  L 136.41 104.45
  A 0.49 0.49 0.0 0 0 136.56 105.41
  Q 137.79 105.34 139.84 106.28
  A 0.53 0.53 0.0 0 1 140.05 107.07
  C 139.54 107.76 137.55 108.64 136.56 109.75
  Q 134.07 112.55 131.55 114.54
  A 0.41 0.41 0.0 0 0 131.87 115.27
  L 140.22 113.75
  A 0.38 0.37 -2.4 0 1 140.66 114.15
  L 140.17 120.55
  A 0.27 0.26 -14.4 0 0 140.58 120.79
  L 147.68 116.07
  A 0.50 0.50 0.0 0 1 148.45 116.44
  L 148.58 117.80
  Q 148.65 118.05 149.42 118.13
  A 0.27 0.27 0.0 0 1 149.54 118.63
  L 149.01 118.99
  A 0.70 0.69 54.3 0 1 148.07 118.83
  Q 147.32 117.86 145.39 118.93
  Q 144.95 119.18 139.22 123.76
  A 0.54 0.54 0.0 0 1 138.35 123.29
  L 138.95 115.30
  A 0.14 0.14 0.0 0 0 138.79 115.15
  L 131.72 116.43
  A 4.98 4.97 12.7 0 0 128.58 118.41
  L 125.10 123.21
  L 122.38 126.60
  Q 122.18 127.59 122.50 128.86
  A 1.08 1.07 -84.0 0 0 123.07 129.57
  Q 129.04 132.59 131.71 139.01
  L 131.95 142.93
  L 131.72 148.73
  A 0.99 0.98 -5.0 0 1 130.94 149.65
  Q 127.23 150.43 124.48 147.75
  C 123.02 146.32 122.19 145.63 122.01 143.77
  A 0.28 0.27 55.5 0 0 121.49 143.67
  Q 120.24 146.16 117.19 149.48
  A 1.21 0.96 -12.0 0 0 117.05 149.65
  L 113.45 155.20
  A 0.44 0.43 -78.5 0 0 113.89 155.87
  L 116.20 155.45
  A 0.91 0.91 0.0 0 1 117.23 156.64
  L 115.37 162.16
  A 0.85 0.84 -55.9 0 0 115.52 162.97
  Q 117.27 165.10 119.24 168.26
  Q 121.71 172.25 127.87 174.40
  Q 136.18 180.44 145.18 183.80
  A 5.75 5.75 0.0 0 0 148.65 183.96
  Q 154.99 182.23 159.85 181.27
  C 164.24 180.41 166.66 176.88 168.58 173.27
  C 177.51 170.95 184.74 169.64 190.16 163.13
  Q 194.18 158.31 196.04 155.25
  A 0.90 0.86 -78.5 0 1 196.63 154.84
  L 202.02 153.87
  A 0.23 0.23 0.0 0 0 202.14 153.49
  L 198.32 149.47
  A 0.74 0.74 0.0 0 1 198.76 148.23
  Q 199.63 148.12 200.23 147.76
  A 0.48 0.48 0.0 0 0 200.20 146.91
  L 193.01 143.36
  A 0.73 0.72 14.4 0 1 192.60 142.68
  Q 192.90 132.31 191.30 125.75
  Q 189.99 120.41 188.41 113.12
  C 187.48 108.83 189.46 104.44 190.22 101.56
  Q 191.44 96.92 192.51 94.93
  Q 193.30 93.46 198.11 80.33
  Q 200.68 73.30 206.57 63.57
  Q 208.75 59.99 212.32 56.72
  Q 221.38 48.43 230.62 38.62
  Q 231.81 37.36 237.86 32.96
  A 0.80 0.80 0.0 0 0 237.64 31.56
  L 236.54 31.19
  A 3.02 3.02 0.0 0 0 233.68 31.70
  Q 227.67 36.57 222.43 40.92
  C 217.54 44.96 211.01 49.31 205.36 53.64
  Q 203.49 55.08 202.71 56.82
  Q 202.43 57.45 202.28 57.72
  Q 188.44 83.34 178.73 101.97
  Q 177.76 103.81 176.02 105.14
  A 0.25 0.25 0.0 0 1 175.62 104.93
  Q 175.76 102.72 176.53 101.87
  Z
  M 134.55 97.35
  L 134.97 96.12
  A 0.87 0.87 0.0 0 1 135.36 95.63
  L 146.88 88.99
  A 2.91 2.89 4.3 0 0 147.69 88.30
  C 149.94 85.54 151.04 80.50 152.05 78.32
  Q 159.50 62.28 161.90 50.35
  Q 162.37 48.04 165.10 36.07
  A 2.25 2.20 44.5 0 0 165.08 35.01
  Q 164.75 33.83 164.18 33.01
  A 1.17 1.16 45.2 0 0 162.28 33.00
  Q 158.67 38.01 154.64 42.12
  C 151.19 45.64 148.86 49.22 145.13 52.66
  A 4.73 4.71 -3.7 0 0 144.47 53.41
  Q 142.93 55.65 139.00 59.80
  Q 137.13 61.78 136.71 65.98
  Q 135.82 74.97 135.20 83.98
  Q 134.58 92.92 134.11 95.23
  Q 133.97 95.92 134.31 97.34
  A 0.13 0.12 46.9 0 0 134.55 97.35
  Z
  M 123.55 142.54
  Q 123.32 145.57 126.17 147.35
  A 0.16 0.16 0.0 0 0 126.40 147.15
  Q 124.92 143.65 125.05 140.01
  Q 125.66 137.46 127.18 135.51
  A 0.83 0.83 0.0 0 0 127.00 134.31
  L 125.01 132.94
  A 0.58 0.57 24.2 0 0 124.13 133.27
  Q 123.02 137.70 123.55 142.54
  Z
  M 128.5423 137.7603
  A 1.54 1.11 -88.8 0 0 127.4002 139.2768
  A 1.54 1.11 -88.8 0 0 128.4777 140.8397
  A 1.54 1.11 -88.8 0 0 129.6198 139.3232
  A 1.54 1.11 -88.8 0 0 128.5423 137.7603
  Z
  M 218.55 236.47
  C 214.14 239.80 207.54 248.51 214.22 252.76
  A 0.61 0.61 0.0 0 0 215.04 252.61
  Q 216.62 250.49 216.30 247.39
  A 0.28 0.28 0.0 0 1 216.83 247.23
  Q 219.22 251.84 216.08 255.04
  A 0.98 0.98 0.0 0 0 215.84 256.00
  Q 216.52 258.39 218.14 259.69
  A 2.31 2.28 -21.3 0 0 219.23 260.16
  Q 225.62 261.08 227.05 254.41
  A 0.45 0.44 -39.8 0 1 227.93 254.49
  Q 228.01 257.96 225.53 260.17
  A 0.53 0.53 0.0 0 0 226.04 261.08
  L 229.84 259.90
  A 4.36 4.34 4.5 0 0 232.47 257.67
  L 234.78 252.99
  A 0.22 0.22 0.0 0 1 235.20 253.11
  L 234.94 256.66
  A 0.33 0.33 0.0 0 0 235.47 256.95
  Q 238.53 254.60 238.43 250.50
  Q 238.23 241.62 234.96 234.29
  Q 226.89 222.57 226.83 208.18
  A 1.43 1.43 0.0 0 0 226.52 207.29
  Q 217.62 196.01 207.38 185.56
  A 3.27 3.26 -33.1 0 0 203.81 184.82
  C 198.01 187.21 193.64 196.75 196.76 202.53
  Q 197.76 204.37 201.48 207.21
  Q 203.44 208.70 209.38 213.25
  C 211.06 214.54 212.95 216.60 213.65 218.34
  Q 216.69 225.84 218.55 236.47
  Z
  M 108.23 231.96
  C 106.02 235.98 100.81 247.72 103.31 251.97
  C 105.84 256.27 113.15 261.74 117.36 256.10
  A 0.85 0.84 49.8 0 0 117.43 255.21
  Q 115.94 252.30 114.28 250.22
  Q 113.20 248.87 111.56 250.19
  A 0.42 0.42 0.0 0 1 110.89 249.75
  Q 111.18 248.67 112.89 247.48
  A 0.89 0.88 -44.6 0 1 113.92 247.48
  C 115.98 248.96 116.56 250.23 118.39 253.16
  A 1.95 1.94 52.7 0 0 121.34 253.57
  C 124.64 250.56 123.43 246.07 122.56 242.48
  Q 122.56 242.46 122.20 239.47
  Q 121.82 236.33 118.53 234.11
  Q 122.35 223.31 128.22 213.16
  C 129.58 210.81 130.21 209.01 130.35 206.50
  Q 130.67 200.40 129.02 194.87
  Q 127.47 194.93 127.20 195.48
  Q 119.80 210.55 111.46 225.12
  C 110.22 227.28 109.27 229.69 108.23 231.96
  Z
  M 210.48 228.49
  A 0.78 0.78 0.0 0 0 210.81 227.52
  L 207.66 219.74
  A 1.03 0.97 9.5 0 0 207.34 219.32
  L 203.12 216.09
  A 0.45 0.45 0.0 0 0 202.39 216.48
  Q 202.89 223.85 206.15 230.33
  A 0.55 0.55 0.0 0 0 206.91 230.56
  L 210.48 228.49
  Z
  M 211.13 240.94
  Q 213.42 236.82 211.74 232.11
  A 0.88 0.88 0.0 0 0 210.43 231.68
  L 208.98 232.64
  A 1.11 1.10 68.3 0 0 208.50 233.76
  L 209.76 240.71
  A 0.74 0.74 0.0 0 0 211.13 240.94
  Z
  M 129.52 284.46
  L 140.79 286.14
  A 1.97 1.96 -72.8 0 0 142.84 285.05
  Q 145.61 279.40 149.54 270.49
  Q 150.24 268.90 150.64 266.76
  A 0.46 0.45 -81.2 0 1 151.14 266.39
  Q 157.68 267.13 173.47 269.58
  Q 175.65 269.92 178.99 272.04
  Q 179.28 272.22 187.01 279.79
  Q 195.96 288.56 208.86 288.18
  A 1.89 1.88 -71.3 0 0 210.25 287.49
  Q 216.70 279.46 212.30 269.38
  Q 208.78 261.31 203.17 252.93
  A 1.01 1.00 70.7 0 0 202.25 252.48
  Q 193.20 253.29 186.61 255.54
  Q 178.38 258.35 175.53 258.76
  Q 164.25 260.38 153.16 257.81
  Q 151.55 257.44 142.76 254.25
  A 1.25 1.22 -19.2 0 1 142.46 254.11
  L 133.67 248.27
  A 0.66 0.66 0.0 0 0 132.71 248.54
  Q 129.75 255.12 125.28 266.79
  Q 123.41 271.68 124.04 275.00
  Q 124.56 277.72 128.73 283.96
  A 1.20 1.18 77.0 0 0 129.52 284.46
  Z
  M 128.83 301.90
  Q 125.17 301.56 121.66 301.94
  C 117.99 302.34 115.99 302.43 113.49 304.52
  Q 109.12 308.18 108.29 314.38
  A 0.14 0.11 24.7 0 0 108.35 314.50
  L 108.68 314.73
  A 0.33 0.33 0.0 0 0 109.19 314.53
  C 109.94 311.35 113.39 304.88 117.09 304.76
  A 0.37 0.37 0.0 0 1 117.35 305.41
  C 114.13 308.26 110.84 311.88 111.22 316.33
  A 0.94 0.93 -81.9 0 0 111.81 317.12
  Q 114.84 318.31 117.47 318.43
  A 0.66 0.65 -84.2 0 0 118.15 317.87
  C 118.92 312.85 120.48 309.22 125.38 307.38
  A 0.33 0.33 0.0 0 1 125.72 307.94
  C 122.31 310.98 119.81 313.10 120.19 318.10
  A 0.60 0.60 0.0 0 0 120.75 318.65
  C 127.86 319.06 134.88 316.99 141.29 314.92
  A 0.89 0.88 -18.3 0 0 141.86 313.80
  L 140.39 309.49
  L 150.52 303.80
  A 0.89 0.88 -44.8 0 0 150.53 302.26
  Q 140.09 296.34 128.83 301.90
  Z
  M 209.67 315.17
  C 207.38 323.48 215.65 326.56 222.29 326.72
  A 0.54 0.54 0.0 0 0 222.84 326.19
  Q 222.95 320.35 219.90 314.61
  A 0.16 0.15 49.3 0 1 219.91 314.44
  L 220.09 314.21
  A 0.25 0.25 0.0 0 1 220.49 314.21
  Q 223.66 318.42 224.16 322.80
  Q 224.57 326.41 224.59 326.48
  A 0.78 0.77 -4.4 0 0 225.25 327.04
  C 227.64 327.31 234.39 327.61 234.78 324.26
  C 235.16 320.95 232.81 315.45 230.66 312.82
  A 0.27 0.27 0.0 0 1 230.94 312.39
  C 234.34 313.34 236.29 320.58 236.20 323.35
  A 0.84 0.84 0.0 0 0 237.71 323.89
  L 239.05 322.13
  A 3.95 3.89 63.6 0 0 239.86 319.65
  C 239.75 314.33 234.88 309.98 230.49 307.59
  Q 228.13 302.72 224.50 301.62
  Q 222.30 300.95 215.71 301.75
  Q 212.27 302.17 209.67 304.01
  A 2.08 2.04 -14.7 0 0 208.82 305.43
  Q 208.21 310.32 209.67 315.17
  Z"
/>
<path fill="#bc7e83" d="
  M 190.34 108.61
  A 0.21 0.21 0.0 0 1 189.98 108.42
  Q 191.37 102.26 194.06 95.27
  Q 198.05 84.88 203.23 73.18
  C 204.89 69.44 207.12 66.54 209.00 62.74
  A 5.57 5.46 82.0 0 1 210.12 61.22
  L 242.14 30.80
  A 0.39 0.39 0.0 0 1 242.79 31.19
  C 242.19 33.40 242.08 35.50 241.40 37.73
  Q 235.99 55.62 229.68 72.43
  Q 228.39 75.84 226.05 79.69
  A 3.79 3.61 -4.2 0 1 225.20 80.63
  Q 219.04 85.37 193.00 105.99
  Q 192.21 106.62 190.34 108.61
  Z
  M 203.47 84.87
  L 209.53 83.36
  A 0.61 0.60 -78.1 0 1 210.15 84.32
  L 199.05 98.79
  A 0.48 0.47 -3.2 0 0 199.76 99.42
  L 222.97 77.37
  A 0.22 0.22 0.0 0 0 222.76 76.99
  L 216.08 78.65
  A 0.56 0.56 0.0 0 1 215.50 77.77
  L 228.87 60.35
  A 0.08 0.08 0.0 0 0 228.78 60.23
  L 222.68 62.12
  A 0.69 0.69 0.0 0 1 221.91 61.07
  L 232.07 46.26
  A 0.05 0.05 0.0 0 0 232.06 46.19
  L 231.87 46.02
  A 0.25 0.25 0.0 0 0 231.53 46.04
  Q 222.89 54.78 212.45 65.20
  Q 211.47 66.19 209.47 69.10
  A 0.30 0.30 0.0 0 0 209.84 69.54
  Q 212.91 68.09 215.12 67.92
  A 0.47 0.47 0.0 0 1 215.53 68.68
  L 203.30 84.62
  A 0.16 0.16 0.0 0 0 203.47 84.87
  Z
  M 208.46 75.47
  A 0.20 0.20 0.0 0 0 208.82 75.63
  L 213.20 69.93
  A 0.35 0.35 0.0 0 0 212.84 69.38
  Q 210.83 69.85 209.43 71.23
  A 1.09 1.07 -17.8 0 0 209.13 71.80
  L 208.46 75.47
  Z"
/>
<path fill="#363d44" d="
  M 168.58 173.27
  C 169.89 168.35 167.97 163.32 165.82 159.10
  A 6.66 6.66 0.0 0 0 163.59 156.60
  L 154.28 150.45
  Q 154.09 148.66 154.62 148.64
  Q 158.87 149.71 163.50 149.85
  Q 169.71 150.04 174.31 148.47
  C 177.02 147.54 181.79 144.51 182.29 141.37
  Q 183.29 135.17 181.39 128.90
  Q 181.10 127.93 181.84 125.42
  A 0.47 0.47 0.0 0 0 181.44 124.82
  L 181.06 124.78
  L 181.95 122.98
  L 182.23 122.82
  A 0.56 0.55 -52.5 0 0 182.10 121.80
  L 173.58 119.59
  A 1.38 1.36 -51.5 0 0 172.60 119.71
  L 165.30 123.50
  A 2.66 2.47 -81.7 0 0 164.53 124.12
  Q 163.78 124.94 160.05 127.56
  C 157.23 129.54 153.64 133.11 152.87 137.18
  Q 151.90 142.33 150.83 147.00
  A 1.35 1.35 0.0 0 1 149.18 148.01
  Q 141.26 145.95 134.48 148.57
  A 0.47 0.47 0.0 0 1 133.84 148.13
  Q 133.86 145.05 132.98 142.14
  A 3.53 3.36 -54.9 0 1 132.83 141.13
  L 132.83 134.54
  A 6.39 6.34 -65.6 0 0 131.28 130.37
  L 125.10 123.21
  L 128.58 118.41
  A 4.98 4.97 12.7 0 1 131.72 116.43
  L 138.79 115.15
  A 0.14 0.14 0.0 0 1 138.95 115.30
  L 138.35 123.29
  A 0.54 0.54 0.0 0 0 139.22 123.76
  Q 144.95 119.18 145.39 118.93
  Q 147.32 117.86 148.07 118.83
  A 0.70 0.69 54.3 0 0 149.01 118.99
  L 149.54 118.63
  A 0.27 0.27 0.0 0 0 149.42 118.13
  Q 148.65 118.05 148.58 117.80
  L 155.14 114.37
  A 0.46 0.46 0.0 0 0 154.76 113.53
  L 151.96 114.60
  A 0.58 0.58 0.0 0 1 151.26 114.36
  Q 150.89 113.77 151.39 113.15
  A 0.47 0.47 0.0 0 0 150.76 112.47
  L 143.17 117.50
  A 0.23 0.23 0.0 0 1 142.82 117.29
  L 143.24 111.69
  A 0.23 0.23 0.0 0 0 142.96 111.45
  L 139.10 112.42
  A 0.73 0.73 0.0 0 1 138.26 111.41
  C 139.13 109.47 142.48 107.93 143.97 106.80
  A 0.51 0.51 0.0 0 0 143.78 105.90
  L 141.46 105.30
  A 0.58 0.58 0.0 0 1 141.54 104.17
  L 146.28 103.62
  A 1.78 1.72 31.9 0 0 146.65 103.54
  Q 151.71 102.01 155.48 101.77
  A 0.29 0.29 0.0 0 0 155.64 101.25
  Q 154.68 100.49 152.67 98.01
  Q 152.52 97.82 152.11 97.75
  Q 151.71 97.67 151.54 97.51
  A 0.33 0.33 0.0 0 1 151.82 96.94
  Q 164.39 99.25 171.00 100.34
  Q 173.50 100.75 176.53 101.87
  Q 175.76 102.72 175.62 104.93
  A 0.25 0.25 0.0 0 0 176.02 105.14
  Q 177.76 103.81 178.73 101.97
  Q 188.44 83.34 202.28 57.72
  Q 202.43 57.45 202.71 56.82
  Q 203.49 55.08 205.36 53.64
  C 211.01 49.31 217.54 44.96 222.43 40.92
  Q 227.67 36.57 233.68 31.70
  A 3.02 3.02 0.0 0 1 236.54 31.19
  L 237.64 31.56
  A 0.80 0.80 0.0 0 1 237.86 32.96
  Q 231.81 37.36 230.62 38.62
  Q 221.38 48.43 212.32 56.72
  Q 208.75 59.99 206.57 63.57
  Q 200.68 73.30 198.11 80.33
  Q 193.30 93.46 192.51 94.93
  Q 191.44 96.92 190.22 101.56
  C 189.46 104.44 187.48 108.83 188.41 113.12
  Q 189.99 120.41 191.30 125.75
  Q 192.90 132.31 192.60 142.68
  A 0.73 0.72 14.4 0 0 193.01 143.36
  L 200.20 146.91
  A 0.48 0.48 0.0 0 1 200.23 147.76
  Q 199.63 148.12 198.76 148.23
  A 0.74 0.74 0.0 0 0 198.32 149.47
  L 202.14 153.49
  A 0.23 0.23 0.0 0 1 202.02 153.87
  L 196.63 154.84
  A 0.90 0.86 -78.5 0 0 196.04 155.25
  Q 194.18 158.31 190.16 163.13
  C 184.74 169.64 177.51 170.95 168.58 173.27
  Z"
/>
<path fill="#363d44" d="
  M 134.31 97.34
  Q 133.97 95.92 134.11 95.23
  Q 134.58 92.92 135.20 83.98
  Q 135.82 74.97 136.71 65.98
  Q 137.13 61.78 139.00 59.80
  Q 142.93 55.65 144.47 53.41
  A 4.73 4.71 -3.7 0 1 145.13 52.66
  C 148.86 49.22 151.19 45.64 154.64 42.12
  Q 158.67 38.01 162.28 33.00
  A 1.17 1.16 45.2 0 1 164.18 33.01
  Q 164.75 33.83 165.08 35.01
  A 2.25 2.20 44.5 0 1 165.10 36.07
  Q 162.37 48.04 161.90 50.35
  Q 159.50 62.28 152.05 78.32
  C 151.04 80.50 149.94 85.54 147.69 88.30
  A 2.91 2.89 4.3 0 1 146.88 88.99
  L 135.36 95.63
  A 0.87 0.87 0.0 0 0 134.97 96.12
  L 134.55 97.35
  A 0.13 0.12 46.9 0 1 134.31 97.34
  Z"
/>
<path fill="#fbfbfa" d="
  M 203.47 84.87
  A 0.16 0.16 0.0 0 1 203.30 84.62
  L 215.53 68.68
  A 0.47 0.47 0.0 0 0 215.12 67.92
  Q 212.91 68.09 209.84 69.54
  A 0.30 0.30 0.0 0 1 209.47 69.10
  Q 211.47 66.19 212.45 65.20
  Q 222.89 54.78 231.53 46.04
  A 0.25 0.25 0.0 0 1 231.87 46.02
  L 232.06 46.19
  A 0.05 0.05 0.0 0 1 232.07 46.26
  L 221.91 61.07
  A 0.69 0.69 0.0 0 0 222.68 62.12
  L 228.78 60.23
  A 0.08 0.08 0.0 0 1 228.87 60.35
  L 215.50 77.77
  A 0.56 0.56 0.0 0 0 216.08 78.65
  L 222.76 76.99
  A 0.22 0.22 0.0 0 1 222.97 77.37
  L 199.76 99.42
  A 0.48 0.47 -3.2 0 1 199.05 98.79
  L 210.15 84.32
  A 0.61 0.60 -78.1 0 0 209.53 83.36
  L 203.47 84.87
  Z"
/>
<path fill="#fbfbfa" d="
  M 208.46 75.47
  L 209.13 71.80
  A 1.09 1.07 -17.8 0 1 209.43 71.23
  Q 210.83 69.85 212.84 69.38
  A 0.35 0.35 0.0 0 1 213.20 69.93
  L 208.82 75.63
  A 0.20 0.20 0.0 0 1 208.46 75.47
  Z"
/>
<path fill="#363d44" d="
  M 188.95 79.01
  Q 189.21 79.85 188.48 80.03
  Q 188.61 79.47 188.95 79.01
  Z"
/>
<path fill="#363d44" d="
  M 187.49 82.01
  L 187.83 81.21
  Q 188.08 81.22 188.05 81.50
  Q 187.99 81.98 187.49 82.01
  Z"
/>
<path fill="#bc7e83" d="
  M 176.53 101.87
  Q 173.50 100.75 171.00 100.34
  Q 164.39 99.25 151.82 96.94
  A 0.33 0.33 0.0 0 0 151.54 97.51
  Q 151.71 97.67 152.11 97.75
  Q 152.52 97.82 152.67 98.01
  Q 154.68 100.49 155.64 101.25
  A 0.29 0.29 0.0 0 1 155.48 101.77
  Q 151.71 102.01 146.65 103.54
  A 1.78 1.72 31.9 0 1 146.28 103.62
  L 141.54 104.17
  A 0.58 0.58 0.0 0 0 141.46 105.30
  L 143.78 105.90
  A 0.51 0.51 0.0 0 1 143.97 106.80
  C 142.48 107.93 139.13 109.47 138.26 111.41
  A 0.73 0.73 0.0 0 0 139.10 112.42
  L 142.96 111.45
  A 0.23 0.23 0.0 0 1 143.24 111.69
  L 142.82 117.29
  A 0.23 0.23 0.0 0 0 143.17 117.50
  L 150.76 112.47
  A 0.47 0.47 0.0 0 1 151.39 113.15
  Q 150.89 113.77 151.26 114.36
  A 0.58 0.58 0.0 0 0 151.96 114.60
  L 154.76 113.53
  A 0.46 0.46 0.0 0 1 155.14 114.37
  L 148.58 117.80
  L 148.45 116.44
  A 0.50 0.50 0.0 0 0 147.68 116.07
  L 140.58 120.79
  A 0.27 0.26 -14.4 0 1 140.17 120.55
  L 140.66 114.15
  A 0.38 0.37 -2.4 0 0 140.22 113.75
  L 131.87 115.27
  A 0.41 0.41 0.0 0 1 131.55 114.54
  Q 134.07 112.55 136.56 109.75
  C 137.55 108.64 139.54 107.76 140.05 107.07
  A 0.53 0.53 0.0 0 0 139.84 106.28
  Q 137.79 105.34 136.56 105.41
  A 0.49 0.49 0.0 0 1 136.41 104.45
  L 151.42 100.71
  A 0.67 0.67 0.0 0 0 151.75 99.60
  L 148.03 95.69
  A 0.26 0.26 0.0 0 1 148.26 95.25
  Q 155.79 96.48 165.21 97.82
  Q 170.81 98.62 176.20 100.45
  A 1.21 1.19 -12.9 0 1 176.67 100.74
  Q 177.43 101.51 176.53 101.87
  Z"
/>
<path fill="#fbfbfa" d="
  M 181.95 122.98
  Q 180.73 122.39 178.77 123.01
  Q 174.87 124.25 171.04 125.42
  A 4.01 3.99 -69.6 0 0 170.15 125.83
  Q 165.30 128.83 158.86 133.08
  Q 156.23 134.82 155.52 137.46
  Q 154.05 142.95 153.28 148.55
  A 1.64 1.63 -58.2 0 0 153.54 149.67
  Q 153.89 150.17 154.28 150.45
  L 163.59 156.60
  A 6.66 6.66 0.0 0 1 165.82 159.10
  C 167.97 163.32 169.89 168.35 168.58 173.27
  C 166.66 176.88 164.24 180.41 159.85 181.27
  Q 154.99 182.23 148.65 183.96
  A 5.75 5.75 0.0 0 1 145.18 183.80
  Q 136.18 180.44 127.87 174.40
  L 125.26 168.27
  A 1.98 1.50 37.2 0 1 125.16 167.91
  L 124.44 163.49
  A 4.36 4.34 50.3 0 1 124.63 161.38
  C 126.32 156.57 129.20 153.59 132.50 149.71
  A 1.27 1.26 61.2 0 0 132.79 148.69
  L 131.95 142.93
  L 131.71 139.01
  Q 132.21 135.27 129.94 132.77
  Q 127.94 130.59 122.38 126.60
  L 125.10 123.21
  L 131.28 130.37
  A 6.39 6.34 -65.6 0 1 132.83 134.54
  L 132.83 141.13
  A 3.53 3.36 -54.9 0 0 132.98 142.14
  Q 133.86 145.05 133.84 148.13
  A 0.47 0.47 0.0 0 0 134.48 148.57
  Q 141.26 145.95 149.18 148.01
  A 1.35 1.35 0.0 0 0 150.83 147.00
  Q 151.90 142.33 152.87 137.18
  C 153.64 133.11 157.23 129.54 160.05 127.56
  Q 163.78 124.94 164.53 124.12
  A 2.66 2.47 -81.7 0 1 165.30 123.50
  L 172.60 119.71
  A 1.38 1.36 -51.5 0 1 173.58 119.59
  L 182.10 121.80
  A 0.56 0.55 -52.5 0 1 182.23 122.82
  L 181.95 122.98
  Z
  M 151.21 173.52
  A 0.48 0.48 0.0 0 0 150.95 172.90
  L 140.61 168.69
  A 1.23 1.23 0.0 0 1 139.99 168.10
  Q 139.10 166.23 139.00 163.20
  A 1.35 1.35 0.0 0 1 139.45 162.15
  Q 141.83 159.98 143.98 158.50
  Q 145.37 157.55 145.77 156.37
  A 1.50 1.50 0.0 0 0 144.66 154.43
  Q 138.16 153.06 131.86 154.88
  A 1.47 1.46 -16.1 0 0 130.86 156.68
  C 131.50 158.90 134.99 160.97 136.90 162.17
  A 1.66 1.66 0.0 0 1 137.64 163.27
  L 138.44 167.70
  A 1.01 1.00 70.2 0 1 137.95 168.76
  L 133.72 171.21
  A 0.26 0.25 -30.0 0 0 133.62 171.56
  L 133.78 171.83
  A 0.64 0.64 0.0 0 0 134.65 172.06
  L 138.31 169.94
  A 1.61 1.60 41.1 0 1 139.72 169.85
  L 150.65 174.30
  A 0.24 0.23 22.5 0 0 150.95 174.18
  L 151.21 173.52
  Z"
/>
<path fill="#363d44" d="
  M 265.54 184.22
  Q 265.49 183.20 264.93 182.69
  L 267.84 181.25
  Q 270.16 180.36 272.03 180.74
  L 296.34 191.04
  A 0.40 0.40 0.0 0 0 296.87 190.55
  L 295.29 185.77
  L 293.56 180.25
  Q 293.18 179.28 293.32 178.31
  A 1.30 1.25 74.9 0 1 293.76 177.51
  L 303.21 169.41
  Q 304.49 168.82 305.66 167.56
  A 0.29 0.28 -66.9 0 0 305.47 167.08
  L 273.60 165.28
  A 5.25 5.17 -55.1 0 0 271.18 165.73
  Q 266.75 167.75 264.90 168.48
  Q 262.92 169.27 258.22 171.87
  Q 246.83 178.20 235.27 181.20
  Q 227.55 179.09 220.53 177.72
  C 215.07 176.66 209.90 174.91 204.41 175.29
  A 0.91 0.86 -22.6 0 0 203.76 176.74
  Q 204.05 177.06 204.62 177.14
  Q 217.16 178.93 230.95 182.99
  A 0.47 0.47 0.0 0 1 231.28 183.53
  L 231.22 183.89
  A 0.27 0.27 0.0 0 1 230.91 184.11
  L 204.32 179.27
  A 0.60 0.60 0.0 0 0 203.65 180.05
  Q 203.73 180.31 204.84 180.70
  C 199.59 181.02 196.60 184.19 193.23 187.87
  C 188.83 192.68 187.24 197.83 187.46 204.30
  L 187.14 195.14
  A 0.61 0.60 -23.1 0 0 186.11 194.73
  L 181.11 199.58
  A 0.97 0.95 8.7 0 1 180.86 199.76
  Q 177.31 201.61 173.92 203.55
  Q 172.66 204.27 167.38 206.86
  Q 164.96 208.04 153.01 212.19
  A 1.22 1.19 -41.1 0 1 152.10 212.14
  Q 151.09 211.68 149.82 211.96
  A 1.23 1.18 -36.2 0 1 149.01 211.85
  Q 143.06 208.78 139.98 206.03
  Q 135.42 201.97 133.37 200.46
  L 132.78 196.56
  Q 138.62 202.52 145.24 207.54
  C 149.65 210.89 152.44 210.48 157.65 208.39
  Q 161.19 206.97 172.50 202.22
  Q 178.32 199.77 183.46 194.70
  Q 191.76 186.50 200.63 178.82
  A 2.15 2.15 0.0 0 0 201.34 176.79
  L 199.53 166.74
  Q 199.73 166.49 201.21 166.18
  L 220.04 160.12
  A 2.74 2.67 -72.4 0 0 220.90 159.66
  Q 223.48 157.65 224.11 156.84
  Q 232.95 145.47 241.30 135.05
  Q 241.99 134.19 243.81 132.39
  A 3.10 3.01 13.5 0 1 245.06 131.65
  L 277.65 121.56
  A 0.56 0.56 0.0 0 1 278.34 122.27
  L 274.12 134.83
  A 2.12 2.11 -63.6 0 0 274.93 137.25
  L 283.25 142.96
  A 0.99 0.99 0.0 0 1 282.87 144.75
  L 252.81 150.20
  A 2.04 2.03 17.8 0 0 251.77 150.73
  L 233.93 167.30
  A 7.64 7.62 -72.9 0 1 230.49 169.13
  Q 223.18 170.84 215.40 172.92
  Q 214.03 173.28 213.28 173.83
  A 0.47 0.47 0.0 0 0 213.52 174.67
  C 216.13 174.88 217.15 174.78 219.16 175.72
  C 220.28 176.25 221.87 175.74 223.21 176.60
  A 2.41 2.29 -21.4 0 0 224.02 176.93
  L 236.27 179.29
  A 3.82 3.77 -48.7 0 0 238.22 179.15
  Q 239.74 178.62 244.17 176.44
  Q 258.60 169.33 270.66 163.68
  Q 271.64 163.23 275.50 163.32
  Q 280.27 163.44 293.46 164.35
  Q 301.66 164.92 305.89 165.01
  C 307.21 165.04 308.10 165.35 309.14 165.82
  A 0.52 0.51 36.5 0 1 309.27 166.68
  L 295.53 178.61
  A 0.72 0.70 57.2 0 0 295.36 179.46
  C 296.16 181.08 295.63 182.43 296.63 184.11
  Q 297.13 184.95 297.16 186.29
  A 1.28 1.11 -59.5 0 0 297.21 186.56
  L 299.72 193.35
  A 0.53 0.53 0.0 0 1 299.00 194.02
  C 295.31 192.37 288.81 189.89 283.58 187.55
  Q 279.27 185.62 276.83 184.76
  Q 276.31 184.58 272.59 182.92
  Q 270.36 181.92 265.54 184.22
  Z
  M 229.87 152.75
  Q 228.03 154.72 226.00 157.50
  C 224.25 159.89 222.38 161.61 219.30 162.56
  Q 211.24 165.02 202.80 168.37
  A 0.84 0.83 -17.6 0 0 202.29 169.33
  L 202.36 169.60
  A 0.22 0.22 0.0 0 0 202.64 169.77
  L 221.14 164.04
  A 0.24 0.24 0.0 0 1 221.44 164.20
  L 221.51 164.45
  A 0.41 0.41 0.0 0 1 221.27 164.96
  L 203.63 171.70
  A 0.93 0.92 -59.5 0 0 204.09 173.48
  Q 208.47 172.85 212.94 171.69
  Q 220.71 169.67 230.29 167.39
  A 5.67 5.63 -72.8 0 0 232.79 166.06
  L 251.30 148.89
  L 279.62 143.51
  A 0.59 0.59 0.0 0 0 279.90 142.49
  Q 278.24 141.00 276.33 140.47
  Q 274.90 138.22 272.93 137.29
  A 1.30 1.29 21.2 0 1 272.24 135.75
  L 274.63 127.91
  L 275.98 124.55
  A 0.33 0.32 2.2 0 0 275.58 124.12
  Q 263.80 127.77 249.62 132.30
  C 248.07 132.79 245.22 133.00 243.88 134.62
  Q 240.09 139.19 229.87 152.75
  Z"
/>
<path fill="#bc7e83" d="
  M 181.95 122.98
  L 181.06 124.78
  L 179.08 127.75
  A 0.97 0.95 -71.7 0 1 178.25 128.18
  C 175.17 128.08 171.59 127.66 168.92 129.21
  Q 168.11 129.68 160.28 134.65
  C 158.53 135.76 157.58 136.91 157.08 138.82
  Q 155.94 143.18 154.62 148.64
  Q 154.09 148.66 154.28 150.45
  Q 153.89 150.17 153.54 149.67
  A 1.64 1.63 -58.2 0 1 153.28 148.55
  Q 154.05 142.95 155.52 137.46
  Q 156.23 134.82 158.86 133.08
  Q 165.30 128.83 170.15 125.83
  A 4.01 3.99 -69.6 0 1 171.04 125.42
  Q 174.87 124.25 178.77 123.01
  Q 180.73 122.39 181.95 122.98
  Z"
/>
<path fill="#1198e8" d="
  M 274.63 127.91
  Q 266.89 132.03 258.90 135.45
  C 252.28 138.29 247.32 141.38 241.80 145.10
  A 0.34 0.33 -32.9 0 0 241.70 145.54
  L 241.71 145.55
  A 0.33 0.32 -27.8 0 0 242.14 145.68
  Q 246.74 143.43 248.75 143.13
  Q 262.43 141.07 276.33 140.47
  Q 278.24 141.00 279.90 142.49
  A 0.59 0.59 0.0 0 1 279.62 143.51
  L 251.30 148.89
  Q 248.79 149.17 246.63 149.64
  Q 241.13 150.84 235.59 151.83
  Q 234.80 151.97 232.77 152.66
  Q 230.98 153.27 229.87 152.75
  Q 240.09 139.19 243.88 134.62
  C 245.22 133.00 248.07 132.79 249.62 132.30
  Q 263.80 127.77 275.58 124.12
  A 0.33 0.32 2.2 0 1 275.98 124.55
  L 274.63 127.91
  Z"
/>
<path fill="#21242d" d="
  M 154.62 148.64
  Q 155.94 143.18 157.08 138.82
  C 157.58 136.91 158.53 135.76 160.28 134.65
  Q 168.11 129.68 168.92 129.21
  C 171.59 127.66 175.17 128.08 178.25 128.18
  A 0.97 0.95 -71.7 0 0 179.08 127.75
  L 181.06 124.78
  L 181.44 124.82
  A 0.47 0.47 0.0 0 1 181.84 125.42
  Q 181.10 127.93 181.39 128.90
  Q 183.29 135.17 182.29 141.37
  C 181.79 144.51 177.02 147.54 174.31 148.47
  Q 169.71 150.04 163.50 149.85
  Q 158.87 149.71 154.62 148.64
  Z
  M 174.67 139.03
  Q 175.38 142.40 174.07 145.97
  A 0.45 0.44 81.5 0 0 174.75 146.48
  L 180.43 142.13
  A 0.83 0.82 61.2 0 0 180.70 141.18
  L 179.41 137.75
  L 176.26 130.85
  A 1.01 1.01 0.0 0 0 175.15 130.28
  L 170.16 131.18
  A 0.13 0.13 0.0 0 0 170.11 131.42
  Q 173.97 133.84 174.67 139.03
  Z
  M 157.78 147.58
  Q 162.13 148.86 166.14 148.23
  A 0.27 0.27 0.0 0 0 166.30 147.78
  Q 164.07 145.17 163.89 141.67
  Q 163.36 138.27 164.42 135.06
  A 0.29 0.29 0.0 0 0 163.98 134.73
  Q 157.59 139.14 157.78 147.58
  Z
  M 167.8226 134.9934
  A 2.04 1.78 -93.3 0 0 166.1630 137.1325
  A 2.04 1.78 -93.3 0 0 168.0574 139.0666
  A 2.04 1.78 -93.3 0 0 169.7170 136.9275
  A 2.04 1.78 -93.3 0 0 167.8226 134.9934
  Z"
/>
<path fill="#bc7e83" d="
  M 122.38 126.60
  Q 127.94 130.59 129.94 132.77
  Q 132.21 135.27 131.71 139.01
  Q 129.04 132.59 123.07 129.57
  A 1.08 1.07 -84.0 0 1 122.50 128.86
  Q 122.18 127.59 122.38 126.60
  Z"
/>
<path fill="#116bb1" d="
  M 274.63 127.91
  L 272.24 135.75
  A 1.30 1.29 21.2 0 0 272.93 137.29
  Q 274.90 138.22 276.33 140.47
  Q 262.43 141.07 248.75 143.13
  Q 246.74 143.43 242.14 145.68
  A 0.33 0.32 -27.8 0 1 241.71 145.55
  L 241.70 145.54
  A 0.34 0.33 -32.9 0 1 241.80 145.10
  C 247.32 141.38 252.28 138.29 258.90 135.45
  Q 266.89 132.03 274.63 127.91
  Z"
/>
<path fill="#bc7e83" d="
  M 179.41 137.75
  Q 178.14 138.29 176.00 137.93
  Q 174.67 137.70 174.67 139.03
  Q 173.97 133.84 170.11 131.42
  A 0.13 0.13 0.0 0 1 170.16 131.18
  L 175.15 130.28
  A 1.01 1.01 0.0 0 1 176.26 130.85
  L 179.41 137.75
  Z"
/>
<path fill="#bc7e83" d="
  M 125.05 140.01
  Q 124.46 139.73 124.05 139.95
  A 0.45 0.44 79.8 0 0 123.80 140.32
  L 123.55 142.54
  Q 123.02 137.70 124.13 133.27
  A 0.58 0.57 24.2 0 1 125.01 132.94
  L 127.00 134.31
  A 0.83 0.83 0.0 0 1 127.18 135.51
  Q 125.66 137.46 125.05 140.01
  Z"
/>
<path fill="#bc7e83" d="
  M 163.89 141.67
  Q 162.55 141.67 161.87 142.38
  Q 159.46 144.88 157.78 147.58
  Q 157.59 139.14 163.98 134.73
  A 0.29 0.29 0.0 0 1 164.42 135.06
  Q 163.36 138.27 163.89 141.67
  Z"
/>
<ellipse fill="#fbfbfa" cx="0.00" cy="0.00" transform="translate(167.94,137.03) rotate(-93.3)" rx="2.04" ry="1.78"/>
<ellipse fill="#fbfbfa" cx="0.00" cy="0.00" transform="translate(128.51,139.30) rotate(-88.8)" rx="1.54" ry="1.11"/>
<path fill="#fbfbfa" d="
  M 179.41 137.75
  L 180.70 141.18
  A 0.83 0.82 61.2 0 1 180.43 142.13
  L 174.75 146.48
  A 0.45 0.44 81.5 0 1 174.07 145.97
  Q 175.38 142.40 174.67 139.03
  Q 174.67 137.70 176.00 137.93
  Q 178.14 138.29 179.41 137.75
  Z"
/>
<path fill="#fbfbfa" d="
  M 125.05 140.01
  Q 124.92 143.65 126.40 147.15
  A 0.16 0.16 0.0 0 1 126.17 147.35
  Q 123.32 145.57 123.55 142.54
  L 123.80 140.32
  A 0.45 0.44 79.8 0 1 124.05 139.95
  Q 124.46 139.73 125.05 140.01
  Z"
/>
<path fill="#fbfbfa" d="
  M 157.78 147.58
  Q 159.46 144.88 161.87 142.38
  Q 162.55 141.67 163.89 141.67
  Q 164.07 145.17 166.30 147.78
  A 0.27 0.27 0.0 0 1 166.14 148.23
  Q 162.13 148.86 157.78 147.58
  Z"
/>
<path fill="#363d44" d="
  M 127.87 174.40
  Q 121.71 172.25 119.24 168.26
  Q 117.27 165.10 115.52 162.97
  A 0.85 0.84 -55.9 0 1 115.37 162.16
  L 117.23 156.64
  A 0.91 0.91 0.0 0 0 116.20 155.45
  L 113.89 155.87
  A 0.44 0.43 -78.5 0 1 113.45 155.20
  L 117.05 149.65
  A 1.21 0.96 -12.0 0 1 117.19 149.48
  Q 120.24 146.16 121.49 143.67
  A 0.28 0.27 55.5 0 1 122.01 143.77
  C 122.19 145.63 123.02 146.32 124.48 147.75
  Q 127.23 150.43 130.94 149.65
  A 0.99 0.98 -5.0 0 0 131.72 148.73
  L 131.95 142.93
  L 132.79 148.69
  A 1.27 1.26 61.2 0 1 132.50 149.71
  C 129.20 153.59 126.32 156.57 124.63 161.38
  A 4.36 4.34 50.3 0 0 124.44 163.49
  L 125.16 167.91
  A 1.98 1.50 37.2 0 0 125.26 168.27
  L 127.87 174.40
  Z"
/>
<path fill="#116bb1" d="
  M 251.30 148.89
  L 232.79 166.06
  A 5.67 5.63 -72.8 0 1 230.29 167.39
  Q 220.71 169.67 212.94 171.69
  Q 208.47 172.85 204.09 173.48
  A 0.93 0.92 -59.5 0 1 203.63 171.70
  L 221.27 164.96
  A 0.41 0.41 0.0 0 0 221.51 164.45
  L 221.44 164.20
  A 0.24 0.24 0.0 0 0 221.14 164.04
  L 202.64 169.77
  A 0.22 0.22 0.0 0 1 202.36 169.60
  L 202.29 169.33
  A 0.84 0.83 -17.6 0 1 202.80 168.37
  Q 211.24 165.02 219.30 162.56
  C 222.38 161.61 224.25 159.89 226.00 157.50
  Q 228.03 154.72 229.87 152.75
  Q 230.98 153.27 232.77 152.66
  Q 234.80 151.97 235.59 151.83
  Q 241.13 150.84 246.63 149.64
  Q 248.79 149.17 251.30 148.89
  Z"
/>
<path fill="#363d44" d="
  M 151.21 173.52
  L 150.95 174.18
  A 0.24 0.23 22.5 0 1 150.65 174.30
  L 139.72 169.85
  A 1.61 1.60 41.1 0 0 138.31 169.94
  L 134.65 172.06
  A 0.64 0.64 0.0 0 1 133.78 171.83
  L 133.62 171.56
  A 0.26 0.25 -30.0 0 1 133.72 171.21
  L 137.95 168.76
  A 1.01 1.00 70.2 0 0 138.44 167.70
  L 137.64 163.27
  A 1.66 1.66 0.0 0 0 136.90 162.17
  C 134.99 160.97 131.50 158.90 130.86 156.68
  A 1.47 1.46 -16.1 0 1 131.86 154.88
  Q 138.16 153.06 144.66 154.43
  A 1.50 1.50 0.0 0 1 145.77 156.37
  Q 145.37 157.55 143.98 158.50
  Q 141.83 159.98 139.45 162.15
  A 1.35 1.35 0.0 0 0 139.00 163.20
  Q 139.10 166.23 139.99 168.10
  A 1.23 1.23 0.0 0 0 140.61 168.69
  L 150.95 172.90
  A 0.48 0.48 0.0 0 1 151.21 173.52
  Z
  M 138.10 161.09
  C 138.36 161.09 138.19 161.12 138.31 161.04
  Q 141.61 158.98 143.58 156.67
  A 0.69 0.68 28.7 0 0 143.25 155.57
  Q 141.28 154.97 137.94 155.06
  Q 134.59 155.15 132.65 155.87
  A 0.69 0.68 -31.9 0 0 132.39 156.98
  Q 134.49 159.18 137.90 161.06
  C 138.02 161.12 137.85 161.10 138.10 161.09
  Z"
/>
<path fill="#bc7e83" d="
  M 137.94 155.06
  Q 141.28 154.97 143.25 155.57
  A 0.69 0.68 28.7 0 1 143.58 156.67
  Q 141.61 158.98 138.31 161.04
  C 138.19 161.12 138.36 161.09 138.10 161.09
  C 137.85 161.10 138.02 161.12 137.90 161.06
  Q 134.49 159.18 132.39 156.98
  A 0.69 0.68 -31.9 0 1 132.65 155.87
  Q 134.59 155.15 137.94 155.06
  Z"
/>
<path fill="#363d44" d="
  M 114.92 158.21
  Q 115.47 159.63 114.46 160.18
  L 114.92 158.21
  Z"
/>
<path fill="#1198e8" d="
  M 303.21 169.41
  L 276.28 173.88
  A 0.40 0.40 0.0 0 0 276.28 174.67
  Q 285.29 176.20 293.56 180.25
  L 295.29 185.77
  Q 283.87 181.89 272.03 180.74
  Q 270.16 180.36 267.84 181.25
  C 258.28 183.03 249.42 186.17 239.30 184.53
  Q 237.41 184.22 236.23 183.60
  Q 233.95 182.39 235.27 181.20
  Q 246.83 178.20 258.22 171.87
  Q 262.92 169.27 264.90 168.48
  Q 266.75 167.75 271.18 165.73
  A 5.25 5.17 -55.1 0 1 273.60 165.28
  L 305.47 167.08
  A 0.29 0.28 -66.9 0 1 305.66 167.56
  Q 304.49 168.82 303.21 169.41
  Z"
/>
<path fill="#116bb1" d="
  M 199.53 166.74
  L 201.34 176.79
  A 2.15 2.15 0.0 0 1 200.63 178.82
  Q 191.76 186.50 183.46 194.70
  Q 178.32 199.77 172.50 202.22
  Q 161.19 206.97 157.65 208.39
  C 152.44 210.48 149.65 210.89 145.24 207.54
  Q 138.62 202.52 132.78 196.56
  C 129.75 194.26 127.80 192.03 129.34 188.21
  Q 129.48 187.97 129.71 187.90
  Q 129.91 187.84 130.17 188.02
  Q 137.24 192.69 145.91 196.88
  A 1.89 1.36 54.2 0 0 146.33 197.02
  L 148.05 197.37
  A 0.69 0.69 0.0 0 0 148.69 196.23
  L 148.16 195.63
  L 160.50 196.57
  A 0.43 0.42 28.5 0 1 160.73 197.33
  Q 152.09 203.91 142.72 198.45
  Q 136.95 195.10 130.93 191.19
  A 0.33 0.33 0.0 0 0 130.51 191.70
  Q 134.48 195.95 140.09 201.09
  C 143.63 204.33 146.91 206.62 151.52 205.90
  Q 160.46 204.49 168.61 200.65
  C 175.23 197.51 179.67 193.26 184.28 187.40
  A 0.64 0.64 0.0 0 0 183.45 186.46
  L 179.05 189.11
  A 1.88 1.74 -63.9 0 1 178.48 189.33
  L 163.64 192.15
  A 0.06 0.06 0.0 0 1 163.57 192.10
  L 163.50 191.73
  A 0.40 0.39 74.0 0 1 163.73 191.30
  Q 173.63 187.15 182.06 180.94
  A 0.31 0.31 0.0 0 0 181.76 180.41
  Q 177.72 182.12 173.34 182.94
  C 167.85 183.96 160.98 185.81 156.80 186.82
  C 148.91 188.72 144.35 190.10 137.41 186.32
  Q 132.22 183.51 126.99 180.73
  Q 126.83 179.28 127.47 178.13
  A 0.54 0.53 -59.9 0 1 128.21 177.93
  Q 136.87 183.06 144.23 185.77
  Q 146.33 186.54 150.03 185.58
  Q 159.86 183.03 166.75 181.61
  Q 168.49 181.25 170.22 180.42
  A 3.79 3.39 21.6 0 1 170.87 180.18
  Q 178.69 178.12 186.76 175.48
  Q 186.79 175.47 187.78 175.38
  A 2.25 2.14 -59.5 0 0 188.51 175.17
  Q 194.34 172.14 199.53 166.74
  Z
  M 197.48 173.91
  A 1.07 1.04 34.7 0 0 196.65 174.05
  L 176.98 187.11
  A 0.42 0.42 0.0 0 0 177.02 187.83
  L 177.27 187.94
  A 0.67 0.67 0.0 0 0 177.87 187.90
  L 193.52 178.67
  A 2.32 1.70 -72.2 0 0 193.81 178.46
  L 198.24 174.55
  A 0.27 0.27 0.0 0 0 198.13 174.08
  L 197.48 173.91
  Z"
/>
<path fill="#116bb1" d="
  M 303.21 169.41
  L 293.76 177.51
  A 1.30 1.25 74.9 0 0 293.32 178.31
  Q 293.18 179.28 293.56 180.25
  Q 285.29 176.20 276.28 174.67
  A 0.40 0.40 0.0 0 1 276.28 173.88
  L 303.21 169.41
  Z"
/>
<path fill="#363d44" d="
  M 198.24 174.55
  L 193.81 178.46
  A 2.32 1.70 -72.2 0 1 193.52 178.67
  L 177.87 187.90
  A 0.67 0.67 0.0 0 1 177.27 187.94
  L 177.02 187.83
  A 0.42 0.42 0.0 0 1 176.98 187.11
  L 196.65 174.05
  A 1.07 1.04 34.7 0 1 197.48 173.91
  L 198.13 174.08
  A 0.27 0.27 0.0 0 1 198.24 174.55
  Z"
/>
<path fill="#116bb1" d="
  M 235.27 181.20
  Q 233.95 182.39 236.23 183.60
  Q 237.41 184.22 239.30 184.53
  C 249.42 186.17 258.28 183.03 267.84 181.25
  L 264.93 182.69
  L 238.71 192.70
  A 1.60 1.58 -45.3 0 1 237.63 192.71
  Q 221.76 186.99 214.17 184.37
  Q 211.58 183.48 210.06 182.41
  A 1.00 0.97 72.4 0 0 209.80 182.27
  L 204.84 180.70
  Q 203.73 180.31 203.65 180.05
  A 0.60 0.60 0.0 0 1 204.32 179.27
  L 230.91 184.11
  A 0.27 0.27 0.0 0 0 231.22 183.89
  L 231.28 183.53
  A 0.47 0.47 0.0 0 0 230.95 182.99
  Q 217.16 178.93 204.62 177.14
  Q 204.05 177.06 203.76 176.74
  A 0.91 0.86 -22.6 0 1 204.41 175.29
  C 209.90 174.91 215.07 176.66 220.53 177.72
  Q 227.55 179.09 235.27 181.20
  Z"
/>
<path fill="#1198e8" d="
  M 148.16 195.63
  Q 137.54 191.71 128.79 184.04
  Q 126.64 183.09 126.99 180.73
  Q 132.22 183.51 137.41 186.32
  C 144.35 190.10 148.91 188.72 156.80 186.82
  C 160.98 185.81 167.85 183.96 173.34 182.94
  Q 177.72 182.12 181.76 180.41
  A 0.31 0.31 0.0 0 1 182.06 180.94
  Q 173.63 187.15 163.73 191.30
  A 0.40 0.39 74.0 0 0 163.50 191.73
  L 163.57 192.10
  A 0.06 0.06 0.0 0 0 163.64 192.15
  L 178.48 189.33
  A 1.88 1.74 -63.9 0 0 179.05 189.11
  L 183.45 186.46
  A 0.64 0.64 0.0 0 1 184.28 187.40
  C 179.67 193.26 175.23 197.51 168.61 200.65
  Q 160.46 204.49 151.52 205.90
  C 146.91 206.62 143.63 204.33 140.09 201.09
  Q 134.48 195.95 130.51 191.70
  A 0.33 0.33 0.0 0 1 130.93 191.19
  Q 136.95 195.10 142.72 198.45
  Q 152.09 203.91 160.73 197.33
  A 0.43 0.42 28.5 0 0 160.50 196.57
  L 148.16 195.63
  Z"
/>
<path fill="#116bb1" d="
  M 295.29 185.77
  L 296.87 190.55
  A 0.40 0.40 0.0 0 1 296.34 191.04
  L 272.03 180.74
  Q 283.87 181.89 295.29 185.77
  Z"
/>
<path fill="#363d44" d="
  M 128.79 184.04
  Q 137.54 191.71 148.16 195.63
  L 148.69 196.23
  A 0.69 0.69 0.0 0 1 148.05 197.37
  L 146.33 197.02
  A 1.89 1.36 54.2 0 1 145.91 196.88
  Q 137.24 192.69 130.17 188.02
  Q 129.91 187.84 129.71 187.90
  Q 129.48 187.97 129.34 188.21
  Q 129.03 187.41 129.94 187.40
  A 0.57 0.57 0.0 0 0 130.29 186.37
  Q 129.02 185.39 128.79 184.04
  Z"
/>
<path fill="#363d44" d="
  M 234.96 234.29
  Q 225.04 229.81 218.55 236.47
  Q 216.69 225.84 213.65 218.34
  C 212.95 216.60 211.06 214.54 209.38 213.25
  Q 203.44 208.70 201.48 207.21
  Q 197.76 204.37 196.76 202.53
  C 193.64 196.75 198.01 187.21 203.81 184.82
  A 3.27 3.26 -33.1 0 1 207.38 185.56
  Q 217.62 196.01 226.52 207.29
  A 1.43 1.43 0.0 0 1 226.83 208.18
  Q 226.89 222.57 234.96 234.29
  Z"
/>
<path fill="#116bb1" d="
  M 187.46 204.30
  C 188.11 208.62 189.38 212.40 193.17 215.30
  Q 196.57 217.90 199.10 214.77
  A 0.46 0.46 0.0 0 1 199.92 215.06
  C 199.96 222.29 203.00 230.21 206.30 236.44
  Q 207.45 238.59 205.78 240.01
  Q 199.84 245.07 197.78 246.27
  Q 194.38 248.25 190.98 250.32
  L 191.03 241.56
  L 194.88 246.66
  A 0.82 0.81 13.2 0 0 196.26 245.81
  Q 193.92 241.16 189.21 238.35
  Q 186.46 235.91 183.86 230.88
  A 0.34 0.33 7.2 0 1 184.38 230.48
  Q 186.82 232.62 188.80 235.83
  A 0.29 0.29 0.0 0 0 189.34 235.64
  Q 189.19 234.40 187.82 222.26
  C 187.47 219.20 184.73 214.49 183.68 210.79
  Q 182.94 208.17 182.37 206.20
  A 1.08 1.07 -17.4 0 0 180.98 205.48
  Q 174.51 207.70 165.82 211.82
  C 161.78 213.74 157.17 214.55 153.70 216.14
  A 0.99 0.98 -17.6 0 0 153.14 217.21
  L 155.19 228.50
  A 1.23 1.23 0.0 0 0 156.31 229.51
  L 169.58 230.51
  A 0.45 0.44 -2.5 0 1 169.98 230.87
  L 170.06 231.32
  A 0.39 0.39 0.0 0 1 169.68 231.78
  L 156.84 231.78
  A 0.95 0.95 0.0 0 0 155.89 232.69
  Q 155.29 244.12 156.84 255.20
  L 154.82 255.05
  Q 154.54 252.33 154.24 249.67
  C 153.59 243.99 153.92 238.84 154.10 231.98
  A 0.92 0.91 4.5 0 0 153.30 231.05
  Q 148.06 230.36 144.35 228.50
  A 0.21 0.21 0.0 0 1 144.46 228.11
  L 153.23 228.78
  A 0.32 0.32 0.0 0 0 153.57 228.41
  L 151.54 217.23
  A 2.30 2.29 6.7 0 0 150.21 215.55
  Q 140.93 211.52 134.42 203.83
  A 0.35 0.35 0.0 0 0 133.83 203.93
  Q 133.69 204.32 133.72 204.72
  L 133.37 200.46
  Q 135.42 201.97 139.98 206.03
  Q 143.06 208.78 149.01 211.85
  A 1.23 1.18 -36.2 0 0 149.82 211.96
  Q 151.09 211.68 152.10 212.14
  A 1.22 1.19 -41.1 0 0 153.01 212.19
  Q 164.96 208.04 167.38 206.86
  Q 172.66 204.27 173.92 203.55
  Q 177.31 201.61 180.86 199.76
  A 0.97 0.95 8.7 0 0 181.11 199.58
  L 186.11 194.73
  A 0.61 0.60 -23.1 0 1 187.14 195.14
  L 187.46 204.30
  Z"
/>
<path fill="#bc7e83" d="
  M 129.02 194.87
  L 124.29 205.52
  A 3.69 3.43 76.6 0 1 124.04 205.96
  Q 121.20 210.04 121.15 210.12
  Q 119.01 213.10 113.46 225.36
  Q 113.33 225.64 111.60 228.26
  Q 110.39 230.09 110.79 231.52
  Q 110.14 231.92 108.23 231.96
  C 109.27 229.69 110.22 227.28 111.46 225.12
  Q 119.80 210.55 127.20 195.48
  Q 127.47 194.93 129.02 194.87
  Z"
/>
<path fill="#363d44" d="
  M 118.53 234.11
  Q 115.67 232.23 110.79 231.52
  Q 110.39 230.09 111.60 228.26
  Q 113.33 225.64 113.46 225.36
  Q 119.01 213.10 121.15 210.12
  Q 121.20 210.04 124.04 205.96
  A 3.69 3.43 76.6 0 0 124.29 205.52
  L 129.02 194.87
  Q 130.67 200.40 130.35 206.50
  C 130.21 209.01 129.58 210.81 128.22 213.16
  Q 122.35 223.31 118.53 234.11
  Z"
/>
<path fill="#1198e8" d="
  M 154.82 255.05
  Q 146.36 253.47 138.18 248.04
  Q 134.27 245.45 133.14 243.46
  A 1.54 1.52 -53.0 0 1 132.99 242.31
  C 135.22 233.89 137.52 227.69 135.98 220.20
  Q 135.63 218.46 133.97 210.23
  A 1.02 0.56 55.3 0 1 133.95 210.04
  L 133.72 204.72
  Q 133.69 204.32 133.83 203.93
  A 0.35 0.35 0.0 0 1 134.42 203.83
  Q 140.93 211.52 150.21 215.55
  A 2.30 2.29 6.7 0 1 151.54 217.23
  L 153.57 228.41
  A 0.32 0.32 0.0 0 1 153.23 228.78
  L 144.46 228.11
  A 0.21 0.21 0.0 0 0 144.35 228.50
  Q 148.06 230.36 153.30 231.05
  A 0.92 0.91 4.5 0 1 154.10 231.98
  C 153.92 238.84 153.59 243.99 154.24 249.67
  Q 154.54 252.33 154.82 255.05
  Z"
/>
<path fill="#1198e8" d="
  M 189.21 238.35
  Q 189.88 240.66 191.03 241.56
  L 190.98 250.32
  Q 175.35 257.87 158.01 255.67
  Q 157.27 255.58 156.84 255.20
  Q 155.29 244.12 155.89 232.69
  A 0.95 0.95 0.0 0 1 156.84 231.78
  L 169.68 231.78
  A 0.39 0.39 0.0 0 0 170.06 231.32
  L 169.98 230.87
  A 0.45 0.44 -2.5 0 0 169.58 230.51
  L 156.31 229.51
  A 1.23 1.23 0.0 0 1 155.19 228.50
  L 153.14 217.21
  A 0.99 0.98 -17.6 0 1 153.70 216.14
  C 157.17 214.55 161.78 213.74 165.82 211.82
  Q 174.51 207.70 180.98 205.48
  A 1.08 1.07 -17.4 0 1 182.37 206.20
  Q 182.94 208.17 183.68 210.79
  C 184.73 214.49 187.47 219.20 187.82 222.26
  Q 189.19 234.40 189.34 235.64
  A 0.29 0.29 0.0 0 1 188.80 235.83
  Q 186.82 232.62 184.38 230.48
  A 0.34 0.33 7.2 0 0 183.86 230.88
  Q 186.46 235.91 189.21 238.35
  Z"
/>
<path fill="#fbfbfa" d="
  M 110.79 231.52
  Q 115.67 232.23 118.53 234.11
  Q 121.82 236.33 122.20 239.47
  Q 122.56 242.46 122.56 242.48
  C 123.43 246.07 124.64 250.56 121.34 253.57
  A 1.95 1.94 52.7 0 1 118.39 253.16
  C 116.56 250.23 115.98 248.96 113.92 247.48
  A 0.89 0.88 -44.6 0 0 112.89 247.48
  Q 111.18 248.67 110.89 249.75
  A 0.42 0.42 0.0 0 0 111.56 250.19
  Q 113.20 248.87 114.28 250.22
  Q 115.94 252.30 117.43 255.21
  A 0.85 0.84 49.8 0 1 117.36 256.10
  C 113.15 261.74 105.84 256.27 103.31 251.97
  C 100.81 247.72 106.02 235.98 108.23 231.96
  Q 110.14 231.92 110.79 231.52
  Z"
/>
<path fill="#363d44" d="
  M 211.13 240.94
  A 0.74 0.74 0.0 0 1 209.76 240.71
  L 208.50 233.76
  A 1.11 1.10 68.3 0 1 208.98 232.64
  L 210.43 231.68
  A 0.88 0.88 0.0 0 1 211.74 232.11
  Q 213.42 236.82 211.13 240.94
  Z"
/>
<path fill="#fbfbfa" d="
  M 234.96 234.29
  Q 238.23 241.62 238.43 250.50
  Q 238.53 254.60 235.47 256.95
  A 0.33 0.33 0.0 0 1 234.94 256.66
  L 235.20 253.11
  A 0.22 0.22 0.0 0 0 234.78 252.99
  L 232.47 257.67
  A 4.36 4.34 4.5 0 1 229.84 259.90
  L 226.04 261.08
  A 0.53 0.53 0.0 0 1 225.53 260.17
  Q 228.01 257.96 227.93 254.49
  A 0.45 0.44 -39.8 0 0 227.05 254.41
  Q 225.62 261.08 219.23 260.16
  A 2.31 2.28 -21.3 0 1 218.14 259.69
  Q 216.52 258.39 215.84 256.00
  A 0.98 0.98 0.0 0 1 216.08 255.04
  Q 219.22 251.84 216.83 247.23
  A 0.28 0.28 0.0 0 0 216.30 247.39
  Q 216.62 250.49 215.04 252.61
  A 0.61 0.61 0.0 0 1 214.22 252.76
  C 207.54 248.51 214.14 239.80 218.55 236.47
  Q 225.04 229.81 234.96 234.29
  Z"
/>
<path fill="#363d44" d="
  M 191.03 241.56
  Q 189.88 240.66 189.21 238.35
  Q 193.92 241.16 196.26 245.81
  A 0.82 0.81 13.2 0 1 194.88 246.66
  L 191.03 241.56
  Z"
/>
<path fill="#363d44" d="
  M 128.73 283.96
  Q 124.56 277.72 124.04 275.00
  Q 123.41 271.68 125.28 266.79
  Q 129.75 255.12 132.71 248.54
  A 0.66 0.66 0.0 0 1 133.67 248.27
  L 142.46 254.11
  A 1.25 1.22 -19.2 0 0 142.76 254.25
  Q 151.55 257.44 153.16 257.81
  Q 164.25 260.38 175.53 258.76
  Q 178.38 258.35 186.61 255.54
  Q 193.20 253.29 202.25 252.48
  A 1.01 1.00 70.7 0 1 203.17 252.93
  Q 208.78 261.31 212.30 269.38
  Q 216.70 279.46 210.25 287.49
  A 1.89 1.88 -71.3 0 1 208.86 288.18
  Q 195.96 288.56 187.01 279.79
  Q 179.28 272.22 178.99 272.04
  Q 175.65 269.92 173.47 269.58
  Q 157.68 267.13 151.14 266.39
  A 0.46 0.45 -81.2 0 0 150.64 266.76
  Q 150.24 268.90 149.54 270.49
  Q 145.61 279.40 142.84 285.05
  A 1.97 1.96 -72.8 0 1 140.79 286.14
  L 129.52 284.46
  A 1.20 1.18 77.0 0 1 128.73 283.96
  Z"
/>
<path fill="#363d44" d="
  M 140.39 309.49
  Q 135.57 303.63 128.83 301.90
  Q 140.09 296.34 150.53 302.26
  A 0.89 0.88 -44.8 0 1 150.52 303.80
  L 140.39 309.49
  Z"
/>
<path fill="#363d44" d="
  M 230.49 307.59
  C 223.15 305.96 213.67 308.28 209.67 315.17
  Q 208.21 310.32 208.82 305.43
  A 2.08 2.04 -14.7 0 1 209.67 304.01
  Q 212.27 302.17 215.71 301.75
  Q 222.30 300.95 224.50 301.62
  Q 228.13 302.72 230.49 307.59
  Z"
/>
<path fill="#fbfbfa" d="
  M 128.83 301.90
  Q 135.57 303.63 140.39 309.49
  L 141.86 313.80
  A 0.89 0.88 -18.3 0 1 141.29 314.92
  C 134.88 316.99 127.86 319.06 120.75 318.65
  A 0.60 0.60 0.0 0 1 120.19 318.10
  C 119.81 313.10 122.31 310.98 125.72 307.94
  A 0.33 0.33 0.0 0 0 125.38 307.38
  C 120.48 309.22 118.92 312.85 118.15 317.87
  A 0.66 0.65 -84.2 0 1 117.47 318.43
  Q 114.84 318.31 111.81 317.12
  A 0.94 0.93 -81.9 0 1 111.22 316.33
  C 110.84 311.88 114.13 308.26 117.35 305.41
  A 0.37 0.37 0.0 0 0 117.09 304.76
  C 113.39 304.88 109.94 311.35 109.19 314.53
  A 0.33 0.33 0.0 0 1 108.68 314.73
  L 108.35 314.50
  A 0.14 0.11 24.7 0 1 108.29 314.38
  Q 109.12 308.18 113.49 304.52
  C 115.99 302.43 117.99 302.34 121.66 301.94
  Q 125.17 301.56 128.83 301.90
  Z"
/>
<path fill="#fbfbfa" d="
  M 230.49 307.59
  C 234.88 309.98 239.75 314.33 239.86 319.65
  A 3.95 3.89 63.6 0 1 239.05 322.13
  L 237.71 323.89
  A 0.84 0.84 0.0 0 1 236.20 323.35
  C 236.29 320.58 234.34 313.34 230.94 312.39
  A 0.27 0.27 0.0 0 0 230.66 312.82
  C 232.81 315.45 235.16 320.95 234.78 324.26
  C 234.39 327.61 227.64 327.31 225.25 327.04
  A 0.78 0.77 -4.4 0 1 224.59 326.48
  Q 224.57 326.41 224.16 322.80
  Q 223.66 318.42 220.49 314.21
  A 0.25 0.25 0.0 0 0 220.09 314.21
  L 219.91 314.44
  A 0.16 0.15 49.3 0 0 219.90 314.61
  Q 222.95 320.35 222.84 326.19
  A 0.54 0.54 0.0 0 1 222.29 326.72
  C 215.65 326.56 207.38 323.48 209.67 315.17
  C 213.67 308.28 223.15 305.96 230.49 307.59
  Z"
/>
</svg>
