<?xml version="1.0" encoding="UTF-8" standalone="no"?>
<!DOCTYPE svg PUBLIC "-//W3C//DTD SVG 1.1//EN" "http://www.w3.org/Graphics/SVG/1.1/DTD/svg11.dtd">
<svg xmlns="http://www.w3.org/2000/svg" version="1.1" viewBox="0.00 0.00 1080.00 1080.00">
<g stroke-width="2.00" fill="none" stroke-linecap="butt">
<path stroke="#999da0" vector-effect="non-scaling-stroke" d="
  M 537.36 715.56
  A 0.16 0.16 0.0 0 0 537.68 715.55
  Q 538.28 709.37 536.56 703.47
  Q 535.05 698.27 528.75 693.49
  A 2.38 2.34 -24.5 0 0 527.46 693.02
  Q 524.69 692.89 521.56 694.08
  A 0.72 0.71 -15.5 0 0 521.10 694.88
  Q 521.39 696.63 522.29 697.78
  A 1.34 1.34 0.0 0 0 523.18 698.29
  Q 531.72 699.27 535.02 707.23
  Q 536.78 711.48 537.36 715.56"
/>
<path stroke="#999da0" vector-effect="non-scaling-stroke" d="
  M 561.80 706.65
  Q 561.96 706.54 562.08 706.32
  Q 565.83 699.02 574.13 698.42
  A 0.91 0.91 0.0 0 0 574.94 697.75
  L 575.72 694.97
  A 0.83 0.82 18.3 0 0 575.22 693.98
  Q 572.14 692.80 569.19 693.12
  A 2.19 2.11 25.3 0 0 568.27 693.43
  C 564.13 695.91 560.99 699.73 559.91 704.95
  Q 558.56 711.55 558.13 716.50
  A 0.41 0.40 -73.8 0 1 557.54 716.83
  C 548.24 711.89 540.35 715.26 532.70 721.33
  Q 526.00 726.64 529.23 734.14
  Q 529.47 734.70 531.98 738.78
  A 2.01 1.99 -4.2 0 0 532.93 739.59
  Q 540.48 742.74 547.79 743.91
  A 6.04 5.93 -45.6 0 0 549.85 743.87
  Q 557.70 742.35 563.95 739.53
  A 2.60 2.55 7.7 0 0 564.81 738.89
  C 569.39 733.64 570.78 726.17 564.56 721.71
  Q 562.16 719.98 559.30 717.90
  A 0.87 0.86 -71.3 0 1 558.94 717.16
  Q 559.18 712.76 561.32 707.29
  A 1.44 1.33 84.3 0 1 561.80 706.65"
/>
<path stroke="#999da0" vector-effect="non-scaling-stroke" d="
  M 526.10 714.47
  C 526.07 714.31 525.35 713.33 525.16 712.76
  Q 522.91 706.03 528.29 701.77
  A 0.24 0.23 -51.3 0 0 528.25 701.38
  Q 523.53 698.99 521.54 703.72
  Q 518.12 711.87 525.46 714.97
  A 0.46 0.46 0.0 0 0 526.10 714.47"
/>
<path stroke="#999da0" vector-effect="non-scaling-stroke" d="
  M 570.76 714.43
  A 0.46 0.46 0.0 0 0 571.40 714.94
  Q 578.75 711.88 575.37 703.72
  Q 573.41 698.99 568.68 701.35
  A 0.24 0.23 51.6 0 0 568.64 701.74
  Q 573.99 706.02 571.71 712.73
  C 571.52 713.30 570.79 714.28 570.76 714.43"
/>
<path stroke="#999da0" vector-effect="non-scaling-stroke" d="
  M 529.9915 704.3904
  A 2.16 1.79 -88.9 0 0 528.1603 706.5156
  A 2.16 1.79 -88.9 0 0 529.9085 708.7096
  A 2.16 1.79 -88.9 0 0 531.7397 706.5844
  A 2.16 1.79 -88.9 0 0 529.9915 704.3904"
/>
<path stroke="#999da0" vector-effect="non-scaling-stroke" d="
  M 567.1809 704.5016
  A 2.11 1.74 -81.8 0 0 565.1578 706.3418
  A 2.11 1.74 -81.8 0 0 566.5791 708.6784
  A 2.11 1.74 -81.8 0 0 568.6022 706.8382
  A 2.11 1.74 -81.8 0 0 567.1809 704.5016"
/>
<path stroke="#999da0" vector-effect="non-scaling-stroke" d="
  M 534.33 712.01
  L 533.44 715.20
  A 0.51 0.51 0.0 0 0 533.98 715.85
  C 534.70 715.78 535.29 715.49 535.39 714.69
  Q 535.55 713.43 534.98 711.98
  A 0.35 0.34 42.0 0 0 534.33 712.01"
/>
<path stroke="#999da0" vector-effect="non-scaling-stroke" d="
  M 563.53 714.74
  L 562.49 712.94
  A 0.45 0.45 0.0 0 0 561.71 712.95
  Q 560.91 714.42 562.13 715.77
  A 0.88 0.87 -81.2 0 0 563.53 714.74"
/>
<path stroke="#276a97" vector-effect="non-scaling-stroke" d="
  M 520.32 746.09
  Q 521.96 747.36 524.56 749.46
  A 0.25 0.25 0.0 0 1 524.46 749.90
  L 523.71 750.09
  A 0.05 0.05 0.0 0 1 523.66 750.08
  L 514.91 743.82
  A 0.32 0.31 -64.7 0 0 514.43 744.00
  L 513.22 748.33
  A 0.46 0.45 32.6 0 0 513.32 748.76
  Q 515.63 751.28 518.80 753.46
  Q 531.72 762.32 547.26 767.67
  A 4.67 4.66 44.6 0 0 550.37 767.65
  Q 568.13 761.22 583.64 749.28
  A 1.45 1.44 -26.2 0 0 584.15 747.79
  L 582.91 742.95
  A 0.62 0.62 0.0 0 0 581.92 742.62
  C 578.59 745.31 575.86 748.76 572.67 750.70
  Q 568.71 753.12 566.53 753.83
  A 0.53 0.53 0.0 0 1 566.01 752.94
  Q 568.28 750.81 570.56 749.58
  Q 573.42 748.05 582.36 740.20
  A 3.83 3.83 0.0 0 0 583.54 736.38
  L 583.27 735.33
  A 2.23 2.22 -27.6 0 0 579.66 734.20
  L 575.27 737.98
  A 2.01 1.84 12.5 0 1 574.68 738.32
  Q 573.08 738.87 573.07 738.88
  Q 564.64 742.36 553.03 745.76
  Q 548.81 747.00 544.93 745.81
  C 538.46 743.84 532.93 742.48 527.22 740.19
  C 523.54 738.71 519.89 738.19 517.43 734.77
  A 1.63 1.62 -40.2 0 0 514.96 734.57
  L 513.72 735.81
  A 1.15 1.15 0.0 0 0 513.42 736.92
  Q 514.39 740.56 516.02 742.52
  Q 516.69 743.32 520.32 746.09"
/>
<path stroke="#999da0" vector-effect="non-scaling-stroke" d="
  M 556.02 734.24
  Q 553.45 732.63 549.85 731.25
  A 1.43 1.42 10.5 0 1 548.93 729.92
  L 548.93 727.02
  A 0.97 0.96 -18.1 0 1 549.33 726.24
  L 554.38 722.46
  A 1.63 1.63 0.0 0 0 554.15 719.70
  C 551.10 718.14 546.31 718.48 543.03 719.14
  Q 542.23 719.30 541.56 720.13
  A 1.73 1.68 37.2 0 0 541.93 722.56
  Q 545.50 725.17 547.36 726.12
  A 0.93 0.92 -76.2 0 1 547.85 726.94
  L 547.85 729.88
  A 0.87 0.85 -15.3 0 1 547.42 730.62
  L 541.08 734.28
  A 0.32 0.32 0.0 0 0 540.96 734.71
  L 541.13 735.00
  A 0.64 0.63 -29.6 0 0 541.99 735.23
  L 547.54 732.02
  A 1.48 1.47 -45.2 0 1 549.00 732.01
  Q 553.14 734.34 555.58 735.16
  A 0.51 0.51 0.0 0 0 556.02 734.24"
/>
<path stroke="#999da0" vector-effect="non-scaling-stroke" d="
  M 548.50 725.37
  C 550.08 725.39 552.99 722.79 554.10 721.41
  A 0.58 0.57 -57.0 0 0 553.92 720.54
  Q 551.46 719.27 549.24 719.84
  Q 549.20 719.85 548.56 719.84
  Q 547.92 719.83 547.89 719.82
  Q 545.68 719.21 543.19 720.42
  A 0.58 0.57 58.2 0 0 542.99 721.29
  C 544.07 722.69 546.93 725.35 548.50 725.37"
/>
<path stroke="#276a97" vector-effect="non-scaling-stroke" d="
  M 534.83 752.33
  A 0.39 0.38 57.1 0 0 534.67 753.08
  L 546.22 756.86
  A 1.39 1.32 -36.2 0 0 546.76 756.93
  Q 553.35 756.63 560.25 752.44
  A 0.27 0.27 0.0 0 0 560.27 751.99
  L 559.94 751.76
  A 0.22 0.20 47.6 0 0 559.72 751.74
  C 553.52 754.95 547.39 755.79 540.78 753.92
  Q 535.40 752.40 534.83 752.33"
/>
</g>
<path fill="#363d44" d="
  M 537.00 676.18
  Q 536.14 676.06 535.98 675.52
  A 0.85 0.84 -11.0 0 1 536.71 674.44
  Q 540.90 674.02 543.76 673.69
  A 1.46 1.44 67.2 0 0 544.70 671.34
  Q 544.41 670.97 544.26 670.67
  A 0.41 0.41 0.0 0 1 544.71 670.08
  Q 547.80 670.76 548.26 671.07
  Q 550.11 672.30 552.08 672.99
  A 4.23 4.06 70.6 0 1 552.97 673.44
  Q 557.50 676.58 562.91 677.95
  A 0.71 0.71 0.0 0 0 563.77 677.46
  L 565.12 672.62
  A 1.01 1.01 0.0 0 1 566.37 671.92
  C 572.19 673.58 579.94 676.75 583.68 681.52
  A 0.99 0.99 0.0 0 1 583.71 682.72
  L 579.22 689.00
  A 1.27 1.26 51.1 0 0 579.09 690.26
  Q 581.72 696.13 583.64 704.58
  C 584.77 709.57 587.95 712.94 591.85 718.01
  A 0.59 0.59 0.0 0 1 591.71 718.86
  Q 590.10 719.94 588.37 720.01
  A 0.39 0.38 -23.8 0 0 588.11 720.67
  L 590.53 723.10
  A 0.79 0.79 0.0 0 1 590.53 724.22
  L 583.66 731.09
  A 1.54 1.54 0.0 0 0 583.66 733.27
  L 585.24 734.85
  A 2.38 2.36 -56.6 0 1 585.76 737.43
  L 584.47 740.58
  A 1.43 1.43 0.0 0 0 584.41 741.48
  Q 585.33 745.06 585.53 745.62
  C 586.60 748.62 586.33 749.62 583.62 751.64
  Q 568.83 762.68 551.78 769.02
  Q 548.92 770.08 545.32 768.84
  Q 537.45 766.14 528.90 761.60
  Q 520.68 757.23 513.61 751.64
  Q 511.46 749.95 511.19 749.07
  C 510.44 746.60 512.63 744.06 513.00 742.31
  A 2.05 2.05 0.0 0 0 512.73 740.80
  Q 511.29 738.51 511.06 736.04
  A 1.18 1.17 65.5 0 1 511.41 735.09
  L 513.51 732.98
  A 1.26 1.26 0.0 0 0 513.51 731.20
  L 506.68 724.37
  A 0.65 0.63 40.9 0 1 506.61 723.55
  L 508.77 720.53
  A 0.34 0.34 0.0 0 0 508.52 719.99
  Q 506.77 719.82 505.78 719.26
  A 1.14 1.13 -56.2 0 1 505.45 717.56
  Q 510.64 711.13 512.60 707.40
  A 1.00 0.95 -25.1 0 0 512.69 707.17
  L 516.20 694.60
  A 1.44 1.13 74.9 0 1 516.34 694.27
  Q 517.84 691.69 518.21 689.08
  A 1.20 1.20 0.0 0 0 517.87 688.07
  L 513.32 683.52
  A 1.95 1.94 46.7 0 1 513.40 680.69
  Q 519.38 675.40 526.85 672.83
  Q 529.04 672.08 531.18 671.86
  A 0.65 0.65 0.0 0 1 531.88 672.35
  L 533.26 677.72
  A 0.65 0.65 0.0 0 0 533.94 678.21
  Q 535.80 678.06 537.18 676.73
  A 0.32 0.32 0.0 0 0 537.00 676.18
  Z
  M 537.36 715.56
  A 0.16 0.16 0.0 0 0 537.68 715.55
  Q 538.28 709.37 536.56 703.47
  Q 535.05 698.27 528.75 693.49
  A 2.38 2.34 -24.5 0 0 527.46 693.02
  Q 524.69 692.89 521.56 694.08
  A 0.72 0.71 -15.5 0 0 521.10 694.88
  Q 521.39 696.63 522.29 697.78
  A 1.34 1.34 0.0 0 0 523.18 698.29
  Q 531.72 699.27 535.02 707.23
  Q 536.78 711.48 537.36 715.56
  Z
  M 561.80 706.65
  Q 561.96 706.54 562.08 706.32
  Q 565.83 699.02 574.13 698.42
  A 0.91 0.91 0.0 0 0 574.94 697.75
  L 575.72 694.97
  A 0.83 0.82 18.3 0 0 575.22 693.98
  Q 572.14 692.80 569.19 693.12
  A 2.19 2.11 25.3 0 0 568.27 693.43
  C 564.13 695.91 560.99 699.73 559.91 704.95
  Q 558.56 711.55 558.13 716.50
  A 0.41 0.40 -73.8 0 1 557.54 716.83
  C 548.24 711.89 540.35 715.26 532.70 721.33
  Q 526.00 726.64 529.23 734.14
  Q 529.47 734.70 531.98 738.78
  A 2.01 1.99 -4.2 0 0 532.93 739.59
  Q 540.48 742.74 547.79 743.91
  A 6.04 5.93 -45.6 0 0 549.85 743.87
  Q 557.70 742.35 563.95 739.53
  A 2.60 2.55 7.7 0 0 564.81 738.89
  C 569.39 733.64 570.78 726.17 564.56 721.71
  Q 562.16 719.98 559.30 717.90
  A 0.87 0.86 -71.3 0 1 558.94 717.16
  Q 559.18 712.76 561.32 707.29
  A 1.44 1.33 84.3 0 1 561.80 706.65
  Z
  M 526.10 714.47
  C 526.07 714.31 525.35 713.33 525.16 712.76
  Q 522.91 706.03 528.29 701.77
  A 0.24 0.23 -51.3 0 0 528.25 701.38
  Q 523.53 698.99 521.54 703.72
  Q 518.12 711.87 525.46 714.97
  A 0.46 0.46 0.0 0 0 526.10 714.47
  Z
  M 570.76 714.43
  A 0.46 0.46 0.0 0 0 571.40 714.94
  Q 578.75 711.88 575.37 703.72
  Q 573.41 698.99 568.68 701.35
  A 0.24 0.23 51.6 0 0 568.64 701.74
  Q 573.99 706.02 571.71 712.73
  C 571.52 713.30 570.79 714.28 570.76 714.43
  Z
  M 529.9915 704.3904
  A 2.16 1.79 -88.9 0 0 528.1603 706.5156
  A 2.16 1.79 -88.9 0 0 529.9085 708.7096
  A 2.16 1.79 -88.9 0 0 531.7397 706.5844
  A 2.16 1.79 -88.9 0 0 529.9915 704.3904
  Z
  M 567.1809 704.5016
  A 2.11 1.74 -81.8 0 0 565.1578 706.3418
  A 2.11 1.74 -81.8 0 0 566.5791 708.6784
  A 2.11 1.74 -81.8 0 0 568.6022 706.8382
  A 2.11 1.74 -81.8 0 0 567.1809 704.5016
  Z
  M 534.33 712.01
  L 533.44 715.20
  A 0.51 0.51 0.0 0 0 533.98 715.85
  C 534.70 715.78 535.29 715.49 535.39 714.69
  Q 535.55 713.43 534.98 711.98
  A 0.35 0.34 42.0 0 0 534.33 712.01
  Z
  M 563.53 714.74
  L 562.49 712.94
  A 0.45 0.45 0.0 0 0 561.71 712.95
  Q 560.91 714.42 562.13 715.77
  A 0.88 0.87 -81.2 0 0 563.53 714.74
  Z
  M 520.32 746.09
  Q 521.96 747.36 524.56 749.46
  A 0.25 0.25 0.0 0 1 524.46 749.90
  L 523.71 750.09
  A 0.05 0.05 0.0 0 1 523.66 750.08
  L 514.91 743.82
  A 0.32 0.31 -64.7 0 0 514.43 744.00
  L 513.22 748.33
  A 0.46 0.45 32.6 0 0 513.32 748.76
  Q 515.63 751.28 518.80 753.46
  Q 531.72 762.32 547.26 767.67
  A 4.67 4.66 44.6 0 0 550.37 767.65
  Q 568.13 761.22 583.64 749.28
  A 1.45 1.44 -26.2 0 0 584.15 747.79
  L 582.91 742.95
  A 0.62 0.62 0.0 0 0 581.92 742.62
  C 578.59 745.31 575.86 748.76 572.67 750.70
  Q 568.71 753.12 566.53 753.83
  A 0.53 0.53 0.0 0 1 566.01 752.94
  Q 568.28 750.81 570.56 749.58
  Q 573.42 748.05 582.36 740.20
  A 3.83 3.83 0.0 0 0 583.54 736.38
  L 583.27 735.33
  A 2.23 2.22 -27.6 0 0 579.66 734.20
  L 575.27 737.98
  A 2.01 1.84 12.5 0 1 574.68 738.32
  Q 573.08 738.87 573.07 738.88
  Q 564.64 742.36 553.03 745.76
  Q 548.81 747.00 544.93 745.81
  C 538.46 743.84 532.93 742.48 527.22 740.19
  C 523.54 738.71 519.89 738.19 517.43 734.77
  A 1.63 1.62 -40.2 0 0 514.96 734.57
  L 513.72 735.81
  A 1.15 1.15 0.0 0 0 513.42 736.92
  Q 514.39 740.56 516.02 742.52
  Q 516.69 743.32 520.32 746.09
  Z"
/>
<path fill="#fcfcfb" d="
  M 537.36 715.56
  Q 536.78 711.48 535.02 707.23
  Q 531.72 699.27 523.18 698.29
  A 1.34 1.34 0.0 0 1 522.29 697.78
  Q 521.39 696.63 521.10 694.88
  A 0.72 0.71 -15.5 0 1 521.56 694.08
  Q 524.69 692.89 527.46 693.02
  A 2.38 2.34 -24.5 0 1 528.75 693.49
  Q 535.05 698.27 536.56 703.47
  Q 538.28 709.37 537.68 715.55
  A 0.16 0.16 0.0 0 1 537.36 715.56
  Z"
/>
<path fill="#fcfcfb" d="
  M 561.32 707.29
  Q 559.18 712.76 558.94 717.16
  A 0.87 0.86 -71.3 0 0 559.30 717.90
  Q 562.16 719.98 564.56 721.71
  C 570.78 726.17 569.39 733.64 564.81 738.89
  A 2.60 2.55 7.7 0 1 563.95 739.53
  Q 557.70 742.35 549.85 743.87
  A 6.04 5.93 -45.6 0 1 547.79 743.91
  Q 540.48 742.74 532.93 739.59
  A 2.01 1.99 -4.2 0 1 531.98 738.78
  Q 529.47 734.70 529.23 734.14
  Q 526.00 726.64 532.70 721.33
  C 540.35 715.26 548.24 711.89 557.54 716.83
  A 0.41 0.40 -73.8 0 0 558.13 716.50
  Q 558.56 711.55 559.91 704.95
  C 560.99 699.73 564.13 695.91 568.27 693.43
  A 2.19 2.11 25.3 0 1 569.19 693.12
  Q 572.14 692.80 575.22 693.98
  A 0.83 0.82 18.3 0 1 575.72 694.97
  L 574.94 697.75
  A 0.91 0.91 0.0 0 1 574.13 698.42
  Q 565.83 699.02 562.08 706.32
  Q 561.96 706.54 561.80 706.65
  A 1.44 1.33 84.3 0 0 561.32 707.29
  Z
  M 556.02 734.24
  Q 553.45 732.63 549.85 731.25
  A 1.43 1.42 10.5 0 1 548.93 729.92
  L 548.93 727.02
  A 0.97 0.96 -18.1 0 1 549.33 726.24
  L 554.38 722.46
  A 1.63 1.63 0.0 0 0 554.15 719.70
  C 551.10 718.14 546.31 718.48 543.03 719.14
  Q 542.23 719.30 541.56 720.13
  A 1.73 1.68 37.2 0 0 541.93 722.56
  Q 545.50 725.17 547.36 726.12
  A 0.93 0.92 -76.2 0 1 547.85 726.94
  L 547.85 729.88
  A 0.87 0.85 -15.3 0 1 547.42 730.62
  L 541.08 734.28
  A 0.32 0.32 0.0 0 0 540.96 734.71
  L 541.13 735.00
  A 0.64 0.63 -29.6 0 0 541.99 735.23
  L 547.54 732.02
  A 1.48 1.47 -45.2 0 1 549.00 732.01
  Q 553.14 734.34 555.58 735.16
  A 0.51 0.51 0.0 0 0 556.02 734.24
  Z"
/>
<path fill="#fcfcfb" d="
  M 525.46 714.97
  Q 518.12 711.87 521.54 703.72
  Q 523.53 698.99 528.25 701.38
  A 0.24 0.23 -51.3 0 1 528.29 701.77
  Q 522.91 706.03 525.16 712.76
  C 525.35 713.33 526.07 714.31 526.10 714.47
  A 0.46 0.46 0.0 0 1 525.46 714.97
  Z"
/>
<path fill="#fcfcfb" d="
  M 570.76 714.43
  C 570.79 714.28 571.52 713.30 571.71 712.73
  Q 573.99 706.02 568.64 701.74
  A 0.24 0.23 51.6 0 1 568.68 701.35
  Q 573.41 698.99 575.37 703.72
  Q 578.75 711.88 571.40 714.94
  A 0.46 0.46 0.0 0 1 570.76 714.43
  Z"
/>
<ellipse fill="#fcfcfb" cx="0.00" cy="0.00" transform="translate(529.95,706.55) rotate(-88.9)" rx="2.16" ry="1.79"/>
<ellipse fill="#fcfcfb" cx="0.00" cy="0.00" transform="translate(566.88,706.59) rotate(-81.8)" rx="2.11" ry="1.74"/>
<path fill="#fcfcfb" d="
  M 534.98 711.98
  Q 535.55 713.43 535.39 714.69
  C 535.29 715.49 534.70 715.78 533.98 715.85
  A 0.51 0.51 0.0 0 1 533.44 715.20
  L 534.33 712.01
  A 0.35 0.34 42.0 0 1 534.98 711.98
  Z"
/>
<path fill="#fcfcfb" d="
  M 563.53 714.74
  A 0.88 0.87 -81.2 0 1 562.13 715.77
  Q 560.91 714.42 561.71 712.95
  A 0.45 0.45 0.0 0 1 562.49 712.94
  L 563.53 714.74
  Z"
/>
<path fill="#363d44" d="
  M 556.02 734.24
  A 0.51 0.51 0.0 0 1 555.58 735.16
  Q 553.14 734.34 549.00 732.01
  A 1.48 1.47 -45.2 0 0 547.54 732.02
  L 541.99 735.23
  A 0.64 0.63 -29.6 0 1 541.13 735.00
  L 540.96 734.71
  A 0.32 0.32 0.0 0 1 541.08 734.28
  L 547.42 730.62
  A 0.87 0.85 -15.3 0 0 547.85 729.88
  L 547.85 726.94
  A 0.93 0.92 -76.2 0 0 547.36 726.12
  Q 545.50 725.17 541.93 722.56
  A 1.73 1.68 37.2 0 1 541.56 720.13
  Q 542.23 719.30 543.03 719.14
  C 546.31 718.48 551.10 718.14 554.15 719.70
  A 1.63 1.63 0.0 0 1 554.38 722.46
  L 549.33 726.24
  A 0.97 0.96 -18.1 0 0 548.93 727.02
  L 548.93 729.92
  A 1.43 1.42 10.5 0 0 549.85 731.25
  Q 553.45 732.63 556.02 734.24
  Z
  M 548.50 725.37
  C 550.08 725.39 552.99 722.79 554.10 721.41
  A 0.58 0.57 -57.0 0 0 553.92 720.54
  Q 551.46 719.27 549.24 719.84
  Q 549.20 719.85 548.56 719.84
  Q 547.92 719.83 547.89 719.82
  Q 545.68 719.21 543.19 720.42
  A 0.58 0.57 58.2 0 0 542.99 721.29
  C 544.07 722.69 546.93 725.35 548.50 725.37
  Z"
/>
<path fill="#fcfcfb" d="
  M 548.56 719.84
  Q 549.20 719.85 549.24 719.84
  Q 551.46 719.27 553.92 720.54
  A 0.58 0.57 -57.0 0 1 554.10 721.41
  C 552.99 722.79 550.08 725.39 548.50 725.37
  C 546.93 725.35 544.07 722.69 542.99 721.29
  A 0.58 0.57 58.2 0 1 543.19 720.42
  Q 545.68 719.21 547.89 719.82
  Q 547.92 719.83 548.56 719.84
  Z"
/>
<path fill="#1797e9" d="
  M 516.02 742.52
  Q 514.39 740.56 513.42 736.92
  A 1.15 1.15 0.0 0 1 513.72 735.81
  L 514.96 734.57
  A 1.63 1.62 -40.2 0 1 517.43 734.77
  C 519.89 738.19 523.54 738.71 527.22 740.19
  C 532.93 742.48 538.46 743.84 544.93 745.81
  Q 548.81 747.00 553.03 745.76
  Q 564.64 742.36 573.07 738.88
  Q 573.08 738.87 574.68 738.32
  A 2.01 1.84 12.5 0 0 575.27 737.98
  L 579.66 734.20
  A 2.23 2.22 -27.6 0 1 583.27 735.33
  L 583.54 736.38
  A 3.83 3.83 0.0 0 1 582.36 740.20
  Q 573.42 748.05 570.56 749.58
  Q 568.28 750.81 566.01 752.94
  A 0.53 0.53 0.0 0 0 566.53 753.83
  Q 568.71 753.12 572.67 750.70
  C 575.86 748.76 578.59 745.31 581.92 742.62
  A 0.62 0.62 0.0 0 1 582.91 742.95
  L 584.15 747.79
  A 1.45 1.44 -26.2 0 1 583.64 749.28
  Q 568.13 761.22 550.37 767.65
  A 4.67 4.66 44.6 0 1 547.26 767.67
  Q 531.72 762.32 518.80 753.46
  Q 515.63 751.28 513.32 748.76
  A 0.46 0.45 32.6 0 1 513.22 748.33
  L 514.43 744.00
  A 0.32 0.31 -64.7 0 1 514.91 743.82
  L 523.66 750.08
  A 0.05 0.05 0.0 0 0 523.71 750.09
  L 524.46 749.90
  A 0.25 0.25 0.0 0 0 524.56 749.46
  Q 521.96 747.36 520.32 746.09
  Q 516.69 743.32 516.02 742.52
  Z
  M 534.83 752.33
  A 0.39 0.38 57.1 0 0 534.67 753.08
  L 546.22 756.86
  A 1.39 1.32 -36.2 0 0 546.76 756.93
  Q 553.35 756.63 560.25 752.44
  A 0.27 0.27 0.0 0 0 560.27 751.99
  L 559.94 751.76
  A 0.22 0.20 47.6 0 0 559.72 751.74
  C 553.52 754.95 547.39 755.79 540.78 753.92
  Q 535.40 752.40 534.83 752.33
  Z"
/>
<path fill="#363d44" d="
  M 534.83 752.33
  Q 535.40 752.40 540.78 753.92
  C 547.39 755.79 553.52 754.95 559.72 751.74
  A 0.22 0.20 47.6 0 1 559.94 751.76
  L 560.27 751.99
  A 0.27 0.27 0.0 0 1 560.25 752.44
  Q 553.35 756.63 546.76 756.93
  A 1.39 1.32 -36.2 0 1 546.22 756.86
  L 534.67 753.08
  A 0.39 0.38 57.1 0 1 534.83 752.33
  Z"
/>
</svg>
