<?xml version="1.0" encoding="UTF-8" standalone="no"?>
<!DOCTYPE svg PUBLIC "-//W3C//DTD SVG 1.1//EN" "http://www.w3.org/Graphics/SVG/1.1/DTD/svg11.dtd">
<svg xmlns="http://www.w3.org/2000/svg" version="1.1" viewBox="0.00 0.00 1080.00 1080.00">
<g stroke-width="2.00" fill="none" stroke-linecap="butt">
<path stroke="#2e323b" vector-effect="non-scaling-stroke" d="
  M 233.79 726.69
  L 241.87 719.78
  A 3.54 3.53 -4.3 0 0 242.61 718.92
  Q 249.24 708.26 250.45 705.13
  Q 252.52 699.81 254.76 690.68
  Q 256.36 684.12 255.99 680.52
  A 1.01 1.01 0.0 0 0 254.33 679.85
  Q 251.35 682.39 249.27 685.91
  A 0.76 0.66 85.9 0 1 249.15 686.07
  L 235.55 701.23
  A 5.31 5.27 68.6 0 0 234.21 704.33
  C 233.94 707.67 234.04 710.02 233.59 713.17
  Q 232.71 719.37 233.28 726.48
  A 0.31 0.31 0.0 0 0 233.79 726.69"
/>
<path stroke="#6e555a" vector-effect="non-scaling-stroke" d="
  M 276.00 734.07
  A 0.33 0.33 0.0 0 0 276.53 734.40
  Q 280.91 730.68 288.64 725.37
  Q 295.68 720.53 298.14 718.41
  Q 302.47 714.67 303.56 712.56
  Q 307.24 705.38 314.35 687.90
  Q 315.41 685.28 316.09 682.50
  A 0.53 0.53 0.0 0 0 315.26 681.95
  Q 310.98 685.10 298.53 695.32
  C 291.98 700.70 287.86 705.47 284.88 712.14
  Q 281.10 720.57 277.13 730.38
  Q 276.62 731.63 276.00 734.07"
/>
<path stroke="#6e555a" vector-effect="non-scaling-stroke" d="
  M 240.21 742.03
  L 243.47 739.67
  A 0.40 0.40 0.0 0 1 244.09 740.10
  Q 243.84 741.11 244.22 742.27"
/>
<path stroke="#2e323b" vector-effect="non-scaling-stroke" d="
  M 244.22 742.27
  L 243.95 743.71
  A 0.37 0.37 0.0 0 1 243.50 744.00
  L 243.20 743.93
  A 0.57 0.56 13.0 0 1 242.78 743.26
  Q 242.86 742.91 242.87 742.70
  A 0.32 0.32 0.0 0 0 242.37 742.43
  L 235.62 747.20
  A 0.55 0.55 0.0 0 1 234.77 746.63
  L 236.25 740.35
  A 0.43 0.43 0.0 0 0 235.70 739.84
  L 228.95 741.97
  A 1.71 1.59 15.0 0 0 228.46 742.23
  Q 225.97 744.19 224.80 746.96"
/>
<path stroke="#909196" vector-effect="non-scaling-stroke" d="
  M 224.80 746.96
  Q 222.79 748.83 223.37 751.25
  Q 223.65 752.45 226.76 753.93
  A 0.51 0.51 0.0 0 1 227.02 754.19
  Q 227.50 755.32 228.20 755.86
  A 2.03 2.01 9.4 0 1 228.91 756.84
  Q 230.71 761.98 230.07 766.86"
/>
<path stroke="#2e323b" vector-effect="non-scaling-stroke" d="
  M 230.07 766.86
  Q 224.67 767.86 225.64 765.19"
/>
<path stroke="#909196" vector-effect="non-scaling-stroke" d="
  M 225.64 765.19
  Q 224.03 760.86 225.62 756.93
  Q 226.03 755.92 225.83 755.52
  Q 225.45 754.75 224.70 754.57
  A 0.61 0.61 0.0 0 0 223.95 755.14
  L 223.69 762.37"
/>
<path stroke="#2e323b" vector-effect="non-scaling-stroke" d="
  M 223.69 762.37
  L 217.15 771.09
  A 0.59 0.59 0.0 0 0 217.29 771.93
  Q 217.78 772.26 218.53 772.13
  A 0.97 0.87 -77.2 0 1 219.35 773.60
  Q 218.35 775.25 218.31 776.80
  A 1.82 1.80 -61.7 0 0 218.63 777.89
  Q 222.71 783.89 228.79 786.63"
/>
<path stroke="#909196" vector-effect="non-scaling-stroke" d="
  M 228.79 786.63
  L 243.21 794.20
  A 4.74 4.71 -42.1 0 0 247.17 794.39
  L 256.05 790.81
  A 1.11 1.09 9.4 0 0 256.49 790.50
  Q 258.85 787.73 260.13 784.29"
/>
<path stroke="#2e323b" vector-effect="non-scaling-stroke" d="
  M 260.13 784.29
  Q 269.53 782.42 274.79 778.05
  Q 276.81 776.36 281.46 769.53
  A 0.85 0.84 -66.1 0 1 282.35 769.18
  L 284.03 769.57
  A 0.76 0.76 0.0 0 0 284.66 768.22
  L 283.21 767.14
  A 0.95 0.93 -71.7 0 1 282.84 766.39
  Q 282.83 765.33 284.07 764.78
  A 0.44 0.44 0.0 0 0 284.09 763.98
  L 277.43 760.57
  A 0.10 0.09 23.7 0 1 277.38 760.45
  Q 278.47 757.40 277.94 755.37
  Q 276.67 750.54 275.79 745.74
  A 2.45 2.15 28.4 0 0 275.52 745.01
  L 272.96 740.55
  A 3.06 3.04 43.2 0 1 272.86 737.69
  C 274.47 734.38 275.53 732.27 276.18 729.73
  C 277.33 725.31 279.19 722.09 280.84 717.71
  Q 283.55 710.55 288.16 702.91
  Q 289.71 700.34 293.86 697.29
  A 5.00 4.98 -86.3 0 0 294.63 696.61
  Q 299.00 691.96 304.11 688.59
  C 306.34 687.11 309.34 684.25 311.02 682.55
  A 0.39 0.39 0.0 0 0 310.78 681.89
  Q 308.68 681.68 307.10 683.06
  Q 306.91 683.22 305.91 683.86
  Q 302.68 685.93 289.56 695.09
  A 6.42 6.28 -87.6 0 0 288.22 696.35
  Q 285.86 699.29 283.35 703.36
  Q 272.01 721.77 265.97 732.19
  A 0.36 0.36 0.0 0 1 265.52 732.34
  L 265.51 732.34
  A 0.48 0.46 21.9 0 1 265.25 731.75
  Q 265.60 730.77 265.58 730.18
  A 0.94 0.93 -84.2 0 0 264.88 729.31
  Q 254.16 726.61 242.46 725.51
  A 0.45 0.45 0.0 0 0 242.14 726.32
  L 244.75 728.27
  A 0.77 0.77 0.0 0 1 244.48 729.64
  L 232.92 732.52
  A 0.35 0.35 0.0 0 0 232.66 732.78
  L 232.60 733.07
  A 0.19 0.19 0.0 0 0 232.78 733.31
  L 236.07 733.44
  A 0.55 0.55 0.0 0 1 236.40 734.41
  L 230.64 739.18
  A 0.36 0.36 0.0 0 0 230.96 739.81
  L 237.03 738.29
  A 0.65 0.65 0.0 0 1 237.82 739.07
  L 236.60 744.26
  A 0.37 0.37 0.0 0 0 237.13 744.67
  Q 239.54 743.37 240.21 742.03"
/>
<path stroke="#9b9ea2" vector-effect="non-scaling-stroke" d="
  M 260.13 784.29
  C 260.54 775.55 255.90 770.81 248.28 767.55"
/>
<path stroke="#796266" vector-effect="non-scaling-stroke" d="
  M 248.28 767.55
  Q 248.29 766.54 248.51 766.54"
/>
<path stroke="#2e323b" vector-effect="non-scaling-stroke" d="
  M 248.51 766.54
  L 248.72 767.02
  A 0.78 0.78 0.0 0 0 249.54 767.47
  Q 251.96 767.10 253.65 767.23
  C 259.18 767.62 266.53 765.09 269.74 760.50
  A 2.18 2.10 -25.5 0 0 270.10 759.54
  Q 270.73 753.78 267.71 749.32"
/>
<path stroke="#796266" vector-effect="non-scaling-stroke" d="
  M 267.71 749.32
  L 269.59 746.28"
/>
<path stroke="#9b9ea2" vector-effect="non-scaling-stroke" d="
  M 269.59 746.28
  L 269.86 745.92
  A 0.47 0.47 0.0 0 0 269.69 745.22
  Q 266.15 743.43 262.99 743.01
  A 2.52 2.51 -51.9 0 0 261.71 743.17
  C 257.11 744.99 250.49 749.88 247.97 754.66
  A 5.89 5.43 67.9 0 0 247.46 756.02
  L 245.32 765.12
  A 0.68 0.68 0.0 0 1 244.49 765.62
  Q 237.98 763.88 231.81 765.76
  A 0.58 0.57 79.1 0 1 231.07 765.25
  Q 230.69 760.61 230.42 757.53
  C 230.05 753.28 227.87 750.20 224.80 746.96"
/>
<path stroke="#796266" vector-effect="non-scaling-stroke" d="
  M 244.22 742.27
  L 249.53 738.60
  A 0.24 0.24 0.0 0 0 249.53 738.21
  L 249.13 737.91
  A 0.10 0.10 0.0 0 0 249.01 737.92
  Q 247.64 739.07 245.72 739.41
  A 0.53 0.53 0.0 0 1 245.10 738.87
  Q 245.11 738.47 244.83 738.20
  Q 244.49 737.88 243.63 738.35
  Q 241.44 739.55 240.21 742.03"
/>
<path stroke="#6e555a" vector-effect="non-scaling-stroke" d="
  M 267.71 749.32
  L 267.00 749.91
  A 1.23 1.22 -61.6 0 1 266.14 750.17
  C 260.63 749.69 257.57 751.78 253.39 754.90
  Q 251.55 756.27 250.93 758.19
  Q 250.37 759.88 248.51 766.54"
/>
<path stroke="#dbc1c1" vector-effect="non-scaling-stroke" d="
  M 269.59 746.28
  L 268.48 746.02
  A 1.86 1.82 -45.6 0 0 267.52 746.04
  Q 258.08 748.67 250.42 754.80
  A 1.31 1.30 77.1 0 0 249.95 755.55
  Q 248.55 761.66 247.33 766.23
  Q 247.07 767.23 248.28 767.55"
/>
<path stroke="#9b9ea2" vector-effect="non-scaling-stroke" d="
  M 228.79 786.63
  Q 226.42 782.33 225.05 779.09
  Q 223.62 775.68 225.62 772.67
  Q 227.42 769.97 230.07 766.86"
/>
<path stroke="#9b9ea2" vector-effect="non-scaling-stroke" d="
  M 225.64 765.19
  Q 224.43 764.86 223.69 762.37"
/>
<path stroke="#194870" vector-effect="non-scaling-stroke" d="
  M 321.40 737.47
  Q 317.90 744.05 314.25 750.54
  Q 312.33 753.94 308.57 756.57
  Q 296.29 765.13 292.40 767.79
  A 0.71 0.71 0.0 0 0 292.32 768.89
  L 293.12 769.65
  A 0.87 0.86 -40.0 0 0 294.20 769.74
  L 313.51 757.11
  A 0.55 0.47 -83.3 0 0 313.65 756.98
  Q 314.59 755.87 315.62 754.87
  A 0.04 0.04 0.0 0 1 315.68 754.87
  L 315.90 755.07
  A 0.20 0.20 0.0 0 1 315.91 755.34
  Q 312.07 759.67 309.29 761.54
  Q 300.82 767.24 294.29 772.21
  A 0.26 0.26 0.0 0 0 294.53 772.66
  Q 303.12 769.51 309.75 763.00
  Q 314.03 758.79 319.64 752.68
  A 2.05 2.03 59.1 0 0 320.11 750.77
  Q 318.04 743.10 323.65 739.64
  A 3.23 3.23 0.0 0 1 324.13 739.40
  Q 326.13 738.57 326.32 738.33
  C 329.59 734.15 332.88 730.69 338.69 734.04
  A 1.60 1.60 0.0 0 0 340.43 733.95
  Q 342.94 732.11 349.96 727.72
  Q 355.00 724.58 359.74 723.95
  Q 365.94 723.14 372.00 722.13"
/>
<path stroke="#1d608e" vector-effect="non-scaling-stroke" d="
  M 372.00 722.13
  L 407.44 717.71"
/>
<path stroke="#194870" vector-effect="non-scaling-stroke" d="
  M 407.44 717.71
  Q 407.97 718.00 408.39 717.85
  A 0.27 0.26 -33.6 0 0 408.48 717.41
  L 399.62 709.02
  A 2.64 2.63 34.8 0 1 399.06 705.96
  L 402.96 697.89"
/>
<path stroke="#1d608e" vector-effect="non-scaling-stroke" d="
  M 402.96 697.89
  L 405.03 694.33
  A 0.51 0.51 0.0 0 0 404.43 693.59
  Q 395.65 696.40 384.33 699.90
  C 379.88 701.28 375.73 701.85 371.61 703.25
  C 366.65 704.94 358.14 706.08 352.48 709.24
  Q 346.70 712.46 330.00 725.25
  Q 326.73 727.75 325.95 729.20
  Q 323.70 733.36 321.40 737.47"
/>
<path stroke="#1283cf" vector-effect="non-scaling-stroke" d="
  M 402.96 697.89
  C 400.51 699.48 398.17 701.04 395.43 701.95
  Q 386.22 705.05 375.32 709.39
  C 371.79 710.79 367.85 711.29 364.37 713.24
  A 0.37 0.37 0.0 0 0 364.57 713.93
  Q 383.14 712.97 401.66 714.15
  Q 405.65 714.40 407.44 717.71"
/>
<path stroke="#1283cf" vector-effect="non-scaling-stroke" d="
  M 372.00 722.13
  Q 360.32 719.30 348.37 721.44
  C 343.36 722.34 336.83 723.03 333.06 726.82
  Q 327.83 732.08 323.83 736.08
  Q 323.28 736.63 322.85 737.58
  A 0.57 0.56 4.7 0 1 322.50 737.87
  Q 321.87 738.05 321.40 737.47"
/>
<path stroke="#909196" vector-effect="non-scaling-stroke" d="
  M 331.41 737.53
  A 0.23 0.23 0.0 0 1 331.39 737.86
  C 330.20 738.95 330.40 740.07 331.85 740.90
  Q 334.35 742.33 334.96 743.34
  A 0.91 0.91 0.0 0 0 336.58 743.20
  L 338.41 738.62
  A 2.30 2.29 29.6 0 0 337.67 735.94
  C 334.25 733.30 330.72 735.20 328.63 738.32
  A 0.49 0.48 -86.0 0 0 329.24 739.03
  Q 330.09 738.61 330.89 737.55
  A 0.33 0.33 0.0 0 1 331.40 737.53
  L 331.41 737.53"
/>
<path stroke="#909196" vector-effect="non-scaling-stroke" d="
  M 339.35 740.82
  Q 338.87 743.34 336.74 745.02
  A 1.62 1.61 72.0 0 0 336.13 746.22
  Q 336.04 748.26 333.98 750.12
  A 0.63 0.63 0.0 0 0 333.95 751.03
  Q 335.41 752.52 337.54 751.93
  Q 342.38 750.62 344.34 745.10
  A 3.20 3.19 31.6 0 0 343.53 741.72
  L 341.76 740.04
  A 1.45 1.44 -62.9 0 0 339.35 740.82"
/>
<path stroke="#6e555a" vector-effect="non-scaling-stroke" d="
  M 322.16 753.48
  L 308.85 766.78
  A 6.88 6.42 4.7 0 1 307.75 767.65
  Q 300.02 772.44 293.11 778.54"
/>
<path stroke="#2e323b" vector-effect="non-scaling-stroke" d="
  M 293.11 778.54
  Q 288.70 787.14 290.35 797.25
  A 0.37 0.37 0.0 0 0 290.94 797.48
  Q 295.03 794.33 298.20 791.21
  Q 307.14 782.41 312.48 778.49
  Q 313.26 777.92 315.33 775.36
  Q 321.18 768.12 327.15 761.05"
/>
<path stroke="#909196" vector-effect="non-scaling-stroke" d="
  M 327.15 761.05
  L 331.89 762.80
  A 1.64 1.61 -49.1 0 0 333.25 762.69
  C 335.63 761.34 338.86 761.03 340.88 758.63
  A 0.38 0.38 0.0 0 0 340.56 758.01
  Q 337.15 758.20 336.73 755.26
  A 2.16 1.98 58.5 0 0 332.99 754.19
  Q 332.08 755.67 329.95 756.23
  A 0.18 0.18 0.0 0 1 329.79 755.91
  Q 332.57 753.82 332.08 751.89
  A 0.87 0.86 84.4 0 0 331.30 751.24
  Q 328.31 751.01 325.88 748.16
  A 0.50 0.50 0.0 0 1 326.26 747.34
  Q 326.52 747.33 327.00 747.70"
/>
<path stroke="#6e555a" vector-effect="non-scaling-stroke" d="
  M 327.00 747.70
  C 329.52 750.04 333.18 750.90 334.12 746.29"
/>
<path stroke="#909196" vector-effect="non-scaling-stroke" d="
  M 334.12 746.29
  Q 334.40 744.91 332.45 743.30
  Q 330.08 741.34 328.20 740.59
  A 2.32 2.26 52.1 0 0 327.11 740.44
  C 321.19 741.13 320.38 747.56 322.34 752.18
  Q 322.48 752.51 322.42 752.83
  Q 322.36 753.19 322.16 753.48"
/>
<path stroke="#dbc1c1" vector-effect="non-scaling-stroke" d="
  M 334.12 746.29
  L 328.31 746.95
  A 0.69 0.51 17.0 0 0 328.08 747.03
  L 327.00 747.70"
/>
<path stroke="#9b9ea2" vector-effect="non-scaling-stroke" d="
  M 327.15 761.05
  Q 324.58 759.18 322.59 755.21"
/>
<path stroke="#dbc1c1" vector-effect="non-scaling-stroke" d="
  M 322.59 755.21
  L 322.16 753.48"
/>
<path stroke="#796266" vector-effect="non-scaling-stroke" d="
  M 322.59 755.21
  L 308.95 768.34
  A 0.63 0.57 -81.4 0 1 308.79 768.47
  L 293.11 778.54"
/>
<path stroke="#909196" vector-effect="non-scaling-stroke" d="
  M 345.11 747.18
  Q 342.95 751.37 338.88 753.15
  A 1.73 1.50 57.9 0 0 338.49 755.68
  Q 339.57 757.05 341.35 756.62
  Q 345.98 755.51 347.05 751.06
  Q 347.68 748.39 345.86 747.01
  A 0.50 0.50 0.0 0 0 345.11 747.18"
/>
<path stroke="#194870" vector-effect="non-scaling-stroke" d="
  M 335.07 777.37
  L 323.00 778.11
  A 1.08 1.06 -69.8 0 0 322.26 778.46
  L 317.09 783.91
  A 0.49 0.49 0.0 0 0 317.37 784.73
  Q 320.72 785.26 332.53 786.89
  Q 335.04 787.23 336.07 786.83
  Q 341.86 784.54 355.48 778.00
  C 357.97 776.80 361.04 774.79 364.05 773.42"
/>
<path stroke="#1d608e" vector-effect="non-scaling-stroke" d="
  M 364.05 773.42
  L 374.22 769.06"
/>
<path stroke="#194870" vector-effect="non-scaling-stroke" d="
  M 374.22 769.06
  L 401.36 776.99
  A 0.57 0.57 0.0 0 0 402.08 776.31
  Q 401.62 774.47 400.51 772.94"
/>
<path stroke="#1d608e" vector-effect="non-scaling-stroke" d="
  M 400.51 772.94
  Q 399.76 770.14 397.51 767.17"
/>
<path stroke="#194870" vector-effect="non-scaling-stroke" d="
  M 397.51 767.17
  Q 399.95 762.48 405.27 757.71"
/>
<path stroke="#1d608e" vector-effect="non-scaling-stroke" d="
  M 405.27 757.71
  L 407.87 754.92
  A 0.62 0.61 -70.0 0 0 407.39 753.88
  L 373.10 755.90
  A 4.60 4.55 -61.3 0 0 371.06 756.51
  L 335.07 777.37"
/>
<path stroke="#1283cf" vector-effect="non-scaling-stroke" d="
  M 405.27 757.71
  Q 398.88 758.53 392.92 758.98
  C 388.11 759.35 383.73 760.43 379.11 761.06
  A 0.53 0.53 0.0 0 0 379.04 762.09
  L 397.51 767.17"
/>
<path stroke="#1283cf" vector-effect="non-scaling-stroke" d="
  M 400.51 772.94
  Q 395.57 772.34 389.52 770.72
  Q 382.34 768.80 374.22 769.06"
/>
<path stroke="#1283cf" vector-effect="non-scaling-stroke" d="
  M 364.05 773.42
  Q 359.44 774.24 355.02 775.54
  Q 348.74 777.38 346.02 777.64
  Q 340.63 778.14 335.07 777.37"
/>
<path stroke="#909196" vector-effect="non-scaling-stroke" d="
  M 227.93 759.74
  Q 228.05 759.16 227.58 758.19
  A 0.42 0.42 0.0 0 0 226.86 758.13
  Q 226.20 759.06 226.33 759.77
  A 0.83 0.80 -45.3 0 0 227.93 759.74"
/>
<path stroke="#909196" vector-effect="non-scaling-stroke" d="
  M 177.90 767.57
  Q 177.26 766.83 177.27 766.47
  A 0.31 0.31 0.0 0 1 177.79 766.26
  Q 178.95 767.35 180.50 766.79
  A 0.48 0.48 0.0 0 0 180.58 765.93
  C 178.85 764.93 175.51 763.60 173.58 764.39
  Q 170.68 765.57 170.81 768.72
  Q 170.95 772.19 174.31 773.66
  A 0.54 0.54 0.0 0 0 174.99 773.43
  L 177.96 768.29
  A 0.63 0.61 -50.7 0 0 177.90 767.57"
/>
<path stroke="#2e323b" vector-effect="non-scaling-stroke" d="
  M 189.03 787.16
  Q 197.90 788.53 203.49 791.02
  Q 218.67 797.79 229.84 799.52
  A 0.53 0.53 0.0 0 0 230.43 799.12
  L 230.76 797.69
  A 1.17 1.16 -68.6 0 0 230.21 796.41
  L 227.53 794.86
  A 1.64 1.63 21.8 0 1 226.76 793.07
  L 227.56 789.68
  A 0.84 0.84 0.0 0 0 227.20 788.79
  L 225.01 787.34"
/>
<path stroke="#6e555a" vector-effect="non-scaling-stroke" d="
  M 225.01 787.34
  Q 223.12 785.69 220.55 785.21
  Q 206.93 782.63 194.21 776.96"
/>
<path stroke="#2e323b" vector-effect="non-scaling-stroke" d="
  M 194.21 776.96
  Q 193.38 776.69 192.55 777.08"
/>
<path stroke="#909196" vector-effect="non-scaling-stroke" d="
  M 192.55 777.08
  Q 191.15 774.40 190.09 771.63
  C 188.92 768.58 185.55 765.97 182.30 767.25
  C 178.95 768.57 177.37 771.76 176.66 775.05
  A 2.35 2.34 11.6 0 0 178.51 777.84
  C 181.64 778.47 183.00 775.40 184.98 773.26
  A 0.31 0.31 0.0 0 1 185.51 773.56
  Q 184.92 775.61 182.63 778.55
  A 1.34 1.32 -38.4 0 0 182.46 779.92
  Q 183.25 781.69 185.30 783.52
  A 0.32 0.32 0.0 0 1 185.02 784.08
  Q 181.72 783.32 181.23 780.26
  A 0.51 0.51 0.0 0 0 180.22 780.26
  Q 179.90 782.28 178.33 783.21
  A 0.82 0.81 -23.3 0 0 177.96 784.13
  Q 178.44 785.86 177.06 787.61
  A 0.48 0.48 0.0 0 0 177.21 788.33
  Q 178.57 789.07 180.26 789.29
  Q 186.87 790.15 189.03 787.16"
/>
<path stroke="#9b9ea2" vector-effect="non-scaling-stroke" d="
  M 192.55 777.08
  L 189.03 787.16"
/>
<path stroke="#796266" vector-effect="non-scaling-stroke" d="
  M 194.21 776.96
  Q 193.11 776.94 194.59 777.95
  Q 196.11 778.98 197.84 779.65
  Q 210.95 784.73 225.01 787.34"
/>
<path stroke="#909196" vector-effect="non-scaling-stroke" d="
  M 168.24 771.23
  L 167.21 773.72
  A 4.54 4.51 -50.3 0 0 167.58 777.87
  Q 170.97 783.16 177.59 781.67
  A 1.15 1.14 -37.0 0 0 177.89 779.55
  Q 176.20 778.62 175.06 776.58
  A 2.64 2.64 0.0 0 0 173.69 775.40
  Q 170.58 774.23 169.91 771.36
  A 0.88 0.88 0.0 0 0 168.24 771.23"
/>
<path stroke="#2e323b" vector-effect="non-scaling-stroke" d="
  M 237.24 805.40
  L 237.54 807.92"
/>
<path stroke="#194870" vector-effect="non-scaling-stroke" d="
  M 237.54 807.92
  Q 238.79 811.56 239.05 810.84"
/>
<path stroke="#1d608e" vector-effect="non-scaling-stroke" d="
  M 239.05 810.84
  Q 242.74 818.89 247.98 824.26
  Q 250.33 826.67 250.78 828.53
  Q 251.79 832.79 252.65 836.30"
/>
<path stroke="#194870" vector-effect="non-scaling-stroke" d="
  M 252.65 836.30
  Q 260.11 842.55 270.53 844.96"
/>
<path stroke="#2e323b" vector-effect="non-scaling-stroke" d="
  M 270.53 844.96
  Q 270.53 845.80 273.74 845.79"
/>
<path stroke="#194870" vector-effect="non-scaling-stroke" d="
  M 273.74 845.79
  Q 280.02 846.96 286.06 845.10
  Q 302.58 840.04 309.94 824.53
  A 1.87 1.85 37.5 0 0 309.66 822.50
  C 304.75 816.82 300.51 812.51 298.81 805.37
  A 0.31 0.31 0.0 0 0 298.20 805.42
  L 298.00 810.29
  A 0.94 0.94 0.0 0 1 297.21 811.18
  C 288.39 812.60 283.11 804.57 281.56 796.82"
/>
<path stroke="#2e323b" vector-effect="non-scaling-stroke" d="
  M 281.56 796.82
  L 280.91 794.74"
/>
<path stroke="#194870" vector-effect="non-scaling-stroke" d="
  M 280.91 794.74
  Q 285.63 785.68 291.44 777.58
  A 1.91 1.90 -48.2 0 0 291.31 775.19
  Q 290.91 774.74 290.69 774.14
  A 1.05 1.05 0.0 0 0 288.93 773.78
  Q 282.09 781.14 276.25 784.22
  Q 267.50 788.84 249.23 795.48
  C 247.08 796.26 244.31 796.42 242.12 795.63
  Q 236.21 793.52 229.73 789.78
  A 0.63 0.63 0.0 0 0 228.81 790.18
  L 228.30 792.38
  A 1.44 1.43 22.1 0 0 228.96 793.94
  L 233.21 796.51
  A 0.48 0.48 0.0 0 1 233.00 797.40
  Q 232.91 797.41 232.88 797.41
  A 0.47 0.46 4.0 0 0 232.45 797.78
  C 231.70 801.45 234.19 803.83 237.24 805.40"
/>
<path stroke="#24557c" vector-effect="non-scaling-stroke" d="
  M 280.91 794.74
  L 276.30 801.86
  A 0.85 0.54 -84.2 0 1 276.19 802.00
  Q 274.72 803.59 271.95 805.19
  Q 266.56 808.31 259.87 811.78
  C 256.16 813.70 253.87 815.21 250.78 813.77
  Q 246.91 811.97 237.24 805.40"
/>
<path stroke="#24557c" vector-effect="non-scaling-stroke" d="
  M 281.56 796.82
  Q 277.43 803.90 275.51 805.03
  Q 266.64 810.26 257.55 815.12
  A 0.83 0.81 -14.9 0 0 257.11 815.86
  Q 257.16 817.39 258.03 818.35"
/>
<path stroke="#286d99" vector-effect="non-scaling-stroke" d="
  M 258.03 818.35
  L 262.28 824.72"
/>
<path stroke="#24557c" vector-effect="non-scaling-stroke" d="
  M 262.28 824.72
  Q 262.37 825.87 263.35 826.73
  A 1.14 1.10 -12.2 0 0 263.59 826.88
  L 265.81 827.74
  A 0.81 0.81 0.0 0 1 266.31 828.63
  L 265.97 830.83"
/>
<path stroke="#286d99" vector-effect="non-scaling-stroke" d="
  M 265.97 830.83
  L 269.16 838.83"
/>
<path stroke="#24557c" vector-effect="non-scaling-stroke" d="
  M 269.16 838.83
  Q 270.54 842.85 273.74 845.79"
/>
<path stroke="#24557c" vector-effect="non-scaling-stroke" d="
  M 270.53 844.96
  L 266.61 838.46"
/>
<path stroke="#286d99" vector-effect="non-scaling-stroke" d="
  M 266.61 838.46
  L 263.50 829.11"
/>
<path stroke="#24557c" vector-effect="non-scaling-stroke" d="
  M 263.50 829.11
  Q 261.84 828.17 261.82 827.02"
/>
<path stroke="#286d99" vector-effect="non-scaling-stroke" d="
  M 261.82 827.02
  L 256.02 818.50"
/>
<path stroke="#24557c" vector-effect="non-scaling-stroke" d="
  M 256.02 818.50
  Q 255.79 817.45 255.13 816.74
  A 1.79 1.76 70.9 0 0 254.04 816.20
  L 252.41 815.97
  A 6.38 6.38 0.0 0 1 249.94 815.07
  L 237.73 807.59
  A 0.09 0.09 0.0 0 0 237.60 807.65
  Q 237.57 807.84 237.54 807.92"
/>
<path stroke="#1283cf" vector-effect="non-scaling-stroke" d="
  M 269.16 838.83
  Q 275.70 840.90 282.43 840.64
  C 288.12 840.41 292.96 838.46 298.14 836.78
  A 0.81 0.81 0.0 0 0 298.42 835.39
  C 296.11 833.40 294.74 831.45 292.35 830.13
  Q 289.95 828.80 287.48 826.74
  A 0.52 0.51 -10.0 0 1 288.07 825.90
  L 291.97 828.16
  A 0.59 0.59 0.0 0 0 292.81 827.43
  L 291.21 823.35
  A 0.93 0.89 -79.0 0 0 291.00 823.02
  Q 284.25 816.20 282.01 812.27
  Q 281.10 810.66 279.09 807.22
  A 1.24 1.23 58.5 0 0 277.37 806.80
  L 266.49 813.66
  A 6.30 5.88 16.0 0 1 265.43 814.20
  Q 261.40 815.80 258.03 818.35"
/>
<path stroke="#1283cf" vector-effect="non-scaling-stroke" d="
  M 265.97 830.83
  Q 269.36 828.68 275.31 828.85
  Q 276.38 828.88 280.21 826.91
  A 0.26 0.26 0.0 0 0 280.20 826.44
  Q 279.36 826.07 278.03 826.19
  Q 273.71 826.59 269.50 826.86
  Q 264.74 827.18 262.28 824.72"
/>
<path stroke="#1283cf" vector-effect="non-scaling-stroke" d="
  M 256.02 818.50
  L 252.50 818.25
  A 1.90 1.88 -27.8 0 1 251.68 818.00
  L 239.05 810.84"
/>
<path stroke="#1283cf" vector-effect="non-scaling-stroke" d="
  M 261.82 827.02
  L 254.95 826.93
  A 0.33 0.33 0.0 0 0 254.80 827.56
  Q 258.76 829.54 263.50 829.11"
/>
<path stroke="#1283cf" vector-effect="non-scaling-stroke" d="
  M 266.61 838.46
  L 252.65 836.30"
/>
<path stroke="#909196" vector-effect="non-scaling-stroke" d="
  M 166.62 782.07
  A 3.24 3.22 -64.0 0 0 167.39 784.32
  Q 170.37 787.80 175.08 787.01
  A 1.54 1.52 -3.8 0 0 176.36 785.57
  L 176.40 784.67
  A 1.20 1.20 0.0 0 0 175.13 783.43
  Q 170.34 783.70 167.80 780.40
  A 0.63 0.63 0.0 0 0 166.67 780.76
  L 166.62 782.07"
/>
<path stroke="#909196" vector-effect="non-scaling-stroke" d="
  M 323.71 827.22
  L 321.79 830.89
  A 1.12 1.11 28.8 0 0 322.23 832.38
  L 322.53 832.56
  A 1.49 1.49 0.0 0 0 324.57 832.01
  Q 326.96 827.86 327.94 823.96
  Q 328.26 822.67 326.90 821.83
  A 0.87 0.87 0.0 0 1 326.49 821.19
  L 325.65 814.72
  A 1.77 1.76 -71.5 0 0 325.15 813.71
  L 317.61 806.08"
/>
<path stroke="#2e323b" vector-effect="non-scaling-stroke" d="
  M 317.61 806.08
  C 314.15 811.35 314.47 815.10 315.85 821.18
  A 0.73 0.72 -4.7 0 0 316.52 821.74
  Q 319.74 821.89 321.88 823.61
  A 0.81 0.79 -58.4 0 1 322.10 824.58
  Q 322.03 824.73 322.03 824.80
  A 1.36 0.96 34.0 0 0 322.40 825.77
  L 323.71 827.22"
/>
<path stroke="#9b9ea2" vector-effect="non-scaling-stroke" d="
  M 317.61 806.08
  L 320.50 818.40
  A 0.53 0.53 0.0 0 0 321.44 818.59
  L 322.40 817.30
  A 0.58 0.58 0.0 0 1 323.44 817.63
  L 323.71 827.22"
/>
<path stroke="#909196" vector-effect="non-scaling-stroke" d="
  M 233.35 866.38
  Q 232.92 865.61 231.81 865.20
  Q 228.40 863.92 222.12 862.15
  Q 218.07 861.02 215.75 861.29
  C 211.79 861.75 207.10 863.75 207.78 868.53"
/>
<path stroke="#6e555a" vector-effect="non-scaling-stroke" d="
  M 207.78 868.53
  C 208.89 872.42 213.10 874.35 216.80 875.83
  A 0.17 0.17 0.0 0 1 216.72 876.16
  C 211.58 875.75 207.14 873.36 206.30 867.94
  A 0.34 0.34 0.0 0 0 205.65 867.88
  C 203.95 872.73 207.23 874.17 211.20 876.49
  Q 217.52 880.19 224.97 882.28
  A 1.46 1.43 -50.8 0 0 226.05 882.16
  Q 230.56 879.79 233.63 875.48"
/>
<path stroke="#2e323b" vector-effect="non-scaling-stroke" d="
  M 233.63 875.48
  L 256.32 883.67
  A 0.72 0.72 0.0 0 0 257.24 882.73
  Q 254.91 876.73 254.11 869.69
  C 253.54 864.76 252.52 859.73 251.65 855.71
  A 0.48 0.47 83.6 0 1 252.11 855.13
  Q 260.24 855.11 270.47 853.43
  A 3.56 3.40 40.0 0 1 271.26 853.38
  L 275.47 853.55
  A 6.55 6.44 54.9 0 1 277.21 853.87
  Q 287.44 857.25 299.28 857.98
  A 0.43 0.43 0.0 0 0 299.74 857.52
  L 299.55 854.25
  A 0.33 0.33 0.0 0 1 300.17 854.08
  C 302.35 858.34 305.12 859.92 309.67 862.06
  C 314.16 864.16 316.61 865.67 322.19 868.82
  C 328.37 872.31 332.92 873.33 339.30 870.60
  A 2.17 2.17 0.0 0 0 340.61 868.45
  Q 340.01 859.67 335.62 852.96
  C 330.99 845.88 320.47 839.45 312.40 835.61
  A 1.48 1.47 -48.1 0 0 310.98 835.69
  C 306.86 838.27 302.90 841.79 299.47 843.93
  Q 281.92 854.81 262.22 844.26
  Q 255.18 840.50 252.99 838.70
  A 2.52 2.48 -28.9 0 0 251.06 838.16
  Q 239.79 839.66 231.33 845.24
  A 2.29 2.28 69.8 0 0 230.32 847.44
  L 231.54 856.80
  A 3.85 3.84 -63.9 0 0 232.03 858.24
  C 234.08 861.68 236.79 863.02 239.34 865.62
  Q 242.52 868.88 247.79 871.00
  A 0.51 0.50 -85.1 0 1 248.11 871.39
  Q 248.17 871.68 248.06 871.74
  Q 247.15 872.18 246.28 871.71
  Q 239.59 868.10 233.35 866.38"
/>
<path stroke="#796266" vector-effect="non-scaling-stroke" d="
  M 233.63 875.48
  Q 233.67 875.09 233.83 874.93"
/>
<path stroke="#9b9ea2" vector-effect="non-scaling-stroke" d="
  M 233.83 874.93
  Q 235.04 871.28 233.35 866.38"
/>
<path stroke="#dbc1c1" vector-effect="non-scaling-stroke" d="
  M 233.83 874.93
  Q 225.02 870.30 215.63 867.89"
/>
<path stroke="#909196" vector-effect="non-scaling-stroke" d="
  M 215.63 867.89
  Q 216.01 864.99 219.18 863.63
  A 0.17 0.16 38.2 0 0 219.14 863.32
  Q 216.67 862.85 215.18 864.92
  Q 214.42 865.97 213.73 868.04"
/>
<path stroke="#dbc1c1" vector-effect="non-scaling-stroke" d="
  M 213.73 868.04
  Q 210.37 867.20 207.78 868.53"
/>
<path stroke="#6e555a" vector-effect="non-scaling-stroke" d="
  M 215.63 867.89
  C 215.72 870.46 218.76 872.53 220.50 874.19
  A 0.24 0.24 0.0 0 1 220.25 874.58
  Q 215.42 872.69 213.73 868.04"
/>
<path stroke="#909196" vector-effect="non-scaling-stroke" d="
  M 357.95 898.46
  L 364.93 909.91"
/>
<path stroke="#6e555a" vector-effect="non-scaling-stroke" d="
  M 364.93 909.91
  C 366.57 913.15 369.50 913.00 372.47 913.12
  A 0.26 0.25 70.8 0 0 372.67 912.70
  L 370.21 909.75"
/>
<path stroke="#909196" vector-effect="non-scaling-stroke" d="
  M 370.21 909.75
  Q 368.53 907.84 368.19 905.88
  A 0.20 0.20 0.0 0 1 368.52 905.69
  Q 370.93 907.74 372.45 910.63"
/>
<path stroke="#6e555a" vector-effect="non-scaling-stroke" d="
  M 372.45 910.63
  Q 381.60 917.29 383.48 906.85
  A 0.77 0.77 0.0 0 0 383.15 906.07
  L 378.69 903.09"
/>
<path stroke="#909196" vector-effect="non-scaling-stroke" d="
  M 378.69 903.09
  Q 376.38 901.44 375.41 899.07
  A 0.23 0.23 0.0 0 1 375.77 898.81
  L 380.20 902.37"
/>
<path stroke="#6e555a" vector-effect="non-scaling-stroke" d="
  M 380.20 902.37
  L 383.41 904.54
  A 0.28 0.27 -66.8 0 0 383.83 904.37
  Q 384.74 900.01 382.40 896.37
  Q 381.12 894.39 375.63 890.33"
/>
<path stroke="#909196" vector-effect="non-scaling-stroke" d="
  M 375.63 890.33
  Q 374.88 889.02 372.47 887.15"
/>
<path stroke="#2e323b" vector-effect="non-scaling-stroke" d="
  M 372.47 887.15
  Q 364.71 880.93 354.97 877.29
  A 0.47 0.47 0.0 0 0 354.35 877.59
  Q 350.98 888.50 357.95 898.46"
/>
<path stroke="#9b9ea2" vector-effect="non-scaling-stroke" d="
  M 372.47 887.15
  Q 362.99 888.66 357.95 898.46"
/>
<path stroke="#dbc1c1" vector-effect="non-scaling-stroke" d="
  M 375.63 890.33
  Q 379.94 896.61 381.16 900.97
  Q 381.54 902.30 380.20 902.37"
/>
<path stroke="#dbc1c1" vector-effect="non-scaling-stroke" d="
  M 378.69 903.09
  Q 378.51 903.83 378.84 905.77
  Q 379.27 908.22 376.62 908.97
  Q 374.73 909.51 372.45 910.63"
/>
<path stroke="#dbc1c1" vector-effect="non-scaling-stroke" d="
  M 370.21 909.75
  Q 367.78 910.49 364.93 909.91"
/>
<path stroke="#dbc1c1" vector-effect="non-scaling-stroke" d="
  M 291.32 707.24
  L 295.25 706.26
  A 0.47 0.47 0.0 0 1 295.71 707.04
  L 286.03 717.27
  A 0.49 0.48 -67.6 0 0 286.37 718.09
  Q 288.62 718.14 290.38 717.36
  A 0.32 0.32 0.0 0 1 290.76 717.85
  L 284.96 725.48
  A 0.09 0.08 -52.5 0 0 284.97 725.60
  L 285.15 725.77
  A 0.14 0.14 0.0 0 0 285.33 725.78
  L 298.55 714.36
  A 0.31 0.31 0.0 0 0 298.31 713.81
  L 294.35 714.33
  A 0.56 0.56 0.0 0 1 293.87 713.39
  L 303.64 703.07
  A 0.53 0.52 18.0 0 0 303.19 702.19
  L 300.13 702.58
  A 0.57 0.57 0.0 0 1 299.60 701.67
  L 305.39 693.91
  A 0.30 0.29 -3.4 0 0 304.95 693.52
  L 291.00 706.64
  A 0.35 0.35 0.0 0 0 291.32 707.24"
/>
<path stroke="#9b9ea2" vector-effect="non-scaling-stroke" d="
  M 235.74 776.15
  L 240.71 772.64
  A 1.60 1.60 0.0 0 0 240.13 769.77
  Q 236.10 768.89 230.66 769.70
  A 1.57 1.56 67.8 0 0 229.63 772.17
  Q 231.30 774.50 233.45 775.78
  A 1.51 1.49 -85.9 0 1 234.08 776.52
  L 234.91 778.73
  A 1.58 1.57 76.1 0 1 233.64 780.85
  L 231.06 781.19
  A 0.57 0.57 0.0 0 0 230.95 782.30
  Q 231.79 782.58 233.04 782.33
  A 1.20 1.17 -23.7 0 1 234.21 782.77
  L 240.20 790.74
  A 1.30 1.19 -2.3 0 0 240.60 791.08
  C 245.01 793.56 248.64 790.32 250.70 786.32
  C 252.30 783.22 251.81 778.50 253.39 774.91
  A 0.55 0.54 -71.5 0 0 253.02 774.16
  L 252.65 774.08
  A 0.35 0.35 0.0 0 0 252.22 774.39
  Q 252.14 775.25 251.14 776.37
  Q 244.73 783.47 236.66 779.65
  A 1.06 1.05 2.4 0 1 236.14 779.09
  L 235.42 777.18
  A 0.88 0.88 0.0 0 1 235.74 776.15"
/>
<path stroke="#909196" vector-effect="non-scaling-stroke" d="
  M 263.06 758.09
  Q 263.60 760.88 262.78 763.94
  A 0.25 0.25 0.0 0 0 263.11 764.24
  Q 269.80 761.56 267.48 757.48"
/>
<path stroke="#6e555a" vector-effect="non-scaling-stroke" d="
  M 267.48 757.48
  L 264.86 752.58
  A 1.52 1.51 -17.5 0 0 263.33 751.79
  L 260.79 752.12
  A 0.55 0.54 -25.1 0 0 260.46 753.03
  Q 262.22 754.95 263.06 758.09"
/>
<path stroke="#dbc1c1" vector-effect="non-scaling-stroke" d="
  M 267.48 757.48
  Q 265.87 757.14 264.75 757.06
  Q 263.64 756.99 263.06 758.09"
/>
<path stroke="#909196" vector-effect="non-scaling-stroke" d="
  M 259.4011 756.2422
  A 1.18 1.18 0.0 0 0 258.2231 755.0602
  L 258.0231 755.0598
  A 1.18 1.18 0.0 0 0 256.8411 756.2378
  L 256.8389 757.4578
  A 1.18 1.18 0.0 0 0 258.0169 758.6398
  L 258.2169 758.6402
  A 1.18 1.18 0.0 0 0 259.3989 757.4622
  L 259.4011 756.2422"
/>
<path stroke="#909196" vector-effect="non-scaling-stroke" d="
  M 250.81 765.88
  L 256.14 765.81
  A 0.29 0.28 -18.3 0 0 256.37 765.36
  Q 255.22 763.73 254.70 761.51"
/>
<path stroke="#6e555a" vector-effect="non-scaling-stroke" d="
  M 254.70 761.51
  Q 254.11 758.78 254.78 756.29
  A 0.38 0.38 0.0 0 0 254.11 755.97
  Q 250.49 760.82 250.81 765.88"
/>
<path stroke="#dbc1c1" vector-effect="non-scaling-stroke" d="
  M 254.70 761.51
  Q 253.36 759.80 250.81 765.88"
/>
<path stroke="#796266" vector-effect="non-scaling-stroke" d="
  M 230.90 770.97
  A 0.51 0.51 0.0 0 0 230.67 771.78
  Q 232.31 773.70 234.27 774.72
  A 1.71 1.69 40.8 0 0 236.01 774.60
  L 239.70 771.99
  A 0.68 0.67 -54.5 0 0 239.50 770.79
  Q 235.27 769.60 230.90 770.97"
/>
<path stroke="#9b9ea2" vector-effect="non-scaling-stroke" d="
  M 238.17 784.27
  L 239.25 782.75
  A 0.44 0.44 0.0 0 0 239.14 782.14
  L 239.01 782.05
  A 3.52 1.27 35.3 0 0 235.41 781.05
  L 235.29 781.21
  A 3.52 1.27 35.3 0 0 237.43 784.28
  L 237.56 784.37
  A 0.44 0.44 0.0 0 0 238.17 784.27"
/>
<path stroke="#796266" vector-effect="non-scaling-stroke" d="
  M 241.99 789.91
  Q 243.42 791.51 246.92 789.12
  Q 249.33 787.47 250.58 782.58
  A 0.20 0.14 -61.1 0 0 250.56 782.42
  Q 250.55 782.40 250.45 782.29
  Q 250.34 782.17 250.33 782.16
  A 0.20 0.14 -23.0 0 0 250.17 782.13
  Q 245.18 782.86 243.29 785.09
  Q 240.55 788.32 241.99 789.91"
/>
<path stroke="#1283cf" vector-effect="non-scaling-stroke" d="
  M 269.51 797.44
  L 267.41 799.41
  A 1.53 1.52 21.4 0 1 266.49 799.81
  Q 261.31 800.14 255.96 802.14
  A 0.62 0.62 0.0 0 1 255.13 801.67
  Q 255.08 801.35 255.39 801.14
  Q 258.42 799.08 263.88 796.34
  A 2.54 2.21 -75.5 0 0 264.26 796.08
  L 273.14 788.38
  A 0.06 0.06 0.0 0 0 273.15 788.30
  L 273.00 788.09
  A 0.26 0.26 0.0 0 0 272.65 788.00
  Q 264.77 792.36 255.65 795.88
  Q 241.59 801.31 230.21 791.23
  A 0.54 0.53 22.2 0 0 229.32 791.60
  L 229.30 792.01
  A 1.30 1.28 -71.1 0 0 229.82 793.09
  L 234.78 796.70
  A 1.21 0.94 -7.0 0 0 234.93 796.79
  Q 237.63 797.94 239.89 799.57
  Q 244.79 803.08 250.02 803.62
  C 252.57 803.88 255.10 802.67 257.80 802.91
  A 0.26 0.26 0.0 0 1 257.89 803.40
  Q 250.14 807.29 242.15 803.08
  Q 238.77 801.30 233.76 797.98
  A 0.52 0.52 0.0 0 0 233.00 798.64
  C 233.84 800.43 234.24 801.55 236.08 802.81
  Q 244.15 808.32 248.69 810.32
  C 253.54 812.45 256.83 810.50 261.10 808.34
  C 268.72 804.47 273.26 801.94 276.20 794.80
  A 0.48 0.48 0.0 0 0 275.42 794.27
  Q 274.25 795.40 272.65 794.97"
/>
<path stroke="#24557c" vector-effect="non-scaling-stroke" d="
  M 272.65 794.97
  Q 277.55 790.40 280.27 787.03
  Q 284.68 781.54 285.33 781.06
  A 0.21 0.20 -45.7 0 0 285.33 780.73
  L 285.10 780.56
  A 0.18 0.18 0.0 0 0 284.86 780.58
  L 268.95 796.71
  A 0.43 0.43 0.0 0 0 269.17 797.43
  Q 269.32 797.45 269.51 797.44"
/>
<path stroke="#286d99" vector-effect="non-scaling-stroke" d="
  M 272.65 794.97
  Q 271.52 796.33 269.51 797.44"
/>
</g>
<path fill="#23252f" d="
  M 262.98 671.67
  C 263.30 673.84 262.54 675.38 262.30 677.18
  Q 260.63 689.67 256.95 706.75
  Q 255.06 715.53 250.52 723.80
  A 0.84 0.83 -72.6 0 0 251.16 725.03
  Q 258.12 725.76 265.66 728.15
  A 1.11 1.09 -65.6 0 0 266.93 727.66
  Q 277.74 709.49 282.67 701.67
  C 285.35 697.43 286.90 695.21 291.08 692.46
  Q 299.30 687.06 300.05 686.57
  Q 316.10 676.17 321.85 672.16
  A 0.40 0.40 0.0 0 1 322.48 672.48
  Q 322.52 674.38 321.85 676.22
  Q 321.16 678.11 321.02 678.57
  Q 314.99 698.47 306.17 716.04
  A 10.14 10.13 -6.4 0 1 303.56 719.31
  L 282.38 736.85
  A 1.75 1.75 0.0 0 0 281.86 738.80
  L 288.11 755.35
  A 1.27 0.95 -81.8 0 0 288.23 755.57
  Q 291.87 760.59 293.08 761.80
  Q 294.52 763.24 293.17 764.19
  A 0.47 0.46 -37.6 0 0 293.08 764.86
  L 293.27 765.08
  A 0.26 0.26 0.0 0 0 293.62 765.13
  L 310.10 753.49
  A 7.98 7.97 -3.0 0 0 312.45 750.88
  Q 315.73 744.97 322.84 731.13
  Q 324.82 727.27 327.69 724.98
  Q 339.14 715.87 351.28 708.01
  Q 353.00 706.90 355.19 706.03
  Q 359.06 704.50 359.25 704.57
  Q 359.58 704.69 364.34 703.50
  Q 384.45 698.47 406.28 691.30
  Q 407.19 691.01 407.69 691.06
  A 0.65 0.65 0.0 0 1 408.19 692.01
  Q 404.09 699.42 400.90 705.70
  Q 399.92 707.62 401.29 708.92
  Q 405.52 712.94 411.80 718.19
  A 0.47 0.46 66.6 0 1 411.48 719.01
  Q 409.13 718.86 407.11 719.52
  A 2.39 1.96 -50.7 0 1 406.61 719.62
  L 397.48 720.20
  A 1.35 1.09 24.7 0 0 397.16 720.28
  C 394.78 721.31 391.90 720.74 389.43 721.47
  C 386.93 722.21 384.15 721.90 381.54 722.32
  Q 372.45 723.78 367.28 724.27
  Q 367.24 724.27 366.29 724.59
  A 5.32 5.25 31.4 0 1 365.18 724.85
  Q 357.90 725.75 356.65 726.21
  Q 351.40 728.15 341.31 735.20
  A 1.55 1.55 0.0 0 0 340.70 736.06
  Q 340.32 737.43 342.30 738.32
  Q 343.82 739.00 345.69 742.00
  A 1.54 1.49 -61.6 0 1 345.91 742.79
  Q 345.92 744.30 347.32 745.94
  Q 348.37 747.18 348.79 749.15
  C 349.78 753.83 344.35 757.75 340.89 760.65
  Q 339.30 761.98 335.01 763.61
  A 1.19 1.10 7.4 0 0 334.53 763.95
  L 324.91 775.31
  A 0.54 0.54 0.0 0 0 325.34 776.20
  L 333.18 775.99
  A 1.07 1.03 30.8 0 0 333.65 775.88
  C 342.55 771.80 351.96 765.55 359.60 760.85
  Q 365.77 757.05 372.22 754.49
  A 4.74 4.52 -56.9 0 1 373.41 754.21
  Q 392.46 752.54 411.57 752.95
  A 0.39 0.39 0.0 0 1 411.82 753.63
  Q 406.39 758.34 401.34 763.58
  C 399.23 765.78 399.40 766.91 400.70 769.55
  Q 403.38 775.04 405.38 779.47
  A 0.22 0.21 -3.7 0 1 405.12 779.76
  Q 385.18 773.38 382.08 772.58
  C 379.16 771.83 376.06 770.69 372.99 771.16
  A 2.07 1.94 -59.4 0 0 372.41 771.33
  L 339.45 787.31
  A 7.38 7.36 -59.9 0 1 336.73 788.04
  Q 330.86 788.45 326.74 787.70
  Q 321.32 786.73 316.02 786.00
  A 2.27 2.26 25.5 0 0 314.06 786.69
  L 300.04 801.49
  A 1.01 0.99 -25.1 0 0 299.77 802.22
  Q 299.84 803.95 300.62 805.26
  A 1.65 1.59 -68.0 0 1 300.83 805.78
  Q 302.10 811.25 306.44 815.80
  A 0.29 0.28 32.8 0 0 306.92 815.70
  L 308.03 812.48
  A 0.72 0.72 0.0 0 1 308.74 811.99
  L 310.51 812.07
  A 1.15 1.15 0.0 0 0 311.43 811.66
  Q 313.76 808.85 314.61 806.85
  Q 315.70 804.28 316.09 803.72
  A 0.59 0.58 35.3 0 1 316.92 803.58
  Q 321.00 806.60 321.91 807.70
  Q 324.66 811.05 326.37 812.87
  A 1.78 1.71 -72.7 0 1 326.84 813.81
  L 327.93 820.20
  A 0.96 0.95 10.8 0 0 328.40 820.88
  L 329.23 821.36
  A 0.75 0.74 19.1 0 1 329.59 822.09
  Q 328.79 828.64 324.92 833.54
  A 1.02 1.01 -51.3 0 0 325.07 834.96
  C 330.65 839.52 336.16 843.74 339.91 849.58
  Q 342.42 853.47 347.22 863.54
  A 0.81 0.80 78.2 0 0 347.91 864.00
  L 350.29 864.10
  A 1.51 1.48 66.9 0 1 351.25 864.50
  L 382.90 894.48
  A 7.31 7.31 0.0 0 1 384.99 898.08
  Q 385.74 901.15 385.50 904.17
  C 385.02 910.16 384.11 914.72 376.76 914.88
  C 370.68 915.01 365.59 915.01 362.22 909.26
  Q 360.30 905.98 354.08 896.90
  Q 348.34 888.52 340.87 880.64
  A 1.83 1.81 67.7 0 0 339.56 880.08
  L 328.27 880.05
  A 1.20 1.19 60.7 0 1 327.64 879.87
  Q 326.61 879.24 324.80 878.69
  A 4.77 3.53 -14.8 0 1 324.12 878.42
  Q 315.22 873.94 308.21 870.15
  Q 303.16 867.42 299.64 866.16
  Q 293.36 863.90 290.63 863.36
  C 285.16 862.28 278.18 863.70 272.37 864.13
  A 3.91 3.27 29.6 0 0 271.60 864.27
  Q 269.51 864.93 267.76 865.04
  C 265.38 865.19 263.84 865.85 261.80 866.02
  A 0.97 0.97 0.0 0 0 260.93 867.16
  Q 262.26 874.36 264.07 881.24
  Q 265.49 886.59 264.78 888.40
  C 262.81 893.42 254.91 891.42 250.46 890.56
  Q 230.95 886.78 213.39 879.85
  C 210.13 878.57 202.97 874.31 203.67 870.20
  Q 204.90 862.84 212.27 860.15
  Q 214.08 859.48 218.86 859.74
  Q 221.83 859.90 225.27 861.12
  Q 231.78 863.43 233.06 863.92
  A 0.32 0.31 80.4 0 0 233.41 863.42
  L 230.39 859.76
  A 1.44 1.40 -72.6 0 1 230.10 859.19
  Q 228.58 853.23 228.48 847.24
  Q 228.44 844.76 230.54 843.35
  Q 234.17 840.93 241.00 838.51
  Q 245.71 836.85 250.69 836.89
  A 0.35 0.34 -7.4 0 0 251.03 836.45
  Q 250.25 833.84 248.94 828.25
  Q 248.62 826.88 246.67 824.94
  C 243.05 821.32 240.00 816.70 237.55 812.12
  A 2.34 2.33 78.6 0 0 235.72 810.90
  Q 234.34 810.76 232.88 810.12
  Q 225.93 807.03 218.22 804.47
  C 211.26 802.17 206.73 799.98 199.20 797.05
  Q 193.14 794.69 185.94 791.23
  A 3.00 2.98 54.3 0 0 184.26 790.95
  Q 179.45 791.54 175.20 789.30
  A 2.49 2.46 58.8 0 0 174.12 789.03
  Q 170.92 789.01 168.03 787.23
  C 163.48 784.43 165.76 780.30 165.24 776.42
  Q 164.66 772.07 168.40 768.95
  A 1.48 1.46 74.4 0 0 168.91 768.03
  C 169.46 763.85 172.85 761.28 177.14 762.67
  Q 180.12 763.64 181.81 764.65
  A 2.74 2.71 -28.3 0 0 183.16 765.05
  Q 188.34 765.20 191.10 769.94
  Q 192.06 771.57 192.96 773.88
  A 2.56 2.52 0.5 0 0 194.40 775.32
  Q 203.60 778.97 212.94 781.50
  Q 218.15 782.92 219.75 783.14
  A 0.36 0.36 0.0 0 0 220.09 782.56
  L 216.29 777.59
  A 0.67 0.66 42.8 0 1 216.26 776.83
  Q 216.37 776.67 216.95 774.71
  Q 217.44 773.04 215.23 772.91
  A 0.47 0.47 0.0 0 1 214.85 772.20
  Q 217.34 767.86 220.49 763.53
  C 222.61 760.61 221.71 755.29 221.38 751.04
  A 5.66 5.60 -31.5 0 1 222.23 747.59
  Q 226.76 740.45 231.65 735.72
  A 0.46 0.46 0.0 0 0 231.38 734.94
  Q 228.51 734.65 227.30 733.97
  A 0.40 0.40 0.0 0 1 227.36 733.24
  L 230.44 732.07
  A 1.27 1.26 81.3 0 0 231.26 730.94
  L 232.26 706.78
  A 1.65 1.63 -30.6 0 1 232.42 706.17
  Q 233.08 704.91 233.01 703.75
  A 3.68 3.65 63.7 0 1 233.87 701.18
  Q 246.53 686.26 259.74 673.25
  Q 260.50 672.49 262.34 671.37
  A 0.42 0.42 0.0 0 1 262.98 671.67
  Z
  M 233.79 726.69
  L 241.87 719.78
  A 3.54 3.53 -4.3 0 0 242.61 718.92
  Q 249.24 708.26 250.45 705.13
  Q 252.52 699.81 254.76 690.68
  Q 256.36 684.12 255.99 680.52
  A 1.01 1.01 0.0 0 0 254.33 679.85
  Q 251.35 682.39 249.27 685.91
  A 0.76 0.66 85.9 0 1 249.15 686.07
  L 235.55 701.23
  A 5.31 5.27 68.6 0 0 234.21 704.33
  C 233.94 707.67 234.04 710.02 233.59 713.17
  Q 232.71 719.37 233.28 726.48
  A 0.31 0.31 0.0 0 0 233.79 726.69
  Z
  M 276.00 734.07
  A 0.33 0.33 0.0 0 0 276.53 734.40
  Q 280.91 730.68 288.64 725.37
  Q 295.68 720.53 298.14 718.41
  Q 302.47 714.67 303.56 712.56
  Q 307.24 705.38 314.35 687.90
  Q 315.41 685.28 316.09 682.50
  A 0.53 0.53 0.0 0 0 315.26 681.95
  Q 310.98 685.10 298.53 695.32
  C 291.98 700.70 287.86 705.47 284.88 712.14
  Q 281.10 720.57 277.13 730.38
  Q 276.62 731.63 276.00 734.07
  Z
  M 240.21 742.03
  L 243.47 739.67
  A 0.40 0.40 0.0 0 1 244.09 740.10
  Q 243.84 741.11 244.22 742.27
  L 243.95 743.71
  A 0.37 0.37 0.0 0 1 243.50 744.00
  L 243.20 743.93
  A 0.57 0.56 13.0 0 1 242.78 743.26
  Q 242.86 742.91 242.87 742.70
  A 0.32 0.32 0.0 0 0 242.37 742.43
  L 235.62 747.20
  A 0.55 0.55 0.0 0 1 234.77 746.63
  L 236.25 740.35
  A 0.43 0.43 0.0 0 0 235.70 739.84
  L 228.95 741.97
  A 1.71 1.59 15.0 0 0 228.46 742.23
  Q 225.97 744.19 224.80 746.96
  Q 222.79 748.83 223.37 751.25
  Q 223.65 752.45 226.76 753.93
  A 0.51 0.51 0.0 0 1 227.02 754.19
  Q 227.50 755.32 228.20 755.86
  A 2.03 2.01 9.4 0 1 228.91 756.84
  Q 230.71 761.98 230.07 766.86
  Q 224.67 767.86 225.64 765.19
  Q 224.03 760.86 225.62 756.93
  Q 226.03 755.92 225.83 755.52
  Q 225.45 754.75 224.70 754.57
  A 0.61 0.61 0.0 0 0 223.95 755.14
  L 223.69 762.37
  L 217.15 771.09
  A 0.59 0.59 0.0 0 0 217.29 771.93
  Q 217.78 772.26 218.53 772.13
  A 0.97 0.87 -77.2 0 1 219.35 773.60
  Q 218.35 775.25 218.31 776.80
  A 1.82 1.80 -61.7 0 0 218.63 777.89
  Q 222.71 783.89 228.79 786.63
  L 243.21 794.20
  A 4.74 4.71 -42.1 0 0 247.17 794.39
  L 256.05 790.81
  A 1.11 1.09 9.4 0 0 256.49 790.50
  Q 258.85 787.73 260.13 784.29
  Q 269.53 782.42 274.79 778.05
  Q 276.81 776.36 281.46 769.53
  A 0.85 0.84 -66.1 0 1 282.35 769.18
  L 284.03 769.57
  A 0.76 0.76 0.0 0 0 284.66 768.22
  L 283.21 767.14
  A 0.95 0.93 -71.7 0 1 282.84 766.39
  Q 282.83 765.33 284.07 764.78
  A 0.44 0.44 0.0 0 0 284.09 763.98
  L 277.43 760.57
  A 0.10 0.09 23.7 0 1 277.38 760.45
  Q 278.47 757.40 277.94 755.37
  Q 276.67 750.54 275.79 745.74
  A 2.45 2.15 28.4 0 0 275.52 745.01
  L 272.96 740.55
  A 3.06 3.04 43.2 0 1 272.86 737.69
  C 274.47 734.38 275.53 732.27 276.18 729.73
  C 277.33 725.31 279.19 722.09 280.84 717.71
  Q 283.55 710.55 288.16 702.91
  Q 289.71 700.34 293.86 697.29
  A 5.00 4.98 -86.3 0 0 294.63 696.61
  Q 299.00 691.96 304.11 688.59
  C 306.34 687.11 309.34 684.25 311.02 682.55
  A 0.39 0.39 0.0 0 0 310.78 681.89
  Q 308.68 681.68 307.10 683.06
  Q 306.91 683.22 305.91 683.86
  Q 302.68 685.93 289.56 695.09
  A 6.42 6.28 -87.6 0 0 288.22 696.35
  Q 285.86 699.29 283.35 703.36
  Q 272.01 721.77 265.97 732.19
  A 0.36 0.36 0.0 0 1 265.52 732.34
  L 265.51 732.34
  A 0.48 0.46 21.9 0 1 265.25 731.75
  Q 265.60 730.77 265.58 730.18
  A 0.94 0.93 -84.2 0 0 264.88 729.31
  Q 254.16 726.61 242.46 725.51
  A 0.45 0.45 0.0 0 0 242.14 726.32
  L 244.75 728.27
  A 0.77 0.77 0.0 0 1 244.48 729.64
  L 232.92 732.52
  A 0.35 0.35 0.0 0 0 232.66 732.78
  L 232.60 733.07
  A 0.19 0.19 0.0 0 0 232.78 733.31
  L 236.07 733.44
  A 0.55 0.55 0.0 0 1 236.40 734.41
  L 230.64 739.18
  A 0.36 0.36 0.0 0 0 230.96 739.81
  L 237.03 738.29
  A 0.65 0.65 0.0 0 1 237.82 739.07
  L 236.60 744.26
  A 0.37 0.37 0.0 0 0 237.13 744.67
  Q 239.54 743.37 240.21 742.03
  Z
  M 321.40 737.47
  Q 317.90 744.05 314.25 750.54
  Q 312.33 753.94 308.57 756.57
  Q 296.29 765.13 292.40 767.79
  A 0.71 0.71 0.0 0 0 292.32 768.89
  L 293.12 769.65
  A 0.87 0.86 -40.0 0 0 294.20 769.74
  L 313.51 757.11
  A 0.55 0.47 -83.3 0 0 313.65 756.98
  Q 314.59 755.87 315.62 754.87
  A 0.04 0.04 0.0 0 1 315.68 754.87
  L 315.90 755.07
  A 0.20 0.20 0.0 0 1 315.91 755.34
  Q 312.07 759.67 309.29 761.54
  Q 300.82 767.24 294.29 772.21
  A 0.26 0.26 0.0 0 0 294.53 772.66
  Q 303.12 769.51 309.75 763.00
  Q 314.03 758.79 319.64 752.68
  A 2.05 2.03 59.1 0 0 320.11 750.77
  Q 318.04 743.10 323.65 739.64
  A 3.23 3.23 0.0 0 1 324.13 739.40
  Q 326.13 738.57 326.32 738.33
  C 329.59 734.15 332.88 730.69 338.69 734.04
  A 1.60 1.60 0.0 0 0 340.43 733.95
  Q 342.94 732.11 349.96 727.72
  Q 355.00 724.58 359.74 723.95
  Q 365.94 723.14 372.00 722.13
  L 407.44 717.71
  Q 407.97 718.00 408.39 717.85
  A 0.27 0.26 -33.6 0 0 408.48 717.41
  L 399.62 709.02
  A 2.64 2.63 34.8 0 1 399.06 705.96
  L 402.96 697.89
  L 405.03 694.33
  A 0.51 0.51 0.0 0 0 404.43 693.59
  Q 395.65 696.40 384.33 699.90
  C 379.88 701.28 375.73 701.85 371.61 703.25
  C 366.65 704.94 358.14 706.08 352.48 709.24
  Q 346.70 712.46 330.00 725.25
  Q 326.73 727.75 325.95 729.20
  Q 323.70 733.36 321.40 737.47
  Z
  M 331.41 737.53
  A 0.23 0.23 0.0 0 1 331.39 737.86
  C 330.20 738.95 330.40 740.07 331.85 740.90
  Q 334.35 742.33 334.96 743.34
  A 0.91 0.91 0.0 0 0 336.58 743.20
  L 338.41 738.62
  A 2.30 2.29 29.6 0 0 337.67 735.94
  C 334.25 733.30 330.72 735.20 328.63 738.32
  A 0.49 0.48 -86.0 0 0 329.24 739.03
  Q 330.09 738.61 330.89 737.55
  A 0.33 0.33 0.0 0 1 331.40 737.53
  L 331.41 737.53
  Z
  M 339.35 740.82
  Q 338.87 743.34 336.74 745.02
  A 1.62 1.61 72.0 0 0 336.13 746.22
  Q 336.04 748.26 333.98 750.12
  A 0.63 0.63 0.0 0 0 333.95 751.03
  Q 335.41 752.52 337.54 751.93
  Q 342.38 750.62 344.34 745.10
  A 3.20 3.19 31.6 0 0 343.53 741.72
  L 341.76 740.04
  A 1.45 1.44 -62.9 0 0 339.35 740.82
  Z
  M 322.16 753.48
  L 308.85 766.78
  A 6.88 6.42 4.7 0 1 307.75 767.65
  Q 300.02 772.44 293.11 778.54
  Q 288.70 787.14 290.35 797.25
  A 0.37 0.37 0.0 0 0 290.94 797.48
  Q 295.03 794.33 298.20 791.21
  Q 307.14 782.41 312.48 778.49
  Q 313.26 777.92 315.33 775.36
  Q 321.18 768.12 327.15 761.05
  L 331.89 762.80
  A 1.64 1.61 -49.1 0 0 333.25 762.69
  C 335.63 761.34 338.86 761.03 340.88 758.63
  A 0.38 0.38 0.0 0 0 340.56 758.01
  Q 337.15 758.20 336.73 755.26
  A 2.16 1.98 58.5 0 0 332.99 754.19
  Q 332.08 755.67 329.95 756.23
  A 0.18 0.18 0.0 0 1 329.79 755.91
  Q 332.57 753.82 332.08 751.89
  A 0.87 0.86 84.4 0 0 331.30 751.24
  Q 328.31 751.01 325.88 748.16
  A 0.50 0.50 0.0 0 1 326.26 747.34
  Q 326.52 747.33 327.00 747.70
  C 329.52 750.04 333.18 750.90 334.12 746.29
  Q 334.40 744.91 332.45 743.30
  Q 330.08 741.34 328.20 740.59
  A 2.32 2.26 52.1 0 0 327.11 740.44
  C 321.19 741.13 320.38 747.56 322.34 752.18
  Q 322.48 752.51 322.42 752.83
  Q 322.36 753.19 322.16 753.48
  Z
  M 345.11 747.18
  Q 342.95 751.37 338.88 753.15
  A 1.73 1.50 57.9 0 0 338.49 755.68
  Q 339.57 757.05 341.35 756.62
  Q 345.98 755.51 347.05 751.06
  Q 347.68 748.39 345.86 747.01
  A 0.50 0.50 0.0 0 0 345.11 747.18
  Z
  M 335.07 777.37
  L 323.00 778.11
  A 1.08 1.06 -69.8 0 0 322.26 778.46
  L 317.09 783.91
  A 0.49 0.49 0.0 0 0 317.37 784.73
  Q 320.72 785.26 332.53 786.89
  Q 335.04 787.23 336.07 786.83
  Q 341.86 784.54 355.48 778.00
  C 357.97 776.80 361.04 774.79 364.05 773.42
  L 374.22 769.06
  L 401.36 776.99
  A 0.57 0.57 0.0 0 0 402.08 776.31
  Q 401.62 774.47 400.51 772.94
  Q 399.76 770.14 397.51 767.17
  Q 399.95 762.48 405.27 757.71
  L 407.87 754.92
  A 0.62 0.61 -70.0 0 0 407.39 753.88
  L 373.10 755.90
  A 4.60 4.55 -61.3 0 0 371.06 756.51
  L 335.07 777.37
  Z
  M 227.93 759.74
  Q 228.05 759.16 227.58 758.19
  A 0.42 0.42 0.0 0 0 226.86 758.13
  Q 226.20 759.06 226.33 759.77
  A 0.83 0.80 -45.3 0 0 227.93 759.74
  Z
  M 177.90 767.57
  Q 177.26 766.83 177.27 766.47
  A 0.31 0.31 0.0 0 1 177.79 766.26
  Q 178.95 767.35 180.50 766.79
  A 0.48 0.48 0.0 0 0 180.58 765.93
  C 178.85 764.93 175.51 763.60 173.58 764.39
  Q 170.68 765.57 170.81 768.72
  Q 170.95 772.19 174.31 773.66
  A 0.54 0.54 0.0 0 0 174.99 773.43
  L 177.96 768.29
  A 0.63 0.61 -50.7 0 0 177.90 767.57
  Z
  M 189.03 787.16
  Q 197.90 788.53 203.49 791.02
  Q 218.67 797.79 229.84 799.52
  A 0.53 0.53 0.0 0 0 230.43 799.12
  L 230.76 797.69
  A 1.17 1.16 -68.6 0 0 230.21 796.41
  L 227.53 794.86
  A 1.64 1.63 21.8 0 1 226.76 793.07
  L 227.56 789.68
  A 0.84 0.84 0.0 0 0 227.20 788.79
  L 225.01 787.34
  Q 223.12 785.69 220.55 785.21
  Q 206.93 782.63 194.21 776.96
  Q 193.38 776.69 192.55 777.08
  Q 191.15 774.40 190.09 771.63
  C 188.92 768.58 185.55 765.97 182.30 767.25
  C 178.95 768.57 177.37 771.76 176.66 775.05
  A 2.35 2.34 11.6 0 0 178.51 777.84
  C 181.64 778.47 183.00 775.40 184.98 773.26
  A 0.31 0.31 0.0 0 1 185.51 773.56
  Q 184.92 775.61 182.63 778.55
  A 1.34 1.32 -38.4 0 0 182.46 779.92
  Q 183.25 781.69 185.30 783.52
  A 0.32 0.32 0.0 0 1 185.02 784.08
  Q 181.72 783.32 181.23 780.26
  A 0.51 0.51 0.0 0 0 180.22 780.26
  Q 179.90 782.28 178.33 783.21
  A 0.82 0.81 -23.3 0 0 177.96 784.13
  Q 178.44 785.86 177.06 787.61
  A 0.48 0.48 0.0 0 0 177.21 788.33
  Q 178.57 789.07 180.26 789.29
  Q 186.87 790.15 189.03 787.16
  Z
  M 168.24 771.23
  L 167.21 773.72
  A 4.54 4.51 -50.3 0 0 167.58 777.87
  Q 170.97 783.16 177.59 781.67
  A 1.15 1.14 -37.0 0 0 177.89 779.55
  Q 176.20 778.62 175.06 776.58
  A 2.64 2.64 0.0 0 0 173.69 775.40
  Q 170.58 774.23 169.91 771.36
  A 0.88 0.88 0.0 0 0 168.24 771.23
  Z
  M 237.24 805.40
  L 237.54 807.92
  Q 238.79 811.56 239.05 810.84
  Q 242.74 818.89 247.98 824.26
  Q 250.33 826.67 250.78 828.53
  Q 251.79 832.79 252.65 836.30
  Q 260.11 842.55 270.53 844.96
  Q 270.53 845.80 273.74 845.79
  Q 280.02 846.96 286.06 845.10
  Q 302.58 840.04 309.94 824.53
  A 1.87 1.85 37.5 0 0 309.66 822.50
  C 304.75 816.82 300.51 812.51 298.81 805.37
  A 0.31 0.31 0.0 0 0 298.20 805.42
  L 298.00 810.29
  A 0.94 0.94 0.0 0 1 297.21 811.18
  C 288.39 812.60 283.11 804.57 281.56 796.82
  L 280.91 794.74
  Q 285.63 785.68 291.44 777.58
  A 1.91 1.90 -48.2 0 0 291.31 775.19
  Q 290.91 774.74 290.69 774.14
  A 1.05 1.05 0.0 0 0 288.93 773.78
  Q 282.09 781.14 276.25 784.22
  Q 267.50 788.84 249.23 795.48
  C 247.08 796.26 244.31 796.42 242.12 795.63
  Q 236.21 793.52 229.73 789.78
  A 0.63 0.63 0.0 0 0 228.81 790.18
  L 228.30 792.38
  A 1.44 1.43 22.1 0 0 228.96 793.94
  L 233.21 796.51
  A 0.48 0.48 0.0 0 1 233.00 797.40
  Q 232.91 797.41 232.88 797.41
  A 0.47 0.46 4.0 0 0 232.45 797.78
  C 231.70 801.45 234.19 803.83 237.24 805.40
  Z
  M 166.62 782.07
  A 3.24 3.22 -64.0 0 0 167.39 784.32
  Q 170.37 787.80 175.08 787.01
  A 1.54 1.52 -3.8 0 0 176.36 785.57
  L 176.40 784.67
  A 1.20 1.20 0.0 0 0 175.13 783.43
  Q 170.34 783.70 167.80 780.40
  A 0.63 0.63 0.0 0 0 166.67 780.76
  L 166.62 782.07
  Z
  M 323.71 827.22
  L 321.79 830.89
  A 1.12 1.11 28.8 0 0 322.23 832.38
  L 322.53 832.56
  A 1.49 1.49 0.0 0 0 324.57 832.01
  Q 326.96 827.86 327.94 823.96
  Q 328.26 822.67 326.90 821.83
  A 0.87 0.87 0.0 0 1 326.49 821.19
  L 325.65 814.72
  A 1.77 1.76 -71.5 0 0 325.15 813.71
  L 317.61 806.08
  C 314.15 811.35 314.47 815.10 315.85 821.18
  A 0.73 0.72 -4.7 0 0 316.52 821.74
  Q 319.74 821.89 321.88 823.61
  A 0.81 0.79 -58.4 0 1 322.10 824.58
  Q 322.03 824.73 322.03 824.80
  A 1.36 0.96 34.0 0 0 322.40 825.77
  L 323.71 827.22
  Z
  M 233.35 866.38
  Q 232.92 865.61 231.81 865.20
  Q 228.40 863.92 222.12 862.15
  Q 218.07 861.02 215.75 861.29
  C 211.79 861.75 207.10 863.75 207.78 868.53
  C 208.89 872.42 213.10 874.35 216.80 875.83
  A 0.17 0.17 0.0 0 1 216.72 876.16
  C 211.58 875.75 207.14 873.36 206.30 867.94
  A 0.34 0.34 0.0 0 0 205.65 867.88
  C 203.95 872.73 207.23 874.17 211.20 876.49
  Q 217.52 880.19 224.97 882.28
  A 1.46 1.43 -50.8 0 0 226.05 882.16
  Q 230.56 879.79 233.63 875.48
  L 256.32 883.67
  A 0.72 0.72 0.0 0 0 257.24 882.73
  Q 254.91 876.73 254.11 869.69
  C 253.54 864.76 252.52 859.73 251.65 855.71
  A 0.48 0.47 83.6 0 1 252.11 855.13
  Q 260.24 855.11 270.47 853.43
  A 3.56 3.40 40.0 0 1 271.26 853.38
  L 275.47 853.55
  A 6.55 6.44 54.9 0 1 277.21 853.87
  Q 287.44 857.25 299.28 857.98
  A 0.43 0.43 0.0 0 0 299.74 857.52
  L 299.55 854.25
  A 0.33 0.33 0.0 0 1 300.17 854.08
  C 302.35 858.34 305.12 859.92 309.67 862.06
  C 314.16 864.16 316.61 865.67 322.19 868.82
  C 328.37 872.31 332.92 873.33 339.30 870.60
  A 2.17 2.17 0.0 0 0 340.61 868.45
  Q 340.01 859.67 335.62 852.96
  C 330.99 845.88 320.47 839.45 312.40 835.61
  A 1.48 1.47 -48.1 0 0 310.98 835.69
  C 306.86 838.27 302.90 841.79 299.47 843.93
  Q 281.92 854.81 262.22 844.26
  Q 255.18 840.50 252.99 838.70
  A 2.52 2.48 -28.9 0 0 251.06 838.16
  Q 239.79 839.66 231.33 845.24
  A 2.29 2.28 69.8 0 0 230.32 847.44
  L 231.54 856.80
  A 3.85 3.84 -63.9 0 0 232.03 858.24
  C 234.08 861.68 236.79 863.02 239.34 865.62
  Q 242.52 868.88 247.79 871.00
  A 0.51 0.50 -85.1 0 1 248.11 871.39
  Q 248.17 871.68 248.06 871.74
  Q 247.15 872.18 246.28 871.71
  Q 239.59 868.10 233.35 866.38
  Z
  M 357.95 898.46
  L 364.93 909.91
  C 366.57 913.15 369.50 913.00 372.47 913.12
  A 0.26 0.25 70.8 0 0 372.67 912.70
  L 370.21 909.75
  Q 368.53 907.84 368.19 905.88
  A 0.20 0.20 0.0 0 1 368.52 905.69
  Q 370.93 907.74 372.45 910.63
  Q 381.60 917.29 383.48 906.85
  A 0.77 0.77 0.0 0 0 383.15 906.07
  L 378.69 903.09
  Q 376.38 901.44 375.41 899.07
  A 0.23 0.23 0.0 0 1 375.77 898.81
  L 380.20 902.37
  L 383.41 904.54
  A 0.28 0.27 -66.8 0 0 383.83 904.37
  Q 384.74 900.01 382.40 896.37
  Q 381.12 894.39 375.63 890.33
  Q 374.88 889.02 372.47 887.15
  Q 364.71 880.93 354.97 877.29
  A 0.47 0.47 0.0 0 0 354.35 877.59
  Q 350.98 888.50 357.95 898.46
  Z"
/>
<path fill="#393f46" d="
  M 233.79 726.69
  A 0.31 0.31 0.0 0 1 233.28 726.48
  Q 232.71 719.37 233.59 713.17
  C 234.04 710.02 233.94 707.67 234.21 704.33
  A 5.31 5.27 68.6 0 1 235.55 701.23
  L 249.15 686.07
  A 0.76 0.66 85.9 0 0 249.27 685.91
  Q 251.35 682.39 254.33 679.85
  A 1.01 1.01 0.0 0 1 255.99 680.52
  Q 256.36 684.12 254.76 690.68
  Q 252.52 699.81 250.45 705.13
  Q 249.24 708.26 242.61 718.92
  A 3.54 3.53 -4.3 0 1 241.87 719.78
  L 233.79 726.69
  Z"
/>
<path fill="#b88585" d="
  M 276.00 734.07
  Q 276.62 731.63 277.13 730.38
  Q 281.10 720.57 284.88 712.14
  C 287.86 705.47 291.98 700.70 298.53 695.32
  Q 310.98 685.10 315.26 681.95
  A 0.53 0.53 0.0 0 1 316.09 682.50
  Q 315.41 685.28 314.35 687.90
  Q 307.24 705.38 303.56 712.56
  Q 302.47 714.67 298.14 718.41
  Q 295.68 720.53 288.64 725.37
  Q 280.91 730.68 276.53 734.40
  A 0.33 0.33 0.0 0 1 276.00 734.07
  Z
  M 291.32 707.24
  L 295.25 706.26
  A 0.47 0.47 0.0 0 1 295.71 707.04
  L 286.03 717.27
  A 0.49 0.48 -67.6 0 0 286.37 718.09
  Q 288.62 718.14 290.38 717.36
  A 0.32 0.32 0.0 0 1 290.76 717.85
  L 284.96 725.48
  A 0.09 0.08 -52.5 0 0 284.97 725.60
  L 285.15 725.77
  A 0.14 0.14 0.0 0 0 285.33 725.78
  L 298.55 714.36
  A 0.31 0.31 0.0 0 0 298.31 713.81
  L 294.35 714.33
  A 0.56 0.56 0.0 0 1 293.87 713.39
  L 303.64 703.07
  A 0.53 0.52 18.0 0 0 303.19 702.19
  L 300.13 702.58
  A 0.57 0.57 0.0 0 1 299.60 701.67
  L 305.39 693.91
  A 0.30 0.29 -3.4 0 0 304.95 693.52
  L 291.00 706.64
  A 0.35 0.35 0.0 0 0 291.32 707.24
  Z"
/>
<path fill="#393f46" d="
  M 260.13 784.29
  C 260.54 775.55 255.90 770.81 248.28 767.55
  Q 248.29 766.54 248.51 766.54
  L 248.72 767.02
  A 0.78 0.78 0.0 0 0 249.54 767.47
  Q 251.96 767.10 253.65 767.23
  C 259.18 767.62 266.53 765.09 269.74 760.50
  A 2.18 2.10 -25.5 0 0 270.10 759.54
  Q 270.73 753.78 267.71 749.32
  L 269.59 746.28
  L 269.86 745.92
  A 0.47 0.47 0.0 0 0 269.69 745.22
  Q 266.15 743.43 262.99 743.01
  A 2.52 2.51 -51.9 0 0 261.71 743.17
  C 257.11 744.99 250.49 749.88 247.97 754.66
  A 5.89 5.43 67.9 0 0 247.46 756.02
  L 245.32 765.12
  A 0.68 0.68 0.0 0 1 244.49 765.62
  Q 237.98 763.88 231.81 765.76
  A 0.58 0.57 79.1 0 1 231.07 765.25
  Q 230.69 760.61 230.42 757.53
  C 230.05 753.28 227.87 750.20 224.80 746.96
  Q 225.97 744.19 228.46 742.23
  A 1.71 1.59 15.0 0 1 228.95 741.97
  L 235.70 739.84
  A 0.43 0.43 0.0 0 1 236.25 740.35
  L 234.77 746.63
  A 0.55 0.55 0.0 0 0 235.62 747.20
  L 242.37 742.43
  A 0.32 0.32 0.0 0 1 242.87 742.70
  Q 242.86 742.91 242.78 743.26
  A 0.57 0.56 13.0 0 0 243.20 743.93
  L 243.50 744.00
  A 0.37 0.37 0.0 0 0 243.95 743.71
  L 244.22 742.27
  L 249.53 738.60
  A 0.24 0.24 0.0 0 0 249.53 738.21
  L 249.13 737.91
  A 0.10 0.10 0.0 0 0 249.01 737.92
  Q 247.64 739.07 245.72 739.41
  A 0.53 0.53 0.0 0 1 245.10 738.87
  Q 245.11 738.47 244.83 738.20
  Q 244.49 737.88 243.63 738.35
  Q 241.44 739.55 240.21 742.03
  Q 239.54 743.37 237.13 744.67
  A 0.37 0.37 0.0 0 1 236.60 744.26
  L 237.82 739.07
  A 0.65 0.65 0.0 0 0 237.03 738.29
  L 230.96 739.81
  A 0.36 0.36 0.0 0 1 230.64 739.18
  L 236.40 734.41
  A 0.55 0.55 0.0 0 0 236.07 733.44
  L 232.78 733.31
  A 0.19 0.19 0.0 0 1 232.60 733.07
  L 232.66 732.78
  A 0.35 0.35 0.0 0 1 232.92 732.52
  L 244.48 729.64
  A 0.77 0.77 0.0 0 0 244.75 728.27
  L 242.14 726.32
  A 0.45 0.45 0.0 0 1 242.46 725.51
  Q 254.16 726.61 264.88 729.31
  A 0.94 0.93 -84.2 0 1 265.58 730.18
  Q 265.60 730.77 265.25 731.75
  A 0.48 0.46 21.9 0 0 265.51 732.34
  L 265.52 732.34
  A 0.36 0.36 0.0 0 0 265.97 732.19
  Q 272.01 721.77 283.35 703.36
  Q 285.86 699.29 288.22 696.35
  A 6.42 6.28 -87.6 0 1 289.56 695.09
  Q 302.68 685.93 305.91 683.86
  Q 306.91 683.22 307.10 683.06
  Q 308.68 681.68 310.78 681.89
  A 0.39 0.39 0.0 0 1 311.02 682.55
  C 309.34 684.25 306.34 687.11 304.11 688.59
  Q 299.00 691.96 294.63 696.61
  A 5.00 4.98 -86.3 0 1 293.86 697.29
  Q 289.71 700.34 288.16 702.91
  Q 283.55 710.55 280.84 717.71
  C 279.19 722.09 277.33 725.31 276.18 729.73
  C 275.53 732.27 274.47 734.38 272.86 737.69
  A 3.06 3.04 43.2 0 0 272.96 740.55
  L 275.52 745.01
  A 2.45 2.15 28.4 0 1 275.79 745.74
  Q 276.67 750.54 277.94 755.37
  Q 278.47 757.40 277.38 760.45
  A 0.10 0.09 23.7 0 0 277.43 760.57
  L 284.09 763.98
  A 0.44 0.44 0.0 0 1 284.07 764.78
  Q 282.83 765.33 282.84 766.39
  A 0.95 0.93 -71.7 0 0 283.21 767.14
  L 284.66 768.22
  A 0.76 0.76 0.0 0 1 284.03 769.57
  L 282.35 769.18
  A 0.85 0.84 -66.1 0 0 281.46 769.53
  Q 276.81 776.36 274.79 778.05
  Q 269.53 782.42 260.13 784.29
  Z"
/>
<path fill="#fdfdfd" d="
  M 291.32 707.24
  A 0.35 0.35 0.0 0 1 291.00 706.64
  L 304.95 693.52
  A 0.30 0.29 -3.4 0 1 305.39 693.91
  L 299.60 701.67
  A 0.57 0.57 0.0 0 0 300.13 702.58
  L 303.19 702.19
  A 0.53 0.52 18.0 0 1 303.64 703.07
  L 293.87 713.39
  A 0.56 0.56 0.0 0 0 294.35 714.33
  L 298.31 713.81
  A 0.31 0.31 0.0 0 1 298.55 714.36
  L 285.33 725.78
  A 0.14 0.14 0.0 0 1 285.15 725.77
  L 284.97 725.60
  A 0.09 0.08 -52.5 0 1 284.96 725.48
  L 290.76 717.85
  A 0.32 0.32 0.0 0 0 290.38 717.36
  Q 288.62 718.14 286.37 718.09
  A 0.49 0.48 -67.6 0 1 286.03 717.27
  L 295.71 707.04
  A 0.47 0.47 0.0 0 0 295.25 706.26
  L 291.32 707.24
  Z"
/>
<path fill="#169aec" d="
  M 402.96 697.89
  C 400.51 699.48 398.17 701.04 395.43 701.95
  Q 386.22 705.05 375.32 709.39
  C 371.79 710.79 367.85 711.29 364.37 713.24
  A 0.37 0.37 0.0 0 0 364.57 713.93
  Q 383.14 712.97 401.66 714.15
  Q 405.65 714.40 407.44 717.71
  L 372.00 722.13
  Q 360.32 719.30 348.37 721.44
  C 343.36 722.34 336.83 723.03 333.06 726.82
  Q 327.83 732.08 323.83 736.08
  Q 323.28 736.63 322.85 737.58
  A 0.57 0.56 4.7 0 1 322.50 737.87
  Q 321.87 738.05 321.40 737.47
  Q 323.70 733.36 325.95 729.20
  Q 326.73 727.75 330.00 725.25
  Q 346.70 712.46 352.48 709.24
  C 358.14 706.08 366.65 704.94 371.61 703.25
  C 375.73 701.85 379.88 701.28 384.33 699.90
  Q 395.65 696.40 404.43 693.59
  A 0.51 0.51 0.0 0 1 405.03 694.33
  L 402.96 697.89
  Z"
/>
<path fill="#0e6bb1" d="
  M 402.96 697.89
  L 399.06 705.96
  A 2.64 2.63 34.8 0 0 399.62 709.02
  L 408.48 717.41
  A 0.27 0.26 -33.6 0 1 408.39 717.85
  Q 407.97 718.00 407.44 717.71
  Q 405.65 714.40 401.66 714.15
  Q 383.14 712.97 364.57 713.93
  A 0.37 0.37 0.0 0 1 364.37 713.24
  C 367.85 711.29 371.79 710.79 375.32 709.39
  Q 386.22 705.05 395.43 701.95
  C 398.17 701.04 400.51 699.48 402.96 697.89
  Z"
/>
<path fill="#0e6bb1" d="
  M 372.00 722.13
  Q 365.94 723.14 359.74 723.95
  Q 355.00 724.58 349.96 727.72
  Q 342.94 732.11 340.43 733.95
  A 1.60 1.60 0.0 0 1 338.69 734.04
  C 332.88 730.69 329.59 734.15 326.32 738.33
  Q 326.13 738.57 324.13 739.40
  A 3.23 3.23 0.0 0 0 323.65 739.64
  Q 318.04 743.10 320.11 750.77
  A 2.05 2.03 59.1 0 1 319.64 752.68
  Q 314.03 758.79 309.75 763.00
  Q 303.12 769.51 294.53 772.66
  A 0.26 0.26 0.0 0 1 294.29 772.21
  Q 300.82 767.24 309.29 761.54
  Q 312.07 759.67 315.91 755.34
  A 0.20 0.20 0.0 0 0 315.90 755.07
  L 315.68 754.87
  A 0.04 0.04 0.0 0 0 315.62 754.87
  Q 314.59 755.87 313.65 756.98
  A 0.55 0.47 -83.3 0 1 313.51 757.11
  L 294.20 769.74
  A 0.87 0.86 -40.0 0 1 293.12 769.65
  L 292.32 768.89
  A 0.71 0.71 0.0 0 1 292.40 767.79
  Q 296.29 765.13 308.57 756.57
  Q 312.33 753.94 314.25 750.54
  Q 317.90 744.05 321.40 737.47
  Q 321.87 738.05 322.50 737.87
  A 0.57 0.56 4.7 0 0 322.85 737.58
  Q 323.28 736.63 323.83 736.08
  Q 327.83 732.08 333.06 726.82
  C 336.83 723.03 343.36 722.34 348.37 721.44
  Q 360.32 719.30 372.00 722.13
  Z"
/>
<path fill="#fdfdfd" d="
  M 330.89 737.55
  Q 330.09 738.61 329.24 739.03
  A 0.49 0.48 -86.0 0 1 328.63 738.32
  C 330.72 735.20 334.25 733.30 337.67 735.94
  A 2.30 2.29 29.6 0 1 338.41 738.62
  L 336.58 743.20
  A 0.91 0.91 0.0 0 1 334.96 743.34
  Q 334.35 742.33 331.85 740.90
  C 330.40 740.07 330.20 738.95 331.39 737.86
  A 0.23 0.23 0.0 0 0 331.41 737.53
  L 331.40 737.53
  A 0.33 0.33 0.0 0 0 330.89 737.55
  Z"
/>
<path fill="#b88585" d="
  M 244.22 742.27
  Q 243.84 741.11 244.09 740.10
  A 0.40 0.40 0.0 0 0 243.47 739.67
  L 240.21 742.03
  Q 241.44 739.55 243.63 738.35
  Q 244.49 737.88 244.83 738.20
  Q 245.11 738.47 245.10 738.87
  A 0.53 0.53 0.0 0 0 245.72 739.41
  Q 247.64 739.07 249.01 737.92
  A 0.10 0.10 0.0 0 1 249.13 737.91
  L 249.53 738.21
  A 0.24 0.24 0.0 0 1 249.53 738.60
  L 244.22 742.27
  Z"
/>
<path fill="#fdfdfd" d="
  M 339.35 740.82
  A 1.45 1.44 -62.9 0 1 341.76 740.04
  L 343.53 741.72
  A 3.20 3.19 31.6 0 1 344.34 745.10
  Q 342.38 750.62 337.54 751.93
  Q 335.41 752.52 333.95 751.03
  A 0.63 0.63 0.0 0 1 333.98 750.12
  Q 336.04 748.26 336.13 746.22
  A 1.62 1.61 72.0 0 1 336.74 745.02
  Q 338.87 743.34 339.35 740.82
  Z"
/>
<path fill="#fdfdfd" d="
  M 334.12 746.29
  L 328.31 746.95
  A 0.69 0.51 17.0 0 0 328.08 747.03
  L 327.00 747.70
  Q 326.52 747.33 326.26 747.34
  A 0.50 0.50 0.0 0 0 325.88 748.16
  Q 328.31 751.01 331.30 751.24
  A 0.87 0.86 84.4 0 1 332.08 751.89
  Q 332.57 753.82 329.79 755.91
  A 0.18 0.18 0.0 0 0 329.95 756.23
  Q 332.08 755.67 332.99 754.19
  A 2.16 1.98 58.5 0 1 336.73 755.26
  Q 337.15 758.20 340.56 758.01
  A 0.38 0.38 0.0 0 1 340.88 758.63
  C 338.86 761.03 335.63 761.34 333.25 762.69
  A 1.64 1.61 -49.1 0 1 331.89 762.80
  L 327.15 761.05
  Q 324.58 759.18 322.59 755.21
  L 322.16 753.48
  Q 322.36 753.19 322.42 752.83
  Q 322.48 752.51 322.34 752.18
  C 320.38 747.56 321.19 741.13 327.11 740.44
  A 2.32 2.26 52.1 0 1 328.20 740.59
  Q 330.08 741.34 332.45 743.30
  Q 334.40 744.91 334.12 746.29
  Z"
/>
<path fill="#fdfdfd" d="
  M 269.59 746.28
  L 268.48 746.02
  A 1.86 1.82 -45.6 0 0 267.52 746.04
  Q 258.08 748.67 250.42 754.80
  A 1.31 1.30 77.1 0 0 249.95 755.55
  Q 248.55 761.66 247.33 766.23
  Q 247.07 767.23 248.28 767.55
  C 255.90 770.81 260.54 775.55 260.13 784.29
  Q 258.85 787.73 256.49 790.50
  A 1.11 1.09 9.4 0 1 256.05 790.81
  L 247.17 794.39
  A 4.74 4.71 -42.1 0 1 243.21 794.20
  L 228.79 786.63
  Q 226.42 782.33 225.05 779.09
  Q 223.62 775.68 225.62 772.67
  Q 227.42 769.97 230.07 766.86
  Q 230.71 761.98 228.91 756.84
  A 2.03 2.01 9.4 0 0 228.20 755.86
  Q 227.50 755.32 227.02 754.19
  A 0.51 0.51 0.0 0 0 226.76 753.93
  Q 223.65 752.45 223.37 751.25
  Q 222.79 748.83 224.80 746.96
  C 227.87 750.20 230.05 753.28 230.42 757.53
  Q 230.69 760.61 231.07 765.25
  A 0.58 0.57 79.1 0 0 231.81 765.76
  Q 237.98 763.88 244.49 765.62
  A 0.68 0.68 0.0 0 0 245.32 765.12
  L 247.46 756.02
  A 5.89 5.43 67.9 0 1 247.97 754.66
  C 250.49 749.88 257.11 744.99 261.71 743.17
  A 2.52 2.51 -51.9 0 1 262.99 743.01
  Q 266.15 743.43 269.69 745.22
  A 0.47 0.47 0.0 0 1 269.86 745.92
  L 269.59 746.28
  Z
  M 235.74 776.15
  L 240.71 772.64
  A 1.60 1.60 0.0 0 0 240.13 769.77
  Q 236.10 768.89 230.66 769.70
  A 1.57 1.56 67.8 0 0 229.63 772.17
  Q 231.30 774.50 233.45 775.78
  A 1.51 1.49 -85.9 0 1 234.08 776.52
  L 234.91 778.73
  A 1.58 1.57 76.1 0 1 233.64 780.85
  L 231.06 781.19
  A 0.57 0.57 0.0 0 0 230.95 782.30
  Q 231.79 782.58 233.04 782.33
  A 1.20 1.17 -23.7 0 1 234.21 782.77
  L 240.20 790.74
  A 1.30 1.19 -2.3 0 0 240.60 791.08
  C 245.01 793.56 248.64 790.32 250.70 786.32
  C 252.30 783.22 251.81 778.50 253.39 774.91
  A 0.55 0.54 -71.5 0 0 253.02 774.16
  L 252.65 774.08
  A 0.35 0.35 0.0 0 0 252.22 774.39
  Q 252.14 775.25 251.14 776.37
  Q 244.73 783.47 236.66 779.65
  A 1.06 1.05 2.4 0 1 236.14 779.09
  L 235.42 777.18
  A 0.88 0.88 0.0 0 1 235.74 776.15
  Z"
/>
<path fill="#b88585" d="
  M 269.59 746.28
  L 267.71 749.32
  L 267.00 749.91
  A 1.23 1.22 -61.6 0 1 266.14 750.17
  C 260.63 749.69 257.57 751.78 253.39 754.90
  Q 251.55 756.27 250.93 758.19
  Q 250.37 759.88 248.51 766.54
  Q 248.29 766.54 248.28 767.55
  Q 247.07 767.23 247.33 766.23
  Q 248.55 761.66 249.95 755.55
  A 1.31 1.30 77.1 0 1 250.42 754.80
  Q 258.08 748.67 267.52 746.04
  A 1.86 1.82 -45.6 0 1 268.48 746.02
  L 269.59 746.28
  Z"
/>
<path fill="#b88585" d="
  M 334.12 746.29
  C 333.18 750.90 329.52 750.04 327.00 747.70
  L 328.08 747.03
  A 0.69 0.51 17.0 0 1 328.31 746.95
  L 334.12 746.29
  Z"
/>
<path fill="#fdfdfd" d="
  M 345.86 747.01
  Q 347.68 748.39 347.05 751.06
  Q 345.98 755.51 341.35 756.62
  Q 339.57 757.05 338.49 755.68
  A 1.73 1.50 57.9 0 1 338.88 753.15
  Q 342.95 751.37 345.11 747.18
  A 0.50 0.50 0.0 0 1 345.86 747.01
  Z"
/>
<path fill="#23252f" d="
  M 267.71 749.32
  Q 270.73 753.78 270.10 759.54
  A 2.18 2.10 -25.5 0 1 269.74 760.50
  C 266.53 765.09 259.18 767.62 253.65 767.23
  Q 251.96 767.10 249.54 767.47
  A 0.78 0.78 0.0 0 1 248.72 767.02
  L 248.51 766.54
  Q 250.37 759.88 250.93 758.19
  Q 251.55 756.27 253.39 754.90
  C 257.57 751.78 260.63 749.69 266.14 750.17
  A 1.23 1.22 -61.6 0 0 267.00 749.91
  L 267.71 749.32
  Z
  M 263.06 758.09
  Q 263.60 760.88 262.78 763.94
  A 0.25 0.25 0.0 0 0 263.11 764.24
  Q 269.80 761.56 267.48 757.48
  L 264.86 752.58
  A 1.52 1.51 -17.5 0 0 263.33 751.79
  L 260.79 752.12
  A 0.55 0.54 -25.1 0 0 260.46 753.03
  Q 262.22 754.95 263.06 758.09
  Z
  M 259.4011 756.2422
  A 1.18 1.18 0.0 0 0 258.2231 755.0602
  L 258.0231 755.0598
  A 1.18 1.18 0.0 0 0 256.8411 756.2378
  L 256.8389 757.4578
  A 1.18 1.18 0.0 0 0 258.0169 758.6398
  L 258.2169 758.6402
  A 1.18 1.18 0.0 0 0 259.3989 757.4622
  L 259.4011 756.2422
  Z
  M 250.81 765.88
  L 256.14 765.81
  A 0.29 0.28 -18.3 0 0 256.37 765.36
  Q 255.22 763.73 254.70 761.51
  Q 254.11 758.78 254.78 756.29
  A 0.38 0.38 0.0 0 0 254.11 755.97
  Q 250.49 760.82 250.81 765.88
  Z"
/>
<path fill="#b88585" d="
  M 267.48 757.48
  Q 265.87 757.14 264.75 757.06
  Q 263.64 756.99 263.06 758.09
  Q 262.22 754.95 260.46 753.03
  A 0.55 0.54 -25.1 0 1 260.79 752.12
  L 263.33 751.79
  A 1.52 1.51 -17.5 0 1 264.86 752.58
  L 267.48 757.48
  Z"
/>
<path fill="#b88585" d="
  M 322.16 753.48
  L 322.59 755.21
  L 308.95 768.34
  A 0.63 0.57 -81.4 0 1 308.79 768.47
  L 293.11 778.54
  Q 300.02 772.44 307.75 767.65
  A 6.88 6.42 4.7 0 0 308.85 766.78
  L 322.16 753.48
  Z"
/>
<path fill="#169aec" d="
  M 405.27 757.71
  Q 398.88 758.53 392.92 758.98
  C 388.11 759.35 383.73 760.43 379.11 761.06
  A 0.53 0.53 0.0 0 0 379.04 762.09
  L 397.51 767.17
  Q 399.76 770.14 400.51 772.94
  Q 395.57 772.34 389.52 770.72
  Q 382.34 768.80 374.22 769.06
  L 364.05 773.42
  Q 359.44 774.24 355.02 775.54
  Q 348.74 777.38 346.02 777.64
  Q 340.63 778.14 335.07 777.37
  L 371.06 756.51
  A 4.60 4.55 -61.3 0 1 373.10 755.90
  L 407.39 753.88
  A 0.62 0.61 -70.0 0 1 407.87 754.92
  L 405.27 757.71
  Z"
/>
<path fill="#fdfdfd" d="
  M 225.64 765.19
  Q 224.43 764.86 223.69 762.37
  L 223.95 755.14
  A 0.61 0.61 0.0 0 1 224.70 754.57
  Q 225.45 754.75 225.83 755.52
  Q 226.03 755.92 225.62 756.93
  Q 224.03 760.86 225.64 765.19
  Z"
/>
<rect fill="#fdfdfd" x="-1.28" y="-1.79" transform="translate(258.12,756.85) rotate(0.1)" width="2.56" height="3.58" rx="1.18"/>
<path fill="#393f46" d="
  M 322.59 755.21
  Q 324.58 759.18 327.15 761.05
  Q 321.18 768.12 315.33 775.36
  Q 313.26 777.92 312.48 778.49
  Q 307.14 782.41 298.20 791.21
  Q 295.03 794.33 290.94 797.48
  A 0.37 0.37 0.0 0 1 290.35 797.25
  Q 288.70 787.14 293.11 778.54
  L 308.79 768.47
  A 0.63 0.57 -81.4 0 0 308.95 768.34
  L 322.59 755.21
  Z"
/>
<path fill="#b88585" d="
  M 254.70 761.51
  Q 253.36 759.80 250.81 765.88
  Q 250.49 760.82 254.11 755.97
  A 0.38 0.38 0.0 0 1 254.78 756.29
  Q 254.11 758.78 254.70 761.51
  Z"
/>
<path fill="#fdfdfd" d="
  M 267.48 757.48
  Q 269.80 761.56 263.11 764.24
  A 0.25 0.25 0.0 0 1 262.78 763.94
  Q 263.60 760.88 263.06 758.09
  Q 263.64 756.99 264.75 757.06
  Q 265.87 757.14 267.48 757.48
  Z"
/>
<path fill="#0e6bb1" d="
  M 405.27 757.71
  Q 399.95 762.48 397.51 767.17
  L 379.04 762.09
  A 0.53 0.53 0.0 0 1 379.11 761.06
  C 383.73 760.43 388.11 759.35 392.92 758.98
  Q 398.88 758.53 405.27 757.71
  Z"
/>
<path fill="#fdfdfd" d="
  M 227.93 759.74
  A 0.83 0.80 -45.3 0 1 226.33 759.77
  Q 226.20 759.06 226.86 758.13
  A 0.42 0.42 0.0 0 1 227.58 758.19
  Q 228.05 759.16 227.93 759.74
  Z"
/>
<path fill="#fdfdfd" d="
  M 254.70 761.51
  Q 255.22 763.73 256.37 765.36
  A 0.29 0.28 -18.3 0 1 256.14 765.81
  L 250.81 765.88
  Q 253.36 759.80 254.70 761.51
  Z"
/>
<path fill="#393f46" d="
  M 225.64 765.19
  Q 224.67 767.86 230.07 766.86
  Q 227.42 769.97 225.62 772.67
  Q 223.62 775.68 225.05 779.09
  Q 226.42 782.33 228.79 786.63
  Q 222.71 783.89 218.63 777.89
  A 1.82 1.80 -61.7 0 1 218.31 776.80
  Q 218.35 775.25 219.35 773.60
  A 0.97 0.87 -77.2 0 0 218.53 772.13
  Q 217.78 772.26 217.29 771.93
  A 0.59 0.59 0.0 0 1 217.15 771.09
  L 223.69 762.37
  Q 224.43 764.86 225.64 765.19
  Z"
/>
<path fill="#fdfdfd" d="
  M 177.96 768.29
  L 174.99 773.43
  A 0.54 0.54 0.0 0 1 174.31 773.66
  Q 170.95 772.19 170.81 768.72
  Q 170.68 765.57 173.58 764.39
  C 175.51 763.60 178.85 764.93 180.58 765.93
  A 0.48 0.48 0.0 0 1 180.50 766.79
  Q 178.95 767.35 177.79 766.26
  A 0.31 0.31 0.0 0 0 177.27 766.47
  Q 177.26 766.83 177.90 767.57
  A 0.63 0.61 -50.7 0 1 177.96 768.29
  Z"
/>
<path fill="#fdfdfd" d="
  M 192.55 777.08
  L 189.03 787.16
  Q 186.87 790.15 180.26 789.29
  Q 178.57 789.07 177.21 788.33
  A 0.48 0.48 0.0 0 1 177.06 787.61
  Q 178.44 785.86 177.96 784.13
  A 0.82 0.81 -23.3 0 1 178.33 783.21
  Q 179.90 782.28 180.22 780.26
  A 0.51 0.51 0.0 0 1 181.23 780.26
  Q 181.72 783.32 185.02 784.08
  A 0.32 0.32 0.0 0 0 185.30 783.52
  Q 183.25 781.69 182.46 779.92
  A 1.34 1.32 -38.4 0 1 182.63 778.55
  Q 184.92 775.61 185.51 773.56
  A 0.31 0.31 0.0 0 0 184.98 773.26
  C 183.00 775.40 181.64 778.47 178.51 777.84
  A 2.35 2.34 11.6 0 1 176.66 775.05
  C 177.37 771.76 178.95 768.57 182.30 767.25
  C 185.55 765.97 188.92 768.58 190.09 771.63
  Q 191.15 774.40 192.55 777.08
  Z"
/>
<path fill="#0e6bb1" d="
  M 400.51 772.94
  Q 401.62 774.47 402.08 776.31
  A 0.57 0.57 0.0 0 1 401.36 776.99
  L 374.22 769.06
  Q 382.34 768.80 389.52 770.72
  Q 395.57 772.34 400.51 772.94
  Z"
/>
<path fill="#393f46" d="
  M 235.42 777.18
  L 236.14 779.09
  A 1.06 1.05 2.4 0 0 236.66 779.65
  Q 244.73 783.47 251.14 776.37
  Q 252.14 775.25 252.22 774.39
  A 0.35 0.35 0.0 0 1 252.65 774.08
  L 253.02 774.16
  A 0.55 0.54 -71.5 0 1 253.39 774.91
  C 251.81 778.50 252.30 783.22 250.70 786.32
  C 248.64 790.32 245.01 793.56 240.60 791.08
  A 1.30 1.19 -2.3 0 1 240.20 790.74
  L 234.21 782.77
  A 1.20 1.17 -23.7 0 0 233.04 782.33
  Q 231.79 782.58 230.95 782.30
  A 0.57 0.57 0.0 0 1 231.06 781.19
  L 233.64 780.85
  A 1.58 1.57 76.1 0 0 234.91 778.73
  L 234.08 776.52
  A 1.51 1.49 -85.9 0 0 233.45 775.78
  Q 231.30 774.50 229.63 772.17
  A 1.57 1.56 67.8 0 1 230.66 769.70
  Q 236.10 768.89 240.13 769.77
  A 1.60 1.60 0.0 0 1 240.71 772.64
  L 235.74 776.15
  A 0.88 0.88 0.0 0 0 235.42 777.18
  Z
  M 230.90 770.97
  A 0.51 0.51 0.0 0 0 230.67 771.78
  Q 232.31 773.70 234.27 774.72
  A 1.71 1.69 40.8 0 0 236.01 774.60
  L 239.70 771.99
  A 0.68 0.67 -54.5 0 0 239.50 770.79
  Q 235.27 769.60 230.90 770.97
  Z
  M 238.17 784.27
  L 239.25 782.75
  A 0.44 0.44 0.0 0 0 239.14 782.14
  L 239.01 782.05
  A 3.52 1.27 35.3 0 0 235.41 781.05
  L 235.29 781.21
  A 3.52 1.27 35.3 0 0 237.43 784.28
  L 237.56 784.37
  A 0.44 0.44 0.0 0 0 238.17 784.27
  Z
  M 241.99 789.91
  Q 243.42 791.51 246.92 789.12
  Q 249.33 787.47 250.58 782.58
  A 0.20 0.14 -61.1 0 0 250.56 782.42
  Q 250.55 782.40 250.45 782.29
  Q 250.34 782.17 250.33 782.16
  A 0.20 0.14 -23.0 0 0 250.17 782.13
  Q 245.18 782.86 243.29 785.09
  Q 240.55 788.32 241.99 789.91
  Z"
/>
<path fill="#b88585" d="
  M 230.90 770.97
  Q 235.27 769.60 239.50 770.79
  A 0.68 0.67 -54.5 0 1 239.70 771.99
  L 236.01 774.60
  A 1.71 1.69 40.8 0 1 234.27 774.72
  Q 232.31 773.70 230.67 771.78
  A 0.51 0.51 0.0 0 1 230.90 770.97
  Z"
/>
<path fill="#fdfdfd" d="
  M 169.91 771.36
  Q 170.58 774.23 173.69 775.40
  A 2.64 2.64 0.0 0 1 175.06 776.58
  Q 176.20 778.62 177.89 779.55
  A 1.15 1.14 -37.0 0 1 177.59 781.67
  Q 170.97 783.16 167.58 777.87
  A 4.54 4.51 -50.3 0 1 167.21 773.72
  L 168.24 771.23
  A 0.88 0.88 0.0 0 1 169.91 771.36
  Z"
/>
<path fill="#0e6bb1" d="
  M 280.91 794.74
  L 276.30 801.86
  A 0.85 0.54 -84.2 0 1 276.19 802.00
  Q 274.72 803.59 271.95 805.19
  Q 266.56 808.31 259.87 811.78
  C 256.16 813.70 253.87 815.21 250.78 813.77
  Q 246.91 811.97 237.24 805.40
  C 234.19 803.83 231.70 801.45 232.45 797.78
  A 0.47 0.46 4.0 0 1 232.88 797.41
  Q 232.91 797.41 233.00 797.40
  A 0.48 0.48 0.0 0 0 233.21 796.51
  L 228.96 793.94
  A 1.44 1.43 22.1 0 1 228.30 792.38
  L 228.81 790.18
  A 0.63 0.63 0.0 0 1 229.73 789.78
  Q 236.21 793.52 242.12 795.63
  C 244.31 796.42 247.08 796.26 249.23 795.48
  Q 267.50 788.84 276.25 784.22
  Q 282.09 781.14 288.93 773.78
  A 1.05 1.05 0.0 0 1 290.69 774.14
  Q 290.91 774.74 291.31 775.19
  A 1.91 1.90 -48.2 0 1 291.44 777.58
  Q 285.63 785.68 280.91 794.74
  Z
  M 269.51 797.44
  L 267.41 799.41
  A 1.53 1.52 21.4 0 1 266.49 799.81
  Q 261.31 800.14 255.96 802.14
  A 0.62 0.62 0.0 0 1 255.13 801.67
  Q 255.08 801.35 255.39 801.14
  Q 258.42 799.08 263.88 796.34
  A 2.54 2.21 -75.5 0 0 264.26 796.08
  L 273.14 788.38
  A 0.06 0.06 0.0 0 0 273.15 788.30
  L 273.00 788.09
  A 0.26 0.26 0.0 0 0 272.65 788.00
  Q 264.77 792.36 255.65 795.88
  Q 241.59 801.31 230.21 791.23
  A 0.54 0.53 22.2 0 0 229.32 791.60
  L 229.30 792.01
  A 1.30 1.28 -71.1 0 0 229.82 793.09
  L 234.78 796.70
  A 1.21 0.94 -7.0 0 0 234.93 796.79
  Q 237.63 797.94 239.89 799.57
  Q 244.79 803.08 250.02 803.62
  C 252.57 803.88 255.10 802.67 257.80 802.91
  A 0.26 0.26 0.0 0 1 257.89 803.40
  Q 250.14 807.29 242.15 803.08
  Q 238.77 801.30 233.76 797.98
  A 0.52 0.52 0.0 0 0 233.00 798.64
  C 233.84 800.43 234.24 801.55 236.08 802.81
  Q 244.15 808.32 248.69 810.32
  C 253.54 812.45 256.83 810.50 261.10 808.34
  C 268.72 804.47 273.26 801.94 276.20 794.80
  A 0.48 0.48 0.0 0 0 275.42 794.27
  Q 274.25 795.40 272.65 794.97
  Q 277.55 790.40 280.27 787.03
  Q 284.68 781.54 285.33 781.06
  A 0.21 0.20 -45.7 0 0 285.33 780.73
  L 285.10 780.56
  A 0.18 0.18 0.0 0 0 284.86 780.58
  L 268.95 796.71
  A 0.43 0.43 0.0 0 0 269.17 797.43
  Q 269.32 797.45 269.51 797.44
  Z"
/>
<path fill="#0e6bb1" d="
  M 364.05 773.42
  C 361.04 774.79 357.97 776.80 355.48 778.00
  Q 341.86 784.54 336.07 786.83
  Q 335.04 787.23 332.53 786.89
  Q 320.72 785.26 317.37 784.73
  A 0.49 0.49 0.0 0 1 317.09 783.91
  L 322.26 778.46
  A 1.08 1.06 -69.8 0 1 323.00 778.11
  L 335.07 777.37
  Q 340.63 778.14 346.02 777.64
  Q 348.74 777.38 355.02 775.54
  Q 359.44 774.24 364.05 773.42
  Z"
/>
<path fill="#393f46" d="
  M 194.21 776.96
  Q 193.11 776.94 194.59 777.95
  Q 196.11 778.98 197.84 779.65
  Q 210.95 784.73 225.01 787.34
  L 227.20 788.79
  A 0.84 0.84 0.0 0 1 227.56 789.68
  L 226.76 793.07
  A 1.64 1.63 21.8 0 0 227.53 794.86
  L 230.21 796.41
  A 1.17 1.16 -68.6 0 1 230.76 797.69
  L 230.43 799.12
  A 0.53 0.53 0.0 0 1 229.84 799.52
  Q 218.67 797.79 203.49 791.02
  Q 197.90 788.53 189.03 787.16
  L 192.55 777.08
  Q 193.38 776.69 194.21 776.96
  Z"
/>
<path fill="#b88585" d="
  M 194.21 776.96
  Q 206.93 782.63 220.55 785.21
  Q 223.12 785.69 225.01 787.34
  Q 210.95 784.73 197.84 779.65
  Q 196.11 778.98 194.59 777.95
  Q 193.11 776.94 194.21 776.96
  Z"
/>
<path fill="#fdfdfd" d="
  M 167.80 780.40
  Q 170.34 783.70 175.13 783.43
  A 1.20 1.20 0.0 0 1 176.40 784.67
  L 176.36 785.57
  A 1.54 1.52 -3.8 0 1 175.08 787.01
  Q 170.37 787.80 167.39 784.32
  A 3.24 3.22 -64.0 0 1 166.62 782.07
  L 166.67 780.76
  A 0.63 0.63 0.0 0 1 167.80 780.40
  Z"
/>
<path fill="#393f46" d="
  M 272.65 794.97
  Q 271.52 796.33 269.51 797.44
  Q 269.32 797.45 269.17 797.43
  A 0.43 0.43 0.0 0 1 268.95 796.71
  L 284.86 780.58
  A 0.18 0.18 0.0 0 1 285.10 780.56
  L 285.33 780.73
  A 0.21 0.20 -45.7 0 1 285.33 781.06
  Q 284.68 781.54 280.27 787.03
  Q 277.55 790.40 272.65 794.97
  Z"
/>
<path fill="#fdfdfd" d="
  M 238.17 784.27
  A 0.44 0.44 0.0 0 1 237.56 784.37
  L 237.43 784.28
  A 3.52 1.27 35.3 0 1 235.29 781.21
  L 235.41 781.05
  A 3.52 1.27 35.3 0 1 239.01 782.05
  L 239.14 782.14
  A 0.44 0.44 0.0 0 1 239.25 782.75
  L 238.17 784.27
  Z"
/>
<path fill="#b88585" d="
  M 250.45 782.29
  Q 250.55 782.40 250.56 782.42
  A 0.20 0.14 -61.1 0 1 250.58 782.58
  Q 249.33 787.47 246.92 789.12
  Q 243.42 791.51 241.99 789.91
  Q 240.55 788.32 243.29 785.09
  Q 245.18 782.86 250.17 782.13
  A 0.20 0.14 -23.0 0 1 250.33 782.16
  Q 250.34 782.17 250.45 782.29
  Z"
/>
<path fill="#169aec" d="
  M 269.51 797.44
  Q 271.52 796.33 272.65 794.97
  Q 274.25 795.40 275.42 794.27
  A 0.48 0.48 0.0 0 1 276.20 794.80
  C 273.26 801.94 268.72 804.47 261.10 808.34
  C 256.83 810.50 253.54 812.45 248.69 810.32
  Q 244.15 808.32 236.08 802.81
  C 234.24 801.55 233.84 800.43 233.00 798.64
  A 0.52 0.52 0.0 0 1 233.76 797.98
  Q 238.77 801.30 242.15 803.08
  Q 250.14 807.29 257.89 803.40
  A 0.26 0.26 0.0 0 0 257.80 802.91
  C 255.10 802.67 252.57 803.88 250.02 803.62
  Q 244.79 803.08 239.89 799.57
  Q 237.63 797.94 234.93 796.79
  A 1.21 0.94 -7.0 0 1 234.78 796.70
  L 229.82 793.09
  A 1.30 1.28 -71.1 0 1 229.30 792.01
  L 229.32 791.60
  A 0.54 0.53 22.2 0 1 230.21 791.23
  Q 241.59 801.31 255.65 795.88
  Q 264.77 792.36 272.65 788.00
  A 0.26 0.26 0.0 0 1 273.00 788.09
  L 273.15 788.30
  A 0.06 0.06 0.0 0 1 273.14 788.38
  L 264.26 796.08
  A 2.54 2.21 -75.5 0 1 263.88 796.34
  Q 258.42 799.08 255.39 801.14
  Q 255.08 801.35 255.13 801.67
  A 0.62 0.62 0.0 0 0 255.96 802.14
  Q 261.31 800.14 266.49 799.81
  A 1.53 1.52 21.4 0 0 267.41 799.41
  L 269.51 797.44
  Z"
/>
<path fill="#393f46" d="
  M 280.91 794.74
  L 281.56 796.82
  Q 277.43 803.90 275.51 805.03
  Q 266.64 810.26 257.55 815.12
  A 0.83 0.81 -14.9 0 0 257.11 815.86
  Q 257.16 817.39 258.03 818.35
  L 262.28 824.72
  Q 262.37 825.87 263.35 826.73
  A 1.14 1.10 -12.2 0 0 263.59 826.88
  L 265.81 827.74
  A 0.81 0.81 0.0 0 1 266.31 828.63
  L 265.97 830.83
  L 269.16 838.83
  Q 270.54 842.85 273.74 845.79
  Q 270.53 845.80 270.53 844.96
  L 266.61 838.46
  L 263.50 829.11
  Q 261.84 828.17 261.82 827.02
  L 256.02 818.50
  Q 255.79 817.45 255.13 816.74
  A 1.79 1.76 70.9 0 0 254.04 816.20
  L 252.41 815.97
  A 6.38 6.38 0.0 0 1 249.94 815.07
  L 237.73 807.59
  A 0.09 0.09 0.0 0 0 237.60 807.65
  Q 237.57 807.84 237.54 807.92
  L 237.24 805.40
  Q 246.91 811.97 250.78 813.77
  C 253.87 815.21 256.16 813.70 259.87 811.78
  Q 266.56 808.31 271.95 805.19
  Q 274.72 803.59 276.19 802.00
  A 0.85 0.54 -84.2 0 0 276.30 801.86
  L 280.91 794.74
  Z"
/>
<path fill="#0e6bb1" d="
  M 281.56 796.82
  C 283.11 804.57 288.39 812.60 297.21 811.18
  A 0.94 0.94 0.0 0 0 298.00 810.29
  L 298.20 805.42
  A 0.31 0.31 0.0 0 1 298.81 805.37
  C 300.51 812.51 304.75 816.82 309.66 822.50
  A 1.87 1.85 37.5 0 1 309.94 824.53
  Q 302.58 840.04 286.06 845.10
  Q 280.02 846.96 273.74 845.79
  Q 270.54 842.85 269.16 838.83
  Q 275.70 840.90 282.43 840.64
  C 288.12 840.41 292.96 838.46 298.14 836.78
  A 0.81 0.81 0.0 0 0 298.42 835.39
  C 296.11 833.40 294.74 831.45 292.35 830.13
  Q 289.95 828.80 287.48 826.74
  A 0.52 0.51 -10.0 0 1 288.07 825.90
  L 291.97 828.16
  A 0.59 0.59 0.0 0 0 292.81 827.43
  L 291.21 823.35
  A 0.93 0.89 -79.0 0 0 291.00 823.02
  Q 284.25 816.20 282.01 812.27
  Q 281.10 810.66 279.09 807.22
  A 1.24 1.23 58.5 0 0 277.37 806.80
  L 266.49 813.66
  A 6.30 5.88 16.0 0 1 265.43 814.20
  Q 261.40 815.80 258.03 818.35
  Q 257.16 817.39 257.11 815.86
  A 0.83 0.81 -14.9 0 1 257.55 815.12
  Q 266.64 810.26 275.51 805.03
  Q 277.43 803.90 281.56 796.82
  Z"
/>
<path fill="#393f46" d="
  M 317.61 806.08
  L 320.50 818.40
  A 0.53 0.53 0.0 0 0 321.44 818.59
  L 322.40 817.30
  A 0.58 0.58 0.0 0 1 323.44 817.63
  L 323.71 827.22
  L 322.40 825.77
  A 1.36 0.96 34.0 0 1 322.03 824.80
  Q 322.03 824.73 322.10 824.58
  A 0.81 0.79 -58.4 0 0 321.88 823.61
  Q 319.74 821.89 316.52 821.74
  A 0.73 0.72 -4.7 0 1 315.85 821.18
  C 314.47 815.10 314.15 811.35 317.61 806.08
  Z"
/>
<path fill="#fdfdfd" d="
  M 323.71 827.22
  L 323.44 817.63
  A 0.58 0.58 0.0 0 0 322.40 817.30
  L 321.44 818.59
  A 0.53 0.53 0.0 0 1 320.50 818.40
  L 317.61 806.08
  L 325.15 813.71
  A 1.77 1.76 -71.5 0 1 325.65 814.72
  L 326.49 821.19
  A 0.87 0.87 0.0 0 0 326.90 821.83
  Q 328.26 822.67 327.94 823.96
  Q 326.96 827.86 324.57 832.01
  A 1.49 1.49 0.0 0 1 322.53 832.56
  L 322.23 832.38
  A 1.12 1.11 28.8 0 1 321.79 830.89
  L 323.71 827.22
  Z"
/>
<path fill="#169aec" d="
  M 269.16 838.83
  L 265.97 830.83
  Q 269.36 828.68 275.31 828.85
  Q 276.38 828.88 280.21 826.91
  A 0.26 0.26 0.0 0 0 280.20 826.44
  Q 279.36 826.07 278.03 826.19
  Q 273.71 826.59 269.50 826.86
  Q 264.74 827.18 262.28 824.72
  L 258.03 818.35
  Q 261.40 815.80 265.43 814.20
  A 6.30 5.88 16.0 0 0 266.49 813.66
  L 277.37 806.80
  A 1.24 1.23 58.5 0 1 279.09 807.22
  Q 281.10 810.66 282.01 812.27
  Q 284.25 816.20 291.00 823.02
  A 0.93 0.89 -79.0 0 1 291.21 823.35
  L 292.81 827.43
  A 0.59 0.59 0.0 0 1 291.97 828.16
  L 288.07 825.90
  A 0.52 0.51 -10.0 0 0 287.48 826.74
  Q 289.95 828.80 292.35 830.13
  C 294.74 831.45 296.11 833.40 298.42 835.39
  A 0.81 0.81 0.0 0 1 298.14 836.78
  C 292.96 838.46 288.12 840.41 282.43 840.64
  Q 275.70 840.90 269.16 838.83
  Z"
/>
<path fill="#0e6bb1" d="
  M 256.02 818.50
  L 252.50 818.25
  A 1.90 1.88 -27.8 0 1 251.68 818.00
  L 239.05 810.84
  Q 238.79 811.56 237.54 807.92
  Q 237.57 807.84 237.60 807.65
  A 0.09 0.09 0.0 0 1 237.73 807.59
  L 249.94 815.07
  A 6.38 6.38 0.0 0 0 252.41 815.97
  L 254.04 816.20
  A 1.79 1.76 70.9 0 1 255.13 816.74
  Q 255.79 817.45 256.02 818.50
  Z"
/>
<path fill="#169aec" d="
  M 256.02 818.50
  L 261.82 827.02
  L 254.95 826.93
  A 0.33 0.33 0.0 0 0 254.80 827.56
  Q 258.76 829.54 263.50 829.11
  L 266.61 838.46
  L 252.65 836.30
  Q 251.79 832.79 250.78 828.53
  Q 250.33 826.67 247.98 824.26
  Q 242.74 818.89 239.05 810.84
  L 251.68 818.00
  A 1.90 1.88 -27.8 0 0 252.50 818.25
  L 256.02 818.50
  Z"
/>
<path fill="#0e6bb1" d="
  M 265.97 830.83
  L 266.31 828.63
  A 0.81 0.81 0.0 0 0 265.81 827.74
  L 263.59 826.88
  A 1.14 1.10 -12.2 0 1 263.35 826.73
  Q 262.37 825.87 262.28 824.72
  Q 264.74 827.18 269.50 826.86
  Q 273.71 826.59 278.03 826.19
  Q 279.36 826.07 280.20 826.44
  A 0.26 0.26 0.0 0 1 280.21 826.91
  Q 276.38 828.88 275.31 828.85
  Q 269.36 828.68 265.97 830.83
  Z"
/>
<path fill="#0e6bb1" d="
  M 261.82 827.02
  Q 261.84 828.17 263.50 829.11
  Q 258.76 829.54 254.80 827.56
  A 0.33 0.33 0.0 0 1 254.95 826.93
  L 261.82 827.02
  Z"
/>
<path fill="#393f46" d="
  M 233.63 875.48
  Q 233.67 875.09 233.83 874.93
  Q 235.04 871.28 233.35 866.38
  Q 239.59 868.10 246.28 871.71
  Q 247.15 872.18 248.06 871.74
  Q 248.17 871.68 248.11 871.39
  A 0.51 0.50 -85.1 0 0 247.79 871.00
  Q 242.52 868.88 239.34 865.62
  C 236.79 863.02 234.08 861.68 232.03 858.24
  A 3.85 3.84 -63.9 0 1 231.54 856.80
  L 230.32 847.44
  A 2.29 2.28 69.8 0 1 231.33 845.24
  Q 239.79 839.66 251.06 838.16
  A 2.52 2.48 -28.9 0 1 252.99 838.70
  Q 255.18 840.50 262.22 844.26
  Q 281.92 854.81 299.47 843.93
  C 302.90 841.79 306.86 838.27 310.98 835.69
  A 1.48 1.47 -48.1 0 1 312.40 835.61
  C 320.47 839.45 330.99 845.88 335.62 852.96
  Q 340.01 859.67 340.61 868.45
  A 2.17 2.17 0.0 0 1 339.30 870.60
  C 332.92 873.33 328.37 872.31 322.19 868.82
  C 316.61 865.67 314.16 864.16 309.67 862.06
  C 305.12 859.92 302.35 858.34 300.17 854.08
  A 0.33 0.33 0.0 0 0 299.55 854.25
  L 299.74 857.52
  A 0.43 0.43 0.0 0 1 299.28 857.98
  Q 287.44 857.25 277.21 853.87
  A 6.55 6.44 54.9 0 0 275.47 853.55
  L 271.26 853.38
  A 3.56 3.40 40.0 0 0 270.47 853.43
  Q 260.24 855.11 252.11 855.13
  A 0.48 0.47 83.6 0 0 251.65 855.71
  C 252.52 859.73 253.54 864.76 254.11 869.69
  Q 254.91 876.73 257.24 882.73
  A 0.72 0.72 0.0 0 1 256.32 883.67
  L 233.63 875.48
  Z"
/>
<path fill="#0e6bb1" d="
  M 266.61 838.46
  L 270.53 844.96
  Q 260.11 842.55 252.65 836.30
  L 266.61 838.46
  Z"
/>
<path fill="#fdfdfd" d="
  M 233.35 866.38
  Q 235.04 871.28 233.83 874.93
  Q 225.02 870.30 215.63 867.89
  Q 216.01 864.99 219.18 863.63
  A 0.17 0.16 38.2 0 0 219.14 863.32
  Q 216.67 862.85 215.18 864.92
  Q 214.42 865.97 213.73 868.04
  Q 210.37 867.20 207.78 868.53
  C 207.10 863.75 211.79 861.75 215.75 861.29
  Q 218.07 861.02 222.12 862.15
  Q 228.40 863.92 231.81 865.20
  Q 232.92 865.61 233.35 866.38
  Z"
/>
<path fill="#23252f" d="
  M 215.63 867.89
  C 215.72 870.46 218.76 872.53 220.50 874.19
  A 0.24 0.24 0.0 0 1 220.25 874.58
  Q 215.42 872.69 213.73 868.04
  Q 214.42 865.97 215.18 864.92
  Q 216.67 862.85 219.14 863.32
  A 0.17 0.16 38.2 0 1 219.18 863.63
  Q 216.01 864.99 215.63 867.89
  Z"
/>
<path fill="#b88585" d="
  M 207.78 868.53
  Q 210.37 867.20 213.73 868.04
  Q 215.42 872.69 220.25 874.58
  A 0.24 0.24 0.0 0 0 220.50 874.19
  C 218.76 872.53 215.72 870.46 215.63 867.89
  Q 225.02 870.30 233.83 874.93
  Q 233.67 875.09 233.63 875.48
  Q 230.56 879.79 226.05 882.16
  A 1.46 1.43 -50.8 0 1 224.97 882.28
  Q 217.52 880.19 211.20 876.49
  C 207.23 874.17 203.95 872.73 205.65 867.88
  A 0.34 0.34 0.0 0 1 206.30 867.94
  C 207.14 873.36 211.58 875.75 216.72 876.16
  A 0.17 0.17 0.0 0 0 216.80 875.83
  C 213.10 874.35 208.89 872.42 207.78 868.53
  Z"
/>
<path fill="#393f46" d="
  M 372.47 887.15
  Q 362.99 888.66 357.95 898.46
  Q 350.98 888.50 354.35 877.59
  A 0.47 0.47 0.0 0 1 354.97 877.29
  Q 364.71 880.93 372.47 887.15
  Z"
/>
<path fill="#fdfdfd" d="
  M 372.47 887.15
  Q 374.88 889.02 375.63 890.33
  Q 379.94 896.61 381.16 900.97
  Q 381.54 902.30 380.20 902.37
  L 375.77 898.81
  A 0.23 0.23 0.0 0 0 375.41 899.07
  Q 376.38 901.44 378.69 903.09
  Q 378.51 903.83 378.84 905.77
  Q 379.27 908.22 376.62 908.97
  Q 374.73 909.51 372.45 910.63
  Q 370.93 907.74 368.52 905.69
  A 0.20 0.20 0.0 0 0 368.19 905.88
  Q 368.53 907.84 370.21 909.75
  Q 367.78 910.49 364.93 909.91
  L 357.95 898.46
  Q 362.99 888.66 372.47 887.15
  Z"
/>
<path fill="#b88585" d="
  M 375.63 890.33
  Q 381.12 894.39 382.40 896.37
  Q 384.74 900.01 383.83 904.37
  A 0.28 0.27 -66.8 0 1 383.41 904.54
  L 380.20 902.37
  Q 381.54 902.30 381.16 900.97
  Q 379.94 896.61 375.63 890.33
  Z"
/>
<path fill="#b88585" d="
  M 378.69 903.09
  L 383.15 906.07
  A 0.77 0.77 0.0 0 1 383.48 906.85
  Q 381.60 917.29 372.45 910.63
  Q 374.73 909.51 376.62 908.97
  Q 379.27 908.22 378.84 905.77
  Q 378.51 903.83 378.69 903.09
  Z"
/>
<path fill="#b88585" d="
  M 370.21 909.75
  L 372.67 912.70
  A 0.26 0.25 70.8 0 1 372.47 913.12
  C 369.50 913.00 366.57 913.15 364.93 909.91
  Q 367.78 910.49 370.21 909.75
  Z"
/>
</svg>
