<?xml version="1.0" encoding="UTF-8" standalone="no"?>
<!DOCTYPE svg PUBLIC "-//W3C//DTD SVG 1.1//EN" "http://www.w3.org/Graphics/SVG/1.1/DTD/svg11.dtd">
<svg xmlns="http://www.w3.org/2000/svg" version="1.1" viewBox="0.00 0.00 1080.00 1080.00">
<g stroke-width="2.00" fill="none" stroke-linecap="butt">
<path stroke="#786064" vector-effect="non-scaling-stroke" d="
  M 531.66 841.60
  A 0.23 0.22 -22.7 0 0 531.79 841.30
  Q 527.65 830.79 521.77 821.82
  A 4.25 4.16 -86.6 0 0 521.04 820.98
  Q 515.42 816.07 513.34 814.65
  Q 504.41 808.60 493.68 803.05
  A 0.18 0.18 0.0 0 0 493.46 803.33
  Q 495.90 806.08 499.21 807.10
  A 3.61 3.15 -16.4 0 1 500.06 807.49
  Q 512.33 815.33 517.08 819.78
  C 518.35 820.97 520.36 822.60 521.69 824.67
  Q 527.09 833.03 531.01 841.77
  A 0.10 0.10 0.0 0 0 531.14 841.82
  L 531.66 841.60"
/>
<path stroke="#786064" vector-effect="non-scaling-stroke" d="
  M 573.79 848.60
  Q 575.61 847.78 576.74 847.01
  C 584.09 841.93 591.35 838.03 594.65 830.43
  Q 599.82 818.53 603.93 808.14
  Q 604.06 807.81 604.01 807.58
  A 0.60 0.60 0.0 0 0 603.15 807.15
  C 596.36 810.65 591.87 815.12 584.19 821.70
  C 578.89 826.23 575.39 836.49 573.67 842.90
  Q 572.61 846.86 573.10 848.30
  A 0.51 0.51 0.0 0 0 573.79 848.60"
/>
<path stroke="#786064" vector-effect="non-scaling-stroke" d="
  M 523.15 848.58
  A 0.51 0.51 0.0 0 0 523.84 848.28
  Q 524.33 846.84 523.28 842.88
  C 521.57 836.47 518.09 826.20 512.79 821.66
  C 505.13 815.07 500.65 810.60 493.86 807.08
  A 0.60 0.60 0.0 0 0 493.00 807.51
  Q 492.95 807.74 493.08 808.07
  Q 497.17 818.47 502.32 830.38
  C 505.61 837.98 512.86 841.89 520.20 846.98
  Q 521.33 847.76 523.15 848.58"
/>
<path stroke="#786064" vector-effect="non-scaling-stroke" d="
  M 522.29 865.17
  L 528.96 868.62
  A 1.35 1.34 -11.6 0 1 529.22 868.79
  Q 532.80 871.78 534.94 876.06"
/>
<path stroke="#9b9da0" vector-effect="non-scaling-stroke" d="
  M 534.94 876.06
  L 537.34 886.38
  A 0.92 0.90 -26.9 0 1 537.04 887.27
  C 534.77 889.19 532.31 890.46 530.41 892.91
  Q 525.81 898.81 530.12 905.21"
/>
<path stroke="#786064" vector-effect="non-scaling-stroke" d="
  M 530.12 905.21
  Q 531.15 907.85 532.68 908.35
  Q 538.66 910.33 544.68 912.35
  Q 548.89 913.76 552.04 912.61
  Q 558.07 910.39 564.18 908.45
  Q 565.17 908.14 566.33 905.90"
/>
<path stroke="#9b9da0" vector-effect="non-scaling-stroke" d="
  M 566.33 905.90
  Q 571.88 897.62 564.27 890.99
  Q 563.49 890.32 559.54 887.33
  A 0.89 0.89 0.0 0 1 559.23 886.35
  Q 559.34 886.00 559.70 885.60
  A 0.89 0.82 -21.5 0 0 559.91 885.17
  L 561.44 876.64"
/>
<path stroke="#786064" vector-effect="non-scaling-stroke" d="
  M 561.44 876.64
  Q 563.95 870.57 568.87 867.63
  Q 570.59 866.61 573.08 866.72
  A 1.07 1.05 21.3 0 0 573.92 866.36
  Q 574.51 865.71 574.92 864.51"
/>
<path stroke="#9b9da0" vector-effect="non-scaling-stroke" d="
  M 574.92 864.51
  Q 578.73 861.16 570.07 861.13
  A 2.54 2.46 29.7 0 0 568.86 861.44
  C 560.32 866.22 558.91 877.05 558.28 885.59
  A 0.53 0.53 0.0 0 1 557.48 886.01
  Q 551.31 882.29 544.74 883.82
  C 542.54 884.34 540.64 885.47 538.97 886.07
  A 0.58 0.58 0.0 0 1 538.20 885.55
  C 537.72 876.12 536.09 866.58 527.82 861.21
  A 1.69 1.68 -29.9 0 0 526.81 860.94
  Q 518.35 861.32 522.29 865.17"
/>
<path stroke="#dac0c0" vector-effect="non-scaling-stroke" d="
  M 574.92 864.51
  Q 567.66 865.11 563.64 870.38
  Q 561.83 872.74 561.44 876.64"
/>
<path stroke="#dac0c0" vector-effect="non-scaling-stroke" d="
  M 566.33 905.90
  Q 559.64 907.76 553.87 910.10
  Q 549.86 911.72 547.24 911.06
  Q 543.17 910.04 530.12 905.21"
/>
<path stroke="#dac0c0" vector-effect="non-scaling-stroke" d="
  M 534.94 876.06
  C 535.43 872.38 532.50 869.99 529.68 867.60
  Q 526.42 864.83 522.29 865.17"
/>
<path stroke="#9b9da0" vector-effect="non-scaling-stroke" d="
  M 527.32 870.59
  A 0.35 0.35 0.0 0 0 527.41 869.99
  Q 525.42 868.35 523.36 869.08
  A 2.73 2.71 -76.6 0 0 522.34 869.71
  C 519.80 872.24 518.77 876.98 521.33 880.05
  Q 522.76 881.79 524.33 882.79
  A 0.45 0.45 0.0 0 0 524.98 882.22
  C 523.21 878.54 522.75 872.43 527.32 870.59"
/>
<path stroke="#9b9da0" vector-effect="non-scaling-stroke" d="
  M 569.43 870.72
  C 574.03 872.57 573.57 878.72 571.80 882.42
  A 0.45 0.45 0.0 0 0 572.45 883.00
  Q 574.03 881.99 575.47 880.24
  C 578.04 877.15 577.00 872.38 574.44 869.83
  A 2.74 2.73 76.5 0 0 573.42 869.20
  Q 571.34 868.47 569.34 870.12
  A 0.35 0.35 0.0 0 0 569.43 870.72"
/>
<path stroke="#9b9da0" vector-effect="non-scaling-stroke" d="
  M 528.8549 872.6701
  A 2.16 1.75 -90.4 0 0 527.1200 874.8422
  A 2.16 1.75 -90.4 0 0 528.8851 876.9899
  A 2.16 1.75 -90.4 0 0 530.6200 874.8178
  A 2.16 1.75 -90.4 0 0 528.8549 872.6701"
/>
<path stroke="#9b9da0" vector-effect="non-scaling-stroke" d="
  M 567.7815 872.8507
  A 2.10 1.80 -78.7 0 0 565.6049 874.5573
  A 2.10 1.80 -78.7 0 0 566.9585 876.9693
  A 2.10 1.80 -78.7 0 0 569.1351 875.2627
  A 2.10 1.80 -78.7 0 0 567.7815 872.8507"
/>
<path stroke="#9b9da0" vector-effect="non-scaling-stroke" d="
  M 565.05 884.11
  Q 563.42 882.58 562.90 880.07
  A 0.49 0.48 -50.9 0 0 561.94 880.17
  L 561.94 883.93
  A 0.68 0.67 8.0 0 0 562.44 884.58
  Q 563.40 884.84 564.88 884.65
  A 0.32 0.31 62.7 0 0 565.05 884.11"
/>
<path stroke="#9b9da0" vector-effect="non-scaling-stroke" d="
  M 532.47 884.61
  Q 532.95 884.64 533.83 884.42
  A 0.88 0.87 86.8 0 0 534.50 883.66
  Q 534.62 882.67 534.15 881.11
  A 0.38 0.38 0.0 0 0 533.43 881.07
  L 532.18 884.15
  A 0.34 0.34 0.0 0 0 532.47 884.61"
/>
<path stroke="#dac0c0" vector-effect="non-scaling-stroke" d="
  M 592.26 823.03
  Q 591.06 823.98 590.05 824.12
  A 0.50 0.50 0.0 0 1 589.59 823.31
  L 593.39 818.53
  A 0.22 0.21 -51.8 0 0 593.36 818.23
  L 593.16 818.07
  A 0.23 0.22 41.9 0 0 592.86 818.08
  L 583.83 827.11
  A 0.47 0.47 0.0 0 0 584.35 827.88
  L 586.26 827.08
  A 0.51 0.50 7.9 0 1 586.85 827.86
  L 580.49 835.87
  A 0.56 0.56 0.0 0 0 581.14 836.73
  L 582.45 836.18
  A 0.88 0.88 0.0 0 1 583.48 837.54
  L 580.26 841.58
  A 0.26 0.26 0.0 0 0 580.63 841.94
  Q 585.22 838.10 588.42 834.15
  A 0.65 0.65 0.0 0 0 587.66 833.14
  L 586.44 833.65
  A 0.63 0.63 0.0 0 1 585.71 832.68
  L 592.88 823.66
  A 0.45 0.44 -89.8 0 0 592.26 823.03"
/>
<path stroke="#dac0c0" vector-effect="non-scaling-stroke" d="
  M 517.97 844.05
  L 513.93 837.05
  A 0.47 0.47 0.0 0 1 514.51 836.38
  L 515.87 836.93
  A 0.42 0.42 0.0 0 0 516.37 836.30
  L 510.29 827.83
  A 0.37 0.37 0.0 0 1 510.78 827.29
  Q 511.98 827.98 513.19 827.94
  A 0.24 0.24 0.0 0 0 513.35 827.53
  L 504.03 818.20
  A 0.41 0.41 0.0 0 0 503.42 818.75
  L 507.34 823.53
  A 0.33 0.32 73.1 0 1 507.06 824.06
  Q 505.85 823.96 504.85 823.34
  A 0.53 0.53 0.0 0 0 504.16 824.13
  L 511.48 833.04
  A 0.35 0.34 -19.5 0 1 511.21 833.60
  L 509.15 833.60
  A 0.75 0.75 0.0 0 0 508.62 834.88
  L 517.87 844.13
  A 0.07 0.06 -82.8 0 0 517.97 844.05"
/>
<path stroke="#9b9da0" vector-effect="non-scaling-stroke" d="
  M 541.42 904.61
  L 547.86 901.92
  A 1.18 1.16 43.9 0 1 548.73 901.91
  L 555.97 904.84
  A 0.39 0.39 0.0 0 0 556.47 904.63
  L 556.63 904.24
  A 0.61 0.61 0.0 0 0 556.29 903.44
  L 549.85 900.83
  A 1.05 1.05 0.0 0 1 549.18 899.85
  L 549.18 897.07
  A 0.99 0.97 -14.4 0 1 549.70 896.21
  Q 551.08 895.47 554.53 892.73
  A 2.02 1.90 -44.8 0 0 554.63 889.65
  Q 554.02 889.18 551.74 889.08
  Q 547.54 888.91 544.53 889.11
  Q 542.30 889.27 541.72 889.93
  A 2.12 1.95 37.6 0 0 542.24 892.93
  Q 543.91 894.08 547.12 896.19
  A 1.38 1.38 0.0 0 1 547.72 897.06
  Q 548.08 898.73 547.57 899.99
  A 1.48 1.47 -0.6 0 1 546.75 900.82
  L 540.88 903.27
  A 0.46 0.45 78.2 0 0 540.61 903.69
  L 540.61 904.07
  A 0.59 0.58 78.6 0 0 541.42 904.61"
/>
<path stroke="#786064" vector-effect="non-scaling-stroke" d="
  M 548.34 895.33
  Q 548.68 895.33 548.76 895.28
  Q 553.43 892.12 553.50 892.08
  A 1.03 1.03 0.0 0 0 553.24 890.19
  Q 552.14 889.91 548.35 889.91
  Q 544.55 889.90 543.46 890.18
  A 1.03 1.03 0.0 0 0 543.19 892.07
  Q 543.26 892.11 547.92 895.28
  Q 548.01 895.33 548.34 895.33"
/>
</g>
<path fill="#383d44" d="
  M 535.85 841.14
  A 0.93 0.93 0.0 0 1 536.51 839.55
  L 544.47 839.55
  A 0.88 0.88 0.0 0 0 545.24 838.24
  Q 544.02 836.10 543.88 834.61
  A 0.62 0.62 0.0 0 1 544.76 833.99
  Q 551.88 837.26 557.86 841.85
  Q 559.38 843.02 561.86 843.13
  A 0.82 0.80 10.0 0 0 562.66 842.59
  Q 565.70 833.84 570.90 824.91
  C 574.20 819.22 578.99 815.16 584.24 811.98
  C 585.09 811.47 585.63 810.80 586.48 810.27
  Q 598.10 803.17 608.73 797.98
  A 0.63 0.63 0.0 0 1 609.62 798.67
  Q 606.19 815.54 599.91 830.18
  C 598.22 834.14 596.18 838.06 592.90 841.33
  C 588.57 845.66 584.52 848.62 578.49 853.18
  A 0.71 0.71 0.0 0 0 578.28 854.06
  Q 582.44 862.34 584.16 871.12
  A 3.46 3.29 -67.1 0 0 584.54 872.13
  Q 584.80 872.58 585.56 874.88
  A 3.75 3.59 -73.1 0 0 586.08 875.91
  L 592.80 885.27
  A 0.65 0.65 0.0 0 1 592.81 886.02
  Q 591.99 887.21 590.04 887.34
  A 0.78 0.78 0.0 0 0 589.73 888.80
  Q 590.64 889.28 591.79 890.65
  A 1.03 1.03 0.0 0 1 591.76 892.00
  C 585.63 898.74 579.61 904.54 570.96 907.92
  Q 563.24 910.93 553.03 914.07
  C 549.57 915.13 547.71 915.08 544.14 914.05
  Q 535.23 911.49 524.57 907.42
  Q 519.71 905.56 515.93 902.32
  Q 510.31 897.52 505.32 892.14
  A 1.34 1.34 0.0 0 1 505.36 890.28
  L 507.04 888.60
  A 0.80 0.80 0.0 0 0 506.53 887.24
  Q 505.08 887.13 504.44 886.13
  A 0.94 0.94 0.0 0 1 504.47 885.09
  Q 508.25 879.74 510.99 876.08
  Q 512.04 874.68 512.80 871.19
  Q 513.29 868.95 514.13 866.13
  Q 516.12 859.39 518.66 854.15
  A 0.81 0.79 31.5 0 0 518.41 853.16
  Q 516.45 851.73 506.95 844.05
  C 503.64 841.37 500.56 837.01 498.57 832.74
  Q 490.85 816.18 487.48 799.17
  A 0.82 0.82 0.0 0 1 488.66 798.28
  Q 502.04 805.27 513.55 812.62
  C 518.67 815.89 522.99 819.57 526.32 825.59
  Q 531.41 834.74 534.50 842.86
  A 0.83 0.83 0.0 0 0 535.31 843.38
  Q 536.09 843.34 536.84 842.96
  A 0.45 0.45 0.0 0 0 536.96 842.24
  L 535.85 841.14
  Z
  M 531.66 841.60
  A 0.23 0.22 -22.7 0 0 531.79 841.30
  Q 527.65 830.79 521.77 821.82
  A 4.25 4.16 -86.6 0 0 521.04 820.98
  Q 515.42 816.07 513.34 814.65
  Q 504.41 808.60 493.68 803.05
  A 0.18 0.18 0.0 0 0 493.46 803.33
  Q 495.90 806.08 499.21 807.10
  A 3.61 3.15 -16.4 0 1 500.06 807.49
  Q 512.33 815.33 517.08 819.78
  C 518.35 820.97 520.36 822.60 521.69 824.67
  Q 527.09 833.03 531.01 841.77
  A 0.10 0.10 0.0 0 0 531.14 841.82
  L 531.66 841.60
  Z
  M 573.79 848.60
  Q 575.61 847.78 576.74 847.01
  C 584.09 841.93 591.35 838.03 594.65 830.43
  Q 599.82 818.53 603.93 808.14
  Q 604.06 807.81 604.01 807.58
  A 0.60 0.60 0.0 0 0 603.15 807.15
  C 596.36 810.65 591.87 815.12 584.19 821.70
  C 578.89 826.23 575.39 836.49 573.67 842.90
  Q 572.61 846.86 573.10 848.30
  A 0.51 0.51 0.0 0 0 573.79 848.60
  Z
  M 523.15 848.58
  A 0.51 0.51 0.0 0 0 523.84 848.28
  Q 524.33 846.84 523.28 842.88
  C 521.57 836.47 518.09 826.20 512.79 821.66
  C 505.13 815.07 500.65 810.60 493.86 807.08
  A 0.60 0.60 0.0 0 0 493.00 807.51
  Q 492.95 807.74 493.08 808.07
  Q 497.17 818.47 502.32 830.38
  C 505.61 837.98 512.86 841.89 520.20 846.98
  Q 521.33 847.76 523.15 848.58
  Z
  M 522.29 865.17
  L 528.96 868.62
  A 1.35 1.34 -11.6 0 1 529.22 868.79
  Q 532.80 871.78 534.94 876.06
  L 537.34 886.38
  A 0.92 0.90 -26.9 0 1 537.04 887.27
  C 534.77 889.19 532.31 890.46 530.41 892.91
  Q 525.81 898.81 530.12 905.21
  Q 531.15 907.85 532.68 908.35
  Q 538.66 910.33 544.68 912.35
  Q 548.89 913.76 552.04 912.61
  Q 558.07 910.39 564.18 908.45
  Q 565.17 908.14 566.33 905.90
  Q 571.88 897.62 564.27 890.99
  Q 563.49 890.32 559.54 887.33
  A 0.89 0.89 0.0 0 1 559.23 886.35
  Q 559.34 886.00 559.70 885.60
  A 0.89 0.82 -21.5 0 0 559.91 885.17
  L 561.44 876.64
  Q 563.95 870.57 568.87 867.63
  Q 570.59 866.61 573.08 866.72
  A 1.07 1.05 21.3 0 0 573.92 866.36
  Q 574.51 865.71 574.92 864.51
  Q 578.73 861.16 570.07 861.13
  A 2.54 2.46 29.7 0 0 568.86 861.44
  C 560.32 866.22 558.91 877.05 558.28 885.59
  A 0.53 0.53 0.0 0 1 557.48 886.01
  Q 551.31 882.29 544.74 883.82
  C 542.54 884.34 540.64 885.47 538.97 886.07
  A 0.58 0.58 0.0 0 1 538.20 885.55
  C 537.72 876.12 536.09 866.58 527.82 861.21
  A 1.69 1.68 -29.9 0 0 526.81 860.94
  Q 518.35 861.32 522.29 865.17
  Z
  M 527.32 870.59
  A 0.35 0.35 0.0 0 0 527.41 869.99
  Q 525.42 868.35 523.36 869.08
  A 2.73 2.71 -76.6 0 0 522.34 869.71
  C 519.80 872.24 518.77 876.98 521.33 880.05
  Q 522.76 881.79 524.33 882.79
  A 0.45 0.45 0.0 0 0 524.98 882.22
  C 523.21 878.54 522.75 872.43 527.32 870.59
  Z
  M 569.43 870.72
  C 574.03 872.57 573.57 878.72 571.80 882.42
  A 0.45 0.45 0.0 0 0 572.45 883.00
  Q 574.03 881.99 575.47 880.24
  C 578.04 877.15 577.00 872.38 574.44 869.83
  A 2.74 2.73 76.5 0 0 573.42 869.20
  Q 571.34 868.47 569.34 870.12
  A 0.35 0.35 0.0 0 0 569.43 870.72
  Z
  M 528.8549 872.6701
  A 2.16 1.75 -90.4 0 0 527.1200 874.8422
  A 2.16 1.75 -90.4 0 0 528.8851 876.9899
  A 2.16 1.75 -90.4 0 0 530.6200 874.8178
  A 2.16 1.75 -90.4 0 0 528.8549 872.6701
  Z
  M 567.7815 872.8507
  A 2.10 1.80 -78.7 0 0 565.6049 874.5573
  A 2.10 1.80 -78.7 0 0 566.9585 876.9693
  A 2.10 1.80 -78.7 0 0 569.1351 875.2627
  A 2.10 1.80 -78.7 0 0 567.7815 872.8507
  Z
  M 565.05 884.11
  Q 563.42 882.58 562.90 880.07
  A 0.49 0.48 -50.9 0 0 561.94 880.17
  L 561.94 883.93
  A 0.68 0.67 8.0 0 0 562.44 884.58
  Q 563.40 884.84 564.88 884.65
  A 0.32 0.31 62.7 0 0 565.05 884.11
  Z
  M 532.47 884.61
  Q 532.95 884.64 533.83 884.42
  A 0.88 0.87 86.8 0 0 534.50 883.66
  Q 534.62 882.67 534.15 881.11
  A 0.38 0.38 0.0 0 0 533.43 881.07
  L 532.18 884.15
  A 0.34 0.34 0.0 0 0 532.47 884.61
  Z"
/>
<path fill="#b78383" d="
  M 531.66 841.60
  L 531.14 841.82
  A 0.10 0.10 0.0 0 1 531.01 841.77
  Q 527.09 833.03 521.69 824.67
  C 520.36 822.60 518.35 820.97 517.08 819.78
  Q 512.33 815.33 500.06 807.49
  A 3.61 3.15 -16.4 0 0 499.21 807.10
  Q 495.90 806.08 493.46 803.33
  A 0.18 0.18 0.0 0 1 493.68 803.05
  Q 504.41 808.60 513.34 814.65
  Q 515.42 816.07 521.04 820.98
  A 4.25 4.16 -86.6 0 1 521.77 821.82
  Q 527.65 830.79 531.79 841.30
  A 0.23 0.22 -22.7 0 1 531.66 841.60
  Z"
/>
<path fill="#b78383" d="
  M 573.10 848.30
  Q 572.61 846.86 573.67 842.90
  C 575.39 836.49 578.89 826.23 584.19 821.70
  C 591.87 815.12 596.36 810.65 603.15 807.15
  A 0.60 0.60 0.0 0 1 604.01 807.58
  Q 604.06 807.81 603.93 808.14
  Q 599.82 818.53 594.65 830.43
  C 591.35 838.03 584.09 841.93 576.74 847.01
  Q 575.61 847.78 573.79 848.60
  A 0.51 0.51 0.0 0 1 573.10 848.30
  Z
  M 592.26 823.03
  Q 591.06 823.98 590.05 824.12
  A 0.50 0.50 0.0 0 1 589.59 823.31
  L 593.39 818.53
  A 0.22 0.21 -51.8 0 0 593.36 818.23
  L 593.16 818.07
  A 0.23 0.22 41.9 0 0 592.86 818.08
  L 583.83 827.11
  A 0.47 0.47 0.0 0 0 584.35 827.88
  L 586.26 827.08
  A 0.51 0.50 7.9 0 1 586.85 827.86
  L 580.49 835.87
  A 0.56 0.56 0.0 0 0 581.14 836.73
  L 582.45 836.18
  A 0.88 0.88 0.0 0 1 583.48 837.54
  L 580.26 841.58
  A 0.26 0.26 0.0 0 0 580.63 841.94
  Q 585.22 838.10 588.42 834.15
  A 0.65 0.65 0.0 0 0 587.66 833.14
  L 586.44 833.65
  A 0.63 0.63 0.0 0 1 585.71 832.68
  L 592.88 823.66
  A 0.45 0.44 -89.8 0 0 592.26 823.03
  Z"
/>
<path fill="#b78383" d="
  M 523.15 848.58
  Q 521.33 847.76 520.20 846.98
  C 512.86 841.89 505.61 837.98 502.32 830.38
  Q 497.17 818.47 493.08 808.07
  Q 492.95 807.74 493.00 807.51
  A 0.60 0.60 0.0 0 1 493.86 807.08
  C 500.65 810.60 505.13 815.07 512.79 821.66
  C 518.09 826.20 521.57 836.47 523.28 842.88
  Q 524.33 846.84 523.84 848.28
  A 0.51 0.51 0.0 0 1 523.15 848.58
  Z
  M 517.97 844.05
  L 513.93 837.05
  A 0.47 0.47 0.0 0 1 514.51 836.38
  L 515.87 836.93
  A 0.42 0.42 0.0 0 0 516.37 836.30
  L 510.29 827.83
  A 0.37 0.37 0.0 0 1 510.78 827.29
  Q 511.98 827.98 513.19 827.94
  A 0.24 0.24 0.0 0 0 513.35 827.53
  L 504.03 818.20
  A 0.41 0.41 0.0 0 0 503.42 818.75
  L 507.34 823.53
  A 0.33 0.32 73.1 0 1 507.06 824.06
  Q 505.85 823.96 504.85 823.34
  A 0.53 0.53 0.0 0 0 504.16 824.13
  L 511.48 833.04
  A 0.35 0.34 -19.5 0 1 511.21 833.60
  L 509.15 833.60
  A 0.75 0.75 0.0 0 0 508.62 834.88
  L 517.87 844.13
  A 0.07 0.06 -82.8 0 0 517.97 844.05
  Z"
/>
<path fill="#fdfdfc" d="
  M 592.26 823.03
  A 0.45 0.44 -89.8 0 1 592.88 823.66
  L 585.71 832.68
  A 0.63 0.63 0.0 0 0 586.44 833.65
  L 587.66 833.14
  A 0.65 0.65 0.0 0 1 588.42 834.15
  Q 585.22 838.10 580.63 841.94
  A 0.26 0.26 0.0 0 1 580.26 841.58
  L 583.48 837.54
  A 0.88 0.88 0.0 0 0 582.45 836.18
  L 581.14 836.73
  A 0.56 0.56 0.0 0 1 580.49 835.87
  L 586.85 827.86
  A 0.51 0.50 7.9 0 0 586.26 827.08
  L 584.35 827.88
  A 0.47 0.47 0.0 0 1 583.83 827.11
  L 592.86 818.08
  A 0.23 0.22 41.9 0 1 593.16 818.07
  L 593.36 818.23
  A 0.22 0.21 -51.8 0 1 593.39 818.53
  L 589.59 823.31
  A 0.50 0.50 0.0 0 0 590.05 824.12
  Q 591.06 823.98 592.26 823.03
  Z"
/>
<path fill="#fdfdfc" d="
  M 517.97 844.05
  A 0.07 0.06 -82.8 0 1 517.87 844.13
  L 508.62 834.88
  A 0.75 0.75 0.0 0 1 509.15 833.60
  L 511.21 833.60
  A 0.35 0.34 -19.5 0 0 511.48 833.04
  L 504.16 824.13
  A 0.53 0.53 0.0 0 1 504.85 823.34
  Q 505.85 823.96 507.06 824.06
  A 0.33 0.32 73.1 0 0 507.34 823.53
  L 503.42 818.75
  A 0.41 0.41 0.0 0 1 504.03 818.20
  L 513.35 827.53
  A 0.24 0.24 0.0 0 1 513.19 827.94
  Q 511.98 827.98 510.78 827.29
  A 0.37 0.37 0.0 0 0 510.29 827.83
  L 516.37 836.30
  A 0.42 0.42 0.0 0 1 515.87 836.93
  L 514.51 836.38
  A 0.47 0.47 0.0 0 0 513.93 837.05
  L 517.97 844.05
  Z"
/>
<path fill="#fdfdfc" d="
  M 574.92 864.51
  Q 567.66 865.11 563.64 870.38
  Q 561.83 872.74 561.44 876.64
  L 559.91 885.17
  A 0.89 0.82 -21.5 0 1 559.70 885.60
  Q 559.34 886.00 559.23 886.35
  A 0.89 0.89 0.0 0 0 559.54 887.33
  Q 563.49 890.32 564.27 890.99
  Q 571.88 897.62 566.33 905.90
  Q 559.64 907.76 553.87 910.10
  Q 549.86 911.72 547.24 911.06
  Q 543.17 910.04 530.12 905.21
  Q 525.81 898.81 530.41 892.91
  C 532.31 890.46 534.77 889.19 537.04 887.27
  A 0.92 0.90 -26.9 0 0 537.34 886.38
  L 534.94 876.06
  C 535.43 872.38 532.50 869.99 529.68 867.60
  Q 526.42 864.83 522.29 865.17
  Q 518.35 861.32 526.81 860.94
  A 1.69 1.68 -29.9 0 1 527.82 861.21
  C 536.09 866.58 537.72 876.12 538.20 885.55
  A 0.58 0.58 0.0 0 0 538.97 886.07
  C 540.64 885.47 542.54 884.34 544.74 883.82
  Q 551.31 882.29 557.48 886.01
  A 0.53 0.53 0.0 0 0 558.28 885.59
  C 558.91 877.05 560.32 866.22 568.86 861.44
  A 2.54 2.46 29.7 0 1 570.07 861.13
  Q 578.73 861.16 574.92 864.51
  Z
  M 541.42 904.61
  L 547.86 901.92
  A 1.18 1.16 43.9 0 1 548.73 901.91
  L 555.97 904.84
  A 0.39 0.39 0.0 0 0 556.47 904.63
  L 556.63 904.24
  A 0.61 0.61 0.0 0 0 556.29 903.44
  L 549.85 900.83
  A 1.05 1.05 0.0 0 1 549.18 899.85
  L 549.18 897.07
  A 0.99 0.97 -14.4 0 1 549.70 896.21
  Q 551.08 895.47 554.53 892.73
  A 2.02 1.90 -44.8 0 0 554.63 889.65
  Q 554.02 889.18 551.74 889.08
  Q 547.54 888.91 544.53 889.11
  Q 542.30 889.27 541.72 889.93
  A 2.12 1.95 37.6 0 0 542.24 892.93
  Q 543.91 894.08 547.12 896.19
  A 1.38 1.38 0.0 0 1 547.72 897.06
  Q 548.08 898.73 547.57 899.99
  A 1.48 1.47 -0.6 0 1 546.75 900.82
  L 540.88 903.27
  A 0.46 0.45 78.2 0 0 540.61 903.69
  L 540.61 904.07
  A 0.59 0.58 78.6 0 0 541.42 904.61
  Z"
/>
<path fill="#b78383" d="
  M 574.92 864.51
  Q 574.51 865.71 573.92 866.36
  A 1.07 1.05 21.3 0 1 573.08 866.72
  Q 570.59 866.61 568.87 867.63
  Q 563.95 870.57 561.44 876.64
  Q 561.83 872.74 563.64 870.38
  Q 567.66 865.11 574.92 864.51
  Z"
/>
<path fill="#b78383" d="
  M 534.94 876.06
  Q 532.80 871.78 529.22 868.79
  A 1.35 1.34 -11.6 0 0 528.96 868.62
  L 522.29 865.17
  Q 526.42 864.83 529.68 867.60
  C 532.50 869.99 535.43 872.38 534.94 876.06
  Z"
/>
<path fill="#fdfdfc" d="
  M 527.32 870.59
  C 522.75 872.43 523.21 878.54 524.98 882.22
  A 0.45 0.45 0.0 0 1 524.33 882.79
  Q 522.76 881.79 521.33 880.05
  C 518.77 876.98 519.80 872.24 522.34 869.71
  A 2.73 2.71 -76.6 0 1 523.36 869.08
  Q 525.42 868.35 527.41 869.99
  A 0.35 0.35 0.0 0 1 527.32 870.59
  Z"
/>
<path fill="#fdfdfc" d="
  M 569.34 870.12
  Q 571.34 868.47 573.42 869.20
  A 2.74 2.73 76.5 0 1 574.44 869.83
  C 577.00 872.38 578.04 877.15 575.47 880.24
  Q 574.03 881.99 572.45 883.00
  A 0.45 0.45 0.0 0 1 571.80 882.42
  C 573.57 878.72 574.03 872.57 569.43 870.72
  A 0.35 0.35 0.0 0 1 569.34 870.12
  Z"
/>
<ellipse fill="#fdfdfc" cx="0.00" cy="0.00" transform="translate(528.87,874.83) rotate(-90.4)" rx="2.16" ry="1.75"/>
<ellipse fill="#fdfdfc" cx="0.00" cy="0.00" transform="translate(567.37,874.91) rotate(-78.7)" rx="2.10" ry="1.80"/>
<path fill="#fdfdfc" d="
  M 564.88 884.65
  Q 563.40 884.84 562.44 884.58
  A 0.68 0.67 8.0 0 1 561.94 883.93
  L 561.94 880.17
  A 0.49 0.48 -50.9 0 1 562.90 880.07
  Q 563.42 882.58 565.05 884.11
  A 0.32 0.31 62.7 0 1 564.88 884.65
  Z"
/>
<path fill="#fdfdfc" d="
  M 532.18 884.15
  L 533.43 881.07
  A 0.38 0.38 0.0 0 1 534.15 881.11
  Q 534.62 882.67 534.50 883.66
  A 0.88 0.87 86.8 0 1 533.83 884.42
  Q 532.95 884.64 532.47 884.61
  A 0.34 0.34 0.0 0 1 532.18 884.15
  Z"
/>
<path fill="#383d44" d="
  M 541.42 904.61
  A 0.59 0.58 78.6 0 1 540.61 904.07
  L 540.61 903.69
  A 0.46 0.45 78.2 0 1 540.88 903.27
  L 546.75 900.82
  A 1.48 1.47 -0.6 0 0 547.57 899.99
  Q 548.08 898.73 547.72 897.06
  A 1.38 1.38 0.0 0 0 547.12 896.19
  Q 543.91 894.08 542.24 892.93
  A 2.12 1.95 37.6 0 1 541.72 889.93
  Q 542.30 889.27 544.53 889.11
  Q 547.54 888.91 551.74 889.08
  Q 554.02 889.18 554.63 889.65
  A 2.02 1.90 -44.8 0 1 554.53 892.73
  Q 551.08 895.47 549.70 896.21
  A 0.99 0.97 -14.4 0 0 549.18 897.07
  L 549.18 899.85
  A 1.05 1.05 0.0 0 0 549.85 900.83
  L 556.29 903.44
  A 0.61 0.61 0.0 0 1 556.63 904.24
  L 556.47 904.63
  A 0.39 0.39 0.0 0 1 555.97 904.84
  L 548.73 901.91
  A 1.18 1.16 43.9 0 0 547.86 901.92
  L 541.42 904.61
  Z
  M 548.34 895.33
  Q 548.68 895.33 548.76 895.28
  Q 553.43 892.12 553.50 892.08
  A 1.03 1.03 0.0 0 0 553.24 890.19
  Q 552.14 889.91 548.35 889.91
  Q 544.55 889.90 543.46 890.18
  A 1.03 1.03 0.0 0 0 543.19 892.07
  Q 543.26 892.11 547.92 895.28
  Q 548.01 895.33 548.34 895.33
  Z"
/>
<path fill="#b78383" d="
  M 548.35 889.91
  Q 552.14 889.91 553.24 890.19
  A 1.03 1.03 0.0 0 1 553.50 892.08
  Q 553.43 892.12 548.76 895.28
  Q 548.68 895.33 548.34 895.33
  Q 548.01 895.33 547.92 895.28
  Q 543.26 892.11 543.19 892.07
  A 1.03 1.03 0.0 0 1 543.46 890.18
  Q 544.55 889.90 548.35 889.91
  Z"
/>
<path fill="#b78383" d="
  M 566.33 905.90
  Q 565.17 908.14 564.18 908.45
  Q 558.07 910.39 552.04 912.61
  Q 548.89 913.76 544.68 912.35
  Q 538.66 910.33 532.68 908.35
  Q 531.15 907.85 530.12 905.21
  Q 543.17 910.04 547.24 911.06
  Q 549.86 911.72 553.87 910.10
  Q 559.64 907.76 566.33 905.90
  Z"
/>
</svg>
